<?xml version="1.0" encoding="utf-8"?>
<!-- Generator: Adobe Illustrator 25.1.0, SVG Export Plug-In . SVG Version: 6.00 Build 0)  -->
<svg version="1.1" id="bulb2_Layer_1" xmlns="http://www.w3.org/2000/svg" xmlns:xlink="http://www.w3.org/1999/xlink" x="0px" y="0px"
	 viewBox="0 0 3503 4012.2" style="enable-background:new 0 0 3503 4012.2;" xml:space="preserve">
<style type="text/css">
	.st0{fill:#617777;}
	.st1{fill:#C3DAE5;}
	.st2{fill:#7E9999;}
	.st3{fill:#95BCBC;}
	.st4{fill:#A7C5C6;}
	.st5{fill:#E8F0F7;}
	.st6{fill:#FFFFFF;}
	.st7{fill:#D8AE00;}
	.st8{fill:#FFD524;}
	.st9{fill:#FCF232;}
	.st10{fill:#F4C708;}
	.st11{opacity:0.4;fill:#8CAABA;enable-background:new    ;}
</style>
<ellipse cx="1743" cy="3913.9" rx="474.3" ry="98.3"/>
<g>
	<g>
		<path class="st0" d="M1929.6,3464.3c-28.1,80-104.4,137.3-194.1,137.2c-89.6-0.2-165.7-57.7-193.5-137.9
			c46.4,25.9,99.7,40.6,156.3,40.7l74.8,0.1C1829.7,3504.6,1883.1,3490,1929.6,3464.3z"/>
		<path class="st1" d="M2640.6,1725.7c-0.1,74.4-9.3,146.7-26.4,215.8c-25.7,103.9-69.4,200.6-127.7,286.8
			c-65.6,97.1-149.7,180.7-247.2,245.9c-54.7,36.8-90.8,99.9-90.9,170.8l-0.2,115.2c-0.1,49.7-18.7,95.3-49.4,130.1
			c-29.9,34.1-71.4,57.8-118,65.1c-10.1,1.6-20.4,2.4-30.9,2.4l-78-0.1l-32.2-0.1l-178.4-0.3l-32.2-0.1l-105.6-0.2
			c-1.1,0-2.3,0-3.4,0c-57.8-1.1-109.7-27.3-145.3-68c-30.5-34.9-49-80.5-48.9-130.2l0.2-115.2c0.1-70.9-35.7-133.4-90.2-170.4v-0.6
			c-93-62.7-173.7-142.2-237.6-234.2c157.6,133.7,361.6,214.6,584.5,215c9.9,0,19.7-0.1,29.5-0.4c10.8-0.3,21.5-0.9,32.2-1.6
			c72.2-4.7,142.1-17.9,208.7-38.5c11.5-3.5,22.8-7.3,34-11.3c63.8-22.6,124.4-52.2,180.7-87.8c2.6-1.7,5.3-3.4,7.9-5.1
			c2.6-1.6,5.1-3.3,7.6-5c0.1-0.1,0.3-0.2,0.4-0.3c4.5-3,8.9-6,13.4-9c1.2-0.8,2.4-1.6,3.6-2.5c1.8-1.2,3.6-2.5,5.4-3.8
			c4.7-3.3,9.5-6.7,14.1-10.2c1.8-1.3,3.6-2.7,5.4-4c1.8-1.3,3.6-2.6,5.3-4c7.7-5.8,15.3-11.8,22.9-17.9c3.3-2.7,6.5-5.3,9.8-8
			c2.4-2,4.8-4,7.1-6c1.4-1.2,2.8-2.4,4.1-3.6c1.8-1.5,3.5-3,5.3-4.6c1.7-1.5,3.5-3,5.2-4.6l0.1-0.1c1.7-1.5,3.5-3.1,5.2-4.7
			c5.2-4.7,10.3-9.4,15.4-14.2c1.4-1.3,2.7-2.6,4.1-3.8c5.5-5.3,11-10.7,16.4-16.1c1.2-1.2,2.4-2.5,3.6-3.7
			c5.2-5.3,10.4-10.6,15.4-16c1.5-1.6,2.9-3.1,4.4-4.7c1.3-1.4,2.7-2.9,4-4.3c2.1-2.3,4.2-4.6,6.3-6.9c2.2-2.5,4.5-5,6.7-7.5
			c1.9-2.1,3.7-4.3,5.6-6.4c0.4-0.5,0.8-0.9,1.2-1.4c1.7-2,3.3-3.9,5-5.9c2-2.4,4-4.8,6-7.2s4-4.8,5.9-7.3
			c124.9-155,199.8-352,200.2-566.6c0.3-179.3-51.4-346.5-141-487.4C2529.1,1226.1,2641.1,1462.9,2640.6,1725.7z"/>
		<path class="st2" d="M2098.8,2890.1l-0.5,290.4c-0.2,121.9-68.5,228.5-168.7,283.8c-46.5,25.7-99.9,40.3-156.5,40.2l-74.8-0.1
			c-56.6-0.1-109.9-14.9-156.3-40.7c-100-55.6-167.9-162.6-167.7-284.5l0.5-290.4c36.2,41.6,89.5,68,148.7,68.1l426.3,0.8
			C2009,2957.7,2062.4,2931.5,2098.8,2890.1z"/>
		<path class="st3" d="M2108.6,3347.8l-1.4,10.6c-3.7,28.7-30.3,49.1-58.9,45.3l-285.7-37.3l-395.5-51.7c-28.6-3.8-49-30.3-45.3-59
			l1.4-10.5c3.7-28.7,30.3-49.1,58.9-45.3l395.5,51.7l0,0l285.6,37.3C2092,3292.6,2112.4,3319.1,2108.6,3347.8z"/>
		<path class="st3" d="M2137.6,3127.8l-1.4,10.6c-3.7,28.7-30.3,49.1-58.9,45.3l-284.9-37.2l-396.3-51.8l-48.4-6.4
			c-28.7-3.7-49.1-30.3-45.3-58.9l1.4-10.6c3.7-28.5,29.9-48.8,58.3-45.3c0.2,0,0.4,0,0.6,0l681.1,89l48.4,6.4
			C2121,3072.6,2141.4,3099.1,2137.6,3127.8z"/>
		<path class="st4" d="M1851.8,3090.5l-1.4,10.6c-3.7,28.3-29.6,48.6-57.9,45.4l-396.3-51.8l-48.4-6.4
			c-28.7-3.7-49.1-30.3-45.3-58.9l1.4-10.6c3.7-28.5,29.9-48.8,58.3-45.3l395.9,51.7l48.4,6.4
			C1835.1,3035.3,1855.5,3061.8,1851.8,3090.5z"/>
		<path class="st4" d="M1823,3310.4l-1.4,10.6c-3.7,28.7-30.3,49.1-58.9,45.3l-395.5-51.7c-28.6-3.8-49-30.3-45.3-59l1.4-10.5
			c3.7-28.7,30.3-49.1,58.9-45.3l395.5,51.7l0,0C1806.3,3255.3,1826.7,3281.7,1823,3310.4z"/>
		<path class="st5" d="M2491,1548.4c-0.4,214.6-75.3,411.6-200.2,566.6c-62.7,77.8-138,145.1-222.8,198.6
			c-56.4,35.6-116.9,65.2-180.7,87.8c-11.2,4-22.6,7.8-34,11.3c-66.6,20.7-136.5,33.8-208.7,38.5c-10.7,0.7-21.4,1.2-32.2,1.6
			c-9.8,0.3-19.6,0.4-29.5,0.4c-222.9-0.4-426.9-81.3-584.5-215c0,0,0-0.1-0.1-0.1c-0.1-0.1-0.1-0.1-0.1-0.2
			c-58.5-84.1-103-178.7-130.2-280.3c-20.1-75-30.7-153.9-30.6-235.3c0.9-497.9,405.3-900.8,903.3-899.9
			c235.1,0.4,449,90.8,609.3,238.6C2439.6,1201.9,2491.3,1369.1,2491,1548.4z"/>
		<path class="st6" d="M1403.6,1044.6c-15.7,0-30.6,3.9-43.5,10.8c0,0-0.1,0-0.1,0.1c-4.4,2.3-8.6,5.1-12.6,8.1
			c-127.2,83.5-232.1,198.4-303.6,333.7c-3.4,5.2-6.4,10.9-8.7,16.9c-3.9,10.1-6,21-6.1,32.4c-0.1,49.9,40.3,90.5,90.3,90.6
			c27.3,0.1,51.8-12,68.4-31.1c7.1-8.1,12.8-17.6,16.6-27.9v-0.1c62.8-101.6,145.3-189.7,242.1-259.2c0,0,0.1,0,0.1-0.1
			c6.8-3.5,13-7.9,18.7-13l0,0c18.7-16.9,30.5-41.3,30.6-68.5C1495.9,1086.1,1454.6,1044.7,1403.6,1044.6z"/>
		<path class="st6" d="M1142.9,1692.9c0,10.9-2,21.4-5.5,31.1v0.1c-3.8,10.3-9.5,19.8-16.6,27.9c-16.6,19.1-41.1,31.2-68.4,31.1
			c-49.9-0.1-90.3-40.6-90.3-90.6c0-11.4,2.2-22.4,6.1-32.4c2.3-6,5.2-11.6,8.7-16.9c16.2-24.7,44.1-41,75.9-40.9
			C1102.6,1602.4,1143,1642.9,1142.9,1692.9z"/>
		<path class="st7" d="M2175.6,1960.4L2175.6,1960.4L2175.6,1960.4z"/>
		<path class="st8" d="M2614.2,1941.4c-25.7,103.9-69.4,200.6-127.7,286.8c-65.6,97.1-149.7,180.7-247.2,245.9
			c-54.7,36.8-90.8,99.9-90.9,170.8l-0.2,115.2c-0.1,49.7-18.7,95.3-49.4,130.1c-29.9,34.1-71.4,57.8-118,65.1
			c-10.1,1.6-20.4,2.4-30.9,2.4l-78-0.1h-4.1l-28.1-0.1h-4.1l-174.3-0.3h-4.1l-28.1-0.1l-105.6-0.2c-1.1,0-2.3,0-3.4,0
			c-57.8-1.1-109.7-27.3-145.3-68c-30.5-34.9-49-80.5-48.9-130.2l0.2-115.2c0.1-70.9-35.7-133.4-90.2-170.4v-0.6
			c-93-62.7-173.7-142.2-237.6-234.2c157.6,133.7,361.6,214.6,584.5,215c9.9,0,19.7-0.1,29.5-0.4c10.8-0.3,21.5-0.9,32.2-1.6
			c72.2-4.7,142.1-17.9,208.7-38.5l0,0c11.5-3.5,22.8-7.3,34-11.3c63.8-22.6,124.4-52.2,180.7-87.8c2.6-1.7,5.3-3.4,7.9-5.1
			c2.6-1.6,5.1-3.3,7.6-5c0.1-0.1,0.3-0.2,0.4-0.3c4.5-3,8.9-6,13.4-9c1.2-0.8,2.4-1.6,3.6-2.5c1.8-1.2,3.6-2.5,5.4-3.8
			c4.7-3.3,9.5-6.7,14.1-10.2c1.8-1.3,3.6-2.7,5.4-4c1.8-1.3,3.6-2.6,5.3-4c7.7-5.8,15.3-11.8,22.9-17.9c3.3-2.7,6.5-5.3,9.8-8
			c2.4-2,4.8-4,7.1-6c1.4-1.2,2.8-2.4,4.1-3.6c1.8-1.5,3.5-3,5.3-4.6c1.7-1.5,3.5-3,5.2-4.6l0.1-0.1c1.7-1.5,3.5-3.1,5.2-4.7
			c5.2-4.7,10.3-9.4,15.4-14.2c1.4-1.3,2.7-2.5,4.1-3.8c5.5-5.3,11-10.7,16.4-16.1c1.2-1.2,2.4-2.5,3.6-3.7
			c5.2-5.3,10.4-10.6,15.4-16c1.5-1.6,2.9-3.1,4.4-4.7c1.3-1.4,2.7-2.9,4-4.3c2.1-2.3,4.2-4.6,6.3-6.9c2.2-2.5,4.5-5,6.7-7.5
			c1.9-2.1,3.7-4.3,5.6-6.4c0.4-0.5,0.8-0.9,1.2-1.4c1.7-2,3.3-3.9,5-5.9c2-2.4,4-4.8,6-7.2s4-4.8,5.9-7.3
			c23.8,2.1,48.4,1.1,73.4-3.7c21.9-4.2,44-12.1,65.6-22.3L2614.2,1941.4z"/>
		<path class="st9" d="M2290.7,2115c-62.7,77.8-138,145.1-222.8,198.6c-56.4,35.6-116.9,65.2-180.7,87.8c-11.2,4-22.6,7.8-34,11.3
			l0,0c-66.6,20.7-136.5,33.8-208.7,38.5c-10.7,0.7-21.4,1.2-32.2,1.6c-9.8,0.3-19.6,0.4-29.5,0.4c-222.9-0.4-426.9-81.3-584.5-215
			c0,0,0-0.1-0.1-0.1c-0.1-0.1-0.1-0.1-0.1-0.2c-58.5-84.1-103-178.7-130.2-280.3c56.6,41.7,185.7,123.5,329.3,123.5
			c27.2,0,55.7-4.9,84.9-13.5c10.6-3.1,21.2-6.7,32-10.6c44.1-16.3,89.3-39.4,133.9-64.9c9.9-5.7,19.8-11.4,29.6-17.3
			c116-69,224.5-147.2,292.9-153.1c122.5-10.5,186.8,64,257.5,142.9c0.8,0.9,1.7,1.9,2.5,2.8c6.2,6.9,12.7,13.9,19.7,20.8
			c23.9,24,52,48,83.5,68.5c13.9,9.1,28.4,17.5,43.4,25c9.9,4.9,20.1,9.4,30.4,13.4C2233.9,2105.4,2261.8,2112.5,2290.7,2115z"/>
		<path class="st7" d="M1867.8,2617.7c3.4-77.6,9.8-149.4,19.5-216.3c-11.2,4-22.6,7.8-34,11.3l0,0c-8.6,63.4-14.4,131-17.5,203.6
			c-5,115.4-3,232.8,0,341.1l32.2,0.1l0,0C1864.8,2849.4,1862.8,2732.4,1867.8,2617.7z M1644.5,2451.2c-10.7,0.7-21.4,1.2-32.2,1.6
			c6,52,10.3,106.8,12.8,164.9c5,114.6,2.9,231.5-0.1,339.4h4.1l28.1,0.1c3-108.2,5-225.5,0-340.8
			C1654.7,2558.2,1650.5,2503.3,1644.5,2451.2z"/>
		<path class="st10" d="M2177,2081.7c-7.6,53.1-28.2,85.9-64.6,103c-34.4,16.2-79.3,16.9-122.7,17.6c-13.3,0.2-27,0.4-40.2,1.1
			c-6.9,0.3-13.8,0.6-20.7,0.9c1.4-4.7,2.8-9.5,4.2-14.2c14.4-47.8,29.9-86.5,47.6-118.5c20.2-36.6,43.5-64.6,69.4-83.3
			c-6.9-7-13.5-13.9-19.7-20.8c-0.8-0.9-1.7-1.9-2.5-2.8c-28.4,21.4-53.7,52.1-75.4,91.4c-18.8,34-35.2,74.8-50.2,124.8
			c-2.5,8.2-4.9,16.5-7.2,24.7c-14.5,0.9-42.5,2.3-80.3,3.2c-21.9,0.5-43.9,0.8-65.9,0.8c-23.6,0-47.2-0.3-70.7-0.9
			c-27-0.6-54-1.7-80.4-3.1c-2.3-8.3-4.7-16.5-7.1-24.6c-15-50-31.5-90.8-50.2-124.8c-18.4-33.4-39.5-60.6-62.8-81.2
			c-9.8,5.8-19.7,11.6-29.6,17.3c23.8,18.6,45.4,45.3,64.2,79.4c17.7,32,33.2,70.8,47.6,118.5c1.4,4.7,2.8,9.4,4.2,14.2
			c-6.9-0.2-13.8-0.5-20.7-0.9c-13.2-0.7-26.9-0.9-40.2-1.1c-43.4-0.7-88.3-1.3-122.7-17.6c-37.6-17.7-58.3-52.2-65.3-108.4
			c-0.8-6.5-1.2-12.9-1.1-19.3c-10.7,4-21.4,7.5-32,10.6c0.2,4.2,0.6,8.4,1.1,12.6c8.3,67.3,35.6,111,83.5,133.6
			c40.7,19.2,89.1,19.9,135.9,20.6c13.6,0.2,26.5,0.4,39.1,1c10.3,0.5,20.8,0.9,31.2,1.2c17.3,66.5,30.4,138.1,39.5,216.1l0,0
			c10.8-0.3,21.5-0.9,32.2-1.6c-8.8-76.7-21.5-147.3-38.1-213.1c23.4,1.2,47.2,2.1,71,2.6c45.9,1.1,92.4,1.2,138.2,0.1
			c15.3-0.3,29-0.8,40.9-1.2c11.9-0.5,22-0.9,30-1.4c-13.8,54.6-24.8,112.5-33.2,174.5l0,0c11.5-3.5,22.8-7.3,34-11.3
			c8.4-58.4,19.3-113.1,32.8-164.7c10.4-0.3,20.8-0.6,31.2-1.2c12.6-0.6,25.4-0.8,39-1c46.8-0.7,95.2-1.5,135.9-20.6
			c44.3-20.9,71-59.8,81.3-118.7C2197,2091.1,2186.9,2086.6,2177,2081.7z"/>
		<path class="st11" d="M2209.6,2080.2c-0.6,5.1-1.4,10.1-2.2,14.9c-10.4-4-20.5-8.5-30.4-13.4c0.3-1.8,0.5-3.6,0.7-5.4
			c0.8-6.1,1.1-12.1,1.1-18.1c0-30.5-9.5-58.7-25.9-74.9c-11.3-11.2-25.6-16.9-42.4-16.9c-1.2,0-2.5,0-3.8,0.1
			c-17.4,0.8-36.2,7.6-53,19.1c-1.2,0.9-2.5,1.7-3.7,2.6c-6.9-7-13.5-13.9-19.7-20.8c-0.8-0.9-1.7-1.9-2.5-2.8
			c2.5-1.9,5.1-3.8,7.7-5.6c21.7-14.8,46.4-23.6,69.6-24.7c27.4-1.3,51.8,7.7,70.4,26.1C2202.4,1987,2215.4,2032.9,2209.6,2080.2z"
			/>
		<path class="st11" d="M1477.5,1974.8c-9.8,5.8-19.7,11.6-29.6,17.3c-2.9-2.3-5.9-4.5-8.8-6.5c-16.8-11.5-35.6-18.3-53-19.1
			c-1.3-0.1-2.5-0.1-3.8-0.1c-16.8,0-31.1,5.7-42.4,16.9c-16.2,16-25.6,43.7-25.9,73.7c-10.7,4-21.4,7.5-32,10.6
			c-2.3-42.8,10.7-83,35.2-107.2c18.6-18.4,42.9-27.4,70.4-26.1c11.6,0.6,23.6,3,35.4,7.2s23.4,10.1,34.2,17.5
			C1464.2,1963.8,1470.9,1969,1477.5,1974.8z"/>
		<path class="st7" d="M1976.7,2932v23.3c-10.1,1.6-20.4,2.4-30.9,2.4l-78-0.1l-32.2-0.1l-178.4-0.3l-32.2-0.1l-105.6-0.2
			c-1.1,0-2.3,0-3.4,0V2932c0-35.3,28.9-64.3,64.3-64.3h332.1C1947.8,2867.7,1976.7,2896.6,1976.7,2932z"/>
	</g>
	<ellipse cx="1737.9" cy="3907.8" rx="474.3" ry="98.3"/>
</g>
</svg>
