<?xml version="1.0" encoding="utf-8"?>
<!-- Generator: Adobe Illustrator 25.1.0, SVG Export Plug-In . SVG Version: 6.00 Build 0)  -->
<svg version="1.1" id="bulb1_Layer_1" xmlns="http://www.w3.org/2000/svg" xmlns:xlink="http://www.w3.org/1999/xlink" x="0px" y="0px"
	 viewBox="0 0 3503 4012.2" style="enable-background:new 0 0 3503 4012.2;" xml:space="preserve">
<style type="text/css">
	.st0{fill:#617777;}
	.st1{fill:#C3DAE5;}
	.st2{fill:#7E9999;}
	.st3{fill:#95BCBC;}
	.st4{fill:#A7C5C6;}
	.st5{fill:#E8F0F7;}
	.st6{fill:#FFFFFF;}
	.st7{fill:#D8AE00;}
	.st8{opacity:0.4;fill:#8CAABA;enable-background:new    ;}
	.st9{fill:#6F7F7D;}
</style>
<ellipse cx="1743" cy="3913.9" rx="474.3" ry="98.3"/>
<g>
	<path class="st0" d="M1928.7,3464.9c-28.1,80-104.4,137.3-194.1,137.2c-89.6-0.2-165.7-57.7-193.5-137.9
		c46.4,25.9,99.7,40.6,156.3,40.7l74.8,0.1C1828.9,3505.2,1882.3,3490.6,1928.7,3464.9z"/>
	<path class="st1" d="M2639.7,1726.2c-0.6,312.2-159.8,587-401.3,748.4c-54.7,36.8-90.8,99.9-90.9,170.8l-0.2,115.2
		c-0.1,49.7-18.7,95.3-49.4,130.1c-29.9,34.1-71.4,57.8-118,65.1c-10.1,1.6-20.4,2.4-30.9,2.4l-78-0.1l-32.2-0.1l-178.4-0.3
		l-32.2-0.1l-105.6-0.2c-1.1,0-2.3,0-3.4,0c-57.8-1.1-109.7-27.3-145.3-68c-30.5-34.9-49-80.5-48.9-130.2l0.2-115.2
		c0.1-70.9-35.7-133.4-90.2-170.4v-0.6c-93-62.7-173.7-142.2-237.6-234.2c157.6,133.7,361.6,214.6,584.5,215
		c9.9,0,19.7-0.1,29.5-0.4c10.8-0.3,21.5-0.9,32.2-1.6c72.2-4.7,142.1-17.9,208.7-38.5c11.5-3.6,22.8-7.3,34-11.3
		c351.2-124.4,603-459.1,603.7-853c0.3-179.3-51.4-346.5-141-487.4C2528.2,1226.7,2640.2,1463.4,2639.7,1726.2z"/>
	<path class="st2" d="M2098,2890.7l-0.5,290.4c-0.2,121.9-68.5,228.5-168.7,283.8c-46.5,25.7-99.9,40.3-156.5,40.2l-74.8-0.1
		c-56.6-0.1-109.9-14.9-156.3-40.7c-100-55.6-167.9-162.6-167.7-284.5l0.5-290.4c36.2,41.6,89.5,68,148.7,68.1l426.3,0.8
		C2008.2,2958.3,2061.6,2932.1,2098,2890.7z"/>
	<path class="st3" d="M2107.8,3348.3l-1.4,10.6c-3.7,28.7-30.3,49.1-58.9,45.3l-285.7-37.3l-395.5-51.7c-28.6-3.8-49-30.3-45.3-59
		l1.4-10.5c3.7-28.7,30.3-49.1,58.9-45.3l395.5,51.7l0,0l285.6,37.3C2091.2,3293.2,2111.6,3319.7,2107.8,3348.3z"/>
	<path class="st3" d="M2136.8,3128.4l-1.4,10.6c-3.7,28.7-30.3,49.1-58.9,45.3l-284.9-37.2l-396.3-51.8l-48.4-6.4
		c-28.7-3.7-49.1-30.3-45.3-58.9l1.4-10.6c3.7-28.5,29.9-48.8,58.3-45.3c0.2,0,0.4,0,0.6,0l681.1,89l48.4,6.4
		C2120.2,3073.2,2140.6,3099.7,2136.8,3128.4z"/>
	<path class="st4" d="M1850.9,3091.1l-1.4,10.6c-3.7,28.3-29.6,48.6-57.9,45.4l-396.3-51.8l-48.4-6.4c-28.7-3.7-49.1-30.3-45.3-58.9
		l1.4-10.6c3.7-28.5,29.9-48.8,58.3-45.3l395.9,51.7l48.4,6.4C1834.3,3035.9,1854.7,3062.4,1850.9,3091.1z"/>
	<path class="st4" d="M1822.1,3311l-1.4,10.6c-3.7,28.7-30.3,49.1-58.9,45.3l-395.5-51.7c-28.6-3.8-49-30.3-45.3-59l1.4-10.5
		c3.7-28.7,30.3-49.1,58.9-45.3l395.5,51.7l0,0C1805.5,3255.9,1825.9,3282.3,1822.1,3311z"/>
	<path class="st5" d="M2490.1,1549c-0.7,393.9-252.6,728.6-603.7,853c-11.2,4-22.6,7.8-34,11.3c-66.6,20.7-136.5,33.8-208.7,38.5
		c-10.7,0.7-21.4,1.2-32.2,1.6c-9.8,0.3-19.6,0.4-29.5,0.4c-222.9-0.4-426.9-81.3-584.5-215c0,0,0-0.1-0.1-0.1
		c-101.7-146.3-161.2-324.1-160.9-515.8c0.9-497.9,405.3-900.8,903.3-899.9c235.1,0.4,449,90.8,609.3,238.6
		C2438.7,1202.4,2490.5,1369.7,2490.1,1549z"/>
	<path class="st6" d="M1402.8,1045.2c-15.7,0-30.6,3.9-43.5,10.8c0,0-0.1,0-0.1,0.1c-4.4,2.3-8.6,5.1-12.6,8.1
		c-127.2,83.5-232.1,198.4-303.6,333.7c-3.4,5.2-6.4,10.9-8.7,16.9c-3.9,10.1-6,21-6.1,32.4c-0.1,49.9,40.3,90.5,90.3,90.6
		c27.3,0.1,51.8-12,68.4-31.1c7.1-8.1,12.8-17.6,16.6-27.9v-0.1c62.8-101.6,145.3-189.7,242.1-259.2c0,0,0.1,0,0.1-0.1
		c6.8-3.5,13-7.9,18.7-13l0,0c18.7-16.9,30.5-41.3,30.6-68.5C1495.1,1086.7,1453.8,1045.3,1402.8,1045.2z"/>
	<path class="st6" d="M1142,1693.5c0,10.9-2,21.4-5.5,31.1v0.1c-3.8,10.3-9.5,19.8-16.6,27.9c-16.6,19.1-41.1,31.2-68.4,31.1
		c-49.9-0.1-90.3-40.6-90.3-90.6c0-11.4,2.2-22.4,6.1-32.4c2.3-6,5.2-11.6,8.7-16.9c16.2-24.7,44.1-41,75.9-40.9
		C1101.7,1603,1142.1,1643.5,1142,1693.5z"/>
	<path class="st7" d="M2174.7,1961L2174.7,1961L2174.7,1961z"/>
	<path class="st8" d="M2174.7,1961c-18.6-18.4-42.9-27.4-70.4-26.1c-23.2,1.1-48,9.9-69.6,24.7c-31.5,21.5-59.5,54.2-83.1,96.9
		c-18.8,34-35.2,74.9-50.2,124.8c-2.5,8.2-4.9,16.4-7.2,24.7c-14.5,0.9-42.5,2.3-80.3,3.2c-21.9,0.5-43.9,0.8-65.9,0.8
		c-23.6,0-47.2-0.3-70.7-0.9c-27-0.7-54-1.7-80.4-3.1c-2.3-8.3-4.7-16.5-7.1-24.6c-15-50-31.5-90.8-50.2-124.8
		c-23.6-42.8-51.6-75.4-83.1-96.9c-10.8-7.4-22.4-13.3-34.2-17.5c-11.8-4.2-23.8-6.7-35.4-7.2c-27.5-1.3-51.8,7.7-70.4,26.1
		c-26.8,26.6-39.9,72.5-34.1,119.8c8.3,67.3,35.6,111,83.5,133.6c40.7,19.2,89.1,19.9,135.9,20.6c13.6,0.2,26.5,0.4,39,1
		c10.3,0.5,20.8,0.9,31.2,1.2c17.3,66.5,30.4,138.1,39.5,216.1c10.8-0.3,21.5-0.8,32.2-1.5c-8.8-76.7-21.4-147.3-38.1-213.1
		c23.4,1.2,47.1,2.1,70.9,2.6c45.9,1.1,92.4,1.2,138.2,0.1c15.3-0.4,29-0.8,40.8-1.3s22-0.9,30-1.4
		c-13.8,54.6-24.8,112.5-33.2,174.5c11.5-3.5,22.8-7.3,34.1-11.3c8.4-58.4,19.3-113.1,32.8-164.7c10.4-0.3,20.8-0.6,31.2-1.2
		c12.6-0.6,25.4-0.8,39-1c46.8-0.7,95.2-1.4,135.9-20.6c47.9-22.6,75.2-66.3,83.5-133.6C2214.6,2033.5,2201.6,1987.6,2174.7,1961z
		 M1542.4,2204c-13.1-0.7-26.9-0.9-40.2-1.1c-43.4-0.7-88.3-1.3-122.7-17.6c-37.6-17.7-58.3-52.2-65.3-108.4
		c-4.6-37.1,5.2-73.6,24.8-93c11.3-11.2,25.6-16.9,42.4-16.9c1.2,0,2.5,0,3.8,0.1c17.4,0.8,36.2,7.6,53,19.1
		c27.3,18.7,51.9,47.6,73.1,85.9c17.7,32,33.2,70.8,47.6,118.5c1.4,4.7,2.8,9.4,4.2,14.2C1556.2,2204.6,1549.3,2204.3,1542.4,2204z
		 M2176.8,2076.9c-6.9,56.3-27.7,90.7-65.3,108.4c-34.4,16.2-79.3,16.9-122.7,17.6c-13.3,0.2-27,0.4-40.2,1.1
		c-6.9,0.3-13.8,0.6-20.7,0.9c1.4-4.8,2.8-9.5,4.2-14.2c14.4-47.8,29.9-86.5,47.6-118.5c21.1-38.3,45.7-67.2,73.1-85.9
		c16.8-11.5,35.6-18.3,53-19.1c1.3-0.1,2.5-0.1,3.8-0.1c16.8,0,31.1,5.7,42.4,16.9c16.4,16.2,25.9,44.4,25.9,74.9
		C2178,2064.8,2177.6,2070.8,2176.8,2076.9z"/>
	<path class="st9" d="M1867,2958.1l-32.2-0.1c-3-108.3-5-225.7,0-341.1c3.1-72.6,9-140.2,17.6-203.6c11.5-3.5,22.8-7.3,34.1-11.3
		c-9.7,66.9-16.1,138.7-19.5,216.3C1861.9,2733,1864,2850.1,1867,2958.1z"/>
	<path class="st9" d="M1656.4,2957.7l-32.2-0.1c3-107.9,5-224.8,0-339.4c-2.5-58.1-6.8-113-12.8-164.9c10.8-0.3,21.5-0.8,32.2-1.5
		c6,52.1,10.2,107,12.7,165.1C1661.4,2732.2,1659.4,2849.5,1656.4,2957.7z"/>
	<path class="st9" d="M1975.9,2932.6v23.3c-10.1,1.6-20.4,2.4-30.9,2.4l-78-0.1l-32.2-0.1l-178.4-0.3l-32.2-0.1l-105.6-0.2
		c-1.1,0-2.3,0-3.4,0v-24.8c0-35.3,28.9-64.3,64.3-64.3h332.1C1947,2868.3,1975.9,2897.2,1975.9,2932.6z"/>
</g>
</svg>
