<svg id="phone3b_Layer_1" data-name="Layer 1" xmlns="http://www.w3.org/2000/svg" xmlns:xlink="http://www.w3.org/1999/xlink" viewBox="0 0 44.12 166.61"><defs><linearGradient id="phone3b_linear-gradient" x1="96.96" y1="-1281.49" x2="118.08" y2="-1281.49" gradientTransform="matrix(1, 0, 0, -1, -79.6, -1126)" gradientUnits="userSpaceOnUse"><stop offset="0" stop-color="#f47524"/><stop offset="1" stop-color="#f9a920"/></linearGradient><linearGradient id="phone3b_linear-gradient-2" x1="96.96" y1="-1285.09" x2="118.08" y2="-1285.09" xlink:href="#phone3b_linear-gradient"/><linearGradient id="phone3b_linear-gradient-3" x1="-540.58" y1="-1146.7" x2="-540.58" y2="-1146.7" gradientTransform="matrix(1, 0, 0, -1, 562.68, -1126)" gradientUnits="userSpaceOnUse"><stop offset="0" stop-color="#4e62ad"/><stop offset="1" stop-color="#6c7abb"/></linearGradient><linearGradient id="phone3b_linear-gradient-4" x1="-546.95" y1="-1141.7" x2="-542.51" y2="-1141.7" xlink:href="#phone3b_linear-gradient-3"/><linearGradient id="phone3b_linear-gradient-5" x1="-546.98" y1="-1144.2" x2="-546.98" y2="-1144.2" xlink:href="#phone3b_linear-gradient-3"/><linearGradient id="phone3b_linear-gradient-6" x1="-540.88" y1="-1150.5" x2="-540.88" y2="-1150.5" xlink:href="#phone3b_linear-gradient-3"/><linearGradient id="phone3b_linear-gradient-7" x1="-547.79" y1="-1149.35" x2="-546.98" y2="-1149.35" gradientTransform="matrix(1, 0, 0, -1, 562.68, -1126)" gradientUnits="userSpaceOnUse"><stop offset="0" stop-color="#cccde7"/><stop offset="1" stop-color="#fff"/></linearGradient><linearGradient id="phone3b_linear-gradient-8" x1="-532.85" y1="-1138.15" x2="-532.04" y2="-1138.15" xlink:href="#phone3b_linear-gradient-7"/><linearGradient id="phone3b_linear-gradient-9" x1="-539.98" y1="-1130.1" x2="-539.98" y2="-1130.1" xlink:href="#phone3b_linear-gradient-3"/><linearGradient id="phone3b_linear-gradient-10" x1="-546.9" y1="-1128.85" x2="-546.09" y2="-1128.85" xlink:href="#phone3b_linear-gradient-7"/><linearGradient id="phone3b_linear-gradient-11" x1="-555.28" y1="-1140.4" x2="-555.28" y2="-1140.4" xlink:href="#phone3b_linear-gradient-3"/><linearGradient id="phone3b_linear-gradient-12" x1="-562.19" y1="-1139.2" x2="-561.39" y2="-1139.2" xlink:href="#phone3b_linear-gradient-7"/></defs><title>phone3b</title><path d="M37.4,159l-10.2-5.9a1.62,1.62,0,0,0-.9-.3,1.4,1.4,0,0,0-.9.3l-7,4.1a2.05,2.05,0,0,0-1,1.7,1.93,1.93,0,0,0,1,1.7l10.2,5.8a1.5,1.5,0,0,0,.9.2,1.4,1.4,0,0,0,.9-.3l7-4.1a2.05,2.05,0,0,0,1-1.7A1.88,1.88,0,0,0,37.4,159Z" fill="#fff"/><path d="M25.4,153.2l-7,4.1a2.62,2.62,0,0,0-.6.5,1.75,1.75,0,0,0-.4,1.2,2.16,2.16,0,0,0,1,1.7l10.1,5.7a1.42,1.42,0,0,0,.6.2h.3a1.4,1.4,0,0,0,.9-.3l6.9-4a2.15,2.15,0,0,0,.5-.4,1.59,1.59,0,0,0,.4-1.3,1.93,1.93,0,0,0-1-1.7L27,153.1a3.18,3.18,0,0,0-.9-.3h-.3C25.8,153,25.6,153.1,25.4,153.2Z" fill="#f8f7f9"/><path d="M25.4,153.3l-7,4.1a1.46,1.46,0,0,0-.6.5,1.31,1.31,0,0,0-.3,1.2,2,2,0,0,0,1.1,1.6l10,5.7a1.42,1.42,0,0,0,.6.2h.3a1.4,1.4,0,0,0,.9-.3l6.9-4a2.15,2.15,0,0,0,.5-.4,1.46,1.46,0,0,0,.4-1.3,2.16,2.16,0,0,0-1-1.6l-9.9-5.7a3.18,3.18,0,0,0-.9-.3h-.3A4.76,4.76,0,0,0,25.4,153.3Z" fill="#f4f4f4"/><path d="M25.4,153.4l-6.9,4.1a1.46,1.46,0,0,0-.6.5,1.31,1.31,0,0,0-.3,1.2,2.27,2.27,0,0,0,1.1,1.6l9.9,5.6a1.42,1.42,0,0,0,.6.2h.3a1.4,1.4,0,0,0,.9-.3l6.8-3.9a2.15,2.15,0,0,0,.5-.4,1.46,1.46,0,0,0,.4-1.3,2.27,2.27,0,0,0-1.1-1.6l-9.8-5.6a2.4,2.4,0,0,0-.9-.3H26A1,1,0,0,0,25.4,153.4Z" fill="#f1f0f0"/><path d="M25.5,153.4l-6.9,4.1a1.46,1.46,0,0,0-.6.5,1.2,1.2,0,0,0-.3,1.1,2.4,2.4,0,0,0,1.1,1.5l9.8,5.6a1.42,1.42,0,0,0,.6.2h.3a3.18,3.18,0,0,0,.9-.3l6.7-3.9c.1-.1.4-.3.5-.4a1.75,1.75,0,0,0,.4-1.2,2.31,2.31,0,0,0-1.1-1.5l-9.7-5.5a2.4,2.4,0,0,0-.9-.3H26A1.09,1.09,0,0,0,25.5,153.4Z" fill="#ececed"/><path d="M25.5,153.5l-6.8,4a1.46,1.46,0,0,0-.6.5,1.2,1.2,0,0,0-.3,1.1c0,.5.8,1.2,1.2,1.5l9.8,5.5a1.23,1.23,0,0,0,.6.1h.3a1.9,1.9,0,0,0,.8-.3l6.6-3.8c.1-.1.4-.3.5-.4a1.31,1.31,0,0,0,.3-1.2c0-.5-.7-1.2-1.1-1.4l-9.5-5.4a2.86,2.86,0,0,0-.8-.3h-.3A1.51,1.51,0,0,0,25.5,153.5Z" fill="#e9e8e9"/><path d="M25.6,153.6l-6.8,4a1.46,1.46,0,0,0-.6.5.94.94,0,0,0-.2,1.1c0,.4.8,1.2,1.2,1.4l9.7,5.4a1.23,1.23,0,0,0,.6.1h.3a1.9,1.9,0,0,0,.8-.3l6.6-3.8c.1-.1.4-.3.5-.4a1.31,1.31,0,0,0,.3-1.2c0-.4-.8-1.2-1.1-1.4l-9.4-5.4a2.86,2.86,0,0,0-.8-.3h-.3A3.66,3.66,0,0,0,25.6,153.6Z" fill="#e6e4e6"/><path d="M25.6,153.7l-6.8,4c-.1.1-.5.3-.6.5a.94.94,0,0,0-.2,1.1c0,.4.9,1.1,1.2,1.4l9.6,5.4a1.23,1.23,0,0,0,.6.1h.2a1.9,1.9,0,0,0,.8-.3l6.5-3.7c.1-.1.4-.3.5-.4a1.31,1.31,0,0,0,.3-1.2c0-.4-.8-1.1-1.2-1.3L27.3,154a2.86,2.86,0,0,0-.8-.3c-.1,0-.2-.1-.3,0C26,153.5,25.8,153.6,25.6,153.7Z" fill="#e1e1e3"/><path d="M25.7,153.7l-6.7,4a2.17,2.17,0,0,1-.6.4.94.94,0,0,0-.2,1.1c0,.4,1,1.1,1.3,1.3l9.5,5.3a1.23,1.23,0,0,0,.6.1h.2a1.9,1.9,0,0,0,.8-.3l6.4-3.7a1.22,1.22,0,0,1,.5-.3.94.94,0,0,0,.2-1.1c0-.4-.9-1.1-1.2-1.3L27.4,154a1.9,1.9,0,0,0-.8-.3c-.1,0-.2-.1-.3-.1S25.8,153.6,25.7,153.7Z" fill="#dddddf"/><path d="M25.7,153.8,19,157.7a2.17,2.17,0,0,1-.6.4.94.94,0,0,0-.2,1.1c0,.3,1,1.1,1.3,1.2l9.4,5.3a1.23,1.23,0,0,0,.6.1l.2-.1c.1,0,.7-.3.8-.3l6.3-3.6a1.22,1.22,0,0,1,.5-.3.94.94,0,0,0,.2-1.1c0-.3-.9-1.1-1.2-1.2l-9-5.1a1.9,1.9,0,0,0-.8-.3l-.2-.1A1.23,1.23,0,0,0,25.7,153.8Z" fill="#dbdadc"/><path d="M25.8,153.9l-6.6,3.9a6.25,6.25,0,0,1-.6.4.79.79,0,0,0-.1,1.1c0,.3,1.1,1.1,1.3,1.2l9.3,5.2a1.23,1.23,0,0,0,.6.1l.2-.1c.1,0,.7-.3.8-.3l6.2-3.6c.1,0,.4-.3.5-.3a.94.94,0,0,0,.2-1.1c0-.3-1-1-1.2-1.1l-8.8-5.1a1.9,1.9,0,0,0-.8-.3l-.2-.1C26.1,153.8,25.9,153.8,25.8,153.9Z" fill="#d6d7d9"/><path d="M25.8,154l-6.6,3.9a3,3,0,0,0-.6.4c-.3.3-.4.8-.1,1,0,.2,1.2,1,1.4,1.1l9.2,5.2a1.23,1.23,0,0,0,.6.1l.2-.1a4.76,4.76,0,0,0,.7-.3l6.2-3.5c.1,0,.4-.3.5-.3a.94.94,0,0,0,.2-1.1c0-.2-1.1-1-1.3-1.1l-8.7-5a2.18,2.18,0,0,0-.7-.3l-.2-.1A1.67,1.67,0,0,0,25.8,154Z" fill="#d4d3d6"/><path d="M25.8,154.1,19.2,158a3,3,0,0,0-.6.4c-.3.2-.4.8-.1,1,0,.2,1.3,1,1.4,1.1l9.1,5.1a1.09,1.09,0,0,0,.5.1l.2-.1a4.76,4.76,0,0,0,.7-.3l6.1-3.5c.1,0,.4-.3.5-.3a.79.79,0,0,0,.1-1.1c0-.2-1.1-.9-1.3-1l-8.5-4.9c-.1,0-.6-.3-.7-.3l-.2-.1C26.2,153.9,26,154,25.8,154.1Z" fill="#d0d1d3"/><path d="M25.9,154.1l-6.5,3.8-.6.4c-.3.2-.4.8-.1,1a7,7,0,0,0,1.4,1l9,5.1a.45.45,0,0,0,.5,0l.2-.1c.1,0,.7-.3.7-.4l6-3.4a2.29,2.29,0,0,1,.5-.3c.3-.2.4-.8.1-1a14,14,0,0,0-1.3-1l-8.4-4.8c-.1,0-.6-.4-.7-.4l-.2-.1C26.3,154,26.1,154,25.9,154.1Z" fill="#cbccd0"/><path d="M25.9,154.2,19.4,158l-.6.4a.61.61,0,0,0-.15.85.54.54,0,0,0,.15.15c0,.1,1.4.9,1.5,1l8.9,5a.45.45,0,0,0,.5,0l.2-.1s.7-.3.7-.4l5.9-3.4a2.29,2.29,0,0,1,.5-.3.61.61,0,0,0,.24-.83.75.75,0,0,0-.14-.17,10.73,10.73,0,0,0-1.3-.9l-8.3-4.7a4.38,4.38,0,0,0-.7-.4l-.2-.1A1.51,1.51,0,0,0,25.9,154.2Z" fill="#c9c9cd"/><path d="M26,154.3l-6.4,3.8-.6.4a.61.61,0,0,0-.15.85.54.54,0,0,0,.15.15l1.5.9,8.8,4.9a.45.45,0,0,0,.5,0l.2-.1.7-.4,5.8-3.4a2.29,2.29,0,0,1,.5-.3.57.57,0,0,0,0-1s-1.3-.8-1.4-.9l-8.1-4.6a4.38,4.38,0,0,0-.7-.4l-.2-.1C26.3,154.2,26.1,154.2,26,154.3Z" fill="#c5c6ca"/><path d="M26.5,154.4a.45.45,0,0,0-.5,0l-7,4.1a.57.57,0,0,0,0,1l10.2,5.8a.45.45,0,0,0,.5,0l7-4.1a.57.57,0,0,0,0-1Z" fill="#c3c3c7"/><path d="M36.8,151.3l-7,4.1a.45.45,0,0,1-.5,0l-10.2-5.8a.63.63,0,0,1-.2-.8.52.52,0,0,0-.2.4v9.6a.86.86,0,0,0,.4.7l10,5.7a.85.85,0,0,0,.7,0l7-4a.86.86,0,0,0,.4-.7V151a1.42,1.42,0,0,0-.2-.6.64.64,0,0,1-.16.88Z" fill="#c4c5d0"/><path d="M29.4,157.8l-10.8-6.1v1.4l10.8,6.1a.64.64,0,0,0,.6,0l7.1-4.1v-1.4L30,157.8A.64.64,0,0,1,29.4,157.8Z" fill="url(#phone3b_linear-gradient"/><path d="M29.4,161.4l-10.7-6.1v1.4l10.8,6.1a.64.64,0,0,0,.6,0l7.1-4.1v-1.4l-7.1,4.1Z" fill="url(#phone3b_linear-gradient-2"/><path d="M26.6,144.5a.45.45,0,0,0-.5,0l-7,4.1a.57.57,0,0,0,0,1l10.2,5.8a.45.45,0,0,0,.5,0l7-4.1a.57.57,0,0,0,0-1Z" fill="#f1eff3"/><path d="M42.9,83.2,29.4,75.5a2.63,2.63,0,0,0-1.2-.3,3.09,3.09,0,0,0-1.3.3L13.4,82.8a2.65,2.65,0,0,0-1.3,2.3,2.79,2.79,0,0,0,1.3,2.3L26.9,95a2.63,2.63,0,0,0,1.2.3,2.4,2.4,0,0,0,1.2-.3l13.5-7.2a2.65,2.65,0,0,0,1.3-2.3A2.29,2.29,0,0,0,42.9,83.2Z" fill="#fff"/><path d="M26.9,75.6,13.5,82.9a2.83,2.83,0,0,0-.8.7,2.78,2.78,0,0,0-.5,1.6,2.58,2.58,0,0,0,1.4,2.2L27,94.9a6,6,0,0,0,.8.3h.4a2.4,2.4,0,0,0,1.2-.3l13.4-7.2a4.44,4.44,0,0,0,.7-.6,2,2,0,0,0,.5-1.7,2.73,2.73,0,0,0-1.3-2.2L29.4,75.6a2.63,2.63,0,0,0-1.2-.3h-.4A1.62,1.62,0,0,0,26.9,75.6Z" fill="#f8f7f9"/><path d="M27,75.7,13.6,83a2.83,2.83,0,0,0-.8.7,2,2,0,0,0-.4,1.5,2.83,2.83,0,0,0,1.4,2.1l13.3,7.5a1.86,1.86,0,0,0,.8.2h.4a4.15,4.15,0,0,0,1.2-.3l13.2-7.1a1.93,1.93,0,0,0,.7-.6,1.85,1.85,0,0,0,.5-1.6,2.83,2.83,0,0,0-1.4-2.1L29.4,75.8a2.4,2.4,0,0,0-1.2-.3h-.4A.84.84,0,0,0,27,75.7Z" fill="#f4f4f4"/><path d="M27.1,75.8,13.8,83.1a2.83,2.83,0,0,0-.8.7,1.67,1.67,0,0,0-.4,1.5A3.08,3.08,0,0,0,14,87.4l13.1,7.4a1.86,1.86,0,0,0,.8.2h.4a2.45,2.45,0,0,0,1.2-.4l13.1-7a1.93,1.93,0,0,0,.7-.6,1.85,1.85,0,0,0,.5-1.6,3.08,3.08,0,0,0-1.4-2.1L29.5,75.9a2.44,2.44,0,0,0-1.1-.4H28A1.19,1.19,0,0,0,27.1,75.8Z" fill="#f1f0f0"/><path d="M27.1,75.9,13.8,83.1a2.44,2.44,0,0,0-.8.7,1.67,1.67,0,0,0-.4,1.5,3,3,0,0,0,1.5,2l13,7.3a1.86,1.86,0,0,0,.8.2h.4a2.85,2.85,0,0,0,1.2-.4l13-7a1.93,1.93,0,0,0,.7-.6,1.56,1.56,0,0,0,.4-1.6,3.13,3.13,0,0,0-1.4-2L29.4,75.9a2.44,2.44,0,0,0-1.1-.4h-.4A3,3,0,0,0,27.1,75.9Z" fill="#ececed"/><path d="M27.2,76,14,83.2c-.2.1-.7.4-.8.7a1.39,1.39,0,0,0-.3,1.5c0,.7,1,1.6,1.5,1.9l12.9,7.3a1.86,1.86,0,0,0,.8.2h.4a2.16,2.16,0,0,0,1.1-.4l12.9-6.9a1.93,1.93,0,0,0,.7-.6,1.45,1.45,0,0,0,.4-1.5c0-.7-.9-1.6-1.5-1.9L29.5,76.3a2.44,2.44,0,0,0-1.1-.4H28A.73.73,0,0,0,27.2,76Z" fill="#e9e8e9"/><path d="M27.2,76.1,14.1,83.3a2.37,2.37,0,0,0-.8.6,1.39,1.39,0,0,0-.3,1.5c0,.6,1.1,1.6,1.6,1.8l12.8,7.2a1.94,1.94,0,0,0,.7.2h.4a3.54,3.54,0,0,0,1.1-.4l12.7-6.8a4.25,4.25,0,0,0,.7-.5,1.67,1.67,0,0,0,.4-1.5c0-.6-1-1.5-1.5-1.8L29.5,76.3a3.54,3.54,0,0,0-1.1-.4c-.1,0-.3-.1-.3,0A1.37,1.37,0,0,0,27.2,76.1Z" fill="#e6e4e6"/><path d="M27.3,76.2,14.2,83.3a2.37,2.37,0,0,0-.8.6,1.26,1.26,0,0,0-.3,1.4c0,.5,1.2,1.5,1.6,1.8l12.6,7.1a1.94,1.94,0,0,0,.7.2c.1,0,.3-.1.4-.1a4.83,4.83,0,0,0,1.1-.4l12.6-6.8a4.25,4.25,0,0,0,.7-.5,1.39,1.39,0,0,0,.3-1.5c0-.5-1.1-1.5-1.5-1.8l-12.2-7a3.54,3.54,0,0,0-1.1-.4,1.06,1.06,0,0,1-.3-.1A2.44,2.44,0,0,1,27.3,76.2Z" fill="#e1e1e3"/><path d="M27.3,76.3l-13,7.1a6.68,6.68,0,0,0-.8.6,1.09,1.09,0,0,0-.2,1.4c0,.5,1.3,1.5,1.7,1.7l12.5,7a.86.86,0,0,0,.7.1c.1,0,.3-.1.4-.1a4.83,4.83,0,0,0,1.1-.4L42.2,87c.1-.1.6-.4.7-.5a1.39,1.39,0,0,0,.3-1.5c0-.5-1.2-1.4-1.6-1.7l-12-6.9a4,4,0,0,0-1-.4,1.06,1.06,0,0,1-.3-.1A5.09,5.09,0,0,0,27.3,76.3Z" fill="#dddddf"/><path d="M27.4,76.4l-13,7.1c-.1.1-.8.5-.8.6a1.08,1.08,0,0,0-.2,1.4c0,.4,1.4,1.4,1.7,1.6l12.4,7a.86.86,0,0,0,.7.1c.1,0,.3-.1.4-.1a4.83,4.83,0,0,0,1.1-.4L42.1,87c.1-.1.6-.4.7-.5a1.26,1.26,0,0,0,.3-1.4c0-.4-1.3-1.4-1.6-1.6l-12-6.8a4,4,0,0,0-1-.4,1.06,1.06,0,0,1-.3-.1A1.86,1.86,0,0,0,27.4,76.4Z" fill="#dbdadc"/><path d="M27.4,76.5,14.5,83.6c-.1.1-.8.5-.8.6a1.08,1.08,0,0,0-.2,1.4c0,.4,1.5,1.4,1.8,1.6l12.2,6.9a.86.86,0,0,0,.7.1,1.06,1.06,0,0,0,.3-.1c.34-.12.67-.25,1-.4l12.3-6.6c.1-.1.6-.4.7-.5a1.08,1.08,0,0,0,.2-1.4c0-.4-1.3-1.3-1.6-1.5L29.5,76.9a3.09,3.09,0,0,0-1-.4,1.06,1.06,0,0,1-.3-.1A1.12,1.12,0,0,0,27.4,76.5Z" fill="#d6d7d9"/><path d="M27.5,76.6l-12.9,7c-.1.1-.8.5-.9.6a1,1,0,0,0-.1,1.4c0,.3,1.6,1.4,1.8,1.5l12.1,6.8a.86.86,0,0,0,.7.1l.3-.1c.1,0,.9-.4,1-.4L41.6,87c.1-.1.7-.4.7-.5a1.08,1.08,0,0,0,.2-1.4c0-.3-1.4-1.3-1.7-1.4L29.5,77a3.09,3.09,0,0,0-1-.4l-.3-.1A.86.86,0,0,0,27.5,76.6Z" fill="#d4d3d6"/><path d="M27.6,76.7l-12.8,7a4.4,4.4,0,0,1-.9.5.85.85,0,0,0-.18,1.2.39.39,0,0,0,.08.1,7.08,7.08,0,0,0,1.9,1.4l12,6.8a.86.86,0,0,0,.7.1l.3-.1a4.68,4.68,0,0,0,1-.5l12-6.4a4.38,4.38,0,0,0,.7-.4,1,1,0,0,0,.1-1.4,8.18,8.18,0,0,0-1.7-1.4L29.5,77.2a3.64,3.64,0,0,0-.9-.4l-.3-.1C28.1,76.5,27.8,76.6,27.6,76.7Z" fill="#d0d1d3"/><path d="M27.6,76.8l-12.8,7c-.1,0-.8.5-.9.5a.85.85,0,0,0-.18,1.2.39.39,0,0,0,.08.1A13.68,13.68,0,0,0,15.7,87l11.9,6.7a1.66,1.66,0,0,0,.7.1l.3-.1a4.68,4.68,0,0,0,1-.5l11.9-6.4a4.38,4.38,0,0,0,.7-.4.8.8,0,0,0,.27-1.1.79.79,0,0,0-.17-.2c0-.2-1.6-1.2-1.7-1.3L29.5,77.3c-.1,0-.8-.5-.9-.5l-.3-.1A.86.86,0,0,0,27.6,76.8Z" fill="#cbccd0"/><path d="M27.7,76.9,15,83.8a7.92,7.92,0,0,1-.9.5.8.8,0,0,0-.27,1.1.79.79,0,0,0,.17.2c0,.1,1.8,1.2,1.9,1.3l11.7,6.6a.85.85,0,0,0,.7,0l.3-.1a4.68,4.68,0,0,0,1-.5l11.8-6.3.7-.4a.8.8,0,0,0,.27-1.1.79.79,0,0,0-.17-.2,10.84,10.84,0,0,0-1.8-1.2L29.5,77.4a7.92,7.92,0,0,1-.9-.5l-.3-.1A1.23,1.23,0,0,0,27.7,76.9Z" fill="#c9c9cd"/><path d="M27.7,77,15,83.9l-.9.5a.75.75,0,0,0-.28,1,.83.83,0,0,0,.28.28,13.08,13.08,0,0,0,2,1.2l11.6,6.5a.85.85,0,0,0,.7,0l.3-.1.9-.5,11.6-6.3.7-.4a.75.75,0,0,0,.28-1,.83.83,0,0,0-.28-.28,18.42,18.42,0,0,0-1.8-1.1L29.4,77.6l-.9-.5-.3-.1C28.2,76.9,27.9,76.9,27.7,77Z" fill="#c5c6ca"/><path d="M28.5,77.1a.85.85,0,0,0-.7,0L14.3,84.4a.75.75,0,0,0-.28,1,.83.83,0,0,0,.28.28l13.5,7.6a.85.85,0,0,0,.7,0L42,86.1a.75.75,0,0,0,.28-1A.83.83,0,0,0,42,84.8Z" fill="#c3c3c7"/><path d="M14.4,84.4l12.8-7a2.75,2.75,0,0,1,2.5,0l12.5,6.9a1,1,0,0,1,.32,1.38,1,1,0,0,1-.32.32L29.7,93a2.75,2.75,0,0,1-2.5,0L14.4,86a.87.87,0,0,1,0-1.6Z" fill="#c4c5d0"/><rect x="13.9" y="83.4" width="28.8" height="1.8" fill="#c4c5d0"/><path d="M14.4,82.5l12.8-7a2.75,2.75,0,0,1,2.5,0l12.5,7a1,1,0,0,1,.32,1.38,1,1,0,0,1-.32.32l-12.5,7a2.75,2.75,0,0,1-2.5,0l-12.8-7a1,1,0,0,1-.32-1.38A1,1,0,0,1,14.4,82.5Z" fill="#fff"/><path d="M42.2,83.9l-4.6,2.6-7.9,4.4a2.75,2.75,0,0,1-2.5,0l-8.3-4.5-3.6-2-1-.5A1,1,0,0,1,14,82.52a1,1,0,0,1,.32-.32l12.8-7a2.75,2.75,0,0,1,2.5,0l8.1,4.5,4.4,2.4C42.9,82.6,42.9,83.6,42.2,83.9Z" fill="#f1eff3"/><g id="phone3b_drone"><polygon points="16 46.6 16 47.9 16.3 48.1 17.6 47.4 17.3 46.7 16 46.6" fill="#f9a920"/><polygon points="28.1 46.4 28.1 47.7 27.8 47.9 26.6 47.2 26.8 46.5 28.1 46.4" fill="#f9a920"/><path d="M15.1,49.5v1.8h1V49.5Z" fill="#f9a920"/><polygon points="18.2 52.1 18.2 53.8 16.5 53 16.5 51.2 18.2 52.1" fill="#f9a920"/><path d="M26.8,51.9v1.8s1.7-.9,1.6-.9a10.82,10.82,0,0,1,0-1.8Z" fill="#f9a920"/><path d="M27.4,48.6l.7-.4-1.7-.8-.7.4a11,11,0,0,0-2.6-.5v-.6H20.9v.6a9.71,9.71,0,0,0-2.5.6l-.9-.5-1.6.9.9.5c-.5.4-.9.4-1,.7l-.9.6v1.2h1a2.23,2.23,0,0,0,1,1.2l-.6.5,1.7.8.7-.4a7.46,7.46,0,0,0,2.6.5v.5h2.2v-.6a9.71,9.71,0,0,0,2.5-.6l.7.4,1.6-.9-.8-.3a3.26,3.26,0,0,0,1-1.4h1V49.8l-.9-.7C28.4,48.5,27.7,48.7,27.4,48.6Zm-2.8,2.9h0a5.81,5.81,0,0,1-4.3.1c-.1,0-.1,0-.1-.1-1.2-.5-1.2-1.4,0-1.9a6.94,6.94,0,0,1,4.5,0C25.8,50.1,25.8,51,24.6,51.5Z" fill="#f9a920"/><path d="M27.4,46.8l.7-.4-1.7-.8-.7.4a11,11,0,0,0-2.6-.5v-.6H20.9v.6a9.71,9.71,0,0,0-2.5.6l-.9-.5-1.6.9.9.5a3.09,3.09,0,0,0-.9,1.3H15v1.2h1a2.23,2.23,0,0,0,1,1.2l-.6.5,1.7.8.7-.4a7.46,7.46,0,0,0,2.6.5v.5h2.2V52a9.71,9.71,0,0,0,2.5-.6l.7.4,1.6-.9-.8-.3a3.26,3.26,0,0,0,1-1.4h1V48H28.5A2.16,2.16,0,0,0,27.4,46.8Zm-2.8,2.9h0a5.81,5.81,0,0,1-4.3.1c-.1,0-.1,0-.1-.1-1.2-.5-1.2-1.4,0-1.9a6.94,6.94,0,0,1,4.5,0C25.8,48.3,25.8,49.2,24.6,49.7Z" fill="#f47524"/><polygon points="21.4 52.7 21.4 54.4 23.6 54.4 23.6 52.7 21.4 52.7" fill="#f9a920"/><polygon points="29.5 49.2 29.5 51 28.6 51 28.6 49.2 29.5 49.2" fill="#f9a920"/><path d="M22.3,18.2c-.1,0-.2.1-.2.3v25c0,.2.1.3.2.3s.2-.1.2-.3v-25C22.5,18.3,22.4,18.2,22.3,18.2Z" fill="#605e77"/><path d="M21.9,20.8V18.9l.2-.1-.7-.4-.2.1v1.7c0,.4.1.7.4.8l.7.4A2.17,2.17,0,0,1,21.9,20.8Z" fill="#7db3e1"/><path d="M22.1,20.7" fill="url(#phone3b_linear-gradient-3"/><path d="M25.9,15.7l-.2.1v1.9h0c0,.1,0,.2-.1.2h0c0,.1-.1.2-.1.3h0c0,.1-.1.2-.1.3h0a.3.3,0,0,0-.1.2h0l-.2.2h0L25,19h-.1c-.1,0-.1.1-.2.1l-2.1,1.2c-.1,0-.1.1-.2.1h-.2v.1l.3.2h.6c.1,0,.1,0,.1-.1l2.1-1.2c.1,0,.1-.1.2-.1h.1a.09.09,0,0,0,.1-.1h0l.1-.1h0a.09.09,0,0,1,.1-.1c.1,0,0-.1.1-.1h0v-.3h0v-.2h0v-.2h0V16.3l.2-.1Z" fill="#c4c5d0"/><path d="M26.4,16.2v1.7a2.18,2.18,0,0,1-1.1,1.8l-2.1,1.2c-.6.3-1.1.1-1.1-.6V18.6l-.2.1v1.7c0,.8.6,1.2,1.3.7l2.1-1.2a2.84,2.84,0,0,0,1.3-2.2V16Z" fill="#7db3e1"/><path d="M15.5,18.3v-2l.2-.1-.7-.4h0l-.2.1v1.7c0,.4.1.7.4.8l.7.4C15.7,18.8,15.6,18.6,15.5,18.3Z" fill="#c4c5d0"/><path d="M19.5,13.2l-.2.1v1.9h0c0,.1,0,.2-.1.2h0c0,.1-.1.2-.1.3h0c0,.1-.1.2-.1.3h0a.3.3,0,0,0-.1.2h0c-.1.1-.1.1-.1.2h0l-.1.1h-.1c-.1,0-.1.1-.2.1l-2.1,1.2c-.1,0-.1.1-.2.1H16V18l.3.2h.6c.1,0,.1,0,.1-.1l2.1-1.2c.1,0,.1-.1.2-.1h.1a.09.09,0,0,0,.1-.1h0l.1-.1h0a.09.09,0,0,1,.1-.1c.1,0,0-.1.1-.1h0v-.1a.09.09,0,0,1,.1-.1v-.1h0v-.2h0v-.2h0V13.8l.2-.1Z" fill="url(#phone3b_linear-gradient-4"/><path d="M15.7,18.2" fill="url(#phone3b_linear-gradient-5"/><path d="M19.9,13.7v1.7a2.18,2.18,0,0,1-1.1,1.8l-2.1,1.2c-.6.3-1.1.1-1.1-.6V16.1l-.1.2V18c0,.8.6,1.2,1.3.7l2.1-1.2a2.84,2.84,0,0,0,1.3-2.2V13.6Z" fill="#7db3e1"/><polygon points="15.7 20.3 17.6 21.4 17.6 19.6 15.8 18.6 15.7 20.3" fill="#7db3e1"/><polygon points="15.8 18.6 17.6 19.6 18.3 19.2 16.5 18.1 15.8 18.6" fill="#c4c5d0"/><polygon points="17.6 21.4 18.3 20.9 18.3 19.2 17.6 19.6 17.6 21.4" fill="#7db3e1"/><path d="M26.7,15.4l-.2.2-.2.2h0c-.1,0-.1.1-.2.2l-3.7,2.2c-.1.1-.2.1-.3.2H22c-.1,0-.1.1-.2.1s-.1,0-.2.1h-.1a.37.37,0,0,0-.3.1V20a.37.37,0,0,0,.3-.1h.3a.35.35,0,0,0,.2-.1h.1c.1,0,.2-.1.3-.2l3.8-2.2h0c.1,0,.1-.1.2-.1h0c.1,0,.1-.1.2-.2h0l.2-.2h0c.1-.1.1-.1.1-.2h7.6c.9,0,1.7-.6,1.7-1.3H26.9a.13.13,0,0,0-.2,0Z" fill="#71747c"/><path d="M19.1,18.6a.63.63,0,0,1-.4-.1h-.1a.76.76,0,0,1-.4-.2h0c-.1-.1-.3-.1-.4-.2l-2-1.2a1.69,1.69,0,0,1-1-1.2H5.6v.6a1,1,0,0,0,1,.8h8.2a1.86,1.86,0,0,0,.9,1.1l2,1.2c.1.1.3.1.4.2h0c.1,0,.3.1.4.1h1.2V18.4C19.5,18.7,19.4,18.7,19.1,18.6Z" fill="#71747c"/><path d="M26.9,14.5a1.86,1.86,0,0,0-.9-1.1l-2-1.1a4.49,4.49,0,0,0-2-.5V5.7H20.7v6.2a2.92,2.92,0,0,0-1.3.5l-3.8,2.1a1.81,1.81,0,0,0-.8.7H5.5V16h9.2a2.35,2.35,0,0,0,.9,1.2l2,1.2a4.49,4.49,0,0,0,2,.5v5.5h1.3V18.8a2.92,2.92,0,0,0,1.3-.5l3.7-2.2a2.83,2.83,0,0,0,.8-.7H36v-.8Z" fill="#c4c5d0"/><path d="M23.8,13.9l-.6-.4a2.47,2.47,0,0,0-1.3-.3h-.5l-.5.1c-.3.1-.6.1-.8.3L17.7,15a.86.86,0,0,0-.35,1.15.84.84,0,0,0,.35.35l.6.3a2.47,2.47,0,0,0,1.3.3h.5l.5-.1a6,6,0,0,0,.8-.3l2.4-1.4C24.4,15.1,24.4,14.3,23.8,13.9Z" fill="#fff"/><path d="M20.9,21c-5.4,0-6.2,3.5-6.2,3.5v.4c-.1,2,2.2,3.6,5.4,3.6,3.4,0,6.2-1.8,6.2-4v-.7C26,22.3,25,21,20.9,21Zm-.8,6.8a5.63,5.63,0,0,1-4.3-1.6,1.88,1.88,0,0,1-.4-1.6c.3-1.6,2.8-3,5.5-3A5.8,5.8,0,0,1,25,23a2,2,0,0,1,.6,1.4C25.6,26.3,23.1,27.8,20.1,27.8Z" fill="#e2e2e7"/><path d="M20.5,25.3c-.6,0-1.1-.3-1.1-.7v1.1c0,.4.5.7,1.1.7s1.3-.4,1.3-.8V24.5C21.8,24.9,21.1,25.3,20.5,25.3Z" fill="#71747c"/><path d="M21.8,24.5" fill="url(#phone3b_linear-gradient-6"/><path d="M20.6,23.8c-.7,0-1.3.3-1.3.8s.4.8,1.1.8,1.3-.4,1.3-.8S21.3,23.8,20.6,23.8Z" fill="#7db3e1"/><path d="M21,23.7a.75.75,0,0,0-.9,0c-.1.1-.2.2-.2.3v.4c0,.1.1.2.1.3a.75.75,0,0,0,.9,0c.1-.1.2-.2.2-.3V24C21.2,23.9,21.1,23.8,21,23.7Z" fill="#202224"/><path d="M23.9,22.1h-.3l-3.3,2-.5.3h-.2l-.4-.2H19l-2.7,1.5a.13.13,0,0,0,0,.2h0a2.15,2.15,0,0,0,.5.4h.3l3.5-2.1.5-.3h.2l.4.2h.2l2.4-1.5a.47.47,0,0,0,.1-.3S24,22.3,23.9,22.1Z" fill="#202224"/><path d="M23.9,22h-.2l-3.3,2-.5.3h-.2l-.4-.2h-.2l-2.6,1.5c-.1,0-.1.1-.1.2a2.15,2.15,0,0,0,.5.4h.3l3.5-2.1.5-.3h.2l.4.2H22l2.4-1.5c.1,0,.1-.1,0-.2A2.29,2.29,0,0,1,23.9,22Z" fill="#71747c"/><path d="M21,23.7a.63.63,0,0,0-.4-.1c-.2,0-.3,0-.4.1-.3.2-.3.4-.1.6a.75.75,0,0,0,.9,0C21.2,24.1,21.3,23.9,21,23.7Z" fill="#71747c"/><path d="M20.9,20.4c-3,0-5.8,1.5-6.2,3.5s2,4,5.4,4,6.2-1.8,6.2-4C26.4,22,23.9,20.4,20.9,20.4Zm-.8,6.8a5.63,5.63,0,0,1-4.3-1.6,1.88,1.88,0,0,1-.4-1.6c.3-1.6,2.8-3,5.5-3A5.8,5.8,0,0,1,25,22.4a2,2,0,0,1,.6,1.4C25.6,25.7,23.1,27.2,20.1,27.2Z" fill="#fff"/><path d="M15.7,22.3l-.4-.1a3.47,3.47,0,0,0-.8,1.6,3.27,3.27,0,0,0,.1,1.7l.5-.1a2,2,0,0,1-.1-1.5A3.26,3.26,0,0,1,15.7,22.3Z" fill="#d3d3d3"/><path d="M15.7,22.3l-.4-.1a3.47,3.47,0,0,0-.8,1.6,3.27,3.27,0,0,0,.1,1.7l.5-.1a2,2,0,0,1-.1-1.5A3.26,3.26,0,0,1,15.7,22.3Z" fill="#7db3e1"/><path d="M14.4,24.4h0V25a3.15,3.15,0,0,0,.2,1.1l.2-.1v-.4l.2-.1v-.2l-.5.1C14.5,25.1,14.4,24.7,14.4,24.4Z" fill="#e2e2e7"/><path d="M14.9,24.4a.87.87,0,0,1,.1-.5,3.7,3.7,0,0,1,.8-1.5v-.1a4.43,4.43,0,0,0-.8,1.5A1.23,1.23,0,0,0,14.9,24.4Z" fill="url(#phone3b_linear-gradient-7"/><path d="M35.9,9.8c-5.4,0-6.2,3.5-6.2,3.5v.4c-.1,2,2.2,3.6,5.4,3.6,3.4,0,6.2-1.8,6.2-4v-.7S40,9.8,35.9,9.8Zm-.8,6.8A5.63,5.63,0,0,1,30.8,15a1.88,1.88,0,0,1-.4-1.6c.3-1.6,2.8-3,5.5-3A5.8,5.8,0,0,1,40,11.8a2,2,0,0,1,.6,1.4C40.6,15.1,38,16.6,35.1,16.6Z" fill="#e2e2e7"/><path d="M35.4,14.1c-.6,0-1.1-.3-1.1-.7v1.1c0,.4.5.7,1.1.7s1.3-.4,1.3-.8V13.3C36.8,13.8,36.1,14.1,35.4,14.1Z" fill="#71747c"/><path d="M35.6,12.5c-.7,0-1.3.4-1.3.8s.4.8,1.1.8,1.3-.4,1.3-.8S36.2,12.5,35.6,12.5Z" fill="#7db3e1"/><path d="M35.9,12.5a.75.75,0,0,0-.9,0c-.1.1-.2.2-.2.3v.4c0,.1.1.2.2.3a.75.75,0,0,0,.9,0c.1-.1.2-.2.2-.3v-.4C36.1,12.7,36.1,12.6,35.9,12.5Z" fill="#202224"/><g id="phone3b_blade3"><path d="M38.8,10.9h-.3l-3.3,2-.5.3h-.2l-.4-.2h-.2l-2.7,1.5a.13.13,0,0,0,0,.2h0a2.15,2.15,0,0,0,.5.4H32L35.5,13l.5-.3h.2l.4.1h.2l2.4-1.5a.47.47,0,0,0,.1-.3A.51.51,0,0,1,38.8,10.9Z" fill="#202224"/><path d="M38.8,10.8h-.2l-3.3,2-.5.3h-.2l-.4-.1H34l-2.6,1.6c-.1,0-.1.1-.1.2a2.15,2.15,0,0,0,.5.4h.3l3.5-2.1.5-.3c.1,0,.2-.1.2,0l.4.2h.2l2.4-1.5c.1,0,.1-.1,0-.2A1.21,1.21,0,0,0,38.8,10.8Z" fill="#71747c"/></g><path d="M35.9,12.5a.63.63,0,0,0-.4-.1c-.2,0-.3,0-.4.1-.3.2-.3.4-.1.6a.75.75,0,0,0,.9,0Q36.39,12.8,35.9,12.5Z" fill="#71747c"/><path d="M35.9,9.2c-3,0-5.8,1.5-6.2,3.5s2,4,5.4,4,6.2-1.8,6.2-4C41.3,10.8,38.9,9.2,35.9,9.2ZM35.1,16a5.63,5.63,0,0,1-4.3-1.6,1.88,1.88,0,0,1-.4-1.6c.3-1.6,2.8-3,5.5-3A5.8,5.8,0,0,1,40,11.2a2,2,0,0,1,.6,1.4C40.6,14.5,38,16,35.1,16Z" fill="#fff"/><path d="M30.6,11.1l-.4-.1a3.47,3.47,0,0,0-.8,1.6,3.27,3.27,0,0,0,.1,1.7l.5-.1a2,2,0,0,1-.1-1.5A3.26,3.26,0,0,1,30.6,11.1Z" fill="#d3d3d3"/><path d="M30.6,11.1l-.4-.1a3.47,3.47,0,0,0-.8,1.6,3.27,3.27,0,0,0,.1,1.7l.5-.1a2,2,0,0,1-.1-1.5A3.26,3.26,0,0,1,30.6,11.1Z" fill="#7db3e1"/><path d="M29.3,13.1h0v.6a3.15,3.15,0,0,0,.2,1.1l.3-.1v-.4l.2-.1v-.1l-.5.1A3.75,3.75,0,0,1,29.3,13.1Z" fill="#e2e2e7"/><path d="M29.8,13.2a.87.87,0,0,1,.1-.5,3.7,3.7,0,0,1,.8-1.5v-.1a4.43,4.43,0,0,0-.8,1.5A1.23,1.23,0,0,0,29.8,13.2Z" fill="url(#phone3b_linear-gradient-8"/><path d="M21.8.6c-5.4,0-6.2,3.5-6.2,3.5v.4c-.1,2,2.2,3.6,5.4,3.6,3.4,0,6.2-1.9,6.2-4V3.4S25.9.6,21.8.6ZM21,7.4a5.63,5.63,0,0,1-4.3-1.6,1.88,1.88,0,0,1-.4-1.6c.3-1.6,2.8-3,5.5-3a5.8,5.8,0,0,1,4.1,1.4A2,2,0,0,1,26.5,4C26.5,5.8,23.9,7.4,21,7.4Z" fill="#e2e2e7"/><path d="M22.7,4.1" fill="url(#phone3b_linear-gradient-9"/><path d="M21.4,4.9c-.6,0-1.1-.3-1.1-.7V5.3c0,.4.5.7,1.1.7s1.3-.4,1.3-.8V4.1C22.7,4.5,22.1,4.9,21.4,4.9Z" fill="#71747c"/><path d="M21.5,3.3c-.7,0-1.3.4-1.3.8s.4.8,1.1.8,1.3-.4,1.3-.8S22.2,3.3,21.5,3.3Z" fill="#7db3e1"/><path d="M21.9,3.3a1.39,1.39,0,0,0-.9,0c-.1.1-.2.2-.2.3V4c0,.1.1.2.1.3a.75.75,0,0,0,.9,0c.1-.1.2-.2.2-.3V3.6C22.1,3.4,22,3.3,21.9,3.3Z" fill="#202224"/><g id="phone3b_blade2"><path d="M24.8,1.7h-.3l-3.3,2-.5.3h-.2l-.4-.1h-.2L17.2,5.4a.13.13,0,0,0,0,.2h0a2.15,2.15,0,0,0,.5.4H18l3.5-2.1.5-.3h.2l.4.1h.2l2.4-1.5a.47.47,0,0,0,.1-.3A1.69,1.69,0,0,1,24.8,1.7Z" fill="#202224"/><path d="M24.8,1.5h-.2l-3.3,2-.5.3h-.2l-.4-.1H20L17.4,5.2c-.1,0-.1.1-.1.2a2.15,2.15,0,0,0,.5.4h.3l3.5-2.1.5-.3h.2l.4.1h.2L25.3,2c.1,0,.1-.1,0-.2A.56.56,0,0,1,24.8,1.5Z" fill="#71747c"/></g><path d="M21.9,3.3a.63.63,0,0,0-.4-.1c-.2,0-.3,0-.4.1-.3.2-.3.4-.1.6a.75.75,0,0,0,.9,0,.32.32,0,0,0,.16-.44A.31.31,0,0,0,21.9,3.3Z" fill="#71747c"/><path d="M21.8,0c-3,0-5.8,1.5-6.2,3.5s2,4,5.4,4,6.2-1.9,6.2-4S24.8,0,21.8,0ZM21,6.8a5.63,5.63,0,0,1-4.3-1.6,1.88,1.88,0,0,1-.4-1.6c.3-1.6,2.8-3,5.5-3A5.8,5.8,0,0,1,25.9,2a2,2,0,0,1,.6,1.4C26.5,5.3,23.9,6.8,21,6.8Z" fill="#fff"/><path d="M16.6,1.9l-.4-.1a3.47,3.47,0,0,0-.8,1.6A2.82,2.82,0,0,0,15.5,5l.5-.1a2,2,0,0,1-.1-1.5A2.12,2.12,0,0,1,16.6,1.9Z" fill="#d3d3d3"/><path d="M16.6,1.9l-.4-.1a3.47,3.47,0,0,0-.8,1.6A2.82,2.82,0,0,0,15.5,5l.5-.1a2,2,0,0,1-.1-1.5A2.12,2.12,0,0,1,16.6,1.9Z" fill="#7db3e1"/><path d="M15.3,3.9h0v.6a3.15,3.15,0,0,0,.2,1.1l.2-.1V5.1l.2-.1V4.9l-.5.1C15.4,4.6,15.3,4.3,15.3,3.9Z" fill="#e2e2e7"/><path d="M15.8,3.9a.87.87,0,0,1,.1-.5,3.7,3.7,0,0,1,.8-1.5V1.8a4.43,4.43,0,0,0-.8,1.5A1.23,1.23,0,0,0,15.8,3.9Z" fill="url(#phone3b_linear-gradient-10"/><path d="M6.5,10.9C1.1,10.9.3,14.4.3,14.4v.4c-.1,2,2.2,3.6,5.4,3.6,3.4,0,6.2-1.8,6.2-4v-.7S10.6,10.9,6.5,10.9Zm-.8,6.8a5.63,5.63,0,0,1-4.3-1.6A1.88,1.88,0,0,1,1,14.5c.3-1.6,2.8-3,5.5-3a5.8,5.8,0,0,1,4.1,1.4,2,2,0,0,1,.6,1.4C11.2,16.2,8.6,17.7,5.7,17.7Z" fill="#e2e2e7"/><path d="M6.1,15.2c-.6,0-1.1-.3-1.1-.7v1.1c0,.4.5.7,1.1.7s1.3-.4,1.3-.8V14.4C7.4,14.8,6.8,15.2,6.1,15.2Z" fill="#71747c"/><path d="M7.4,14.4" fill="url(#phone3b_linear-gradient-11"/><path d="M6.2,13.6c-.7,0-1.3.4-1.3.8s.4.8,1.1.8,1.3-.4,1.3-.8S6.9,13.6,6.2,13.6Z" fill="#7db3e1"/><path d="M6.6,13.6a1.39,1.39,0,0,0-.9,0c-.1.1-.2.2-.2.3v.4c0,.1.1.2.1.3a.75.75,0,0,0,.9,0c.1-.1.2-.2.2-.3v-.4C6.8,13.8,6.7,13.7,6.6,13.6Z" fill="#202224"/><g id="phone3b_blade1"><path d="M9.4,12H9.1L5.8,14l-.5.3H5.1l-.4-.2H4.5L1.8,15.6a.13.13,0,0,0,0,.2h0a2.15,2.15,0,0,0,.5.4h.3l3.5-2.1.5-.3h.2l.4.1h.2l2.4-1.5a.3.3,0,0,0,.1-.2A4.34,4.34,0,0,1,9.4,12Z" fill="#202224"/><path d="M9.4,11.8H9.2l-3.3,2-.5.3c-.1,0-.2.1-.2,0l-.4-.2H4.6L2,15.4c-.1,0-.1.1-.1.2a2.15,2.15,0,0,0,.5.4h.3l3.5-2.1.5-.3c.1,0,.2-.1.2,0l.4.2h.2l2.4-1.5c.1,0,.1-.1,0-.2A.89.89,0,0,1,9.4,11.8Z" fill="#71747c"/></g><path d="M6.6,13.6a.63.63,0,0,0-.4-.1c-.2,0-.3,0-.4.1-.3.2-.3.4-.1.6a.75.75,0,0,0,.9,0C6.9,14,6.8,13.8,6.6,13.6Z" fill="#71747c"/><path d="M6.5,10.3c-3,0-5.8,1.5-6.2,3.5s2,4,5.4,4,6.2-1.8,6.2-4C12,11.8,9.5,10.3,6.5,10.3Zm-.8,6.8a5.63,5.63,0,0,1-4.3-1.6A1.88,1.88,0,0,1,1,13.9c.3-1.6,2.8-3,5.5-3a5.8,5.8,0,0,1,4.1,1.4,2,2,0,0,1,.6,1.4C11.2,15.6,8.6,17.1,5.7,17.1Z" fill="#fff"/><path d="M1.3,12.2l-.4-.1a3.47,3.47,0,0,0-.8,1.6,3.27,3.27,0,0,0,.1,1.7l.5-.1a2,2,0,0,1-.1-1.5A2.16,2.16,0,0,1,1.3,12.2Z" fill="#d3d3d3"/><path d="M1.3,12.2l-.4-.1a3.47,3.47,0,0,0-.8,1.6,3.27,3.27,0,0,0,.1,1.7l.5-.1a2,2,0,0,1-.1-1.5A2.16,2.16,0,0,1,1.3,12.2Z" fill="#7db3e1"/><path d="M0,14.2H0v.6a3.15,3.15,0,0,0,.2,1.1l.2-.1v-.5l.2-.1v-.1l-.5.1C.1,14.9,0,14.6,0,14.2Z" fill="#e2e2e7"/><path d="M.5,14.2a.87.87,0,0,1,.1-.5,2.86,2.86,0,0,1,.8-1.4v-.1a4.43,4.43,0,0,0-.8,1.5A.74.74,0,0,0,.5,14.2Z" fill="url(#phone3b_linear-gradient-12"/><path d="M24.8,54h0c-.2,0-.2-.1-.2-.3l.1-1.5a.63.63,0,0,0-.1-.4L22,43.7c0-.1,0-.3.1-.3s.3,0,.3.2L25,51.7a1.23,1.23,0,0,1,.1.6L25,53.9C25.1,53.9,24.9,54,24.8,54Z" fill="#605e77"/><path d="M19.4,46.1c-.1,0-.1,0-.2-.1s-.1-.3.1-.3l.4-.3,2.3-2c.1-.1.3-.1.3,0s.1.3,0,.3l-2.3,2-.4.3A.3.3,0,0,1,19.4,46.1Z" fill="#605e77"/></g><path d="M26.1,73.9c-.1.9.4,7.1.4,7.3s1,.6,1.1-.2.8-4.6,1-7.2C28.6,73.2,26.2,72,26.1,73.9Z" fill="#fac2c3"/><g id="phone3b_arm-bottom"><path d="M25.7,61.1c-.7,1.2-1,2-1.5,3s-.3,1.7.9,1c.7-.3,1.4-1.7,2.1-2.7s1.3-2.2.2-2.6C26.9,59.7,26.5,59.7,25.7,61.1Z" fill="#fac2c3"/><path d="M21.2,62.2c-.8-.3-.6-.6-1.1-.9a1.27,1.27,0,0,1-.4-.4c-.2.3.4.7.2.6s-.7-.3-.8-.6-.3-.5-.3-.3-.1.5-.1.6.2.3.2.3,0,.2.6.5,4.1,2.8,4.6,3.2c.8.6,1.5-.6.7-1.3A14.64,14.64,0,0,0,21.2,62.2Z" fill="#fac2c3"/></g><path d="M31.9,56.6A1.56,1.56,0,0,0,30,55.54l-.16.06s.3.3.1,1.1-1.1,1.9-1.3,2.8a3.6,3.6,0,0,0,1.5,3.3,1.71,1.71,0,0,1,.4,1.5c1.4-1.2.3-2.3.4-3.3C31.2,60.2,32.5,58.2,31.9,56.6Z" fill="#aa5858"/><path d="M27.2,66.4a22.23,22.23,0,0,0-1.1,7.1,1.19,1.19,0,0,0,2.3,0c1.6-3,3-6,1.1-7.4a1.54,1.54,0,0,0-2.17.14A1,1,0,0,0,27.2,66.4Z" fill="#5e8dc9"/><path d="M26.1,73.3a20.61,20.61,0,0,0-.1,3.6,3.38,3.38,0,0,0,2.4.2c.1-.9.1-2.5.2-3.2C28.7,72.6,26.2,71.4,26.1,73.3Z" fill="#5e8dc9"/><path d="M30.2,67.6c-.9-.6-2.6-.3-2.9.6s.8,6,1.1,7.9,2.3.7,2.4-.1.3-2.5.4-3.3a11.63,11.63,0,0,0,.3-3A2.3,2.3,0,0,0,30.2,67.6Z" fill="#5e8dc9"/><path d="M28.4,75.8c.1.9,1.5,7.2,1.5,7.4s1.1.5,1-.4.1-4.3,0-4.9a21.41,21.41,0,0,0-.1-2.4C30.8,74.9,28.3,73.8,28.4,75.8Z" fill="#fac2c3"/><path d="M28.3,75.4c.1.7.2,1.9.4,2.9a3.19,3.19,0,0,0,2.4-.3c-.1-.7-.2-2.4-.2-3.1S28.1,73.4,28.3,75.4Z" fill="#5e8dc9"/><path d="M30.4,64c.1-.6.7-1.8.3-2.9a3.27,3.27,0,0,0-2.9-1.6,7.31,7.31,0,0,1-.9.3c-.3.5-.7,1.1-1.1,1.9s.3,1.5.4,2.2c.1,1-.2,2.4-.2,3.9,0,0,1.9,2.4,5.5.7C31.3,67,29.9,66.6,30.4,64Z" fill="#efeff2"/><path d="M31,84a2,2,0,0,1-1.6.9,2.18,2.18,0,0,1-.8-.1h-.5l-.1.1s-.2.3.5.4c1.3.2,1.6-.1,1.8-.3l.3-.3s.1.1.1,0c.2-.1.5-.1.5-.5s-.1-.4-.2-.6C31.1,83.8,31.1,83.9,31,84Z" fill="#fff"/><path d="M31,82.1a2,2,0,0,1-1.3.1c0,1.3-.1,1.6-.6,2s-1.8.7-.5.9,1.8-.2,2-.4.6-.1.6-.5-.2-.5-.3-1A8,8,0,0,0,31,82.1Z" fill="#d56a6a"/><path d="M27.7,82.1a1.81,1.81,0,0,1-1.6.9H24.8l-.1.1s-.2.3.5.4c1.3.1,1.6-.2,1.8-.4l.3-.3s.1.1.1,0c.2-.1.5-.2.5-.5a1,1,0,0,0-.2-.6C27.8,82,27.7,82,27.7,82.1Z" fill="#fff"/><path d="M27.6,80.2a2,2,0,0,1-1.3.1c0,1.3,0,1.6-.5,2.1s-1.8.7-.5.9a2,2,0,0,0,2-.5c.2-.2.6-.2.6-.6s-.2-.5-.3-1Z" fill="#d56a6a"/><polygon points="27.5 61.5 28 61 27.2 61.2 27.5 61.5" fill="#f7a2a3"/><path d="M29.1,58s-1.1-.1-1.1.7c0,.6-.1.7-.4.9a1.31,1.31,0,0,1-.4.3,2.7,2.7,0,0,0-.4.7l.3.5a3.84,3.84,0,0,0,.6-.2l.6-.3h0a4.1,4.1,0,0,1,1.3-.7C28.9,59.6,29.1,58,29.1,58Z" fill="#f7a2a3"/><path d="M27.1,60.2l-.2.4.3.5a3.84,3.84,0,0,0,.6-.2l.6-.3h0l.2-.2A2.36,2.36,0,0,1,27.1,60.2Z" fill="#fac2c3"/><path d="M26.7,61.2a.35.35,0,0,0,.2-.1l-.1-.4C26.8,60.8,26.7,61.1,26.7,61.2Z" fill="#f7a2a3"/><polygon points="26.7 61.4 26.7 62.5 27.4 61.7 27 61.3 26.7 61.4" fill="#f7a2a3"/><path d="M29.9,55.4a1.5,1.5,0,0,0-2,.4c-.4.6.1,1.2.5,1.8a2.48,2.48,0,0,0,1.1.6,5.09,5.09,0,0,1-.3.5c-.3.5,1.3-.7,1.5-1.2a1.42,1.42,0,0,0-.47-2A1.24,1.24,0,0,0,29.9,55.4Z" fill="#aa5858"/><path d="M29.6,57.6a1.19,1.19,0,0,0,0-1.1c-.2-.5-1.4-1.2-1.8-.6-.1.1-.1.3-.3.5a.84.84,0,0,0-.3.5,7.27,7.27,0,0,0-.1,1.4c0,.2.7.5,1.2.4s.8-.3.8-.4.2.3.5-.3C30.2,57.4,29.6,57.6,29.6,57.6Z" fill="#fac2c3"/><path d="M29.6,57.6a1.71,1.71,0,0,0,.1-1v.3a2.51,2.51,0,0,1-.5,1.2,1.57,1.57,0,0,1-1.4.5c-.1,0-.2-.1-.3-.1a1.31,1.31,0,0,0,1.1.2c.6-.1.8-.3.8-.4s.2.3.5-.3S29.6,57.6,29.6,57.6Z" fill="#f7a2a3"/><g id="phone3b_arm-top"><path d="M30.4,60.3c-.9-.6-1.6.7-1.9,1.7s-.7,2-.8,2.5c-.3,1.2.5,1.9,1.1,1a19,19,0,0,0,1.6-2.9C31.1,61.1,30.8,60.6,30.4,60.3Z" fill="#fac2c3"/><path d="M28.3,64.6c-.8-.9-2.7-1.7-3.5-2.2s-.3-.5-.8-.9c-.3-.2-.4-.5-.5-.4-.3.3.4.8.2.6s-.6-.3-.6-.7-.3-.6-.3-.4-.3.4-.3.6.2.3.1.4,0,.2.6.6,2.9,2.9,4.4,3.6C28.3,66.2,29.1,65.5,28.3,64.6Z" fill="#fac2c3"/></g></svg>