<?xml version="1.0" encoding="utf-8"?>
<!-- Generator: Adobe Illustrator 25.1.0, SVG Export Plug-In . SVG Version: 6.00 Build 0)  -->
<svg version="1.1" id="proc4_Layer_1" xmlns="http://www.w3.org/2000/svg" xmlns:xlink="http://www.w3.org/1999/xlink" x="0px" y="0px"
	 viewBox="0 0 288.67 281.46" style="enable-background:new 0 0 288.67 281.46;" xml:space="preserve">
<style type="text/css">
	.st0{opacity:0.1;fill:#010101;}
	.st1{fill:#EFB184;}
	.st2{fill:#60B9E7;}
	.st3{fill:#141416;}
	.st4{fill:#0C0C0C;}
	.st5{fill:#D156A0;}
	.st6{fill:#E16CA9;}
	.st7{fill:#7FCFF4;}
	.st8{fill:#DD956A;}
	.st9{fill:#E7A477;}
	.st10{fill:#331E10;}
	.st11{fill:#24170C;}
	.st12{enable-background:new    ;}
	.st13{fill:#B5B9BC;}
	.st14{fill:#7E8283;}
	.st15{fill:#E0F3FD;}
	.st16{fill:#AAD6EA;}
	.st17{fill:#73B6D3;}
	.st18{opacity:0;}
	.st19{fill:#DCDCDC;}
	.st20{opacity:0.1429;}
	.st21{opacity:0.9429;fill:#E1D8CE;}
	.st22{opacity:0.2857;}
	.st23{opacity:0.8857;fill:#E6D4C1;}
	.st24{opacity:0.4286;}
	.st25{opacity:0.8286;fill:#EBD1B4;}
	.st26{opacity:0.5714;}
	.st27{opacity:0.7714;fill:#EFCDA7;}
	.st28{opacity:0.7143;}
	.st29{opacity:0.7143;fill:#F3C89A;}
	.st30{opacity:0.8571;}
	.st31{opacity:0.6571;fill:#F7C48D;}
	.st32{opacity:0.6;fill:#FDC180;}
	.st33{fill:url(#proc4_SVGID_1_;}
	.st34{fill:#95C4DE;}
	.st35{fill:#F1F9FE;}
	.st36{opacity:0.6;}
	.st37{fill:url(#proc4_SVGID_2_;}
	.st38{fill:url(#proc4_SVGID_3_;}
	.st39{fill:url(#proc4_SVGID_4_;}
	.st40{fill:url(#proc4_SVGID_5_;}
	.st41{fill:url(#proc4_SVGID_6_;}
	.st42{fill:url(#proc4_SVGID_7_;}
	.st43{fill:url(#proc4_SVGID_8_;}
</style>
<polyline class="st0" points="0,212.18 97.22,281.46 278.86,198 181.65,128.7 0,212.18 "/>
<g>
	<g>
		<g>
			<path class="st1" d="M134.03,42.46c0,0,2.68-4.98,5.16-6.01c2.48-1.03,6.42-1.57,5.7-0.05c-0.72,1.54-4.32,7.78-9.1,8.41
				C135.79,44.81,134.03,44.48,134.03,42.46z"/>
		</g>
		<g>
			<g>
				<path class="st2" d="M99.13,45.22c0,0-4.31,3.13-1.05,6.43c0,0,4.39,3.57,14.16,6.49c0,0,10.23,2,12.22,0.65
					c1.99-1.36,13.78-13.72,13.78-13.72s-2.48-1.03-3.88-3.96c0,0-11.78,9.4-13.38,9.36C119.39,50.44,102.07,43.53,99.13,45.22z"/>
			</g>
		</g>
		<path class="st2" d="M124.46,58.79c1.57-1.07,10.59-10.4,13.78-13.72c-0.56-0.15-1.22-0.76-1.22-0.76s-12.96,10.14-14.55,10.1
			c-1.6-0.04-18.91-6.94-21.85-5.26c0,0-1.12,0.51-1.66,1.49c1.43,1.03,6.05,4.08,14.04,6.46
			C113.01,57.11,122.47,60.14,124.46,58.79z"/>
	</g>
	<g>
		<path class="st0" d="M74.15,149.55c-13.04,7.53-13.11,19.75-0.15,27.28c12.95,7.54,34.03,7.54,47.08,0
			c13.04-7.53,13.11-19.74,0.15-27.27C108.27,142.02,87.19,142.02,74.15,149.55z"/>
	</g>
	<path class="st3" d="M95.39,151.67c0,0-1.48,3.45,0,4.33c1.48,0.89,1.67,1.87,4.04,1.68c2.37-0.2,2.02,0.59,2.83,1.48
		c0.81,0.88,9.18,4.53,10.75,2.76c1.57-1.78-2.85-3.85-4.43-4.88c-1.57-1.03-5.32-5.16-5.42-6.34
		C103.07,149.5,95.39,151.67,95.39,151.67z"/>
	<path class="st4" d="M95.39,156c1.48,0.89,1.67,1.87,4.04,1.68c2.37-0.2,2.02,0.59,2.83,1.48c0.81,0.88,9.18,4.53,10.75,2.76
		c0.54-0.61,0.37-1.25-0.14-1.87c-0.58,0.1-1.39,0.25-2.45,0.44c-2.46,0.43-5.63-2.41-6.86-3.46c-1.23-1.05-2.77-0.64-4.89-1
		c-2.11-0.35-1.82-3.58-1.82-3.58l-1.56-0.54C95.01,152.66,94.14,155.25,95.39,156z"/>
	<path class="st3" d="M80.46,162.86c0,0-0.62,4.07,0.94,6.28c1.56,2.21,5,6.02,6.49,5.85c1.49-0.17,1.72-0.84,1.72-0.84
		s0.62-3.31-0.47-6.62c-1.1-3.31-1.18-4.67-1.18-4.67H80.46z"/>
	<path class="st4" d="M81.41,169.14c1.37,1.93,4.2,5.11,5.87,5.74c-2.21-2.84,1.1-2.25-1.39-3.6c-3.41-1.86-1.23-3.41-2.75-3.84
		c-1.53-0.44-0.41-4.2-0.41-4.2l-0.83-0.38h-1.43C80.46,162.86,79.84,166.93,81.41,169.14z"/>
	<path class="st5" d="M98.57,96.59c0,0,7.03-0.76,9.38-5.97c0,0,0.65,11.49-0.78,24.81c-1.43,13.32-2.6,36.75-2.6,36.75
		s-4.55,4.29-9.25,0c0,0-1.32-15.47,0-24.04c0,0-0.89-15,0.58-22.5C97.38,98.12,98.57,96.59,98.57,96.59z"/>
	<path class="st6" d="M104.57,152.17c0,0,1.17-23.43,2.6-36.75c1.42-13.32,0.93-26.54,0.93-26.54c-1.72,3.82-6.11,6.98-8.25,7.47
		c0.17,5.09,0.64,20.07,0.57,25.06c-0.08,4.74-1,24.37-1.39,32.62C102.17,154.44,104.57,152.17,104.57,152.17z"/>
	<path class="st5" d="M82.04,95.79c0,0-0.68,7.79-0.82,19.9c-0.14,12.1-1.03,16.66-1.32,18.52c-0.29,1.85-1.32,22.11-0.74,28.03
		c0,0,3.82,5.9,9.84,0c0,0,1.03-20.77,2.06-25.5c1.03-4.73,6.78-27.69,9.11-35.93c1.02-3.64,1.27-5.02,1.27-5.02
		S91.3,103.08,82.04,95.79z"/>
	<path class="st6" d="M89.01,162.23c0,0,1.03-20.77,2.06-25.5c1.03-4.73,6.78-27.69,9.11-35.93c1.02-3.64,3.4-6.44,3.4-6.44
		s-6.66,4.67-12.42,4.65c-0.25,1.78-2.7,18.73-3.27,26.15c-0.56,7.34-5.59,33.2-4.24,39.69C85.12,164.89,86.93,164.26,89.01,162.23z
		"/>
	<path class="st7" d="M88.67,47.46c0,0-10.36,6.24-10.56,7.08c-0.22,0.85-2.86,3.03,1.8,12.19c0,0,6.06,9.87,4.11,20.31
		c-1.13,6.05-2.3,9.25-2.3,9.25s5.27,6.73,18.32,0.86c2.64-1.19,6.92-5.2,8.08-8.26c0,0-1.87-8.67-0.91-19.02
		c0.95-10.36,0.95-23.71-4.98-25.06C102.21,44.8,100.6,43.12,88.67,47.46z"/>
	<g>
		<path class="st1" d="M89.55,38.45c0,0,2.49,5.44-0.61,8.38c-1.72,1.64,0.98,6.59,6.83,7.13c0,0,2.69-0.24,2.57-1.21
			c-0.27-2.23,0.77-3.3,1.95-4.79C101.46,46.47,89.55,38.45,89.55,38.45z"/>
		<path class="st8" d="M88.94,46.82c-0.21,0.2-0.35,0.44-0.42,0.72c2.52-1.87,6.71-1.4,6.71-1.4l-4.56-6.94
			c-0.2-0.14-0.37-0.26-0.51-0.36l-0.25,0.52C90.45,41.05,91.25,44.63,88.94,46.82z"/>
		<g>
			<path class="st1" d="M88.77,35.48c0,0,0.41,6.76,4.44,10.42c3.58,3.25,7.96,5.69,9.55,1.07c1.26-3.68,4.61-13.03,1.57-15.47
				c-3.93-3.16-5.02-6.48-10.29-5.42C94.04,26.08,87.94,27.82,88.77,35.48z"/>
			<path class="st9" d="M88.77,35.48c0,0-0.35,5.7,4.41,10.51c1.02,1.02,2.39,1.93,3.46,2.59c-1.85-1.87-2-2.38-3.33-4.53
				c-1.34-2.14,2.6-0.78,0.58-6.05c-0.69-1.79,3.6,1.04,4.64,1.18c6.16,0.79,6.25-2.79,6.6-4.26c-0.03-0.67-0.1-1.31-0.23-1.9
				l-0.4-1.2c-0.06-0.11-0.11-0.22-0.16-0.32c-0.54-0.95-1.08-1.78-1.65-2.5c-2.64-0.35-10.13-1.35-10.29-1.34
				c-0.11,0.01-1.66,1.56-3.11,3.03C88.8,31.95,88.56,33.52,88.77,35.48z"/>
			<path class="st10" d="M90.49,42.24c0,0-4.27-5.34-1.53-11.62c0,0,1.74-5.12,7.69-4.91c2.85,0.1,7.69,1.3,8.94,7.27
				c0.39,1.87-0.15,5.45-6.78,2.59c-0.95-0.42-3.52-1.16-4.58-0.47c-1.06,0.7-1.4,2.25-1.16,3.66c0.21,1.23-0.85,1.19-0.95,0.93
				c-0.09-0.27-0.9-3.82-2.36-2.71C88.44,37.98,90.4,41.99,90.49,42.24z"/>
			<path class="st11" d="M90.49,42.24c-0.09-0.25-2.04-4.26-0.73-5.27c1.46-1.11,2.26,2.44,2.36,2.71c0.1,0.27,1.16,0.3,0.95-0.93
				c-0.24-1.41,0.1-2.96,1.16-3.66c0.96-0.64,3.21,0.11,4.58,0.47c-1.03-0.9-3.28-1.52-3.8-3.55c-0.69-2.72-2.04-4.16-3.42-4.83
				c-1.96,1.45-2.63,3.45-2.63,3.45C86.22,36.9,90.49,42.24,90.49,42.24z"/>
		</g>
		<path class="st10" d="M108.92,32.26c0,0-2.78,6.98-10.45,3.45c0,0-3.84-1.68-4.88-5.65c-0.23-0.85-0.95-2.31-2.28-2.66
			c0,0,2.6-2.7,8.06-1.45c2.57,0.59,4.87,3.53,5.47,4.04C105.45,30.5,106.79,32.45,108.92,32.26z"/>
	</g>
	<path class="st2" d="M78.1,54.54c-0.22,0.85-2.86,3.03,1.8,12.19c0,0,6.06,9.87,4.11,20.31c-1.13,6.05-2.3,9.25-2.3,9.25
		s2.62,3.32,8.73,3.25c1.5-8.96-0.27-24.79-1.12-35.7c-0.56-7.03-3.95-10.73-6.7-12.61C80.31,52.72,78.19,54.16,78.1,54.54z"/>
	<g>
		<g>
			<path class="st1" d="M119.3,66.55c0,0,5.18-3.85,8.24-3.72c3.05,0.13,7.39,1.47,5.92,2.71c-1.49,1.24-8.22,5.95-13.47,4.29
				C119.99,69.83,118.33,68.64,119.3,66.55z"/>
		</g>
		<g>
			<g>
				<path class="st2" d="M81.9,52.54c0,0-5.97,1.15-4.19,6.14c0,0,2.81,5.81,11.5,13.55c0,0,9.61,7.01,12.32,6.57
					c2.71-0.44,20.87-7.52,20.87-7.52s-2.06-2.26-2.09-5.96c0,0-16.72,4.03-18.35,3.21C100.32,67.72,85.75,52.22,81.9,52.54z"/>
			</g>
		</g>
		<path class="st2" d="M101.52,78.81c2.13-0.35,15.96-5.63,20.87-7.52c-0.51-0.42-0.89-1.37-0.89-1.37s-18.28,4.22-19.92,3.41
			c-1.63-0.81-16.19-16.31-20.04-15.99c0,0-1.4-0.01-2.43,0.74c0.97,1.76,4.29,7.14,11.39,13.47
			C90.5,71.54,98.82,79.25,101.52,78.81z"/>
	</g>
</g>
<g>
	<g class="st12">
		<g>
			<polygon class="st13" points="28.88,206.47 28.4,211.95 108.27,268.89 108.74,263.38 			"/>
		</g>
		<g>
			<polygon class="st14" points="108.74,263.38 108.27,268.89 257.46,200.32 257.94,194.83 			"/>
		</g>
		<g>
			<polygon class="st15" points="28.88,206.47 108.74,263.38 257.94,194.83 178.09,137.89 			"/>
		</g>
	</g>
</g>
<g>
	<g>
		<g>
			<g>
				<path class="st16" d="M229.4,172.17l-131.4,64.61L57.42,209.4l131.36-64.6L229.4,172.17z M129.46,217.64l61.2-30.07l-5.46-3.67
					l-61.18,30.06L129.46,217.64L129.46,217.64z M170.01,173.65l-5.42,2.67l5.46,3.69l5.42-2.66L170.01,173.65L170.01,173.65z
					 M188.64,170.86l5.42-2.64l-5.46-3.71l-5.42,2.68L188.64,170.86L188.64,170.86z M114.29,207.42l5.42-2.67l-5.46-3.69l-5.43,2.66
					L114.29,207.42L114.29,207.42z M132.82,191.92l-5.41,2.66l5.46,3.71l5.42-2.68L132.82,191.92L132.82,191.92z M95.73,216.56
					l5.41-2.66l-5.47-3.69l-5.42,2.68L95.73,216.56L95.73,216.56z M156.88,186.49l-5.47-3.71l-5.4,2.69l5.49,3.68L156.88,186.49
					L156.88,186.49z M157.63,179.74l-5.45,2.68l5.47,3.67l5.42-2.67L157.63,179.74L157.63,179.74z M83.32,222.65l5.42-2.67
					l-5.49-3.69l-5.41,2.68L83.32,222.65L83.32,222.65z M194.85,167.83l5.39-2.68l-5.47-3.7l-5.41,2.69L194.85,167.83L194.85,167.83
					z M139,188.89l-5.4,2.66l5.45,3.68l5.42-2.68L139,188.89L139,188.89z M176.26,176.95l5.41-2.66l-5.48-3.69l-5.41,2.68
					L176.26,176.95L176.26,176.95z M120.42,198.03l-5.41,2.66l5.48,3.68l5.4-2.67L120.42,198.03L120.42,198.03z M101.91,213.5
					l5.42-2.67l-5.49-3.65l-5.41,2.65L101.91,213.5L101.91,213.5z M110.87,226.79l5.42-2.66l-5.44-3.68l-5.43,2.68L110.87,226.79
					L110.87,226.79z M196.22,175.97l5.42-2.66l-5.46-3.68l-5.43,2.69L196.22,175.97L196.22,175.97z M140.43,197.06l-5.43,2.67
					l5.45,3.66l5.41-2.65L140.43,197.06L140.43,197.06z M162.43,168.55l-5.43,2.66l5.45,3.67l5.41-2.68L162.43,168.55L162.43,168.55
					z M181.05,165.73l5.41-2.67l-5.44-3.66l-5.42,2.66L181.05,165.73L181.05,165.73z M153.59,190.57l5.46,3.7l5.44-2.67l-5.46-3.68
					L153.59,190.57L153.59,190.57z M149.27,181.34l-5.43-3.67l-5.44,2.67l5.47,3.68L149.27,181.34L149.27,181.34z M177.62,178.77
					l-5.43,2.66l5.45,3.69l5.43-2.67L177.62,178.77L177.62,178.77z M203.81,181.1l5.43-2.67l-5.46-3.67l-5.43,2.65L203.81,181.1
					L203.81,181.1z M125.23,186.81l-5.41,2.68l5.48,3.67l5.4-2.69L125.23,186.81L125.23,186.81z M103.3,221.67l5.4-2.65l-5.44-3.7
					L97.85,218L103.3,221.67L103.3,221.67z M121.88,212.53l5.44-2.66l-5.48-3.67l-5.43,2.67L121.88,212.53L121.88,212.53z
					 M106.7,202.31l5.42-2.67l-5.46-3.68l-5.39,2.66L106.7,202.31L106.7,202.31z M88.12,211.43l5.39-2.68l-5.43-3.67l-5.44,2.68
					L88.12,211.43L88.12,211.43z M150.02,174.62l-5.42,2.66l5.46,3.68l5.43-2.66L150.02,174.62L150.02,174.62z M109.48,218.65
					l5.42-2.7l-5.45-3.66l-5.44,2.66L109.48,218.65L109.48,218.65z M94.3,208.4l5.43-2.67l-5.48-3.68l-5.41,2.68L94.3,208.4
					L94.3,208.4z M146.62,194.01l-5.44,2.66l5.47,3.68l5.42-2.68L146.62,194.01L146.62,194.01z M168.64,171.83l5.43-2.65l-5.46-3.67
					l-5.41,2.64L168.64,171.83L168.64,171.83z M131.44,183.77l-5.42,2.68l5.44,3.66l5.44-2.68L131.44,183.77L131.44,183.77z
					 M183.83,182.08l5.42-2.66l-5.45-3.69l-5.43,2.67L183.83,182.08L183.83,182.08z M165.23,184.87l-5.44,2.68l5.45,3.66l5.43-2.66
					L165.23,184.87L165.23,184.87z M191.4,187.2l5.44-2.69l-5.43-3.67l-5.44,2.67L191.4,187.2L191.4,187.2z M128.03,203.15
					l-5.42,2.65l5.45,3.67l5.43-2.66L128.03,203.15L128.03,203.15z M112.84,192.9l-5.41,2.66l5.45,3.7l5.44-2.67L112.84,192.9
					L112.84,192.9z M98.47,232.89l5.43-2.69l-5.44-3.66l-5.44,2.66L98.47,232.89L98.47,232.89z M209.99,178.05l5.43-2.65l-5.45-3.68
					l-5.43,2.66L209.99,178.05L209.99,178.05z M202.41,172.93l5.43-2.65l-5.46-3.7l-5.42,2.69L202.41,172.93L202.41,172.93z
					 M90.89,227.76l5.43-2.66l-5.46-3.69l-5.41,2.67L90.89,227.76L90.89,227.76z M187.23,162.7l5.42-2.66l-5.46-3.68l-5.41,2.66
					L187.23,162.7L187.23,162.7z M117.06,223.75l5.46-2.69l-5.47-3.66l-5.44,2.68L117.06,223.75L117.06,223.75z M75.7,217.51
					l5.44-2.64l-5.44-3.68l-5.44,2.66L75.7,217.51L75.7,217.51z M201.06,164.76l5.38-2.66l-5.46-3.68l-5.42,2.66L201.06,164.76
					L201.06,164.76z M126.63,194.98l-5.39,2.66l5.47,3.66l5.39-2.64L126.63,194.98L126.63,194.98z M108.1,210.45l5.4-2.66
					l-5.48-3.68l-5.4,2.66L108.1,210.45L108.1,210.45z M182.46,173.9l5.39-2.66l-5.46-3.68l-5.42,2.66L182.46,173.9L182.46,173.9z
					 M163.8,176.71l-5.4,2.64l5.47,3.71l5.39-2.68L163.8,176.71L163.8,176.71z M89.54,219.59l5.39-2.65l-5.46-3.68l-5.39,2.66
					L89.54,219.59L89.54,219.59z M150.67,189.54l-5.48-3.71l-5.37,2.67l5.46,3.67L150.67,189.54L150.67,189.54z M81.94,214.47
					l5.37-2.66l-5.43-3.66l-5.41,2.63L81.94,214.47L81.94,214.47z M208.61,169.88l5.41-2.66l-5.46-3.66l-5.42,2.66L208.61,169.88
					L208.61,169.88z M97.09,224.73l5.42-2.66l-5.45-3.68l-5.41,2.65L97.09,224.73L97.09,224.73z M171.41,181.81l-5.43,2.68
					l5.45,3.68l5.43-2.66L171.41,181.81L171.41,181.81z M174.84,168.78l5.42-2.66l-5.48-3.67l-5.37,2.66L174.84,168.78
					L174.84,168.78z M156.2,171.59l-5.38,2.65l5.43,3.7l5.41-2.67L156.2,171.59L156.2,171.59z M123.28,220.69l5.42-2.64l-5.45-3.68
					l-5.41,2.67L123.28,220.69L123.28,220.69z M216.2,175l5.42-2.65l-5.47-3.67l-5.38,2.64L216.2,175L216.2,175z M115.67,215.58
					l5.44-2.66l-5.46-3.68l-5.41,2.66L115.67,215.58L115.67,215.58z M190.02,179.03l5.43-2.67l-5.46-3.67l-5.41,2.64L190.02,179.03
					L190.02,179.03z M100.51,205.34l5.4-2.67l-5.48-3.66l-5.39,2.65L100.51,205.34L100.51,205.34z M104.67,229.84l5.42-2.67
					l-5.43-3.68l-5.41,2.67L104.67,229.84L104.67,229.84z M119.02,189.86l-5.38,2.67l5.46,3.66l5.39-2.66L119.02,189.86
					L119.02,189.86z M197.64,184.12l5.38-2.64l-5.45-3.67l-5.4,2.65L197.64,184.12L197.64,184.12z M143.07,184.39l-5.46-3.67
					l-5.39,2.67l5.44,3.68L143.07,184.39L143.07,184.39z M147.41,193.61l5.44,3.71l5.41-2.69l-5.43-3.67L147.41,193.61
					L147.41,193.61z M193.43,159.65l5.43-2.68l-5.47-3.66l-5.4,2.66L193.43,159.65L193.43,159.65z M134.23,200.1l-5.42,2.66
					l5.45,3.69l5.4-2.67L134.23,200.1L134.23,200.1z M141.55,171.33l-5.41,2.68l3.78,2.53l5.42-2.68L141.55,171.33L141.55,171.33z
					 M102.33,190.6l-5.44,2.66l3.78,2.57l5.44-2.67L102.33,190.6L102.33,190.6z M178.71,153.05l-5.39,2.66l3.77,2.58l5.44-2.68
					L178.71,153.05L178.71,153.05z M156.01,164.22l-5.43,2.68l3.83,2.54l5.38-2.66L156.01,164.22L156.01,164.22z M164.27,160.16
					l-5.44,2.68l3.81,2.56l5.42-2.68L164.27,160.16L164.27,160.16z M79.59,201.78l-5.39,2.69l3.78,2.54l5.43-2.67L79.59,201.78
					L79.59,201.78z M71.35,205.86l-5.43,2.65l3.77,2.58l5.42-2.68L71.35,205.86L71.35,205.86z M92.43,199.89l5.39-2.64l-3.78-2.59
					l-5.4,2.66L92.43,199.89L92.43,199.89z M185.36,154.2l5.39-2.67l-3.81-2.54l-5.39,2.66L185.36,154.2L185.36,154.2z
					 M133.28,175.39l-5.39,2.66l3.78,2.57l5.41-2.66L133.28,175.39L133.28,175.39z"/>
			</g>
		</g>
	</g>
	<g>
		<g>
			<g>
				<polygon class="st17" points="144.6,177.29 150.05,180.97 155.48,178.31 150.02,174.64 				"/>
			</g>
			<g>
				<polygon class="st17" points="188,155.97 193.43,159.65 198.86,156.98 193.39,153.32 				"/>
			</g>
			<g>
				<polygon class="st17" points="163.2,168.15 168.64,171.83 174.07,169.18 168.61,165.51 				"/>
			</g>
			<g>
				<polygon class="st17" points="178.37,178.4 183.83,182.08 189.25,179.42 183.8,175.73 				"/>
			</g>
			<g>
				<polygon class="st17" points="181.56,151.66 185.36,154.2 190.76,151.54 186.95,149 				"/>
			</g>
			<g>
				<polygon class="st17" points="173.32,155.7 177.09,158.28 182.53,155.61 178.71,153.05 				"/>
			</g>
			<g>
				<polygon class="st17" points="181.78,159.01 187.23,162.7 192.65,160.04 187.19,156.35 				"/>
			</g>
			<g>
				<polygon class="st17" points="195.56,161.08 201.06,164.76 206.44,162.1 200.98,158.42 				"/>
			</g>
			<g>
				<polygon class="st17" points="175.59,162.06 181.05,165.73 186.45,163.06 181.01,159.4 				"/>
			</g>
			<g>
				<polygon class="st17" points="158.83,162.85 162.64,165.4 168.06,162.73 164.27,160.16 				"/>
			</g>
			<g>
				<polygon class="st17" points="189.36,164.15 194.85,167.83 200.24,165.15 194.77,161.45 				"/>
			</g>
			<g>
				<polygon class="st17" points="203.15,166.21 208.61,169.88 214.02,167.22 208.56,163.56 				"/>
			</g>
			<g>
				<polygon class="st17" points="169.41,165.12 174.84,168.78 180.27,166.12 174.78,162.45 				"/>
			</g>
			<g>
				<polygon class="st17" points="183.18,167.18 188.64,170.86 194.06,168.22 188.59,164.5 				"/>
			</g>
			<g>
				<polygon class="st17" points="150.58,166.9 154.41,169.44 159.79,166.78 156.01,164.22 				"/>
			</g>
			<g>
				<polygon class="st17" points="196.95,169.26 202.41,172.93 207.84,170.27 202.38,166.58 				"/>
			</g>
			<g>
				<polygon class="st17" points="210.78,171.32 216.2,175 221.62,172.36 216.15,168.68 				"/>
			</g>
			<g>
				<polygon class="st17" points="176.97,170.22 182.46,173.9 187.85,171.24 182.39,167.57 				"/>
			</g>
			<g>
				<polygon class="st17" points="190.76,172.31 196.22,175.97 201.65,173.3 196.19,169.62 				"/>
			</g>
			<g>
				<polygon class="st17" points="157.01,171.21 162.46,174.88 167.86,172.2 162.43,168.55 				"/>
			</g>
			<g>
				<polygon class="st17" points="170.78,173.28 176.26,176.95 181.67,174.29 176.19,170.61 				"/>
			</g>
			<g>
				<polygon class="st17" points="184.58,175.34 190.02,179.03 195.45,176.37 189.98,172.7 				"/>
			</g>
			<g>
				<polygon class="st17" points="136.14,174.02 139.92,176.55 145.34,173.87 141.55,171.33 				"/>
			</g>
			<g>
				<polygon class="st17" points="150.82,174.24 156.25,177.93 161.66,175.27 156.2,171.59 				"/>
			</g>
			<g>
				<polygon class="st17" points="164.59,176.32 170.06,180 175.48,177.34 170.01,173.65 				"/>
			</g>
			<g>
				<polygon class="st17" points="192.17,180.46 197.64,184.12 203.02,181.48 197.57,177.81 				"/>
			</g>
			<g>
				<polygon class="st17" points="127.88,178.05 131.66,180.62 137.07,177.96 133.28,175.39 				"/>
			</g>
			<g>
				<polygon class="st17" points="158.4,179.35 163.87,183.06 169.26,180.39 163.8,176.71 				"/>
			</g>
			<g>
				<polygon class="st17" points="172.19,181.42 177.64,185.11 183.07,182.44 177.62,178.77 				"/>
			</g>
			<g>
				<polygon class="st17" points="138.4,180.35 143.86,184.03 149.27,181.34 143.83,177.67 				"/>
			</g>
			<g>
				<polygon class="st17" points="185.96,183.52 191.4,187.2 196.83,184.51 191.4,180.85 				"/>
			</g>
			<g>
				<polygon class="st17" points="165.98,184.5 171.43,188.18 176.86,185.52 171.41,181.81 				"/>
			</g>
			<g>
				<polygon class="st17" points="132.23,183.39 137.67,187.06 143.07,184.39 137.62,180.72 				"/>
			</g>
			<g>
				<polygon class="st17" points="146.01,185.47 151.5,189.15 156.88,186.49 151.41,182.78 				"/>
			</g>
			<g>
				<polygon class="st17" points="159.79,187.55 165.24,191.2 170.67,188.54 165.23,184.87 				"/>
			</g>
			<g>
				<polygon class="st17" points="126.02,186.45 131.46,190.11 136.9,187.43 131.44,183.77 				"/>
			</g>
			<g>
				<polygon class="st17" points="139.83,188.5 145.29,192.17 150.67,189.54 145.2,185.84 				"/>
			</g>
			<g>
				<polygon class="st17" points="153.59,190.57 159.05,194.26 164.49,191.59 159.04,187.92 				"/>
			</g>
			<g>
				<polygon class="st17" points="119.82,189.49 125.29,193.17 130.7,190.48 125.23,186.81 				"/>
			</g>
			<g>
				<polygon class="st17" points="133.6,191.56 139.05,195.24 144.47,192.56 139,188.89 				"/>
			</g>
			<g>
				<polygon class="st17" points="147.41,193.61 152.85,197.32 158.26,194.63 152.82,190.96 				"/>
			</g>
			<g>
				<polygon class="st17" points="113.64,192.53 119.1,196.19 124.49,193.53 119.02,189.86 				"/>
			</g>
			<g>
				<polygon class="st17" points="96.88,193.26 100.67,195.83 106.11,193.16 102.33,190.6 				"/>
			</g>
			<g>
				<polygon class="st17" points="127.42,194.58 132.87,198.29 138.29,195.62 132.82,191.92 				"/>
			</g>
			<g>
				<polygon class="st17" points="141.18,196.67 146.65,200.35 152.07,197.67 146.62,194.01 				"/>
			</g>
			<g>
				<polygon class="st17" points="107.43,195.56 112.88,199.26 118.31,196.59 112.84,192.9 				"/>
			</g>
			<g>
				<polygon class="st17" points="121.23,197.64 126.7,201.31 132.09,198.66 126.63,194.98 				"/>
			</g>
			<g>
				<polygon class="st17" points="88.64,197.33 92.43,199.89 97.82,197.25 94.04,194.67 				"/>
			</g>
			<g>
				<polygon class="st17" points="135.01,199.73 140.46,203.39 145.87,200.74 140.43,197.06 				"/>
			</g>
			<g>
				<polygon class="st17" points="101.26,198.62 106.7,202.31 112.11,199.63 106.65,195.96 				"/>
			</g>
			<g>
				<polygon class="st17" points="115.02,200.69 120.5,204.37 125.9,201.7 120.42,198.03 				"/>
			</g>
			<g>
				<polygon class="st17" points="128.81,202.76 134.27,206.45 139.67,203.78 134.23,200.1 				"/>
			</g>
			<g>
				<polygon class="st17" points="95.05,201.66 100.51,205.34 105.92,202.67 100.44,199.01 				"/>
			</g>
			<g>
				<polygon class="st17" points="108.82,203.73 114.29,207.42 119.71,204.75 114.24,201.06 				"/>
			</g>
			<g>
				<polygon class="st17" points="122.61,205.81 128.06,209.48 133.49,206.81 128.03,203.15 				"/>
			</g>
			<g>
				<polygon class="st17" points="74.2,204.47 77.98,207.01 83.4,204.34 79.59,201.78 				"/>
			</g>
			<g>
				<polygon class="st17" points="88.85,204.73 94.3,208.4 99.74,205.73 94.26,202.05 				"/>
			</g>
			<g>
				<polygon class="st17" points="102.63,206.77 108.1,210.45 113.51,207.79 108.03,204.11 				"/>
			</g>
			<g>
				<polygon class="st17" points="82.64,207.76 88.12,211.43 93.51,208.75 88.08,205.08 				"/>
			</g>
			<g>
				<polygon class="st17" points="65.92,208.51 69.69,211.09 75.11,208.41 71.35,205.86 				"/>
			</g>
			<g>
				<polygon class="st17" points="96.43,209.83 101.91,213.5 107.33,210.83 101.84,207.18 				"/>
			</g>
			<g>
				<polygon class="st17" points="110.24,211.9 115.67,215.58 121.11,212.92 115.65,209.24 				"/>
			</g>
			<g>
				<polygon class="st17" points="76.47,210.78 81.94,214.47 87.31,211.81 81.88,208.15 				"/>
			</g>
			<g>
				<polygon class="st17" points="124.02,213.95 129.46,217.64 190.65,187.57 185.19,183.89 				"/>
			</g>
			<g>
				<polygon class="st17" points="90.25,212.88 95.73,216.56 101.14,213.89 95.67,210.2 				"/>
			</g>
			<g>
				<polygon class="st17" points="104.03,214.94 109.48,218.65 114.91,215.94 109.46,212.29 				"/>
			</g>
			<g>
				<polygon class="st17" points="70.26,213.86 75.7,217.51 81.14,214.88 75.7,211.2 				"/>
			</g>
			<g>
				<polygon class="st17" points="117.83,217.03 123.28,220.69 128.69,218.05 123.24,214.37 				"/>
			</g>
			<g>
				<polygon class="st17" points="84.07,215.92 89.54,219.59 94.93,216.94 89.46,213.26 				"/>
			</g>
			<g>
				<polygon class="st17" points="97.85,218 103.3,221.67 108.7,219.02 103.26,215.32 				"/>
			</g>
			<g>
				<polygon class="st17" points="111.61,220.07 117.06,223.75 122.51,221.06 117.05,217.4 				"/>
			</g>
			<g>
				<polygon class="st17" points="77.84,218.97 83.32,222.65 88.75,219.98 83.25,216.3 				"/>
			</g>
			<g>
				<polygon class="st17" points="91.65,221.04 97.09,224.73 102.51,222.07 97.06,218.39 				"/>
			</g>
			<g>
				<polygon class="st17" points="105.42,223.12 110.87,226.79 116.29,224.12 110.86,220.44 				"/>
			</g>
			<g>
				<polygon class="st17" points="85.45,224.09 90.89,227.76 96.32,225.1 90.86,221.41 				"/>
			</g>
			<g>
				<polygon class="st17" points="99.25,226.15 104.67,229.84 110.09,227.16 104.66,223.48 				"/>
			</g>
			<g>
				<polygon class="st17" points="93.02,229.19 98.47,232.89 103.9,230.2 98.46,226.54 				"/>
			</g>
			<g>
				<polygon class="st17" points="152.18,182.42 157.65,186.1 163.07,183.42 157.63,179.74 				"/>
			</g>
			<g>
				<polygon class="st17" points="116.41,208.87 121.88,212.53 127.31,209.87 121.84,206.2 				"/>
			</g>
			<g>
				<polygon class="st17" points="198.34,177.41 203.81,181.1 209.23,178.43 203.77,174.76 				"/>
			</g>
			<g>
				<polygon class="st17" points="204.55,174.38 209.99,178.05 215.42,175.4 209.97,171.72 				"/>
			</g>
		</g>
	</g>
</g>
<g>
	<g>
		<path class="st6" d="M155.93,89.39c2.18-1.02,2.86,0.7,2.66,3.14c-0.22,2.75-1.39,5.12-3.46,6.09c-2.1,0.99-2.86-0.64-2.66-3.16
			C152.67,92.88,153.83,90.37,155.93,89.39z M155.3,97.02c0.74-0.35,1.22-1.54,1.38-3.58c0.16-1.96-0.13-2.83-0.9-2.47
			c-0.7,0.33-1.26,1.53-1.41,3.59C154.19,96.61,154.56,97.37,155.3,97.02L155.3,97.02z"/>
	</g>
	<g>
		<polygon class="st6" points="164.15,85.67 163.42,94.57 161.59,95.44 162.17,88.38 162.14,88.4 160.53,89.93 160.33,88.52 
			162.58,86.41 		"/>
	</g>
	<g>
		<path class="st6" d="M169.81,82.87c2.17-1.03,2.86,0.7,2.66,3.14c-0.22,2.76-1.39,5.12-3.46,6.09c-2.1,0.99-2.86-0.64-2.67-3.16
			C166.55,86.37,167.71,83.85,169.81,82.87z M169.18,90.5c0.73-0.35,1.22-1.54,1.38-3.58c0.16-1.97-0.14-2.83-0.9-2.48
			c-0.7,0.33-1.26,1.54-1.41,3.59C168.07,90.09,168.44,90.85,169.18,90.5L169.18,90.5z"/>
	</g>
	<g>
		<path class="st6" d="M176.76,79.61c2.17-1.03,2.85,0.7,2.66,3.14c-0.23,2.75-1.39,5.11-3.46,6.09c-2.1,0.99-2.86-0.64-2.66-3.16
			C173.49,83.1,174.66,80.59,176.76,79.61z M176.12,87.23c0.75-0.35,1.22-1.54,1.39-3.57c0.16-1.96-0.14-2.83-0.9-2.48
			c-0.7,0.33-1.26,1.54-1.41,3.59C175.01,86.83,175.39,87.58,176.12,87.23L176.12,87.23z"/>
	</g>
	<g>
		<path class="st6" d="M183.7,76.35c2.17-1.02,2.85,0.7,2.66,3.14c-0.23,2.76-1.39,5.12-3.46,6.09c-2.11,0.99-2.87-0.65-2.67-3.16
			C180.43,79.84,181.6,77.33,183.7,76.35z M183.06,83.98c0.74-0.35,1.22-1.54,1.38-3.58c0.16-1.96-0.14-2.83-0.9-2.47
			c-0.7,0.33-1.26,1.53-1.41,3.58C181.95,83.57,182.32,84.32,183.06,83.98L183.06,83.98z"/>
	</g>
	<g>
		<polygon class="st6" points="191.91,72.63 191.18,81.53 189.36,82.39 189.92,75.34 189.9,75.35 188.29,76.88 188.1,75.47 
			190.34,73.37 		"/>
	</g>
	<g>
		<polygon class="st6" points="198.85,69.37 198.12,78.27 196.29,79.13 196.86,72.08 196.84,72.1 195.23,73.62 195.04,72.21 
			197.28,70.11 		"/>
	</g>
	<g>
		<path class="st6" d="M204.51,66.56c2.18-1.02,2.86,0.71,2.66,3.14c-0.23,2.76-1.39,5.11-3.46,6.09c-2.1,0.99-2.86-0.64-2.67-3.16
			C201.25,70.06,202.41,67.55,204.51,66.56z M203.88,74.19c0.74-0.34,1.22-1.54,1.39-3.58c0.16-1.96-0.14-2.83-0.9-2.47
			c-0.7,0.33-1.26,1.53-1.41,3.59C202.77,73.78,203.15,74.54,203.88,74.19L203.88,74.19z"/>
	</g>
	<g>
		<path class="st6" d="M92.13,135.19c2.18-1.02,2.85,0.7,2.66,3.14c-0.22,2.76-1.39,5.11-3.46,6.09c-2.1,0.98-2.86-0.65-2.67-3.16
			C88.86,138.69,90.03,136.17,92.13,135.19z M91.49,142.81c0.74-0.35,1.22-1.54,1.38-3.58c0.16-1.96-0.14-2.83-0.9-2.48
			c-0.7,0.33-1.26,1.54-1.41,3.59C90.38,142.41,90.75,143.16,91.49,142.81L91.49,142.81z"/>
	</g>
	<g>
		<path class="st6" d="M133.77,115.62c2.18-1.02,2.86,0.7,2.66,3.14c-0.22,2.76-1.39,5.11-3.46,6.09c-2.1,0.99-2.86-0.65-2.67-3.16
			C130.5,119.12,131.67,116.6,133.77,115.62z M133.14,123.25c0.74-0.35,1.21-1.54,1.38-3.58c0.16-1.96-0.14-2.83-0.9-2.47
			c-0.7,0.33-1.26,1.53-1.41,3.59C132.02,122.84,132.4,123.6,133.14,123.25L133.14,123.25z"/>
	</g>
	<g>
		<polygon class="st6" points="141.98,111.91 141.25,120.81 139.42,121.67 140,114.62 139.97,114.63 138.36,116.16 138.17,114.74 
			140.41,112.64 		"/>
	</g>
	<g>
		<polygon class="st6" points="148.93,108.64 148.2,117.54 146.36,118.4 146.94,111.35 146.91,111.37 145.3,112.9 145.11,111.48 
			147.35,109.38 		"/>
	</g>
	<g>
		<polygon class="st6" points="155.87,105.38 155.15,114.28 153.31,115.14 153.88,108.09 153.85,108.11 152.24,109.63 
			152.05,108.23 154.3,106.12 		"/>
	</g>
	<g>
		<path class="st6" d="M161.53,102.58c2.18-1.02,2.85,0.7,2.66,3.14c-0.22,2.76-1.39,5.11-3.46,6.09c-2.1,0.98-2.86-0.65-2.67-3.16
			C158.26,106.07,159.43,103.56,161.53,102.58z M160.9,110.2c0.74-0.35,1.22-1.54,1.39-3.58c0.15-1.96-0.14-2.83-0.9-2.47
			c-0.7,0.34-1.26,1.53-1.41,3.59C159.79,109.8,160.16,110.55,160.9,110.2L160.9,110.2z"/>
	</g>
	<g>
		<path class="st6" d="M168.47,99.31c2.18-1.02,2.86,0.71,2.65,3.14c-0.22,2.75-1.39,5.11-3.46,6.08c-2.1,0.99-2.86-0.64-2.66-3.16
			C165.21,102.81,166.37,100.3,168.47,99.31z M167.84,106.94c0.73-0.34,1.21-1.54,1.38-3.58c0.16-1.96-0.14-2.83-0.89-2.47
			c-0.71,0.33-1.27,1.53-1.41,3.59C166.73,106.54,167.1,107.29,167.84,106.94L167.84,106.94z"/>
	</g>
	<g>
		<path class="st6" d="M175.41,96.05c2.18-1.02,2.86,0.7,2.66,3.14c-0.22,2.75-1.39,5.11-3.46,6.08c-2.1,0.99-2.86-0.64-2.66-3.16
			C172.15,99.54,173.31,97.04,175.41,96.05z M174.78,103.68c0.74-0.35,1.22-1.54,1.38-3.58c0.16-1.96-0.14-2.83-0.9-2.47
			c-0.7,0.33-1.26,1.53-1.41,3.59C173.66,103.28,174.04,104.03,174.78,103.68L174.78,103.68z"/>
	</g>
	<g>
		<polygon class="st6" points="183.63,92.34 182.89,101.24 181.07,102.1 181.65,95.05 181.62,95.06 180,96.59 179.81,95.18 
			182.06,93.08 		"/>
	</g>
	<g>
		<path class="st6" d="M189.29,89.52c2.18-1.02,2.86,0.71,2.65,3.14c-0.22,2.75-1.39,5.11-3.46,6.09c-2.1,0.99-2.86-0.64-2.67-3.16
			C186.03,93.03,187.19,90.52,189.29,89.52z M188.66,97.16c0.74-0.34,1.22-1.54,1.39-3.58c0.16-1.96-0.14-2.83-0.9-2.47
			c-0.7,0.33-1.26,1.53-1.41,3.59C187.55,96.75,187.92,97.51,188.66,97.16L188.66,97.16z"/>
	</g>
	<g>
		<path class="st6" d="M196.24,86.26c2.17-1.02,2.85,0.71,2.66,3.14c-0.23,2.76-1.39,5.11-3.47,6.09c-2.1,0.99-2.86-0.65-2.66-3.15
			C192.97,89.77,194.13,87.25,196.24,86.26z M195.6,93.89c0.74-0.34,1.22-1.54,1.39-3.58c0.17-1.96-0.14-2.83-0.91-2.46
			c-0.69,0.32-1.25,1.52-1.4,3.58C194.48,93.49,194.86,94.24,195.6,93.89L195.6,93.89z"/>
	</g>
	<g>
		<path class="st6" d="M203.17,83c2.17-1.02,2.86,0.7,2.66,3.14c-0.23,2.75-1.39,5.11-3.47,6.08c-2.1,0.99-2.86-0.65-2.67-3.16
			C199.91,86.5,201.07,83.99,203.17,83z M202.54,90.63c0.74-0.34,1.22-1.54,1.39-3.58c0.16-1.96-0.14-2.83-0.9-2.47
			c-0.7,0.33-1.26,1.53-1.41,3.59C201.43,90.23,201.8,90.98,202.54,90.63L202.54,90.63z"/>
	</g>
	<g>
		<path class="st6" d="M90.78,151.63c2.17-1.02,2.86,0.69,2.66,3.14c-0.23,2.76-1.4,5.11-3.47,6.09c-2.1,0.99-2.86-0.64-2.66-3.16
			C87.52,155.13,88.68,152.62,90.78,151.63z M90.15,159.26c0.74-0.35,1.22-1.54,1.38-3.57c0.16-1.96-0.14-2.83-0.9-2.47
			c-0.7,0.33-1.26,1.53-1.41,3.59C89.04,158.85,89.41,159.61,90.15,159.26L90.15,159.26z"/>
	</g>
	<g>
		<path class="st6" d="M97.72,148.37c2.17-1.02,2.86,0.69,2.66,3.14c-0.23,2.75-1.39,5.11-3.47,6.09c-2.1,0.99-2.86-0.64-2.67-3.16
			C94.46,151.87,95.62,149.35,97.72,148.37z M97.09,156c0.75-0.35,1.22-1.54,1.38-3.57c0.17-1.97-0.13-2.84-0.89-2.48
			c-0.7,0.33-1.26,1.53-1.41,3.59C95.98,155.59,96.35,156.35,97.09,156L97.09,156z"/>
	</g>
	<g>
		<path class="st6" d="M104.66,145.11c2.17-1.02,2.86,0.69,2.66,3.14c-0.23,2.75-1.39,5.11-3.46,6.09c-2.1,0.99-2.86-0.65-2.67-3.16
			C101.4,148.61,102.56,146.09,104.66,145.11z M104.03,152.74c0.74-0.34,1.22-1.54,1.38-3.57c0.16-1.97-0.14-2.83-0.9-2.47
			c-0.7,0.33-1.26,1.53-1.41,3.59C102.92,152.33,103.29,153.09,104.03,152.74L104.03,152.74z"/>
	</g>
	<g>
		<polygon class="st6" points="112.89,141.39 112.16,150.29 110.32,151.15 110.9,144.1 110.87,144.12 109.26,145.65 109.07,144.23 
			111.31,142.13 		"/>
	</g>
	<g>
		<path class="st6" d="M118.54,138.58c2.18-1.02,2.85,0.7,2.66,3.14c-0.22,2.75-1.39,5.11-3.46,6.08c-2.1,0.99-2.86-0.64-2.66-3.16
			C115.28,142.09,116.44,139.57,118.54,138.58z M117.91,146.21c0.74-0.35,1.22-1.54,1.39-3.57c0.16-1.96-0.14-2.83-0.9-2.48
			c-0.7,0.33-1.26,1.54-1.41,3.59C116.8,145.81,117.17,146.56,117.91,146.21L117.91,146.21z"/>
	</g>
	<g>
		<path class="st6" d="M132.43,132.06c2.18-1.02,2.86,0.69,2.66,3.14c-0.23,2.75-1.39,5.11-3.47,6.08c-2.1,0.99-2.86-0.64-2.67-3.16
			C129.16,135.56,130.32,133.05,132.43,132.06z M131.79,139.69c0.74-0.35,1.22-1.54,1.38-3.57c0.16-1.96-0.13-2.83-0.9-2.48
			c-0.7,0.33-1.26,1.54-1.41,3.59C130.68,139.29,131.05,140.04,131.79,139.69L131.79,139.69z"/>
	</g>
	<g>
		<path class="st6" d="M139.36,128.8c2.17-1.02,2.86,0.69,2.66,3.14c-0.23,2.75-1.39,5.11-3.47,6.09c-2.1,0.99-2.86-0.65-2.66-3.16
			C136.1,132.3,137.26,129.79,139.36,128.8z M138.73,136.43c0.74-0.35,1.22-1.54,1.38-3.58c0.17-1.96-0.14-2.83-0.9-2.47
			c-0.7,0.33-1.26,1.53-1.41,3.59C137.62,136.02,137.99,136.78,138.73,136.43L138.73,136.43z"/>
	</g>
	<g>
		<path class="st6" d="M146.31,125.54c2.18-1.02,2.86,0.7,2.66,3.14c-0.23,2.76-1.39,5.11-3.47,6.09c-2.11,0.98-2.86-0.65-2.67-3.16
			C143.04,129.04,144.21,126.53,146.31,125.54z M145.67,133.17c0.74-0.35,1.22-1.54,1.38-3.57c0.16-1.96-0.14-2.83-0.9-2.48
			c-0.7,0.33-1.26,1.53-1.41,3.59C144.56,132.76,144.93,133.52,145.67,133.17L145.67,133.17z"/>
	</g>
	<g>
		<path class="st6" d="M153.25,122.28c2.18-1.02,2.86,0.69,2.66,3.14c-0.22,2.76-1.39,5.11-3.46,6.09c-2.1,0.99-2.86-0.64-2.66-3.16
			C149.98,125.78,151.15,123.27,153.25,122.28z M152.61,129.91c0.74-0.35,1.22-1.54,1.38-3.58c0.16-1.96-0.14-2.83-0.9-2.47
			c-0.71,0.33-1.26,1.53-1.41,3.59C151.5,129.5,151.87,130.26,152.61,129.91L152.61,129.91z"/>
	</g>
	<g>
		<polygon class="st6" points="161.46,118.57 160.73,127.46 158.9,128.33 159.48,121.28 159.46,121.29 157.84,122.82 157.65,121.41 
			159.89,119.31 		"/>
	</g>
	<g>
		<polygon class="st6" points="168.4,115.31 167.67,124.21 165.85,125.07 166.42,118.01 166.39,118.03 164.78,119.56 164.59,118.14 
			166.83,116.04 		"/>
	</g>
	<g>
		<polygon class="st6" points="175.34,112.04 174.61,120.94 172.79,121.8 173.36,114.75 173.33,114.76 171.71,116.3 171.53,114.88 
			173.78,112.78 		"/>
	</g>
	<g>
		<path class="st6" d="M181.01,109.23c2.18-1.02,2.86,0.7,2.66,3.14c-0.23,2.76-1.39,5.11-3.47,6.09c-2.09,0.99-2.85-0.64-2.66-3.16
			C177.75,112.73,178.91,110.22,181.01,109.23z M180.38,116.86c0.74-0.35,1.22-1.54,1.39-3.57c0.16-1.96-0.14-2.84-0.9-2.48
			c-0.7,0.33-1.26,1.53-1.41,3.59C179.26,116.46,179.63,117.21,180.38,116.86L180.38,116.86z"/>
	</g>
	<g>
		<path class="st6" d="M187.95,105.97c2.17-1.02,2.85,0.7,2.66,3.14c-0.22,2.76-1.39,5.12-3.46,6.09c-2.11,0.99-2.87-0.64-2.67-3.16
			C184.68,109.47,185.85,106.96,187.95,105.97z M187.32,113.6c0.73-0.34,1.22-1.54,1.38-3.57c0.16-1.97-0.14-2.83-0.9-2.48
			c-0.71,0.33-1.26,1.53-1.42,3.59C186.21,113.19,186.58,113.95,187.32,113.6L187.32,113.6z"/>
	</g>
	<g>
		<path class="st6" d="M194.89,102.71c2.17-1.02,2.86,0.69,2.66,3.15c-0.23,2.75-1.39,5.1-3.46,6.08c-2.1,0.99-2.86-0.64-2.67-3.16
			C191.62,106.21,192.79,103.69,194.89,102.71z M194.26,110.34c0.73-0.34,1.22-1.54,1.39-3.57c0.16-1.97-0.14-2.83-0.91-2.47
			c-0.69,0.33-1.25,1.53-1.4,3.58C193.15,109.93,193.52,110.69,194.26,110.34L194.26,110.34z"/>
	</g>
	<g>
		<path class="st6" d="M201.83,99.45c2.18-1.02,2.85,0.69,2.66,3.14c-0.22,2.75-1.39,5.11-3.46,6.09c-2.1,0.99-2.86-0.64-2.66-3.16
			C198.56,102.95,199.73,100.43,201.83,99.45z M201.2,107.08c0.73-0.34,1.22-1.54,1.39-3.58c0.16-1.96-0.14-2.83-0.9-2.47
			c-0.7,0.33-1.26,1.53-1.41,3.59C200.08,106.67,200.46,107.43,201.2,107.08L201.2,107.08z"/>
	</g>
	<g>
		<path class="st6" d="M89.44,168.08c2.18-1.03,2.86,0.7,2.66,3.14c-0.22,2.75-1.39,5.12-3.47,6.1c-2.1,0.98-2.85-0.65-2.67-3.17
			C86.18,171.57,87.34,169.06,89.44,168.08z M88.81,175.7c0.74-0.34,1.22-1.54,1.38-3.57c0.16-1.96-0.14-2.83-0.9-2.48
			c-0.7,0.33-1.26,1.53-1.41,3.59C87.69,175.3,88.06,176.05,88.81,175.7L88.81,175.7z"/>
	</g>
	<g>
		<path class="st6" d="M96.38,164.81c2.18-1.02,2.85,0.7,2.66,3.14c-0.23,2.75-1.39,5.12-3.47,6.09c-2.09,0.99-2.86-0.65-2.66-3.16
			C93.12,168.31,94.28,165.8,96.38,164.81z M95.75,172.44c0.74-0.35,1.21-1.54,1.38-3.58c0.16-1.96-0.14-2.83-0.9-2.47
			c-0.7,0.33-1.26,1.53-1.41,3.59C94.63,172.04,95.01,172.79,95.75,172.44L95.75,172.44z"/>
	</g>
	<g>
		<polygon class="st6" points="104.6,161.1 103.87,170 102.04,170.86 102.61,163.81 102.59,163.83 100.97,165.35 100.78,163.94 
			103.03,161.84 		"/>
	</g>
	<g>
		<path class="st6" d="M110.26,158.29c2.18-1.02,2.86,0.71,2.66,3.15c-0.23,2.75-1.4,5.12-3.47,6.09c-2.1,0.99-2.86-0.65-2.66-3.16
			C107,161.79,108.16,159.28,110.26,158.29z M109.63,165.92c0.74-0.34,1.22-1.54,1.38-3.58c0.16-1.96-0.14-2.82-0.9-2.47
			c-0.71,0.33-1.26,1.53-1.41,3.59C108.51,165.51,108.89,166.27,109.63,165.92L109.63,165.92z"/>
	</g>
	<g>
		<path class="st6" d="M117.2,155.03c2.18-1.02,2.85,0.7,2.65,3.14c-0.22,2.75-1.39,5.11-3.46,6.09c-2.1,0.98-2.86-0.65-2.67-3.17
			C113.94,158.53,115.1,156.02,117.2,155.03z M116.57,162.66c0.74-0.35,1.22-1.54,1.39-3.58c0.16-1.96-0.14-2.83-0.9-2.47
			c-0.7,0.33-1.26,1.53-1.41,3.59C115.46,162.25,115.83,163.01,116.57,162.66L116.57,162.66z"/>
	</g>
	<g>
		<path class="st6" d="M124.14,151.77c2.18-1.02,2.86,0.7,2.66,3.14c-0.23,2.75-1.39,5.12-3.47,6.09c-2.1,0.99-2.86-0.65-2.66-3.17
			C120.88,155.27,122.04,152.76,124.14,151.77z M123.51,159.4c0.74-0.35,1.22-1.54,1.38-3.58c0.16-1.96-0.14-2.83-0.9-2.47
			c-0.71,0.33-1.26,1.53-1.41,3.59C122.4,158.99,122.77,159.74,123.51,159.4L123.51,159.4z"/>
	</g>
	<g>
		<polygon class="st6" points="132.36,148.05 131.64,156.96 129.8,157.82 130.37,150.77 130.34,150.78 128.73,152.31 128.54,150.9 
			130.79,148.79 		"/>
	</g>
	<g>
		<path class="st6" d="M138.02,145.25c2.18-1.02,2.85,0.7,2.66,3.14c-0.23,2.76-1.4,5.12-3.47,6.09c-2.1,0.99-2.86-0.65-2.66-3.16
			C134.76,148.75,135.92,146.24,138.02,145.25z M137.39,152.88c0.75-0.35,1.22-1.54,1.39-3.58c0.16-1.96-0.14-2.83-0.9-2.48
			c-0.7,0.33-1.26,1.54-1.41,3.6C136.28,152.47,136.65,153.22,137.39,152.88L137.39,152.88z"/>
	</g>
	<g>
		<path class="st6" d="M144.96,141.98c2.18-1.02,2.85,0.7,2.66,3.14c-0.22,2.75-1.39,5.12-3.46,6.1c-2.1,0.99-2.86-0.66-2.66-3.17
			C141.7,145.48,142.86,142.98,144.96,141.98z M144.33,149.61c0.74-0.35,1.22-1.54,1.39-3.57c0.15-1.96-0.14-2.83-0.9-2.48
			c-0.71,0.33-1.26,1.53-1.41,3.59C143.22,149.21,143.59,149.96,144.33,149.61L144.33,149.61z"/>
	</g>
	<g>
		<path class="st6" d="M151.9,138.72c2.17-1.02,2.85,0.7,2.66,3.14c-0.23,2.75-1.39,5.12-3.47,6.09c-2.1,0.99-2.86-0.65-2.66-3.17
			C148.64,142.22,149.8,139.71,151.9,138.72z M151.27,146.35c0.74-0.34,1.22-1.54,1.39-3.57c0.16-1.96-0.14-2.83-0.9-2.48
			c-0.7,0.33-1.26,1.54-1.41,3.59C150.16,145.95,150.53,146.7,151.27,146.35L151.27,146.35z"/>
	</g>
	<g>
		<polygon class="st6" points="160.12,135.01 159.39,143.91 157.56,144.77 158.14,137.72 158.11,137.73 156.5,139.26 156.3,137.85 
			158.55,135.75 		"/>
	</g>
	<g>
		<path class="st6" d="M165.78,132.2c2.18-1.02,2.86,0.7,2.66,3.14c-0.23,2.76-1.4,5.12-3.47,6.1c-2.1,0.98-2.86-0.65-2.66-3.16
			C162.52,135.69,163.68,133.19,165.78,132.2z M165.15,139.83c0.74-0.34,1.22-1.54,1.38-3.58c0.16-1.96-0.13-2.83-0.89-2.47
			c-0.71,0.33-1.27,1.53-1.41,3.59C164.04,139.42,164.41,140.18,165.15,139.83L165.15,139.83z"/>
	</g>
	<g>
		<path class="st6" d="M172.73,128.94c2.18-1.02,2.85,0.7,2.66,3.14c-0.22,2.75-1.39,5.12-3.47,6.09c-2.1,0.99-2.86-0.65-2.66-3.16
			C169.46,132.44,170.62,129.92,172.73,128.94z M172.09,136.57c0.74-0.35,1.22-1.54,1.38-3.58c0.16-1.96-0.14-2.83-0.89-2.47
			c-0.7,0.33-1.26,1.53-1.41,3.59C170.98,136.16,171.35,136.92,172.09,136.57L172.09,136.57z"/>
	</g>
	<g>
		<path class="st6" d="M179.67,125.68c2.17-1.02,2.85,0.7,2.66,3.14c-0.23,2.75-1.4,5.12-3.47,6.09c-2.1,0.99-2.86-0.65-2.66-3.16
			C176.4,129.18,177.56,126.66,179.67,125.68z M179.03,133.31c0.74-0.35,1.22-1.54,1.39-3.58c0.16-1.96-0.14-2.83-0.9-2.47
			c-0.7,0.33-1.26,1.53-1.41,3.59C177.92,132.9,178.3,133.66,179.03,133.31L179.03,133.31z"/>
	</g>
	<g>
		<polygon class="st6" points="187.88,121.97 187.15,130.87 185.33,131.73 185.9,124.68 185.87,124.69 184.26,126.22 184.06,124.81 
			186.31,122.7 		"/>
	</g>
	<g>
		<path class="st6" d="M193.55,119.16c2.17-1.02,2.86,0.7,2.65,3.14c-0.23,2.75-1.39,5.12-3.46,6.09c-2.1,0.99-2.86-0.65-2.66-3.16
			C190.29,122.66,191.44,120.14,193.55,119.16z M192.91,126.79c0.73-0.34,1.22-1.54,1.38-3.58c0.16-1.96-0.14-2.83-0.91-2.47
			c-0.69,0.32-1.25,1.53-1.4,3.58C191.8,126.38,192.17,127.13,192.91,126.79L192.91,126.79z"/>
	</g>
	<g>
		<path class="st6" d="M200.48,115.89c2.18-1.02,2.86,0.71,2.66,3.14c-0.23,2.75-1.39,5.12-3.47,6.09c-2.1,0.99-2.86-0.65-2.66-3.16
			C197.22,119.4,198.39,116.88,200.48,115.89z M199.85,123.52c0.73-0.34,1.22-1.54,1.39-3.58c0.15-1.96-0.14-2.83-0.9-2.47
			c-0.71,0.33-1.26,1.53-1.41,3.59C198.75,123.12,199.11,123.88,199.85,123.52L199.85,123.52z"/>
	</g>
	<g>
		<path class="st6" d="M88.1,184.52c2.17-1.02,2.86,0.71,2.66,3.14c-0.23,2.75-1.39,5.11-3.47,6.08c-2.1,0.99-2.86-0.64-2.66-3.16
			C84.83,188.02,86,185.5,88.1,184.52z M87.46,192.15c0.74-0.35,1.22-1.54,1.38-3.58c0.16-1.97-0.14-2.83-0.9-2.47
			c-0.7,0.33-1.26,1.53-1.41,3.58C86.35,191.74,86.72,192.5,87.46,192.15L87.46,192.15z"/>
	</g>
	<g>
		<polygon class="st6" points="96.32,180.81 95.59,189.71 93.75,190.57 94.33,183.52 94.3,183.53 92.69,185.06 92.5,183.64 
			94.74,181.55 		"/>
	</g>
	<g>
		<path class="st6" d="M101.97,178c2.18-1.02,2.86,0.7,2.66,3.14c-0.23,2.75-1.39,5.11-3.47,6.09c-2.1,0.98-2.86-0.64-2.67-3.16
			C98.71,181.5,99.88,178.98,101.97,178z M101.34,185.63c0.74-0.35,1.22-1.54,1.39-3.58c0.16-1.96-0.14-2.83-0.9-2.48
			c-0.7,0.34-1.26,1.53-1.41,3.59C100.24,185.22,100.6,185.98,101.34,185.63L101.34,185.63z"/>
	</g>
	<g>
		<polygon class="st6" points="110.2,174.28 109.47,183.18 107.64,184.05 108.21,177 108.18,177.01 106.57,178.54 106.38,177.12 
			108.62,175.02 		"/>
	</g>
	<g>
		<polygon class="st6" points="117.14,171.02 116.41,179.92 114.57,180.78 115.15,173.74 115.12,173.75 113.51,175.28 
			113.32,173.87 115.56,171.76 		"/>
	</g>
	<g>
		<path class="st6" d="M122.8,168.22c2.18-1.02,2.86,0.7,2.66,3.14c-0.23,2.75-1.39,5.11-3.47,6.08c-2.1,0.99-2.86-0.65-2.66-3.16
			C119.53,171.71,120.7,169.2,122.8,168.22z M122.17,175.85c0.74-0.35,1.22-1.54,1.38-3.58c0.17-1.97-0.14-2.83-0.9-2.47
			c-0.7,0.33-1.26,1.53-1.41,3.59C121.05,175.44,121.42,176.19,122.17,175.85L122.17,175.85z"/>
	</g>
	<g>
		<polygon class="st6" points="131.02,164.5 130.29,173.4 128.45,174.26 129.03,167.21 129.01,167.22 127.39,168.75 127.2,167.34 
			129.44,165.24 		"/>
	</g>
	<g>
		<polygon class="st6" points="137.95,161.24 137.22,170.14 135.4,171.01 135.97,163.95 135.95,163.97 134.33,165.49 134.14,164.08 
			136.39,161.98 		"/>
	</g>
	<g>
		<path class="st6" d="M143.62,158.43c2.18-1.02,2.86,0.7,2.66,3.14c-0.22,2.75-1.39,5.11-3.46,6.09c-2.1,0.98-2.86-0.64-2.67-3.16
			C140.36,161.93,141.52,159.42,143.62,158.43z M142.99,166.06c0.74-0.34,1.22-1.54,1.39-3.57c0.16-1.96-0.14-2.83-0.9-2.48
			c-0.71,0.33-1.26,1.53-1.42,3.59C141.88,165.65,142.25,166.41,142.99,166.06L142.99,166.06z"/>
	</g>
	<g>
		<polygon class="st6" points="151.85,154.71 151.11,163.61 149.28,164.48 149.85,157.43 149.82,157.44 148.21,158.97 
			148.02,157.56 150.27,155.46 		"/>
	</g>
	<g>
		<polygon class="st6" points="158.77,151.46 158.04,160.36 156.21,161.22 156.8,154.17 156.76,154.18 155.15,155.71 154.96,154.3 
			157.21,152.19 		"/>
	</g>
	<g>
		<path class="st6" d="M164.44,148.64c2.18-1.02,2.85,0.7,2.66,3.14c-0.23,2.75-1.39,5.11-3.47,6.08c-2.1,0.99-2.86-0.64-2.67-3.15
			C161.18,152.15,162.34,149.63,164.44,148.64z M163.81,156.28c0.73-0.35,1.22-1.54,1.38-3.58c0.16-1.96-0.14-2.83-0.89-2.47
			c-0.71,0.33-1.26,1.53-1.41,3.59C162.7,155.87,163.07,156.63,163.81,156.28L163.81,156.28z"/>
	</g>
	<g>
		<polygon class="st6" points="172.65,144.94 171.93,153.83 170.1,154.69 170.67,147.64 170.65,147.66 169.03,149.19 168.84,147.77 
			171.09,145.67 		"/>
	</g>
	<g>
		<polygon class="st6" points="179.59,141.67 178.87,150.57 177.04,151.43 177.62,144.38 177.58,144.4 175.97,145.93 175.78,144.51 
			178.03,142.41 		"/>
	</g>
	<g>
		<polygon class="st6" points="186.53,138.41 185.81,147.31 183.98,148.17 184.56,141.12 184.53,141.13 182.91,142.66 
			182.72,141.25 184.97,139.15 		"/>
	</g>
	<g>
		<path class="st6" d="M192.2,135.6c2.18-1.02,2.85,0.7,2.66,3.14c-0.22,2.75-1.39,5.11-3.46,6.08c-2.1,0.99-2.86-0.64-2.66-3.16
			C188.94,139.1,190.1,136.59,192.2,135.6z M191.57,143.23c0.73-0.34,1.22-1.54,1.39-3.58c0.16-1.96-0.14-2.83-0.91-2.47
			c-0.69,0.32-1.25,1.53-1.4,3.59C190.46,142.83,190.83,143.58,191.57,143.23L191.57,143.23z"/>
	</g>
	<g>
		<path class="st6" d="M199.15,132.34c2.18-1.02,2.85,0.7,2.66,3.14c-0.23,2.76-1.39,5.11-3.47,6.09c-2.1,0.99-2.86-0.64-2.66-3.16
			C195.88,135.84,197.04,133.33,199.15,132.34z M198.51,139.97c0.73-0.35,1.22-1.54,1.38-3.58c0.16-1.96-0.14-2.83-0.9-2.47
			c-0.71,0.33-1.27,1.53-1.41,3.59C197.4,139.57,197.77,140.32,198.51,139.97L198.51,139.97z"/>
	</g>
	<g>
		<polygon class="st6" points="175.14,35.61 174.41,44.52 172.58,45.38 173.15,38.32 173.13,38.34 171.52,39.87 171.32,38.45 
			173.57,36.35 		"/>
	</g>
	<g>
		<polygon class="st6" points="182.07,32.35 181.35,41.26 179.52,42.11 180.09,35.06 180.07,35.08 178.45,36.6 178.26,35.19 
			180.51,33.09 		"/>
	</g>
	<g>
		<path class="st6" d="M187.75,29.54c2.17-1.02,2.85,0.7,2.66,3.14c-0.23,2.75-1.39,5.11-3.47,6.09c-2.09,0.99-2.85-0.65-2.66-3.16
			C184.48,33.05,185.65,30.53,187.75,29.54z M187.11,37.17c0.74-0.35,1.22-1.54,1.39-3.57c0.16-1.96-0.14-2.83-0.9-2.48
			c-0.7,0.33-1.26,1.53-1.41,3.59C186,36.77,186.37,37.52,187.11,37.17L187.11,37.17z"/>
	</g>
	<g>
		<path class="st6" d="M194.69,26.28c2.17-1.02,2.85,0.7,2.65,3.14c-0.22,2.76-1.39,5.11-3.46,6.09c-2.11,0.99-2.87-0.64-2.67-3.16
			C191.42,29.78,192.58,27.27,194.69,26.28z M194.05,33.91c0.73-0.34,1.22-1.54,1.39-3.57c0.16-1.96-0.14-2.83-0.9-2.48
			c-0.7,0.33-1.26,1.53-1.41,3.59C192.94,33.51,193.31,34.26,194.05,33.91L194.05,33.91z"/>
	</g>
	<g>
		<path class="st6" d="M201.63,23.02c2.17-1.02,2.86,0.69,2.66,3.14c-0.23,2.75-1.39,5.11-3.47,6.08c-2.1,0.99-2.86-0.64-2.66-3.16
			C198.36,26.52,199.52,24.01,201.63,23.02z M200.99,30.65c0.73-0.35,1.22-1.54,1.39-3.57c0.16-1.97-0.14-2.84-0.91-2.47
			c-0.7,0.33-1.26,1.53-1.41,3.59C199.88,30.25,200.25,31,200.99,30.65L200.99,30.65z"/>
	</g>
	<g>
		<path class="st6" d="M208.56,19.76c2.18-1.02,2.86,0.69,2.66,3.14c-0.22,2.76-1.39,5.11-3.46,6.09c-2.11,0.99-2.86-0.64-2.67-3.16
			C205.3,23.26,206.46,20.74,208.56,19.76z M207.93,27.39c0.73-0.34,1.22-1.54,1.39-3.58c0.16-1.96-0.14-2.83-0.9-2.47
			c-0.7,0.33-1.26,1.53-1.41,3.59C206.82,26.98,207.19,27.74,207.93,27.39L207.93,27.39z"/>
	</g>
	<g>
		<polygon class="st6" points="194.62,42.28 193.89,51.18 192.06,52.04 192.63,44.99 192.61,45 190.99,46.53 190.8,45.12 
			193.04,43.01 		"/>
	</g>
	<g>
		<path class="st6" d="M200.28,39.47c2.17-1.02,2.85,0.7,2.66,3.14c-0.23,2.75-1.39,5.12-3.47,6.09c-2.1,0.99-2.86-0.65-2.66-3.16
			C197.02,42.96,198.18,40.45,200.28,39.47z M199.65,47.1c0.73-0.34,1.22-1.54,1.38-3.58c0.17-1.96-0.14-2.83-0.91-2.47
			c-0.69,0.32-1.25,1.53-1.4,3.59C198.54,46.69,198.91,47.44,199.65,47.1L199.65,47.1z"/>
	</g>
	<g>
		<path class="st6" d="M207.22,36.2c2.18-1.02,2.86,0.7,2.66,3.14c-0.23,2.75-1.39,5.12-3.47,6.09c-2.1,0.99-2.86-0.65-2.66-3.16
			C203.96,39.7,205.12,37.19,207.22,36.2z M206.59,43.84c0.73-0.34,1.22-1.54,1.39-3.58c0.15-1.96-0.14-2.83-0.9-2.47
			c-0.71,0.33-1.27,1.54-1.42,3.59C205.48,43.43,205.85,44.19,206.59,43.84L206.59,43.84z"/>
	</g>
	<g>
		<polygon class="st6" points="165.5,71.77 164.78,80.67 162.95,81.53 163.53,74.48 163.5,74.49 161.89,76.02 161.7,74.61 
			163.95,72.5 		"/>
	</g>
	<g>
		<path class="st6" d="M171.18,68.95c2.18-1.02,2.85,0.7,2.66,3.14c-0.23,2.75-1.39,5.11-3.47,6.08c-2.1,0.99-2.86-0.64-2.66-3.15
			C167.92,72.46,169.07,69.94,171.18,68.95z M170.55,76.59c0.73-0.35,1.21-1.54,1.38-3.58c0.16-1.96-0.14-2.83-0.89-2.47
			c-0.71,0.33-1.26,1.53-1.41,3.59C169.43,76.18,169.81,76.94,170.55,76.59L170.55,76.59z"/>
	</g>
	<g>
		<polygon class="st6" points="186.33,61.98 185.6,70.88 183.78,71.75 184.35,64.69 184.32,64.71 182.71,66.24 182.52,64.82 
			184.76,62.72 		"/>
	</g>
	<g>
		<polygon class="st6" points="193.27,58.72 192.54,67.62 190.72,68.48 191.29,61.43 191.27,61.44 189.65,62.97 189.46,61.56 
			191.71,59.46 		"/>
	</g>
	<g>
		<path class="st6" d="M198.94,55.91c2.18-1.02,2.85,0.7,2.66,3.14c-0.23,2.75-1.39,5.11-3.46,6.08c-2.1,0.99-2.86-0.65-2.66-3.16
			C195.68,59.41,196.84,56.9,198.94,55.91z M198.31,63.54c0.73-0.34,1.21-1.54,1.39-3.58c0.15-1.97-0.14-2.83-0.91-2.47
			c-0.69,0.32-1.25,1.53-1.4,3.59C197.19,63.14,197.57,63.89,198.31,63.54L198.31,63.54z"/>
	</g>
	<g>
		<path class="st6" d="M205.88,52.65c2.18-1.02,2.85,0.7,2.66,3.13c-0.23,2.76-1.39,5.11-3.46,6.09c-2.1,0.99-2.86-0.64-2.67-3.16
			C202.62,56.15,203.78,53.64,205.88,52.65z M205.25,60.28c0.73-0.35,1.22-1.54,1.38-3.58c0.16-1.96-0.14-2.83-0.89-2.47
			c-0.71,0.33-1.27,1.53-1.41,3.59C204.13,59.87,204.5,60.63,205.25,60.28L205.25,60.28z"/>
	</g>
</g>
<g>
	<g>
		<g class="st18">
			<path class="st19" d="M200.87,10.15c39.34,13.66,39.17,35.57,0.43,49.1c-38.75,13.53-101.67,13.66-141,0
				c-39.01-13.53-39.23-35.56-0.47-49.1C98.57-3.38,161.86-3.38,200.87,10.15z"/>
		</g>
		<g class="st20">
			<path class="st21" d="M196.76,35.42c36.78,12.77,36.63,33.26,0.4,45.92c-36.23,12.65-95.08,12.78-131.85,0
				c-36.48-12.65-36.68-33.26-0.44-45.92C101.1,22.76,160.28,22.76,196.76,35.42z"/>
		</g>
		<g class="st22">
			<path class="st23" d="M192.64,60.68c34.23,11.89,34.09,30.96,0.37,42.73c-33.72,11.77-88.48,11.89-122.7,0
				C36.36,91.64,36.17,72.46,69.9,60.68C103.62,48.91,158.69,48.91,192.64,60.68z"/>
		</g>
		<g class="st24">
			<path class="st25" d="M188.52,85.95c31.68,11,31.55,28.65,0.34,39.54c-31.2,10.9-81.88,11-113.56,0
				c-31.41-10.9-31.59-28.64-0.38-39.54C106.14,75.06,157.11,75.06,188.52,85.95z"/>
		</g>
		<g class="st26">
			<path class="st27" d="M184.41,111.22c29.13,10.11,29,26.34,0.32,36.36c-28.68,10.02-75.29,10.12-104.41,0
				c-28.88-10.02-29.04-26.33-0.35-36.36C108.66,101.2,155.53,101.2,184.41,111.22z"/>
		</g>
		<g class="st28">
			<path class="st29" d="M180.29,136.49c26.57,9.23,26.46,24.03,0.29,33.17c-26.17,9.14-68.69,9.23-95.26,0
				c-26.35-9.14-26.5-24.03-0.31-33.17C111.19,127.35,153.94,127.35,180.29,136.49z"/>
		</g>
		<g class="st30">
			<path class="st31" d="M176.18,161.75c24.02,8.34,23.92,21.72,0.26,29.99c-23.65,8.26-62.09,8.34-86.11,0
				c-23.82-8.27-23.95-21.72-0.28-29.99C113.71,153.49,152.36,153.49,176.18,161.75z"/>
		</g>
		<g>
			<path class="st32" d="M172.06,187.02c21.47,7.45,21.38,19.41,0.23,26.8c-21.14,7.38-55.5,7.46-76.96,0
				c-21.28-7.39-21.4-19.41-0.25-26.8C116.23,179.64,150.78,179.64,172.06,187.02z"/>
		</g>
	</g>
	<linearGradient id="proc4_SVGID_1_" gradientUnits="userSpaceOnUse" x1="79.3887" y1="200.435" x2="188.2485" y2="200.435">
		<stop  offset="0" style="stop-color:#FFF3CA"/>
		<stop  offset="1" style="stop-color:#F8B5BA"/>
	</linearGradient>
	<path class="st33" d="M172.16,187.02c21.46,7.45,21.37,19.41,0.23,26.8c-21.15,7.38-55.49,7.46-76.96,0
		c-21.29-7.39-21.4-19.41-0.26-26.8C116.32,179.64,150.86,179.64,172.16,187.02z"/>
</g>
<g>
	<g class="st12">
		<g>
			<polygon class="st34" points="132.73,168.78 126.77,163.25 101.9,263.08 107.82,268.59 			"/>
		</g>
		<g>
			<polygon class="st34" points="288.67,97.13 282.71,91.62 126.77,163.25 132.73,168.78 			"/>
		</g>
		<g>
			<polygon class="st15" points="132.73,168.78 107.82,268.59 263.77,196.91 288.67,97.13 			"/>
		</g>
		<g>
			<polygon class="st35" points="132.73,168.78 132.73,168.78 263.77,196.91 288.67,97.13 			"/>
		</g>
	</g>
</g>
<g class="st36">
	<linearGradient id="proc4_SVGID_2_" gradientUnits="userSpaceOnUse" x1="260.943" y1="197.9797" x2="17.2939" y2="25.6069">
		<stop  offset="0" style="stop-color:#FFF3CA"/>
		<stop  offset="1" style="stop-color:#F8B5BA"/>
	</linearGradient>
	<path class="st37" d="M122.84,101.5l-2.65,9.43l-1.68,0.97l3.2-11.29l-2.99-7.14l1.84-1.06l2.45,5.91l2.47-8.75l1.65-0.96
		l-2.97,10.58l3.18,7.62l-1.86,1.07L122.84,101.5z"/>
	<linearGradient id="proc4_SVGID_3_" gradientUnits="userSpaceOnUse" x1="267.5369" y1="188.5785" x2="23.9547" y2="16.253">
		<stop  offset="0" style="stop-color:#FFF3CA"/>
		<stop  offset="1" style="stop-color:#F8B5BA"/>
	</linearGradient>
	<path class="st38" d="M134.61,102.59l-1.7,0.98l-2.63-13.06v14.6l-1.54,0.89V87.69l2.47-1.43l2.61,13.12l2.52-16.08l2.47-1.43
		v18.32l-1.68,0.97V86.43L134.61,102.59z"/>
	<linearGradient id="proc4_SVGID_4_" gradientUnits="userSpaceOnUse" x1="272.2138" y1="181.9517" x2="28.6478" y2="9.6377">
		<stop  offset="0" style="stop-color:#FFF3CA"/>
		<stop  offset="1" style="stop-color:#F8B5BA"/>
	</linearGradient>
	<path class="st39" d="M140.62,99.14V80.83l1.76-1.02v16.46l4.53-2.62v1.86L140.62,99.14z"/>
</g>
<g class="st36">
	<linearGradient id="proc4_SVGID_5_" gradientUnits="userSpaceOnUse" x1="283.5363" y1="143.2524" x2="80.8051" y2="-0.1725">
		<stop  offset="0" style="stop-color:#FFF3CA"/>
		<stop  offset="1" style="stop-color:#F8B5BA"/>
	</linearGradient>
	<path class="st40" d="M133.67,40.07v6.86l-1.47,0.85V32.54l1.47-0.85v6.86l3.24-1.87v-6.86l1.47-0.85v15.24l-1.47,0.85l0-6.86
		L133.67,40.07z"/>
	<linearGradient id="proc4_SVGID_6_" gradientUnits="userSpaceOnUse" x1="288.6916" y1="136.0049" x2="85.9357" y2="-7.4374">
		<stop  offset="0" style="stop-color:#FFF3CA"/>
		<stop  offset="1" style="stop-color:#F8B5BA"/>
	</linearGradient>
	<path class="st41" d="M141.82,42.22v-13.7l-2.44,1.41v-1.54l6.33-3.66v1.54l-2.43,1.41v13.7L141.82,42.22z"/>
	<linearGradient id="proc4_SVGID_7_" gradientUnits="userSpaceOnUse" x1="293.0533" y1="129.9134" x2="90.2451" y2="-13.5659">
		<stop  offset="0" style="stop-color:#FFF3CA"/>
		<stop  offset="1" style="stop-color:#F8B5BA"/>
	</linearGradient>
	<path class="st42" d="M151.61,36.55l-1.41,0.82L148,26.5v12.15l-1.28,0.74V24.15l2.06-1.19l2.17,10.92l2.09-13.38l2.06-1.19v15.24
		l-1.4,0.81V23.1L151.61,36.55z"/>
	<linearGradient id="proc4_SVGID_8_" gradientUnits="userSpaceOnUse" x1="296.8712" y1="124.348" x2="94.1782" y2="-19.0498">
		<stop  offset="0" style="stop-color:#FFF3CA"/>
		<stop  offset="1" style="stop-color:#F8B5BA"/>
	</linearGradient>
	<path class="st43" d="M156.61,33.68V18.44l1.47-0.85v13.7l3.77-2.18v1.54L156.61,33.68z"/>
</g>
</svg>
