<svg id="stats2a_Layer_1" data-name="Layer 1" xmlns="http://www.w3.org/2000/svg" xmlns:xlink="http://www.w3.org/1999/xlink" viewBox="0 0 168.91 125.88"><defs><linearGradient id="stats2a_linear-gradient" x1="-1034.6" y1="-1055.18" x2="-1016.99" y2="-1055.18" gradientTransform="translate(-926.04 -1036.21) rotate(180)" gradientUnits="userSpaceOnUse"><stop offset="0" stop-color="#5eacdf"/><stop offset="1" stop-color="#577ebf"/></linearGradient><linearGradient id="stats2a_linear-gradient-2" x1="-1034.6" y1="-1058.58" x2="-1016.99" y2="-1058.58" xlink:href="#stats2a_linear-gradient"/><linearGradient id="stats2a_linear-gradient-3" x1="1950.49" y1="-1056.07" x2="1949.93" y2="-1054.03" gradientTransform="matrix(1, 0, 0, -1, -1918.98, -1036.21)" gradientUnits="userSpaceOnUse"><stop offset="0" stop-color="#fff"/><stop offset="1" stop-color="#cbcce7"/></linearGradient><linearGradient id="stats2a_linear-gradient-4" x1="68.68" y1="-1128.25" x2="171.73" y2="-1128.25" gradientTransform="matrix(1, 0, 0, -1, -4.2, -1036.21)" xlink:href="#stats2a_linear-gradient"/><clipPath id="stats2a_clip-path" transform="translate(0 0)"><path d="M64.7,100.58l63.4-35.3a8.94,8.94,0,0,1,8.1-.3l31.1,16.8h0a.56.56,0,0,1,.12.78.68.68,0,0,1-.12.12l-63,36.2a8.51,8.51,0,0,1-7.6.3l-32-17.8a.47.47,0,0,1-.15-.65.54.54,0,0,1,.15-.15Z" fill="none"/></clipPath><linearGradient id="stats2a_linear-gradient-5" x1="96.89" y1="-1149.35" x2="101.83" y2="-1149.35" gradientTransform="matrix(1, 0, 0, -1, -4.2, -1036.22)" gradientUnits="userSpaceOnUse"><stop offset="0" stop-color="#f15e5f"/><stop offset="1" stop-color="#c72f2e"/></linearGradient><linearGradient id="stats2a_linear-gradient-6" x1="108.26" y1="-1131.9" x2="118.14" y2="-1131.9" gradientTransform="matrix(1, 0, 0, -1, -4.2, -1036.22)" xlink:href="#stats2a_linear-gradient"/><linearGradient id="stats2a_linear-gradient-7" x1="108.26" y1="-1143.5" x2="113.21" y2="-1143.5" gradientTransform="matrix(1, 0, 0, -1, -4.2, -1036.22)" gradientUnits="userSpaceOnUse"><stop offset="0" stop-color="#58a7dd"/><stop offset="1" stop-color="#547abd"/></linearGradient><linearGradient id="stats2a_linear-gradient-8" x1="-1286.87" y1="-1128.25" x2="-1183.82" y2="-1128.25" gradientTransform="translate(-1119.34 -1036.21) rotate(180)" xlink:href="#stats2a_linear-gradient"/><linearGradient id="stats2a_linear-gradient-9" x1="96.89" y1="-1130.55" x2="101.83" y2="-1130.55" xlink:href="#stats2a_linear-gradient-5"/><linearGradient id="stats2a_linear-gradient-10" x1="108.26" y1="-1111.65" x2="118.14" y2="-1111.65" gradientTransform="matrix(1, 0, 0, -1, -4.2, -1036.22)" xlink:href="#stats2a_linear-gradient"/><linearGradient id="stats2a_linear-gradient-11" x1="108.26" y1="-1123.25" x2="113.21" y2="-1123.25" xlink:href="#stats2a_linear-gradient-7"/><linearGradient id="stats2a_linear-gradient-12" x1="105.7" y1="-1091.3" x2="127" y2="-1091.3" xlink:href="#stats2a_linear-gradient-5"/><linearGradient id="stats2a_linear-gradient-13" x1="87.54" y1="-1107.1" x2="113.74" y2="-1107.1" xlink:href="#stats2a_linear-gradient-5"/><linearGradient id="stats2a_linear-gradient-14" x1="119.04" y1="-1072.55" x2="149.47" y2="-1072.55" xlink:href="#stats2a_linear-gradient-5"/><linearGradient id="stats2a_linear-gradient-15" x1="-1539.33" y1="-1111.73" x2="-1519.23" y2="-1111.73" gradientTransform="translate(-1519.09 -1036.21) rotate(180)" xlink:href="#stats2a_linear-gradient"/><linearGradient id="stats2a_linear-gradient-16" x1="-1539.33" y1="-1115.18" x2="-1519.23" y2="-1115.18" gradientTransform="translate(-1519.09 -1036.21) rotate(180)" xlink:href="#stats2a_linear-gradient"/></defs><path d="M126.5,68.78V103s0,.1-.1,0L95.7,86.08a.91.91,0,0,0-1,0l-3.1,1.7-1.3.8a.85.85,0,0,1-.7,0l-17.4-9a1.34,1.34,0,0,1-.6-1,1.1,1.1,0,0,1,.6-1l10.3-6h.1l.6-.3a.35.35,0,0,1,.2-.1,1.84,1.84,0,0,0,.5-.7h0v-.4a1.56,1.56,0,0,0-.8-1.3L49.2,50.28a1.62,1.62,0,0,1,0-2.8l1-.6a1.93,1.93,0,0,0,1-1.7h-.4a1.59,1.59,0,0,1-.8,1.4l-1,.5a1.79,1.79,0,0,0-1,1.6,1.81,1.81,0,0,0,1,1.8l33.8,18.6a1.34,1.34,0,0,1,.6,1,.91.91,0,0,1-.4.8h0l-1,.5h0l-10.2,5.9a1.72,1.72,0,0,0-.6.6,1.51,1.51,0,0,0-.1.7,1.31,1.31,0,0,0,.8,1.2l.9.5,16.5,8.5h0a1.39,1.39,0,0,0,.9,0h.1l1.6-.9,2.9-1.6a.85.85,0,0,1,.7,0l30.8,17c.5.2.6-.2.7-.4V68.78Z" transform="translate(0 0)" fill="#4e5262"/><polygon points="127 98.08 127 98.47 126.5 98.78 126.5 98.38 127 98.08" fill="#4e5262"/><path d="M9.3,44.58l31.9-17.7a2.35,2.35,0,0,1,2.3,0l38,20.4a2.39,2.39,0,0,1,1.2,2.2,2.75,2.75,0,0,1-1.2,2.2L49.6,69.28a2.35,2.35,0,0,1-1.1.3,2.63,2.63,0,0,1-1.2-.3l-38-20.4a2.39,2.39,0,0,1-1.2-2.2A2.45,2.45,0,0,1,9.3,44.58Z" transform="translate(0 0)" fill="#fff"/><path d="M41.2,26.88a1.42,1.42,0,0,1,.7-.2h.5a2.4,2.4,0,0,1,1.2.3l37.9,20.4a2.36,2.36,0,0,1,1,1.2,2.74,2.74,0,0,1,.1.9,2.53,2.53,0,0,1-1.3,2.1L49.7,69.08a2.35,2.35,0,0,1-1.1.3h-.5a1.94,1.94,0,0,1-.7-.2L9.5,48.88a2.67,2.67,0,0,1-1.3-2.1,2.32,2.32,0,0,1,.4-1.4,3,3,0,0,1,.8-.8Z" transform="translate(0 0)" fill="#fafafa"/><path d="M41.3,27a1.42,1.42,0,0,1,.7-.2h.5a2.4,2.4,0,0,1,1.2.3l37.8,20.4a2.78,2.78,0,0,1,1,1.2,2.74,2.74,0,0,1,.1.9,2.67,2.67,0,0,1-1.3,2.1L49.7,69a2.35,2.35,0,0,1-1.1.3h-.4a1.94,1.94,0,0,1-.7-.2L9.6,48.88a2.67,2.67,0,0,1-1.3-2.1,2.32,2.32,0,0,1,.4-1.4,3,3,0,0,1,.8-.8Z" transform="translate(0 0)" fill="#f7f6f7"/><path d="M41.3,27.08a1.42,1.42,0,0,1,.7-.2h.5a2.45,2.45,0,0,1,1.2.4l37.8,20.3a2,2,0,0,1,.9,1.2c.1.2,0,.6,0,.9a2.6,2.6,0,0,1-1.3,2L49.7,68.88a2.35,2.35,0,0,1-1.1.3h-.4a1.94,1.94,0,0,1-.7-.2L9.7,48.88a2.66,2.66,0,0,1-1.3-2,2.32,2.32,0,0,1,.4-1.4,1.81,1.81,0,0,1,.8-.7Z" transform="translate(0 0)" fill="#f4f3f4"/><path d="M41.3,27.08a1.42,1.42,0,0,1,.7-.2h.5a2.16,2.16,0,0,1,1.1.4l37.7,20.3a2,2,0,0,1,.9,1.2c.1.2,0,.6,0,.9a2.9,2.9,0,0,1-1.4,2L49.7,68.78a4.17,4.17,0,0,1-1.1.3h-.4a1.94,1.94,0,0,1-.7-.2L9.9,48.78a2.9,2.9,0,0,1-1.4-2,1.49,1.49,0,0,1,.4-1.4,3.08,3.08,0,0,1,.9-.7Z" transform="translate(0 0)" fill="#f1f0f1"/><path d="M41.4,27.18a1.42,1.42,0,0,1,.7-.2h.5a2.16,2.16,0,0,1,1.1.4l37.6,20.3a1.53,1.53,0,0,1,.8,1.2c.1.2,0,.6,0,.9a3.13,3.13,0,0,1-1.4,2l-31,17.1a4.17,4.17,0,0,1-1.1.3h-.4a1.94,1.94,0,0,1-.7-.2L9.9,48.88a2.7,2.7,0,0,1-1.4-2,1.71,1.71,0,0,1,.3-1.4,2.14,2.14,0,0,1,.9-.7Z" transform="translate(0 0)" fill="#eee"/><path d="M41.4,27.28a1.42,1.42,0,0,1,.7-.2h.5a2.16,2.16,0,0,1,1.1.4l37.6,20.2a1.53,1.53,0,0,1,.8,1.2c.1.2,0,.6,0,.8,0,.7-.9,1.6-1.4,1.9l-30.8,17a4.17,4.17,0,0,1-1.1.3h-.4a1.94,1.94,0,0,1-.7-.2l-37.4-20c-.6-.3-1.5-1.2-1.5-1.9a1.79,1.79,0,0,1,.3-1.4,2.14,2.14,0,0,1,.9-.7Z" transform="translate(0 0)" fill="#ecebec"/><path d="M41.5,27.28a1.42,1.42,0,0,1,.7-.2h.5a2.16,2.16,0,0,1,1.1.4l37.5,20.2a1.42,1.42,0,0,1,.7,1.2c.1.2-.1.6-.1.8,0,.6-1,1.5-1.5,1.9l-30.6,17a3.54,3.54,0,0,1-1.1.4h-.4a1,1,0,0,1-.7-.2L10.3,48.88c-.5-.4-1.5-1.3-1.5-1.9a1.52,1.52,0,0,1,.3-1.3A2.14,2.14,0,0,1,10,45Z" transform="translate(0 0)" fill="#e9e8ea"/><path d="M41.5,27.38a.83.83,0,0,1,.7-.1h.5a3.54,3.54,0,0,1,1.1.4l37.4,20.2a1.42,1.42,0,0,1,.7,1.2c.1.2-.1.6-.1.8,0,.6-1,1.5-1.5,1.8L49.7,68.58a4,4,0,0,1-1,.4h-.4a1,1,0,0,1-.7-.2L10.4,48.88c-.5-.3-1.6-1.2-1.6-1.8a1.52,1.52,0,0,1,.3-1.3,2.14,2.14,0,0,1,.9-.7Z" transform="translate(0 0)" fill="#e7e6e7"/><path d="M41.5,27.38a.83.83,0,0,1,.7-.1h.5a4.83,4.83,0,0,1,1.1.4l37.4,20.2a1.14,1.14,0,0,1,.6,1.2c0,.2-.2.5-.2.8,0,.6-1.1,1.5-1.6,1.8L49.7,68.38a4,4,0,0,1-1,.4h-.4a1.66,1.66,0,0,1-.7-.1L10.5,48.78c-.5-.3-1.6-1.2-1.6-1.8a1.23,1.23,0,0,1,.2-1.3A3.08,3.08,0,0,1,10,45Z" transform="translate(0 0)" fill="#e4e3e5"/><path d="M41.6,27.48a1.51,1.51,0,0,1,.7-.1h.5a4.83,4.83,0,0,1,1.1.4l37.4,20.1a1.14,1.14,0,0,1,.6,1.2,5.6,5.6,0,0,0-.2.7c0,.5-1.1,1.5-1.6,1.7L49.8,68.28a4,4,0,0,1-1,.4c-.1,0-.3.1-.4,0a1.66,1.66,0,0,1-.7-.1l-37-19.8c-.4-.2-1.7-1.2-1.6-1.8a1.23,1.23,0,0,1,.2-1.3,3.08,3.08,0,0,1,.9-.7Z" transform="translate(0 0)" fill="#e1e1e3"/><path d="M41.6,27.58a1.51,1.51,0,0,1,.7-.1c.1,0,.4.1.5.1a3.54,3.54,0,0,1,1.1.4l37.3,20.1a.94.94,0,0,1,.5,1.2,5.6,5.6,0,0,0-.2.7c0,.5-1.2,1.4-1.6,1.7L49.8,68.18a4,4,0,0,1-1,.4c-.1,0-.3.1-.4,0a1.66,1.66,0,0,1-.7-.1L10.8,48.68c-.4-.2-1.7-1.2-1.7-1.7a1.23,1.23,0,0,1,.2-1.3,7,7,0,0,1,.9-.6Z" transform="translate(0 0)" fill="#dfdfe1"/><path d="M41.6,27.68a1.51,1.51,0,0,1,.7-.1c.1,0,.4.1.5.1a3.54,3.54,0,0,1,1.1.4l37.2,20a1.1,1.1,0,0,1,.5,1.2c0,.1-.3.5-.3.7,0,.4-1.3,1.4-1.6,1.6L49.9,68.08a3.09,3.09,0,0,1-1,.4c-.1,0-.3.1-.4.1a1.66,1.66,0,0,1-.7-.1L11,48.78c-.4-.2-1.7-1.2-1.7-1.7a1.23,1.23,0,0,1,.2-1.3,7,7,0,0,1,.9-.6Z" transform="translate(0 0)" fill="#dcdcde"/><path d="M41.6,27.68a1.51,1.51,0,0,1,.7-.1c.1,0,.4.1.5.1a3.77,3.77,0,0,1,1.1.5l37.2,20a.92.92,0,0,1,.4,1.2c0,.1-.3.5-.3.6,0,.4-1.3,1.4-1.7,1.6L49.9,68a4,4,0,0,1-1,.4,1.8,1.8,0,0,1-.4.1,1.66,1.66,0,0,1-.7-.1L11.1,48.68c-.3-.2-1.8-1.2-1.8-1.6a1.06,1.06,0,0,1,.2-1.3,7,7,0,0,1,.9-.6Z" transform="translate(0 0)" fill="#dadadc"/><path d="M41.7,27.78a1.51,1.51,0,0,1,.7-.1l.4.1a5.18,5.18,0,0,1,1.1.5L81,48.18a.92.92,0,0,1,.4,1.2c0,.1-.4.5-.4.6,0,.3-1.4,1.3-1.7,1.5L49.8,67.88a4,4,0,0,1-1,.4,1.8,1.8,0,0,1-.4.1,1.66,1.66,0,0,1-.7-.1L11.1,48.68c-.3-.2-1.8-1.2-1.8-1.6a1,1,0,0,1,.2-1.3c.1-.1.8-.5.9-.6Z" transform="translate(0 0)" fill="#d7d7da"/><path d="M41.7,27.88a1.51,1.51,0,0,1,.7-.1l.4.1a5.18,5.18,0,0,1,1.1.5l37,19.9a.92.92,0,0,1,.4,1.2c0,.1-.4.5-.4.6,0,.3-1.5,1.3-1.7,1.5L49.9,67.78c-.1,0-.9.4-1,.4a1.8,1.8,0,0,1-.4.1,1.66,1.66,0,0,1-.7-.1L11.3,48.68c-.3-.1-1.9-1.2-1.9-1.5a1.05,1.05,0,0,1,.1-1.3c.1-.1.8-.5.9-.6Z" transform="translate(0 0)" fill="#d5d5d8"/><path d="M41.7,28a1.51,1.51,0,0,1,.7-.1l.4.1a5.18,5.18,0,0,1,1.1.5l37,19.9a.8.8,0,0,1,.38,1.07l-.08.13c0,.1-.4.5-.5.6,0,.3-1.5,1.3-1.8,1.4l-29.1,16c-.1,0-.9.4-1,.4a1.8,1.8,0,0,1-.4.1,1.66,1.66,0,0,1-.7-.1L11.4,48.58c-.2-.1-1.9-1.2-1.9-1.5a.94.94,0,0,1,.1-1.3c0-.1.8-.5.9-.6Z" transform="translate(0 0)" fill="#d2d3d5"/><path d="M41.8,28a.85.85,0,0,1,.7,0l.4.1a5.18,5.18,0,0,1,1.1.5l36.9,19.8a.8.8,0,0,1,.38,1.07l-.08.13c0,.1-.5.5-.5.6a8.71,8.71,0,0,1-1.8,1.4L50,67.58c-.1,0-.9.4-1,.4a1.8,1.8,0,0,1-.4.1h-.7L11.6,48.58a9,9,0,0,1-1.9-1.4.94.94,0,0,1,.1-1.3c0-.1.8-.5.9-.6Z" transform="translate(0 0)" fill="#d0d0d3"/><path d="M41.8,28.08a.85.85,0,0,1,.7,0l.4.1c.1,0,1,.5,1.1.5l36.8,19.8a.77.77,0,0,1,.31,1,.91.91,0,0,1-.11.16s-.5.4-.5.5a9.14,9.14,0,0,1-1.9,1.3L50,67.48c-.1,0-.9.5-1,.5a1.8,1.8,0,0,1-.4.1c-.2.1-.4,0-.7,0L11.7,48.58a14.63,14.63,0,0,1-2-1.4.76.76,0,0,1-.07-1.06L9.8,46s.9-.5.9-.6Z" transform="translate(0 0)" fill="#cdced1"/><path d="M41.9,28.18a.85.85,0,0,1,.7,0l.4.2c.1,0,1,.5,1.1.5l36.8,19.8a.77.77,0,0,1,.31,1,.91.91,0,0,1-.11.16s-.6.4-.6.5a16.35,16.35,0,0,1-1.9,1.3L50.1,67.38a9.33,9.33,0,0,1-1,.5,1.8,1.8,0,0,1-.4.1c-.2.1-.4,0-.7,0L11.9,48.58c-.1-.1-2-1.2-2-1.3a.76.76,0,0,1-.07-1.06l.17-.14s.9-.5.9-.6Z" transform="translate(0 0)" fill="#cbcccf"/><path d="M41.9,28.18a.85.85,0,0,1,.7,0l.4.2,1,.5,36.8,19.7a.71.71,0,0,1,.31,1,.69.69,0,0,1-.21.24s-.6.4-.6.5a12.15,12.15,0,0,1-1.9,1.2L50,67.18a9.33,9.33,0,0,1-1,.5l-.4.2a.85.85,0,0,1-.7,0l-36-19.4a13.69,13.69,0,0,1-2-1.3.75.75,0,0,1-.15-1A.54.54,0,0,1,9.9,46s.9-.5.9-.6Z" transform="translate(0 0)" fill="#c9c9cd"/><path d="M41.9,28.28a.85.85,0,0,1,.7,0l.4.2,1,.5,36.6,19.7a.71.71,0,0,1,.31,1,.69.69,0,0,1-.21.24l-.7.4c0,.1-1.9,1.1-2,1.2L50,67.08l-.9.5-.4.2a.85.85,0,0,1-.7,0L12.1,48.48,10,47.28a.75.75,0,0,1-.15-1.05.54.54,0,0,1,.15-.15l.9-.5Z" transform="translate(0 0)" fill="#c6c7cb"/><path d="M42,28.28a.85.85,0,0,1,.7,0l.4.2a5.1,5.1,0,0,1,1,.6l36.6,19.8a.67.67,0,0,1,0,1.2l-.7.4-2,1.1L50,67.08l-.9.5-.4.2a.64.64,0,0,1-.6,0L12.2,48.48a21.85,21.85,0,0,1-2.1-1.2A.75.75,0,0,1,10,46.23a.54.54,0,0,1,.15-.15,9.33,9.33,0,0,1,1-.5Z" transform="translate(0 0)" fill="#c4c5c9"/><path d="M42,28.38a.85.85,0,0,1,.7,0l38,20.5a.75.75,0,0,1,.15,1,.54.54,0,0,1-.15.15L48.8,67.68a.64.64,0,0,1-.6,0l-38-20.4a.67.67,0,0,1,0-1.2Z" transform="translate(0 0)" fill="#c2c3c7"/><path d="M80.6,48.78l-37.4-20a2.55,2.55,0,0,0-2.4,0L10,45.68A.94.94,0,0,0,9.69,47a1,1,0,0,0,.31.31l37,20.1a2.55,2.55,0,0,0,2.4,0l31.2-17a.94.94,0,0,0,.31-1.29A1,1,0,0,0,80.6,48.78Z" transform="translate(0 0)" fill="#c4c5d0"/><polygon points="9.5 44.77 81.1 47.88 81.1 49.58 9.5 46.48 9.5 44.77" fill="#c4c5d0"/><path d="M80.6,47,43.2,26.88a2.55,2.55,0,0,0-2.4,0L10,43.88a.94.94,0,0,0-.31,1.29,1,1,0,0,0,.31.31l37,20.1a2.55,2.55,0,0,0,2.4,0l31.2-17a.94.94,0,0,0,.31-1.29A1,1,0,0,0,80.6,47Z" transform="translate(0 0)" fill="#fff"/><path d="M10,45.28l4.4,2.4L47,65.28a2.55,2.55,0,0,0,2.4,0l26.8-14.6,3.4-1.9.9-.5A.94.94,0,0,0,80.81,47a1,1,0,0,0-.31-.31l-37.3-20a2.55,2.55,0,0,0-2.4,0L14.1,41.28,10,43.58a.89.89,0,0,0-1,.85A.81.81,0,0,0,10,45.28Z" transform="translate(0 0)" fill="#f0eff3"/><path d="M90.6,20.68l6.7-4a2.1,2.1,0,0,1,1.8,0l9.7,5.6a1.93,1.93,0,0,1,1,1.7,2.05,2.05,0,0,1-1,1.7l-6.7,3.8a2.1,2.1,0,0,1-1.8,0L90.5,24a1.93,1.93,0,0,1-1-1.7A2.9,2.9,0,0,1,90.6,20.68Z" transform="translate(0 0)" fill="#fff"/><path d="M97.3,16.78a1.42,1.42,0,0,1,.6-.2h.3a3.09,3.09,0,0,1,.9.2l9.6,5.5a1.92,1.92,0,0,1,1,1.6,1.6,1.6,0,0,1-.4,1.2,2.15,2.15,0,0,1-.5.4l-6.6,3.8a2.51,2.51,0,0,1-.9.2H101a1.42,1.42,0,0,1-.6-.2L90.8,24a1.92,1.92,0,0,1-1-1.6,2,2,0,0,1,.3-1.1,1,1,0,0,1,.6-.5Z" transform="translate(0 0)" fill="#fafafa"/><path d="M97.3,16.88a1.42,1.42,0,0,1,.6-.2h.3a3.09,3.09,0,0,1,.9.2l9.6,5.4a2.16,2.16,0,0,1,1,1.6,1.75,1.75,0,0,1-.4,1.2,2.15,2.15,0,0,1-.5.4l-6.6,3.8a2.51,2.51,0,0,1-.9.2H101a1.42,1.42,0,0,1-.6-.2l-9.6-5.4a2.16,2.16,0,0,1-1-1.6,2,2,0,0,1,.3-1.1,1.46,1.46,0,0,1,.6-.5Z" transform="translate(0 0)" fill="#f7f6f7"/><path d="M97.4,16.88a1.42,1.42,0,0,1,.6-.2h.3a3.09,3.09,0,0,1,.9.2l9.5,5.4a2.15,2.15,0,0,1,1,1.5,1.75,1.75,0,0,1-.4,1.2,2.15,2.15,0,0,1-.5.4l-6.5,3.8a2.51,2.51,0,0,1-.9.2h-.3a1.42,1.42,0,0,1-.6-.2L91,23.88a2.15,2.15,0,0,1-1-1.5,1.41,1.41,0,0,1,.3-1.1,1.46,1.46,0,0,1,.6-.5Z" transform="translate(0 0)" fill="#f4f3f4"/><path d="M97.4,17a1.42,1.42,0,0,1,.6-.2h.3a3.91,3.91,0,0,1,.9.2l9.4,5.4a2.15,2.15,0,0,1,1,1.5,1.75,1.75,0,0,1-.4,1.2,2.15,2.15,0,0,1-.5.4l-6.5,3.7a2.51,2.51,0,0,1-.9.2H101a1.42,1.42,0,0,1-.6-.2L91,23.88a2.15,2.15,0,0,1-1-1.5,1.41,1.41,0,0,1,.3-1.1,1.46,1.46,0,0,1,.6-.5Z" transform="translate(0 0)" fill="#f1f0f1"/><path d="M97.4,17c.2-.1.4-.1.6-.2h.2a2.41,2.41,0,0,1,.8.2l9.3,5.3a2,2,0,0,1,1,1.5,1.15,1.15,0,0,1-.4,1.2,2.15,2.15,0,0,1-.5.4l-6.4,3.7a2.4,2.4,0,0,1-.9.3h-.3a1.23,1.23,0,0,1-.6-.1l-9.1-5.4a2.24,2.24,0,0,1-1-1.5,1.13,1.13,0,0,1,.3-1.1,3.19,3.19,0,0,1,.6-.5Z" transform="translate(0 0)" fill="#eee"/><path d="M97.5,17.08a1.23,1.23,0,0,1,.6-.1h.2a1.32,1.32,0,0,1,.8.3l9.2,5.2a2.06,2.06,0,0,1,1,1.4,1.31,1.31,0,0,1-.3,1.2,2.15,2.15,0,0,1-.5.4l-6.4,3.7a2.86,2.86,0,0,1-.8.3H101a1.23,1.23,0,0,1-.6-.1l-9.3-5.3c-.4-.2-1.1-.9-1.1-1.4a1.13,1.13,0,0,1,.3-1.1,3.19,3.19,0,0,1,.6-.5Z" transform="translate(0 0)" fill="#ecebec"/><path d="M97.5,17.08a1.23,1.23,0,0,1,.6-.1h.2a1.32,1.32,0,0,1,.8.3l9.1,5.2a2.06,2.06,0,0,1,1,1.4,1.08,1.08,0,0,1-.3,1.1.84.84,0,0,1-.5.3l-6.3,3.6a2.86,2.86,0,0,1-.8.3h-.2a1.23,1.23,0,0,1-.6-.1l-9.3-5.2c-.4-.2-1.1-.9-1.1-1.4a1.47,1.47,0,0,1,.2-1.1,3.19,3.19,0,0,1,.6-.5Z" transform="translate(0 0)" fill="#e9e8ea"/><path d="M97.5,17.18a1.23,1.23,0,0,1,.6-.1h.2a2.86,2.86,0,0,1,.8.3l9,5.1c.4.2,1.1.9,1.1,1.3a1.08,1.08,0,0,1-.3,1.1.84.84,0,0,1-.5.3l-6.2,3.6a2.86,2.86,0,0,1-.8.3h-.2a1.23,1.23,0,0,1-.6-.1l-9.2-5.2c-.4-.2-1.1-.9-1.1-1.3a1.15,1.15,0,0,1,.2-1,3.19,3.19,0,0,1,.6-.5Z" transform="translate(0 0)" fill="#e7e6e7"/><path d="M97.6,17.28a1.23,1.23,0,0,1,.6-.1h.2a2.86,2.86,0,0,1,.8.3l8.9,5.1c.3.2,1.1.9,1.1,1.3a1.08,1.08,0,0,1-.3,1.1.84.84,0,0,1-.5.3l-6.2,3.6a2.86,2.86,0,0,1-.8.3h-.2a.74.74,0,0,1-.5-.1L91.5,24c-.3-.2-1.1-.9-1.1-1.3a1.15,1.15,0,0,1,.2-1,3.19,3.19,0,0,1,.6-.5Z" transform="translate(0 0)" fill="#e4e3e5"/><path d="M97.6,17.28a1.23,1.23,0,0,1,.6-.1h.2a2.86,2.86,0,0,1,.8.3l8.8,5c.3.2,1.1.9,1.1,1.3a1.47,1.47,0,0,1-.2,1.1.84.84,0,0,1-.5.3l-6.1,3.5a1.9,1.9,0,0,1-.8.3h-.2a.74.74,0,0,1-.5-.1l-9.2-5c-.3-.2-1.2-.9-1.2-1.3a.93.93,0,0,1,.2-1c.1-.1.4-.4.6-.4Z" transform="translate(0 0)" fill="#e1e1e3"/><path d="M97.6,17.38a1.23,1.23,0,0,1,.6-.1h.2a3.86,3.86,0,0,1,.8.3l8.7,5c.3.2,1.1.9,1.1,1.2a.94.94,0,0,1-.2,1.1c0,.1-.4.3-.5.3l-6.1,3.5a1.9,1.9,0,0,1-.8.3h-.2a.74.74,0,0,1-.5-.1l-9-5.1c-.3-.2-1.2-.9-1.2-1.2a.78.78,0,0,1,.2-1,2.17,2.17,0,0,1,.6-.4Z" transform="translate(0 0)" fill="#dfdfe1"/><path d="M97.6,17.38a1.23,1.23,0,0,1,.6-.1h.2a3.86,3.86,0,0,1,.8.3l8.6,4.9c.3.1,1.1.9,1.1,1.2a.94.94,0,0,1-.2,1.1c0,.1-.4.3-.4.3l-6,3.5a1.9,1.9,0,0,1-.8.3h-.2a.74.74,0,0,1-.5-.1l-9-5c-.3-.1-1.2-.9-1.2-1.2a.78.78,0,0,1,.2-1c0-.1.5-.4.6-.4Z" transform="translate(0 0)" fill="#dcdcde"/><path d="M97.7,17.38a1.09,1.09,0,0,1,.5-.1h.2a2.18,2.18,0,0,1,.7.3l8.5,4.9c.2.1,1.1.9,1.1,1.1a.78.78,0,0,1-.2,1l-.4.3-5.9,3.4a6,6,0,0,1-.8.3h-.2a.74.74,0,0,1-.5-.1l-8.9-5c-.2-.1-1.2-.9-1.2-1.2a.91.91,0,0,1,.1-1c0-.1.5-.4.6-.4Z" transform="translate(0 0)" fill="#dadadc"/><path d="M97.7,17.48a1.09,1.09,0,0,1,.5-.1h.2a2.18,2.18,0,0,1,.7.3l8.4,4.8c.2.1,1.2.9,1.2,1.1a.78.78,0,0,1-.2,1l-.4.3-5.9,3.4a6,6,0,0,1-.8.3h-.2a.74.74,0,0,1-.5-.1l-8.8-4.9c-.2-.1-1.2-.9-1.2-1.1a.76.76,0,0,1,.1-1c0-.1.5-.4.6-.4Z" transform="translate(0 0)" fill="#d7d7da"/><path d="M97.7,17.48a1.09,1.09,0,0,1,.5-.1h.2a2.18,2.18,0,0,1,.7.3l8.3,4.8c.2.1,1.2.9,1.2,1.1a.76.76,0,0,1-.1,1s-.4.2-.4.3l-5.9,3.4c-.1,0-.6.3-.7.3s-.2.1-.2,0a.74.74,0,0,1-.5-.1L92,23.58c-.2-.1-1.3-.9-1.3-1.1a.76.76,0,0,1,.1-1c0-.1.5-.4.6-.4Z" transform="translate(0 0)" fill="#d5d5d8"/><path d="M97.8,17.58a1.09,1.09,0,0,1,.5-.1h.2c.1,0,.6.3.7.3l8.2,4.7c.2.1,1.2.8,1.2,1a.76.76,0,0,1-.1,1s-.4.2-.4.3l-5.8,3.3c-.1,0-.6.3-.7.3l-.2.1h-.5l-8.7-4.9c-.3,0-1.4-.7-1.4-1a.76.76,0,0,1,.1-1,3,3,0,0,1,.6-.4Z" transform="translate(0 0)" fill="#d2d3d5"/><path d="M97.8,17.58a.45.45,0,0,1,.5,0h.2c.1,0,.6.3.7.3l8.1,4.7c.1.1,1.2.8,1.2,1a.76.76,0,0,1-.1,1s-.4.2-.4.3l-5.8,3.3a4.76,4.76,0,0,1-.7.3l-.2.1h-.5l-8.7-4.9a14,14,0,0,1-1.3-1,.79.79,0,0,1,.1-1,3,3,0,0,1,.6-.4Z" transform="translate(0 0)" fill="#d0d0d3"/><path d="M97.8,17.68a.45.45,0,0,1,.5,0l.2.1a4.76,4.76,0,0,0,.7.3l8,4.6c.1.1,1.2.8,1.2,1,.3.2.2.8-.1,1,0,0-.4.2-.4.3l-5.7,3.3a4.76,4.76,0,0,1-.7.3l-.2.1h-.5l-8.6-4.9a14,14,0,0,1-1.3-1c-.3-.2-.2-.7,0-1a3,3,0,0,1,.6-.4Z" transform="translate(0 0)" fill="#cdced1"/><path d="M97.9,17.68a.45.45,0,0,1,.5,0l.2.1a4.76,4.76,0,0,0,.7.3l8,4.6a5.81,5.81,0,0,1,1.3.9c.3.2.2.8-.1,1,0,0-.4.2-.4.3l-5.7,3.2a4.76,4.76,0,0,1-.7.3l-.2.1H101l-8.5-4.8a7,7,0,0,1-1.4-1,.67.67,0,0,1,0-.95l0-.05.6-.4Z" transform="translate(0 0)" fill="#cbcccf"/><path d="M97.9,17.78a.45.45,0,0,1,.5,0l.2.1a4.76,4.76,0,0,0,.7.3l7.9,4.5a5.81,5.81,0,0,1,1.3.9.67.67,0,0,1,0,1s0,0,0,0-.4.2-.4.3l-5.6,3.2a4.76,4.76,0,0,1-.7.3l-.2.1c-.1.1-.3,0-.5,0l-8.5-4.8a7,7,0,0,1-1.4-1,.67.67,0,0,1,0-.95s0,0,0-.05l.6-.4Z" transform="translate(0 0)" fill="#c9c9cd"/><path d="M97.9,17.88a.45.45,0,0,1,.5,0l.2.1.6.3,7.8,4.5a10.73,10.73,0,0,1,1.3.9.67.67,0,0,1,0,.95l0,.05-.4.2-5.5,3.2a4.38,4.38,0,0,1-.7.4l-.2.1a.45.45,0,0,1-.5,0l-8.4-4.8-1.4-.9a.67.67,0,0,1,0-.95s0,0,0-.05.6-.3.6-.4Z" transform="translate(0 0)" fill="#c6c7cb"/><path d="M97.9,17.88a.45.45,0,0,1,.5,0l.2.1.6.3,7.7,4.4,1.3.8a.67.67,0,0,1,0,.95l0,.05-.4.2-5.5,3.1a4.38,4.38,0,0,1-.7.4l-.2.1a.45.45,0,0,1-.5,0l-8.3-4.7-1.4-.9a.56.56,0,0,1-.12-.78.68.68,0,0,1,.12-.12s.6-.3.6-.4Z" transform="translate(0 0)" fill="#c4c5c9"/><path d="M97.9,18a.45.45,0,0,1,.5,0l9.7,5.6a.56.56,0,0,1,.12.78.68.68,0,0,1-.12.12l-6.7,3.9a.45.45,0,0,1-.5,0l-9.7-5.5a.56.56,0,0,1-.12-.78A.68.68,0,0,1,91.2,22Z" transform="translate(0 0)" fill="#c2c3c7"/><path d="M91.3,13.48,101,19a.45.45,0,0,0,.5,0l6.7-3.9a.53.53,0,0,0,.15-.73.18.18,0,0,0,0-.07.72.72,0,0,1,.2.5v9a.76.76,0,0,1-.4.7l-6.7,3.8a.85.85,0,0,1-.7,0l-9.5-5.4a.86.86,0,0,1-.4-.7v-9.1a.52.52,0,0,1,.2-.4A.9.9,0,0,0,91.3,13.48Z" transform="translate(0 0)" fill="#c4c5d0"/><path d="M101.8,21.18l6.8-3.9v1.3l-6.8,3.9a.64.64,0,0,1-.6,0l-10.3-5.8v-1.3l10.3,5.8A.64.64,0,0,0,101.8,21.18Z" transform="translate(0 0)" fill="url(#stats2a_linear-gradient"/><path d="M101.8,24.58l6.8-3.9V22l-6.8,3.9a.64.64,0,0,1-.6,0l-10.3-5.8v-1.3l10.3,5.8A.64.64,0,0,0,101.8,24.58Z" transform="translate(0 0)" fill="url(#stats2a_linear-gradient-2"/><path d="M98,8.58a.45.45,0,0,1,.5,0l9.8,5.6a.56.56,0,0,1,.12.78.68.68,0,0,1-.12.12L101.6,19a.45.45,0,0,1-.5,0l-9.8-5.5a.56.56,0,0,1-.12-.78.68.68,0,0,1,.12-.12Z" transform="translate(0 0)" fill="#f0eff3"/><g id="stats2a_box-light"><polygon points="104.1 14.38 100.9 16.27 95.4 13.18 98.6 11.28 104.1 14.38" fill="#ffd55d"/><polygon points="98.6 11.28 98.6 14.97 95.4 13.18 98.6 11.28" fill="#f9a81f"/></g><path d="M38.9,23.78s-.3-.9-.2-.9a3.36,3.36,0,0,0,.6-.3,2.17,2.17,0,0,1,.6-.4c.4,0,.6-.4.7-.1s-.2.3-.3.4-.2.1-.1.1a7.52,7.52,0,0,1,1.5,0c.1.1,0,.1-.1.2-.3.2-.2.6-.6.7a5.36,5.36,0,0,1-1.2.1C39.6,23.48,38.9,23.78,38.9,23.78Z" transform="translate(0 0)" fill="#fac2c2"/><path d="M32.9,16.68c-.6-.2-1.3.4-.9,1.8.1.3.8,2.1,1.5,4s1.5,1.4,1.8,1,.1-1-.4-3.2C34.3,17.88,33.7,17,32.9,16.68Z" transform="translate(0 0)" fill="#5e5e77"/><path d="M35.1,22.78a20.37,20.37,0,0,0,3.9-.2,1,1,0,0,1,.43,1.35l0,.05a13.73,13.73,0,0,1-4.4.7C33.2,24.38,34,22.78,35.1,22.78Z" transform="translate(0 0)" fill="#5e5e77"/><path d="M34.9,39.38c-.2-.1-.2-.6-.2-.6l-1.5-.2v1.5c0,.2.1.6.7.5a6.55,6.55,0,0,1,1.4,0,4.05,4.05,0,0,0,1.1,0c.5-.1.8-.3.4-.7C36.5,39.68,35.4,39.58,34.9,39.38Z" transform="translate(0 0)" fill="#434359"/><path d="M32,32.08a68.56,68.56,0,0,0,1,7c.1.9,2,.1,2-.2,0-.8-.4-5.9-.7-7.4C34.2,30.48,32,30.88,32,32.08Z" transform="translate(0 0)" fill="#5e5e77"/><path d="M29.6,41.08v-.2l-1.3-.2a1.24,1.24,0,0,0-.1.5c0,.3-.1.9-.1,1a1.68,1.68,0,0,0,.3,1c.4.4.5.5,1,.4s.5-.8.4-1.1C29.7,42,29.6,41.18,29.6,41.08Z" transform="translate(0 0)" fill="#434359"/><path d="M28.2,33.38c-.1.4-.3,4-.3,7.1,0,.9,2,.6,2,.2.1-.7.6-5.9.6-7.4C30.6,32.28,28.4,32.28,28.2,33.38Z" transform="translate(0 0)" fill="#5e5e77"/><path d="M30.8,26.48a19.14,19.14,0,0,0,.4,2.5c.1.7.6,3.1.8,3.9s2.3.6,2.4-.6a57.6,57.6,0,0,0-.4-8.2C33.8,23.18,30.8,26.08,30.8,26.48Z" transform="translate(0 0)" fill="#5e5e77"/><path d="M27.9,27.28c-.3,1,.1,6.2.2,6.9.1,1,2.2,1.1,2.4-.1a55,55,0,0,0,.9-8.1C31.4,25.08,28,26.88,27.9,27.28Z" transform="translate(0 0)" fill="#5e5e77"/><path d="M31.6,16.48l-1.8-.4s-.3,0-.4.1a1.22,1.22,0,0,0-.3.5,2.17,2.17,0,0,1-.4.6s-1.3,1-1.6,1.3c-1.1,1.3.5,7.9.5,10.9a22.2,22.2,0,0,0,4.3-.4l.3-1.1.5.8a5.67,5.67,0,0,0,1.8-1.1s-.5-10-1.6-10.9C32.7,16.48,31.6,16.48,31.6,16.48Z" transform="translate(0 0)" fill="#55556c"/><path d="M32,17.18c0-.2-.2-.3-.3-.5a1,1,0,0,0-.6-.2.78.78,0,0,1,.4.9v1.2c0,.6.3,2.4.3,2.4l.8-2.3-.4-.4.4-.3Z" transform="translate(0 0)" fill="#434359"/><path d="M29.5,16.08c-.2.2-.4.5.1,1.1.2.2.5.7.9,1.2.2.3,1.1,1.9,1.3,2.3v-1a21.41,21.41,0,0,0-.1-2.4C31.4,16.38,30.2,15.48,29.5,16.08Z" transform="translate(0 0)" fill="#fff"/><path d="M31,17.78l-.6.7a3.13,3.13,0,0,1,.5,1l.6.9.2-.6v-1.9Z" transform="translate(0 0)" fill="url(#stats2a_linear-gradient-3"/><path d="M29.7,15.48a2.41,2.41,0,0,1-.2.8v.2c.2.2.7.9,1.3.9a1,1,0,0,0,.4-.7C31.2,16.38,29.7,15.48,29.7,15.48Z" transform="translate(0 0)" fill="#cc9370"/><path d="M30.6,12.68c-1.7,0-1.2,2-1.2,2s-.1,0-.1.3a.79.79,0,0,1,.1.4.32.32,0,0,0,.3.3,2.06,2.06,0,0,0,1.4,1c.2,0,.5,0,.5-.2s.4-.8.4-1.2-.1-.3,0-.5S32.3,12.68,30.6,12.68Z" transform="translate(0 0)" fill="#fac2c2"/><path d="M30.7,12.58A1.51,1.51,0,0,0,29.08,14a1.46,1.46,0,0,0,.22.91c.2-.3.4,0,.5.2,0,0,.1.4.2.4s.1-.3.1-.3c0-.8-.3-1,.1-1.2s1,.5,1.7.5S32.3,12.58,30.7,12.58Z" transform="translate(0 0)" fill="#313546"/><path d="M31.5,17.88l-.4-.1-.3.4a1.68,1.68,0,0,0,.3.4,2.27,2.27,0,0,0,0,.9c.1.3.8,1.7.8,1.7v-1.9a1,1,0,0,0-.3-.8Z" transform="translate(0 0)" fill="#f04e4e"/><path d="M34.9,26.88c.1,0,.4.1.5,0s-.3-.2-.6-.4a1.42,1.42,0,0,0-.7-.2,5.6,5.6,0,0,1-.7-.2l-.5.7a8.24,8.24,0,0,1,.8.5,7.57,7.57,0,0,0,.9.8c.4.2.6-.1,1,0,0,0,.2.1.2,0s-1-.8-.9-1.2C34.7,26.78,34.8,26.88,34.9,26.88Z" transform="translate(0 0)" fill="#fac2c2"/><path d="M31,23c-1-1.7-2-3.4-2.1-3.7-.8-1.2-1.8-1.1-2-.5-.3,1,.1,1.9,1.5,3.8s1.7,2.3,2.2,2.4S31.9,24.58,31,23Z" transform="translate(0 0)" fill="#5e5e77"/><path d="M31.2,23.28c-.7-.9-2.4-.3-1.4,1.1a15,15,0,0,0,3.4,2.9A1,1,0,0,0,34,26.12v0A20.58,20.58,0,0,1,31.2,23.28Z" transform="translate(0 0)" fill="#5e5e77"/><path d="M29.7,17.18c-.5-.7-.1-1.1-.1-1.1a1.21,1.21,0,0,0-.5.5.85.85,0,0,0,0,.7l.3,1.4h.3l-.1.4,2.2,2.1c-.39-.92-.82-1.82-1.3-2.7A5.12,5.12,0,0,1,29.7,17.18Z" transform="translate(0 0)" fill="#434359"/><path d="M29.7,14.88a.19.19,0,0,0-.27,0l0,0h0c-.1.1,0,.3,0,.4a1.65,1.65,0,0,0,.9.5h.1v-.1A1.35,1.35,0,0,1,29.7,14.88Z" transform="translate(0 0)" fill="#55556c"/><path d="M29.3,14.68a.3.3,0,0,0,0,.4h0v-.4h.3c.3.2.2.7.2.7h0a.79.79,0,0,0-.2-.7.19.19,0,0,0-.27,0Z" transform="translate(0 0)" fill="#5e5e77"/><path d="M65.8,48h-1v.2L58.9,45a1.94,1.94,0,0,0-1.8.1l-12.9,7.2v-.1h-1v.7h0V53l7,3.9a2.48,2.48,0,0,0,1.7,0l13.9-8v-.1h0Z" transform="translate(0 0)" fill="#c4c5d0"/><path d="M65.7,47.88v.2L52,55.88a1.72,1.72,0,0,1-1.7,0l-7-3.9a.13.13,0,0,1,0-.2h0l13.9-7.7A2.26,2.26,0,0,1,59,44Z" transform="translate(0 0)" fill="#fff"/><path d="M31.5,20.88,68.3.18a1.66,1.66,0,0,1,2.23.74,1.7,1.7,0,0,1,.17.66l-.5,31.6a1.18,1.18,0,0,1-.7,1.1L33.1,56.08c-1.9.3-2.3-1.2-2.3-2.2V22A1.23,1.23,0,0,1,31.5,20.88Z" transform="translate(0 0)" fill="#c4c5d0"/><path d="M32.1,21.38,68.9.38A1.25,1.25,0,0,1,70.62.8a1.24,1.24,0,0,1,.18.68v32.4a1.09,1.09,0,0,1-.7,1.1L33.3,56a1.25,1.25,0,0,1-1.72-.42,1.24,1.24,0,0,1-.18-.68V22.48A1.88,1.88,0,0,1,32.1,21.38Z" transform="translate(0 0)" fill="#f0eff3"/><path d="M70.2.48c-.7,6.5-6.5,11.3-15.5,16.3-8.4,4.6-17,6.8-23.3,6.1v-.3a1.16,1.16,0,0,1,.6-1.1L68.9.48A1.22,1.22,0,0,1,70.2.48Z" transform="translate(0 0)" fill="#fff"/><path d="M51,33.28h0A4.66,4.66,0,0,1,57.4,35a4.59,4.59,0,0,1,.6,1.72l-6.5,17.2-.7-.4-2.1-15.4A4.89,4.89,0,0,1,51,33.28Z" transform="translate(0 0)" fill="#c4c5d0"/><path d="M51.7,33.68h0A4.58,4.58,0,0,1,58,35.26a4.74,4.74,0,0,1,.62,1.82l1.7,11.8-8.8,5-2.1-15.5A4.58,4.58,0,0,1,51.7,33.68Z" transform="translate(0 0)" fill="#f0eff3"/><path d="M63.6,102l61.1-35.4A13.19,13.19,0,0,1,131,65a9.94,9.94,0,0,1,5.3,1.3l29.4,15.9a4.87,4.87,0,0,1,2.4,3.9,4.58,4.58,0,0,1-2.3,4l-59.6,34.2a12.3,12.3,0,0,1-6.1,1.6,10.18,10.18,0,0,1-5.1-1.2l-30.2-16.8a4.51,4.51,0,0,1-2.3-3.6h0A2.08,2.08,0,0,1,63.6,102Z" transform="translate(0 0)" fill="#fff"/><path d="M124.8,66.58a13.19,13.19,0,0,1,6.3-1.6,12.34,12.34,0,0,1,2.1.2,9.49,9.49,0,0,1,3.1,1.1l29.3,15.8h0a3.47,3.47,0,0,1,1,.7,4.5,4.5,0,0,1,1.2,3.1,4.76,4.76,0,0,1-2.3,3.9l-59.3,34a12.49,12.49,0,0,1-6,1.6,11.65,11.65,0,0,1-5.1-1.1,11.45,11.45,0,0,1-1.5-.9l-28.8-16a4.22,4.22,0,0,1-2.2-3.5h0a2.34,2.34,0,0,1,1.1-2.1h0Z" transform="translate(0 0)" fill="#fafafa"/><path d="M124.9,66.68a13.19,13.19,0,0,1,6.3-1.6,12.34,12.34,0,0,1,2.1.2,13.8,13.8,0,0,1,3.1,1.1l29.2,15.8h0a3.41,3.41,0,0,1,.9.7,4.21,4.21,0,0,1,1,3,5,5,0,0,1-2.4,3.9l-58.8,33.8a13.46,13.46,0,0,1-5.9,1.7,11,11,0,0,1-5.2-1l-1.5-.8-28.9-16a4.3,4.3,0,0,1-2.1-3.3h0a2.33,2.33,0,0,1,1.1-2h0Z" transform="translate(0 0)" fill="#f7f6f7"/><path d="M125.1,66.78a11.94,11.94,0,0,1,6.3-1.5,12.34,12.34,0,0,1,2.1.2,13.8,13.8,0,0,1,3.1,1.1l29.1,15.8h0a6.78,6.78,0,0,1,.9.7,3.86,3.86,0,0,1,.9,3,5.3,5.3,0,0,1-2.4,3.8l-58.5,33.6a13,13,0,0,1-5.9,1.7,10,10,0,0,1-5.2-1c-.1,0-1.5-.8-1.6-.8l-29-16.1a3.79,3.79,0,0,1-2-3.2h0a2.61,2.61,0,0,1,1-2h0Z" transform="translate(0 0)" fill="#f4f3f4"/><path d="M125.3,66.78a11.94,11.94,0,0,1,6.3-1.5,7.46,7.46,0,0,1,2.1.3,14.22,14.22,0,0,1,3.1,1.2l29.1,15.8h0a5.35,5.35,0,0,1,.8.7,4.09,4.09,0,0,1,.7,2.9,5.06,5.06,0,0,1-2.5,3.7l-58.1,33.3a14.09,14.09,0,0,1-5.9,1.8,9.82,9.82,0,0,1-5.2-.9c-.1,0-1.5-.8-1.6-.8L64.9,107a4,4,0,0,1-2-3.1h0a2.29,2.29,0,0,1,1-1.9h0Z" transform="translate(0 0)" fill="#f1f0f1"/><path d="M125.4,66.88a11.94,11.94,0,0,1,6.3-1.5,7.46,7.46,0,0,1,2.1.3,10.45,10.45,0,0,1,3.1,1.2l29,15.7h0a2.9,2.9,0,0,1,.8.8c.7.7.5,1.9.5,2.9,0,1.3-1.4,3-2.6,3.6l-57.7,33a14.66,14.66,0,0,1-5.8,1.8,8.81,8.81,0,0,1-5.2-.8,11.94,11.94,0,0,1-1.6-.8l-29.2-16.2a3.68,3.68,0,0,1-1.9-3h0a2,2,0,0,1,1-1.8h0Z" transform="translate(0 0)" fill="#eee"/><path d="M125.6,67a11.83,11.83,0,0,1,6.2-1.4,7.46,7.46,0,0,1,2.1.3,10.45,10.45,0,0,1,3.1,1.2l28.9,15.7h0a1.81,1.81,0,0,1,.7.8c.6.6.3,1.9.3,2.8,0,1.2-1.6,2.9-2.6,3.5L107,122.78c-1.3.7-4.1,1.9-5.7,1.9A10.22,10.22,0,0,1,96,124a8,8,0,0,1-1.6-.8L65,106.88a3.62,3.62,0,0,1-1.8-2.8h0a2,2,0,0,1,.9-1.7h0Z" transform="translate(0 0)" fill="#ecebec"/><path d="M125.7,67.08a11.83,11.83,0,0,1,6.2-1.4,7.46,7.46,0,0,1,2.1.3,13.63,13.63,0,0,1,3,1.2l28.8,15.6h0a1.81,1.81,0,0,1,.7.8c.6.6.1,1.9.1,2.7,0,1.1-1.7,2.9-2.7,3.4L107,122.38a15.37,15.37,0,0,1-5.7,1.9,9.34,9.34,0,0,1-5.3-.6,11.94,11.94,0,0,1-1.6-.8l-29.5-16.4a3.32,3.32,0,0,1-1.7-2.7h0a1.69,1.69,0,0,1,.9-1.6h0Z" transform="translate(0 0)" fill="#e9e8ea"/><path d="M125.8,67.08a11.83,11.83,0,0,1,6.2-1.4,7.46,7.46,0,0,1,2.1.3,13.63,13.63,0,0,1,3,1.2l28.7,15.6h0c.3.2.6.5.6.8.6.5,0,1.8,0,2.6,0,1.1-1.8,2.8-2.7,3.3L107.1,122a15.54,15.54,0,0,1-5.6,2,10.39,10.39,0,0,1-5.3-.5,11.94,11.94,0,0,1-1.6-.8L65,106.28a3,3,0,0,1-1.6-2.5h0a1.66,1.66,0,0,1,.9-1.5h0Z" transform="translate(0 0)" fill="#e7e6e7"/><path d="M126,67.18a11.83,11.83,0,0,1,6.2-1.4,6.53,6.53,0,0,1,2,.4,26.8,26.8,0,0,1,3,1.2l28.7,15.5h0a1.56,1.56,0,0,1,.6.8c.5.5-.2,1.8-.2,2.6,0,1-1.9,2.8-2.8,3.2l-56.2,32.3c-1,.6-4.2,2-5.5,2a9.4,9.4,0,0,1-5.3-.4,4.81,4.81,0,0,1-1.6-.8l-29.7-16.5a3,3,0,0,1-1.5-2.4h0a1.59,1.59,0,0,1,.8-1.4h0Z" transform="translate(0 0)" fill="#e4e3e5"/><path d="M126.1,67.28a10.88,10.88,0,0,1,6.2-1.3,6.53,6.53,0,0,1,2,.4,13.55,13.55,0,0,1,3,1.3l28.6,15.5h0a1,1,0,0,1,.5.8c.5.5-.4,1.8-.4,2.5,0,1-2,2.7-2.9,3.1l-55.8,32c-1,.6-4.2,2-5.5,2a9.83,9.83,0,0,1-5.4-.3,4.81,4.81,0,0,1-1.6-.8L65,105.88a2.55,2.55,0,0,1-1.4-2.3h0a1.59,1.59,0,0,1,.8-1.4h0Z" transform="translate(0 0)" fill="#e1e1e3"/><path d="M126.3,67.38a11.06,11.06,0,0,1,6.2-1.3,6.53,6.53,0,0,1,2,.4,16.29,16.29,0,0,1,3,1.3l28.6,15.5h0a1,1,0,0,1,.5.8c.4.4-.5,1.8-.5,2.4,0,.9-2.1,2.6-2.9,3l-55.4,31.7c-.9.5-4.3,2.1-5.4,2.1a9.82,9.82,0,0,1-5.4-.2,11.92,11.92,0,0,1-1.7-.7l-29.9-16.6a2.33,2.33,0,0,1-1.3-2.1h0a1.69,1.69,0,0,1,.7-1.3h0Z" transform="translate(0 0)" fill="#dfdfe1"/><path d="M126.4,67.48a11.06,11.06,0,0,1,6.2-1.3,6.53,6.53,0,0,1,2,.4,16.29,16.29,0,0,1,3,1.3l28.5,15.4h0a1.21,1.21,0,0,1,.5.8c.4.4-.7,1.7-.7,2.3,0,.8-2.3,2.6-3,3l-55,31.6c-.9.5-4.3,2.1-5.4,2.1a9.91,9.91,0,0,1-5.4-.1,11.92,11.92,0,0,1-1.7-.7l-30.1-16.7a2.09,2.09,0,0,1-1.2-2h0a1.21,1.21,0,0,1,.7-1.2h0Z" transform="translate(0 0)" fill="#dcdcde"/><path d="M126.6,67.58a10,10,0,0,1,6.1-1.2,4.49,4.49,0,0,1,2,.5,26.62,26.62,0,0,1,3,1.3l28.4,15.4h0c.3.2.5.6.4.8.4.4-.9,1.7-.9,2.2,0,.7-2.4,2.5-3,2.9L108,120.88c-.8.4-4.3,2.2-5.3,2.2a9.91,9.91,0,0,1-5.4,0,8.69,8.69,0,0,1-1.7-.7l-30.1-16.8a2.13,2.13,0,0,1-1.1-1.9h0a1.25,1.25,0,0,1,.6-1.1h0Z" transform="translate(0 0)" fill="#dadadc"/><path d="M126.7,67.58a10.76,10.76,0,0,1,6.1-1.2,6.6,6.6,0,0,1,2,.5,26.62,26.62,0,0,1,3,1.3l28.3,15.3h0c.3.2.5.6.4.8.3.3-1.1,1.7-1,2.2,0,.7-2.5,2.5-3,2.8l-54.3,31.2c-.7.4-4.4,2.2-5.2,2.2a8.63,8.63,0,0,1-5.5,0,5.27,5.27,0,0,1-1.7-.7l-30.3-16.8a1.93,1.93,0,0,1-1-1.7h0a1.1,1.1,0,0,1,.6-1h0Z" transform="translate(0 0)" fill="#d7d7da"/><path d="M126.9,67.68a10.76,10.76,0,0,1,6.1-1.2,6.6,6.6,0,0,1,2,.5,15.19,15.19,0,0,1,2.9,1.4l28.2,15.3h0a.71.71,0,0,1,.3.8c.3.3-1.2,1.7-1.2,2.1,0,.6-2.6,2.4-3.1,2.7l-53.9,30.9c-.6.3-4.4,2.3-5.2,2.3a9.46,9.46,0,0,1-5.5.2,8.69,8.69,0,0,1-1.7-.7l-30.4-16.8a1.79,1.79,0,0,1-1-1.6h0a1.23,1.23,0,0,1,.5-1h0Z" transform="translate(0 0)" fill="#d5d5d8"/><path d="M127,67.78a10.76,10.76,0,0,1,6.1-1.2,11.48,11.48,0,0,1,2,.5,15.19,15.19,0,0,1,2.9,1.4l28.2,15.3h0a.71.71,0,0,1,.3.8c.2.2-1.4,1.7-1.4,2,0,.5-2.8,2.4-3.2,2.7L108.4,120a32.89,32.89,0,0,1-5.1,2.3,8.72,8.72,0,0,1-7.2-.5l-30.5-16.9a1.86,1.86,0,0,1-.9-1.5h0a1.2,1.2,0,0,1,.5-.9h0Z" transform="translate(0 0)" fill="#d2d3d5"/><path d="M127.2,67.78a10,10,0,0,1,6.1-1.1,11.48,11.48,0,0,1,2,.5c.3,0,2.6,1.3,2.9,1.4l28.1,15.2h0a.56.56,0,0,1,.24.74l0,.06c.2.2-1.6,1.6-1.6,2s-2.9,2.3-3.2,2.6l-53.1,30.5a33.27,33.27,0,0,1-5,2.4,9.4,9.4,0,0,1-5.5.4,8.69,8.69,0,0,1-1.7-.7l-30.6-17a1.56,1.56,0,0,1-.8-1.3h0a1.23,1.23,0,0,1,.4-.8h0Z" transform="translate(0 0)" fill="#d0d0d3"/><path d="M127.3,67.88a10,10,0,0,1,6.1-1.1,6.7,6.7,0,0,1,2,.6c.2,0,2.7,1.3,2.9,1.4l28,15.2h0a.56.56,0,0,1,.24.74l0,.06c.2.2-1.8,1.6-1.8,1.9s-3,2.3-3.3,2.5l-52.7,30.2a46.81,46.81,0,0,1-5,2.4,8.65,8.65,0,0,1-5.5.4,5.27,5.27,0,0,1-1.7-.7l-30.7-17a1.39,1.39,0,0,1-.7-1.2h0a.76.76,0,0,1,.4-.7h0Z" transform="translate(0 0)" fill="#cdced1"/><path d="M127.5,68a9.87,9.87,0,0,1,6.1-1.1,6.7,6.7,0,0,1,2,.6c.2,0,2.7,1.3,2.9,1.4L166.4,84h0a.56.56,0,0,1,.24.74l0,.06c.1.1-2,1.6-2,1.8s-3.1,2.2-3.3,2.4L109,119c-.3.2-4.6,2.5-4.9,2.5a8.32,8.32,0,0,1-5.6.5,5.27,5.27,0,0,1-1.7-.7l-31-17a1.1,1.1,0,0,1-.6-1h0a.71.71,0,0,1,.3-.6h0Z" transform="translate(0 0)" fill="#cbcccf"/><path d="M127.6,68.08a9.18,9.18,0,0,1,6.1-1,6.7,6.7,0,0,1,2,.6c.1,0,2.7,1.4,2.9,1.5l27.8,15.1h0c.3.2.4.6.1.8.1.1-2.1,1.6-2.1,1.7a27.78,27.78,0,0,1-3.4,2.3l-52,29.8c-.2.1-4.6,2.5-4.9,2.5a9.06,9.06,0,0,1-5.6.6,5.58,5.58,0,0,1-1.8-.7l-31-17.1a1.05,1.05,0,0,1-.5-.9h0a.56.56,0,0,1,.3-.5h0Z" transform="translate(0 0)" fill="#c9c9cd"/><path d="M127.7,68.18a9,9,0,0,1,6-1,6.7,6.7,0,0,1,2,.6,25.1,25.1,0,0,1,2.8,1.5l27.8,15h0a.62.62,0,0,1,.11.88v0c.1,0-2.3,1.6-2.3,1.7s-3.3,2.1-3.5,2.2L109,118.68c-.1.1-4.6,2.6-4.8,2.6a8.29,8.29,0,0,1-5.6.7,5.58,5.58,0,0,1-1.8-.7l-31-17.1c-.3-.1-.4-.5-.4-.8h0c0-.2.1-.3.3-.5h0Z" transform="translate(0 0)" fill="#c6c7cb"/><path d="M127.9,68.18a9.67,9.67,0,0,1,6-1,4.06,4.06,0,0,1,1.9.7l2.8,1.5,27.7,15h0a.56.56,0,0,1,.12.78.68.68,0,0,1-.12.12s-2.5,1.5-2.5,1.6a40.5,40.5,0,0,1-3.5,2.1l-51.2,29.4c-.1,0-4.7,2.7-4.8,2.7a8.43,8.43,0,0,1-5.6.8,5.46,5.46,0,0,1-1.8-.6l-31.1-17.5c-.2-.1-.4-.4-.3-.6h0a.76.76,0,0,1,.2-.4h0Z" transform="translate(0 0)" fill="#c4c5c9"/><path d="M65.9,102.88,128,68.28a8.52,8.52,0,0,1,7.9-.3l30.4,16.5h0a.56.56,0,0,1,.12.78.68.68,0,0,1-.12.12l-61.7,35.4a8.09,8.09,0,0,1-7.4.3l-31.3-17.4a.52.52,0,0,1-.07-.73A.46.46,0,0,1,65.9,102.88Z" transform="translate(0 0)" fill="#c2c3c7"/><path d="M64.5,100.68l63.7-35.4a8.94,8.94,0,0,1,8.1-.3l31.1,16.8a2,2,0,0,1,0,3.4l-63.1,36.3a8.94,8.94,0,0,1-8.1.3l-31.7-17.3a2.19,2.19,0,0,1-1.1-2A2.12,2.12,0,0,1,64.5,100.68Z" transform="translate(0 0)" fill="#f0eff3"/><path id="stats2a_SVGID" d="M64.7,100.58l63.4-35.3a8.94,8.94,0,0,1,8.1-.3l31.1,16.8h0a.56.56,0,0,1,.12.78.68.68,0,0,1-.12.12l-63,36.2a8.51,8.51,0,0,1-7.6.3l-32-17.8a.47.47,0,0,1-.15-.65.54.54,0,0,1,.15-.15Z" transform="translate(0 0)" fill="url(#stats2a_linear-gradient-4"/><g clip-path="url(#stats2a_clip-path"><g id="stats2a_reflect-yellow"><polygon points="125.4 88.88 120.4 91.88 115.5 88.97 120.4 86.08 125.4 88.88" fill="#ffd55d"/><polygon points="120.4 120.17 115.5 117.28 115.5 88.97 120.4 91.88 120.4 120.17" fill="#f7ca43"/><polygon points="125.4 117.28 120.4 120.17 120.4 91.88 125.4 88.88 125.4 117.28" fill="#f9a81f"/></g><g id="stats2a_reflect-green"><polygon points="137 82.88 132.1 85.78 127.1 82.88 132.1 79.97 137 82.88" fill="#66bd5b"/><polygon points="132.1 122.88 127.1 120.08 127.1 82.88 132.1 85.78 132.1 122.88" fill="#79c264"/><polygon points="137 119.97 132.1 122.88 132.1 85.78 137 82.88 137 119.97" fill="#5aba54"/></g><g id="stats2a_reflect-red"><polygon points="102.6 102.28 97.6 105.17 92.7 102.38 97.6 99.38 102.6 102.28" fill="#c72f2e"/><polygon points="97.6 105.17 97.6 123.88 92.7 121.08 92.7 102.38 97.6 105.17" fill="url(#stats2a_linear-gradient-5"/><polygon points="102.6 102.28 102.6 120.97 97.6 123.88 97.6 105.17 102.6 102.28" fill="#a42525"/></g><g id="stats2a_reflect-blue"><polygon points="113.9 95.67 109 98.58 104 95.67 109 92.78 113.9 95.67" fill="url(#stats2a_linear-gradient-6"/><polygon points="109 118.88 104 115.97 104 95.67 109 98.58 109 118.88" fill="url(#stats2a_linear-gradient-7"/><polygon points="113.9 115.97 109 118.88 109 98.58 113.9 95.67 113.9 115.97" fill="#4c60ac"/></g></g><path d="M64.7,100.58l63.4-35.3a8.94,8.94,0,0,1,8.1-.3l31.1,16.8h0a.56.56,0,0,1,.12.78.68.68,0,0,1-.12.12l-63,36.2a8.51,8.51,0,0,1-7.6.3l-32-17.8a.47.47,0,0,1-.15-.65.54.54,0,0,1,.15-.15Z" transform="translate(0 0)" opacity="0.71" fill="url(#stats2a_linear-gradient-8" style="isolation:isolate"/><path d="M79.2,110.38l3.6,2a1.49,1.49,0,0,1,.6,1.1c0,.4-.2.6-.6.5l-3.6-2a1.49,1.49,0,0,1-.6-1.1C78.6,110.38,78.9,110.18,79.2,110.38Z" transform="translate(0 0)" fill="#4e5262"/><path d="M168,87.18a1.77,1.77,0,0,1,.67,2.43,1.73,1.73,0,0,1-.67.67l-.7.4a4.78,4.78,0,0,1-4.9,0l-4.8-2.6,5.9-3.4Z" transform="translate(0 0)" fill="#6d6d8c"/><path d="M161.9,87.88c0,.7.9,1.3,2.1,1.3s2.1-.6,2.1-1.3-.9-1.3-2.1-1.3S161.9,87.08,161.9,87.88Zm.2,0c0-.6.9-1,1.8-1s1.8.5,1.8,1-.9,1-1.8,1S162.1,88.48,162.1,87.88Z" transform="translate(0 0)" fill="#fff"/><g id="stats2a_yellow"><polygon points="125.4 60.88 120.4 63.77 115.5 60.88 120.4 57.98 125.4 60.88" fill="#ffd55d"/><polygon points="120.4 92.08 115.5 89.28 115.5 60.88 120.4 63.77 120.4 92.08" fill="#f7ca43"/><polygon points="125.4 89.17 120.4 92.08 120.4 63.77 125.4 60.88 125.4 89.17" fill="#f9a81f"/></g><g id="stats2a_green"><polygon points="137 45.67 132.1 48.58 127.1 45.77 132.1 42.88 137 45.67" fill="#66bd5b"/><polygon points="132.1 85.78 127.1 82.88 127.1 45.77 132.1 48.58 132.1 85.78" fill="#79c264"/><polygon points="137 82.88 132.1 85.78 132.1 48.58 137 45.67 137 82.88" fill="#5aba54"/></g><g id="stats2a_red"><polygon points="102.6 83.47 97.6 86.38 92.7 83.58 97.6 80.58 102.6 83.47" fill="#c72f2e"/><polygon points="97.6 86.38 97.6 105.08 92.7 102.28 92.7 83.58 97.6 86.38" fill="url(#stats2a_linear-gradient-9"/><polygon points="102.6 83.47 102.6 102.17 97.6 105.08 97.6 86.38 102.6 83.47" fill="#a42525"/></g><g id="stats2a_blue"><polygon points="113.9 75.38 109 78.28 104 75.47 109 72.58 113.9 75.38" fill="url(#stats2a_linear-gradient-10"/><polygon points="109 98.58 104 95.67 104 75.47 109 78.28 109 98.58" fill="url(#stats2a_linear-gradient-11"/><polygon points="113.9 95.67 109 98.58 109 78.28 113.9 75.38 113.9 95.67" fill="#4c60ac"/></g><g id="stats2a_line"><polygon points="109.5 56.58 101.5 52.17 114.9 53.58 122.8 57.98 109.5 56.58" fill="url(#stats2a_linear-gradient-12"/><polygon points="109.5 56.58 109.6 60.27 122.9 61.67 122.8 57.98 109.5 56.58" fill="#a42525"/><polygon points="145.2 34.08 129.9 25.68 145.2 18.27 145.2 18.27 145.2 34.08" fill="#ae2627"/><polygon points="91.3 89.58 83.3 85.17 101.5 52.17 109.5 56.58 91.3 89.58" fill="url(#stats2a_linear-gradient-13"/><polygon points="129.9 22.18 129.9 25.68 132.9 27.27 133.6 24.18 129.9 22.18" fill="#a42525"/><polygon points="91.3 89.58 94.3 87.97 109.6 60.27 109.5 56.58 91.3 89.58" fill="#a42525"/><polygon points="122.8 57.98 122.9 61.67 141.4 31.77 141.3 28.18 122.8 57.98" fill="#a42525"/><polygon points="145.3 14.68 129.9 22.18 133.2 23.98 114.8 53.58 122.8 57.98 141.2 28.27 144.9 30.27 145.3 14.68" fill="url(#stats2a_linear-gradient-14"/><polygon points="145.2 34.08 145.7 16.48 145.3 14.68 144.9 30.27 145.2 34.08" fill="#ae2627"/></g><path d="M1.1,78.88l9.8-5.6a3.09,3.09,0,0,1,.9-.2,3.09,3.09,0,0,1,.9.2l6.7,4a1.67,1.67,0,0,1,.9,1.7,1.79,1.79,0,0,1-1,1.6l-9.8,5.5a3.09,3.09,0,0,1-.9.2,3.09,3.09,0,0,1-.9-.2L1,82.18a1.93,1.93,0,0,1-1-1.7A2.74,2.74,0,0,1,1.1,78.88Z" transform="translate(0 0)" fill="#fff"/><path d="M10.9,73.38a1.42,1.42,0,0,1,.6-.2h.3a3.09,3.09,0,0,1,.9.2l6.7,3.9a1.76,1.76,0,0,1,.5.4,1.37,1.37,0,0,1,.4,1.2,1.79,1.79,0,0,1-1,1.6l-9.7,5.4a2.51,2.51,0,0,1-.9.2H8.4a1.42,1.42,0,0,1-.6-.2L1.1,82a2.62,2.62,0,0,1-.6-.5,1.41,1.41,0,0,1-.3-1.1,1.79,1.79,0,0,1,1-1.6Z" transform="translate(0 0)" fill="#fafafa"/><path d="M11,73.38a1.42,1.42,0,0,1,.6-.2h.3a3.09,3.09,0,0,1,.9.2l6.6,3.9c.1.1.3.2.5.4a1.37,1.37,0,0,1,.4,1.2,2.34,2.34,0,0,1-1,1.6l-9.6,5.4a2.51,2.51,0,0,1-.9.2H8.5a1.42,1.42,0,0,1-.6-.2l-6.7-3.8a2.62,2.62,0,0,1-.6-.5,1.41,1.41,0,0,1-.3-1.1,2.16,2.16,0,0,1,1-1.6Z" transform="translate(0 0)" fill="#f7f6f7"/><path d="M11,73.48a1.42,1.42,0,0,1,.6-.2h.3a1.62,1.62,0,0,1,.9.3l6.5,3.9c.1.1.3.2.5.4a1.75,1.75,0,0,1,.4,1.2,2,2,0,0,1-1,1.5l-9.5,5.3a2.51,2.51,0,0,1-.9.2H8.6a1.42,1.42,0,0,1-.6-.2l-6.6-3.8a2.62,2.62,0,0,1-.6-.5,1.41,1.41,0,0,1-.3-1.1,2,2,0,0,1,1-1.5Z" transform="translate(0 0)" fill="#f4f3f4"/><path d="M11,73.58c.2-.1.4-.1.6-.2h.3a1.93,1.93,0,0,1,.9.3l6.5,3.8c.1.1.3.2.5.4a1.75,1.75,0,0,1,.4,1.2,2,2,0,0,1-1,1.5l-9.4,5.3a2.41,2.41,0,0,1-.8.2H8.8a1.42,1.42,0,0,1-.6-.2l-6.6-3.8a2.62,2.62,0,0,1-.6-.5,1.41,1.41,0,0,1-.3-1.1,2.24,2.24,0,0,1,1-1.5Z" transform="translate(0 0)" fill="#f1f0f1"/><path d="M11,73.58c.2-.1.4-.1.6-.2h.2a1.93,1.93,0,0,1,.9.3l6.4,3.8c.1.1.3.2.5.4a1.75,1.75,0,0,1,.4,1.2,2.06,2.06,0,0,1-1,1.4l-9.3,5.2a2.41,2.41,0,0,1-.8.2H8.7a.74.74,0,0,1-.6-.2l-6.6-3.8a1.46,1.46,0,0,1-.6-.5,1.13,1.13,0,0,1-.3-1.1,2.51,2.51,0,0,1,1-1.5Z" transform="translate(0 0)" fill="#eee"/><path d="M11,73.68a1.23,1.23,0,0,1,.6-.1h.2a1.93,1.93,0,0,1,.9.3l6.4,3.8c.1.1.4.2.5.3a1.31,1.31,0,0,1,.3,1.2c0,.5-.6,1.1-1,1.4l-9.2,5.1a2.86,2.86,0,0,1-.8.3H8.7a1.23,1.23,0,0,1-.6-.1l-6.5-3.8a1.46,1.46,0,0,1-.6-.5,1.13,1.13,0,0,1-.3-1.1c0-.5.7-1.2,1.1-1.4Z" transform="translate(0 0)" fill="#ecebec"/><path d="M11,73.68a1.23,1.23,0,0,1,.6-.1h.2a2.86,2.86,0,0,1,.8.3l6.3,3.7a1.22,1.22,0,0,1,.5.3,1.2,1.2,0,0,1,.3,1.1c0,.5-.7,1.1-1,1.4l-9.1,5.1a2.86,2.86,0,0,1-.8.3H8.6a1.23,1.23,0,0,1-.6-.1l-6.5-3.8c-.1-.1-.5-.3-.6-.5a1,1,0,0,1-.3-1c0-.5.7-1.2,1.1-1.4Z" transform="translate(0 0)" fill="#e9e8ea"/><path d="M11.1,73.68a1.23,1.23,0,0,1,.6-.1h.2a2.86,2.86,0,0,1,.8.3l6.2,3.7a1.22,1.22,0,0,1,.5.3,1.2,1.2,0,0,1,.3,1.1c0,.4-.7,1.1-1.1,1.3l-9,5a2.86,2.86,0,0,1-.8.3H8.6a1.23,1.23,0,0,1-.6-.1l-6.4-3.6c-.1-.1-.5-.3-.6-.4a.8.8,0,0,1-.2-1c0-.4.8-1.1,1.1-1.4Z" transform="translate(0 0)" fill="#e7e6e7"/><path d="M11.1,73.78a1.23,1.23,0,0,1,.6-.1h.2a2.86,2.86,0,0,1,.8.3l6.2,3.7c.1,0,.4.2.4.3a1.2,1.2,0,0,1,.3,1.1c0,.4-.8,1.1-1.1,1.3l-8.9,5a1.9,1.9,0,0,1-.8.3H8.6a1.23,1.23,0,0,1-.6-.1l-6.4-3.7c-.1-.1-.5-.3-.6-.4a.8.8,0,0,1-.2-1c0-.4.8-1.1,1.1-1.3Z" transform="translate(0 0)" fill="#e4e3e5"/><path d="M11.1,73.78a1.23,1.23,0,0,1,.6-.1h.2a2.86,2.86,0,0,1,.8.3l6.1,3.6c.1,0,.4.2.4.3a.94.94,0,0,1,.2,1.1c0,.4-.8,1.1-1.1,1.2l-8.8,4.9a1.9,1.9,0,0,1-.8.3H8.5a1.23,1.23,0,0,1-.6-.1l-6.4-3.6a2.17,2.17,0,0,1-.6-.4.8.8,0,0,1-.2-1c0-.4.9-1.1,1.1-1.3Z" transform="translate(0 0)" fill="#e1e1e3"/><path d="M11.2,73.88a1.23,1.23,0,0,1,.6-.1H12a3.86,3.86,0,0,1,.8.3l6.1,3.6c.1,0,.4.2.4.3a.94.94,0,0,1,.2,1.1c0,.4-.9,1-1.1,1.2l-8.7,4.9a1.9,1.9,0,0,1-.8.3H8.7a1.23,1.23,0,0,1-.6-.1l-6.4-3.7c0-.1-.4-.4-.5-.5a.8.8,0,0,1-.2-1c0-.4.9-1.1,1.2-1.2Z" transform="translate(0 0)" fill="#dfdfe1"/><path d="M11.2,73.88a1.09,1.09,0,0,1,.5-.1h.2a3.86,3.86,0,0,1,.8.3l6,3.6c.1,0,.4.2.4.3a.94.94,0,0,1,.2,1.1c0,.3-.9,1-1.1,1.2l-8.6,4.9c-.1,0-.6.3-.7.3H8.7a.74.74,0,0,1-.5-.1l-6.4-3.6a2.17,2.17,0,0,1-.6-.4.78.78,0,0,1-.2-1c0-.3,1-1,1.2-1.2Z" transform="translate(0 0)" fill="#dcdcde"/><path d="M11.2,74c.1-.1.4-.1.5-.1h.2a3.86,3.86,0,0,1,.8.3l6,3.5c.1,0,.4.2.4.3.3.3.4.8.2,1,0,.3-.9,1-1.2,1.1L9.6,85c-.1,0-.6.3-.7.3H8.7a.74.74,0,0,1-.5-.1l-6.3-3.7a2.17,2.17,0,0,1-.6-.4.67.67,0,0,1-.15-.94l.05-.06c0-.3,1-1,1.2-1.2Z" transform="translate(0 0)" fill="#dadadc"/><path d="M11.2,74c.1-.1.4-.1.5-.1h.2a6,6,0,0,0,.8.3l5.9,3.5c.1,0,.4.2.4.3a.8.8,0,0,1,.2,1c0,.3-1,1-1.2,1.1l-8.4,4.8c-.1,0-.6.3-.7.3H8.7a.74.74,0,0,1-.5-.1l-6.3-3.7a2.17,2.17,0,0,1-.6-.4A.67.67,0,0,1,1.15,80L1.2,80c0-.3,1-1,1.2-1.1Z" transform="translate(0 0)" fill="#d7d7da"/><path d="M11.3,74.08a.45.45,0,0,1,.5,0H12c.1,0,.6.3.7.3l5.9,3.5s.4.2.4.3c.3.2.4.8.1,1a2.91,2.91,0,0,1-1.2,1l-8.3,4.7c-.1,0-.6.3-.7.3H8.7a.74.74,0,0,1-.5-.1l-6.3-3.6a2.17,2.17,0,0,1-.6-.4.76.76,0,0,1-.1-1c0-.2,1.1-1,1.3-1.1Z" transform="translate(0 0)" fill="#d5d5d8"/><path d="M11.3,74.18a.45.45,0,0,1,.5,0H12c.1,0,.6.3.7.3l5.8,3.4s.4.2.4.3c.3.2.4.8.1,1,0,.2-1,.9-1.2,1l-8.2,4.7c-.1,0-.6.3-.7.3H8.2l-6.3-3.6a6.25,6.25,0,0,1-.6-.4.76.76,0,0,1-.1-1c0-.2,1.1-1,1.3-1.1Z" transform="translate(0 0)" fill="#d2d3d5"/><path d="M11.3,74.18a.45.45,0,0,1,.5,0H12a4.76,4.76,0,0,1,.7.3l5.8,3.4s.4.2.4.3c.3.2.4.8.1,1,0,.2-1.1.9-1.2,1l-8.1,4.6a4.76,4.76,0,0,1-.7.3s-.2.1-.2,0H8.3l-6.2-3.6s-.6-.3-.6-.4a.76.76,0,0,1-.1-1c0-.2,1.2-1,1.3-1Z" transform="translate(0 0)" fill="#d0d0d3"/><path d="M11.4,74.28a.45.45,0,0,1,.5,0l.2.1.7.3,5.7,3.4s.4.2.4.3a.67.67,0,0,1,.15.94l-.05.06a12.72,12.72,0,0,1-1.2,1l-8.1,4.5a4.76,4.76,0,0,1-.7.3l-.2.1H8.3l-6.2-3.6s-.6-.3-.6-.4a.76.76,0,0,1-.1-1,6.62,6.62,0,0,1,1.3-1Z" transform="translate(0 0)" fill="#cdced1"/><path d="M11.4,74.28a.45.45,0,0,1,.5,0l.2.1s.7.3.7.4l5.7,3.3s.4.2.4.3a.67.67,0,0,1,.15.94l-.05.06a5.81,5.81,0,0,1-1.3.9l-8,4.5a4.76,4.76,0,0,1-.7.3l-.2.1H8.3l-6.2-3.6s-.6-.3-.6-.4a.67.67,0,0,1-.05-1l.05,0a17,17,0,0,1,1.4-1Z" transform="translate(0 0)" fill="#cbcccf"/><path d="M11.4,74.38a.45.45,0,0,1,.5,0l.2.1s.7.3.7.4l5.6,3.3s.4.2.4.3a.67.67,0,0,1,.05,1l-.05,0c-.42.32-.85.62-1.3.9l-7.9,4.5a4.76,4.76,0,0,1-.7.3l-.2.1H8.2L2,81.68s-.6-.3-.6-.4a.67.67,0,0,1,0-1l0,0a17,17,0,0,1,1.4-1Z" transform="translate(0 0)" fill="#c9c9cd"/><path d="M11.5,74.38a.45.45,0,0,1,.5,0l.2.1.7.4,5.6,3.3s.4.2.4.3a.67.67,0,0,1,.05,1s0,0-.05,0a13.33,13.33,0,0,1-1.3.8l-7.8,4.4-.6.3-.2.1c-.1.1-.3,0-.5,0l-6.1-3.5s-.6-.3-.6-.4a.67.67,0,0,1-.05-1s0,0,.05,0l1.4-.9Z" transform="translate(0 0)" fill="#c6c7cb"/><path d="M11.5,74.48a.45.45,0,0,1,.5,0l.2.1.6.3,5.5,3.2.4.2a.56.56,0,0,1,.12.78.68.68,0,0,1-.12.12l-1.3.8-7.7,4.3-.6.3-.2.1a.45.45,0,0,1-.5,0l-6.1-3.5s-.6-.3-.6-.4A.56.56,0,0,1,1.58,80a.68.68,0,0,1,.12-.12L3.1,79Z" transform="translate(0 0)" fill="#c4c5c9"/><path d="M11.5,74.48a.45.45,0,0,1,.5,0l6.7,4a.56.56,0,0,1,.12.78.68.68,0,0,1-.12.12L9,84.88a.45.45,0,0,1-.5,0L1.8,81a.56.56,0,0,1-.12-.78.68.68,0,0,1,.12-.12Z" transform="translate(0 0)" fill="#c2c3c7"/><path d="M1.7,71.68l6.7,3.9a.45.45,0,0,0,.5,0l9.8-5.5c.3-.1.3-.5.2-.8a.52.52,0,0,1,.2.4v9.1a.76.76,0,0,1-.4.7l-9.6,5.4a.85.85,0,0,1-.7,0L1.7,81a.86.86,0,0,1-.4-.7v-9a.72.72,0,0,1,.2-.5A.77.77,0,0,0,1.7,71.68Z" transform="translate(0 0)" fill="#c4c5d0"/><path d="M8.8,77.68l10.3-5.8v1.3L8.8,79.08a.64.64,0,0,1-.6,0l-6.8-3.9v-1.3l6.8,3.9A1.23,1.23,0,0,0,8.8,77.68Z" transform="translate(0 0)" fill="url(#stats2a_linear-gradient-15"/><path d="M8.8,81.18l10.3-5.8v1.3L8.8,82.48a.64.64,0,0,1-.6,0l-6.8-3.9v-1.3l6.8,3.9A.64.64,0,0,0,8.8,81.18Z" transform="translate(0 0)" fill="url(#stats2a_linear-gradient-16"/><path d="M11.5,65.08a.45.45,0,0,1,.5,0l6.7,4a.56.56,0,0,1,.12.78.68.68,0,0,1-.12.12l-9.8,5.5a.45.45,0,0,1-.5,0l-6.7-3.9a.56.56,0,0,1-.12-.78.68.68,0,0,1,.12-.12Z" transform="translate(0 0)" fill="#f0eff3"/></svg>