<svg id="stats2b_Layer_1" data-name="Layer 1" xmlns="http://www.w3.org/2000/svg" xmlns:xlink="http://www.w3.org/1999/xlink" viewBox="0 0 50.72 116.48"><defs><linearGradient id="stats2b_linear-gradient" x1="-448.21" y1="1232.58" x2="-408.21" y2="1232.58" gradientTransform="matrix(-1, 0, 0, 1, -295.4, -1131.98)" gradientUnits="userSpaceOnUse"><stop offset="0" stop-color="#5faadd"/><stop offset="1" stop-color="#567fc0"/></linearGradient><linearGradient id="stats2b_linear-gradient-2" x1="-1339.87" y1="1305.92" x2="-1319.35" y2="1305.92" gradientTransform="matrix(-1, 0, 0, 1, -1196.47, -1131.98)" gradientUnits="userSpaceOnUse"><stop offset="0" stop-color="#ffd45d"/><stop offset="1" stop-color="#f8a81f"/></linearGradient><linearGradient id="stats2b_linear-gradient-3" x1="-1339.87" y1="1309.37" x2="-1319.35" y2="1309.37" xlink:href="#stats2b_linear-gradient-2"/></defs><path d="M108.3,93l42.6-24.3a2,2,0,0,1,3,1.7l-.8,37a1.71,1.71,0,0,1-.7,1.3l-42,24.9a2,2,0,0,1-2.8-1.9V94.3A1.21,1.21,0,0,1,108.3,93Z" transform="translate(-107.58 -68.42)" fill="#c2c3cf"/><path d="M109,93.6l42.6-24.3a1.44,1.44,0,0,1,2.2,1.3V108a1.71,1.71,0,0,1-.7,1.3l-42.6,24.3a1.44,1.44,0,0,1-2.2-1.3V94.9A1.27,1.27,0,0,1,109,93.6Z" transform="translate(-107.58 -68.42)" fill="#f0eef1"/><path d="M113.2,92.6l38.9-22.1a.52.52,0,0,1,.8.5v37a.55.55,0,0,1-.3.5l-38.9,22.2a.52.52,0,0,1-.8-.5V93.1A.55.55,0,0,1,113.2,92.6Z" transform="translate(-107.58 -68.42)" fill="url(#stats2b_linear-gradient"/><polygon points="19.62 44.48 18.72 44.98 18.72 44.58 19.62 43.98 19.62 44.48" fill="#fff"/><polygon points="20.72 43.88 19.92 44.27 19.92 43.88 20.72 43.38 20.72 43.88" fill="#fff"/><polygon points="18.32 45.27 14.52 47.48 14.52 46.98 18.32 44.77 18.32 45.27" fill="#fff"/><polygon points="20.82 47.17 18.12 48.67 18.12 48.27 20.72 46.67 20.82 47.17" fill="#fff"/><polygon points="16.82 46.98 15.52 47.77 15.52 47.27 16.82 46.48 16.82 46.98" fill="#fff"/><polygon points="20.72 50.48 15.32 53.58 15.32 53.08 20.72 49.98 20.72 50.48" fill="#fff"/><polygon points="18.32 50.27 17.42 50.77 17.42 50.38 18.32 49.77 18.32 50.27" fill="#fff"/><polygon points="20.82 48.88 18.72 50.08 18.72 49.58 20.82 48.38 20.82 48.88" fill="#fff"/><polygon points="20.72 45.58 19.42 46.38 19.42 45.88 20.72 45.08 20.72 45.58" fill="#fff"/><polygon points="20.72 44.67 17.12 46.88 17.12 46.38 20.72 44.27 20.72 44.67" fill="#fff"/><polygon points="20.82 47.98 16.62 50.38 16.62 49.98 20.82 47.48 20.82 47.98" fill="#fff"/><polygon points="18.32 47.77 14.62 49.98 14.52 49.48 18.32 47.27 18.32 47.77" fill="#fff"/><polygon points="20.82 49.67 19.22 50.58 19.22 50.08 20.82 49.17 20.82 49.67" fill="#fff"/><polygon points="20.72 46.38 18.82 47.48 18.82 47.08 20.72 45.88 20.72 46.38" fill="#fff"/><polygon points="41.72 35.38 25.02 45.17 25.02 44.98 41.72 35.27 41.72 35.38" fill="#fff" opacity="0.3" style="isolation:isolate"/><polygon points="41.72 31.88 24.92 41.67 24.92 41.38 41.72 31.68 41.72 31.88" fill="#fff" opacity="0.3" style="isolation:isolate"/><polygon points="41.82 28.27 24.92 38.08 24.92 37.88 41.82 28.07 41.82 28.27" fill="#fff" opacity="0.3" style="isolation:isolate"/><polygon points="41.82 24.68 24.92 34.48 24.92 34.17 41.82 24.48 41.82 24.68" fill="#fff" opacity="0.3" style="isolation:isolate"/><polygon points="41.82 21.07 24.82 30.77 24.82 30.57 41.82 20.77 41.82 21.07" fill="#fff" opacity="0.3" style="isolation:isolate"/><polygon points="41.72 37.27 25.02 47.08 25.02 46.88 41.72 37.08 41.72 37.27" fill="#fff" opacity="0.3" style="isolation:isolate"/><polygon points="41.72 33.67 24.92 43.48 24.92 43.27 41.72 33.58 41.72 33.67" fill="#fff" opacity="0.3" style="isolation:isolate"/><polygon points="41.72 30.18 24.92 39.98 24.92 39.67 41.72 29.98 41.72 30.18" fill="#fff" opacity="0.3" style="isolation:isolate"/><polygon points="41.82 26.57 24.92 36.38 24.92 36.08 41.82 26.38 41.82 26.57" fill="#fff" opacity="0.3" style="isolation:isolate"/><polygon points="41.82 22.98 24.82 32.67 24.82 32.48 41.82 22.68 41.82 22.98" fill="#fff" opacity="0.3" style="isolation:isolate"/><polygon points="37.82 40.08 37.62 40.17 37.62 22.57 37.82 22.38 37.82 40.08" fill="#fff" opacity="0.3" style="isolation:isolate"/><polygon points="28.82 45.27 28.62 45.38 28.42 27.88 28.62 27.68 28.82 45.27" fill="#fff" opacity="0.3" style="isolation:isolate"/><polygon points="25.12 47.38 24.92 47.58 24.82 29.98 24.92 29.88 25.12 47.38" fill="#fff" opacity="0.3" style="isolation:isolate"/><polygon points="41.92 20.07 41.92 37.58 41.72 37.77 41.82 20.07 41.92 20.07" fill="#fff" opacity="0.3" style="isolation:isolate"/><polygon points="33.32 42.67 33.12 42.77 33.02 25.18 33.22 25.07 33.32 42.67" fill="#fff" opacity="0.3" style="isolation:isolate"/><path d="M135.2,103.2c0-2.7.5-4.5,1.4-5.5a1.42,1.42,0,0,1,1.6-.6c.8.3,1,2,1.1,3.7v.5c.2,2,.3,3.8,1.8,3,.9-.5,1.1-1.5,1.4-2.8a2.92,2.92,0,0,1,.2-.9,4.33,4.33,0,0,0,.1-.5c.5-1.9.9-3.8,2.5-4.8h0c3.5-2,3.9,8.8,3.9,10h-.1c0-.5-.3-11.9-3.7-9.9h0c-1.5.9-1.9,2.7-2.4,4.6a4.33,4.33,0,0,0-.1.5c-.1.3-.1.6-.2.9-.3,1.4-.5,2.5-1.5,3.1-1.7,1-1.8-1.1-2-3.1v-.5c-.1-1.6-.3-3.3-1.1-3.6a1.37,1.37,0,0,0-1.5.5c-.8.9-1.2,2.7-1.3,5.3a4.49,4.49,0,0,1-.8,3c-1.3,1.4-1.9,4.4-1.9,8.8l-.1.1c0-4.5.7-7.6,2-9.1C135,105.5,135.2,104.6,135.2,103.2Z" transform="translate(-107.58 -68.42)" fill="#78c165"/><path d="M137.2,96.7c.2-.1.4,0,.4.2a1,1,0,0,1-.4.7c-.2.1-.4,0-.4-.2A1,1,0,0,1,137.2,96.7Z" transform="translate(-107.58 -68.42)" fill="#fff"/><path d="M145.6,94.6c.2-.1.4,0,.4.2a1,1,0,0,1-.4.7c-.2.1-.4,0-.4-.2A1,1,0,0,1,145.6,94.6Z" transform="translate(-107.58 -68.42)" fill="#fff"/><polygon points="41.22 6.88 41.22 7.58 32.22 12.78 32.22 12.07 41.22 6.88" fill="#f04f50"/><polygon points="41.02 8.18 41.02 8.68 34.42 12.57 34.42 11.97 41.02 8.18" fill="#f04f50"/><polygon points="42.62 6.17 42.52 7.88 41.82 8.18 41.82 6.47 42.62 6.17" fill="#ffd45d"/><polygon points="41.02 10.57 41.02 11.18 32.12 16.38 32.12 15.78 41.02 10.57" fill="#78c165"/><polygon points="40.92 11.78 40.92 12.38 34.22 16.27 34.22 15.57 40.92 11.78" fill="#78c165"/><polygon points="42.42 9.78 42.42 11.47 41.72 11.88 41.72 10.18 42.42 9.78" fill="#ffd45d"/><polygon points="40.92 14.18 40.92 14.88 31.92 20.07 31.92 19.38 40.92 14.18" fill="#fff"/><polygon points="40.72 15.38 40.72 15.97 34.12 19.88 34.12 19.27 40.72 15.38" fill="#fff"/><polygon points="42.32 13.38 42.22 15.07 41.62 15.47 41.62 13.78 42.32 13.38" fill="#ffd45d"/><path d="M118.8,93.4c.3,0,.6.1.8.1,1.2.2,1.7.3,3.1-1.2a23.75,23.75,0,0,1,4.6-3.6,22.69,22.69,0,0,0,3.5-2.6,2.84,2.84,0,0,1,3.4-.5c.4.1.7.2.9.1h0v.1h0c-.2.1-.5,0-.9-.1a2.84,2.84,0,0,0-3.3.5,28.94,28.94,0,0,1-3.5,2.6,34,34,0,0,0-4.6,3.5,4.56,4.56,0,0,1-1.3,1.2,3.05,3.05,0,0,1-1.9.1,3.09,3.09,0,0,1-.8-.2,4.68,4.68,0,0,0-4.3,1.6h-.1v-.1A4.37,4.37,0,0,1,118.8,93.4Z" transform="translate(-107.58 -68.42)" fill="#fff"/><path d="M119,94.7a19.31,19.31,0,0,1,4.7-1.3h.1c2.1-.4,3.4-1.7,4.9-3.1a15.91,15.91,0,0,1,2.4-2,11,11,0,0,1,3.1-1.7,3.23,3.23,0,0,1,.9-.2v.2a4.27,4.27,0,0,0-.9.2,12.46,12.46,0,0,0-3,1.7,15.72,15.72,0,0,0-2.3,2,14.87,14.87,0,0,1-2.8,2.3,10.23,10.23,0,0,1-2.1.8h-.1a25.16,25.16,0,0,0-4.7,1.3,14.17,14.17,0,0,0-4.6,3.2h-.1V98A11.93,11.93,0,0,1,119,94.7Z" transform="translate(-107.58 -68.42)" fill="#f04f50"/><polygon points="27.62 14.68 27.32 21.68 27.32 21.77 27.52 14.78 27.62 14.68" fill="#fff"/><polygon points="22.42 17.57 22.32 24.57 22.22 24.57 22.42 17.57" fill="#fff"/><polygon points="17.32 20.48 17.22 27.38 17.12 27.48 17.22 20.48 17.32 20.48" fill="#fff"/><polygon points="12.12 23.38 12.12 30.27 12.02 30.38 12.02 23.48 12.12 23.38" fill="#fff"/><polygon points="6.92 33.27 6.82 33.27 6.82 26.38 6.92 26.27 6.92 33.27" fill="#fff"/><polygon points="20.22 28.57 20.22 28.98 19.42 29.48 19.42 28.98 20.22 28.57" fill="#fff"/><polygon points="23.12 26.88 23.12 27.27 20.52 28.77 20.52 28.38 23.12 26.88" fill="#fff"/><polygon points="19.02 29.68 15.52 31.68 15.52 31.27 19.02 29.27 19.02 29.68" fill="#fff"/><polygon points="14.92 32.08 12.42 33.48 12.42 33.08 14.92 31.57 14.92 32.08" fill="#fff"/><polygon points="12.02 33.77 10.72 34.48 10.72 33.98 11.92 33.27 12.02 33.77" fill="#fff"/><polygon points="19.62 30.98 14.52 33.88 14.52 33.48 19.62 30.57 19.62 30.98" fill="#fff"/><polygon points="11.62 35.58 10.72 36.08 10.72 35.58 11.62 35.08 11.62 35.58" fill="#fff"/><polygon points="14.02 34.17 12.02 35.38 12.02 34.88 14.02 33.77 14.02 34.17" fill="#fff"/><polygon points="23.12 28.48 23.12 28.88 20.02 30.77 20.02 30.27 23.12 28.48" fill="#fff"/><polygon points="23.12 28.07 17.92 31.18 17.92 30.68 23.12 27.68 23.12 28.07" fill="#fff"/><polygon points="17.32 31.48 13.42 33.67 13.42 33.27 17.32 31.07 17.32 31.48" fill="#fff"/><polygon points="19.02 32.08 15.52 34.08 15.52 33.67 19.02 31.68 19.02 32.08" fill="#fff"/><polygon points="14.92 34.48 13.42 35.27 13.42 34.88 14.92 33.98 14.92 34.48" fill="#fff"/><polygon points="23.12 29.18 23.12 29.68 19.42 31.88 19.42 31.38 23.12 29.18" fill="#fff"/><polygon points="10.72 46.27 8.42 47.58 8.42 47.17 10.72 45.77 10.72 46.27" fill="#78c165"/><polygon points="10.12 45.77 8.42 46.77 8.42 46.27 10.12 45.27 10.12 45.77" fill="#78c165"/><polygon points="10.32 42.98 8.42 44.08 8.42 43.67 10.32 42.48 10.32 42.98" fill="#f04f50"/><polygon points="10.22 40.98 8.32 42.08 8.32 41.58 10.22 40.58 10.22 40.98" fill="#ffd45d"/><polygon points="10.62 39.98 8.32 41.27 8.32 40.77 10.62 39.48 10.62 39.98" fill="#ffd45d"/><polygon points="8.22 47.67 8.02 47.77 8.02 46.48 8.22 46.38 8.22 47.67" fill="#ffd45d"/><polygon points="8.12 45.08 8.02 45.17 7.92 43.88 8.12 43.77 8.12 45.08" fill="#ffd45d"/><polygon points="8.12 42.17 7.92 42.27 7.92 40.98 8.12 40.88 8.12 42.17" fill="#ffd45d"/><path d="M120.9,108.3a3.94,3.94,0,0,0-.5,2,1.73,1.73,0,0,0,.5,1.3,1.7,1.7,0,0,0,1.4,0,3.76,3.76,0,0,0,1.4-1.6,4.49,4.49,0,0,0,.5-1.9c0-1.3-.9-1.8-1.9-1.2A3.13,3.13,0,0,0,120.9,108.3Zm-.2,1.7a3.17,3.17,0,0,1,.4-1.6,4.26,4.26,0,0,1,1.1-1.2c.9-.5,1.6,0,1.7,1.1a2.82,2.82,0,0,1-.4,1.5,4.73,4.73,0,0,1-1.1,1.3,1.05,1.05,0,0,1-1.2,0A1.29,1.29,0,0,1,120.7,110Z" transform="translate(-107.58 -68.42)" fill="#fff"/><path d="M122.5,110.8a2,2,0,0,0,.9-1.1,3.19,3.19,0,0,0,.3-1.4c0-.9-.5-1.4-1.3-1.1h-.1v-.7h.1c1-.4,1.8.1,1.8,1.4a4.92,4.92,0,0,1-.5,2,3.17,3.17,0,0,1-1.4,1.6l-.1.1.3-.8Z" transform="translate(-107.58 -68.42)" fill="#78c165"/><path d="M125.8,105.4a4.2,4.2,0,0,0-.6,2.1,1.58,1.58,0,0,0,.5,1.3,1.4,1.4,0,0,0,1.4,0,4.26,4.26,0,0,0,1.5-1.7,4.89,4.89,0,0,0,.5-1.9c0-1.3-.9-1.9-1.9-1.3A4.09,4.09,0,0,0,125.8,105.4Zm-.2,1.8a3,3,0,0,1,.5-1.7,4.26,4.26,0,0,1,1.1-1.2c.9-.5,1.7,0,1.7,1.1a3.17,3.17,0,0,1-.4,1.6,3,3,0,0,1-1.2,1.3,1.05,1.05,0,0,1-1.2,0A1.29,1.29,0,0,1,125.6,107.2Z" transform="translate(-107.58 -68.42)" fill="#fff"/><path d="M125.7,107.2a1,1,0,0,0,1.6,1.1,2.58,2.58,0,0,0,1.1-1.2,4.19,4.19,0,0,0,.4-1.5c0-1.1-.7-1.6-1.6-1.1h-.1l.1-.7h.1c1.1-.6,2,0,2,1.3a4.92,4.92,0,0,1-.5,2,4.26,4.26,0,0,1-1.5,1.7,1.35,1.35,0,0,1-1.5,0,1.67,1.67,0,0,1-.5-1.4v-.1l.5-.4Z" transform="translate(-107.58 -68.42)" fill="#ffd45d"/><polygon points="14.52 54.17 13.32 54.98 13.22 51.58 14.52 50.77 14.52 54.17" fill="#fff"/><polygon points="12.92 55.17 11.72 55.88 11.62 51.08 12.82 50.48 12.92 55.17" fill="#f04f50"/><polygon points="11.32 56.08 10.12 56.77 10.02 52.67 11.22 51.98 11.32 56.08" fill="#ffd45d"/><polygon points="9.72 56.98 8.52 57.67 8.42 51.58 9.62 50.88 9.72 56.98" fill="#78c165"/><path d="M152.8,70.9V108a.55.55,0,0,1-.3.5l-.8.5L117.6,90.1,152,70.5A.48.48,0,0,1,152.8,70.9Z" transform="translate(-107.58 -68.42)" fill="#fff" opacity="0.25" style="isolation:isolate"/><path d="M128.4,138l13.1-7.5a2.55,2.55,0,0,1,2.4,0l13.1,7.1a2.48,2.48,0,0,1,1.3,2.2A2.61,2.61,0,0,1,157,142l-13.1,7.4a2.38,2.38,0,0,1-1.2.3,2.66,2.66,0,0,1-1.2-.3l-13.1-7a2.48,2.48,0,0,1-1.3-2.2A3,3,0,0,1,128.4,138Z" transform="translate(-107.58 -68.42)" fill="#fff"/><path d="M141.6,130.6a1.88,1.88,0,0,1,.8-.2h.4a2.38,2.38,0,0,1,1.2.3l13,7.1a3.74,3.74,0,0,1,.7.6,2.2,2.2,0,0,1,.5,1.6,2.33,2.33,0,0,1-1.3,2.1l-13,7.3a2.38,2.38,0,0,1-1.2.3h-.4a1.14,1.14,0,0,1-.8-.3l-13-6.9a2.7,2.7,0,0,1-.8-.7,2,2,0,0,1-.4-1.5,2.61,2.61,0,0,1,1.3-2.2Z" transform="translate(-107.58 -68.42)" fill="#f9fbfc"/><path d="M141.6,130.7a1.88,1.88,0,0,1,.8-.2h.4a2.38,2.38,0,0,1,1.2.3l12.9,7a3.74,3.74,0,0,1,.7.6,2.2,2.2,0,0,1,.5,1.6,2.67,2.67,0,0,1-1.3,2.1l-12.9,7.2a2.38,2.38,0,0,1-1.2.3h-.3a2.35,2.35,0,0,1-.8-.2l-13-7a1.78,1.78,0,0,1-.8-.7,2,2,0,0,1-.4-1.5,2.67,2.67,0,0,1,1.3-2.1Z" transform="translate(-107.58 -68.42)" fill="#f6f6f6"/><path d="M141.7,130.8a1.85,1.85,0,0,1,.7-.2h.4a2.38,2.38,0,0,1,1.2.3l12.8,7a3.74,3.74,0,0,1,.7.6,2.2,2.2,0,0,1,.5,1.6,2.47,2.47,0,0,1-1.4,2l-12.8,7.2a2.28,2.28,0,0,1-1.1.3h-.3a2.35,2.35,0,0,1-.8-.2l-13-6.9a1.78,1.78,0,0,1-.8-.7,2,2,0,0,1-.4-1.5,2.79,2.79,0,0,1,1.4-2.1Z" transform="translate(-107.58 -68.42)" fill="#f3f2f3"/><path d="M141.7,130.8a1.85,1.85,0,0,1,.7-.2h.4a2.84,2.84,0,0,1,1.2.4l12.8,6.9c.2.1.5.4.7.5a1.8,1.8,0,0,1,.4,1.6,2.47,2.47,0,0,1-1.4,2l-12.6,7.1a4.51,4.51,0,0,1-1.1.3h-.3a2.35,2.35,0,0,1-.8-.2l-12.9-6.9a2.51,2.51,0,0,1-.8-.7,2,2,0,0,1-.4-1.5,2.47,2.47,0,0,1,1.4-2Z" transform="translate(-107.58 -68.42)" fill="#f1f0f1"/><path d="M141.7,130.9a1.85,1.85,0,0,1,.7-.2h.4a2.84,2.84,0,0,1,1.2.4l12.7,6.9c.2.1.5.4.7.5a1.8,1.8,0,0,1,.4,1.6,2.71,2.71,0,0,1-1.4,1.9l-12.5,7a4.51,4.51,0,0,1-1.1.3h-.3a2.35,2.35,0,0,1-.8-.2l-12.9-6.9a2.51,2.51,0,0,1-.8-.7,2,2,0,0,1-.4-1.5,2.89,2.89,0,0,1,1.4-2Z" transform="translate(-107.58 -68.42)" fill="#edeced"/><path d="M141.8,131a1.85,1.85,0,0,1,.7-.2h.4a2.84,2.84,0,0,1,1.2.4l12.6,6.8c.2.1.5.4.7.5a1.67,1.67,0,0,1,.4,1.5,2.71,2.71,0,0,1-1.4,1.9l-12.4,7a3.54,3.54,0,0,1-1.1.3h-.3a3.09,3.09,0,0,1-.8-.2l-12.9-6.8c-.2-.1-.7-.4-.8-.7a1.63,1.63,0,0,1-.3-1.5c0-.7.9-1.6,1.5-1.9Z" transform="translate(-107.58 -68.42)" fill="#ebe9ea"/><path d="M141.8,131a1.85,1.85,0,0,1,.7-.2h.4a2.1,2.1,0,0,1,1.1.4l12.5,6.8c.2.1.5.4.7.5a1.67,1.67,0,0,1,.4,1.5,2.69,2.69,0,0,1-1.5,1.8l-12.2,6.9a3.54,3.54,0,0,1-1.1.3h-.3a1.34,1.34,0,0,1-.8-.2l-12.8-6.9a2.41,2.41,0,0,1-.8-.6,1.49,1.49,0,0,1-.3-1.4,3.09,3.09,0,0,1,1.5-1.9Z" transform="translate(-107.58 -68.42)" fill="#e9e7e8"/><path d="M141.8,131.1a1.85,1.85,0,0,1,.7-.2h.4a2.1,2.1,0,0,1,1.1.4l12.4,6.8a4.23,4.23,0,0,1,.7.5,1.4,1.4,0,0,1,.3,1.5c0,.6-1,1.5-1.5,1.8l-12.1,6.8a3.58,3.58,0,0,1-1.1.4h-.3a1.34,1.34,0,0,1-.8-.2L128.9,142a2.41,2.41,0,0,1-.8-.6,1.49,1.49,0,0,1-.3-1.4c0-.6,1-1.6,1.5-1.8Z" transform="translate(-107.58 -68.42)" fill="#e8e5e5"/><path d="M141.9,131.2a1.85,1.85,0,0,1,.7-.2h.4a4.87,4.87,0,0,1,1.1.4l12.3,6.8c.1.1.6.4.7.5a1.4,1.4,0,0,1,.3,1.5c0,.6-1,1.5-1.5,1.7l-12,6.8a4.18,4.18,0,0,1-1,.4h-.3a1.34,1.34,0,0,1-.8-.2l-12.7-6.8a2.41,2.41,0,0,1-.8-.6,1.27,1.27,0,0,1-.3-1.4c0-.6,1.1-1.5,1.6-1.8Z" transform="translate(-107.58 -68.42)" fill="#e5e3e4"/><path d="M141.9,131.2a.88.88,0,0,1,.7-.1h.4a4.87,4.87,0,0,1,1.1.4l12.2,6.7c.1.1.6.4.7.5a1.4,1.4,0,0,1,.3,1.5c0,.5-1.1,1.5-1.5,1.7l-11.9,6.7a4.18,4.18,0,0,1-1,.4h-.3a1.7,1.7,0,0,1-.7-.1l-12.7-6.8a2.41,2.41,0,0,1-.8-.6,1.08,1.08,0,0,1-.2-1.4c0-.5,1.1-1.5,1.6-1.7Z" transform="translate(-107.58 -68.42)" fill="#e1e0e2"/><path d="M142,131.3a.88.88,0,0,1,.7-.1h.4a4.87,4.87,0,0,1,1.1.4l12.1,6.7c.1.1.6.4.7.5a1.4,1.4,0,0,1,.3,1.5c0,.5-1.1,1.4-1.5,1.7L144,148.6a4.18,4.18,0,0,1-1,.4h-.3a1.7,1.7,0,0,1-.7-.1l-12.7-6.8c-.1-.1-.7-.4-.8-.6a1.08,1.08,0,0,1-.2-1.4c0-.5,1.2-1.5,1.6-1.7Z" transform="translate(-107.58 -68.42)" fill="#e0dee0"/><path d="M142,131.4a.88.88,0,0,1,.7-.1h.3a4.87,4.87,0,0,1,1.1.4l12.1,6.6a3,3,0,0,1,.7.5,1.08,1.08,0,0,1,.2,1.4c0,.4-1.2,1.4-1.6,1.6l-11.6,6.6a4.18,4.18,0,0,1-1,.4h-.3a1.7,1.7,0,0,1-.7-.1l-12.6-6.8c-.1-.1-.7-.4-.8-.6a1.08,1.08,0,0,1-.2-1.4c0-.4,1.3-1.5,1.7-1.7Z" transform="translate(-107.58 -68.42)" fill="#dcdcdd"/><path d="M142,131.4a1.7,1.7,0,0,1,.7-.1l.3.1a4.87,4.87,0,0,1,1.1.4l12,6.6a3,3,0,0,1,.7.5,1.08,1.08,0,0,1,.2,1.4c0,.4-1.2,1.4-1.6,1.6l-11.5,6.5a3,3,0,0,1-1,.4s-.2.1-.3,0a1.7,1.7,0,0,1-.7-.1l-12.6-6.8c-.1-.1-.7-.4-.8-.6a1.08,1.08,0,0,1-.2-1.4c0-.4,1.3-1.4,1.7-1.6Z" transform="translate(-107.58 -68.42)" fill="#dbdadb"/><path d="M142.1,131.5a1.7,1.7,0,0,1,.7-.1l.3.1a7.6,7.6,0,0,1,1.1.4l11.9,6.5a3,3,0,0,1,.7.5,1.08,1.08,0,0,1,.2,1.4c0,.3-1.3,1.3-1.6,1.5L144,148.2a3,3,0,0,1-1,.4s-.2.1-.3,0a1.7,1.7,0,0,1-.7-.1l-12.5-6.8c-.1,0-.8-.4-.8-.6a1.08,1.08,0,0,1-.2-1.4c0-.3,1.4-1.4,1.7-1.6Z" transform="translate(-107.58 -68.42)" fill="#d6d7d8"/><path d="M142.1,131.6a1.7,1.7,0,0,1,.7-.1l.3.1c.1,0,.9.4,1,.4l11.9,6.5c.1,0,.6.4.7.4a1.08,1.08,0,0,1,.2,1.4c0,.3-1.4,1.3-1.6,1.4L144,148.1a10.37,10.37,0,0,1-1,.4,1,1,0,0,1-.3.1,1.7,1.7,0,0,1-.7-.1l-12.5-6.7a4.05,4.05,0,0,1-.9-.5.86.86,0,0,1-.1-1.3c0-.3,1.5-1.4,1.7-1.5Z" transform="translate(-107.58 -68.42)" fill="#d4d5d7"/><path d="M142.2,131.7a1.7,1.7,0,0,1,.7-.1l.3.1c.1,0,.9.4,1,.4l11.8,6.4c.1,0,.6.4.7.4a1,1,0,0,1,.1,1.4c0,.3-1.4,1.3-1.7,1.4L144,148c-.1,0-.8.4-.9.4a1,1,0,0,1-.3.1,1.7,1.7,0,0,1-.7-.1l-12.5-6.7c-.1,0-.8-.5-.9-.5a.86.86,0,0,1-.1-1.3c0-.3,1.5-1.3,1.7-1.5Z" transform="translate(-107.58 -68.42)" fill="#d3d2d4"/><path d="M142.2,131.7a.85.85,0,0,1,.7,0l.3.1a4.67,4.67,0,0,1,1,.5l11.7,6.4a4.35,4.35,0,0,0,.7.4.86.86,0,0,1,.1,1.3,7.63,7.63,0,0,1-1.7,1.3l-11,6.2c-.1,0-.8.4-.9.4a1,1,0,0,1-.3.1,1.7,1.7,0,0,1-.7-.1l-12.4-6.7c-.1,0-.8-.5-.9-.5a.86.86,0,0,1-.1-1.3,8.62,8.62,0,0,1,1.8-1.4Z" transform="translate(-107.58 -68.42)" fill="#d1d1d3"/><path d="M142.2,131.8a.85.85,0,0,1,.7,0l.3.1a4.67,4.67,0,0,1,1,.5l11.6,6.3a4.35,4.35,0,0,0,.7.4.86.86,0,0,1,.1,1.3,7.63,7.63,0,0,1-1.7,1.3L144,147.8c-.1,0-.8.4-.9.4a1,1,0,0,1-.3.1c-.2.1-.5,0-.7,0l-12.4-6.7a7.26,7.26,0,0,0-.9-.5.86.86,0,0,1-.1-1.3c0-.2,1.7-1.3,1.8-1.4Z" transform="translate(-107.58 -68.42)" fill="#cecfd0"/><path d="M142.3,131.9a.85.85,0,0,1,.7,0l.3.1a9.25,9.25,0,0,1,1,.5l11.5,6.3a4.35,4.35,0,0,0,.7.4.86.86,0,0,1,.1,1.3,10.38,10.38,0,0,1-1.7,1.2l-10.8,6a7.93,7.93,0,0,1-.9.4,1,1,0,0,1-.3.1c-.2.1-.5,0-.7,0l-12.3-6.7a7.26,7.26,0,0,0-.9-.5.86.86,0,0,1-.1-1.3c0-.1,1.7-1.2,1.8-1.3Z" transform="translate(-107.58 -68.42)" fill="#c9cbce"/><path d="M142.3,131.9a.85.85,0,0,1,.7,0l.3.1a9.29,9.29,0,0,0,1,.5l11.4,6.2.7.4a.79.79,0,0,1,0,1.3c0,.1-1.7,1.1-1.7,1.2l-10.6,6.1a7.93,7.93,0,0,1-.9.4l-.2.1a.85.85,0,0,1-.7,0L130,141.6a7.26,7.26,0,0,0-.9-.5.79.79,0,0,1,0-1.3,15.62,15.62,0,0,1,1.9-1.3Z" transform="translate(-107.58 -68.42)" fill="#c8c7ca"/><path d="M142.3,132a.85.85,0,0,1,.7,0l.3.1a9.29,9.29,0,0,0,1,.5l11.3,6.2.7.4a.79.79,0,0,1,0,1.3,16.29,16.29,0,0,1-1.7,1.1l-10.5,5.9a7.93,7.93,0,0,1-.9.4l-.2.1a.85.85,0,0,1-.7,0L130,141.4l-.9-.5a.79.79,0,0,1,0-1.3,12.23,12.23,0,0,1,1.9-1.2Z" transform="translate(-107.58 -68.42)" fill="#c5c6ca"/><path d="M142.4,132.1a.85.85,0,0,1,.7,0l.3.1a9.29,9.29,0,0,0,1,.5l11.3,6.1.7.4a.79.79,0,0,1,0,1.3s-1.7,1.1-1.8,1.1l-10.4,5.8-.8.4-.2.1a.85.85,0,0,1-.7,0l-12.2-6.6-.9-.5c-.4-.3-.5-1,0-1.2l1.9-1.2Z" transform="translate(-107.58 -68.42)" fill="#c4c4c8"/><path d="M142.4,132.2a.85.85,0,0,1,.7,0l13.1,7.1a.7.7,0,0,1,0,1.2l-13.1,7.4a.85.85,0,0,1-.7,0l-13.1-7a.67.67,0,0,1,0-1.2Z" transform="translate(-107.58 -68.42)" fill="#c3c2c5"/><path d="M156,139.1l-12.4-6.8a2.55,2.55,0,0,0-2.4,0l-12.1,6.8a1,1,0,0,0,0,1.7l12.1,6.8a2.55,2.55,0,0,0,2.4,0l12.4-6.8C156.7,140.3,156.7,139.4,156,139.1Z" transform="translate(-107.58 -68.42)" fill="#c2c3cf"/><rect x="21.02" y="69.68" width="28" height="1.8" fill="#c2c3cf"/><path d="M156,137.2l-12.4-6.8a2.55,2.55,0,0,0-2.4,0l-12.1,6.8a1,1,0,0,0,0,1.7l12.1,6.8a2.55,2.55,0,0,0,2.4,0l12.4-6.8A1,1,0,0,0,156,137.2Z" transform="translate(-107.58 -68.42)" fill="#fff"/><path d="M129,138.6l4.5,2.5,7.4,4.1.2.1a2.55,2.55,0,0,0,2.4,0l8-4.4L155,139l.9-.5a1,1,0,0,0,0-1.7l-12.4-6.7a2.55,2.55,0,0,0-2.4,0l-3.2,1.8-4.7,2.6-4.2,2.4A1,1,0,0,0,129,138.6Z" transform="translate(-107.58 -68.42)" fill="#f0eef1"/><path d="M142.2,113c1.2,0,1.7.4,1.7.7,0,.8-.6,1.3-1.6,1.2a7,7,0,0,1-3.4-1.2c-.4-.3.6-1,.9-1A10.9,10.9,0,0,0,142.2,113Z" transform="translate(-107.58 -68.42)" fill="#f7a8a9"/><path d="M142.5,112.9l-1.1.2c.3-.9-.1-1-.1-1l.4-.8Z" transform="translate(-107.58 -68.42)" fill="#f7a8a9"/><path d="M138.6,109.7a8.59,8.59,0,0,0,1.3,3c.3.6-.5,1.3-1,.8s-1.1-3.7-1.1-3.7A.6.6,0,0,1,138.6,109.7Z" transform="translate(-107.58 -68.42)" fill="#f7a8a9"/><path d="M138.2,107.8c.2.3.3.1.4.1s.4.5.4.7a3.14,3.14,0,0,0-.4,1.2c0,.1-.8.1-.8.1a6.81,6.81,0,0,1-.3-1.2c0-.2-.3-.5-.1-.5s.3.3.5.4.2-.1.2-.5-.4-1-.3-1.1A2.85,2.85,0,0,0,138.2,107.8Z" transform="translate(-107.58 -68.42)" fill="#f7a8a9"/><path d="M144.2,123.6a4.66,4.66,0,0,0-.1,3.1c.9,2.1.6,6.5.7,7s-.9,1.1-1.1,0a69,69,0,0,0-1.8-6.8,8.18,8.18,0,0,1-.3-3.2Z" transform="translate(-107.58 -68.42)" fill="#f7a8a9"/><path d="M142.2,125a13.61,13.61,0,0,0-.7,5.3,37.21,37.21,0,0,1-.3,5.5c0,.5-.9,1-1-.1a37.58,37.58,0,0,0-.9-6.5,21.32,21.32,0,0,1,.2-4.8S142.6,124.2,142.2,125Z" transform="translate(-107.58 -68.42)" fill="#f7a8a9"/><path d="M139.5,137.2c.6-.4.5-1.5.5-1.5a5.5,5.5,0,0,0,1.2-.1c0,.3.4.9.4,1.5s-.3.7-.3,1.1H141l.2-.9c-.5,0-1.3,1-1.9,1s-.9-.2-1-.4C138.2,137.5,138.9,137.6,139.5,137.2Z" transform="translate(-107.58 -68.42)" fill="#5f5786"/><path d="M142.9,135.3c.6-.4.5-1.5.5-1.5a5.5,5.5,0,0,0,1.2-.1c0,.3.4.9.4,1.5s-.3.7-.3,1.1h-.3l.2-.9c-.5,0-1.3,1-1.9,1s-.9-.2-1-.4C141.7,135.6,142.3,135.7,142.9,135.3Z" transform="translate(-107.58 -68.42)" fill="#5f5786"/><path d="M143.6,117.8a11,11,0,0,0,.7,1.7,5.8,5.8,0,0,1,.9,3.4,34,34,0,0,0,.6,7.2,11.26,11.26,0,0,0-2.6.9,4.93,4.93,0,0,1-5.1.1c0-4.5,1.8-10.2,2.2-12.8Z" transform="translate(-107.58 -68.42)" fill="#f15c47"/><path d="M139.8,115.3c.1-.4.2-.8.4-1.5s1.3-1.1,2.3-.9,1.3,1.8,1.3,2.8a9.55,9.55,0,0,0,.4,3.5c-1.2,1.1-3.2,1.6-4.4.9.1-1,.6-2.7.4-3.5C140.3,116.5,139.5,116.1,139.8,115.3Z" transform="translate(-107.58 -68.42)" fill="#5d8bc8"/><path d="M140.6,110.1v-.5c.1-1,1.6-.1,2,.7s-1.6,2.3-1.9,1.6a1.68,1.68,0,0,1-.2-1.5C140.5,110.3,140.6,110.3,140.6,110.1Z" transform="translate(-107.58 -68.42)" fill="#f7a8a9"/><path d="M142,108.6c1.1.3,1.5-.4,2,.9.5,1.1,1.3,0,1.8,1.3s0,.9.7,2a2.41,2.41,0,0,1-.3,2.5c-.2.6-.7,1-.1,1.9,0,0-2.3,0-2.1-1.6s-1.3-.8-1.2-1.8-1-.5-1-1.1-1-.8-.3-1.7c.4-.6-1.2-.9-1.1-1.6A1.16,1.16,0,0,1,142,108.6Z" transform="translate(-107.58 -68.42)" fill="#323647"/><path d="M141.7,110.5a.66.66,0,0,1-.1.6c-.1.1-.2.1-.2,0a1.15,1.15,0,0,1,0-.6S141.6,110.3,141.7,110.5Z" transform="translate(-107.58 -68.42)" fill="#f7a8a9"/><path d="M140.1,115.3c0-1.3.5-1.8.8-1.8.8,0,1.2.7,1.1,1.8a7.09,7.09,0,0,1-1.4,3.7c-.3.4-1-.8-.9-1.1S140,116.4,140.1,115.3Z" transform="translate(-107.58 -68.42)" fill="#f7a8a9"/><path d="M135.2,118.4c.3,0,.9,0,.8-.1s-.3-.3-.3-.4.1.2.4.2a3.6,3.6,0,0,1,.9.5s0,.7-.1.7a5.64,5.64,0,0,1-.7.1c-.2,0-.8.4-.8.3s-.5-.5-.5-.6.4-.6,0-.3-.7.2-.6.1A1.52,1.52,0,0,1,135.2,118.4Z" transform="translate(-107.58 -68.42)" fill="#f7a8a9"/><path d="M136.8,118.5c.6,0,2.3-.6,3-.7.3,0,1.4.8.8,1.2s-3.8.3-3.8.3C136.3,118.8,136.8,118.5,136.8,118.5Z" transform="translate(-107.58 -68.42)" fill="#f7a8a9"/><path d="M124,177.4l9.9-5.7a2.13,2.13,0,0,1,1.8,0l6.8,4a1.68,1.68,0,0,1,.9,1.7,1.94,1.94,0,0,1-1,1.7l-10,5.6a2.12,2.12,0,0,1-1.8,0l-6.8-3.9a1.94,1.94,0,0,1-1-1.7A2.2,2.2,0,0,1,124,177.4Z" transform="translate(-107.58 -68.42)" fill="#fff"/><path d="M133.9,171.7a1.42,1.42,0,0,1,.6-.2h.3a2.92,2.92,0,0,1,.9.2l6.8,4a1.76,1.76,0,0,1,.5.4,1.48,1.48,0,0,1,.4,1.3,2.06,2.06,0,0,1-1,1.7l-9.9,5.5a2.39,2.39,0,0,1-.9.2h-.3a1.42,1.42,0,0,1-.6-.2l-6.8-3.9a2.65,2.65,0,0,1-.6-.5,1.56,1.56,0,0,1-.3-1.2,2.06,2.06,0,0,1,1-1.7Z" transform="translate(-107.58 -68.42)" fill="#f9fbfc"/><path d="M133.9,171.8a1.42,1.42,0,0,1,.6-.2h.3a2.92,2.92,0,0,1,.9.2l6.7,3.9c.1.1.3.2.5.4a1.48,1.48,0,0,1,.4,1.3,2.14,2.14,0,0,1-1,1.6l-9.8,5.5a2.39,2.39,0,0,1-.9.2h-.3a1.42,1.42,0,0,1-.6-.2l-6.8-3.9a2.65,2.65,0,0,1-.6-.5,1.56,1.56,0,0,1-.3-1.2,2.14,2.14,0,0,1,1-1.6Z" transform="translate(-107.58 -68.42)" fill="#f6f6f6"/><path d="M134,171.8a1.42,1.42,0,0,1,.6-.2h.3a2.92,2.92,0,0,1,.9.2l6.7,3.9c.1.1.3.2.5.4a1.84,1.84,0,0,1,.4,1.3,2.14,2.14,0,0,1-1,1.6l-9.6,5.4a2.39,2.39,0,0,1-.9.2h-.3a1.42,1.42,0,0,1-.6-.2l-6.8-3.9a2.65,2.65,0,0,1-.6-.5,1.43,1.43,0,0,1-.3-1.1,2.14,2.14,0,0,1,1-1.6Z" transform="translate(-107.58 -68.42)" fill="#f3f2f3"/><path d="M134,171.9c.2-.1.4-.1.6-.2h.3a1.9,1.9,0,0,1,.9.3l6.6,3.9c.1.1.3.2.5.4a1.75,1.75,0,0,1,.4,1.2,2,2,0,0,1-1,1.5l-9.6,5.4a2.35,2.35,0,0,1-.8.2h-.3a1.42,1.42,0,0,1-.6-.2l-6.7-3.9a2.65,2.65,0,0,1-.6-.5,1.43,1.43,0,0,1-.3-1.1,2.27,2.27,0,0,1,1.1-1.6Z" transform="translate(-107.58 -68.42)" fill="#f1f0f1"/><path d="M134,171.9c.2-.1.4-.1.6-.2h.2a1.9,1.9,0,0,1,.9.3l6.6,3.8c.1.1.3.2.5.4a1.75,1.75,0,0,1,.4,1.2,2.3,2.3,0,0,1-1.1,1.5l-9.5,5.3a2.35,2.35,0,0,1-.8.2h-.2a.73.73,0,0,1-.6-.2l-6.7-3.9a1.47,1.47,0,0,1-.6-.5,1.13,1.13,0,0,1-.3-1.1,2.3,2.3,0,0,1,1.1-1.5Z" transform="translate(-107.58 -68.42)" fill="#edeced"/><path d="M134.1,172a1.27,1.27,0,0,1,.6-.1h.2a1.9,1.9,0,0,1,.9.3l6.5,3.8c.1.1.4.2.5.3a1.31,1.31,0,0,1,.3,1.2A2.3,2.3,0,0,1,142,179l-9.4,5.3a2.35,2.35,0,0,1-.8.2h-.2a1.27,1.27,0,0,1-.6-.1l-6.7-3.8a1.47,1.47,0,0,1-.6-.5,1.13,1.13,0,0,1-.3-1.1c0-.5.7-1.2,1.1-1.5Z" transform="translate(-107.58 -68.42)" fill="#ebe9ea"/><path d="M134.1,172a1.27,1.27,0,0,1,.6-.1h.2a2.61,2.61,0,0,1,.8.3l6.5,3.8a1.33,1.33,0,0,1,.5.3,1.31,1.31,0,0,1,.3,1.2c0,.5-.7,1.2-1.1,1.4l-9.3,5.2a2.61,2.61,0,0,1-.8.3h-.2a1.27,1.27,0,0,1-.6-.1l-6.7-3.8c-.1-.1-.5-.3-.6-.5a.91.91,0,0,1-.2-1.1c0-.5.7-1.2,1.1-1.4Z" transform="translate(-107.58 -68.42)" fill="#e9e7e8"/><path d="M134.1,172.1a1.27,1.27,0,0,1,.6-.1h.2a2.61,2.61,0,0,1,.8.3l6.4,3.7a1.33,1.33,0,0,1,.5.3,1.31,1.31,0,0,1,.3,1.2,2.49,2.49,0,0,1-1.1,1.4l-9.2,5.1a2.61,2.61,0,0,1-.8.3h-.2a1.27,1.27,0,0,1-.6-.1l-6.6-3.8c-.1-.1-.5-.3-.6-.5a.91.91,0,0,1-.2-1.1c0-.4.8-1.2,1.2-1.4Z" transform="translate(-107.58 -68.42)" fill="#e8e5e5"/><path d="M134.1,172.2a1.27,1.27,0,0,1,.6-.1h.2a2.61,2.61,0,0,1,.8.3l6.3,3.7c.1,0,.4.2.4.3a1.31,1.31,0,0,1,.3,1.2c0,.4-.8,1.1-1.1,1.3l-9.1,5.1a1.91,1.91,0,0,1-.8.3h-.2a1.27,1.27,0,0,1-.6-.1l-6.6-3.8c-.1-.1-.5-.3-.6-.4a.91.91,0,0,1-.2-1.1c0-.4.8-1.2,1.2-1.4Z" transform="translate(-107.58 -68.42)" fill="#e5e3e4"/><path d="M134.2,172.2a1.27,1.27,0,0,1,.6-.1h.2a2.61,2.61,0,0,1,.8.3l6.3,3.7c.1,0,.4.2.4.3a.94.94,0,0,1,.2,1.1c0,.4-.8,1.1-1.2,1.3l-9,5.1a1.91,1.91,0,0,1-.8.3h-.2a1.27,1.27,0,0,1-.6-.1l-6.6-3.8a2.09,2.09,0,0,1-.6-.4.91.91,0,0,1-.2-1.1c0-.4.9-1.1,1.2-1.3Z" transform="translate(-107.58 -68.42)" fill="#e1e0e2"/><path d="M134.2,172.3a1.09,1.09,0,0,1,.5-.1h.2a4.12,4.12,0,0,1,.8.3l6.2,3.6c.1,0,.4.2.4.3a.94.94,0,0,1,.2,1.1c0,.4-.9,1.1-1.2,1.2l-8.9,5a1.91,1.91,0,0,1-.8.3h-.2a1.27,1.27,0,0,1-.6-.1l-6.6-3.8a2.09,2.09,0,0,1-.6-.4.89.89,0,0,1-.2-1.1c0-.4.9-1.1,1.2-1.3Z" transform="translate(-107.58 -68.42)" fill="#e0dee0"/><path d="M134.2,172.3a1.09,1.09,0,0,1,.5-.1h.2a4.12,4.12,0,0,1,.8.3l6.2,3.6c.1,0,.4.2.4.3a.94.94,0,0,1,.2,1.1c0,.3-.9,1-1.2,1.2l-8.8,5c-.1,0-.6.3-.7.3h-.2a.75.75,0,0,1-.5-.1l-6.5-3.7a2.09,2.09,0,0,1-.6-.4.78.78,0,0,1-.2-1c0-.3,1-1.1,1.3-1.3Z" transform="translate(-107.58 -68.42)" fill="#dcdcdd"/><path d="M134.3,172.4a1.09,1.09,0,0,1,.5-.1h.2a2.61,2.61,0,0,1,.8.3l6.1,3.6c.1,0,.4.2.4.3a.91.91,0,0,1,.2,1.1c0,.3-.9,1-1.2,1.2l-8.7,4.9c-.1,0-.6.3-.7.3h-.2a.75.75,0,0,1-.5-.1l-6.5-3.7a2.09,2.09,0,0,1-.6-.4.67.67,0,0,1-.1-1c0-.3,1-1.1,1.3-1.2Z" transform="translate(-107.58 -68.42)" fill="#dbdadb"/><path d="M134.3,172.4a1.09,1.09,0,0,1,.5-.1h.2c.1,0,.7.3.8.3l6.1,3.5s.4.2.4.3a.91.91,0,0,1,.2,1.1c0,.3-1,1-1.2,1.1l-8.6,4.9c-.1,0-.6.3-.7.3h-.2a.75.75,0,0,1-.5-.1l-6.5-3.7a2.09,2.09,0,0,1-.6-.4.67.67,0,0,1-.1-1c0-.3,1.1-1,1.3-1.2Z" transform="translate(-107.58 -68.42)" fill="#d6d7d8"/><path d="M134.3,172.5a.45.45,0,0,1,.5,0h.2a4.88,4.88,0,0,1,.7.3l6,3.5s.4.2.4.3a.78.78,0,0,1,.1,1.1c0,.2-1,1-1.2,1.1l-8.5,4.8c-.1,0-.6.3-.7.3h-.2a.75.75,0,0,1-.5-.1l-6.4-3.7a2.09,2.09,0,0,1-.6-.4.76.76,0,0,1-.1-1c0-.2,1.1-1,1.3-1.2Z" transform="translate(-107.58 -68.42)" fill="#d4d5d7"/><path d="M134.3,172.5a.45.45,0,0,1,.5,0h.2a4.88,4.88,0,0,1,.7.3l5.9,3.5s.4.2.4.3a.67.67,0,0,1,.1,1c0,.2-1.1.9-1.3,1l-8.4,4.8c-.1,0-.6.3-.7.3H131l-6.4-3.7a6.13,6.13,0,0,1-.6-.4.76.76,0,0,1-.1-1c0-.2,1.2-1,1.3-1.1Z" transform="translate(-107.58 -68.42)" fill="#d3d2d4"/><path d="M134.4,172.5a.45.45,0,0,1,.5,0l.2.1a4.88,4.88,0,0,1,.7.3l5.9,3.4s.4.2.4.3a.67.67,0,0,1,.1,1c0,.2-1.1.9-1.3,1l-8.3,4.7a4.88,4.88,0,0,1-.7.3s-.2.1-.2,0h-.5l-6.4-3.7s-.6-.3-.6-.4a.76.76,0,0,1-.1-1c0-.2,1.2-1,1.4-1.1Z" transform="translate(-107.58 -68.42)" fill="#d1d1d3"/><path d="M134.4,172.6a.45.45,0,0,1,.5,0l.2.1.7.3,5.8,3.4s.4.2.4.3a.67.67,0,0,1,.1,1,14.7,14.7,0,0,1-1.3,1l-8.3,4.6a4.88,4.88,0,0,1-.7.3l-.2.1h-.5l-6.4-3.6s-.6-.3-.6-.4a.76.76,0,0,1-.1-1,7.1,7.1,0,0,1,1.4-1Z" transform="translate(-107.58 -68.42)" fill="#cecfd0"/><path d="M134.4,172.7a.45.45,0,0,1,.5,0l.2.1s.7.3.7.4l5.8,3.4s.4.2.4.3a.61.61,0,0,1,0,1,6,6,0,0,1-1.3.9l-8.2,4.6a4.88,4.88,0,0,1-.7.3l-.2.1h-.5l-6.3-3.6s-.6-.3-.6-.4a.67.67,0,0,1,0-1,17,17,0,0,1,1.4-1Z" transform="translate(-107.58 -68.42)" fill="#c9cbce"/><path d="M134.5,172.7a.45.45,0,0,1,.5,0l.2.1s.7.3.7.4l5.7,3.4s.4.2.4.3a.67.67,0,0,1,0,1,14.63,14.63,0,0,1-1.3.9l-8.1,4.5a4.88,4.88,0,0,1-.7.3l-.2.1h-.5l-6.3-3.6s-.6-.3-.6-.4a.67.67,0,0,1,0-1c0-.1,1.4-.9,1.4-1Z" transform="translate(-107.58 -68.42)" fill="#c8c7ca"/><path d="M134.5,172.8a.45.45,0,0,1,.5,0l.2.1.7.4,5.7,3.4.4.2a.67.67,0,0,1,0,1l-1.3.8-8,4.5-.6.3-.2.1c-.1.1-.3,0-.5,0l-6.3-3.6s-.6-.3-.6-.4a.67.67,0,0,1,0-1s1.4-.9,1.5-.9Z" transform="translate(-107.58 -68.42)" fill="#c5c6ca"/><path d="M134.5,172.8a.45.45,0,0,1,.5,0l.2.1.7.4,5.6,3.3.4.2a.67.67,0,0,1,0,1s-1.3.8-1.4.8l-7.9,4.4-.6.3-.2.1a.45.45,0,0,1-.5,0l-6.3-3.6s-.6-.3-.6-.4a.56.56,0,0,1,0-.9l1.5-.9Z" transform="translate(-107.58 -68.42)" fill="#c4c4c8"/><path d="M134.5,172.9a.45.45,0,0,1,.5,0l6.8,4a.56.56,0,0,1,0,.9l-9.9,5.6a.45.45,0,0,1-.5,0l-6.8-3.9a.56.56,0,0,1,0-.9Z" transform="translate(-107.58 -68.42)" fill="#c3c2c5"/><path d="M124.6,169.9l6.8,3.9a.45.45,0,0,0,.5,0l10-5.6c.3-.1.3-.5.2-.8a.52.52,0,0,1,.2.4v9.3a.75.75,0,0,1-.4.7l-9.8,5.5a.85.85,0,0,1-.7,0l-6.8-3.9a.84.84,0,0,1-.4-.7v-9.2a.76.76,0,0,1,.2-.5A.63.63,0,0,0,124.6,169.9Z" transform="translate(-107.58 -68.42)" fill="#c2c3cf"/><path d="M131.7,176.2l10.5-5.9v1.3l-10.5,5.9a.64.64,0,0,1-.6,0l-6.9-4v-1.3l6.9,4A.63.63,0,0,0,131.7,176.2Z" transform="translate(-107.58 -68.42)" fill="url(#stats2b_linear-gradient-2"/><path d="M131.7,179.6l10.5-5.9V175l-10.5,6a.64.64,0,0,1-.6,0l-6.9-4v-1.3l6.9,4C131.3,179.7,131.6,179.8,131.7,179.6Z" transform="translate(-107.58 -68.42)" fill="url(#stats2b_linear-gradient-3"/><path d="M134.5,163.3a.45.45,0,0,1,.5,0l6.8,4a.56.56,0,0,1,0,.9l-10,5.6a.45.45,0,0,1-.5,0l-6.8-3.9a.56.56,0,0,1,0-.9Z" transform="translate(-107.58 -68.42)" fill="#f0eef1"/></svg>