<?xml version="1.0" encoding="utf-8"?>
<!-- Generator: Adobe Illustrator 25.1.0, SVG Export Plug-In . SVG Version: 6.00 Build 0)  -->
<svg version="1.1" id="stats2_Layer_1" xmlns="http://www.w3.org/2000/svg" xmlns:xlink="http://www.w3.org/1999/xlink" x="0px" y="0px"
	 viewBox="0 0 442.3 339.9" style="enable-background:new 0 0 442.3 339.9;" xml:space="preserve">
<style type="text/css">
	.st0{fill:#4E5262;}
	.st1{fill:#FFFFFF;}
	.st2{fill:#FAFAFA;}
	.st3{fill:#F7F6F7;}
	.st4{fill:#F4F3F4;}
	.st5{fill:#F1F0F1;}
	.st6{fill:#EEEEEE;}
	.st7{fill:#ECEBEC;}
	.st8{fill:#E9E8EA;}
	.st9{fill:#E7E6E7;}
	.st10{fill:#E4E3E5;}
	.st11{fill:#E1E1E3;}
	.st12{fill:#DFDFE1;}
	.st13{fill:#DCDCDE;}
	.st14{fill:#DADADC;}
	.st15{fill:#D7D7DA;}
	.st16{fill:#D5D5D8;}
	.st17{fill:#D2D3D5;}
	.st18{fill:#D0D0D3;}
	.st19{fill:#CDCED1;}
	.st20{fill:#CBCCCF;}
	.st21{fill:#C9C9CD;}
	.st22{fill:#C6C7CB;}
	.st23{fill:#C4C5C9;}
	.st24{fill:#C2C3C7;}
	.st25{fill:#C4C5D0;}
	.st26{fill:#F0EFF3;}
	.st27{fill:url(#stats2_SVGID_1_;}
	.st28{fill:url(#stats2_SVGID_2_;}
	.st29{fill:#FFD55D;}
	.st30{fill:#F9A81F;}
	.st31{fill:#FAC2C2;}
	.st32{fill:#5E5E77;}
	.st33{fill:#434359;}
	.st34{fill:#55556C;}
	.st35{fill:url(#stats2_SVGID_3_;}
	.st36{fill:#CC9370;}
	.st37{fill:#313546;}
	.st38{fill:#F04E4E;}
	.st39{fill:url(#stats2_SVGID_4_;}
	.st40{clip-path:url(#stats2_SVGID_6_;}
	.st41{fill:#F7CA43;}
	.st42{fill:#66BD5B;}
	.st43{fill:#79C264;}
	.st44{fill:#5ABA54;}
	.st45{fill:#C72F2E;}
	.st46{fill:url(#stats2_SVGID_7_;}
	.st47{fill:#A42525;}
	.st48{fill:url(#stats2_SVGID_8_;}
	.st49{fill:url(#stats2_SVGID_9_;}
	.st50{fill:#4C60AC;}
	.st51{opacity:0.71;fill:url(#stats2_SVGID_10_;enable-background:new    ;}
	.st52{fill:#6D6D8C;}
	.st53{fill:url(#stats2_SVGID_11_;}
	.st54{fill:url(#stats2_SVGID_12_;}
	.st55{fill:url(#stats2_SVGID_14_;}
	.st56{fill:url(#stats2_SVGID_15_;}
	.st57{fill:#AE2627;}
	.st58{fill:url(#stats2_SVGID_16_;}
	.st59{fill:url(#stats2_SVGID_17_;}
	.st60{fill:url(#stats2_SVGID_18_;}
	.st61{opacity:0.3;fill:#FFFFFF;enable-background:new    ;}
	.st62{opacity:0.25;fill:#FFFFFF;enable-background:new    ;}
	.st63{fill:#F7A8A9;}
	.st64{fill:#5E5686;}
	.st65{fill:#F15B46;}
	.st66{fill:#5D8CC9;}
	.st67{fill:url(#stats2_SVGID_19_;}
	.st68{fill:url(#stats2_SVGID_20_;}
	.st69{fill:url(#stats2_SVGID_21_;}
	.st70{fill:url(#stats2_SVGID_22_;}
</style>
<g>
	<g>
		<path class="st0" d="M265.4,144.7v71.8c0,0.1-0.1,0.2-0.2,0.1L200.6,181c-0.7-0.4-1.5-0.4-2.2,0l-6.6,3.6l-2.8,1.6
			c-0.4,0.2-0.9,0.3-1.4,0.1l-36.6-18.9c-0.7-0.4-1.2-1.2-1.2-2c0-0.8,0.4-1.6,1.2-2l21.6-12.6l0.2-0.1l1.2-0.6
			c0.1-0.1,0.3-0.2,0.4-0.3c0.5-0.4,0.9-0.9,1-1.5v0c0.1-0.3,0.1-0.6,0.1-0.9c0-1.1-0.6-2.1-1.6-2.7l-71-39
			c-1.1-0.6-1.7-1.7-1.7-2.9s0.6-2.3,1.7-2.9l2.1-1.2c1.3-0.7,2.1-2.1,2.1-3.5h-0.8c0,1.2-0.7,2.3-1.7,2.9l-2,1.1
			c-1.2,0.7-2.1,1.9-2.2,3.3c-0.1,1.6,0.7,3.1,2.1,3.8l71,39c0.7,0.4,1.2,1.2,1.2,2c0,0.7-0.3,1.3-0.8,1.7l0,0l-2,1.1l-0.1,0
			l-21.3,12.4c-0.5,0.3-0.9,0.7-1.2,1.3c-0.2,0.4-0.3,0.9-0.3,1.4c0,1.1,0.6,2.1,1.6,2.6l1.8,1.1l34.7,17.8l0.1,0
			c0.6,0.3,1.2,0.3,1.8,0.1c0.1,0,0.2-0.1,0.3-0.1l3.4-1.9l6.1-3.3c0.5-0.3,1-0.3,1.5,0l64.8,35.7c1.1,0.4,1.3-0.4,1.4-0.8v-71.9
			L265.4,144.7L265.4,144.7z"/>
		<polygon class="st0" points="266.4,206.2 266.4,207 265.4,207.6 265.4,206.7 		"/>
	</g>
	<g>
		<g>
			<path class="st1" d="M19.2,93.7l66.9-37.2c0.8-0.4,1.6-0.7,2.4-0.7c0.9,0,1.7,0.2,2.5,0.7l79.8,42.9c1.6,0.9,2.6,2.7,2.6,4.6
				c0,1.9-1,3.6-2.6,4.6l-66.9,37c-0.7,0.4-1.6,0.6-2.4,0.6c-0.9,0-1.7-0.2-2.5-0.7l-79.8-42.7c-1.6-0.9-2.6-2.7-2.6-4.6
				S17.6,94.6,19.2,93.7z"/>
			<path class="st2" d="M86.2,56.6c0.4-0.3,0.9-0.4,1.4-0.5c0.3-0.1,0.7-0.1,1.1-0.1c0.8,0,1.8,0.3,2.5,0.7l79.7,42.9
				c1,0.6,1.7,1.5,2.1,2.6c0.2,0.6,0.3,1.3,0.3,1.9c0,1.8-1.2,3.6-2.7,4.4l-66.6,36.8c-0.7,0.4-1.6,0.7-2.4,0.7c-0.3,0-0.7,0-1-0.1
				c-0.5-0.1-1-0.3-1.5-0.5l-79.6-42.6c-1.5-0.9-2.7-2.7-2.7-4.5c0-1.1,0.3-2.1,0.9-3c0.4-0.6,1-1.2,1.7-1.6L86.2,56.6z"/>
			<path class="st3" d="M86.3,56.7c0.4-0.3,0.9-0.4,1.4-0.5c0.3-0.1,0.7-0.1,1.1-0.1c0.8,0,1.8,0.3,2.5,0.7l79.5,42.8
				c1,0.6,1.7,1.6,2,2.6c0.2,0.6,0.2,1.3,0.2,1.9c0,1.7-1.3,3.5-2.8,4.4l-66.2,36.6c-0.7,0.4-1.6,0.7-2.4,0.7c-0.3,0-0.7,0-0.9-0.1
				c-0.5-0.1-1-0.3-1.5-0.5l-79.4-42.5c-1.5-0.8-2.8-2.7-2.8-4.4c-0.1-1,0.2-2.1,0.8-2.9c0.4-0.6,1.1-1.2,1.7-1.6L86.3,56.7z"/>
			<path class="st4" d="M86.3,56.9c0.4-0.3,0.9-0.4,1.4-0.5c0.3-0.1,0.7,0,1,0c0.8,0,1.8,0.4,2.5,0.8l79.4,42.7
				c1,0.6,1.7,1.6,1.9,2.6c0.2,0.5,0.1,1.2,0.1,1.8c0,1.7-1.4,3.5-2.8,4.3L104,144.9c-0.6,0.4-1.6,0.7-2.3,0.7c-0.3,0-0.7,0-0.9,0
				c-0.5-0.1-1-0.2-1.5-0.5L20,102.7c-1.4-0.8-2.8-2.7-2.8-4.3c-0.1-1,0.2-2.1,0.8-2.9c0.4-0.6,1.1-1.2,1.7-1.5L86.3,56.9z"/>
			<path class="st5" d="M86.4,57c0.4-0.3,0.9-0.4,1.4-0.4c0.3-0.1,0.7,0,1,0c0.7,0,1.8,0.4,2.4,0.8l79.3,42.7c1,0.6,1.6,1.6,1.8,2.6
				c0.2,0.5,0,1.2,0,1.8c0,1.6-1.6,3.4-2.9,4.2L104,144.7c-0.6,0.3-1.6,0.7-2.3,0.7c-0.3,0-0.7,0.1-0.9,0c-0.5-0.1-1-0.2-1.5-0.5
				l-79-42.3c-1.3-0.8-2.9-2.6-2.9-4.2c-0.2-1,0.1-2.1,0.8-2.9c0.4-0.5,1.2-1.2,1.8-1.5L86.4,57z"/>
			<path class="st6" d="M86.5,57.2c0.4-0.3,0.9-0.4,1.4-0.4c0.3-0.1,0.7,0,1,0c0.7,0,1.8,0.4,2.4,0.8l79.1,42.6
				c1,0.6,1.6,1.6,1.7,2.6c0.2,0.5,0,1.2-0.1,1.8c0,1.5-1.7,3.3-3,4.1l-65.1,36c-0.6,0.3-1.6,0.7-2.3,0.7c-0.3,0-0.7,0.1-0.9,0
				c-0.5,0-1-0.2-1.5-0.4l-78.8-42.2c-1.3-0.7-3-2.6-3-4.1c-0.2-1,0-2.1,0.7-2.9c0.3-0.5,1.2-1.2,1.8-1.5L86.5,57.2z"/>
			<path class="st7" d="M86.6,57.3c0.4-0.3,0.9-0.4,1.4-0.4c0.3-0.1,0.8,0,1,0c0.7,0,1.9,0.5,2.4,0.8l79,42.5c1,0.6,1.6,1.6,1.6,2.6
				c0.2,0.5-0.1,1.2-0.1,1.7c0,1.4-1.9,3.3-3,4l-64.8,35.8c-0.6,0.3-1.7,0.7-2.3,0.7c-0.2,0-0.7,0.1-0.9,0c-0.5,0-1-0.2-1.4-0.4
				l-78.6-42.1c-1.2-0.7-3.1-2.6-3.1-4c-0.3-0.9,0-2.1,0.7-2.9c0.3-0.5,1.3-1.2,1.8-1.5L86.6,57.3z"/>
			<path class="st8" d="M86.7,57.5c0.4-0.3,0.9-0.4,1.4-0.4c0.2,0,0.8,0.1,1,0.1c0.6,0,1.9,0.5,2.4,0.8l78.9,42.4
				c1,0.6,1.5,1.7,1.5,2.6c0.2,0.4-0.2,1.2-0.2,1.7c0,1.3-2,3.2-3.1,3.9l-64.4,35.6c-0.5,0.3-1.7,0.8-2.3,0.8
				c-0.2,0-0.7,0.1-0.9,0.1c-0.5,0-1-0.1-1.4-0.4l-78.4-42c-1.1-0.7-3.2-2.6-3.2-3.9c-0.3-0.9-0.1-2.1,0.6-2.8
				c0.3-0.4,1.3-1.2,1.8-1.4L86.7,57.5z"/>
			<path class="st9" d="M86.7,57.6c0.4-0.3,0.9-0.4,1.4-0.3c0.2,0,0.8,0.1,1,0.1c0.6,0,1.9,0.6,2.4,0.9l78.7,42.4
				c1,0.6,1.5,1.7,1.4,2.6c0.2,0.4-0.3,1.2-0.3,1.6c0,1.2-2.1,3.2-3.2,3.8l-64,35.4c-0.5,0.3-1.7,0.8-2.2,0.8
				c-0.2,0-0.7,0.1-0.9,0.1c-0.5,0-1-0.1-1.4-0.4l-78.2-41.9c-1-0.6-3.3-2.6-3.3-3.8c-0.3-0.9-0.1-2.1,0.6-2.8
				c0.3-0.4,1.3-1.2,1.8-1.4L86.7,57.6z"/>
			<path class="st10" d="M86.8,57.7c0.4-0.3,0.9-0.4,1.4-0.3c0.2,0,0.8,0.1,1,0.1c0.5,0,1.9,0.6,2.4,0.9l78.6,42.3
				c1,0.6,1.4,1.7,1.3,2.6c0.1,0.4-0.4,1.1-0.4,1.6c0,1.2-2.3,3.1-3.3,3.7l-63.7,35.2c-0.4,0.3-1.7,0.8-2.2,0.8
				c-0.2,0-0.7,0.1-0.9,0.1c-0.5,0-1-0.1-1.4-0.3l-78-41.8c-1-0.6-3.4-2.6-3.4-3.7c-0.4-0.9-0.2-2.1,0.5-2.8
				c0.3-0.4,1.4-1.2,1.8-1.4L86.8,57.7z"/>
			<path class="st11" d="M86.9,57.9c0.4-0.3,0.9-0.3,1.4-0.3c0.2,0,0.8,0.1,1,0.1c0.5,0,1.9,0.7,2.4,0.9l78.5,42.2
				c1,0.6,1.4,1.7,1.2,2.6c0.1,0.3-0.5,1.1-0.5,1.5c0,1.1-2.4,3.1-3.3,3.6l-63.3,35c-0.4,0.2-1.7,0.8-2.2,0.8
				c-0.2,0-0.7,0.2-0.9,0.1c-0.5,0-1-0.1-1.4-0.3l-77.8-41.7c-0.9-0.5-3.5-2.6-3.4-3.7c-0.4-0.8-0.2-2.1,0.5-2.8
				c0.3-0.4,1.4-1.2,1.8-1.4L86.9,57.9z"/>
			<path class="st12" d="M87,58c0.4-0.3,0.9-0.3,1.4-0.3c0.2,0,0.8,0.2,1,0.2c0.5,0,2,0.7,2.3,0.9L170,101c1,0.6,1.4,1.7,1.1,2.6
				c0.1,0.3-0.5,1.1-0.5,1.4c0,1-2.5,3-3.4,3.5l-62.9,34.8c-0.4,0.2-1.7,0.8-2.2,0.8c-0.2,0-0.7,0.2-0.9,0.1c-0.5,0.1-1,0-1.4-0.3
				l-77.6-41.6c-0.8-0.5-3.5-2.6-3.5-3.6c-0.5-0.8-0.3-2.1,0.5-2.8c0.2-0.3,1.5-1.1,1.8-1.3L87,58z"/>
			<path class="st13" d="M87.1,58.2c0.4-0.3,0.9-0.3,1.4-0.3c0.2,0,0.8,0.2,1,0.2c0.4,0,2,0.7,2.3,0.9l78.2,42.1
				c1,0.6,1.3,1.8,1,2.6c0.1,0.3-0.6,1.1-0.6,1.4c0,0.9-2.7,2.9-3.4,3.4l-62.6,34.6c-0.3,0.2-1.7,0.9-2.1,0.9
				c-0.2,0-0.7,0.2-0.9,0.2c-0.5,0.1-1,0-1.4-0.3l-77.4-41.4c-0.8-0.4-3.6-2.6-3.6-3.5c-0.5-0.8-0.3-2.1,0.4-2.8
				c0.2-0.3,1.5-1.1,1.8-1.3L87.1,58.2z"/>
			<path class="st14" d="M87.1,58.3c0.4-0.3,0.9-0.3,1.4-0.2c0.2,0,0.8,0.2,1,0.2c0.4,0,2,0.8,2.3,1l78.1,42c1,0.6,1.3,1.8,0.9,2.6
				c0.1,0.3-0.7,1.1-0.7,1.3c0,0.8-2.8,2.9-3.5,3.3l-62.2,34.4c-0.3,0.2-1.8,0.9-2.1,0.9c-0.1,0-0.7,0.2-0.8,0.2
				c-0.5,0.1-1,0-1.4-0.3l-77.2-41.3c-0.7-0.4-3.7-2.5-3.7-3.4c-0.5-0.8-0.4-2,0.4-2.7c0.2-0.3,1.5-1.1,1.8-1.3L87.1,58.3z"/>
			<path class="st15" d="M87.2,58.5c0.4-0.3,0.9-0.3,1.4-0.2c0.1,0,0.8,0.2,0.9,0.2c0.3,0,2,0.8,2.3,1l77.9,41.9
				c1,0.6,1.3,1.8,0.8,2.6c0.1,0.2-0.8,1-0.8,1.3c0,0.7-2.9,2.8-3.6,3.2l-61.8,34.2c-0.3,0.2-1.8,0.9-2.1,0.9
				c-0.1,0-0.7,0.2-0.8,0.2c-0.5,0.1-1,0-1.4-0.2l-77-41.2c-0.6-0.4-3.8-2.5-3.8-3.3c-0.6-0.8-0.5-2,0.4-2.7
				c0.2-0.3,1.6-1.1,1.9-1.3L87.2,58.5z"/>
			<path class="st16" d="M87.3,58.6c0.4-0.3,0.9-0.3,1.4-0.2c0.1,0,0.8,0.3,0.9,0.3c0.3,0,2,0.8,2.3,1l77.8,41.9
				c1,0.6,1.2,1.8,0.8,2.6c0.1,0.2-0.9,1-0.9,1.3c0,0.7-3.1,2.8-3.6,3.1l-61.5,34c-0.3,0.1-1.8,0.9-2.1,0.9c-0.1,0-0.7,0.3-0.8,0.2
				c-0.4,0.1-1,0.1-1.4-0.2l-76.8-41.1c-0.6-0.3-3.9-2.5-3.9-3.2c-0.6-0.7-0.5-2,0.3-2.7c0.2-0.2,1.6-1.1,1.9-1.3L87.3,58.6z"/>
			<path class="st17" d="M87.3,58.8c0.4-0.2,0.9-0.3,1.4-0.2c0.1,0,0.8,0.3,0.9,0.3c0.3,0,2.1,0.9,2.3,1l77.7,41.8
				c1,0.6,1.2,1.8,0.6,2.6c0.1,0.2-0.9,1-1,1.2c0,0.6-3.2,2.7-3.7,3l-61.1,33.7c-0.2,0.1-1.8,0.9-2.1,0.9c-0.1,0-0.7,0.3-0.8,0.3
				c-0.4,0.1-1,0.1-1.4-0.2l-76.6-41c-0.5-0.3-4-2.5-4-3.1c-0.7-0.7-0.6-2,0.3-2.7c0.1-0.2,1.7-1.1,1.9-1.2L87.3,58.8z"/>
			<path class="st18" d="M87.4,58.9c0.4-0.2,0.9-0.3,1.4-0.1c0.1,0,0.8,0.3,0.9,0.3c0.2,0,2.1,0.9,2.3,1l77.5,41.7
				c1,0.6,1.2,1.9,0.6,2.5c0.1,0.2-1,1-1,1.2c0,0.5-3.4,2.7-3.8,2.9L104.5,142c-0.2,0.1-1.8,0.9-2,0.9c-0.1,0-0.7,0.3-0.8,0.3
				c-0.4,0.1-0.9,0.1-1.4-0.1l-76.4-40.9c-0.4-0.2-4-2.5-4-3c-0.7-0.7-0.6-2,0.2-2.7c0.1-0.2,1.7-1.1,1.9-1.2L87.4,58.9z"/>
			<path class="st19" d="M87.5,59c0.4-0.2,0.9-0.3,1.4-0.1c0.1,0,0.8,0.3,0.9,0.3c0.2,0,2.1,1,2.3,1.1l77.4,41.7
				c1,0.6,1.1,1.9,0.5,2.5c0.1,0.1-1.1,0.9-1.1,1.1c0,0.4-3.5,2.6-3.9,2.8l-60.4,33.4c-0.2,0.1-1.8,1-2,1c-0.1,0-0.7,0.3-0.8,0.3
				c-0.4,0.2-0.9,0.1-1.4-0.1l-76.2-40.8c-0.3-0.2-4.1-2.5-4.1-2.9c-0.8-0.7-0.7-2,0.2-2.6c0.1-0.1,1.8-1.1,1.9-1.2L87.5,59z"/>
			<path class="st20" d="M87.6,59.2c0.4-0.2,0.9-0.3,1.4-0.1c0.1,0,0.8,0.4,0.9,0.4c0.2,0,2.1,1,2.3,1.1l77.3,41.6
				c1,0.6,1.1,1.9,0.4,2.5c0,0.1-1.2,0.9-1.2,1.1c0,0.3-3.6,2.6-3.9,2.7l-60,33.1c-0.1,0.1-1.8,1-2,1c-0.1,0-0.7,0.3-0.8,0.3
				c-0.4,0.2-0.9,0.1-1.4-0.1l-76-40.7c-0.3-0.2-4.2-2.5-4.2-2.8c-0.8-0.7-0.7-2,0.2-2.6c0.1-0.1,1.8-1.1,1.9-1.2L87.6,59.2z"/>
			<path class="st21" d="M87.7,59.3c0.4-0.2,0.9-0.3,1.4-0.1c0.1,0,0.8,0.4,0.9,0.4c0.1,0,2.1,1.1,2.2,1.1l77.1,41.5
				c1,0.6,1.1,1.9,0.3,2.5c0,0.1-1.3,0.9-1.3,1c0,0.3-3.8,2.5-4,2.6l-59.7,33c-0.1,0.1-1.8,1-2,1c0,0-0.8,0.4-0.8,0.4
				c-0.4,0.2-0.9,0.2-1.4-0.1l-75.8-40.6c-0.2-0.1-4.3-2.5-4.3-2.7c-0.8-0.6-0.8-2,0.1-2.6c0.1-0.1,1.8-1.1,1.9-1.2L87.7,59.3z"/>
			<path class="st22" d="M87.7,59.5c0.4-0.2,0.9-0.3,1.4,0c0,0,0.9,0.4,0.9,0.4c0.1,0,2.2,1.1,2.2,1.1l77,41.4c1,0.6,1,1.9,0.2,2.5
				c0,0.1-1.4,0.9-1.4,0.9c0,0.2-3.9,2.4-4.1,2.5l-59.3,32.7c-0.1,0-1.9,1-1.9,1c0,0-0.8,0.4-0.8,0.4c-0.4,0.2-0.9,0.2-1.4-0.1
				L25,102c-0.1-0.1-4.4-2.5-4.4-2.6c-0.9-0.6-0.8-2,0.1-2.6c0-0.1,1.9-1.1,1.9-1.1L87.7,59.5z"/>
			<path class="st23" d="M87.8,59.6c0.4-0.2,0.9-0.3,1.4,0c0,0,0.9,0.5,0.9,0.5c0,0,2.2,1.1,2.2,1.2l76.9,41.4c1,0.6,1,2,0.1,2.5
				c0,0-1.4,0.9-1.4,0.9c0,0.1-4.1,2.4-4.1,2.4L104.7,141c0,0-1.9,1-1.9,1c0,0-0.8,0.4-0.8,0.4c-0.4,0.2-0.9,0.2-1.3,0L25.2,102
				c-0.1,0-4.5-2.4-4.5-2.5c-0.9-0.6-0.9-2,0-2.6c0,0,1.9-1.1,2-1.1L87.8,59.6z"/>
			<path class="st24" d="M87.9,59.8c0.4-0.2,0.9-0.2,1.4,0l79.8,43c0.9,0.6,0.9,2,0,2.5l-66.9,37c-0.4,0.2-0.9,0.2-1.3,0L21,99.5
				c-1-0.6-1-2,0-2.5L87.9,59.8z"/>
		</g>
		<path class="st25" d="M168.9,102.5L90.4,60.4c-1.6-0.8-3.5-0.8-5,0L20.5,96c-1.3,0.7-1.3,2.6,0,3.4l77.8,42.2c1.6,0.9,3.5,0.9,5,0
			l65.5-35.7C170.2,105.2,170.2,103.3,168.9,102.5z"/>
		<polygon class="st25" points="19.5,94.1 169.9,100.6 169.9,104.3 19.5,97.8 		"/>
		<path class="st1" d="M168.9,98.8L90.4,56.6c-1.6-0.8-3.5-0.8-5,0L20.5,92.3c-1.3,0.7-1.3,2.6,0,3.4l77.8,42.2c1.6,0.9,3.5,0.9,5,0
			l65.5-35.7C170.2,101.4,170.2,99.5,168.9,98.8z"/>
		<path class="st26" d="M20.5,95.2l9.2,5.1l68.6,37c1.6,0.9,3.5,0.9,5,0l56.4-30.7l7.2-3.9l1.9-1c1.3-0.7,1.3-2.7,0-3.4L90.4,56.1
			c-1.6-0.8-3.5-0.8-5,0L29.2,86.9l-8.7,4.9C19.2,92.5,19.2,94.4,20.5,95.2z"/>
	</g>
	<g>
		<g>
			<g>
				<path class="st1" d="M190,43.6l14.1-8.3c0.6-0.3,1.2-0.5,1.9-0.5c0.6,0,1.3,0.2,1.9,0.5L228.2,47c1.2,0.7,2,2,2,3.5
					c0,1.4-0.8,2.8-2,3.5L214.2,62c-0.6,0.3-1.2,0.5-1.9,0.5c-0.6,0-1.3-0.2-1.8-0.5L190,50.5c-1.2-0.7-2-2-2-3.5
					C188,45.6,188.7,44.3,190,43.6z"/>
				<path class="st2" d="M204.1,35.4c0.4-0.2,0.8-0.4,1.3-0.5c0.2,0,0.4,0,0.6,0c0.6,0,1.3,0.2,1.8,0.5L228,47c1.2,0.7,2,2,2,3.4
					c0,1-0.3,1.9-0.9,2.6c-0.3,0.3-0.6,0.6-1,0.8l-13.9,8c-0.5,0.3-1.2,0.5-1.8,0.5c-0.2,0-0.4,0-0.6,0c-0.4-0.1-0.9-0.2-1.2-0.4
					l-20.3-11.5c-1.2-0.7-2-2-2-3.4c0-0.8,0.2-1.7,0.7-2.4c0.3-0.4,0.7-0.8,1.2-1.1L204.1,35.4z"/>
				<path class="st3" d="M204.1,35.5c0.4-0.2,0.8-0.4,1.3-0.4c0.2,0,0.4,0,0.6,0c0.6,0,1.3,0.2,1.8,0.5L227.9,47
					c1.1,0.6,2.1,2,2.1,3.3c0.1,0.9-0.3,1.9-0.9,2.6c-0.3,0.3-0.6,0.6-1,0.8l-13.8,8c-0.5,0.3-1.2,0.5-1.8,0.5c-0.2,0-0.4,0-0.6,0
					c-0.4,0-0.8-0.2-1.2-0.4l-20.2-11.4c-1.1-0.6-2.1-2-2.1-3.3c-0.1-0.8,0.2-1.7,0.7-2.3c0.3-0.4,0.8-0.8,1.2-1.1L204.1,35.5z"/>
				<path class="st4" d="M204.2,35.6c0.4-0.2,0.8-0.4,1.3-0.4c0.2,0,0.4,0,0.6,0c0.6,0,1.3,0.2,1.8,0.5l19.9,11.4
					c1.1,0.6,2.1,2,2.1,3.2c0.1,0.9-0.2,1.9-0.8,2.5c-0.3,0.3-0.7,0.6-1,0.8l-13.7,7.9c-0.5,0.3-1.2,0.5-1.8,0.5c-0.2,0-0.4,0-0.6,0
					c-0.4,0-0.8-0.2-1.2-0.4l-20.1-11.3c-1.1-0.6-2.1-2-2.1-3.2c-0.1-0.8,0.1-1.7,0.6-2.3c0.3-0.4,0.8-0.8,1.2-1L204.2,35.6z"/>
				<path class="st5" d="M204.3,35.7c0.4-0.2,0.8-0.4,1.3-0.4c0.2,0,0.4,0,0.6,0c0.5,0,1.3,0.3,1.8,0.5l19.7,11.3
					c1,0.6,2.1,2,2.1,3.1c0.1,0.9-0.2,1.8-0.8,2.5c-0.2,0.3-0.7,0.6-1,0.8l-13.6,7.8c-0.5,0.3-1.2,0.5-1.8,0.5c-0.2,0-0.4,0-0.6,0
					c-0.4,0-0.8-0.2-1.2-0.4l-19.9-11.2c-1-0.6-2.2-2-2.2-3.2c-0.1-0.8,0.1-1.7,0.6-2.3c0.3-0.4,0.8-0.8,1.2-1L204.3,35.7z"/>
				<path class="st6" d="M204.3,35.8c0.4-0.2,0.8-0.3,1.2-0.4c0.1,0,0.4,0,0.5,0c0.5,0,1.3,0.3,1.7,0.5l19.5,11.1
					c0.9,0.5,2.2,1.9,2.2,3.1c0.2,0.9-0.1,1.8-0.8,2.5c-0.2,0.3-0.7,0.6-1,0.8l-13.5,7.8c-0.4,0.3-1.2,0.6-1.8,0.6
					c-0.2,0-0.4,0-0.6,0c-0.4,0-0.8-0.1-1.2-0.3L191,50.3c-0.9-0.5-2.2-2-2.2-3.1c-0.2-0.8,0.1-1.7,0.6-2.3c0.2-0.3,0.8-0.8,1.2-1
					L204.3,35.8z"/>
				<path class="st7" d="M204.4,35.9c0.4-0.2,0.8-0.3,1.2-0.3c0.1,0,0.4,0,0.5,0c0.5,0,1.3,0.3,1.7,0.6l19.3,11
					c0.9,0.5,2.2,1.9,2.2,3c0.2,0.8-0.1,1.8-0.7,2.5c-0.2,0.2-0.7,0.6-1,0.8l-13.4,7.7c-0.4,0.2-1.3,0.6-1.7,0.6c-0.1,0-0.4,0-0.6,0
					c-0.4,0-0.8-0.1-1.2-0.3l-19.6-11.1c-0.9-0.5-2.3-1.9-2.3-3c-0.2-0.8,0-1.7,0.6-2.3c0.2-0.3,0.9-0.8,1.2-1L204.4,35.9z"/>
				<path class="st8" d="M204.4,36c0.4-0.2,0.8-0.3,1.2-0.3c0.1,0,0.4,0,0.5,0c0.4,0,1.3,0.3,1.7,0.6l19.1,10.9
					c0.9,0.5,2.2,1.9,2.2,2.9c0.2,0.8,0,1.8-0.7,2.4c-0.2,0.2-0.7,0.6-1,0.7l-13.3,7.6c-0.4,0.2-1.3,0.6-1.7,0.6
					c-0.1,0-0.4,0.1-0.5,0c-0.4,0-0.8-0.1-1.2-0.3l-19.5-11c-0.9-0.5-2.3-1.9-2.3-2.9c-0.2-0.7,0-1.6,0.5-2.3c0.2-0.3,0.9-0.8,1.2-1
					L204.4,36z"/>
				<path class="st9" d="M204.5,36.1c0.4-0.2,0.8-0.3,1.2-0.3c0.1,0,0.4,0,0.5,0c0.4,0,1.3,0.4,1.7,0.6l18.9,10.8
					c0.8,0.5,2.3,1.9,2.3,2.8c0.3,0.8,0,1.8-0.6,2.4c-0.2,0.2-0.7,0.6-1,0.7l-13.1,7.6c-0.4,0.2-1.3,0.6-1.7,0.6
					c-0.1,0-0.4,0.1-0.5,0c-0.4,0-0.8-0.1-1.2-0.3l-19.4-10.9c-0.8-0.5-2.4-1.9-2.4-2.8c-0.3-0.7-0.1-1.6,0.5-2.2
					c0.2-0.3,0.9-0.8,1.2-1L204.5,36.1z"/>
				<path class="st10" d="M204.6,36.3c0.4-0.2,0.8-0.3,1.2-0.3c0.1,0,0.4,0,0.5,0c0.4,0,1.3,0.4,1.6,0.6l18.7,10.7
					c0.7,0.4,2.3,1.9,2.3,2.7c0.3,0.8,0.1,1.8-0.6,2.3c-0.2,0.2-0.7,0.6-1,0.7l-13,7.5c-0.4,0.2-1.3,0.6-1.7,0.6
					c-0.1,0-0.4,0.1-0.5,0.1c-0.4,0-0.8-0.1-1.1-0.3l-19.3-10.8c-0.7-0.4-2.4-1.9-2.4-2.8c-0.3-0.7-0.1-1.6,0.4-2.2
					c0.2-0.3,0.9-0.8,1.2-1L204.6,36.3z"/>
				<path class="st11" d="M204.6,36.4c0.4-0.2,0.8-0.3,1.2-0.3c0.1,0,0.4,0.1,0.5,0.1c0.4,0,1.3,0.4,1.6,0.6l18.5,10.6
					c0.7,0.4,2.3,1.8,2.3,2.7c0.3,0.7,0.1,1.7-0.5,2.3c-0.2,0.2-0.7,0.6-1,0.7l-12.9,7.4c-0.3,0.2-1.3,0.6-1.6,0.6
					c-0.1,0-0.4,0.1-0.5,0.1c-0.4,0-0.8,0-1.1-0.2l-19.1-10.8c-0.7-0.4-2.5-1.9-2.5-2.7c-0.3-0.7-0.2-1.6,0.4-2.2
					c0.2-0.3,0.9-0.8,1.2-0.9L204.6,36.4z"/>
				<path class="st12" d="M204.7,36.5c0.4-0.2,0.8-0.3,1.2-0.3c0.1,0,0.4,0.1,0.5,0.1c0.3,0,1.3,0.4,1.6,0.6l18.3,10.5
					c0.6,0.4,2.4,1.8,2.4,2.6c0.4,0.7,0.2,1.7-0.5,2.3c-0.1,0.2-0.8,0.6-1,0.7l-12.8,7.4c-0.3,0.2-1.3,0.6-1.6,0.6
					c-0.1,0-0.4,0.1-0.5,0.1c-0.4,0-0.8,0-1.1-0.2l-19-10.7c-0.6-0.4-2.5-1.9-2.5-2.6c-0.4-0.7-0.2-1.6,0.4-2.2
					c0.2-0.2,1-0.8,1.2-0.9L204.7,36.5z"/>
				<path class="st13" d="M204.7,36.6c0.4-0.2,0.8-0.3,1.2-0.2c0.1,0,0.4,0.1,0.5,0.1c0.3,0,1.3,0.5,1.6,0.6l18.1,10.4
					c0.6,0.3,2.4,1.8,2.4,2.5c0.4,0.7,0.2,1.7-0.5,2.3c-0.1,0.2-0.8,0.6-0.9,0.7l-12.7,7.3c-0.3,0.2-1.3,0.7-1.6,0.7
					c-0.1,0-0.4,0.1-0.5,0.1c-0.4,0.1-0.8,0-1.1-0.2l-18.9-10.6c-0.6-0.3-2.6-1.9-2.6-2.5c-0.4-0.6-0.3-1.6,0.4-2.1
					c0.1-0.2,1-0.8,1.2-0.9L204.7,36.6z"/>
				<path class="st14" d="M204.8,36.7c0.4-0.2,0.8-0.3,1.1-0.2c0.1,0,0.4,0.1,0.5,0.1c0.3,0,1.3,0.5,1.5,0.6l17.9,10.3
					c0.5,0.3,2.4,1.8,2.4,2.4c0.4,0.7,0.3,1.7-0.4,2.2c-0.1,0.1-0.8,0.6-0.9,0.7L214.4,60c-0.3,0.1-1.3,0.7-1.6,0.7
					c-0.1,0-0.4,0.1-0.5,0.1c-0.4,0.1-0.8,0-1.1-0.2L192.5,50c-0.5-0.3-2.6-1.8-2.6-2.5c-0.4-0.6-0.3-1.6,0.3-2.1
					c0.1-0.2,1-0.8,1.2-0.9L204.8,36.7z"/>
				<path class="st15" d="M204.9,36.8c0.4-0.2,0.8-0.3,1.1-0.2c0.1,0,0.4,0.1,0.4,0.1c0.3,0,1.3,0.5,1.5,0.6l17.7,10.1
					c0.5,0.3,2.5,1.8,2.5,2.3c0.4,0.6,0.3,1.7-0.4,2.2c-0.1,0.1-0.8,0.6-0.9,0.6l-12.4,7.2c-0.2,0.1-1.3,0.7-1.6,0.7
					c-0.1,0-0.4,0.1-0.5,0.1c-0.4,0.1-0.8,0-1.1-0.2L192.7,50c-0.5-0.3-2.6-1.8-2.6-2.4c-0.4-0.6-0.4-1.6,0.3-2.1
					c0.1-0.2,1-0.8,1.2-0.9L204.9,36.8z"/>
				<path class="st16" d="M204.9,36.9c0.4-0.2,0.8-0.3,1.1-0.2c0.1,0,0.4,0.1,0.4,0.1c0.2,0,1.3,0.5,1.5,0.7l17.5,10
					c0.4,0.2,2.5,1.8,2.5,2.3c0.5,0.6,0.4,1.6-0.3,2.2c-0.1,0.1-0.8,0.5-0.9,0.6l-12.3,7.1c-0.2,0.1-1.3,0.7-1.5,0.7
					c-0.1,0-0.4,0.2-0.5,0.1c-0.4,0.1-0.8,0-1.1-0.2L192.9,50c-0.4-0.2-2.7-1.8-2.7-2.3c-0.5-0.6-0.4-1.6,0.3-2.1
					c0.1-0.2,1.1-0.8,1.2-0.9L204.9,36.9z"/>
				<path class="st17" d="M205,37c0.4-0.2,0.8-0.3,1.1-0.2c0.1,0,0.4,0.1,0.4,0.1c0.2,0,1.3,0.6,1.5,0.7l17.3,9.9
					c0.4,0.2,2.6,1.7,2.6,2.2c0.5,0.6,0.4,1.6-0.3,2.1c-0.1,0.1-0.8,0.5-0.9,0.6l-12.2,7c-0.2,0.1-1.3,0.7-1.5,0.7
					c-0.1,0-0.4,0.2-0.5,0.2c-0.4,0.1-0.8,0.1-1.1-0.1l-18.3-10.3c-0.4-0.2-2.7-1.8-2.8-2.3c-0.5-0.5-0.4-1.6,0.2-2.1
					c0.1-0.1,1.1-0.8,1.2-0.8L205,37z"/>
				<path class="st18" d="M205,37.1c0.3-0.2,0.8-0.2,1.1-0.1c0.1,0,0.4,0.1,0.4,0.1c0.2,0,1.3,0.6,1.4,0.7l17.1,9.8
					c0.3,0.2,2.6,1.7,2.6,2.1c0.5,0.6,0.4,1.6-0.3,2.1c-0.1,0.1-0.8,0.5-0.9,0.6l-12.1,7c-0.1,0.1-1.3,0.7-1.5,0.7
					c-0.1,0-0.4,0.2-0.5,0.2c-0.4,0.1-0.7,0.1-1.1-0.1l-18.2-10.2c-0.3-0.2-2.8-1.8-2.8-2.2c-0.5-0.5-0.5-1.5,0.2-2
					c0.1-0.1,1.1-0.8,1.2-0.8L205,37.1z"/>
				<path class="st19" d="M205.1,37.2c0.3-0.2,0.7-0.2,1.1-0.1c0,0,0.4,0.2,0.4,0.2c0.1,0,1.3,0.6,1.4,0.7l16.9,9.7
					c0.3,0.2,2.6,1.7,2.6,2c0.6,0.5,0.5,1.6-0.2,2.1c-0.1,0.1-0.8,0.5-0.9,0.6l-12,6.9c-0.1,0.1-1.3,0.7-1.5,0.7
					c0,0-0.4,0.2-0.5,0.2c-0.3,0.1-0.7,0.1-1.1-0.1l-18.1-10.2c-0.3-0.2-2.8-1.8-2.8-2.1c-0.6-0.5-0.5-1.5,0.1-2
					c0.1-0.1,1.1-0.8,1.2-0.8L205.1,37.2z"/>
				<path class="st20" d="M205.2,37.3c0.3-0.2,0.7-0.2,1.1-0.1c0,0,0.4,0.2,0.4,0.2c0.1,0,1.3,0.6,1.4,0.7l16.8,9.6
					c0.2,0.1,2.7,1.7,2.7,1.9c0.6,0.5,0.5,1.6-0.2,2c-0.1,0.1-0.9,0.5-0.9,0.6l-11.9,6.8c-0.1,0.1-1.3,0.7-1.4,0.7
					c0,0-0.4,0.2-0.4,0.2c-0.3,0.1-0.7,0.1-1.1-0.1l-17.9-10.1c-0.2-0.1-2.9-1.8-2.9-2c-0.6-0.5-0.6-1.5,0.1-2
					c0.1-0.1,1.2-0.8,1.2-0.8L205.2,37.3z"/>
				<path class="st21" d="M205.2,37.4c0.3-0.2,0.7-0.2,1.1-0.1c0,0,0.4,0.2,0.4,0.2c0.1,0,1.3,0.7,1.4,0.7l16.6,9.5
					c0.2,0.1,2.7,1.7,2.7,1.8c0.6,0.5,0.6,1.5-0.1,2c0,0-0.9,0.5-0.9,0.6l-11.7,6.8c-0.1,0-1.3,0.7-1.4,0.7c0,0-0.4,0.2-0.4,0.2
					c-0.3,0.2-0.7,0.1-1.1,0l-17.8-10c-0.2-0.1-2.9-1.8-2.9-2c-0.6-0.5-0.6-1.5,0.1-2c0-0.1,1.2-0.8,1.2-0.8L205.2,37.4z"/>
				<path class="st22" d="M205.3,37.6c0.3-0.2,0.7-0.2,1.1,0c0,0,0.4,0.2,0.4,0.2c0.1,0,1.3,0.7,1.3,0.7l16.4,9.4
					c0.1,0.1,2.7,1.7,2.7,1.8c0.7,0.5,0.6,1.5-0.1,2c0,0-0.9,0.5-0.9,0.5l-11.6,6.7c-0.1,0-1.3,0.8-1.4,0.8c0,0-0.4,0.2-0.4,0.2
					c-0.3,0.2-0.7,0.2-1,0l-17.6-10c-0.1-0.1-3-1.8-3-1.9c-0.7-0.5-0.6-1.5,0.1-2c0,0,1.2-0.7,1.3-0.8L205.3,37.6z"/>
				<path class="st23" d="M205.3,37.7c0.3-0.2,0.7-0.2,1.1,0c0,0,0.4,0.2,0.4,0.2c0,0,1.3,0.7,1.3,0.7l16.2,9.3
					c0.1,0,2.8,1.6,2.8,1.7c0.7,0.4,0.7,1.5,0,2c0,0-0.9,0.5-0.9,0.5l-11.5,6.6c0,0-1.3,0.8-1.4,0.8c0,0-0.4,0.2-0.4,0.2
					c-0.3,0.2-0.7,0.2-1,0l-17.5-9.9c-0.1,0-3-1.8-3-1.8c-0.7-0.4-0.7-1.5,0-1.9c0,0,1.2-0.7,1.3-0.8L205.3,37.7z"/>
				<path class="st24" d="M205.4,37.8c0.3-0.2,0.7-0.2,1,0l20.4,11.7c0.7,0.4,0.7,1.5,0,1.9l-14.1,8.1c-0.3,0.2-0.7,0.2-1,0
					L191.3,48c-0.7-0.4-0.7-1.5,0-1.9L205.4,37.8z"/>
			</g>
			<path class="st25" d="M191.4,28.3l20.4,11.5c0.3,0.2,0.7,0.2,1,0l14.1-8.1c0.6-0.4,0.7-1.2,0.3-1.7c0.3,0.3,0.5,0.7,0.5,1.1V50
				c0,0.6-0.3,1.1-0.8,1.4l-14,8c-0.5,0.3-1,0.3-1.5,0l-20.1-11.3c-0.5-0.3-0.8-0.8-0.8-1.4V27.6c0-0.4,0.2-0.7,0.4-0.9
				C190.7,27.2,190.8,28,191.4,28.3z"/>
			
				<linearGradient id="stats2_SVGID_1_" gradientUnits="userSpaceOnUse" x1="526.7727" y1="325.9869" x2="563.7726" y2="325.9869" gradientTransform="matrix(-1 0 0 -1 754.4527 365.9066)">
				<stop  offset="8.000000e-08" style="stop-color:#5EACDF"/>
				<stop  offset="1" style="stop-color:#577EBF"/>
			</linearGradient>
			<path class="st27" d="M213.4,44.5l14.3-8.2v2.7l-14.3,8.2c-0.4,0.2-0.8,0.2-1.2,0l-21.6-12.2v-2.7l21.6,12.2
				C212.6,44.8,213.1,44.8,213.4,44.5z"/>
			
				<linearGradient id="stats2_SVGID_2_" gradientUnits="userSpaceOnUse" x1="526.7727" y1="318.817" x2="563.7726" y2="318.817" gradientTransform="matrix(-1 0 0 -1 754.4527 365.9066)">
				<stop  offset="8.000000e-08" style="stop-color:#5EACDF"/>
				<stop  offset="1" style="stop-color:#577EBF"/>
			</linearGradient>
			<path class="st28" d="M213.4,51.7l14.3-8.2v2.7l-14.3,8.2c-0.4,0.2-0.8,0.2-1.2,0l-21.6-12.2v-2.7l21.6,12.2
				C212.6,51.9,213.1,51.9,213.4,51.7z"/>
			<path class="st26" d="M205.5,18.1c0.3-0.2,0.7-0.2,1,0L227,29.8c0.7,0.4,0.7,1.5,0,1.9l-14.1,8.1c-0.3,0.2-0.7,0.2-1,0
				l-20.5-11.5c-0.7-0.4-0.7-1.5,0-1.9L205.5,18.1z"/>
			<polygon class="st29" points="218.4,30.3 211.6,34.2 200,27.7 206.8,23.7 			"/>
			<polygon class="st30" points="206.8,23.7 206.8,31.6 200,27.7 206.8,23.7 			"/>
		</g>
	</g>
	<g>
		<path class="st31" d="M81.3,50c0,0-0.6-1.8-0.5-1.8s1.1-0.4,1.3-0.7s1-0.8,1.2-0.8c0.8-0.1,1.3-0.8,1.5-0.3
			c0.1,0.4-0.4,0.6-0.7,0.8c-0.1,0.1-0.4,0.2-0.2,0.3c0.5,0.3,2.9-0.3,3.1-0.1s-0.1,0.3-0.2,0.4c-0.7,0.4-0.4,1.2-1.2,1.5
			c-0.7,0.3-2.2,0.3-2.5,0.3C82.8,49.5,81.3,50,81.3,50z"/>
		<path class="st32" d="M68.7,35.1c-1.2-0.4-2.7,0.9-1.9,3.8c0.2,0.6,1.7,4.5,3.1,8.3c1.4,3.8,3.2,2.9,3.8,2c0.6-0.9,0.3-2-0.9-6.7
			C71.7,37.7,70.5,35.8,68.7,35.1z"/>
		<path class="st32" d="M73.3,48c4.4,0.2,8.2-0.5,8.2-0.5s1.7,0.8,0.8,2.9c0,0-5.8,1.9-9.3,1.4C69.4,51.3,71,47.9,73.3,48z"/>
		<path class="st33" d="M73,82.8c-0.4-0.2-0.4-1.2-0.4-1.2l-3.1-0.5c0,0,0,2.6,0.1,3.1c0,0.4,0.3,1.3,1.4,1.1c1.4-0.3,2.6,0,3,0.1
			c0.4,0.1,1.3,0.2,2.3,0c1-0.2,1.6-0.7,0.8-1.4C76.3,83.4,74,83.2,73,82.8z"/>
		<path class="st32" d="M66.9,67.5c0,0.8,0.9,8.4,2.1,14.7c0.3,1.8,4.3,0.3,4.3-0.5c0.1-1.6-0.9-12.5-1.5-15.6
			C71.4,64.1,66.9,65,66.9,67.5z"/>
		<path class="st33" d="M61.8,86.5c0-0.2-0.1-0.5-0.1-0.5L59,85.5c0,0-0.2,0.4-0.3,1s-0.2,1.8-0.2,2.1s-0.1,1.2,0.7,2
			s1.1,1.1,2.1,0.8s1-1.7,0.8-2.4C61.9,88.3,61.8,86.7,61.8,86.5z"/>
		<path class="st32" d="M58.8,70.3c-0.2,0.8-0.6,8.4-0.6,14.9c0,1.9,4.1,1.2,4.3,0.4c0.3-1.5,1.3-12.4,1.3-15.6
			C63.8,68,59.3,67.9,58.8,70.3z"/>
		<path class="st32" d="M64.4,55.7c-0.1,1.6,0.6,3.8,0.9,5.3c0.3,1.5,1.2,6.6,1.7,8.1c0.6,1.9,4.9,1.3,5-1.3
			c0-0.8,0.2-10.9-0.9-17.2C70.7,48.7,64.4,54.9,64.4,55.7z"/>
		<path class="st32" d="M58.3,57.4c-0.6,2.1,0.2,13,0.4,14.5c0.3,2,4.6,2.3,5.1-0.2c0.2-0.8,1.8-10.7,1.8-17.1
			C65.6,52.7,58.5,56.6,58.3,57.4z"/>
		<path class="st34" d="M66,34.8l-3.8-1c0,0-0.7,0.1-0.9,0.3c-0.3,0.3-0.6,0.8-0.7,1.1c-0.2,0.5-0.4,0.8-0.8,1.2
			c0,0-2.7,2.1-3.4,2.8c-2.3,2.7,1.1,16.6,1.1,22.9c0,0,5.9-0.1,9.1-0.9l0.7-2.4l1,1.6c1.1-0.3,3.7-2.2,3.8-2.4
			c0.1-0.1-1.1-21.1-3.4-22.9C68.2,34.8,66,34.8,66,34.8z"/>
		<path class="st33" d="M66.9,36.2c-0.1-0.4-0.4-0.7-0.7-1c-0.3-0.3-0.8-0.5-1.2-0.4c0,0,1,0.4,0.8,1.8c-0.1,0.6,0,1.5-0.1,2.6
			c-0.1,1.2,0.6,5.1,0.6,5.1l1.7-4.8l-0.8-0.8l0.9-0.6L66.9,36.2z"/>
		<path class="st1" d="M61.5,33.8c-0.4,0.4-0.8,1,0.3,2.4c0.4,0.5,1.1,1.5,1.8,2.6c0.4,0.6,2.4,3.9,2.7,4.8c0,0,0-0.8,0.1-2.1
			c0-0.3,0-4-0.3-5C65.5,34.4,63,32.7,61.5,33.8z"/>
		
			<linearGradient id="stats2_SVGID_3_" gradientUnits="userSpaceOnUse" x1="1980.6733" y1="324.1288" x2="1979.5009" y2="328.4213" gradientTransform="matrix(1 0 0 -1 -1914.7806 365.9066)">
			<stop  offset="0" style="stop-color:#FFFFFF"/>
			<stop  offset="1" style="stop-color:#CBCCE7"/>
		</linearGradient>
		<path class="st35" d="M64.8,37.4l-1.2,1.5c0.4,0.6,0.8,1.3,1.1,2c0.1,0.1,1.2,1.9,1.2,1.9l0.4-1.2c0-0.3,0-0.6,0-1
			c0-1.1-0.1-2.2-0.1-2.9L64.8,37.4z"/>
		<path class="st36" d="M62,32.7c0,0-0.1,0.6-0.4,1.7c-0.1,0.2,0,0.3,0.1,0.5c0.4,0.5,1.5,1.8,2.7,1.8c0,0,0.8-0.7,0.8-1.4
			C65.2,34.4,62,32.7,62,32.7z"/>
		<path class="st31" d="M63.9,26.8c-3.6,0.1-2.6,4.1-2.6,4.1S61,31,61.1,31.5c0.2,0.5,0.2,0.6,0.3,0.8c0.1,0.2,0.3,0.7,0.6,0.6
			c0,0,0.6,1.4,2.9,2.2c0.4,0.1,1,0,1.1-0.4c0.1-0.4,0.9-1.6,0.9-2.6c0-0.7-0.3-0.7-0.1-1.1C67.1,30.8,67.5,26.7,63.9,26.8z"/>
		<path class="st37" d="M64.1,26.5c-2.5-0.1-4.2,2-3,4.8c0.4-0.7,0.9,0.1,1,0.4c0,0.1,0.2,0.8,0.4,0.8c0.2,0,0.2-0.6,0.2-0.6
			c0-1.7-0.6-2.1,0.2-2.5c0.7-0.3,2.1,1.1,3.5,1.1C67.8,30.4,67.5,26.6,64.1,26.5z"/>
		<path class="st38" d="M65.8,37.6l-0.9-0.2l-0.6,0.8c0,0,0.2,0.4,0.7,0.9c-0.1,0.2-0.2,0.8-0.1,1.8c0.3,0.6,1.6,3.6,1.6,3.6l0-4
			c-0.1-0.9-0.3-1.2-0.6-1.7L65.8,37.6z"/>
		<path class="st31" d="M72.9,56.6c0.3,0.1,0.8,0.3,1,0c0.3-0.4-0.6-0.4-1.2-0.9c-0.2-0.2-1-0.4-1.4-0.4c-0.4,0-1.3-0.5-1.4-0.5
			c-0.1-0.1-1.1,1.5-1.1,1.5s1.4,0.8,1.6,1.1c0.3,0.3,1.2,1.3,1.9,1.7c0.8,0.4,1.2-0.3,2-0.1c0.1,0,0.4,0.2,0.4-0.1s-2-1.7-2.1-2.3
			C72.5,56.4,72.8,56.5,72.9,56.6z"/>
		<path class="st32" d="M64.7,48.3c-2-3.5-4.1-7.2-4.4-7.7c-1.7-2.5-3.7-2.4-4.1-1c-0.7,2.2,0.2,4,3.1,7.9s3.5,4.8,4.6,5
			C64.9,52.6,66.7,51.8,64.7,48.3z"/>
		<path class="st32" d="M65.1,49c-1.4-1.8-5-0.7-3,2.3c2,3,7.2,6,7.2,6c2.1-0.7,1.6-2.5,1.6-2.5S67.8,52.4,65.1,49z"/>
		<path class="st33" d="M61.9,36.2c-1.1-1.4-0.3-2.4-0.3-2.4c-0.5,0.2-0.8,0.7-1,1.1c-0.2,0.5-0.2,1-0.1,1.4l0.6,3l0.7-0.1l-0.2,0.8
			l4.7,4.4c0,0-1.8-4.4-2.8-5.6C62.8,37.8,62.3,36.8,61.9,36.2z"/>
		<path class="st34" d="M61.9,31.4c-0.2-0.2-0.5-0.2-0.7,0v0c-0.2,0.3-0.1,0.6,0.1,0.9c0.7,0.7,1.5,1,1.9,1.1c0.1,0,0.2,0,0.3-0.1
			c0.1-0.1,0-0.3-0.1-0.3C62.7,32.6,62.2,31.9,61.9,31.4z"/>
		<g>
			<path class="st32" d="M61.2,30.9c-0.2,0.2-0.3,0.6,0,0.9c0,0,0.1,0,0.1,0c0,0,0-0.1,0-0.1C61.1,31.4,61.1,31.1,61.2,30.9
				c0.2,0,0.4-0.1,0.7,0.1c0.6,0.5,0.4,1.4,0.4,1.4c0,0,0,0.1,0,0.1h0c0,0,0.1,0,0.1,0c0,0,0.2-0.9-0.5-1.5
				C61.6,30.7,61.3,30.8,61.2,30.9z"/>
		</g>
	</g>
	<g>
		<g>
			<g>
				<path class="st25" d="M137.9,100.8h-2.1v0.4l-12.3-6.7c-0.9-0.6-2.6-0.5-3.7,0.2l-27.1,15.1v-0.3h-2.1v1.6l0,0
					c0,0.1,0,0.1,0.1,0.2l14.7,8.1c0.9,0.5,2.4,0.4,3.5-0.1l28.9-16.6c0.1-0.1,0.1-0.1,0.1-0.2h0L137.9,100.8L137.9,100.8z"/>
				<path class="st1" d="M137.7,100.6c0.1,0.1,0.1,0.3,0,0.4l-28.9,16.6c-1,0.6-2.6,0.7-3.5,0.1l-14.7-8.1c-0.1-0.1-0.2-0.3,0-0.4
					l0,0L119.8,93c1.1-0.6,2.8-0.7,3.7-0.2L137.7,100.6L137.7,100.6z"/>
				<path class="st25" d="M65.8,43.9l77.4-43.5c1.8-1,5.1,0.2,5.1,2.9l-1.1,66.5c0,0.9-0.5,1.8-1.4,2.3l-76.7,45.9
					c-4,0.6-4.7-2.6-4.7-4.7V46.2C64.4,45.2,64.9,44.4,65.8,43.9z"/>
				<path class="st26" d="M67,45.1L144.4,1c1.8-1,4,0.3,4,2.3v68c0,1-0.5,1.9-1.4,2.3l-77.3,44.1c-1.8,1-4-0.3-4-2.3v-68
					C65.7,46.5,66.2,45.6,67,45.1z"/>
				<path class="st1" d="M147.1,1.1c-1.4,13.6-13.6,23.8-32.6,34.2c-17.7,9.6-35.8,14.3-48.9,12.8v-0.7c0-1,0.5-1.8,1.3-2.3L144.4,1
					C145.3,0.5,146.4,0.6,147.1,1.1z"/>
				<path class="st25" d="M106.8,70.1L106.8,70.1c6.1-3.5,13.7,0.3,14.7,7.2l-13.7,35.9l-1.4-0.8L101.9,80
					C101.3,76,103.3,72.1,106.8,70.1z"/>
				<path class="st26" d="M108.2,70.9L108.2,70.9c6.1-3.5,13.7,0.3,14.6,7.2l3.4,24.6l-18.5,10.5l-4.4-32.5
					C102.8,76.8,104.7,72.9,108.2,70.9z"/>
			</g>
		</g>
	</g>
	<g>
		<g>
			<g>
				<path class="st1" d="M133.2,214.3l128.3-74.4c3.8-2.2,8.5-3.4,13.3-3.4c4.2,0,8.1,0.9,11.2,2.7l61.7,33.4c3,1.6,4.9,4.8,5,8.2
					c0,3.5-1.8,6.7-4.8,8.4l-125.3,71.9c-3.6,2.1-8.2,3.3-12.8,3.3c-4.1,0-7.8-0.9-10.8-2.6l-63.5-35.2c-2.8-1.5-4.6-4.4-4.9-7.6
					c0,0,0,0,0,0C130.5,217,131.6,215.2,133.2,214.3z"/>
				<path class="st2" d="M261.8,140c3.8-2.2,8.5-3.4,13.3-3.3c1.6,0,3.1,0.2,4.5,0.4c2.4,0.4,4.8,1.3,6.6,2.4l61.5,33.3c0,0,0,0,0,0
					c0.8,0.4,1.4,0.9,2,1.5c1.7,1.7,2.5,4.1,2.5,6.6c0,3.3-2,6.6-4.9,8.2l-124.5,71.5c-3.5,2-8.3,3.4-12.7,3.4
					c-4,0.1-7.8-0.8-10.8-2.4c-0.1,0-3.2-1.7-3.2-1.8l-60.6-33.6c-2.7-1.5-4.4-4.2-4.7-7.3c0,0,0,0,0,0c-0.1-1.8,0.9-3.5,2.4-4.4
					c0,0,0.1,0,0.1-0.1L261.8,140z"/>
				<path class="st3" d="M262.1,140.1c3.8-2.2,8.5-3.3,13.3-3.3c1.6,0,3.1,0.2,4.5,0.5c2.2,0.4,4.8,1.4,6.6,2.4l61.4,33.2
					c0,0,0,0,0,0c0.8,0.4,1.4,1,1.9,1.5c1.6,1.6,2.1,4.1,2.2,6.4c0,3.2-2.3,6.5-5,8.1l-123.6,71c-3.3,1.9-8.3,3.5-12.5,3.5
					c-4,0.2-7.8-0.6-10.9-2.2c-0.1,0-3.1-1.7-3.2-1.7l-60.8-33.7c-2.6-1.4-4.3-4.1-4.5-7c0,0,0,0,0,0c-0.1-1.7,0.8-3.4,2.3-4.3
					c0,0,0.1,0,0.1-0.1L262.1,140.1z"/>
				<path class="st4" d="M262.4,140.3c3.8-2.2,8.5-3.3,13.2-3.2c1.6,0,3.1,0.2,4.5,0.5c2.1,0.4,4.9,1.5,6.6,2.4l61.2,33.2
					c0,0,0,0,0,0c0.8,0.4,1.3,1,1.8,1.5c1.6,1.5,1.8,4,1.8,6.3c0,3-2.5,6.4-5.1,7.9l-122.9,70.5c-3.2,1.8-8.4,3.6-12.4,3.6
					c-4,0.3-7.8-0.5-10.9-2c-0.2,0-3.1-1.6-3.3-1.7l-61-33.9c-2.5-1.4-4.1-3.9-4.3-6.8c0,0,0,0,0,0c-0.1-1.7,0.8-3.2,2.2-4.1
					c0,0,0.1,0,0.1,0L262.4,140.3z"/>
				<path class="st5" d="M262.8,140.5c3.8-2.2,8.5-3.3,13.2-3.1c1.5,0.1,3,0.2,4.5,0.6c2,0.4,4.9,1.6,6.5,2.5l61.1,33.1c0,0,0,0,0,0
					c0.7,0.4,1.3,1,1.7,1.5c1.5,1.4,1.4,4,1.4,6.1c0,2.9-2.8,6.3-5.3,7.7l-122,70.1c-3,1.7-8.5,3.7-12.3,3.7
					c-3.9,0.3-7.8-0.3-11-1.8c-0.2,0-3.1-1.6-3.3-1.7L136,225c-2.4-1.3-3.9-3.7-4.1-6.5c0,0,0,0,0,0c-0.1-1.6,0.8-3.1,2.1-3.9
					c0,0,0.1,0,0.1,0L262.8,140.5z"/>
				<path class="st6" d="M263.1,140.6c3.8-2.1,8.5-3.3,13.2-3.1c1.5,0.1,3,0.3,4.4,0.6c1.9,0.3,5,1.6,6.5,2.5l60.9,33c0,0,0,0,0,0
					c0.7,0.4,1.3,1,1.6,1.6c1.4,1.4,1,3.9,1.1,6c0,2.7-3,6.2-5.4,7.5l-121.2,69.6c-2.9,1.6-8.6,3.8-12.1,3.8
					c-3.9,0.4-7.9-0.1-11-1.6c-0.3,0-3.1-1.5-3.3-1.7l-61.5-34.1c-2.3-1.3-3.7-3.6-3.9-6.2c0,0,0,0,0,0c0-1.5,0.7-2.9,2-3.7
					c0,0,0,0,0.1,0L263.1,140.6z"/>
				<path class="st7" d="M263.4,140.8c3.8-2.1,8.5-3.2,13.1-3c1.5,0.1,3,0.3,4.4,0.6c1.8,0.3,5,1.7,6.5,2.5l60.8,32.9c0,0,0,0,0,0
					c0.7,0.4,1.2,1,1.5,1.6c1.3,1.3,0.7,3.9,0.7,5.8c0,2.6-3.3,6.1-5.5,7.3l-120.4,69.1c-2.7,1.5-8.6,3.9-12,3.9
					c-3.9,0.5-7.9,0-11.1-1.4c-0.4-0.1-3.1-1.5-3.3-1.6l-61.8-34.3c-2.2-1.2-3.6-3.4-3.7-5.9c0,0,0,0,0,0c0-1.4,0.7-2.8,1.9-3.6
					c0,0,0,0,0.1,0L263.4,140.8z"/>
				<path class="st8" d="M263.7,141c3.8-2.1,8.5-3.2,13.1-3c1.5,0.1,3,0.3,4.4,0.7c1.7,0.3,5,1.8,6.4,2.6l60.6,32.8c0,0,0,0,0,0
					c0.7,0.4,1.2,1.1,1.4,1.6c1.3,1.2,0.3,3.9,0.3,5.6c0,2.4-3.5,6-5.6,7.1l-119.6,68.7c-2.5,1.5-8.7,4-11.9,4
					c-3.9,0.6-7.9,0.2-11.1-1.2c-0.4-0.1-3-1.4-3.4-1.6l-62-34.4c-2.1-1.1-3.4-3.3-3.5-5.6c0,0,0,0,0,0c0-1.4,0.7-2.7,1.9-3.4
					c0,0,0,0,0.1,0L263.7,141z"/>
				<path class="st9" d="M264,141.1c3.7-2.1,8.5-3.2,13.1-2.9c1.5,0.1,3,0.3,4.4,0.7c1.6,0.3,5.1,1.9,6.4,2.6l60.4,32.7c0,0,0,0,0,0
					c0.7,0.4,1.2,1.1,1.3,1.6c1.2,1.1,0,3.8,0,5.5c0,2.3-3.8,5.9-5.7,7L225,256.6c-2.4,1.4-8.8,4.1-11.8,4.1
					c-3.8,0.7-7.9,0.3-11.2-1c-0.5-0.1-3-1.4-3.4-1.6l-62.2-34.5c-2-1.1-3.2-3.1-3.4-5.3c0,0,0,0,0,0c0-1.3,0.6-2.5,1.8-3.2
					c0,0,0,0,0.1,0L264,141.1z"/>
				<path class="st10" d="M264.3,141.3c3.7-2.1,8.5-3.2,13-2.9c1.5,0.1,3,0.4,4.3,0.8c1.5,0.3,5.1,2,6.3,2.6l60.3,32.6c0,0,0,0,0,0
					c0.7,0.4,1.1,1.1,1.2,1.6c1.1,1.1-0.4,3.8-0.4,5.4c0,2.1-4,5.8-5.9,6.8l-118,67.8c-2.2,1.3-8.8,4.2-11.6,4.2
					c-3.8,0.8-7.9,0.5-11.2-0.8c-0.6-0.1-3-1.3-3.4-1.6l-62.5-34.6c-1.9-1-3-2.9-3.2-5c0,0,0,0,0,0c0-1.2,0.6-2.4,1.7-3
					c0,0,0,0,0.1,0L264.3,141.3z"/>
				<path class="st11" d="M264.6,141.5c3.7-2.1,8.5-3.1,13-2.8c1.5,0.1,3,0.4,4.3,0.8c1.4,0.2,5.2,2.1,6.3,2.7l60.1,32.6
					c0,0,0,0,0,0c0.7,0.4,1.1,1.1,1.1,1.6c1,1-0.8,3.7-0.8,5.2c0,2-4.3,5.6-6,6.6l-117.2,67.3c-2.1,1.2-8.9,4.3-11.5,4.3
					c-3.8,0.9-7.9,0.6-11.3-0.6c-0.6-0.1-3-1.3-3.4-1.6l-62.7-34.8c-1.8-1-2.9-2.8-3-4.8c0,0,0,0,0,0c0-1.2,0.6-2.3,1.6-2.9
					c0,0,0,0,0.1,0L264.6,141.5z"/>
				<path class="st12" d="M264.9,141.6c3.7-2.1,8.6-3.1,13-2.8c1.5,0.1,3,0.4,4.3,0.9c1.3,0.2,5.3,2.1,6.3,2.7l60,32.5c0,0,0,0,0,0
					c0.7,0.4,1.1,1.1,1.1,1.6c0.9,0.9-1.1,3.7-1.1,5c0,1.8-4.5,5.5-6.1,6.4l-116.4,66.8c-1.9,1.1-9,4.4-11.4,4.4
					c-3.7,0.9-7.9,0.8-11.3-0.4c-0.7-0.1-2.9-1.3-3.5-1.5l-62.9-34.9c-1.6-0.9-2.7-2.6-2.8-4.5c0,0,0,0,0,0c0-1.1,0.6-2.1,1.5-2.7
					c0,0,0,0,0.1,0L264.9,141.6z"/>
				<path class="st13" d="M265.2,141.8c3.7-2.1,8.6-3.1,13-2.7c1.5,0.1,3,0.4,4.3,0.9c1.2,0.2,5.3,2.2,6.2,2.8l59.8,32.4
					c0,0,0,0,0,0c0.7,0.4,1,1.2,1,1.6c0.9,0.8-1.5,3.6-1.5,4.9c0,1.7-4.8,5.4-6.2,6.3l-115.6,66.4c-1.8,1-9.1,4.5-11.3,4.5
					c-3.7,1-7.9,0.9-11.4-0.3c-0.7-0.1-2.9-1.2-3.5-1.5l-63.2-35c-1.6-0.9-2.5-2.4-2.6-4.2c0,0,0,0,0,0c0-1,0.5-2,1.4-2.5
					c0,0,0,0,0,0L265.2,141.8z"/>
				<path class="st14" d="M265.5,142c3.7-2.1,8.6-3.1,12.9-2.6c1.5,0.1,3,0.5,4.2,1c1.1,0.2,5.4,2.3,6.2,2.8l59.6,32.3c0,0,0,0,0,0
					c0.7,0.4,1,1.2,0.9,1.6c0.8,0.8-1.9,3.6-1.9,4.7c0,1.5-5,5.3-6.3,6.1l-114.8,65.9c-1.6,0.9-9.1,4.6-11.1,4.6
					c-3.7,1.1-7.9,1.1-11.4,0c-0.8-0.1-2.9-1.2-3.5-1.5L137,221.7c-1.4-0.8-2.3-2.3-2.4-3.9c0,0,0,0,0,0c0-0.9,0.5-1.8,1.3-2.3
					c0,0,0,0,0,0L265.5,142z"/>
				<path class="st15" d="M265.9,142.1c3.7-2.1,8.6-3,12.9-2.6c1.5,0.2,3,0.5,4.2,1c1,0.2,5.4,2.4,6.2,2.8l59.5,32.2c0,0,0,0,0,0
					c0.7,0.4,1,1.2,0.8,1.7c0.7,0.7-2.3,3.6-2.2,4.6c0,1.4-5.3,5.2-6.4,5.9l-114,65.5c-1.4,0.8-9.2,4.7-11,4.7
					c-3.6,1.2-8,1.2-11.5,0.1c-0.9-0.1-2.9-1.1-3.5-1.5l-63.6-35.3c-1.3-0.7-2.2-2.1-2.2-3.6c0,0,0,0,0,0c0-0.9,0.4-1.7,1.2-2.2
					c0,0,0,0,0,0L265.9,142.1z"/>
				<path class="st16" d="M266.2,142.3c3.7-2.1,8.6-3,12.9-2.5c1.5,0.2,3,0.5,4.2,1.1c0.9,0.1,5.5,2.5,6.1,2.9l59.3,32.1
					c0,0,0,0,0,0c0.7,0.4,0.9,1.2,0.7,1.7c0.6,0.6-2.6,3.5-2.6,4.4c0,1.2-5.5,5.1-6.5,5.7l-113.2,65c-1.3,0.7-9.3,4.8-10.9,4.8
					c-3.6,1.3-8,1.4-11.5,0.4c-0.9-0.2-2.9-1.1-3.6-1.5l-63.9-35.4c-1.2-0.7-2-1.9-2-3.3c0,0,0,0,0,0c0-0.8,0.4-1.6,1.1-2
					c0,0,0,0,0,0L266.2,142.3z"/>
				<path class="st17" d="M266.5,142.5c3.7-2.1,8.6-3,12.9-2.5c1.5,0.2,2.9,0.6,4.2,1.1c0.8,0.1,5.5,2.6,6.1,2.9l59.2,32.1
					c0,0,0,0,0,0c0.7,0.4,0.9,1.2,0.6,1.7c0.5,0.5-3,3.5-3,4.3c0,1.1-5.8,5-6.7,5.6l-112.4,64.5c-1.1,0.6-9.4,4.9-10.7,4.9
					c-3.6,1.4-8,1.5-11.6,0.5c-1-0.2-2.8-1-3.6-1.5l-64.1-35.6c-1.1-0.6-1.8-1.8-1.8-3.1v0c0-0.7,0.4-1.4,1-1.8c0,0,0,0,0,0
					L266.5,142.5z"/>
				<path class="st18" d="M266.8,142.6c3.7-2.1,8.6-3,12.8-2.4c1.5,0.2,2.9,0.6,4.2,1.1c0.6,0.1,5.5,2.7,6.1,2.9l59,32c0,0,0,0,0,0
					c0.7,0.4,0.9,1.3,0.5,1.7c0.5,0.4-3.4,3.4-3.3,4.1c0,0.9-6,4.9-6.8,5.4l-111.6,64.1c-0.9,0.6-9.4,5-10.6,5
					c-3.6,1.5-8,1.7-11.6,0.8c-1-0.2-2.8-1-3.6-1.4l-64.4-35.7c-1-0.6-1.6-1.6-1.6-2.8v0c0-0.7,0.4-1.3,0.9-1.6c0,0,0,0,0,0
					L266.8,142.6z"/>
				<path class="st19" d="M267.1,142.8c3.7-2.1,8.6-2.9,12.8-2.4c1.5,0.2,2.9,0.6,4.1,1.2c0.5,0.1,5.6,2.7,6,3l58.9,31.9
					c0,0,0,0,0,0c0.7,0.4,0.8,1.3,0.4,1.7c0.4,0.4-3.7,3.4-3.7,4c0,0.8-6.3,4.8-6.9,5.2L228,250.9c-0.8,0.5-9.5,5.1-10.5,5.1
					c-3.5,1.5-8,1.9-11.6,0.9c-1.1-0.2-2.8-0.9-3.6-1.4l-64.6-35.8c-0.9-0.5-1.4-1.5-1.4-2.5v0c0-0.6,0.3-1.1,0.8-1.5c0,0,0,0,0,0
					L267.1,142.8z"/>
				<path class="st20" d="M267.4,142.9c3.6-2.1,8.6-2.9,12.8-2.3c1.5,0.2,2.9,0.6,4.1,1.2c0.4,0.1,5.6,2.8,6,3l58.7,31.8
					c0,0,0,0,0,0c0.7,0.4,0.8,1.3,0.4,1.7c0.3,0.3-4.1,3.4-4.1,3.8c0,0.6-6.5,4.7-7,5l-110,63.1c-0.6,0.4-9.6,5.2-10.4,5.2
					c-3.5,1.6-8,2-11.7,1.1c-1.1-0.2-2.8-0.9-3.6-1.4l-64.8-36c-0.8-0.4-1.3-1.3-1.3-2.2v0c0-0.5,0.3-1,0.7-1.3c0,0,0,0,0,0
					L267.4,142.9z"/>
				<path class="st21" d="M267.7,143.1c3.6-2.1,8.6-2.9,12.8-2.2c1.5,0.2,2.9,0.7,4.1,1.3c0.3,0.1,5.7,2.9,6,3.1l58.5,31.7
					c0,0,0,0,0,0c0.7,0.4,0.8,1.3,0.3,1.7c0.2,0.2-4.4,3.3-4.4,3.6c0,0.4-6.7,4.6-7.1,4.8l-109.2,62.7c-0.5,0.3-9.6,5.3-10.2,5.3
					c-3.5,1.7-8,2.2-11.8,1.3c-1.2-0.2-2.8-0.8-3.7-1.4L137.9,219c-0.7-0.4-1.1-1.1-1.1-1.9v0c0-0.4,0.3-0.9,0.6-1.1c0,0,0,0,0,0
					L267.7,143.1z"/>
				<path class="st22" d="M268,143.3c3.6-2.1,8.6-2.9,12.7-2.2c1.5,0.3,2.9,0.7,4.1,1.3c0.2,0,5.8,3,5.9,3.1l58.4,31.6c0,0,0,0,0,0
					c0.7,0.4,0.7,1.3,0.2,1.8c0.2,0.1-4.8,3.3-4.8,3.5c0,0.3-7,4.5-7.3,4.6l-108.4,62.2c-0.3,0.2-9.7,5.4-10.1,5.4
					c-3.4,1.8-8,2.3-11.8,1.5c-1.3-0.2-2.7-0.8-3.7-1.4L138,218.7c-0.6-0.3-0.9-1-0.9-1.6c0,0,0,0,0,0c0-0.4,0.2-0.7,0.6-1
					c0,0,0,0,0,0L268,143.3z"/>
				<path class="st23" d="M268.3,143.4c3.6-2.1,8.6-2.8,12.7-2.1c1.5,0.3,2.9,0.7,4,1.4c0.1,0,5.8,3.1,5.9,3.1l58.2,31.5
					c0,0,0,0,0,0c0.7,0.4,0.7,1.4,0.1,1.8c0.1,0.1-5.2,3.2-5.2,3.3c0,0.1-7.2,4.4-7.4,4.5l-107.6,61.7c-0.2,0.1-9.8,5.6-10,5.6
					c-3.4,1.9-8.1,2.5-11.8,1.7c-1.3-0.2-2.7-0.7-3.7-1.3l-65.6-36.4c-0.5-0.3-0.8-0.8-0.7-1.3c0,0,0,0,0,0c0-0.3,0.2-0.6,0.5-0.8
					l0,0L268.3,143.4z"/>
				<path class="st24" d="M138.1,216.2l130.5-72.6c4.9-2.9,12.4-3.1,16.7-0.7l63.9,34.6c0,0,0,0,0,0c0.7,0.4,0.7,1.4,0,1.8
					l-129.6,74.4c-4.6,2.7-11.6,3-15.6,0.6l-65.8-36.5C137.6,217.5,137.5,216.7,138.1,216.2C138.1,216.2,138.1,216.2,138.1,216.2z"
					/>
			</g>
			<g>
				<path class="st26" d="M135.1,211.6l133.8-74.4c5-2.9,12.7-3.2,17-0.7l65.3,35.4c1.3,0.7,2.2,2.1,2.2,3.6c0,1.5-0.8,2.9-2.1,3.6
					l-132.5,76.3c-5,2.9-12.7,3.2-17,0.7l-66.6-36.3c-1.5-0.8-2.4-2.4-2.4-4.1C132.7,214,133.6,212.4,135.1,211.6z"/>
				<g>
					<g>
						
							<linearGradient id="stats2_SVGID_4_" gradientUnits="userSpaceOnUse" x1="135.1641" y1="172.5258" x2="351.6851" y2="172.5258" gradientTransform="matrix(1 0 0 -1 0 365.9066)">
							<stop  offset="8.000000e-08" style="stop-color:#5EACDF"/>
							<stop  offset="1" style="stop-color:#577EBF"/>
						</linearGradient>
						<path id="stats2_SVGID_13_" class="st39" d="M135.6,211.4l133.3-74.1c5-2.9,12.7-3.2,17-0.7l65.3,35.3l0,0c0.7,0.4,0.7,1.4,0,1.8
							l-132.3,76c-4.7,2.7-11.9,3-16,0.6l-67.2-37.3C135,212.7,135,211.8,135.6,211.4C135.6,211.4,135.6,211.4,135.6,211.4z"/>
					</g>
					<g>
						<defs>
							<path id="stats2_SVGID_5_" d="M135.6,211.4l133.3-74.1c5-2.9,12.7-3.2,17-0.7l65.3,35.3l0,0c0.7,0.4,0.7,1.4,0,1.8l-132.3,76
								c-4.7,2.7-11.9,3-16,0.6l-67.2-37.3C135,212.7,135,211.8,135.6,211.4C135.6,211.4,135.6,211.4,135.6,211.4z"/>
						</defs>
						<clipPath id="stats2_SVGID_6_">
							<use xlink:href="#stats2_SVGID_5_"  style="overflow:visible;"/>
						</clipPath>
						<g class="st40">
							<g id="stats2_XMLID_6_">
								<polygon class="st29" points="263,186.9 252.6,193.1 242.2,187.1 252.6,181 								"/>
								<polygon class="st41" points="252.6,252.6 242.2,246.6 242.2,187.1 252.6,193.1 								"/>
								<polygon class="st30" points="263,246.5 252.6,252.6 252.6,193.1 263,186.9 								"/>
							</g>
							<g id="stats2_XMLID_5_">
								<polygon class="st42" points="287.5,174.2 277.1,180.3 266.7,174.3 277.1,168.2 								"/>
								<polygon class="st43" points="277.1,258.3 266.7,252.3 266.7,174.3 277.1,180.3 								"/>
								<polygon class="st44" points="287.5,252.2 277.1,258.3 277.1,180.3 287.5,174.2 								"/>
							</g>
							<g id="stats2_XMLID_4_">
								<polygon class="st45" points="215.1,214.9 204.7,221 194.4,215.1 204.7,208.9 								"/>
								
									<linearGradient id="stats2_SVGID_7_" gradientUnits="userSpaceOnUse" x1="194.36" y1="128.2083" x2="204.74" y2="128.2083" gradientTransform="matrix(1 0 0 -1 0 365.9066)">
									<stop  offset="8.000000e-08" style="stop-color:#F15E5F"/>
									<stop  offset="1" style="stop-color:#C72F2E"/>
								</linearGradient>
								<polygon class="st46" points="204.7,221 204.7,260.3 194.4,254.4 194.4,215.1 								"/>
								<polygon class="st47" points="215.1,214.9 215.1,254.2 204.7,260.3 204.7,221 								"/>
							</g>
							<g id="stats2_XMLID_3_">
								
									<linearGradient id="stats2_SVGID_8_" gradientUnits="userSpaceOnUse" x1="218.24" y1="164.7582" x2="239.01" y2="164.7582" gradientTransform="matrix(1 0 0 -1 0 365.9066)">
									<stop  offset="8.000000e-08" style="stop-color:#5EACDF"/>
									<stop  offset="1" style="stop-color:#577EBF"/>
								</linearGradient>
								<polygon class="st48" points="239,201.1 228.6,207.2 218.2,201.2 228.6,195.1 								"/>
								
									<linearGradient id="stats2_SVGID_9_" gradientUnits="userSpaceOnUse" x1="218.24" y1="140.3982" x2="228.63" y2="140.3982" gradientTransform="matrix(1 0 0 -1 0 365.9066)">
									<stop  offset="8.000000e-08" style="stop-color:#58A7DD"/>
									<stop  offset="1" style="stop-color:#547ABD"/>
								</linearGradient>
								<polygon class="st49" points="228.6,249.8 218.2,243.8 218.2,201.2 228.6,207.2 								"/>
								<polygon class="st50" points="239,243.7 228.6,249.8 228.6,207.2 239,201.1 								"/>
							</g>
						</g>
					</g>
				</g>
				
					<linearGradient id="stats2_SVGID_10_" gradientUnits="userSpaceOnUse" x1="209.4669" y1="172.5258" x2="425.9878" y2="172.5258" gradientTransform="matrix(-1 0 0 -1 561.1519 365.9066)">
					<stop  offset="8.000000e-08" style="stop-color:#5EACDF"/>
					<stop  offset="1" style="stop-color:#577EBF"/>
				</linearGradient>
				<path class="st51" d="M135.6,211.4l133.3-74.1c5-2.9,12.7-3.2,17-0.7l65.3,35.3l0,0c0.7,0.4,0.7,1.4,0,1.8l-132.3,76
					c-4.7,2.7-11.9,3-16,0.6l-67.2-37.3C135,212.7,135,211.8,135.6,211.4C135.6,211.4,135.6,211.4,135.6,211.4z"/>
				<path class="st0" d="M166,232l7.6,4.2c0.7,0.4,1.3,1.4,1.3,2.3c0,0.9-0.5,1.3-1.2,1l-7.6-4.2c-0.7-0.4-1.3-1.4-1.3-2.3
					C164.8,232,165.3,231.6,166,232z"/>
				<path class="st52" d="M352.6,183.2c2.6,1.4,2.6,5.1,0,6.6l-1.4,0.8c-3.2,1.8-7,1.8-10.2,0.1l-10-5.4l12.5-7.1L352.6,183.2z"/>
			</g>
			<g>
				<path class="st1" d="M339.7,184.7c0,1.5,1.9,2.7,4.4,2.7s4.4-1.2,4.4-2.7c0-1.5-1.9-2.7-4.4-2.7
					C341.6,181.9,339.7,183.1,339.7,184.7z M340.2,184.7c0-1.2,1.8-2.2,3.8-2.2s3.8,1,3.8,2.2c0,1.2-1.8,2.2-3.8,2.2
					S340.2,185.9,340.2,184.7z"/>
			</g>
		</g>
	</g>
	<g>
		<g id="stats2_XMLID_18_">
			<polygon class="st29" points="263,127.9 252.6,134 242.2,128.1 252.6,122 			"/>
			<polygon class="st41" points="252.6,193.6 242.2,187.6 242.2,128.1 252.6,134 			"/>
			<polygon class="st30" points="263,187.5 252.6,193.6 252.6,134 263,127.9 			"/>
		</g>
		<g id="stats2_XMLID_22_">
			<polygon class="st42" points="287.5,96.1 277.1,102.2 266.7,96.3 277.1,90.2 			"/>
			<polygon class="st43" points="277.1,180.3 266.7,174.3 266.7,96.3 277.1,102.2 			"/>
			<polygon class="st44" points="287.5,174.2 277.1,180.3 277.1,102.2 287.5,96.1 			"/>
		</g>
		<g id="stats2_XMLID_2_">
			<polygon class="st45" points="215.1,175.5 204.7,181.6 194.4,175.7 204.7,169.5 			"/>
			
				<linearGradient id="stats2_SVGID_11_" gradientUnits="userSpaceOnUse" x1="194.36" y1="167.6082" x2="204.74" y2="167.6082" gradientTransform="matrix(1 0 0 -1 0 365.9066)">
				<stop  offset="8.000000e-08" style="stop-color:#F15E5F"/>
				<stop  offset="1" style="stop-color:#C72F2E"/>
			</linearGradient>
			<polygon class="st53" points="204.7,181.6 204.7,220.9 194.4,215 194.4,175.7 			"/>
			<polygon class="st47" points="215.1,175.5 215.1,214.8 204.7,220.9 204.7,181.6 			"/>
		</g>
		<g id="stats2_XMLID_29_">
			
				<linearGradient id="stats2_SVGID_12_" gradientUnits="userSpaceOnUse" x1="218.24" y1="207.3532" x2="239.01" y2="207.3532" gradientTransform="matrix(1 0 0 -1 0 365.9066)">
				<stop  offset="8.000000e-08" style="stop-color:#5EACDF"/>
				<stop  offset="1" style="stop-color:#577EBF"/>
			</linearGradient>
			<polygon class="st54" points="239,158.5 228.6,164.6 218.2,158.6 228.6,152.5 			"/>
			
				<linearGradient id="stats2_SVGID_14_" gradientUnits="userSpaceOnUse" x1="218.24" y1="182.9982" x2="228.63" y2="182.9982" gradientTransform="matrix(1 0 0 -1 0 365.9066)">
				<stop  offset="8.000000e-08" style="stop-color:#58A7DD"/>
				<stop  offset="1" style="stop-color:#547ABD"/>
			</linearGradient>
			<polygon class="st55" points="228.6,207.2 218.2,201.2 218.2,158.6 228.6,164.6 			"/>
			<polygon class="st50" points="239,201.1 228.6,207.2 228.6,164.6 239,158.5 			"/>
		</g>
	</g>
	<g>
		
			<linearGradient id="stats2_SVGID_15_" gradientUnits="userSpaceOnUse" x1="212.93" y1="250.0732" x2="257.7" y2="250.0732" gradientTransform="matrix(1 0 0 -1 0 365.9066)">
			<stop  offset="8.000000e-08" style="stop-color:#F15E5F"/>
			<stop  offset="1" style="stop-color:#C72F2E"/>
		</linearGradient>
		<polygon class="st56" points="229.7,119 212.9,109.8 241,112.6 257.7,121.9 		"/>
		<polygon class="st47" points="229.7,119 229.8,126.7 257.8,129.6 257.7,121.9 		"/>
		<polygon class="st57" points="304.7,71.7 272.6,54 304.7,38.4 304.7,38.4 		"/>
		
			<linearGradient id="stats2_SVGID_16_" gradientUnits="userSpaceOnUse" x1="174.66" y1="216.8532" x2="229.67" y2="216.8532" gradientTransform="matrix(1 0 0 -1 0 365.9066)">
			<stop  offset="8.000000e-08" style="stop-color:#F15E5F"/>
			<stop  offset="1" style="stop-color:#C72F2E"/>
		</linearGradient>
		<polygon class="st58" points="191.4,188.3 174.7,179.1 212.9,109.8 229.7,119 		"/>
		<polygon class="st47" points="272.6,46.6 272.6,54 278.9,57.4 280.4,50.8 		"/>
		<polygon class="st47" points="191.4,188.3 197.7,184.9 229.8,126.7 229.7,119 		"/>
		<polygon class="st47" points="257.7,121.9 257.8,129.6 296.7,66.9 296.5,59.2 		"/>
		
			<linearGradient id="stats2_SVGID_17_" gradientUnits="userSpaceOnUse" x1="240.93" y1="289.5082" x2="304.86" y2="289.5082" gradientTransform="matrix(1 0 0 -1 0 365.9066)">
			<stop  offset="8.000000e-08" style="stop-color:#F15E5F"/>
			<stop  offset="1" style="stop-color:#C72F2E"/>
		</linearGradient>
		<polygon class="st59" points="304.9,30.9 272.6,46.6 279.5,50.4 240.9,112.6 257.7,121.9 296.3,59.6 304,63.8 		"/>
		<polygon class="st57" points="304.7,71.7 305.7,34.8 304.9,30.9 304,63.8 		"/>
	</g>
	<g>
		<path class="st25" d="M339.3,218.7l87.7-50c2-1.2,6.2-0.6,6.2,3.6l-1.6,76.1c0,1.1-0.6,2.1-1.5,2.6l-86.4,51.3
			c-2.9,1.4-5.8-1-5.8-3.9v-77C337.7,220.2,338.3,219.2,339.3,218.7z"/>
		<path class="st26" d="M340.9,219.8l87.7-50c2-1.2,4.5,0.3,4.5,2.6v77c0,1.1-0.6,2.1-1.5,2.6l-87.7,50c-2,1.2-4.5-0.3-4.5-2.6v-77
			C339.4,221.3,339.9,220.3,340.9,219.8z"/>
		
			<linearGradient id="stats2_SVGID_18_" gradientUnits="userSpaceOnUse" x1="631.3882" y1="131.7382" x2="713.6786" y2="131.7382" gradientTransform="matrix(-1 0 0 -1 1062.4683 365.9066)">
			<stop  offset="8.000000e-08" style="stop-color:#5EACDF"/>
			<stop  offset="1" style="stop-color:#577EBF"/>
		</linearGradient>
		<path class="st60" d="M349.4,217.8l80-45.6c0.8-0.4,1.7,0.1,1.7,1v76.4c0,0.4-0.2,0.8-0.6,1l-80,45.6c-0.8,0.4-1.7-0.1-1.7-1
			v-76.4C348.8,218.4,349,218,349.4,217.8z"/>
		<g>
			<g>
				<polygon class="st1" points="378.3,259.7 376.5,260.7 376.5,259.8 378.3,258.7 				"/>
				<polygon class="st1" points="380.6,258.4 378.9,259.3 378.9,258.4 380.6,257.4 				"/>
				<polygon class="st1" points="375.6,261.3 367.9,265.8 367.8,264.8 375.6,260.3 				"/>
				<polygon class="st1" points="380.7,265.2 375.2,268.3 375.2,267.4 380.6,264.2 				"/>
				<polygon class="st1" points="372.6,264.8 369.9,266.4 369.8,265.4 372.6,263.8 				"/>
				<polygon class="st1" points="380.6,271.9 369.5,278.4 369.5,277.4 380.6,270.9 				"/>
				<polygon class="st1" points="375.7,271.6 373.7,272.7 373.7,271.8 375.7,270.6 				"/>
				<polygon class="st1" points="380.8,268.6 376.5,271.1 376.5,270.1 380.8,267.6 				"/>
				<polygon class="st1" points="380.6,261.9 377.8,263.5 377.8,262.5 380.6,260.9 				"/>
				<polygon class="st1" points="380.6,260.1 373.1,264.5 373.1,263.5 380.6,259.2 				"/>
				<polygon class="st1" points="380.7,266.9 372.2,271.8 372.2,270.9 380.7,265.9 				"/>
				<polygon class="st1" points="375.7,266.4 368,270.9 367.9,269.9 375.7,265.4 				"/>
				<polygon class="st1" points="380.7,270.3 377.5,272.2 377.5,271.2 380.7,269.3 				"/>
				<polygon class="st1" points="380.6,263.5 376.6,265.9 376.6,264.9 380.6,262.6 				"/>
			</g>
			<g>
				<g>
					<polygon class="st61" points="423.8,241 389.4,261.1 389.4,260.7 423.8,240.6 					"/>
					<polygon class="st61" points="423.8,233.7 389.3,253.8 389.3,253.3 423.8,233.2 					"/>
					<polygon class="st61" points="423.9,226.3 389.2,246.4 389.2,246 423.9,225.8 					"/>
					<polygon class="st61" points="423.9,218.9 389.2,239 389.2,238.5 423.9,218.4 					"/>
					<polygon class="st61" points="423.9,211.4 389.1,231.5 389.1,231.1 423.9,210.9 					"/>
					<polygon class="st61" points="423.8,244.9 389.4,264.9 389.4,264.5 423.8,244.4 					"/>
					<polygon class="st61" points="423.8,237.5 389.3,257.6 389.3,257.2 423.8,237.1 					"/>
					<polygon class="st61" points="423.8,230.1 389.3,250.3 389.3,249.8 423.8,229.7 					"/>
					<polygon class="st61" points="423.9,222.7 389.2,242.9 389.2,242.4 423.9,222.3 					"/>
					<polygon class="st61" points="423.9,215.3 389.1,235.4 389.1,235 423.9,214.8 					"/>
					<polygon class="st61" points="415.7,250.5 415.4,250.7 415.4,214.5 415.7,214.2 					"/>
					<polygon class="st61" points="397.2,261.3 396.8,261.5 396.5,225.4 396.9,225.1 					"/>
					<polygon class="st61" points="389.6,265.7 389.2,266 388.9,229.8 389.3,229.6 					"/>
					<polygon class="st61" points="424.3,209.3 424.2,245.5 423.8,245.8 423.9,209.5 					"/>
					<polygon class="st61" points="406.4,255.9 406.1,256.1 405.9,219.9 406.3,219.7 					"/>
				</g>
				<g>
					<g>
						<g>
							<path class="st43" d="M394.8,239.6c0.1-5.6,1.1-9.3,2.9-11.3c1.1-1.2,2.2-1.7,3.3-1.3c1.7,0.6,2,4.1,2.3,7.6
								c0,0.3,0.1,0.7,0.1,1c0.4,4.1,0.7,7.9,3.8,6.1c1.8-1,2.2-3.1,2.8-5.8c0.1-0.6,0.3-1.3,0.4-1.9c0.1-0.3,0.2-0.7,0.2-1
								c1-4,1.9-7.8,5.2-9.8l0.1-0.1c7.3-4.2,8,18.1,8,20.6l-0.2,0.1l-0.1,0.1c0-1-0.6-24.5-7.7-20.4l-0.1,0.1
								c-3.1,1.8-4,5.5-4.9,9.4c-0.1,0.3-0.2,0.7-0.2,1c-0.2,0.7-0.3,1.3-0.4,1.9c-0.6,2.8-1.1,5.1-3.1,6.3c-3.4,2-3.7-2.2-4.1-6.3
								c0-0.3-0.1-0.7-0.1-1c-0.3-3.3-0.6-6.8-2.2-7.4c-1-0.4-2,0-3,1.1c-1.6,1.9-2.5,5.5-2.7,10.9c-0.1,3.1-0.6,5-1.6,6.1
								c-2.6,2.9-4,9.1-4,18.2l-0.3,0.2c0-9.3,1.5-15.6,4.2-18.7C394.3,244.4,394.7,242.5,394.8,239.6z"/>
						</g>
					</g>
					<path class="st1" d="M398.9,226.3c0.5-0.3,0.8,0,0.8,0.5s-0.4,1.2-0.8,1.4c-0.4,0.3-0.8,0-0.8-0.5
						C398.1,227.2,398.4,226.5,398.9,226.3z"/>
					<path class="st1" d="M416.2,222c0.4-0.3,0.8,0,0.8,0.5c0,0.5-0.4,1.2-0.8,1.4c-0.4,0.3-0.8,0-0.8-0.5
						C415.4,222.9,415.8,222.2,416.2,222z"/>
				</g>
			</g>
			<g>
				<polygon class="st38" points="422.7,182.3 422.7,183.6 404.3,194.3 404.3,193 				"/>
				<polygon class="st38" points="422.4,184.8 422.4,186 408.7,194 408.7,192.7 				"/>
				<polygon class="st29" points="425.6,180.7 425.5,184.2 424.1,185 424.1,181.5 				"/>
			</g>
			<g>
				<polygon class="st43" points="422.4,189.8 422.4,191.1 404,201.8 404,200.5 				"/>
				<polygon class="st43" points="422.1,192.3 422.1,193.5 408.4,201.5 408.4,200.2 				"/>
				<polygon class="st29" points="425.3,188.2 425.2,191.7 423.8,192.5 423.8,189 				"/>
			</g>
			<g>
				<polygon class="st1" points="422.1,197.3 422.1,198.6 403.7,209.3 403.7,208 				"/>
				<polygon class="st1" points="421.8,199.8 421.8,201 408.1,209 408.1,207.7 				"/>
				<polygon class="st29" points="425,195.7 424.9,199.2 423.5,200 423.5,196.5 				"/>
			</g>
			<g>
				<g>
					<path class="st1" d="M361,219.4c0.7,0.1,1.2,0.2,1.7,0.3c2.4,0.5,3.5,0.7,6.3-2.5c1.9-2.3,5.8-4.9,9.5-7.4
						c2.9-1.9,5.6-3.8,7.3-5.4c2.8-2.6,5.3-1.7,6.9-1.1c0.8,0.3,1.4,0.5,1.8,0.3c0,0,0,0,0,0c0.1,0,0.1,0,0.1,0.1s-0.1,0.2-0.1,0.3
						c0,0,0,0,0,0c-0.5,0.3-1.1,0-1.9-0.3c-1.7-0.6-4.1-1.4-6.7,1c-1.7,1.6-4.5,3.5-7.3,5.4c-3.7,2.5-7.5,5.1-9.4,7.3
						c-1.1,1.3-1.9,2-2.7,2.4c-1.3,0.7-2.4,0.5-3.9,0.2c-0.5-0.1-1.1-0.2-1.7-0.3c-5.8-0.9-8.8,2.9-8.8,3c-0.1,0.1-0.2,0.1-0.2,0.1
						s0-0.2,0-0.3C352,222.4,355,218.5,361,219.4z"/>
				</g>
				<g>
					<g>
						<path class="st38" d="M361.5,222.1c3.1-1.4,6.3-2,9.7-2.7l0.2,0c4.4-0.9,7-3.4,10-6.3c1.5-1.4,3-2.9,4.9-4.2
							c2.9-2.1,5-3.1,6.3-3.6c1.3-0.5,1.8-0.5,1.9-0.5l-0.1,0.4c0,0-0.5,0-1.8,0.5c-1.2,0.4-3.3,1.4-6.2,3.5
							c-1.8,1.3-3.4,2.8-4.8,4.2c-1.9,1.8-3.7,3.5-5.8,4.7c-1.3,0.7-2.7,1.3-4.4,1.6l-0.2,0c-3.3,0.7-6.5,1.4-9.6,2.7
							c-3.4,1.5-6.6,3.7-9.4,6.6c-0.1,0.1-0.2,0.1-0.2,0s0-0.2,0.1-0.3C354.8,225.8,358,223.6,361.5,222.1z"/>
					</g>
				</g>
				<g>
					<polygon class="st1" points="394.7,198.3 394.2,212.7 394.1,212.8 394.5,198.4 					"/>
				</g>
				<g>
					<polygon class="st1" points="384.1,204.2 383.8,218.6 383.7,218.7 384,204.3 					"/>
				</g>
				<g>
					<polygon class="st1" points="373.6,210.2 373.3,224.5 373.2,224.6 373.4,210.3 					"/>
				</g>
				<g>
					<polygon class="st1" points="362.9,216.2 362.8,230.5 362.6,230.6 362.7,216.3 					"/>
				</g>
				<g>
					<polygon class="st1" points="352.2,236.5 352,236.6 352,222.3 352.1,222.2 					"/>
				</g>
			</g>
			<g>
				<polygon class="st1" points="379.6,226.8 379.6,227.8 377.9,228.7 377.9,227.8 				"/>
				<polygon class="st1" points="385.5,223.3 385.5,224.3 380.1,227.4 380.1,226.5 				"/>
				<polygon class="st1" points="377.1,229.2 369.9,233.3 369.9,232.4 377.1,228.3 				"/>
				<polygon class="st1" points="368.6,234.1 363.5,237 363.5,236.1 368.6,233.1 				"/>
				<polygon class="st1" points="362.6,237.6 360,239 360,238.1 362.5,236.6 				"/>
				<polygon class="st1" points="378.2,231.9 367.9,237.8 367.9,236.9 378.2,231 				"/>
				<polygon class="st1" points="361.9,241.3 360,242.4 360,241.4 361.9,240.3 				"/>
				<polygon class="st1" points="366.7,238.5 362.7,240.8 362.7,239.9 366.7,237.6 				"/>
				<polygon class="st1" points="385.5,226.7 385.5,227.6 379.1,231.4 379.1,230.5 				"/>
				<polygon class="st1" points="385.5,225.9 374.7,232.2 374.7,231.3 385.5,225 				"/>
				<polygon class="st1" points="373.5,232.9 365.6,237.5 365.6,236.5 373.5,232 				"/>
				<polygon class="st1" points="377.1,234.1 369.9,238.2 369.9,237.3 377.1,233.2 				"/>
				<polygon class="st1" points="368.6,239 365.6,240.7 365.6,239.8 368.6,238 				"/>
				<polygon class="st1" points="385.5,228.2 385.5,229.2 377.9,233.6 377.9,232.7 				"/>
			</g>
			<polygon class="st43" points="360,263.3 355.2,266 355.2,265.1 360,262.3 			"/>
			<polygon class="st43" points="358.8,262.3 355.2,264.3 355.2,263.4 358.8,261.3 			"/>
			<polygon class="st38" points="359.2,256.5 355.2,258.8 355.2,257.9 359.2,255.6 			"/>
			<polygon class="st29" points="358.9,252.5 355.1,254.7 355.1,253.7 358.9,251.6 			"/>
			<polygon class="st29" points="359.8,250.3 355.1,253 355.1,252 359.8,249.3 			"/>
			<polygon class="st29" points="354.8,266.3 354.4,266.5 354.4,263.8 354.8,263.6 			"/>
			<polygon class="st29" points="354.7,260.8 354.4,261 354.3,258.4 354.7,258.1 			"/>
			<polygon class="st29" points="354.7,255 354.3,255.2 354.3,252.5 354.7,252.2 			"/>
			<g>
				<g>
					<path class="st1" d="M365.4,250.1c-0.8,1.4-1.1,2.9-1.1,4.2c0,1.2,0.4,2.1,1.1,2.6c0.8,0.5,1.8,0.5,2.9-0.1
						c1.1-0.6,2.1-1.8,2.9-3.3c0.7-1.3,1-2.7,1-3.9c0-2.6-1.8-3.7-3.9-2.5C367.2,247.7,366.2,248.8,365.4,250.1z M365,253.7
						c0-1.1,0.3-2.2,0.9-3.3c0.6-1.1,1.4-1.9,2.2-2.4c1.8-1,3.3-0.1,3.4,2.2c0,1-0.3,2.1-0.8,3.1c-0.6,1.1-1.4,2.1-2.3,2.6
						c-0.9,0.5-1.8,0.6-2.4,0.1C365.4,255.5,365,254.7,365,253.7z"/>
				</g>
				<g>
					<path class="st43" d="M368.6,255.4c0.8-0.5,1.4-1.3,1.9-2.2c0.5-0.9,0.7-1.9,0.7-2.9c0-1.8-1.1-2.8-2.6-2.2l-0.2,0.1l0-1.5
						l0.3-0.1c2.1-0.9,3.7,0.3,3.7,2.9c0,1.3-0.4,2.8-1,4.1c-0.7,1.4-1.7,2.6-2.8,3.3l-0.2,0.2l0-1.5L368.6,255.4z"/>
				</g>
			</g>
			<g>
				<g>
					<path class="st1" d="M375.5,244.2c-0.8,1.4-1.2,2.9-1.2,4.3c0,1.2,0.4,2.2,1,2.7c0.8,0.6,1.8,0.5,2.9-0.1
						c1.1-0.6,2.2-1.9,3-3.4c0.7-1.3,1.1-2.8,1.1-4c0-2.7-1.8-3.9-3.9-2.6C377.3,241.7,376.3,242.8,375.5,244.2z M375.1,248
						c0-1.1,0.3-2.3,1-3.4c0.6-1.1,1.4-1.9,2.3-2.4c1.9-1.1,3.4,0,3.4,2.3c0,1-0.3,2.2-0.9,3.2c-0.6,1.2-1.5,2.1-2.4,2.6
						c-0.9,0.5-1.8,0.6-2.5,0.1C375.4,249.8,375.1,249,375.1,248z"/>
				</g>
				<g>
					<path class="st29" d="M375.3,247.8c0,1,0.3,1.8,0.9,2.2c0.6,0.5,1.5,0.4,2.4-0.1c0.9-0.5,1.6-1.4,2.2-2.4c0.5-1,0.8-2,0.8-3
						c0-2.2-1.4-3.2-3.2-2.2l-0.2,0.1l0.2-1.5l0.2-0.1c2.3-1.3,4.1-0.1,4.1,2.7c0,1.3-0.4,2.8-1.1,4.2c-0.8,1.6-2,2.9-3.1,3.6
						c-1.2,0.7-2.2,0.7-3,0.1c-0.7-0.5-1.1-1.5-1.1-2.8v-0.2l1.1-0.9L375.3,247.8z"/>
				</g>
			</g>
			<g>
				<g>
					<polygon class="st1" points="367.8,279.7 365.3,281.2 365.1,274.2 367.7,272.7 					"/>
					<polygon class="st38" points="364.6,281.6 362,283.1 361.8,273.3 364.4,271.9 					"/>
					<polygon class="st29" points="361.3,283.5 358.7,284.9 358.5,276.6 361.1,275.1 					"/>
					<polygon class="st43" points="358,285.3 355.4,286.8 355.2,274.2 357.8,272.8 					"/>
				</g>
			</g>
		</g>
		<path class="st62" d="M431.1,173.2v76.4c0,0.4-0.2,0.8-0.6,1l-1.7,1l-70.2-39l70.8-40.3C430.1,171.7,431.1,172.3,431.1,173.2z"/>
	</g>
	<g>
		<g>
			<path class="st1" d="M380.8,311.4l27-15.5c0.8-0.4,1.6-0.6,2.5-0.6c0.9,0,1.7,0.2,2.5,0.7l27,14.7c1.6,0.9,2.6,2.7,2.6,4.6
				c0,1.9-1,3.6-2.6,4.5l-27,15.2c-0.7,0.4-1.6,0.6-2.4,0.6c-0.9,0-1.7-0.2-2.5-0.7l-26.9-14.5c-1.6-0.9-2.6-2.7-2.6-4.6
				C378.2,314.1,379.2,312.3,380.8,311.4z"/>
			<path class="st2" d="M407.9,296.1c0.5-0.3,1-0.5,1.6-0.5c0.3,0,0.6-0.1,0.9-0.1c0.8,0,1.8,0.3,2.5,0.7l26.8,14.6
				c0.5,0.3,1,0.8,1.4,1.2c0.8,0.9,1.1,2.1,1.1,3.3c0,1.8-1.1,3.6-2.7,4.4l-26.8,15.1c-0.7,0.4-1.6,0.6-2.4,0.6c-0.2,0-0.5,0-0.8,0
				c-0.6-0.1-1.2-0.3-1.7-0.6L381,320.5c-0.6-0.4-1.2-0.9-1.6-1.5c-0.6-0.9-1-2-0.9-3.1c0-1.8,1.1-3.6,2.7-4.5L407.9,296.1z"/>
			<path class="st3" d="M408,296.3c0.5-0.3,1-0.5,1.6-0.5c0.3,0,0.6,0,0.9,0c0.8,0,1.8,0.3,2.5,0.7l26.6,14.5
				c0.5,0.3,1.1,0.8,1.4,1.2c0.8,0.9,1.1,2.1,1,3.3c0,1.7-1.3,3.5-2.7,4.3l-26.5,14.9c-0.7,0.4-1.6,0.7-2.4,0.7c-0.2,0-0.5,0-0.7,0
				c-0.6-0.1-1.1-0.3-1.7-0.5l-26.8-14.4c-0.6-0.3-1.3-0.9-1.6-1.4c-0.7-0.9-1-2-0.9-3c0-1.7,1.3-3.5,2.7-4.4L408,296.3z"/>
			<path class="st4" d="M408.1,296.4c0.5-0.3,1-0.5,1.5-0.5c0.3,0,0.6,0,0.8,0c0.8,0,1.8,0.3,2.4,0.7l26.4,14.4
				c0.5,0.3,1.1,0.8,1.4,1.2c0.8,0.9,1.1,2.1,1,3.3c0,1.6-1.4,3.4-2.8,4.2l-26.3,14.8c-0.6,0.4-1.6,0.7-2.3,0.7c-0.2,0-0.5,0-0.7,0
				c-0.6,0-1.1-0.2-1.6-0.5l-26.7-14.3c-0.6-0.3-1.3-0.9-1.6-1.4c-0.7-0.8-1-2-0.9-3c0-1.6,1.4-3.5,2.8-4.3L408.1,296.4z"/>
			<path class="st5" d="M408.1,296.5c0.5-0.3,1-0.4,1.5-0.5c0.2,0,0.6,0,0.8,0c0.7,0,1.8,0.4,2.4,0.8l26.3,14.3
				c0.5,0.3,1.1,0.8,1.4,1.1c0.8,0.9,1.1,2.1,0.9,3.2c0,1.6-1.5,3.4-2.8,4.1l-26,14.6c-0.6,0.3-1.6,0.7-2.3,0.7c-0.2,0-0.5,0-0.7,0
				c-0.6,0-1.1-0.2-1.6-0.5l-26.6-14.3c-0.5-0.3-1.3-0.9-1.6-1.4c-0.7-0.8-1-2-0.8-3c0-1.6,1.5-3.4,2.9-4.2L408.1,296.5z"/>
			<path class="st6" d="M408.2,296.7c0.5-0.3,1-0.4,1.5-0.5c0.2,0,0.6,0,0.8,0c0.7,0,1.8,0.4,2.4,0.8l26.1,14.2
				c0.4,0.3,1.1,0.8,1.4,1.1c0.8,0.9,1.1,2.1,0.9,3.2c0,1.5-1.6,3.3-2.9,4l-25.7,14.5c-0.6,0.3-1.6,0.7-2.3,0.7c-0.2,0-0.5,0-0.7,0
				c-0.6,0-1.1-0.2-1.6-0.5l-26.5-14.3c-0.5-0.3-1.3-0.9-1.7-1.4c-0.7-0.8-1-2-0.8-3c0-1.5,1.7-3.4,2.9-4.1L408.2,296.7z"/>
			<path class="st7" d="M408.3,296.8c0.5-0.3,1-0.4,1.5-0.4c0.2,0,0.6,0,0.8,0c0.6,0,1.8,0.5,2.4,0.8l25.9,14.1
				c0.4,0.2,1.1,0.8,1.4,1.1c0.8,0.8,1.1,2.1,0.8,3.1c0,1.4-1.7,3.2-2.9,3.9l-25.5,14.4c-0.5,0.3-1.6,0.7-2.2,0.7
				c-0.2,0-0.5,0.1-0.7,0c-0.5,0-1.1-0.2-1.6-0.5L381.7,320c-0.5-0.3-1.4-0.9-1.7-1.4c-0.7-0.8-1-2-0.7-3c0-1.4,1.8-3.3,3-4
				L408.3,296.8z"/>
			<path class="st8" d="M408.4,297c0.5-0.3,1-0.4,1.5-0.4c0.2,0,0.6,0,0.8,0c0.6,0,1.8,0.5,2.3,0.8l25.7,14c0.4,0.2,1.1,0.8,1.4,1.1
				c0.8,0.8,1.1,2.1,0.8,3.1c0,1.3-1.8,3.2-3,3.8l-25.2,14.2c-0.5,0.3-1.6,0.7-2.2,0.7c-0.2,0-0.5,0.1-0.7,0c-0.5,0-1.1-0.1-1.6-0.4
				l-26.4-14.2c-0.5-0.3-1.4-0.9-1.7-1.3c-0.7-0.8-1-2-0.7-2.9c0-1.3,1.9-3.3,3-3.9L408.4,297z"/>
			<path class="st9" d="M408.4,297.1c0.5-0.3,1-0.4,1.5-0.4c0.2,0,0.6,0.1,0.8,0.1c0.6,0,1.8,0.5,2.3,0.8l25.6,14
				c0.4,0.2,1.2,0.8,1.4,1.1c0.8,0.8,1.1,2.1,0.7,3.1c0,1.2-2,3.1-3,3.7l-25,14.1c-0.5,0.3-1.6,0.8-2.2,0.8c-0.2,0-0.5,0.1-0.7,0.1
				c-0.5,0-1.1-0.1-1.6-0.4L382,319.8c-0.4-0.2-1.4-0.9-1.7-1.3c-0.7-0.8-1-2-0.6-2.9c0-1.2,2.1-3.2,3.1-3.8L408.4,297.1z"/>
			<path class="st10" d="M408.5,297.3c0.5-0.3,1-0.4,1.5-0.4c0.2,0,0.6,0.1,0.8,0.1c0.5,0,1.8,0.6,2.3,0.8l25.4,13.9
				c0.3,0.2,1.2,0.8,1.4,1c0.8,0.8,1.1,2.1,0.7,3c0,1.2-2.1,3-3.1,3.6l-24.7,13.9c-0.5,0.3-1.6,0.8-2.1,0.8c-0.2,0-0.5,0.1-0.7,0.1
				c-0.5,0-1.1-0.1-1.6-0.4l-26.2-14.1c-0.4-0.2-1.4-0.9-1.7-1.3c-0.8-0.8-1-2-0.6-2.9c0-1.2,2.2-3.1,3.2-3.7L408.5,297.3z"/>
			<path class="st11" d="M408.6,297.4c0.5-0.3,1-0.4,1.5-0.3c0.2,0,0.6,0.1,0.8,0.1c0.5,0,1.8,0.6,2.3,0.9l25.2,13.8
				c0.3,0.2,1.2,0.8,1.4,1c0.8,0.8,1.1,2.1,0.6,3c0,1.1-2.2,3-3.1,3.5l-24.5,13.8c-0.4,0.2-1.6,0.8-2.1,0.8c-0.1,0-0.5,0.1-0.7,0.1
				c-0.5,0-1.1-0.1-1.5-0.3l-26.1-14c-0.4-0.2-1.5-0.9-1.7-1.3c-0.8-0.7-1-2-0.5-2.9c0-1.1,2.3-3.1,3.2-3.6L408.6,297.4z"/>
			<path class="st12" d="M408.7,297.5c0.5-0.3,1-0.4,1.5-0.3c0.1,0,0.6,0.1,0.8,0.1c0.5,0,1.8,0.6,2.2,0.9l25,13.7
				c0.3,0.2,1.2,0.8,1.4,1c0.8,0.8,1,2,0.6,3c0,1-2.3,2.9-3.1,3.4l-24.2,13.6c-0.4,0.2-1.6,0.8-2.1,0.8c-0.1,0-0.5,0.1-0.6,0.1
				c-0.5,0.1-1.1,0-1.5-0.3l-26.1-14c-0.3-0.2-1.5-0.9-1.7-1.2c-0.8-0.7-1-2-0.5-2.8c0-1,2.5-3,3.3-3.5L408.7,297.5z"/>
			<path class="st13" d="M408.7,297.7c0.5-0.3,1-0.4,1.5-0.3c0.1,0,0.6,0.1,0.7,0.1c0.4,0,1.8,0.7,2.2,0.9L438,312
				c0.3,0.1,1.2,0.8,1.4,1c0.9,0.7,1,2,0.5,2.9c0,0.9-2.4,2.8-3.2,3.3l-23.9,13.5c-0.4,0.2-1.6,0.8-2,0.8c-0.1,0-0.5,0.1-0.6,0.1
				c-0.5,0.1-1,0-1.5-0.3l-26-14c-0.3-0.2-1.5-0.9-1.7-1.2c-0.8-0.7-1-2-0.5-2.8c0-0.9,2.6-3,3.4-3.4L408.7,297.7z"/>
			<path class="st14" d="M408.8,297.8c0.5-0.3,1-0.3,1.5-0.3c0.1,0,0.6,0.2,0.7,0.2c0.4,0,1.9,0.7,2.2,0.9l24.7,13.5
				c0.2,0.1,1.2,0.8,1.4,1c0.9,0.7,1,2,0.5,2.9c0,0.8-2.5,2.8-3.2,3.2l-23.7,13.4c-0.3,0.2-1.6,0.8-2,0.8c-0.1,0-0.5,0.2-0.6,0.1
				c-0.5,0.1-1,0-1.5-0.3l-25.9-13.9c-0.3-0.2-1.5-0.9-1.7-1.2c-0.8-0.7-1-2-0.4-2.8c0-0.8,2.7-2.9,3.4-3.3L408.8,297.8z"/>
			<path class="st15" d="M408.9,298c0.5-0.3,1-0.3,1.5-0.2c0.1,0,0.6,0.2,0.7,0.2c0.3,0,1.9,0.7,2.2,0.9l24.5,13.4
				c0.2,0.1,1.3,0.8,1.4,1c0.9,0.7,1,2,0.4,2.9c0,0.7-2.7,2.7-3.3,3l-23.4,13.2c-0.3,0.2-1.6,0.8-2,0.8c-0.1,0-0.5,0.2-0.6,0.1
				c-0.5,0.1-1,0-1.5-0.2L383,319.1c-0.3-0.1-1.6-0.9-1.7-1.2c-0.8-0.7-1-2-0.4-2.8c0-0.7,2.9-2.8,3.5-3.2L408.9,298z"/>
			<path class="st16" d="M409,298.1c0.5-0.3,1-0.3,1.4-0.2c0.1,0,0.6,0.2,0.7,0.2c0.3,0,1.9,0.8,2.1,0.9l24.4,13.3
				c0.2,0.1,1.3,0.8,1.4,0.9c0.9,0.7,1,2,0.4,2.8c0,0.7-2.8,2.6-3.3,2.9l-23.2,13.1c-0.3,0.1-1.6,0.8-2,0.8c-0.1,0-0.5,0.2-0.6,0.2
				c-0.5,0.1-1,0-1.5-0.2l-25.8-13.8c-0.2-0.1-1.6-0.9-1.8-1.1c-0.8-0.7-1-2-0.3-2.7c0-0.7,3-2.8,3.5-3.1L409,298.1z"/>
			<path class="st17" d="M409.1,298.3c0.5-0.3,1-0.3,1.4-0.2c0.1,0,0.6,0.2,0.7,0.2c0.3,0,1.9,0.8,2.1,0.9l24.2,13.2
				c0.2,0.1,1.3,0.8,1.4,0.9c0.9,0.7,1,2,0.3,2.8c0,0.6-2.9,2.6-3.4,2.8l-22.9,12.9c-0.2,0.1-1.7,0.9-1.9,0.9
				c-0.1,0-0.5,0.2-0.6,0.2c-0.5,0.1-1,0.1-1.5-0.2l-25.7-13.8c-0.2-0.1-1.6-1-1.8-1.1c-0.9-0.6-1-2-0.3-2.7c0-0.6,3.1-2.7,3.6-3
				L409.1,298.3z"/>
			<path class="st18" d="M409.1,298.4c0.4-0.3,1-0.3,1.4-0.1c0.1,0,0.6,0.2,0.7,0.2c0.2,0,1.9,0.8,2.1,1l24,13.1
				c0.1,0.1,1.3,0.8,1.4,0.9c0.9,0.7,1,2,0.3,2.7c0,0.5-3,2.5-3.4,2.7L413,331.7c-0.2,0.1-1.7,0.9-1.9,0.9c-0.1,0-0.5,0.2-0.6,0.2
				c-0.5,0.1-1,0.1-1.4-0.2l-25.6-13.8c-0.2-0.1-1.7-1-1.8-1.1c-0.9-0.6-1-2-0.3-2.7c0-0.5,3.3-2.7,3.7-2.9L409.1,298.4z"/>
			<path class="st19" d="M409.2,298.6c0.4-0.3,1-0.3,1.4-0.1c0.1,0,0.6,0.3,0.7,0.3c0.2,0,1.9,0.9,2.1,1l23.9,13
				c0.1,0.1,1.3,0.8,1.4,0.9c0.9,0.6,1,2,0.2,2.7c0,0.4-3.1,2.4-3.5,2.6L413,331.5c-0.2,0.1-1.7,0.9-1.9,0.9c-0.1,0-0.5,0.2-0.6,0.2
				c-0.5,0.2-1,0.1-1.4-0.1l-25.5-13.7c-0.1-0.1-1.7-1-1.8-1.1c-0.9-0.6-1-2-0.2-2.6c0-0.4,3.4-2.6,3.7-2.8L409.2,298.6z"/>
			<path class="st20" d="M409.3,298.7c0.4-0.3,1-0.3,1.4-0.1c0,0,0.6,0.3,0.7,0.3c0.1,0,1.9,0.9,2,1l23.7,12.9
				c0.1,0.1,1.3,0.8,1.4,0.9c0.9,0.6,1,2,0.2,2.7c0,0.3-3.2,2.4-3.5,2.5L413,331.3c-0.1,0.1-1.7,0.9-1.8,0.9c0,0-0.5,0.2-0.6,0.2
				c-0.5,0.2-1,0.1-1.4-0.1l-25.4-13.7c-0.1-0.1-1.7-1-1.8-1.1c-0.9-0.6-1-2-0.2-2.6c0-0.3,3.5-2.5,3.8-2.7L409.3,298.7z"/>
			<path class="st21" d="M409.4,298.8c0.4-0.3,1-0.3,1.4-0.1c0,0,0.6,0.3,0.6,0.3c0.1,0,1.9,1,2,1l23.5,12.8c0.1,0,1.4,0.8,1.4,0.8
				c0.9,0.6,1,2,0.1,2.6c0,0.3-3.4,2.3-3.6,2.4L413,331.1c-0.1,0-1.7,0.9-1.8,0.9c0,0-0.5,0.3-0.5,0.3c-0.4,0.2-1,0.2-1.4-0.1
				l-25.4-13.6c-0.1,0-1.7-1-1.8-1c-0.9-0.6-1-2-0.1-2.6c0-0.3,3.6-2.5,3.9-2.6L409.4,298.8z"/>
			<path class="st22" d="M409.4,299c0.4-0.3,1-0.3,1.4,0c0,0,0.6,0.3,0.6,0.3c0.1,0,1.9,1,2,1l23.3,12.7c0,0,1.4,0.8,1.4,0.8
				c0.9,0.6,1,2,0.1,2.6c0,0.2-3.5,2.2-3.6,2.3l-21.6,12.2c-0.1,0-1.7,0.9-1.8,0.9c0,0-0.5,0.3-0.5,0.3c-0.4,0.2-1,0.2-1.4-0.1
				l-25.3-13.6c-0.1,0-1.8-1-1.8-1c-0.9-0.6-1-2-0.1-2.6c0-0.2,3.8-2.4,3.9-2.5L409.4,299z"/>
			<path class="st23" d="M409.5,299.1c0.4-0.2,1-0.3,1.4,0c0,0,0.6,0.3,0.6,0.3c0,0,1.9,1,2,1l23.2,12.6c0,0,1.4,0.8,1.4,0.8
				c0.9,0.6,1,2,0,2.6c0,0.1-3.6,2.2-3.7,2.2l-21.4,12c0,0-1.7,0.9-1.7,0.9c0,0-0.5,0.3-0.5,0.3c-0.4,0.2-0.9,0.2-1.4,0l-25.2-13.5
				c0,0-1.8-1-1.8-1c-0.9-0.6-1-2,0-2.5c0-0.1,3.9-2.4,4-2.4L409.5,299.1z"/>
			<path class="st24" d="M409.6,299.3c0.4-0.2,0.9-0.2,1.4,0l27,14.7c1,0.6,0.9,2,0,2.5l-27,15.2c-0.4,0.2-0.9,0.2-1.4,0l-26.9-14.5
				c-1-0.5-1-2,0-2.5L409.6,299.3z"/>
		</g>
		<path class="st25" d="M437.6,313.5L412,299.6c-1.6-0.9-3.5-0.8-5,0L382,313.5c-1.3,0.7-1.3,2.6,0,3.4l24.9,13.9
			c1.6,0.9,3.5,0.9,5,0l25.6-13.9C439,316.1,439,314.2,437.6,313.5z"/>
		<rect x="381.1" y="311.6" class="st25" width="57.6" height="3.7"/>
		<path class="st1" d="M437.6,309.7L412,295.8c-1.6-0.9-3.5-0.8-5,0L382,309.7c-1.3,0.7-1.3,2.6,0,3.4L407,327c1.6,0.9,3.5,0.9,5,0
			l25.6-13.9C439,312.4,439,310.4,437.6,309.7z"/>
		<path class="st26" d="M382.1,312.6l9.2,5.1l15.3,8.5l0.4,0.2c1.6,0.9,3.5,0.9,5,0l16.5-9l7.2-3.9l1.9-1c1.3-0.7,1.3-2.7,0-3.4
			L412,295.3c-1.6-0.8-3.5-0.8-5,0l-6.6,3.7l-9.6,5.4l-8.7,4.9C380.7,310,380.7,311.9,382.1,312.6z"/>
	</g>
	<g>
		<path class="st63" d="M409.2,259.8c2.5,0,3.4,0.8,3.5,1.5c0.1,1.6-1.2,2.6-3.2,2.4c-2-0.2-4.8-0.8-6.9-2.4c-0.9-0.6,1.3-2.1,1.9-2
			C405.1,259.4,407.1,259.9,409.2,259.8z"/>
		<path class="st63" d="M409.8,259.7l-2.2,0.4c0.6-1.8-0.3-2-0.3-2l0.9-1.6L409.8,259.7z"/>
		<path class="st63" d="M401.8,253.1c0.1,1.2,1.3,3.7,2.6,6.2c0.6,1.2-1,2.6-2.1,1.6s-2.2-7.6-2.2-7.6
			C400.9,252.4,401.8,253.1,401.8,253.1z"/>
		<path class="st63" d="M400.9,249.1c0.4,0.7,0.6,0.2,0.9,0.3c0.3,0.1,0.9,1.1,0.9,1.4c0,0.3-0.9,1.2-0.9,2.5c0,0.2-1.6,0.2-1.6,0.2
			s-0.7-1.9-0.7-2.4c0-0.5-0.6-1.1-0.3-1.1s0.7,0.6,1,0.9c0.2,0.3,0.5-0.3,0.4-1c0-0.7-0.9-2.1-0.6-2.2
			C400.1,247.6,400.5,248.6,400.9,249.1z"/>
		<path class="st63" d="M413.2,281.7c0,0-1.5,3.7-0.3,6.3c1.9,4.3,1.3,13.4,1.4,14.5c0.2,1.1-1.8,2.2-2.3,0.1
			c-0.5-2.1-2.7-11.6-3.7-13.9c-1-2.3-0.6-6.5-0.6-6.5L413.2,281.7z"/>
		<path class="st63" d="M409.2,284.6c-0.9,1.9-1.9,7.4-1.4,10.9c0.5,3.5-0.6,10.3-0.6,11.4c0,1.1-1.9,2-2-0.2
			c-0.1-2.2-1.1-11-1.8-13.4s0.4-9.8,0.4-9.8S410.1,282.8,409.2,284.6z"/>
		<path class="st64" d="M403.7,309.6c1.3-0.8,1.1-3.1,1.1-3.1c1.7,0.1,2.5-0.3,2.5-0.3c0,0.7,0.8,1.9,0.9,3c0.1,1-0.7,1.5-0.7,2.3
			h-0.7l0.4-1.9c-1.1,0-2.6,2-4,2c-1.5,0-1.9-0.5-2-0.9C401,310.2,402.4,310.4,403.7,309.6z"/>
		<path class="st64" d="M410.7,305.8c1.3-0.8,1.1-3.1,1.1-3.1c1.7,0.1,2.5-0.3,2.5-0.3c0,0.7,0.8,1.9,0.9,3c0.1,1-0.7,1.5-0.7,2.3
			h-0.7l0.4-1.9c-1.1,0-2.6,2-4,2c-1.5,0-1.9-0.5-2-0.9C408.1,306.4,409.4,306.6,410.7,305.8z"/>
		<path class="st65" d="M412.1,269.7c0,0,0.4,1.5,1.5,3.4s2.2,4.7,1.8,6.9c-0.4,2.1,0.4,10.6,1.2,14.9c0,0-3.8,0.8-5.3,1.8
			c-5.1,3.6-10.6,0.2-10.6,0.2c0-9.2,3.8-21.1,4.6-26.4L412.1,269.7z"/>
		<path class="st66" d="M404.2,264.6c0.3-0.9,0.5-1.7,0.9-3.1c0.4-1.4,2.6-2.2,4.7-1.9c2.3,0.4,2.7,3.7,2.7,5.8
			c0,1.9-0.2,4.1,0.9,7.2c-2.4,2.2-6.5,3.2-9,1.9c0.3-2.1,1.3-5.6,0.9-7.2C405.2,267.1,403.6,266.3,404.2,264.6z"/>
		<path class="st63" d="M405.8,253.9c-0.1-0.3,0-0.8,0-1c0.3-2.1,3.2-0.2,4.2,1.5c1,1.7-3.2,4.7-4,3.2c-1-1.8-0.5-3.1-0.5-3.1
			C405.7,254.3,405.9,254.2,405.8,253.9z"/>
		<path class="st37" d="M408.8,250.7c2.3,0.6,3-0.8,4.2,1.9c1,2.2,2.7,0.1,3.7,2.6c1,2.5-0.1,1.8,1.4,4.2c1.3,2-0.1,3.9-0.6,5.2
			s-1.5,2-0.3,3.9c0,0-4.7-0.1-4.4-3.2s-2.6-1.6-2.4-3.8c0.2-1.8-2.1-1-2-2.2s-2.1-1.6-0.6-3.6c0.8-1.2-2.4-1.9-2.2-3.3
			C405.7,251.6,406.5,250.2,408.8,250.7z"/>
		<path class="st63" d="M408.1,254.7c0.2,0.4,0,0.9-0.2,1.3c-0.2,0.3-0.4,0.2-0.4,0.1c0-0.2-0.2-0.6-0.1-1.2
			C407.5,254.6,408,254.3,408.1,254.7z"/>
		<path class="st63" d="M404.8,264.5c0.1-2.7,1-3.8,1.6-3.8c1.6-0.1,2.5,1.5,2.2,3.8c-0.3,2.2-1,5.3-2.8,7.6c-0.7,0.9-2-1.6-1.9-2.3
			C404.1,269.1,404.7,266.8,404.8,264.5z"/>
		<path class="st63" d="M394.7,270.9c0.7-0.1,1.9,0.1,1.6-0.2s-0.6-0.7-0.6-0.9c0-0.3,0.3,0.4,0.8,0.5c0.5,0.1,1.8,1,1.8,1
			s0,1.5-0.2,1.5s-0.9,0.2-1.4,0.3c-0.5,0.1-1.6,0.9-1.7,0.7c-0.1-0.2-1-1-1-1.2c-0.1-0.3,0.8-1.2,0.1-0.7c-0.7,0.5-1.5,0.5-1.2,0.3
			C393.2,271.8,394,271,394.7,270.9z"/>
		<path class="st63" d="M398,271.1c1.2,0.1,4.8-1.2,6.2-1.4c0.6-0.1,2.8,1.6,1.6,2.5c-1.2,0.9-7.9,0.6-7.9,0.6
			C397.1,271.8,398,271.1,398,271.1z"/>
	</g>
	<g>
		<g>
			<g>
				<path class="st1" d="M229.6,324.4l20.4-11.7c0.6-0.3,1.2-0.5,1.9-0.5c0.7,0,1.3,0.2,1.9,0.5l14.1,8.3c1.2,0.7,2,2,1.9,3.5
					s-0.8,2.8-2,3.4l-20.5,11.5c-0.6,0.3-1.2,0.5-1.8,0.5c-0.6,0-1.3-0.2-1.9-0.5l-14.1-8.1c-1.2-0.7-2-2-2-3.5
					C227.6,326.4,228.3,325.1,229.6,324.4z"/>
				<path class="st2" d="M250.1,312.8c0.4-0.2,0.8-0.4,1.3-0.4c0.2,0,0.4,0,0.6,0c0.6,0,1.3,0.2,1.9,0.5l14,8.2
					c0.4,0.2,0.7,0.5,1,0.8c0.6,0.7,1,1.7,0.9,2.6c0,1.4-0.9,2.7-2,3.4l-20.3,11.4c-0.5,0.3-1.2,0.5-1.8,0.5c-0.2,0-0.4,0-0.6,0
					c-0.4-0.1-0.9-0.2-1.3-0.4l-14-8.1c-0.4-0.3-0.9-0.6-1.2-1.1c-0.5-0.7-0.8-1.5-0.7-2.4c0-1.4,0.9-2.7,2-3.4L250.1,312.8z"/>
				<path class="st3" d="M250.1,312.9c0.4-0.2,0.8-0.4,1.2-0.4c0.2,0,0.4,0,0.6,0c0.6,0,1.3,0.2,1.9,0.5l13.8,8.1
					c0.3,0.2,0.7,0.5,1,0.8c0.6,0.7,1,1.6,0.9,2.6c0,1.3-1,2.6-2.1,3.3l-20.1,11.3c-0.5,0.3-1.2,0.5-1.8,0.5c-0.2,0-0.4,0-0.6,0
					c-0.4,0-0.9-0.2-1.3-0.4l-14-8c-0.4-0.3-0.9-0.6-1.2-1c-0.5-0.7-0.8-1.5-0.7-2.4c0-1.3,1-2.7,2.1-3.3L250.1,312.9z"/>
				<path class="st4" d="M250.2,313c0.4-0.2,0.8-0.4,1.2-0.4c0.2,0,0.4,0,0.6,0c0.6,0,1.3,0.3,1.8,0.5l13.7,8.1
					c0.3,0.2,0.7,0.5,1,0.8c0.6,0.7,0.9,1.6,0.8,2.6c0,1.3-1,2.6-2.1,3.2L247.4,339c-0.5,0.3-1.2,0.5-1.8,0.5c-0.2,0-0.4,0-0.6,0
					c-0.4,0-0.9-0.2-1.3-0.4l-13.9-8c-0.4-0.2-0.9-0.6-1.2-1c-0.5-0.6-0.8-1.5-0.7-2.3c0-1.3,1.1-2.6,2.1-3.2L250.2,313z"/>
				<path class="st5" d="M250.2,313.1c0.4-0.2,0.8-0.3,1.2-0.4c0.2,0,0.4,0,0.6,0c0.5,0,1.3,0.3,1.8,0.6l13.6,8
					c0.3,0.2,0.7,0.5,1,0.8c0.6,0.7,0.9,1.6,0.8,2.5c0,1.2-1.1,2.5-2.1,3.1l-19.7,11.1c-0.5,0.3-1.2,0.5-1.7,0.5c-0.2,0-0.4,0-0.6,0
					c-0.4,0-0.9-0.2-1.2-0.4l-13.8-8c-0.4-0.2-0.9-0.7-1.2-1c-0.5-0.6-0.8-1.5-0.6-2.3c0-1.2,1.2-2.6,2.2-3.2L250.2,313.1z"/>
				<path class="st6" d="M250.3,313.2c0.4-0.2,0.8-0.3,1.2-0.4c0.1,0,0.4,0,0.5,0c0.5,0,1.3,0.3,1.8,0.6l13.5,7.9
					c0.3,0.2,0.7,0.5,1,0.8c0.6,0.7,0.9,1.6,0.8,2.5c0,1.1-1.2,2.5-2.2,3l-19.5,11c-0.4,0.3-1.2,0.5-1.7,0.5c-0.1,0-0.4,0-0.5,0
					c-0.4,0-0.9-0.1-1.2-0.4l-13.8-8c-0.4-0.2-1-0.7-1.2-1c-0.6-0.6-0.8-1.5-0.6-2.3c0-1.1,1.3-2.5,2.2-3.1L250.3,313.2z"/>
				<path class="st7" d="M250.4,313.3c0.4-0.2,0.8-0.3,1.2-0.3c0.1,0,0.4,0,0.5,0c0.5,0,1.3,0.3,1.8,0.6l13.4,7.9
					c0.3,0.2,0.8,0.5,1,0.7c0.6,0.6,0.9,1.6,0.7,2.5c0,1.1-1.3,2.5-2.2,3l-19.3,10.9c-0.4,0.2-1.2,0.5-1.7,0.5c-0.1,0-0.4,0-0.5,0
					c-0.4,0-0.8-0.1-1.2-0.3l-13.7-7.9c-0.4-0.2-1-0.7-1.2-1c-0.6-0.6-0.8-1.5-0.6-2.3c0-1.1,1.4-2.5,2.3-3L250.4,313.3z"/>
				<path class="st8" d="M250.4,313.4c0.4-0.2,0.8-0.3,1.2-0.3c0.1,0,0.4,0,0.5,0c0.5,0,1.3,0.4,1.7,0.6l13.3,7.8
					c0.3,0.1,0.8,0.5,1,0.7c0.6,0.6,0.9,1.6,0.7,2.4c0,1-1.4,2.4-2.2,2.9l-19.1,10.8c-0.4,0.2-1.2,0.6-1.7,0.6c-0.1,0-0.4,0.1-0.5,0
					c-0.4,0-0.8-0.1-1.2-0.3l-13.7-7.9c-0.3-0.2-1-0.7-1.2-1c-0.6-0.6-0.8-1.5-0.5-2.3c0-1,1.5-2.5,2.3-2.9L250.4,313.4z"/>
				<path class="st9" d="M250.5,313.6c0.4-0.2,0.8-0.3,1.2-0.3c0.1,0,0.4,0,0.5,0c0.4,0,1.3,0.4,1.7,0.6l13.1,7.7
					c0.2,0.1,0.8,0.5,1,0.7c0.6,0.6,0.9,1.6,0.6,2.4c0,0.9-1.5,2.4-2.3,2.8l-18.9,10.6c-0.4,0.2-1.2,0.6-1.6,0.6
					c-0.1,0-0.4,0.1-0.5,0c-0.4,0-0.8-0.1-1.2-0.3l-13.6-7.9c-0.3-0.2-1-0.7-1.2-1c-0.6-0.6-0.8-1.5-0.5-2.2c0-0.9,1.6-2.4,2.4-2.9
					L250.5,313.6z"/>
				<path class="st10" d="M250.5,313.7c0.4-0.2,0.8-0.3,1.2-0.3c0.1,0,0.4,0.1,0.5,0.1c0.4,0,1.3,0.4,1.7,0.6l13,7.7
					c0.2,0.1,0.8,0.5,0.9,0.7c0.7,0.6,0.9,1.6,0.6,2.4c0,0.9-1.6,2.3-2.3,2.7l-18.7,10.5c-0.3,0.2-1.2,0.6-1.6,0.6
					c-0.1,0-0.4,0.1-0.5,0.1c-0.4,0-0.8-0.1-1.2-0.3l-13.6-7.8c-0.3-0.2-1-0.7-1.2-0.9c-0.6-0.6-0.8-1.5-0.5-2.2
					c0-0.9,1.7-2.4,2.4-2.8L250.5,313.7z"/>
				<path class="st11" d="M250.6,313.8c0.4-0.2,0.8-0.3,1.2-0.3c0.1,0,0.4,0.1,0.5,0.1c0.4,0,1.3,0.5,1.7,0.6l12.9,7.6
					c0.2,0.1,0.8,0.5,0.9,0.7c0.7,0.6,0.9,1.6,0.5,2.3c0,0.8-1.7,2.3-2.4,2.6l-18.5,10.4c-0.3,0.2-1.2,0.6-1.6,0.6
					c-0.1,0-0.4,0.1-0.5,0.1c-0.4,0-0.8,0-1.2-0.3l-13.5-7.8c-0.3-0.1-1.1-0.7-1.2-0.9c-0.6-0.6-0.8-1.5-0.4-2.2
					c0-0.8,1.8-2.3,2.4-2.7L250.6,313.8z"/>
				<path class="st12" d="M250.6,313.9c0.4-0.2,0.8-0.3,1.1-0.2c0.1,0,0.4,0.1,0.5,0.1c0.3,0,1.3,0.5,1.6,0.7l12.8,7.5
					c0.2,0.1,0.8,0.5,0.9,0.7c0.7,0.6,0.9,1.6,0.5,2.3c0,0.8-1.8,2.2-2.4,2.5l-18.3,10.3c-0.3,0.2-1.2,0.6-1.6,0.6
					c-0.1,0-0.4,0.1-0.5,0.1c-0.4,0-0.8,0-1.2-0.2l-13.5-7.8c-0.3-0.1-1.1-0.7-1.2-0.9c-0.6-0.5-0.8-1.5-0.4-2.2
					c0-0.8,1.9-2.3,2.5-2.6L250.6,313.9z"/>
				<path class="st13" d="M250.7,314c0.4-0.2,0.8-0.3,1.1-0.2c0.1,0,0.4,0.1,0.5,0.1c0.3,0,1.3,0.5,1.6,0.7l12.7,7.5
					c0.2,0.1,0.8,0.5,0.9,0.7c0.7,0.6,0.8,1.6,0.5,2.3c0,0.7-1.8,2.1-2.4,2.5l-18.1,10.2c-0.3,0.1-1.2,0.6-1.5,0.6
					c-0.1,0-0.4,0.1-0.5,0.1c-0.4,0.1-0.8,0-1.1-0.2l-13.4-7.7c-0.2-0.1-1.1-0.7-1.2-0.9c-0.6-0.5-0.8-1.5-0.4-2.1
					c0-0.7,2-2.2,2.6-2.6L250.7,314z"/>
				<path class="st14" d="M250.8,314.1c0.4-0.2,0.8-0.3,1.1-0.2c0.1,0,0.4,0.1,0.5,0.1c0.3,0,1.4,0.5,1.6,0.7l12.6,7.4
					c0.2,0.1,0.8,0.5,0.9,0.6c0.7,0.5,0.8,1.6,0.4,2.2c0,0.6-1.9,2.1-2.5,2.4l-17.9,10.1c-0.2,0.1-1.2,0.6-1.5,0.6
					c-0.1,0-0.4,0.1-0.5,0.1c-0.4,0.1-0.8,0-1.1-0.2l-13.4-7.7c-0.2-0.1-1.1-0.7-1.2-0.9c-0.6-0.5-0.8-1.5-0.3-2.1
					c0-0.6,2.1-2.2,2.6-2.5L250.8,314.1z"/>
				<path class="st15" d="M250.8,314.2c0.4-0.2,0.8-0.3,1.1-0.2c0.1,0,0.4,0.1,0.5,0.1c0.3,0,1.4,0.6,1.6,0.7l12.5,7.3
					c0.1,0.1,0.8,0.5,0.9,0.6c0.7,0.5,0.8,1.6,0.4,2.2c0,0.6-2,2-2.5,2.3l-17.7,10c-0.2,0.1-1.3,0.6-1.5,0.6c-0.1,0-0.4,0.1-0.5,0.1
					c-0.4,0.1-0.8,0-1.1-0.2l-13.3-7.7c-0.2-0.1-1.1-0.7-1.2-0.9c-0.6-0.5-0.8-1.5-0.3-2.1c0-0.6,2.2-2.1,2.6-2.4L250.8,314.2z"/>
				<path class="st16" d="M250.9,314.3c0.4-0.2,0.8-0.3,1.1-0.1c0.1,0,0.4,0.1,0.5,0.1c0.2,0,1.4,0.6,1.5,0.7l12.4,7.3
					c0.1,0.1,0.8,0.5,0.9,0.6c0.7,0.5,0.8,1.6,0.3,2.2c0,0.5-2.1,2-2.5,2.2l-17.5,9.9c-0.2,0.1-1.3,0.6-1.5,0.6
					c-0.1,0-0.4,0.1-0.5,0.1c-0.4,0.1-0.8,0-1.1-0.2l-13.2-7.6c-0.2-0.1-1.1-0.7-1.2-0.9c-0.6-0.5-0.7-1.5-0.3-2.1
					c0-0.5,2.3-2.1,2.7-2.4L250.9,314.3z"/>
				<path class="st17" d="M250.9,314.4c0.3-0.2,0.8-0.2,1.1-0.1c0.1,0,0.4,0.1,0.5,0.1c0.2,0,1.4,0.6,1.5,0.7l12.2,7.2
					c0.1,0.1,0.8,0.5,0.9,0.6c0.7,0.5,0.8,1.5,0.3,2.1c0,0.4-2.2,1.9-2.6,2.1l-17.3,9.8c-0.2,0.1-1.3,0.6-1.5,0.6
					c-0.1,0-0.4,0.1-0.4,0.1c-0.4,0.1-0.8,0-1.1-0.1l-13.2-7.6c-0.1-0.1-1.1-0.7-1.2-0.8c-0.7-0.5-0.7-1.5-0.2-2.1
					c0-0.4,2.4-2.1,2.7-2.3L250.9,314.4z"/>
				<path class="st18" d="M251,314.5c0.3-0.2,0.7-0.2,1.1-0.1c0,0,0.4,0.2,0.4,0.2c0.2,0,1.4,0.6,1.5,0.7l12.1,7.1
					c0.1,0.1,0.8,0.5,0.9,0.6c0.7,0.5,0.8,1.5,0.2,2.1c0,0.4-2.3,1.9-2.6,2.1l-17.1,9.7c-0.1,0.1-1.3,0.7-1.4,0.7
					c0,0-0.4,0.2-0.4,0.1c-0.4,0.1-0.8,0.1-1.1-0.1l-13.1-7.6c-0.1-0.1-1.2-0.7-1.3-0.8c-0.7-0.5-0.7-1.5-0.2-2c0-0.4,2.5-2,2.8-2.2
					L251,314.5z"/>
				<path class="st19" d="M251.1,314.6c0.3-0.2,0.7-0.2,1.1-0.1c0,0,0.4,0.2,0.4,0.2c0.1,0,1.4,0.7,1.5,0.7l12,7.1
					c0.1,0,0.9,0.5,0.9,0.6c0.7,0.5,0.8,1.5,0.2,2.1c0,0.3-2.4,1.8-2.6,2l-17,9.5c-0.1,0.1-1.3,0.7-1.4,0.7c0,0-0.4,0.2-0.4,0.2
					c-0.4,0.1-0.7,0.1-1.1-0.1l-13.1-7.5c-0.1-0.1-1.2-0.7-1.3-0.8c-0.7-0.5-0.7-1.5-0.2-2c0-0.3,2.6-2,2.8-2.1L251.1,314.6z"/>
				<path class="st20" d="M251.1,314.8c0.3-0.2,0.7-0.2,1.1-0.1c0,0,0.4,0.2,0.4,0.2c0.1,0,1.4,0.7,1.5,0.8l11.9,7
					c0.1,0,0.9,0.5,0.9,0.6c0.7,0.5,0.8,1.5,0.1,2c0,0.3-2.5,1.8-2.7,1.9l-16.8,9.4c-0.1,0.1-1.3,0.7-1.4,0.7c0,0-0.4,0.2-0.4,0.2
					c-0.3,0.1-0.7,0.1-1.1-0.1l-13-7.5c-0.1,0-1.2-0.7-1.3-0.8c-0.7-0.5-0.7-1.5-0.1-2c0-0.3,2.7-1.9,2.9-2L251.1,314.8z"/>
				<path class="st21" d="M251.2,314.9c0.3-0.2,0.7-0.2,1.1,0c0,0,0.4,0.2,0.4,0.2c0.1,0,1.4,0.7,1.4,0.8l11.8,6.9
					c0,0,0.9,0.5,0.9,0.6c0.7,0.5,0.7,1.5,0.1,2c0,0.2-2.5,1.7-2.7,1.8l-16.6,9.3c-0.1,0-1.3,0.7-1.4,0.7c0,0-0.4,0.2-0.4,0.2
					c-0.3,0.1-0.7,0.1-1.1-0.1l-13-7.5c-0.1,0-1.2-0.7-1.3-0.8c-0.7-0.5-0.7-1.5-0.1-2c0-0.2,2.8-1.9,2.9-2L251.2,314.9z"/>
				<path class="st22" d="M251.2,315c0.3-0.2,0.7-0.2,1,0c0,0,0.4,0.2,0.4,0.2c0.1,0,1.4,0.8,1.4,0.8l11.7,6.9c0,0,0.9,0.5,0.9,0.5
					c0.7,0.5,0.7,1.5,0.1,2c0,0.1-2.6,1.7-2.7,1.7l-16.4,9.2c0,0-1.3,0.7-1.3,0.7c0,0-0.4,0.2-0.4,0.2c-0.3,0.2-0.7,0.1-1,0
					l-12.9-7.4c0,0-1.2-0.7-1.3-0.8c-0.7-0.4-0.7-1.5-0.1-2c0-0.1,2.9-1.8,3-1.9L251.2,315z"/>
				<path class="st23" d="M251.3,315.1c0.3-0.2,0.7-0.2,1,0c0,0,0.4,0.2,0.4,0.2c0,0,1.4,0.8,1.4,0.8l11.5,6.8c0,0,0.9,0.5,0.9,0.5
					c0.7,0.4,0.7,1.5,0,2c0,0.1-2.7,1.6-2.8,1.7l-16.2,9.1c0,0-1.3,0.7-1.3,0.7c0,0-0.4,0.2-0.4,0.2c-0.3,0.2-0.7,0.2-1,0l-12.9-7.4
					c0,0-1.3-0.7-1.3-0.8c-0.7-0.4-0.7-1.5,0-1.9c0-0.1,3-1.8,3-1.8L251.3,315.1z"/>
				<path class="st24" d="M251.3,315.2c0.3-0.2,0.7-0.2,1,0l14.1,8.3c0.7,0.4,0.7,1.5,0,1.9L246,336.9c-0.3,0.2-0.7,0.2-1,0
					l-14.1-8.1c-0.7-0.4-0.7-1.5,0-1.9L251.3,315.2z"/>
			</g>
			<path class="st25" d="M230.8,309.1l14.1,8.1c0.3,0.2,0.7,0.2,1,0l20.5-11.5c0.6-0.3,0.7-1.1,0.4-1.6c0.3,0.2,0.4,0.5,0.4,0.9
				v19.2c0,0.6-0.3,1.1-0.8,1.4l-20.1,11.3c-0.5,0.3-1,0.3-1.5,0l-14-8c-0.5-0.3-0.8-0.8-0.8-1.4v-18.9c0-0.4,0.2-0.8,0.5-1.1
				C230.1,307.9,230.2,308.8,230.8,309.1z"/>
			
				<linearGradient id="stats2_SVGID_19_" gradientUnits="userSpaceOnUse" x1="-108.2716" y1="48.5569" x2="-66.0384" y2="48.5569" gradientTransform="matrix(-1 0 0 -1 161.397 365.9066)">
				<stop  offset="0" style="stop-color:#FFD55D"/>
				<stop  offset="1" style="stop-color:#F9A81F"/>
			</linearGradient>
			<path class="st67" d="M245.5,322l21.6-12.2v2.7l-21.6,12.2c-0.4,0.2-0.8,0.2-1.2,0l-14.3-8.2v-2.7l14.3,8.2
				C244.7,322.2,245.2,322.2,245.5,322z"/>
			
				<linearGradient id="stats2_SVGID_20_" gradientUnits="userSpaceOnUse" x1="-108.2716" y1="41.3969" x2="-66.0384" y2="41.3969" gradientTransform="matrix(-1 0 0 -1 161.397 365.9066)">
				<stop  offset="0" style="stop-color:#FFD55D"/>
				<stop  offset="1" style="stop-color:#F9A81F"/>
			</linearGradient>
			<path class="st68" d="M245.5,329.1l21.6-12.2v2.7l-21.6,12.2c-0.4,0.2-0.8,0.2-1.2,0l-14.3-8.2v-2.7l14.3,8.2
				C244.7,329.3,245.2,329.4,245.5,329.1z"/>
			<path class="st26" d="M251.3,295.5c0.3-0.2,0.7-0.2,1,0l14.1,8.3c0.7,0.4,0.7,1.5,0,1.9l-20.5,11.5c-0.3,0.2-0.7,0.2-1,0
				l-14.1-8.1c-0.7-0.4-0.7-1.5,0-1.9L251.3,295.5z"/>
		</g>
	</g>
	<g>
		<g>
			<g>
				<path class="st1" d="M2,165.8l20.5-11.7c0.6-0.3,1.2-0.5,1.8-0.5c0.7,0,1.3,0.2,1.9,0.5l14.1,8.3c1.2,0.7,2,2,1.9,3.5
					c0,1.4-0.8,2.8-2,3.4l-20.5,11.5c-0.6,0.3-1.2,0.5-1.8,0.5c-0.7,0-1.3-0.2-1.9-0.5L2,172.7c-1.2-0.7-2-2-2-3.5
					C0,167.8,0.8,166.5,2,165.8z"/>
				<path class="st2" d="M22.5,154.2c0.4-0.2,0.8-0.4,1.3-0.4c0.2,0,0.4,0,0.6,0c0.6,0,1.3,0.2,1.9,0.5l14,8.2
					c0.4,0.2,0.7,0.5,1,0.8c0.6,0.7,1,1.7,0.9,2.6c0,1.4-0.9,2.7-2,3.4l-20.3,11.4c-0.5,0.3-1.2,0.5-1.8,0.5c-0.2,0-0.4,0-0.6,0
					c-0.4-0.1-0.9-0.2-1.3-0.4l-14-8.1c-0.4-0.3-0.9-0.6-1.2-1.1c-0.5-0.7-0.8-1.5-0.7-2.4c0-1.4,0.9-2.7,2-3.4L22.5,154.2z"/>
				<path class="st3" d="M22.6,154.3c0.4-0.2,0.8-0.4,1.2-0.4c0.2,0,0.4,0,0.6,0c0.6,0,1.3,0.2,1.8,0.5l13.8,8.1
					c0.3,0.2,0.7,0.5,1,0.8c0.6,0.7,1,1.6,0.9,2.6c0,1.3-1,2.6-2.1,3.3l-20.1,11.3c-0.5,0.3-1.2,0.5-1.8,0.5c-0.2,0-0.4,0-0.6,0
					c-0.4-0.1-0.9-0.2-1.3-0.4l-14-8c-0.4-0.3-0.9-0.6-1.2-1c-0.5-0.7-0.8-1.5-0.7-2.4c0-1.3,1-2.7,2.1-3.3L22.6,154.3z"/>
				<path class="st4" d="M22.6,154.4c0.4-0.2,0.8-0.4,1.2-0.4c0.2,0,0.4,0,0.6,0c0.6,0,1.3,0.3,1.8,0.6l13.7,8.1
					c0.3,0.2,0.7,0.5,1,0.8c0.6,0.7,0.9,1.6,0.8,2.6c0,1.3-1,2.6-2.1,3.2l-19.9,11.2c-0.5,0.3-1.2,0.5-1.8,0.5c-0.2,0-0.4,0-0.5,0
					c-0.4,0-0.9-0.2-1.3-0.4l-13.9-8c-0.4-0.2-0.9-0.6-1.2-1c-0.5-0.6-0.8-1.5-0.7-2.3c0-1.3,1.1-2.6,2.1-3.2L22.6,154.4z"/>
				<path class="st5" d="M22.7,154.6c0.4-0.2,0.8-0.3,1.2-0.4c0.2,0,0.4,0,0.6,0c0.5,0,1.3,0.3,1.8,0.6l13.6,8
					c0.3,0.2,0.7,0.5,1,0.8c0.6,0.7,0.9,1.6,0.8,2.5c0,1.2-1.1,2.6-2.1,3.1l-19.7,11.1c-0.5,0.3-1.2,0.5-1.7,0.5c-0.2,0-0.4,0-0.5,0
					c-0.4,0-0.9-0.2-1.2-0.4l-13.8-8c-0.4-0.2-0.9-0.7-1.2-1c-0.5-0.6-0.8-1.5-0.6-2.3c0-1.2,1.2-2.6,2.2-3.2L22.7,154.6z"/>
				<path class="st6" d="M22.7,154.7c0.4-0.2,0.8-0.3,1.2-0.4c0.2,0,0.4,0,0.5,0c0.5,0,1.3,0.3,1.8,0.6l13.5,7.9
					c0.3,0.2,0.7,0.5,1,0.8c0.6,0.7,0.9,1.6,0.8,2.5c0,1.1-1.2,2.5-2.2,3l-19.5,11c-0.4,0.3-1.2,0.5-1.7,0.5c-0.1,0-0.4,0-0.5,0
					c-0.4,0-0.8-0.1-1.2-0.4l-13.8-7.9c-0.4-0.2-1-0.7-1.2-1c-0.6-0.6-0.8-1.5-0.6-2.3c0-1.1,1.3-2.6,2.2-3.1L22.7,154.7z"/>
				<path class="st7" d="M22.8,154.8c0.4-0.2,0.8-0.3,1.2-0.3c0.1,0,0.4,0,0.5,0c0.5,0,1.3,0.3,1.8,0.6l13.4,7.9
					c0.3,0.2,0.8,0.5,1,0.7c0.6,0.6,0.9,1.6,0.7,2.5c0,1.1-1.3,2.4-2.2,3L19.8,180c-0.4,0.2-1.2,0.6-1.7,0.6c-0.1,0-0.4,0.1-0.5,0
					c-0.4,0-0.8-0.1-1.2-0.3l-13.7-7.9c-0.4-0.2-1-0.7-1.2-1c-0.6-0.6-0.8-1.5-0.6-2.3c0-1.1,1.4-2.5,2.3-3L22.8,154.8z"/>
				<path class="st8" d="M22.8,154.9c0.4-0.2,0.8-0.3,1.2-0.3c0.1,0,0.4,0,0.5,0c0.5,0,1.3,0.4,1.7,0.6l13.3,7.8
					c0.3,0.1,0.8,0.5,1,0.7c0.7,0.6,0.9,1.6,0.7,2.4c0,1-1.4,2.4-2.2,2.9l-19.1,10.8c-0.4,0.2-1.2,0.6-1.7,0.6c-0.1,0-0.4,0.1-0.5,0
					c-0.4,0-0.8-0.1-1.2-0.3l-13.7-7.9c-0.3-0.2-1-0.7-1.2-1C1,170.7,0.8,169.8,1,169c0-1,1.5-2.5,2.3-2.9L22.8,154.9z"/>
				<path class="st9" d="M22.9,155c0.4-0.2,0.8-0.3,1.2-0.3c0.1,0,0.4,0.1,0.5,0.1c0.4,0,1.3,0.4,1.7,0.6l13.1,7.7
					c0.2,0.1,0.8,0.5,1,0.7c0.7,0.6,0.9,1.6,0.6,2.4c0,0.9-1.5,2.4-2.3,2.8l-18.9,10.6c-0.4,0.2-1.2,0.6-1.6,0.6
					c-0.1,0-0.4,0.1-0.5,0.1c-0.4,0-0.8-0.1-1.2-0.3l-13.6-7.9c-0.3-0.2-1-0.7-1.2-0.9c-0.6-0.6-0.8-1.5-0.5-2.2
					c0-0.9,1.6-2.4,2.4-2.9L22.9,155z"/>
				<path class="st10" d="M23,155.1c0.4-0.2,0.8-0.3,1.2-0.3c0.1,0,0.4,0.1,0.5,0.1c0.4,0,1.3,0.4,1.7,0.6l13,7.7
					c0.2,0.1,0.8,0.5,0.9,0.7c0.7,0.6,0.9,1.6,0.6,2.4c0,0.9-1.6,2.3-2.3,2.7l-18.7,10.5c-0.3,0.2-1.2,0.6-1.6,0.6
					c-0.1,0-0.4,0.1-0.5,0.1c-0.4,0-0.8-0.1-1.2-0.3L3,172.1c-0.3-0.2-1-0.7-1.2-0.9c-0.6-0.6-0.8-1.5-0.5-2.2
					c0-0.9,1.7-2.4,2.4-2.8L23,155.1z"/>
				<path class="st11" d="M23,155.2c0.4-0.2,0.8-0.3,1.2-0.3c0.1,0,0.4,0.1,0.5,0.1c0.4,0,1.3,0.4,1.7,0.6l12.9,7.6
					c0.2,0.1,0.8,0.5,0.9,0.7c0.7,0.6,0.9,1.6,0.5,2.3c0,0.8-1.7,2.3-2.3,2.6l-18.5,10.4c-0.3,0.2-1.2,0.6-1.6,0.6
					c-0.1,0-0.4,0.1-0.5,0.1c-0.4,0-0.8-0.1-1.2-0.3L3.1,172c-0.3-0.1-1.1-0.7-1.2-0.9c-0.6-0.6-0.8-1.5-0.4-2.2
					c0-0.8,1.8-2.3,2.4-2.7L23,155.2z"/>
				<path class="st12" d="M23.1,155.3c0.4-0.2,0.8-0.3,1.2-0.2c0.1,0,0.4,0.1,0.5,0.1c0.3,0,1.3,0.5,1.6,0.7l12.8,7.5
					c0.2,0.1,0.8,0.5,0.9,0.7c0.7,0.6,0.8,1.6,0.5,2.3c0,0.8-1.8,2.2-2.4,2.6l-18.3,10.3c-0.3,0.2-1.2,0.6-1.6,0.6
					c-0.1,0-0.4,0.1-0.5,0.1c-0.4,0.1-0.8,0-1.2-0.2l-13.5-7.8C3,171.8,2.2,171.2,2,171c-0.6-0.6-0.8-1.5-0.4-2.2
					c0-0.8,1.9-2.3,2.5-2.6L23.1,155.3z"/>
				<path class="st13" d="M23.1,155.4c0.4-0.2,0.8-0.3,1.1-0.2c0.1,0,0.4,0.1,0.5,0.1c0.3,0,1.3,0.5,1.6,0.7l12.7,7.5
					c0.2,0.1,0.8,0.5,0.9,0.7c0.7,0.6,0.8,1.6,0.5,2.3c0,0.7-1.8,2.1-2.4,2.5l-18.1,10.2c-0.3,0.1-1.2,0.6-1.5,0.6
					c-0.1,0-0.4,0.1-0.5,0.1c-0.4,0.1-0.8,0-1.1-0.2l-13.4-7.7c-0.2-0.1-1.1-0.7-1.2-0.9c-0.6-0.5-0.8-1.5-0.4-2.1
					c0-0.7,2-2.2,2.6-2.6L23.1,155.4z"/>
				<path class="st14" d="M23.2,155.5c0.3-0.2,0.8-0.3,1.1-0.2c0.1,0,0.4,0.1,0.5,0.1c0.3,0,1.3,0.5,1.6,0.7l12.6,7.4
					c0.2,0.1,0.8,0.5,0.9,0.6c0.7,0.6,0.8,1.6,0.4,2.2c0,0.6-1.9,2.1-2.5,2.4L20,178.9c-0.2,0.1-1.2,0.6-1.5,0.6
					c-0.1,0-0.4,0.1-0.5,0.1c-0.4,0.1-0.8,0-1.1-0.2l-13.3-7.7c-0.2-0.1-1.1-0.7-1.2-0.9c-0.6-0.5-0.8-1.5-0.3-2.1
					c0-0.6,2.1-2.2,2.6-2.5L23.2,155.5z"/>
				<path class="st15" d="M23.2,155.6c0.3-0.2,0.8-0.3,1.1-0.2c0.1,0,0.4,0.1,0.5,0.1c0.3,0,1.3,0.6,1.6,0.7l12.5,7.3
					c0.2,0.1,0.8,0.5,0.9,0.6c0.7,0.5,0.8,1.6,0.4,2.2c0,0.6-2,2-2.5,2.3l-17.7,10c-0.2,0.1-1.3,0.6-1.5,0.6c-0.1,0-0.4,0.1-0.5,0.1
					c-0.4,0.1-0.8,0-1.1-0.2l-13.3-7.7c-0.2-0.1-1.1-0.7-1.2-0.9c-0.6-0.5-0.8-1.5-0.3-2.1c0-0.6,2.2-2.1,2.6-2.4L23.2,155.6z"/>
				<path class="st16" d="M23.3,155.8c0.3-0.2,0.8-0.3,1.1-0.1c0.1,0,0.4,0.1,0.5,0.1c0.2,0,1.3,0.6,1.5,0.7l12.4,7.3
					c0.1,0.1,0.8,0.5,0.9,0.6c0.7,0.5,0.8,1.6,0.3,2.2c0,0.5-2.1,2-2.5,2.2L20,178.6c-0.2,0.1-1.3,0.6-1.5,0.6
					c-0.1,0-0.4,0.1-0.5,0.1c-0.4,0.1-0.8,0-1.1-0.2l-13.2-7.6c-0.2-0.1-1.1-0.7-1.2-0.9c-0.6-0.5-0.7-1.5-0.3-2.1
					c0-0.5,2.3-2.1,2.7-2.4L23.3,155.8z"/>
				<path class="st17" d="M23.4,155.9c0.3-0.2,0.8-0.2,1.1-0.1c0.1,0,0.4,0.1,0.5,0.1c0.2,0,1.3,0.6,1.5,0.7l12.2,7.2
					c0.1,0.1,0.8,0.5,0.9,0.6c0.7,0.5,0.8,1.6,0.3,2.1c0,0.4-2.2,1.9-2.6,2.1L20,178.5c-0.2,0.1-1.3,0.6-1.5,0.6
					c-0.1,0-0.4,0.1-0.5,0.1c-0.4,0.1-0.8,0.1-1.1-0.1l-13.2-7.6c-0.1-0.1-1.1-0.7-1.2-0.8c-0.7-0.5-0.7-1.5-0.2-2.1
					c0-0.4,2.4-2.1,2.7-2.3L23.4,155.9z"/>
				<path class="st18" d="M23.4,156c0.3-0.2,0.7-0.2,1.1-0.1c0,0,0.4,0.1,0.4,0.1c0.2,0,1.4,0.6,1.5,0.7l12.1,7.1
					c0.1,0.1,0.8,0.5,0.9,0.6c0.7,0.5,0.8,1.6,0.2,2.1c0,0.4-2.3,1.9-2.6,2.1L20,178.3c-0.1,0.1-1.3,0.7-1.4,0.7
					c0,0-0.4,0.2-0.4,0.1c-0.4,0.1-0.8,0.1-1.1-0.1l-13.1-7.6c-0.1-0.1-1.2-0.7-1.3-0.8c-0.7-0.5-0.7-1.5-0.2-2c0-0.4,2.5-2,2.8-2.2
					L23.4,156z"/>
				<path class="st19" d="M23.5,156.1c0.3-0.2,0.7-0.2,1.1-0.1c0,0,0.4,0.2,0.4,0.2c0.1,0,1.4,0.7,1.5,0.7l12,7.1
					c0.1,0.1,0.8,0.5,0.9,0.6c0.7,0.5,0.8,1.5,0.2,2.1c0,0.3-2.4,1.8-2.6,2L20,178.2c-0.1,0.1-1.3,0.7-1.4,0.7c0,0-0.4,0.2-0.4,0.2
					c-0.3,0.1-0.7,0.1-1.1-0.1L4,171.4c-0.1-0.1-1.2-0.7-1.3-0.8c-0.7-0.5-0.7-1.5-0.2-2c0-0.3,2.6-2,2.8-2.1L23.5,156.1z"/>
				<path class="st20" d="M23.5,156.2c0.3-0.2,0.7-0.2,1.1-0.1c0,0,0.4,0.2,0.4,0.2c0.1,0,1.4,0.7,1.5,0.8l11.9,7
					c0.1,0,0.9,0.5,0.9,0.6c0.7,0.5,0.8,1.5,0.2,2c0,0.3-2.5,1.8-2.7,1.9L20,178c-0.1,0.1-1.3,0.7-1.4,0.7c0,0-0.4,0.2-0.4,0.2
					c-0.3,0.1-0.7,0.1-1.1-0.1l-13-7.5c-0.1-0.1-1.2-0.7-1.3-0.8c-0.7-0.5-0.7-1.5-0.1-2c0-0.3,2.7-1.9,2.9-2.1L23.5,156.2z"/>
				<path class="st21" d="M23.6,156.3c0.3-0.2,0.7-0.2,1.1-0.1c0,0,0.4,0.2,0.4,0.2c0.1,0,1.4,0.7,1.4,0.8l11.8,6.9
					c0,0,0.9,0.5,0.9,0.6c0.7,0.5,0.7,1.5,0.1,2c0,0.2-2.5,1.7-2.7,1.8L20,177.9c-0.1,0-1.3,0.7-1.4,0.7c0,0-0.4,0.2-0.4,0.2
					c-0.3,0.1-0.7,0.1-1.1-0.1l-13-7.5c-0.1,0-1.2-0.7-1.3-0.8c-0.7-0.4-0.7-1.5-0.1-2c0-0.2,2.8-1.9,2.9-2L23.6,156.3z"/>
				<path class="st22" d="M23.7,156.4c0.3-0.2,0.7-0.2,1,0c0,0,0.4,0.2,0.4,0.2c0.1,0,1.4,0.8,1.4,0.8l11.7,6.9c0,0,0.9,0.5,0.9,0.6
					c0.7,0.4,0.7,1.5,0.1,2c0,0.1-2.6,1.7-2.7,1.7l-16.4,9.2c0,0-1.3,0.7-1.3,0.7c0,0-0.4,0.2-0.4,0.2c-0.3,0.2-0.7,0.1-1,0
					l-12.9-7.4c0,0-1.2-0.7-1.3-0.8c-0.7-0.4-0.7-1.5-0.1-2c0-0.1,2.9-1.8,3-1.9L23.7,156.4z"/>
				<path class="st23" d="M23.7,156.5c0.3-0.2,0.7-0.2,1,0c0,0,0.4,0.2,0.4,0.2c0,0,1.4,0.8,1.4,0.8l11.5,6.8c0,0,0.9,0.5,0.9,0.5
					c0.7,0.4,0.7,1.5,0,1.9c0,0.1-2.7,1.6-2.8,1.7l-16.2,9.1c0,0-1.3,0.7-1.3,0.7c0,0-0.4,0.2-0.4,0.2c-0.3,0.2-0.7,0.2-1,0
					l-12.8-7.4c0,0-1.3-0.7-1.3-0.8c-0.7-0.4-0.7-1.5,0-1.9c0-0.1,3-1.8,3-1.8L23.7,156.5z"/>
				<path class="st24" d="M23.8,156.6c0.3-0.2,0.7-0.2,1,0l14.1,8.3c0.7,0.4,0.7,1.5,0,1.9l-20.4,11.5c-0.3,0.2-0.7,0.2-1,0
					l-14.1-8.1c-0.7-0.4-0.7-1.5,0-1.9L23.8,156.6z"/>
			</g>
			<path class="st25" d="M3.2,150.6l14.1,8.1c0.3,0.2,0.7,0.2,1,0l20.5-11.5c0.6-0.3,0.7-1.1,0.4-1.6c0.3,0.2,0.4,0.5,0.4,0.9v19.2
				c0,0.6-0.3,1.1-0.8,1.4l-20.1,11.3c-0.5,0.3-1,0.3-1.5,0l-14-8.1c-0.5-0.3-0.8-0.8-0.8-1.4V150c0-0.4,0.2-0.8,0.5-1.1
				C2.5,149.4,2.6,150.2,3.2,150.6z"/>
			
				<linearGradient id="stats2_SVGID_21_" gradientUnits="userSpaceOnUse" x1="119.2978" y1="207.117" x2="161.5316" y2="207.117" gradientTransform="matrix(-1 0 0 -1 161.397 365.9066)">
				<stop  offset="8.000000e-08" style="stop-color:#5EACDF"/>
				<stop  offset="1" style="stop-color:#577EBF"/>
			</linearGradient>
			<path class="st69" d="M18,163.4l21.6-12.2v2.7L18,166.2c-0.4,0.2-0.8,0.2-1.2,0l-14.3-8.2v-2.7l14.3,8.2
				C17.2,163.6,17.6,163.6,18,163.4z"/>
			
				<linearGradient id="stats2_SVGID_22_" gradientUnits="userSpaceOnUse" x1="119.2978" y1="199.947" x2="161.5316" y2="199.947" gradientTransform="matrix(-1 0 0 -1 161.397 365.9066)">
				<stop  offset="8.000000e-08" style="stop-color:#5EACDF"/>
				<stop  offset="1" style="stop-color:#577EBF"/>
			</linearGradient>
			<path class="st70" d="M18,170.6l21.6-12.2v2.7L18,173.3c-0.4,0.2-0.8,0.2-1.2,0l-14.3-8.2v-2.7l14.3,8.2
				C17.2,170.8,17.6,170.8,18,170.6z"/>
			<path class="st26" d="M23.7,136.9c0.3-0.2,0.7-0.2,1,0l14.1,8.3c0.7,0.4,0.7,1.5,0,1.9l-20.5,11.5c-0.3,0.2-0.7,0.2-1,0
				l-14.1-8.1c-0.7-0.4-0.7-1.5,0-1.9L23.7,136.9z"/>
		</g>
	</g>
</g>
</svg>
