<?xml version="1.0" encoding="utf-8"?>
<!-- Generator: Adobe Illustrator 25.1.0, SVG Export Plug-In . SVG Version: 6.00 Build 0)  -->
<svg version="1.1" id="web2_Layer_1" xmlns="http://www.w3.org/2000/svg" xmlns:xlink="http://www.w3.org/1999/xlink" x="0px" y="0px"
	 viewBox="0 0 182.1 182.9" style="enable-background:new 0 0 182.1 182.9;" xml:space="preserve">
<style type="text/css">
	.st0{fill:#FFFFFF;}
	.st1{fill:#F9F8F9;}
	.st2{fill:#F4F4F4;}
	.st3{fill:#F0F0F0;}
	.st4{fill:#ECECED;}
	.st5{fill:#E9E8E9;}
	.st6{fill:#E5E4E6;}
	.st7{fill:#E1E1E3;}
	.st8{fill:#DDDDDF;}
	.st9{fill:#DADADC;}
	.st10{fill:#D6D6D9;}
	.st11{fill:#D3D3D6;}
	.st12{fill:#CFD0D3;}
	.st13{fill:#CCCCD0;}
	.st14{fill:#C9C9CD;}
	.st15{fill:#C5C6CA;}
	.st16{fill:#C2C3C7;}
	.st17{fill:#C4C5D0;}
	.st18{fill:url(#web2_SVGID_1_;}
	.st19{fill:url(#web2_SVGID_2_;}
	.st20{fill:#F0EFF3;}
	.st21{fill:#FFD55D;}
	.st22{fill:#F9A81F;}
	.st23{fill:#79C264;}
	.st24{fill:url(#web2_SVGID_3_;}
	.st25{fill:url(#web2_SVGID_4_;}
	.st26{fill:url(#web2_SVGID_5_;}
	.st27{fill:#F7A8A9;}
	.st28{fill:#5E5686;}
	.st29{fill:url(#web2_SVGID_6_;}
	.st30{fill:#5E5E77;}
	.st31{fill:#313546;}
	.st32{fill:#E6E6EB;}
	.st33{fill:url(#web2_SVGID_7_;}
	.st34{opacity:0.25;fill:#FFFFFF;enable-background:new    ;}
	.st35{fill:url(#web2_SVGID_8_;}
	.st36{opacity:0.17;}
	.st37{fill:#474748;}
	.st38{fill:url(#web2_SVGID_9_;}
	.st39{fill:#4359A8;}
	.st40{fill:url(#web2_SVGID_10_;}
	.st41{fill:url(#web2_SVGID_11_;}
	.st42{fill:#F04E4E;}
	.st43{fill:#C72F2E;}
	.st44{fill:url(#web2_SVGID_12_;}
	.st45{fill:#B0AFD8;}
	.st46{fill:url(#web2_SVGID_13_;}
	.st47{fill:url(#web2_SVGID_14_;}
	.st48{fill:url(#web2_SVGID_15_;}
	.st49{fill:url(#web2_SVGID_16_;}
	.st50{fill:url(#web2_SVGID_17_;}
	.st51{fill:#5D8CC9;}
	.st52{fill:#434359;}
	.st53{fill:url(#web2_SVGID_18_;}
</style>
<g>
	<g>
		<g>
			<g>
				<path class="st0" d="M0.9,123.2l7-4.1c0.3-0.2,0.6-0.3,0.9-0.3c0.3,0,0.6,0.1,0.9,0.3l10.2,5.8c0.6,0.3,1,1,1,1.7
					s-0.4,1.4-1,1.7l-7,4.1c-0.3,0.2-0.6,0.3-0.9,0.3c-0.3,0-0.6-0.1-0.9-0.2L1,126.7c-0.6-0.3-1-1-1-1.7
					C0,124.2,0.3,123.5,0.9,123.2z"/>
				<path class="st1" d="M8,119.1c0.2-0.1,0.4-0.2,0.6-0.2c0.1,0,0.2,0,0.3,0c0.3,0,0.6,0.1,0.9,0.3l10.1,5.8c0.6,0.3,1,1,1,1.7
					c0,0.5-0.1,0.9-0.4,1.3c-0.1,0.2-0.3,0.3-0.5,0.4l-6.9,4c-0.3,0.1-0.6,0.3-0.9,0.3c-0.1,0-0.2,0-0.3,0c-0.2,0-0.4-0.1-0.6-0.2
					l-10.1-5.7c-0.6-0.3-1-1-1-1.7c0-0.4,0.1-0.8,0.4-1.2c0.1-0.2,0.4-0.4,0.6-0.5L8,119.1z"/>
				<path class="st2" d="M8.1,119.2c0.2-0.1,0.4-0.2,0.6-0.2c0.1,0,0.2,0,0.3,0c0.3,0,0.6,0.1,0.9,0.3l9.9,5.7c0.5,0.3,1,1,1,1.6
					c0.1,0.5-0.1,0.9-0.4,1.3c-0.1,0.1-0.3,0.3-0.5,0.4l-6.9,4c-0.3,0.1-0.6,0.3-0.9,0.3c-0.1,0-0.2,0-0.3,0c-0.2,0-0.4-0.1-0.6-0.2
					l-10-5.7c-0.5-0.3-1.1-1-1.1-1.6c-0.1-0.4,0.1-0.8,0.3-1.2c0.1-0.2,0.4-0.4,0.6-0.5L8.1,119.2z"/>
				<path class="st3" d="M8.1,119.3c0.2-0.1,0.4-0.2,0.6-0.2c0.1,0,0.2,0,0.3,0c0.3,0,0.6,0.1,0.9,0.3l9.8,5.6
					c0.5,0.3,1.1,1,1.1,1.6c0.1,0.4-0.1,0.9-0.4,1.3c-0.1,0.1-0.3,0.3-0.5,0.4l-6.8,3.9c-0.2,0.1-0.6,0.3-0.9,0.3
					c-0.1,0-0.2,0-0.3,0c-0.2,0-0.4-0.1-0.6-0.2l-9.9-5.6c-0.5-0.3-1.1-1-1.1-1.6c-0.1-0.4,0-0.8,0.3-1.2c0.1-0.2,0.4-0.4,0.6-0.5
					L8.1,119.3z"/>
				<path class="st4" d="M8.2,119.4c0.2-0.1,0.4-0.2,0.6-0.2c0.1,0,0.2,0,0.3,0c0.2,0,0.6,0.2,0.9,0.3l9.7,5.5
					c0.5,0.3,1.1,1,1.1,1.5c0.1,0.4,0,0.9-0.4,1.2c-0.1,0.1-0.3,0.3-0.5,0.4l-6.7,3.9c-0.2,0.1-0.6,0.3-0.9,0.3c-0.1,0-0.2,0-0.3,0
					c-0.2,0-0.4-0.1-0.6-0.2l-9.8-5.6c-0.5-0.3-1.1-1-1.1-1.5c-0.1-0.4,0-0.8,0.3-1.1c0.1-0.2,0.4-0.4,0.6-0.5L8.2,119.4z"/>
				<path class="st5" d="M8.2,119.4c0.2-0.1,0.4-0.2,0.6-0.2c0.1,0,0.2,0,0.3,0c0.2,0,0.6,0.2,0.8,0.3l9.5,5.5
					c0.4,0.2,1.1,0.9,1.1,1.4c0.1,0.4,0,0.9-0.3,1.2c-0.1,0.1-0.4,0.3-0.5,0.4l-6.6,3.8c-0.2,0.1-0.6,0.3-0.9,0.3
					c-0.1,0-0.2,0-0.3,0c-0.2,0-0.4-0.1-0.6-0.1l-9.8-5.5c-0.4-0.2-1.2-1-1.2-1.5c-0.1-0.4,0-0.8,0.3-1.1c0.1-0.2,0.4-0.4,0.6-0.5
					L8.2,119.4z"/>
				<path class="st6" d="M8.2,119.5c0.2-0.1,0.4-0.2,0.6-0.2c0.1,0,0.2,0,0.3,0c0.2,0,0.6,0.2,0.8,0.3l9.4,5.4
					c0.4,0.2,1.1,0.9,1.1,1.4c0.1,0.4,0,0.9-0.3,1.2c-0.1,0.1-0.4,0.3-0.5,0.4l-6.5,3.8c-0.2,0.1-0.6,0.3-0.8,0.3
					c-0.1,0-0.2,0-0.3,0c-0.2,0-0.4,0-0.6-0.1l-9.6-5.4c-0.4-0.2-1.2-0.9-1.2-1.4c-0.1-0.3-0.1-0.8,0.2-1.1c0.1-0.1,0.5-0.4,0.6-0.5
					L8.2,119.5z"/>
				<path class="st7" d="M8.3,119.6c0.2-0.1,0.4-0.2,0.6-0.1c0.1,0,0.2,0,0.2,0c0.2,0,0.6,0.2,0.8,0.3l9.3,5.3
					c0.3,0.2,1.2,0.9,1.2,1.3c0.2,0.4,0.1,0.9-0.3,1.2c-0.1,0.1-0.4,0.3-0.5,0.3l-6.5,3.7c-0.2,0.1-0.6,0.3-0.8,0.3
					c-0.1,0-0.2,0.1-0.3,0c-0.2,0-0.4,0-0.6-0.1l-9.6-5.4c-0.3-0.2-1.2-0.9-1.2-1.3c-0.2-0.3-0.1-0.8,0.2-1.1
					c0.1-0.1,0.5-0.4,0.6-0.5L8.3,119.6z"/>
				<path class="st8" d="M8.3,119.7c0.2-0.1,0.4-0.2,0.6-0.1c0.1,0,0.2,0,0.2,0c0.2,0,0.6,0.2,0.8,0.3l9.1,5.2
					c0.3,0.2,1.2,0.9,1.2,1.3c0.2,0.3,0.1,0.8-0.2,1.1c-0.1,0.1-0.4,0.3-0.5,0.3l-6.4,3.7c-0.1,0.1-0.6,0.3-0.8,0.3
					c-0.1,0-0.2,0.1-0.3,0.1c-0.2,0-0.4,0-0.6-0.1l-9.5-5.3c-0.3-0.2-1.3-0.9-1.3-1.3c-0.2-0.3-0.1-0.8,0.2-1.1
					c0.1-0.1,0.5-0.4,0.6-0.5L8.3,119.7z"/>
				<path class="st9" d="M8.4,119.8c0.2-0.1,0.4-0.1,0.6-0.1c0,0,0.2,0,0.2,0c0.1,0,0.6,0.2,0.8,0.3l9,5.1c0.3,0.2,1.2,0.9,1.2,1.2
					c0.2,0.3,0.1,0.8-0.2,1.1c-0.1,0.1-0.4,0.3-0.5,0.3l-6.3,3.6c-0.1,0.1-0.6,0.3-0.8,0.3c0,0-0.2,0.1-0.3,0.1
					c-0.2,0-0.4,0-0.6-0.1l-9.4-5.3c-0.3-0.2-1.3-0.9-1.3-1.2c-0.2-0.3-0.1-0.8,0.2-1.1c0.1-0.1,0.5-0.4,0.6-0.4L8.4,119.8z"/>
				<path class="st10" d="M8.4,119.8c0.2-0.1,0.4-0.1,0.6-0.1c0,0,0.2,0.1,0.2,0.1c0.1,0,0.6,0.3,0.7,0.3l8.9,5.1
					c0.2,0.1,1.3,0.9,1.3,1.2c0.2,0.3,0.2,0.8-0.2,1.1c-0.1,0.1-0.4,0.3-0.5,0.3l-6.2,3.6c-0.1,0.1-0.6,0.3-0.8,0.3
					c0,0-0.2,0.1-0.2,0.1c-0.2,0-0.4,0-0.6-0.1l-9.3-5.2c-0.2-0.1-1.3-0.9-1.3-1.2c-0.2-0.3-0.2-0.8,0.1-1.1
					c0.1-0.1,0.5-0.4,0.6-0.4L8.4,119.8z"/>
				<path class="st11" d="M8.5,119.9c0.2-0.1,0.4-0.1,0.6-0.1c0,0,0.2,0.1,0.2,0.1c0.1,0,0.6,0.3,0.7,0.3l8.7,5
					c0.2,0.1,1.3,0.9,1.3,1.1c0.3,0.3,0.2,0.8-0.1,1.1c0,0.1-0.4,0.3-0.5,0.3l-6.1,3.5c-0.1,0.1-0.6,0.4-0.8,0.4
					c0,0-0.2,0.1-0.2,0.1c-0.2,0.1-0.4,0-0.5-0.1l-9.2-5.2c-0.2-0.1-1.4-0.9-1.4-1.1c-0.2-0.3-0.2-0.8,0.1-1
					c0.1-0.1,0.5-0.4,0.6-0.4L8.5,119.9z"/>
				<path class="st12" d="M8.5,120c0.2-0.1,0.4-0.1,0.6-0.1c0,0,0.2,0.1,0.2,0.1c0.1,0,0.6,0.3,0.7,0.3l8.6,4.9
					c0.1,0.1,1.3,0.9,1.3,1c0.3,0.3,0.2,0.8-0.1,1.1c0,0-0.4,0.3-0.4,0.3l-6,3.5c-0.1,0-0.7,0.3-0.7,0.3c0,0-0.2,0.1-0.2,0.1
					c-0.2,0.1-0.4,0-0.5-0.1l-9.1-5.1c-0.1-0.1-1.4-0.9-1.4-1.1c-0.3-0.3-0.2-0.8,0.1-1c0-0.1,0.6-0.4,0.6-0.4L8.5,120z"/>
				<path class="st13" d="M8.5,120.1c0.2-0.1,0.4-0.1,0.5-0.1c0,0,0.2,0.1,0.2,0.1c0.1,0,0.6,0.3,0.7,0.3l8.4,4.8
					c0.1,0.1,1.3,0.8,1.3,1c0.3,0.3,0.3,0.8-0.1,1c0,0-0.4,0.3-0.4,0.3l-6,3.4c-0.1,0-0.7,0.4-0.7,0.4c0,0-0.2,0.1-0.2,0.1
					c-0.2,0.1-0.4,0.1-0.5,0l-9-5.1c-0.1-0.1-1.4-0.9-1.4-1c-0.3-0.3-0.3-0.8,0.1-1c0,0,0.6-0.4,0.6-0.4L8.5,120.1z"/>
				<path class="st14" d="M8.6,120.1c0.2-0.1,0.4-0.1,0.5,0c0,0,0.2,0.1,0.2,0.1c0,0,0.6,0.3,0.7,0.3l8.3,4.8c0.1,0,1.4,0.8,1.4,0.9
					c0.3,0.2,0.3,0.8-0.1,1c0,0-0.4,0.3-0.4,0.3l-5.9,3.4c0,0-0.7,0.4-0.7,0.4c0,0-0.2,0.1-0.2,0.1c-0.2,0.1-0.4,0.1-0.5,0l-8.9-5
					c-0.1,0-1.5-0.9-1.5-1c-0.3-0.2-0.3-0.8,0-1c0,0,0.6-0.4,0.6-0.4L8.6,120.1z"/>
				<path class="st15" d="M8.6,120.2c0.2-0.1,0.4-0.1,0.5,0c0,0,0.2,0.1,0.2,0.1c0,0,0.6,0.3,0.6,0.3l8.2,4.7c0,0,1.4,0.8,1.4,0.9
					c0.3,0.2,0.3,0.8,0,1c0,0-0.4,0.3-0.4,0.3l-5.8,3.3c0,0-0.7,0.4-0.7,0.4c0,0-0.2,0.1-0.2,0.1c-0.2,0.1-0.4,0.1-0.5,0L3,126.3
					c0,0-1.5-0.9-1.5-0.9c-0.3-0.2-0.3-0.8,0-1c0,0,0.6-0.4,0.6-0.4L8.6,120.2z"/>
				<path class="st16" d="M8.7,120.3c0.2-0.1,0.4-0.1,0.5,0l10.2,5.8c0.4,0.2,0.4,0.8,0,1l-7,4.1c-0.2,0.1-0.4,0.1-0.5,0l-10.2-5.8
					c-0.4-0.2-0.4-0.7,0-1L8.7,120.3z"/>
			</g>
			<path class="st17" d="M1.7,115.6l10.2,5.8c0.2,0.1,0.4,0.1,0.5,0l7-4c0.3-0.2,0.4-0.6,0.1-0.8c0.1,0.1,0.2,0.3,0.2,0.6v9.5
				c0,0.3-0.1,0.6-0.4,0.7l-7,4c-0.2,0.1-0.5,0.1-0.7,0l-10-5.7c-0.2-0.1-0.4-0.4-0.4-0.7v-9.6c0-0.2,0.1-0.3,0.2-0.4
				C1.3,115,1.4,115.4,1.7,115.6z"/>
			
				<linearGradient id="web2_SVGID_1_" gradientUnits="userSpaceOnUse" x1="53.0948" y1="82.5104" x2="71.5848" y2="82.5104" gradientTransform="matrix(-1 0 0 -1 72.8965 203.8878)">
				<stop  offset="8.000000e-08" style="stop-color:#5EACDF"/>
				<stop  offset="1" style="stop-color:#577EBF"/>
			</linearGradient>
			<path class="st18" d="M12.7,123.7l7.1-4.1v1.4l-7.1,4.1c-0.2,0.1-0.4,0.1-0.6,0L1.3,119v-1.4l10.8,6.1
				C12.3,123.8,12.5,123.8,12.7,123.7z"/>
			
				<linearGradient id="web2_SVGID_2_" gradientUnits="userSpaceOnUse" x1="53.0948" y1="78.9204" x2="71.5848" y2="78.9204" gradientTransform="matrix(-1 0 0 -1 72.8965 203.8878)">
				<stop  offset="8.000000e-08" style="stop-color:#5EACDF"/>
				<stop  offset="1" style="stop-color:#577EBF"/>
			</linearGradient>
			<path class="st19" d="M12.7,127.3l7.1-4.1v1.4l-7.1,4.1c-0.2,0.1-0.4,0.1-0.6,0l-10.8-6.1v-1.4l10.8,6.1
				C12.3,127.4,12.5,127.4,12.7,127.3z"/>
			<path class="st20" d="M8.7,110.5c0.2-0.1,0.4-0.1,0.5,0l10.2,5.8c0.4,0.2,0.4,0.8,0,1l-7,4.1c-0.2,0.1-0.4,0.1-0.5,0l-10.2-5.8
				c-0.4-0.2-0.4-0.7,0-1L8.7,110.5z"/>
			<polygon class="st21" points="15.2,116.6 11.8,118.5 6,115.3 9.4,113.3 			"/>
			<polygon class="st22" points="9.4,113.3 9.4,117.2 6,115.3 9.4,113.3 			"/>
		</g>
	</g>
	<g>
		<path class="st23" d="M100.4,156.9c-0.4-0.2-0.8-0.2-1.1,0l-3,1.7c-0.2,0.1-0.5,0.1-0.7,0l-3.5-1.7c-0.3-0.1-0.4-0.4-0.4-0.7
			c0-0.3,0.1-0.6,0.4-0.7l34.6-19.5c0.4-0.2,0.6-0.6,0.6-1s-0.2-0.8-0.6-1l-25.9-14.5c-0.1-0.1-0.2,0-0.3,0.1
			c-0.1,0.1,0,0.2,0.1,0.3l25.9,14.5c0.3,0.1,0.4,0.4,0.4,0.7c0,0.3-0.1,0.5-0.4,0.7l-34.6,19.5c-0.4,0.2-0.6,0.6-0.6,1
			c0,0.4,0.3,0.8,0.6,1l3.5,1.7c0.3,0.2,0.8,0.2,1.1,0l3-1.7c0.2-0.1,0.5-0.1,0.8,0l27,14.8c0,0,0.1,0,0.1,0c0.1,0,0.1,0,0.2-0.1
			c0.1-0.1,0-0.2-0.1-0.3L100.4,156.9z"/>
	</g>
	<g>
		<g>
			<path class="st0" d="M20.6,94.7l44.4-25c0.4-0.2,0.8-0.3,1.2-0.3c0.4,0,0.9,0.1,1.3,0.3l66.9,34c0.8,0.5,1.3,1.3,1.3,2.3
				c0,0.9-0.5,1.8-1.3,2.3l-44.4,24.9c-0.4,0.2-0.8,0.3-1.2,0.3c-0.4,0-0.9-0.1-1.2-0.3L20.5,99.3c-0.8-0.5-1.3-1.3-1.3-2.3
				C19.3,96,19.8,95.2,20.6,94.7z"/>
			<path class="st1" d="M65.1,69.8c0.4-0.2,0.8-0.3,1.2-0.3s0.9,0.2,1.2,0.4l66.8,34c0.5,0.3,0.8,0.8,1,1.3c0.1,0.3,0.1,0.7,0.1,1
				c0,0.9-0.6,1.8-1.4,2.2L89.9,133c-0.4,0.2-0.8,0.3-1.2,0.3c-0.2,0-0.3,0-0.5,0c-0.3,0-0.5-0.1-0.7-0.3L20.6,99.2
				c-0.5-0.3-0.8-0.7-1-1.2c-0.1-0.3-0.2-0.7-0.2-1.1c0-0.9,0.6-1.8,1.4-2.2L65.1,69.8z"/>
			<path class="st2" d="M65.1,69.9c0.4-0.2,0.8-0.3,1.2-0.3c0.4,0,0.9,0.2,1.2,0.4l66.8,33.9c0.5,0.3,0.8,0.8,0.9,1.3
				c0.1,0.3,0.1,0.7,0.1,1c0,0.8-0.7,1.7-1.4,2.1l-43.9,24.6c-0.3,0.2-0.8,0.4-1.2,0.4c-0.1,0-0.4,0-0.5,0c-0.3,0-0.5-0.1-0.7-0.2
				L20.7,99.1c-0.5-0.3-0.8-0.7-0.9-1.2c-0.1-0.3-0.1-0.7-0.1-1c0-0.8,0.7-1.8,1.4-2.2L65.1,69.9z"/>
			<path class="st3" d="M65.2,70c0.3-0.2,0.7-0.3,1.1-0.3c0.4,0,0.9,0.2,1.2,0.4l66.7,33.9c0.5,0.3,0.8,0.8,0.9,1.3
				c0.1,0.3,0,0.6,0,0.9c0,0.8-0.8,1.7-1.5,2.1L90,132.7c-0.3,0.2-0.8,0.4-1.2,0.4c-0.1,0-0.4,0-0.5,0c-0.3,0-0.5-0.1-0.7-0.2
				L20.7,99c-0.5-0.3-0.8-0.8-0.9-1.2c-0.1-0.3,0-0.7,0-1c0-0.8,0.8-1.7,1.5-2.1L65.2,70z"/>
			<path class="st4" d="M65.2,70.1c0.3-0.2,0.7-0.3,1.1-0.2c0.3,0,0.9,0.2,1.2,0.4l66.6,33.9c0.5,0.3,0.8,0.8,0.8,1.3
				c0.1,0.2-0.1,0.6-0.1,0.9c0,0.7-0.9,1.7-1.5,2L90,132.6c-0.3,0.2-0.8,0.4-1.1,0.4c-0.1,0-0.4,0-0.5,0c-0.2,0-0.5-0.1-0.7-0.2
				L20.8,98.9c-0.5-0.3-0.8-0.8-0.8-1.2C19.9,97.4,20,97,20,96.7c0-0.7,0.9-1.7,1.5-2L65.2,70.1z"/>
			<path class="st5" d="M65.3,70.2c0.3-0.2,0.7-0.3,1.1-0.2c0.3,0,0.9,0.3,1.2,0.4l66.6,33.8c0.5,0.3,0.7,0.8,0.7,1.3
				c0.1,0.2-0.1,0.6-0.1,0.9c0,0.7-1,1.6-1.6,1.9l-43.1,24.2c-0.3,0.1-0.8,0.4-1.1,0.4c-0.1,0-0.4,0.1-0.5,0c-0.2,0-0.5-0.1-0.7-0.2
				L20.8,98.8c-0.5-0.3-0.7-0.8-0.7-1.2c-0.1-0.2,0.1-0.7,0.1-0.9c0-0.7,1-1.6,1.6-2L65.3,70.2z"/>
			<path class="st6" d="M65.3,70.3c0.3-0.2,0.7-0.3,1-0.2c0.3,0,1,0.3,1.2,0.4l66.5,33.8c0.5,0.3,0.7,0.8,0.7,1.3
				c0.1,0.2-0.2,0.6-0.2,0.8c0,0.6-1.1,1.6-1.6,1.9l-42.8,24c-0.2,0.1-0.9,0.4-1.1,0.4c-0.1,0-0.4,0.1-0.5,0.1
				c-0.2,0-0.5-0.1-0.7-0.2L20.9,98.7c-0.5-0.3-0.7-0.8-0.7-1.2c-0.1-0.2,0.2-0.6,0.2-0.9c0-0.6,1.1-1.6,1.6-1.9L65.3,70.3z"/>
			<path class="st7" d="M65.4,70.4c0.3-0.2,0.7-0.2,1-0.2c0.3,0,1,0.3,1.2,0.4l66.4,33.8c0.5,0.3,0.7,0.8,0.6,1.3
				c0.1,0.2-0.2,0.6-0.2,0.8c0,0.5-1.2,1.6-1.7,1.8l-42.6,23.9c-0.2,0.1-0.9,0.4-1.1,0.4c-0.1,0-0.4,0.1-0.5,0.1
				c-0.2,0-0.5,0-0.7-0.2L21,98.6c-0.5-0.3-0.7-0.8-0.6-1.2c-0.1-0.2,0.3-0.6,0.3-0.8c0-0.5,1.3-1.6,1.7-1.8L65.4,70.4z"/>
			<path class="st8" d="M65.4,70.5c0.3-0.2,0.6-0.2,0.9-0.2c0.2,0,1,0.3,1.2,0.4l66.3,33.7c0.5,0.3,0.7,0.9,0.5,1.3
				c0.1,0.2-0.3,0.6-0.3,0.8c0,0.5-1.3,1.5-1.7,1.7L90.1,132c-0.2,0.1-0.9,0.4-1.1,0.4c-0.1,0-0.4,0.1-0.4,0.1c-0.2,0-0.5,0-0.7-0.1
				L21,98.5c-0.5-0.3-0.7-0.8-0.5-1.2c-0.1-0.2,0.3-0.6,0.3-0.8c0-0.5,1.3-1.5,1.8-1.8L65.4,70.5z"/>
			<path class="st9" d="M65.5,70.6c0.3-0.2,0.6-0.2,0.9-0.1c0.2,0,1,0.4,1.2,0.5l66.3,33.7c0.5,0.3,0.6,0.9,0.5,1.3
				c0.1,0.1-0.4,0.6-0.4,0.7c0,0.4-1.4,1.5-1.8,1.7l-42,23.6c-0.2,0.1-0.9,0.4-1.1,0.4c-0.1,0-0.4,0.1-0.4,0.1c-0.2,0-0.5,0-0.7-0.1
				L21,98.4c-0.5-0.3-0.6-0.9-0.5-1.2C20.5,97,21,96.5,21,96.4c0-0.4,1.5-1.5,1.8-1.7L65.5,70.6z"/>
			<path class="st10" d="M65.6,70.7c0.3-0.2,0.6-0.2,0.9-0.1c0.2,0,1,0.4,1.2,0.5l66.2,33.6c0.5,0.3,0.6,0.9,0.4,1.3
				c0.1,0.1-0.4,0.5-0.4,0.7c0,0.4-1.5,1.4-1.8,1.6l-41.8,23.4c-0.1,0.1-0.9,0.5-1.1,0.5c-0.1,0-0.4,0.1-0.4,0.1
				c-0.2,0.1-0.5,0-0.7-0.1L21.1,98.2c-0.5-0.3-0.6-0.9-0.4-1.2c-0.1-0.1,0.5-0.6,0.5-0.7c0-0.4,1.6-1.5,1.9-1.6L65.6,70.7z"/>
			<path class="st11" d="M65.6,70.8c0.3-0.2,0.6-0.2,0.9-0.1c0.1,0,1,0.4,1.2,0.5l66.1,33.6c0.5,0.3,0.6,0.9,0.3,1.3
				c0,0.1-0.5,0.5-0.5,0.6c0,0.3-1.6,1.4-1.9,1.5l-41.5,23.3c-0.1,0.1-0.9,0.5-1,0.5c-0.1,0-0.4,0.1-0.4,0.1c-0.2,0.1-0.5,0-0.7-0.1
				L21.2,98.1c-0.5-0.3-0.6-0.9-0.3-1.2c-0.1-0.1,0.5-0.6,0.5-0.7c0-0.3,1.7-1.4,1.9-1.6L65.6,70.8z"/>
			<path class="st12" d="M65.7,70.9c0.3-0.1,0.6-0.2,0.8-0.1c0.1,0,1.1,0.4,1.1,0.5l66.1,33.6c0.5,0.3,0.6,0.9,0.3,1.3
				c0,0.1-0.6,0.5-0.6,0.6c0,0.2-1.7,1.3-1.9,1.5l-41.2,23.1c-0.1,0.1-0.9,0.5-1,0.5c0,0-0.4,0.2-0.4,0.2c-0.2,0.1-0.5,0.1-0.7-0.1
				L21.2,98c-0.5-0.3-0.6-0.9-0.3-1.3c0-0.1,0.6-0.6,0.6-0.7c0-0.2,1.8-1.4,2-1.5L65.7,70.9z"/>
			<path class="st13" d="M65.7,71c0.2-0.1,0.5-0.2,0.8-0.1c0.1,0,1.1,0.5,1.1,0.5l66,33.5c0.5,0.3,0.5,0.9,0.2,1.3
				c0,0.1-0.6,0.5-0.6,0.6c0,0.2-1.8,1.3-2,1.4l-40.9,23c-0.1,0-0.9,0.5-1,0.5c0,0-0.4,0.2-0.4,0.2c-0.2,0.1-0.5,0.1-0.7-0.1
				L21.3,97.9c-0.5-0.3-0.6-0.9-0.2-1.3c0-0.1,0.7-0.5,0.7-0.6c0-0.2,1.9-1.3,2-1.4L65.7,71z"/>
			<path class="st14" d="M65.8,71.1c0.2-0.1,0.5-0.2,0.8,0c0.1,0,1.1,0.5,1.1,0.5l65.9,33.5c0.5,0.3,0.5,1,0.1,1.3
				c0,0-0.7,0.5-0.7,0.5c0,0.1-1.9,1.3-2,1.3L90.3,131c-0.1,0-0.9,0.5-1,0.5c0,0-0.4,0.2-0.4,0.2c-0.2,0.1-0.5,0.1-0.7,0L21.3,97.8
				c-0.5-0.3-0.5-0.9-0.1-1.3c0,0,0.8-0.5,0.8-0.6c0-0.1,2-1.3,2.1-1.4L65.8,71.1z"/>
			<path class="st15" d="M65.8,71.2c0.2-0.1,0.5-0.1,0.7,0c0,0,1.1,0.5,1.1,0.6l65.9,33.5c0.5,0.3,0.5,1,0.1,1.3
				c0,0-0.8,0.5-0.8,0.5c0,0.1-2,1.2-2.1,1.3l-40.4,22.7c0,0-0.9,0.5-1,0.5c0,0-0.4,0.2-0.4,0.2c-0.2,0.1-0.5,0.1-0.7,0L21.4,97.7
				c-0.5-0.3-0.5-1-0.1-1.3c0,0,0.8-0.5,0.8-0.5c0-0.1,2.1-1.3,2.2-1.3L65.8,71.2z"/>
			<path class="st16" d="M65.9,71.3c0.2-0.1,0.5-0.1,0.7,0l66.9,34c0.5,0.3,0.5,1,0,1.3L89,131.5c-0.2,0.1-0.5,0.1-0.7,0L21.4,97.6
				c-0.5-0.3-0.5-1,0-1.3L65.9,71.3z"/>
		</g>
		<path class="st17" d="M133.4,105.2L67.1,71.6c-0.8-0.4-1.7-0.4-2.5,0L21.2,95.9c-0.7,0.4-0.7,1.3,0,1.7l65.9,33.6
			c0.8,0.4,1.7,0.4,2.5,0l43.7-24.3C134,106.6,134,105.6,133.4,105.2z"/>
		<polygon class="st17" points="20.7,94.9 133.9,104.3 133.9,106.1 20.7,96.8 		"/>
		<path class="st0" d="M133.4,103.3L67.1,69.7c-0.8-0.4-1.7-0.4-2.5,0L21.2,94c-0.7,0.4-0.7,1.3,0,1.7l65.9,33.6
			c0.8,0.4,1.7,0.4,2.5,0l43.7-24.3C134,104.7,134,103.7,133.4,103.3z"/>
		<path class="st20" d="M21.2,95.5l4.6,2.6l61.3,31c0.8,0.4,1.7,0.4,2.5,0l39.2-21.8l3.6-2l1-0.5c0.7-0.4,0.7-1.3,0-1.7L67.1,69.5
			c-0.8-0.4-1.7-0.4-2.5,0l-39,21.8l-4.4,2.4C20.6,94.1,20.6,95.1,21.2,95.5z"/>
	</g>
	<g>
		<g>
			<path class="st0" d="M133.5,170.8l-13.5-7.7c-0.4-0.2-0.8-0.3-1.2-0.3c-0.4,0-0.9,0.1-1.3,0.3l-13.5,7.4
				c-0.8,0.5-1.3,1.4-1.3,2.3s0.5,1.8,1.3,2.3l13.5,7.6c0.4,0.2,0.8,0.3,1.2,0.3c0.4,0,0.9-0.1,1.2-0.3l13.5-7.2
				c0.8-0.5,1.3-1.3,1.3-2.3C134.8,172.1,134.3,171.2,133.5,170.8z"/>
			<path class="st1" d="M117.5,163.1l-13.4,7.3c-0.3,0.2-0.6,0.4-0.8,0.7c-0.3,0.4-0.5,1-0.5,1.6c0,0.9,0.6,1.8,1.4,2.2l13.4,7.5
				c0.2,0.1,0.5,0.2,0.8,0.3c0.1,0,0.3,0,0.4,0c0.4,0,0.9-0.1,1.2-0.3l13.4-7.2c0.3-0.1,0.5-0.4,0.7-0.6c0.4-0.4,0.6-1.1,0.5-1.6
				c0-0.9-0.6-1.8-1.3-2.2l-13.3-7.6c-0.4-0.2-0.8-0.3-1.2-0.3c-0.1,0-0.3,0-0.4,0C118.1,162.9,117.8,163,117.5,163.1z"/>
			<path class="st2" d="M117.6,163.2l-13.4,7.3c-0.3,0.2-0.6,0.4-0.8,0.7c-0.3,0.4-0.5,1-0.4,1.5c0,0.8,0.7,1.7,1.4,2.1l13.3,7.5
				c0.2,0.1,0.5,0.2,0.8,0.3c0.1,0,0.3,0,0.4,0c0.4,0,0.9-0.2,1.2-0.4l13.2-7.1c0.2-0.1,0.6-0.4,0.7-0.6c0.4-0.4,0.6-1,0.5-1.6
				c0-0.8-0.7-1.7-1.4-2.1l-13.1-7.5c-0.3-0.2-0.8-0.4-1.2-0.4c-0.1,0-0.3,0-0.4,0C118.1,163,117.8,163.1,117.6,163.2z"/>
			<path class="st3" d="M117.6,163.3l-13.3,7.3c-0.3,0.1-0.6,0.4-0.8,0.7c-0.4,0.4-0.5,1-0.4,1.5c0,0.8,0.8,1.7,1.4,2.1l13.1,7.4
				c0.2,0.1,0.5,0.2,0.8,0.2c0.1,0,0.3,0,0.4,0c0.4,0,0.9-0.2,1.2-0.4l13.1-7c0.2-0.1,0.6-0.4,0.7-0.6c0.4-0.4,0.6-1,0.5-1.6
				c0-0.8-0.8-1.7-1.4-2.1l-12.9-7.4c-0.3-0.2-0.8-0.4-1.2-0.4c-0.1,0-0.3,0-0.4,0C118.2,163.1,117.9,163.2,117.6,163.3z"/>
			<path class="st4" d="M117.7,163.5l-13.3,7.2c-0.2,0.1-0.6,0.4-0.8,0.7c-0.4,0.4-0.5,1-0.4,1.5c0,0.7,0.9,1.6,1.5,2l13,7.3
				c0.2,0.1,0.5,0.2,0.8,0.2c0.1,0,0.3,0,0.4,0c0.3,0,0.9-0.2,1.2-0.4l13-7c0.2-0.1,0.6-0.4,0.7-0.6c0.4-0.4,0.6-1,0.4-1.6
				c0-0.7-0.8-1.6-1.4-2l-12.8-7.3c-0.3-0.2-0.8-0.4-1.1-0.4c-0.1,0-0.3,0-0.4,0C118.2,163.2,118,163.3,117.7,163.5z"/>
			<path class="st5" d="M117.8,163.6l-13.2,7.2c-0.2,0.1-0.7,0.4-0.8,0.6c-0.4,0.4-0.5,1-0.3,1.5c0,0.6,1,1.6,1.5,1.9l12.9,7.3
				c0.2,0.1,0.5,0.2,0.7,0.2c0.1,0,0.3,0,0.4,0c0.3,0,0.9-0.2,1.1-0.4l12.9-6.9c0.2-0.1,0.6-0.4,0.7-0.6c0.4-0.4,0.6-1,0.4-1.5
				c0-0.6-0.9-1.6-1.5-1.9l-12.6-7.2c-0.3-0.1-0.8-0.4-1.1-0.4c-0.1,0-0.3,0-0.4,0C118.3,163.3,118,163.4,117.8,163.6z"/>
			<path class="st6" d="M117.8,163.7l-13.1,7.2c-0.2,0.1-0.7,0.4-0.8,0.6c-0.4,0.4-0.5,1-0.3,1.5c0,0.6,1.1,1.6,1.6,1.9l12.8,7.2
				c0.2,0.1,0.5,0.2,0.7,0.2c0.1,0,0.3,0,0.4,0c0.3,0,0.9-0.3,1.1-0.4l12.7-6.8c0.2-0.1,0.6-0.4,0.7-0.5c0.4-0.4,0.5-1,0.4-1.5
				c0-0.6-1-1.5-1.5-1.8l-12.4-7.1c-0.2-0.1-0.8-0.4-1.1-0.4c-0.1,0-0.3-0.1-0.3,0C118.3,163.4,118.1,163.5,117.8,163.7z"/>
			<path class="st7" d="M117.9,163.8l-13.1,7.1c-0.2,0.1-0.7,0.4-0.8,0.6c-0.4,0.4-0.5,1-0.3,1.4c0,0.5,1.2,1.5,1.6,1.8l12.6,7.1
				c0.2,0.1,0.5,0.2,0.7,0.2c0.1,0,0.3-0.1,0.4-0.1c0.2,0,0.9-0.3,1.1-0.4l12.6-6.8c0.2-0.1,0.6-0.4,0.7-0.5c0.4-0.4,0.5-1,0.3-1.5
				c0-0.5-1.1-1.5-1.5-1.8l-12.2-7c-0.2-0.1-0.8-0.4-1.1-0.4c-0.1,0-0.3-0.1-0.3-0.1C118.4,163.6,118.1,163.6,117.9,163.8z"/>
			<path class="st8" d="M117.9,163.9l-13,7.1c-0.2,0.1-0.7,0.4-0.8,0.6c-0.4,0.4-0.5,1-0.2,1.4c0,0.5,1.3,1.5,1.7,1.7l12.5,7
				c0.2,0.1,0.5,0.2,0.7,0.1c0.1,0,0.3-0.1,0.4-0.1c0.2,0,0.9-0.3,1.1-0.4l12.5-6.7c0.1-0.1,0.6-0.4,0.7-0.5c0.4-0.4,0.5-1,0.3-1.5
				c0-0.5-1.2-1.4-1.6-1.7l-12-6.9c-0.2-0.1-0.8-0.4-1-0.4c-0.1,0-0.3-0.1-0.3-0.1C118.4,163.7,118.2,163.7,117.9,163.9z"/>
			<path class="st9" d="M118,164l-13,7.1c-0.1,0.1-0.7,0.5-0.8,0.6c-0.4,0.4-0.5,1-0.2,1.4c0,0.4,1.4,1.4,1.7,1.6l12.4,7
				c0.2,0.1,0.5,0.2,0.7,0.1c0.1,0,0.3-0.1,0.4-0.1c0.2,0,0.9-0.3,1.1-0.4l12.4-6.6c0.1-0.1,0.6-0.4,0.7-0.5c0.4-0.4,0.5-1,0.3-1.4
				c0-0.4-1.3-1.4-1.6-1.6l-11.8-6.8c-0.2-0.1-0.8-0.4-1-0.4c-0.1,0-0.3-0.1-0.3-0.1C118.5,163.8,118.2,163.8,118,164z"/>
			<path class="st10" d="M118,164.1l-12.9,7.1c-0.1,0.1-0.8,0.5-0.8,0.6c-0.4,0.3-0.5,1-0.2,1.4c0,0.4,1.5,1.4,1.8,1.6l12.2,6.9
				c0.2,0.1,0.5,0.2,0.7,0.1c0.1,0,0.3-0.1,0.3-0.1c0.2,0,0.9-0.4,1-0.4l12.3-6.6c0.1-0.1,0.6-0.4,0.7-0.5c0.4-0.4,0.5-1,0.2-1.4
				c0-0.4-1.3-1.3-1.6-1.5l-11.6-6.7c-0.1-0.1-0.8-0.4-1-0.4c-0.1,0-0.3-0.1-0.3-0.1C118.5,163.9,118.3,163.9,118,164.1z"/>
			<path class="st11" d="M118.1,164.2l-12.9,7c-0.1,0.1-0.8,0.5-0.9,0.6c-0.4,0.3-0.5,1-0.1,1.4c0,0.3,1.6,1.4,1.8,1.5l12.1,6.8
				c0.2,0.1,0.5,0.1,0.7,0.1c0,0,0.3-0.1,0.3-0.1c0.1,0,0.9-0.4,1-0.4l12.1-6.5c0.1-0.1,0.7-0.4,0.7-0.5c0.4-0.3,0.5-1,0.2-1.4
				c0-0.3-1.4-1.3-1.7-1.4l-11.5-6.6c-0.1-0.1-0.8-0.4-1-0.4c0,0-0.3-0.1-0.3-0.1C118.6,164,118.3,164,118.1,164.2z"/>
			<path class="st12" d="M118.2,164.3l-12.8,7c-0.1,0.1-0.8,0.5-0.9,0.5c-0.4,0.3-0.5,1-0.1,1.3c0,0.2,1.6,1.3,1.9,1.4l12,6.8
				c0.2,0.1,0.5,0.1,0.7,0.1c0,0,0.3-0.1,0.3-0.1c0.1,0,0.9-0.4,1-0.5l12-6.4c0.1,0,0.7-0.4,0.7-0.4c0.4-0.3,0.5-1,0.1-1.4
				c0-0.2-1.5-1.3-1.7-1.4l-11.3-6.5c-0.1-0.1-0.8-0.4-0.9-0.4c0,0-0.3-0.1-0.3-0.1C118.6,164.1,118.4,164.1,118.2,164.3z"/>
			<path class="st13" d="M118.2,164.4l-12.8,7c-0.1,0-0.8,0.5-0.9,0.5c-0.4,0.3-0.5,1-0.1,1.3c0,0.2,1.8,1.3,1.9,1.4l11.9,6.7
				c0.2,0.1,0.5,0.1,0.7,0.1c0,0,0.3-0.1,0.3-0.1c0.1,0,0.9-0.4,1-0.5l11.9-6.4c0.1,0,0.7-0.4,0.7-0.4c0.5-0.3,0.5-1,0.1-1.3
				c0-0.2-1.6-1.2-1.7-1.3l-11.1-6.4c-0.1,0-0.8-0.5-0.9-0.5c0,0-0.3-0.1-0.3-0.1C118.7,164.2,118.4,164.2,118.2,164.4z"/>
			<path class="st14" d="M118.3,164.5l-12.7,6.9c0,0-0.8,0.5-0.9,0.5c-0.5,0.3-0.5,1-0.1,1.3c0,0.1,1.8,1.2,1.9,1.3l11.7,6.6
				c0.2,0.1,0.5,0.1,0.7,0c0,0,0.3-0.1,0.3-0.1c0.1,0,0.9-0.4,1-0.5l11.8-6.3c0,0,0.7-0.4,0.7-0.4c0.5-0.3,0.5-1,0.1-1.3
				c0-0.1-1.7-1.1-1.8-1.2l-10.9-6.3c-0.1,0-0.9-0.5-0.9-0.5c0,0-0.3-0.1-0.3-0.1C118.7,164.3,118.5,164.4,118.3,164.5z"/>
			<path class="st15" d="M118.3,164.6l-12.7,6.9c0,0-0.9,0.5-0.9,0.5c-0.5,0.3-0.5,1,0,1.3c0,0.1,1.9,1.2,2,1.2l11.6,6.5
				c0.2,0.1,0.5,0.1,0.7,0c0,0,0.3-0.1,0.3-0.1c0,0,0.9-0.5,0.9-0.5l11.6-6.3c0,0,0.7-0.4,0.7-0.4c0.5-0.3,0.5-1,0-1.3
				c0-0.1-1.8-1.1-1.8-1.1l-10.7-6.1c0,0-0.9-0.5-0.9-0.5c0,0-0.3-0.1-0.3-0.1C118.8,164.4,118.5,164.5,118.3,164.6z"/>
			<path class="st16" d="M119.1,164.7c-0.2-0.1-0.5-0.1-0.7,0l-13.5,7.4c-0.5,0.3-0.5,1,0,1.3l13.5,7.6c0.2,0.1,0.5,0.1,0.7,0
				l13.5-7.2c0.5-0.3,0.5-1,0-1.3L119.1,164.7z"/>
		</g>
		<path class="st17" d="M105.1,172l12.8-7c0.8-0.4,1.7-0.4,2.5,0l12.5,7c0.7,0.4,0.7,1.3,0,1.7l-12.5,7c-0.8,0.4-1.7,0.4-2.5,0
			l-12.8-7C104.4,173.3,104.4,172.3,105.1,172z"/>
		<rect x="104.6" y="171" class="st17" width="28.8" height="1.9"/>
		<path class="st0" d="M105.1,170.1l12.8-7c0.8-0.4,1.7-0.4,2.5,0l12.5,6.9c0.7,0.4,0.7,1.3,0,1.7l-12.5,7c-0.8,0.4-1.7,0.4-2.5,0
			l-12.8-7C104.4,171.4,104.4,170.4,105.1,170.1z"/>
		<path class="st20" d="M132.8,171.5l-4.6,2.6l-7.9,4.4c-0.8,0.4-1.7,0.4-2.5,0l-8.3-4.5l-3.6-2l-1-0.5c-0.7-0.4-0.7-1.3,0-1.7
			l12.8-7c0.8-0.4,1.7-0.4,2.5,0l8.1,4.5l4.4,2.4C133.5,170.2,133.5,171.2,132.8,171.5z"/>
	</g>
	<g>
		<path class="st17" d="M97.4,131l18.2-10.1c0.4-0.2,1.3,0,1.3,0.8l-0.5,15.2c0,0.2-0.1,0.4-0.3,0.5L98.3,148
			c-0.4,0.2-1.2-0.1-1.2-0.9v-15.5C97.1,131.3,97.2,131.1,97.4,131z"/>
		
			<linearGradient id="web2_SVGID_3_" gradientUnits="userSpaceOnUse" x1="97.4917" y1="69.3418" x2="116.9217" y2="69.3418" gradientTransform="matrix(1 0 0 -1 0 203.8878)">
			<stop  offset="8.000000e-08" style="stop-color:#5EACDF"/>
			<stop  offset="1" style="stop-color:#577EBF"/>
		</linearGradient>
		<path class="st24" d="M97.8,131.3l18.3-10.2c0.4-0.2,0.8,0.1,0.8,0.5v15.7c0,0.2-0.1,0.4-0.3,0.5l-18.3,10.1
			c-0.4,0.2-0.8-0.1-0.8-0.5v-15.7C97.5,131.6,97.6,131.4,97.8,131.3z"/>
		<g>
			<polygon class="st0" points="108.5,139.2 106.5,140.4 106.5,140.1 108.5,138.9 			"/>
			<polygon class="st0" points="106.2,140.6 104.5,141.6 104.5,141.3 106.2,140.3 			"/>
			<polygon class="st0" points="108.5,139.9 107.4,140.5 107.4,140.2 108.5,139.6 			"/>
			<polygon class="st0" points="105.9,141.4 104.5,142.3 104.5,142 105.9,141.1 			"/>
			<polygon class="st0" points="107.3,140.6 106.2,141.3 106.2,141 107.3,140.3 			"/>
			<polygon class="st0" points="108.5,138.6 107.4,139.2 107.4,138.9 108.5,138.3 			"/>
			<polygon class="st0" points="105.9,140.1 104.5,140.9 104.5,140.6 105.9,139.8 			"/>
			<polygon class="st0" points="107.3,139.3 106.2,139.9 106.2,139.6 107.3,139 			"/>
			<polygon class="st0" points="113.8,135.6 110.1,137.7 110.1,137.5 113.8,135.3 			"/>
			<polygon class="st0" points="113.8,136.2 112.6,136.9 112.6,136.7 113.8,136 			"/>
			<polygon class="st0" points="112.1,137.2 110.1,138.4 110.1,138.1 112.1,136.9 			"/>
			<polygon class="st0" points="113.8,136.9 110.1,139 110.1,138.7 113.8,136.6 			"/>
		</g>
		<g>
			<path class="st0" d="M114.8,128.5l-3.1-0.6c-0.1,0-0.1-0.1-0.2-0.1c-0.1-0.1-0.1-0.2-0.1-0.2c0-0.1,0.1-0.3,0.3-0.3h0l3.6,0.7
				c0.1,0,0.2,0.1,0.2,0.2c0,0.1,0,0.2,0,0.3l-3.6,4.8c-0.1,0.1-0.1,0.1-0.2,0.1c-0.1,0-0.1,0-0.2-0.1c-0.1-0.1-0.1-0.1-0.1-0.2
				s0-0.2,0.1-0.2L114.8,128.5z"/>
			<path class="st0" d="M104.2,131.8c0.1-0.1,0.1-0.1,0.2-0.1c0.1,0,0.1,0,0.2,0.1c0.1,0.1,0.1,0.1,0.1,0.2s0,0.2-0.1,0.2l-3.3,4.4
				l3.1,0.6c0.1,0,0.1,0.1,0.2,0.1c0.1,0.1,0.1,0.1,0.1,0.2c0,0.1-0.1,0.3-0.3,0.3h0l-3.6-0.7c-0.1,0-0.2-0.1-0.2-0.2s0-0.2,0-0.3
				L104.2,131.8z"/>
			<path class="st0" d="M105.5,130.5c0.1,0,0.1,0,0.2,0.1l5.1,2.9c0.2,0.1,0.3,0.4,0.1,0.6c-0.1,0.1-0.2,0.2-0.4,0.2
				c-0.1,0-0.1,0-0.2-0.1l-5.1-2.9c-0.2-0.1-0.3-0.4-0.1-0.6C105.2,130.5,105.3,130.5,105.5,130.5z"/>
		</g>
	</g>
	<g>
		<g>
			<g>
				<path class="st0" d="M162,126.3l10.2-5.9c0.3-0.2,0.6-0.3,0.9-0.3c0.3,0,0.7,0.1,0.9,0.3l7,4.1c0.6,0.4,1,1,1,1.7
					c0,0.7-0.4,1.4-1,1.7l-10.2,5.8c-0.3,0.2-0.6,0.2-0.9,0.2c-0.3,0-0.6-0.1-0.9-0.3l-7-4.1c-0.6-0.4-1-1-1-1.7
					C161,127.3,161.4,126.6,162,126.3z"/>
				<path class="st1" d="M172.2,120.5c0.2-0.1,0.4-0.2,0.6-0.2c0.1,0,0.2,0,0.3,0c0.3,0,0.7,0.1,0.9,0.3l7,4.1
					c0.2,0.1,0.4,0.3,0.5,0.4c0.3,0.4,0.5,0.8,0.4,1.3c0,0.7-0.4,1.3-1,1.7l-10.1,5.7c-0.3,0.1-0.6,0.3-0.9,0.3c-0.1,0-0.2,0-0.3,0
					c-0.2,0-0.4-0.1-0.6-0.2l-7-4c-0.2-0.1-0.4-0.3-0.6-0.5c-0.3-0.3-0.4-0.8-0.4-1.2c0-0.7,0.4-1.4,1-1.7L172.2,120.5z"/>
				<path class="st2" d="M172.3,120.6c0.2-0.1,0.4-0.2,0.6-0.2c0.1,0,0.2,0,0.3,0c0.3,0,0.7,0.1,0.9,0.3l6.9,4.1
					c0.2,0.1,0.4,0.3,0.5,0.4c0.3,0.3,0.5,0.8,0.4,1.3c0,0.6-0.5,1.3-1.1,1.6l-9.9,5.6c-0.2,0.1-0.6,0.3-0.9,0.3c-0.1,0-0.2,0-0.3,0
					c-0.2,0-0.4-0.1-0.6-0.2l-6.9-4c-0.2-0.1-0.5-0.3-0.6-0.5c-0.3-0.3-0.4-0.8-0.3-1.2c0-0.6,0.5-1.3,1.1-1.6L172.3,120.6z"/>
				<path class="st3" d="M172.3,120.7c0.2-0.1,0.4-0.2,0.6-0.2c0.1,0,0.2,0,0.3,0c0.3,0,0.7,0.1,0.9,0.3l6.8,4
					c0.1,0.1,0.4,0.3,0.5,0.4c0.3,0.3,0.4,0.8,0.4,1.3c0,0.6-0.6,1.3-1.1,1.6l-9.8,5.5c-0.2,0.1-0.6,0.3-0.9,0.3c-0.1,0-0.2,0-0.3,0
					c-0.2,0-0.4-0.1-0.6-0.2l-6.9-4c-0.2-0.1-0.5-0.3-0.6-0.5c-0.3-0.3-0.4-0.8-0.3-1.1c0-0.6,0.6-1.3,1.1-1.6L172.3,120.7z"/>
				<path class="st4" d="M172.4,120.7c0.2-0.1,0.4-0.2,0.6-0.2c0.1,0,0.2,0,0.3,0c0.3,0,0.7,0.2,0.9,0.3l6.7,3.9
					c0.1,0.1,0.4,0.3,0.5,0.4c0.3,0.3,0.4,0.8,0.4,1.2c0,0.5-0.6,1.2-1.1,1.5l-9.7,5.4c-0.2,0.1-0.6,0.3-0.9,0.3c-0.1,0-0.2,0-0.3,0
					c-0.2,0-0.4-0.1-0.6-0.2l-6.9-4c-0.2-0.1-0.5-0.3-0.6-0.5c-0.3-0.3-0.4-0.8-0.3-1.1c0-0.5,0.7-1.3,1.1-1.5L172.4,120.7z"/>
				<path class="st5" d="M172.4,120.8c0.2-0.1,0.4-0.2,0.6-0.1c0.1,0,0.2,0,0.3,0c0.2,0,0.7,0.2,0.9,0.3l6.6,3.9
					c0.1,0.1,0.4,0.3,0.5,0.4c0.3,0.3,0.4,0.8,0.3,1.2c0,0.5-0.7,1.2-1.1,1.4l-9.5,5.4c-0.2,0.1-0.6,0.3-0.8,0.3c-0.1,0-0.2,0-0.3,0
					c-0.2,0-0.4-0.1-0.6-0.2l-6.8-3.9c-0.2-0.1-0.5-0.3-0.6-0.5c-0.3-0.3-0.4-0.8-0.3-1.1c0-0.5,0.7-1.2,1.2-1.5L172.4,120.8z"/>
				<path class="st6" d="M172.4,120.9c0.2-0.1,0.4-0.1,0.6-0.1c0.1,0,0.2,0,0.3,0c0.2,0,0.7,0.2,0.8,0.3l6.6,3.9
					c0.1,0.1,0.4,0.3,0.5,0.4c0.3,0.3,0.4,0.8,0.3,1.2c0,0.4-0.8,1.2-1.1,1.4l-9.4,5.3c-0.2,0.1-0.6,0.3-0.8,0.3c-0.1,0-0.2,0-0.3,0
					c-0.2,0-0.4,0-0.6-0.1l-6.8-3.9c-0.2-0.1-0.5-0.3-0.6-0.5c-0.3-0.3-0.4-0.8-0.2-1.1c0-0.4,0.8-1.2,1.2-1.4L172.4,120.9z"/>
				<path class="st7" d="M172.5,121c0.2-0.1,0.4-0.1,0.6-0.1c0.1,0,0.2,0,0.2,0c0.2,0,0.7,0.2,0.8,0.3l6.5,3.8
					c0.1,0.1,0.4,0.3,0.5,0.4c0.3,0.3,0.4,0.8,0.3,1.2c0,0.4-0.8,1.1-1.2,1.3l-9.3,5.2c-0.2,0.1-0.6,0.3-0.8,0.3c-0.1,0-0.2,0-0.3,0
					c-0.2,0-0.4,0-0.6-0.1l-6.8-3.9c-0.1-0.1-0.5-0.3-0.6-0.5c-0.3-0.3-0.4-0.8-0.2-1.1c0-0.4,0.9-1.2,1.2-1.4L172.5,121z"/>
				<path class="st8" d="M172.5,121.1c0.2-0.1,0.4-0.1,0.6-0.1c0.1,0,0.2,0,0.2,0c0.2,0,0.7,0.2,0.8,0.3l6.4,3.8
					c0.1,0.1,0.4,0.3,0.5,0.3c0.3,0.3,0.4,0.8,0.2,1.1c0,0.4-0.9,1.1-1.2,1.3l-9.1,5.1c-0.1,0.1-0.6,0.3-0.8,0.3
					c-0.1,0-0.2,0.1-0.2,0c-0.2,0-0.4,0-0.6-0.1l-6.7-3.9c-0.1-0.1-0.5-0.3-0.6-0.4c-0.3-0.3-0.4-0.8-0.2-1.1c0-0.4,1-1.1,1.3-1.3
					L172.5,121.1z"/>
				<path class="st9" d="M172.6,121.1c0.2-0.1,0.4-0.1,0.6-0.1c0,0,0.2,0.1,0.2,0.1c0.1,0,0.7,0.3,0.8,0.3l6.3,3.7
					c0.1,0.1,0.4,0.3,0.5,0.3c0.3,0.3,0.4,0.8,0.2,1.1c0,0.3-1,1.1-1.2,1.2l-9,5.1c-0.1,0.1-0.6,0.3-0.8,0.3c0,0-0.2,0.1-0.2,0.1
					c-0.2,0-0.4,0-0.6-0.1l-6.7-3.9c-0.1-0.1-0.6-0.4-0.6-0.4c-0.3-0.3-0.4-0.8-0.2-1.1c0-0.3,1-1.1,1.3-1.3L172.6,121.1z"/>
				<path class="st10" d="M172.6,121.2c0.2-0.1,0.4-0.1,0.6-0.1c0,0,0.2,0.1,0.2,0.1c0.1,0,0.7,0.3,0.8,0.3l6.2,3.7
					c0.1,0,0.4,0.3,0.5,0.3c0.3,0.3,0.4,0.8,0.2,1.1c0,0.3-1,1-1.3,1.1l-8.8,5c-0.1,0.1-0.6,0.3-0.7,0.3c0,0-0.2,0.1-0.2,0.1
					c-0.2,0-0.4,0-0.6-0.1l-6.6-3.8c-0.1-0.1-0.6-0.4-0.6-0.4c-0.3-0.3-0.4-0.8-0.1-1c0-0.3,1.1-1.1,1.3-1.2L172.6,121.2z"/>
				<path class="st11" d="M172.7,121.3c0.2-0.1,0.4-0.1,0.6-0.1c0,0,0.2,0.1,0.2,0.1c0.1,0,0.7,0.3,0.8,0.4l6.1,3.6
					c0.1,0,0.4,0.3,0.5,0.3c0.3,0.3,0.4,0.8,0.1,1.1c0,0.2-1.1,1-1.3,1.1l-8.7,4.9c-0.1,0.1-0.6,0.3-0.7,0.3c0,0-0.2,0.1-0.2,0.1
					c-0.2,0.1-0.4,0-0.6-0.1l-6.6-3.8c-0.1,0-0.6-0.4-0.6-0.4c-0.3-0.3-0.4-0.7-0.1-1c0-0.2,1.2-1,1.4-1.1L172.7,121.3z"/>
				<path class="st12" d="M172.7,121.4c0.2-0.1,0.4-0.1,0.6-0.1c0,0,0.2,0.1,0.2,0.1c0.1,0,0.7,0.3,0.7,0.4l6.1,3.6
					c0.1,0,0.4,0.3,0.5,0.3c0.4,0.3,0.4,0.8,0.1,1.1c0,0.2-1.1,0.9-1.3,1l-8.6,4.8c-0.1,0-0.6,0.3-0.7,0.3c0,0-0.2,0.1-0.2,0.1
					c-0.2,0.1-0.4,0-0.5-0.1l-6.6-3.8c-0.1,0-0.6-0.4-0.6-0.4c-0.3-0.2-0.4-0.7-0.1-1c0-0.2,1.2-1,1.4-1.1L172.7,121.4z"/>
				<path class="st13" d="M172.7,121.5c0.2-0.1,0.4-0.1,0.5,0c0,0,0.2,0.1,0.2,0.1c0.1,0,0.7,0.3,0.7,0.4l6,3.5c0,0,0.4,0.3,0.5,0.3
					c0.4,0.2,0.4,0.8,0.1,1c0,0.1-1.2,0.9-1.3,1l-8.4,4.7c-0.1,0-0.6,0.3-0.7,0.3c0,0-0.2,0.1-0.2,0.1c-0.2,0.1-0.4,0.1-0.5,0
					L163,129c0,0-0.6-0.4-0.6-0.4c-0.3-0.2-0.4-0.7-0.1-1c0-0.1,1.3-1,1.4-1L172.7,121.5z"/>
				<path class="st14" d="M172.8,121.5c0.2-0.1,0.4-0.1,0.5,0c0,0,0.2,0.1,0.2,0.1c0,0,0.7,0.4,0.7,0.4l5.9,3.5c0,0,0.4,0.3,0.5,0.3
					c0.4,0.2,0.4,0.8,0.1,1c0,0.1-1.3,0.9-1.4,0.9l-8.3,4.7c0,0-0.6,0.4-0.7,0.4c0,0-0.2,0.1-0.2,0.1c-0.2,0.1-0.4,0.1-0.5,0
					l-6.5-3.7c0,0-0.6-0.4-0.6-0.4c-0.4-0.2-0.4-0.7-0.1-1c0-0.1,1.4-0.9,1.5-1L172.8,121.5z"/>
				<path class="st15" d="M172.8,121.6c0.2-0.1,0.4-0.1,0.5,0c0,0,0.2,0.1,0.2,0.1c0,0,0.7,0.4,0.7,0.4l5.8,3.4c0,0,0.4,0.3,0.5,0.3
					c0.4,0.2,0.4,0.8,0,1c0,0-1.3,0.8-1.4,0.9l-8.1,4.6c0,0-0.6,0.4-0.7,0.4c0,0-0.2,0.1-0.2,0.1c-0.2,0.1-0.4,0.1-0.5,0l-6.4-3.7
					c0,0-0.6-0.4-0.6-0.4c-0.4-0.2-0.4-0.7,0-1c0,0,1.5-0.9,1.5-0.9L172.8,121.6z"/>
				<path class="st16" d="M172.9,121.7c0.2-0.1,0.4-0.1,0.5,0l7,4.1c0.4,0.2,0.4,0.8,0,1l-10.2,5.8c-0.2,0.1-0.4,0.1-0.5,0l-7-4.1
					c-0.4-0.2-0.4-0.7,0-1L172.9,121.7z"/>
			</g>
			<path class="st17" d="M162.6,118.7l7,4.1c0.2,0.1,0.4,0.1,0.5,0l10.2-5.8c0.3-0.2,0.4-0.5,0.2-0.8c0.1,0.1,0.2,0.2,0.2,0.4v9.6
				c0,0.3-0.1,0.6-0.4,0.7l-10,5.7c-0.2,0.1-0.5,0.1-0.7,0l-7-4c-0.2-0.1-0.4-0.4-0.4-0.7v-9.5c0-0.2,0.1-0.4,0.2-0.6
				C162.2,118.1,162.3,118.5,162.6,118.7z"/>
			
				<linearGradient id="web2_SVGID_4_" gradientUnits="userSpaceOnUse" x1="-702.1842" y1="81.121" x2="-681.067" y2="81.121" gradientTransform="matrix(-1 0 0 -1 -520.1592 203.8878)">
				<stop  offset="0" style="stop-color:#FFD55D"/>
				<stop  offset="1" style="stop-color:#F9A81F"/>
			</linearGradient>
			<path class="st25" d="M170,125.1l10.8-6.1v1.4l-10.8,6.1c-0.2,0.1-0.4,0.1-0.6,0l-7.1-4.1V121l7.1,4.1
				C169.6,125.2,169.8,125.2,170,125.1z"/>
			
				<linearGradient id="web2_SVGID_5_" gradientUnits="userSpaceOnUse" x1="-702.1842" y1="77.5416" x2="-681.067" y2="77.5416" gradientTransform="matrix(-1 0 0 -1 -520.1592 203.8878)">
				<stop  offset="0" style="stop-color:#FFD55D"/>
				<stop  offset="1" style="stop-color:#F9A81F"/>
			</linearGradient>
			<path class="st26" d="M170,128.7l10.8-6.1v1.4L170,130c-0.2,0.1-0.4,0.1-0.6,0l-7.1-4.1v-1.4l7.1,4.1
				C169.6,128.8,169.8,128.8,170,128.7z"/>
			<path class="st20" d="M172.8,111.8c0.2-0.1,0.4-0.1,0.5,0l7,4.1c0.4,0.2,0.4,0.8,0,1l-10.2,5.8c-0.2,0.1-0.4,0.1-0.5,0l-7-4.1
				c-0.4-0.2-0.4-0.8,0-1L172.8,111.8z"/>
		</g>
	</g>
	<g>
		<path class="st27" d="M117.6,147c1.4-0.1,1.9,0.2,2,0.6c0.1,0.8-0.6,1.4-1.7,1.4c-1.1,0-2.7-0.1-3.9-0.8c-0.5-0.3,0.5-1,0.9-1
			S116.5,147.2,117.6,147z"/>
		<path class="st27" d="M118.4,147l-1.1,0.2c0.3-0.9-0.1-1-0.1-1l0.5-0.8L118.4,147z"/>
		<path class="st27" d="M113.6,144.1c0.1,0.6,0.6,1.8,1.2,3.1c0.3,0.6-0.5,1.3-1.1,0.8c-0.6-0.5-1-3.8-1-3.8
			C113.2,143.7,113.6,144.1,113.6,144.1z"/>
		<path class="st27" d="M113.2,142c0.2,0.4,0.3,0.1,0.4,0.2c0.1,0.1,0.4,0.6,0.4,0.7c0,0.1-0.5,0.6-0.5,1.2c0,0.1-0.8,0.1-0.8,0.1
			s-0.3-0.9-0.3-1.2c0-0.3-0.3-0.6-0.1-0.5c0.1,0,0.4,0.3,0.5,0.4s0.2-0.1,0.2-0.5c0-0.4-0.4-1.1-0.3-1.1
			C112.9,141.3,113.1,141.7,113.2,142z"/>
		<path class="st27" d="M120.1,158c0,0-0.7,1.8-0.1,3.1c0.9,2.1,0.6,6.7,0.7,7.2c0.1,0.5-0.9,1.1-1.1,0c-0.2-1.1-1.4-5.8-1.9-6.9
			c-0.5-1.1-0.3-3.3-0.3-3.3L120.1,158z"/>
		<path class="st27" d="M118.1,159.5c-0.5,0.9-0.9,3.7-0.7,5.4c0.2,1.7-0.3,5.1-0.3,5.7c0,0.5-1,1-1-0.1s-0.6-5.5-0.9-6.7
			c-0.3-1.2,0.2-4.9,0.2-4.9S118.6,158.5,118.1,159.5z"/>
		<path class="st28" d="M115.4,172c0.6-0.4,0.6-1.6,0.6-1.6c0.8,0,1.2-0.1,1.2-0.1c0,0.4,0.4,1,0.4,1.5c0,0.5-0.4,0.8-0.4,1.2h-0.4
			l0.2-1c-0.6,0-1.3,1-2,1c-0.7,0-0.9-0.2-1-0.5C114.1,172.3,114.7,172.4,115.4,172z"/>
		<path class="st28" d="M118.9,170.1c0.6-0.4,0.6-1.6,0.6-1.6c0.8,0,1.2-0.1,1.2-0.1c0,0.4,0.4,1,0.4,1.5c0,0.5-0.4,0.8-0.4,1.2
			h-0.3l0.2-1c-0.6,0-1.3,1-2,1c-0.7,0-0.9-0.2-1-0.5C117.6,170.4,118.2,170.5,118.9,170.1z"/>
		
			<linearGradient id="web2_SVGID_6_" gradientUnits="userSpaceOnUse" x1="-741.8989" y1="44.7299" x2="-733.9489" y2="44.7299" gradientTransform="matrix(1 0 0 -1 855.7924 203.8878)">
			<stop  offset="8.000000e-08" style="stop-color:#F15E5F"/>
			<stop  offset="1" style="stop-color:#C72F2E"/>
		</linearGradient>
		<path class="st29" d="M119.6,152c0,0,0.2,0.8,0.8,1.7s1.1,2.4,0.9,3.4c-0.2,1.1,0.2,5.3,0.6,7.4c0,0-1.9,0.4-2.6,0.9
			c-2.5,1.8-5.3,0.1-5.3,0.1c0-4.6,1.9-10.6,2.3-13.2L119.6,152z"/>
		<path class="st30" d="M115.6,149.5c0.2-0.4,0.3-0.9,0.4-1.5c0.2-0.7,1.3-1.1,2.4-0.9c1.1,0.2,1.4,1.8,1.4,2.9c0,1-0.1,2.1,0.5,3.6
			c-1.2,1.1-3.2,1.6-4.5,0.9c0.1-1.1,0.7-2.8,0.4-3.6C116.1,150.7,115.3,150.3,115.6,149.5z"/>
		<path class="st27" d="M116.4,144.1c0-0.1,0-0.4,0-0.5c0.1-1,1.6-0.1,2.1,0.8s-1.6,2.4-2,1.6c-0.5-0.9-0.3-1.5-0.2-1.6
			C116.4,144.3,116.5,144.3,116.4,144.1z"/>
		<path class="st31" d="M117.9,142.5c1.1,0.3,1.5-0.4,2.1,0.9c0.5,1.1,1.4,0.1,1.9,1.3c0.5,1.3-0.1,0.9,0.7,2.1c0.6,1-0.1,2-0.3,2.6
			c-0.3,0.7-0.7,1-0.2,1.9c0,0-2.4,0-2.2-1.6s-1.3-0.8-1.2-1.9c0.1-0.9-1-0.5-1-1.1s-1-0.8-0.3-1.8c0.4-0.6-1.2-1-1.1-1.6
			C116.4,143,116.8,142.2,117.9,142.5z"/>
		<path class="st27" d="M117.6,144.5c0.1,0.2,0,0.5-0.1,0.6s-0.2,0.1-0.2,0c0-0.1-0.1-0.3,0-0.6
			C117.3,144.5,117.5,144.3,117.6,144.5z"/>
		<path class="st27" d="M115.9,149.4c0.1-1.4,0.5-1.9,0.8-1.9c0.8,0,1.3,0.7,1.1,1.9c-0.2,1.1-0.5,2.6-1.4,3.8
			c-0.3,0.5-1.1-0.6-1-0.9C115.5,151.9,115.9,150.6,115.9,149.4z"/>
		<path class="st27" d="M112.4,156c0.2-0.3,0.7-0.6,0.5-0.6c-0.2,0-0.4,0-0.5-0.1s0.2,0,0.4-0.1s1-0.3,1-0.3s0.5,0.5,0.4,0.6
			c-0.1,0.1-0.3,0.4-0.4,0.6c-0.2,0.2-0.3,0.9-0.4,0.8c-0.1,0-0.7,0-0.8-0.1c-0.1-0.1-0.1-0.7-0.2-0.3c-0.1,0.4-0.3,0.7-0.3,0.5
			C112.2,156.9,112.2,156.3,112.4,156z"/>
		<path class="st27" d="M113.7,155c0.5-0.4,1.3-2.1,1.7-2.7c0.2-0.3,1.5-0.4,1.4,0.4c-0.1,0.8-2.6,3-2.6,3
			C113.6,155.5,113.7,155,113.7,155z"/>
	</g>
	<g>
		<g>
			<path class="st0" d="M90.1,102.3c0.4,0,0.8-0.1,1.2-0.3l12.9-7.1c0.6-0.3,0.9-0.8,0.9-1.4c0-0.6-0.3-1.1-0.8-1.4L77.8,76.9
				c-0.3-0.2-0.8-0.3-1.2-0.3s-0.8,0.1-1.2,0.3l-12.9,7.1c-0.6,0.3-0.9,0.8-0.9,1.4c0,0.6,0.3,1.1,0.8,1.4L89,102
				C89.3,102.2,89.7,102.3,90.1,102.3z"/>
			<path class="st1" d="M62.5,84c-0.5,0.3-0.8,0.8-0.8,1.3s0.3,1,0.8,1.3L89,101.9c0.3,0.2,0.8,0.3,1.2,0.3c0.4,0,0.8-0.1,1.2-0.3
				l12.9-7.1c0.5-0.3,0.8-0.8,0.8-1.3c0-0.5-0.3-1-0.8-1.3L77.8,77c-0.3-0.2-0.8-0.3-1.2-0.3c-0.4,0-0.8,0.1-1.2,0.3L62.5,84z"/>
			<path class="st2" d="M62.5,84.1c-0.5,0.3-0.8,0.8-0.8,1.3s0.3,1,0.8,1.3l26.6,15.3c0.3,0.2,0.8,0.3,1.2,0.3
				c0.4,0,0.9-0.2,1.1-0.3l12.8-7c0.5-0.3,0.8-0.8,0.8-1.3c0-0.5-0.3-1-0.8-1.3L77.8,77.1c-0.3-0.2-0.8-0.3-1.2-0.3
				c-0.4,0-0.8,0.1-1.2,0.3L62.5,84.1z"/>
			<path class="st3" d="M62.6,84.1c-0.5,0.3-0.8,0.7-0.8,1.2c0,0.5,0.3,0.9,0.7,1.2l26.6,15.3c0.3,0.2,0.8,0.3,1.2,0.2
				c0.4,0,0.9-0.2,1.1-0.3l12.8-7c0.5-0.3,0.8-0.7,0.8-1.2c0-0.5-0.3-0.9-0.7-1.2L77.8,77.2c-0.3-0.2-0.8-0.3-1.1-0.3
				c-0.4,0-0.8,0.1-1.2,0.2L62.6,84.1z"/>
			<path class="st4" d="M62.6,84.2c-0.4,0.3-0.7,0.7-0.7,1.1c0,0.4,0.3,0.9,0.7,1.1l26.6,15.3c0.3,0.2,0.8,0.3,1.2,0.2
				c0.3,0,0.9-0.2,1.1-0.3l12.7-7c0.4-0.3,0.7-0.7,0.7-1.1c0-0.4-0.3-0.9-0.7-1.1L77.9,77.3c-0.3-0.2-0.8-0.4-1.1-0.4
				c-0.4,0-0.8,0-1.2,0.2L62.6,84.2z"/>
			<path class="st5" d="M62.7,84.3c-0.4,0.2-0.7,0.6-0.7,1.1c0,0.4,0.2,0.8,0.6,1.1l26.6,15.3c0.3,0.2,0.8,0.3,1.2,0.2
				c0.3,0,0.9-0.2,1.1-0.4l12.6-6.9c0.4-0.2,0.7-0.6,0.7-1.1c0-0.4-0.2-0.8-0.6-1.1L77.9,77.4c-0.2-0.1-0.8-0.4-1.1-0.4
				c-0.4-0.1-0.8,0-1.2,0.2L62.7,84.3z"/>
			<path class="st6" d="M62.7,84.4c-0.4,0.2-0.6,0.6-0.6,1c0,0.4,0.2,0.8,0.6,1l26.6,15.3c0.3,0.2,0.8,0.3,1.2,0.2
				c0.3,0,0.9-0.3,1.1-0.4l12.6-6.9c0.4-0.2,0.6-0.6,0.6-1s-0.2-0.8-0.6-1L77.9,77.5c-0.2-0.1-0.8-0.4-1.1-0.4
				c-0.4-0.1-0.8,0-1.2,0.2L62.7,84.4z"/>
			<path class="st7" d="M62.7,84.4c-0.4,0.2-0.6,0.6-0.6,0.9c0,0.4,0.2,0.7,0.6,0.9l26.6,15.3c0.3,0.2,0.8,0.3,1.2,0.2
				c0.2,0,0.9-0.3,1.1-0.4l12.5-6.9c0.4-0.2,0.6-0.6,0.6-0.9c0-0.4-0.2-0.7-0.6-0.9l-26.1-15c-0.2-0.1-0.9-0.4-1.1-0.4
				c-0.4-0.1-0.8,0-1.2,0.2L62.7,84.4z"/>
			<path class="st8" d="M62.8,84.5c-0.4,0.2-0.6,0.5-0.6,0.9c0,0.3,0.2,0.7,0.5,0.8l26.6,15.3c0.3,0.2,0.8,0.2,1.2,0.2
				c0.2,0,0.9-0.3,1.1-0.4l12.5-6.8c0.4-0.2,0.6-0.5,0.6-0.9c0-0.3-0.2-0.7-0.5-0.9l-26.1-15c-0.2-0.1-0.9-0.4-1.1-0.4
				c-0.4-0.1-0.8,0-1.2,0.2L62.8,84.5z"/>
			<path class="st9" d="M62.8,84.6c-0.3,0.2-0.5,0.5-0.5,0.8c0,0.3,0.2,0.6,0.5,0.8l26.6,15.3c0.3,0.2,0.8,0.2,1.2,0.1
				c0.2,0,0.9-0.3,1.1-0.4l12.4-6.8c0.3-0.2,0.5-0.5,0.5-0.8c0-0.3-0.2-0.6-0.5-0.8L78,77.8c-0.1-0.1-0.9-0.4-1.1-0.4
				c-0.4-0.1-0.8-0.1-1.2,0.1L62.8,84.6z"/>
			<path class="st10" d="M62.8,84.6c-0.3,0.2-0.5,0.4-0.5,0.7c0,0.3,0.2,0.6,0.4,0.7l26.6,15.3c0.3,0.2,0.8,0.2,1.2,0.1
				c0.2,0,0.9-0.4,1-0.4l12.3-6.8c0.3-0.2,0.5-0.4,0.5-0.7c0-0.3-0.2-0.6-0.4-0.7L78,77.9c-0.1-0.1-0.9-0.5-1.1-0.5
				c-0.4-0.1-0.8-0.1-1.2,0.1L62.8,84.6z"/>
			<path class="st11" d="M62.9,84.7c-0.3,0.2-0.4,0.4-0.4,0.7c0,0.3,0.1,0.5,0.4,0.7l26.6,15.3c0.3,0.2,0.8,0.2,1.1,0.1
				c0.1,0,0.9-0.4,1-0.4l12.3-6.7c0.3-0.2,0.4-0.4,0.4-0.7c0-0.3-0.1-0.5-0.4-0.7L78,78c-0.1-0.1-0.9-0.5-1.1-0.5
				c-0.4-0.1-0.8-0.1-1.1,0.1L62.9,84.7z"/>
			<path class="st12" d="M62.9,84.8c-0.3,0.1-0.4,0.4-0.4,0.6c0,0.2,0.1,0.4,0.4,0.6l26.6,15.3c0.3,0.2,0.8,0.2,1.1,0.1
				c0.1,0,0.9-0.4,1-0.5l12.2-6.7c0.3-0.1,0.4-0.4,0.4-0.6c0-0.2-0.1-0.4-0.4-0.6L78,78.1c-0.1-0.1-0.9-0.5-1-0.5
				c-0.3-0.1-0.8-0.1-1.1,0.1L62.9,84.8z"/>
			<path class="st13" d="M63,84.8c-0.2,0.1-0.4,0.3-0.4,0.5s0.1,0.4,0.3,0.5l26.6,15.3c0.3,0.2,0.8,0.2,1.1,0.1c0.1,0,0.9-0.4,1-0.5
				l12.2-6.7c0.2-0.1,0.4-0.3,0.4-0.5s-0.1-0.4-0.3-0.5L78.1,78.2c-0.1,0-0.9-0.5-1-0.5c-0.3-0.2-0.8-0.1-1.1,0.1L63,84.8z"/>
			<path class="st14" d="M63,84.9c-0.2,0.1-0.3,0.3-0.3,0.5s0.1,0.3,0.3,0.4l26.6,15.3c0.3,0.2,0.8,0.2,1.1,0c0.1,0,0.9-0.5,1-0.5
				l12.1-6.6c0.2-0.1,0.3-0.3,0.3-0.5s-0.1-0.3-0.3-0.4L78.1,78.3c0,0-1-0.5-1-0.5c-0.3-0.2-0.8-0.1-1.1,0L63,84.9z"/>
			<path class="st15" d="M63,85c-0.2,0.1-0.3,0.3-0.3,0.4c0,0.1,0.1,0.3,0.3,0.4L89.6,101c0.3,0.2,0.8,0.2,1.1,0c0,0,0.9-0.5,1-0.5
				l12-6.6c0.2-0.1,0.3-0.3,0.3-0.4c0-0.1-0.1-0.3-0.3-0.4L78.1,78.4c0,0-1-0.6-1-0.6c-0.3-0.2-0.8-0.2-1.1,0L63,85z"/>
			<path class="st16" d="M103.7,93.2L77.2,77.9c-0.3-0.2-0.8-0.2-1.1,0L63.1,85c-0.3,0.2-0.3,0.5,0,0.7l26.6,15.3
				c0.3,0.2,0.8,0.2,1.1,0l12.9-7.1C104,93.7,104,93.4,103.7,93.2z"/>
		</g>
		<g>
			<path class="st17" d="M63.5,84.9h1.8v0.3l10.5-5.7c0.8-0.5,2.2-0.4,3.2,0.1l23.2,12.9v-0.3h1.8v1.4l0,0c0,0.1,0,0.1-0.1,0.2
				l-12.5,6.9c-0.8,0.4-2.1,0.4-3-0.1L63.6,86.4c-0.1,0-0.1-0.1-0.1-0.2h0L63.5,84.9L63.5,84.9z"/>
			<path class="st20" d="M63.6,84.7c-0.1,0.1-0.1,0.3,0,0.3l24.7,14.2c0.9,0.5,2.2,0.6,3,0.1l12.5-6.9c0.1-0.1,0.1-0.2,0-0.3l0,0
				L79,78.2c-0.9-0.5-2.4-0.6-3.2-0.1L63.6,84.7C63.6,84.7,63.6,84.7,63.6,84.7z"/>
			<path class="st17" d="M88.7,54.7L88.7,54.7c-5.6-3.2-11.6-0.1-11.5,5.9l16,31.5l1.1-0.6l-0.3-28.1C94.1,60,91.9,56.6,88.7,54.7z"
				/>
			<path class="st32" d="M87.6,55.4L87.6,55.4c-5.6-3.2-11.6-0.1-11.5,5.9l0.2,21.3l16.9,9.6L93,64.1C92.9,60.6,90.8,57.2,87.6,55.4
				z"/>
			<path class="st17" d="M125,38.6L57.5,0.4c-1.6-0.9-4.8-0.1-5,2l-5.4,52c-0.1,0.7,0.3,1.5,1,1.9l66.7,40.1
				c3.7,0.7,4.6-1.8,4.8-3.4l6.4-52.5C126.2,39.7,125.8,39,125,38.6z"/>
			<path class="st20" d="M123.7,39.5L56.3,0.8c-1.6-0.9-3.8,0-3.9,1.6l-6.5,53.2c-0.1,0.8,0.3,1.5,1,1.9l67.4,38.7
				c1.6,0.9,3.8,0,3.9-1.6l6.5-53.1C124.9,40.6,124.5,39.9,123.7,39.5z"/>
			
				<linearGradient id="web2_SVGID_7_" gradientUnits="userSpaceOnUse" x1="-1283.3789" y1="155.3267" x2="-1210.16" y2="155.3267" gradientTransform="matrix(1 0 0 -1 1332 203.8878)">
				<stop  offset="8.000000e-08" style="stop-color:#5EACDF"/>
				<stop  offset="1" style="stop-color:#577EBF"/>
			</linearGradient>
			<path class="st33" d="M121.8,43.1l-6,48.6c-0.1,0.9-1.3,1.4-2.2,0.9l-3.4-1.9h0l-7.8-4.4l0,0l-5.3-3L82.6,75L50.1,56.7
				c-1.1-0.6-1.6-1.7-1.5-2.7l6-48.6c0.1-0.9,1.3-1.4,2.2-0.9l12.7,7.2L84.2,20l5.3,3l7.3,4.1l23.5,13.3C121.4,41,122,42,121.8,43.1
				z"/>
			<path class="st30" d="M121.8,43.1l-0.6,4.8L54,9.8l0.6-4.4c0.1-0.9,1.3-1.4,2.2-0.9l12.7,7.2l14.7,8.3l5.3,3l7.4,4.1l23.4,13.3
				C121.4,40.9,121.9,42,121.8,43.1z"/>
			<g>
				<path class="st0" d="M109.2,39.7l-4.1-2.4c-0.1-0.1-0.2-0.2-0.2-0.3c0-0.1,0.1-0.2,0.2-0.1l4.1,2.4c0.1,0.1,0.2,0.2,0.2,0.3
					C109.4,39.7,109.3,39.7,109.2,39.7z"/>
				<g>
					<path class="st0" d="M118.8,45.3c-0.1,0-0.1-0.1-0.2-0.2l-2.2-4.5c-0.1-0.1,0-0.3,0.1-0.3c0.1,0,0.2,0.1,0.3,0.2L119,45
						c0.1,0.1,0,0.3-0.1,0.3C118.9,45.3,118.8,45.3,118.8,45.3z"/>
					<path class="st0" d="M116.2,43.7c-0.1,0-0.1-0.1-0.1-0.1c-0.1-0.1-0.1-0.3,0-0.3l3-1.4c0.1,0,0.2,0,0.3,0.2
						c0.1,0.1,0.1,0.3,0,0.3l-3,1.4C116.3,43.8,116.2,43.8,116.2,43.7z"/>
				</g>
				<path class="st0" d="M112.6,41.7c-1-0.6-1.7-1.8-1.6-2.7s1-1.2,2-0.6c1,0.6,1.7,1.8,1.6,2.7S113.6,42.2,112.6,41.7z M112.9,38.7
					c-0.8-0.4-1.4-0.2-1.5,0.5c-0.1,0.7,0.4,1.6,1.2,2.1c0.8,0.4,1.4,0.2,1.5-0.5C114.2,40.1,113.7,39.1,112.9,38.7z"/>
			</g>
			<g>
				<polygon class="st0" points="103.8,61.6 106.9,63.4 106.9,62.9 103.8,61.1 				"/>
				<polygon class="st0" points="107.5,63.7 110.1,65.3 110.1,64.8 107.5,63.2 				"/>
				<polygon class="st0" points="103.8,62.7 105.5,63.7 105.5,63.2 103.8,62.2 				"/>
				<polygon class="st0" points="107.9,65 110.1,66.4 110.1,65.9 107.9,64.6 				"/>
				<polygon class="st0" points="105.7,63.8 107.5,64.8 107.5,64.3 105.7,63.3 				"/>
				<polygon class="st0" points="103.8,60.5 105.5,61.5 105.5,61 103.8,60.1 				"/>
				<polygon class="st0" points="107.9,62.9 110.1,64.2 110.1,63.7 107.9,62.4 				"/>
				<polygon class="st0" points="105.7,61.6 107.5,62.7 107.5,62.2 105.7,61.2 				"/>
				<polygon class="st0" points="95.4,55.9 101.2,59.2 101.2,58.8 95.4,55.4 				"/>
				<polygon class="st0" points="95.4,56.8 97.3,57.9 97.3,57.5 95.4,56.4 				"/>
				<polygon class="st0" points="98,58.4 101.2,60.2 101.2,59.8 98,57.9 				"/>
				<polygon class="st0" points="95.4,57.8 101.2,61.2 101.2,60.8 95.4,57.4 				"/>
			</g>
			<g>
				<polygon class="st0" points="73.7,30.9 76.8,32.7 76.8,32.2 73.7,30.4 				"/>
				<polygon class="st0" points="77.4,33 80.1,34.6 80.1,34.1 77.4,32.6 				"/>
				<polygon class="st0" points="73.7,32 75.4,33 75.4,32.5 73.7,31.5 				"/>
				<polygon class="st0" points="77.8,34.3 80.1,35.7 80.1,35.2 77.8,33.9 				"/>
				<polygon class="st0" points="75.6,33.1 77.4,34.1 77.4,33.6 75.6,32.6 				"/>
				<polygon class="st0" points="73.7,29.8 75.4,30.8 75.4,30.3 73.7,29.4 				"/>
				<polygon class="st0" points="77.8,32.2 80.1,33.5 80.1,33 77.8,31.7 				"/>
				<polygon class="st0" points="75.6,31 77.4,32 77.4,31.5 75.6,30.5 				"/>
				<polygon class="st0" points="65.3,25.2 71.1,28.5 71.1,28.1 65.3,24.7 				"/>
				<polygon class="st0" points="65.3,26.2 67.2,27.3 67.2,26.8 65.3,25.7 				"/>
				<polygon class="st0" points="67.9,27.7 71.1,29.5 71.1,29.1 67.9,27.2 				"/>
				<polygon class="st0" points="65.3,27.1 71.1,30.5 71.1,30.1 65.3,26.7 				"/>
			</g>
			<g>
				<polygon class="st0" points="69.6,59.8 72.6,61.6 72.6,61.1 69.6,59.3 				"/>
				<polygon class="st0" points="73.2,61.9 75.9,63.5 75.9,63 73.2,61.4 				"/>
				<polygon class="st0" points="69.6,60.9 71.2,61.8 71.2,61.4 69.6,60.4 				"/>
				<polygon class="st0" points="73.6,63.2 75.9,64.5 75.9,64.1 73.6,62.7 				"/>
				<polygon class="st0" points="71.5,62 73.2,63 73.2,62.5 71.5,61.5 				"/>
				<polygon class="st0" points="69.6,58.7 71.2,59.7 71.2,59.2 69.6,58.2 				"/>
				<polygon class="st0" points="73.6,61.1 75.9,62.4 75.9,61.9 73.6,60.6 				"/>
				<polygon class="st0" points="71.5,59.8 73.2,60.8 73.2,60.4 71.5,59.3 				"/>
				<polygon class="st0" points="61.2,54 67,57.4 67,57 61.2,53.6 				"/>
				<polygon class="st0" points="61.2,55 63.1,56.1 63.1,55.7 61.2,54.6 				"/>
				<polygon class="st0" points="63.8,56.5 67,58.4 67,57.9 63.8,56.1 				"/>
				<polygon class="st0" points="61.2,56 67,59.4 67,58.9 61.2,55.6 				"/>
			</g>
			<g>
				<path class="st0" d="M93.8,44.6l4.9-0.9c0.1,0,0.2-0.1,0.3-0.2c0.1-0.1,0.1-0.2,0.1-0.4c0-0.2-0.2-0.4-0.5-0.4h-0.1l-5.6,1.1
					c-0.2,0-0.3,0.1-0.4,0.3c-0.1,0.2,0,0.3,0.1,0.5l5.6,7.6c0.1,0.1,0.2,0.2,0.4,0.2c0.1,0,0.2,0,0.3-0.1c0.1-0.1,0.2-0.2,0.2-0.3
					c0-0.1,0-0.3-0.1-0.4L93.8,44.6z"/>
				<path class="st0" d="M110.6,49.9c-0.1-0.1-0.2-0.2-0.4-0.2c-0.1,0-0.2,0-0.3,0.1c-0.1,0.1-0.2,0.2-0.2,0.3c0,0.1,0,0.3,0.1,0.4
					l5.2,6.9l-4.9,0.9c-0.1,0-0.2,0.1-0.3,0.2c-0.1,0.1-0.1,0.2-0.1,0.4c0,0.2,0.2,0.4,0.5,0.4h0.1l5.6-1.1c0.2,0,0.3-0.1,0.4-0.3
					c0.1-0.2,0-0.3-0.1-0.5L110.6,49.9z"/>
				<path class="st0" d="M108.5,47.7c-0.1,0-0.2,0-0.3,0.1l-8,4.6c-0.3,0.2-0.4,0.6-0.2,0.9c0.1,0.2,0.3,0.3,0.6,0.3
					c0.1,0,0.2,0,0.3-0.1l8-4.6c0.3-0.2,0.4-0.6,0.2-0.9C109,47.8,108.8,47.7,108.5,47.7z"/>
			</g>
			<g>
				<path class="st0" d="M62.4,39.9l4.9-0.9c0.1,0,0.2-0.1,0.3-0.2c0.1-0.1,0.1-0.2,0.1-0.4c0-0.2-0.2-0.4-0.5-0.4h-0.1l-5.6,1.1
					c-0.2,0-0.3,0.1-0.4,0.3c-0.1,0.2,0,0.3,0.1,0.5l5.6,7.6c0.1,0.1,0.2,0.2,0.4,0.2c0.1,0,0.2,0,0.3-0.1c0.1-0.1,0.2-0.2,0.2-0.3
					c0-0.1,0-0.3-0.1-0.4L62.4,39.9z"/>
				<path class="st0" d="M79.3,45.2C79.2,45.1,79,45,78.9,45c-0.1,0-0.2,0-0.3,0.1c-0.1,0.1-0.2,0.2-0.2,0.3c0,0.1,0,0.3,0.1,0.4
					l5.2,6.9l-4.9,0.9c-0.1,0-0.2,0.1-0.3,0.2c-0.1,0.1-0.1,0.2-0.1,0.4c0,0.2,0.2,0.4,0.5,0.4h0.1l5.6-1.1c0.2,0,0.3-0.1,0.4-0.3
					c0.1-0.2,0-0.3-0.1-0.5L79.3,45.2z"/>
				<path class="st0" d="M77.2,43c-0.1,0-0.2,0-0.3,0.1l-8,4.6c-0.3,0.2-0.4,0.6-0.2,0.9c0.1,0.2,0.3,0.3,0.6,0.3
					c0.1,0,0.2,0,0.3-0.1l8-4.6c0.3-0.2,0.4-0.6,0.2-0.9C77.6,43.2,77.4,43,77.2,43z"/>
			</g>
			<g>
				<path class="st0" d="M81.8,64.3l4.9-0.9c0.1,0,0.2-0.1,0.3-0.2c0.1-0.1,0.1-0.2,0.1-0.4c0-0.2-0.2-0.4-0.5-0.4h-0.1l-5.6,1.1
					c-0.2,0-0.3,0.1-0.4,0.3c-0.1,0.2,0,0.3,0.1,0.5l5.6,7.6c0.1,0.1,0.2,0.2,0.4,0.2c0.1,0,0.2,0,0.3-0.1c0.1-0.1,0.2-0.2,0.2-0.3
					c0-0.1,0-0.3-0.1-0.4L81.8,64.3z"/>
				<path class="st0" d="M98.7,69.6c-0.1-0.1-0.2-0.2-0.4-0.2c-0.1,0-0.2,0-0.3,0.1c-0.1,0.1-0.2,0.2-0.2,0.3c0,0.1,0,0.3,0.1,0.4
					l5.2,6.9L98.2,78c-0.1,0-0.2,0.1-0.3,0.2c-0.1,0.1-0.1,0.2-0.1,0.4c0,0.2,0.2,0.4,0.5,0.4h0.1l5.6-1.1c0.2,0,0.3-0.1,0.4-0.3
					c0.1-0.2,0-0.3-0.1-0.5L98.7,69.6z"/>
				<path class="st0" d="M96.6,67.4c-0.1,0-0.2,0-0.3,0.1l-8,4.6c-0.3,0.2-0.4,0.6-0.2,0.9c0.1,0.2,0.3,0.3,0.6,0.3
					c0.1,0,0.2,0,0.3-0.1l8-4.6c0.3-0.2,0.4-0.6,0.2-0.9C97,67.5,96.8,67.4,96.6,67.4z"/>
			</g>
		</g>
		<path class="st34" d="M112.7,36L49.5,56.3c-0.6-0.6-1-1.4-0.9-2.3l5.4-44.2l0.6-4.4c0.1-0.9,1.3-1.4,2.2-0.9l12.7,7.2L84.2,20
			l5.3,3l7.4,4.1L112.7,36z"/>
	</g>
	<g>
		<g>
			<path class="st17" d="M94.3,40.8l-6,48.6c-0.1,0.9-1.3,1.4-2.2,0.9l-3.4-1.9h0L75,84h0l-5.3-3L55,72.7L22.6,54.4
				c-1.1-0.6-1.6-1.7-1.5-2.7l6-48.6c0.1-0.9,1.3-1.4,2.2-0.9l12.7,7.2l14.7,8.3l5.3,3l7.3,4.1l23.5,13.3
				C93.8,38.7,94.4,39.7,94.3,40.8z"/>
			
				<linearGradient id="web2_SVGID_8_" gradientUnits="userSpaceOnUse" x1="19.8308" y1="156.9967" x2="93.05" y2="156.9967" gradientTransform="matrix(1 0 0 -1 0 203.8878)">
				<stop  offset="8.000000e-08" style="stop-color:#5EACDF"/>
				<stop  offset="1" style="stop-color:#577EBF"/>
			</linearGradient>
			<path class="st35" d="M93,41.4l-0.6,4.8l-5.4,43.8c-0.1,0.9-1.3,1.4-2.2,0.9l-3.4-1.9h0l-7.7-4.4h0l-5.3-3l-14.7-8.3L21.4,55.1
				c-0.2-0.1-0.4-0.3-0.6-0.5c-0.7-0.6-1-1.4-0.9-2.3l5.4-44.2l0.6-4.4c0.1-0.9,1.3-1.4,2.2-0.9L40.7,10l14.7,8.3l5.3,3l7.4,4.1
				l15.8,8.9l7.7,4.3C92.6,39.3,93.2,40.3,93,41.4z"/>
			<path class="st30" d="M93,41.4l-0.6,4.8L25.3,8.2l0.6-4.4c0.1-0.9,1.3-1.4,2.2-0.9L40.7,10l14.7,8.3l5.3,3l7.4,4.1l23.5,13.3
				C92.6,39.3,93.2,40.3,93,41.4z"/>
			<path class="st34" d="M83.9,34.4L20.7,54.6c-0.7-0.6-1-1.4-0.9-2.3l5.4-44.2l0.6-4.4c0.1-0.9,1.3-1.4,2.2-0.9L40.7,10l14.7,8.3
				l5.3,3l7.4,4.1L83.9,34.4z"/>
			<g>
				<path class="st0" d="M80.4,38l-4.1-2.4c-0.1-0.1-0.2-0.2-0.2-0.3s0.1-0.2,0.2-0.1l4.1,2.4c0.1,0.1,0.2,0.2,0.2,0.3
					C80.6,38,80.5,38.1,80.4,38z"/>
				<g>
					<path class="st0" d="M90,43.6c-0.1,0-0.1-0.1-0.2-0.2L87.6,39c-0.1-0.1,0-0.3,0.1-0.3c0.1,0,0.2,0.1,0.3,0.2l2.2,4.5
						c0.1,0.1,0,0.3-0.1,0.3C90.1,43.7,90,43.6,90,43.6z"/>
					<path class="st0" d="M87.4,42.1c-0.1,0-0.1-0.1-0.1-0.1c-0.1-0.1-0.1-0.3,0-0.3l3-1.4c0.1,0,0.2,0,0.3,0.2
						c0.1,0.1,0.1,0.3,0,0.3l-3,1.4C87.5,42.2,87.5,42.1,87.4,42.1z"/>
				</g>
				<path class="st0" d="M83.8,40c-1-0.6-1.7-1.8-1.6-2.7s1-1.2,2-0.6c1,0.6,1.7,1.8,1.6,2.7S84.8,40.6,83.8,40z M84.2,37
					c-0.8-0.4-1.4-0.2-1.5,0.5c-0.1,0.7,0.4,1.6,1.2,2.1c0.8,0.4,1.4,0.2,1.5-0.5C85.4,38.4,84.9,37.5,84.2,37z"/>
			</g>
		</g>
		<g class="st36">
			<path class="st37" d="M72.7,37.8C72.7,37.8,72.7,37.8,72.7,37.8L71,50.4l-1.4-0.8c-0.4-0.2-0.7,0-0.8,0.5l-0.3,2.8l-4.2-2.4
				c-0.4-0.2-0.7,0-0.8,0.5L63,55.1c0,0.3,0.1,0.6,0.4,0.8l5.1,3c0.4,0.2,0.7,0,0.8-0.5l0.3-2.8l4.2,2.4c0.4,0.2,0.7,0,0.8-0.5
				l0.4-2.8l8.2,4.8c0,0,0,0,0,0L85,45L72.7,37.8z"/>
			<path class="st37" d="M72.8,62.5L54.1,51.7c-0.3-0.2-0.5-0.2-0.7-0.1c-0.3,0-0.4,0.3-0.5,0.6l0,0.2l0,0l-0.2,1.7l0,0l-1.4,11
				l-1.7-0.4c0,0-0.1,0,0,0.1l0.3,1c0,0,0,0.1,0,0.1l-0.9,0.4c0,0,0,0,0,0.1l0.1,0.4c0,0,0,0,0.1,0l0.9-0.4c0,0,0,0,0.1,0l0.3,1
				c0,0,0.1,0,0.1,0l0.7-1l-0.3,2.1c-0.1,0.5,0.2,1.2,0.6,1.4l19.4,11.3c0.4,0.2,0.8,0,0.8-0.5l2.1-16.3c0.1-0.4-0.1-0.8-0.3-1.1
				C73.3,62.9,73.1,62.7,72.8,62.5z"/>
			<path class="st37" d="M36,47.6L34.8,57l12.8,7.5c0,0,0,0,0.1,0l1.2-9.4L36,47.6C36,47.6,36,47.6,36,47.6z"/>
			<path class="st37" d="M60.6,34.9c0.2,0.1,0.4,0,0.5-0.3c0-0.3-0.1-0.7-0.4-0.8c-0.2-0.1-0.4,0-0.5,0.3
				C60.2,34.4,60.3,34.8,60.6,34.9z"/>
			<path class="st37" d="M64.4,37.2c0.2,0.1,0.4,0,0.5-0.3c0-0.3-0.1-0.7-0.4-0.8c-0.2-0.1-0.4,0-0.5,0.3C64,36.7,64.2,37,64.4,37.2
				z"/>
			<path class="st37" d="M68.3,39.4c0.2,0.1,0.4,0,0.5-0.3c0-0.3-0.1-0.7-0.4-0.8c-0.2-0.1-0.4,0-0.5,0.3
				C67.9,38.9,68.1,39.3,68.3,39.4z"/>
			<path class="st37" d="M60,39.3c0.2,0.1,0.4,0,0.5-0.3c0-0.3-0.1-0.7-0.4-0.8c-0.2-0.1-0.4,0-0.5,0.3C59.6,38.8,59.8,39.1,60,39.3
				z"/>
			<path class="st37" d="M63.9,41.5c0.2,0.1,0.5,0,0.5-0.3c0-0.3-0.1-0.7-0.4-0.8c-0.2-0.1-0.5,0-0.5,0.3
				C63.5,41,63.6,41.4,63.9,41.5z"/>
			<path class="st37" d="M67.7,43.7c0.2,0.1,0.4,0,0.5-0.3c0-0.3-0.1-0.7-0.4-0.8c-0.2-0.1-0.4,0-0.5,0.3
				C67.4,43.3,67.5,43.6,67.7,43.7z"/>
			<path class="st37" d="M59.4,43.6c0.2,0.1,0.4,0,0.5-0.3c0-0.3-0.1-0.7-0.4-0.8c-0.2-0.1-0.4,0-0.5,0.3
				C59.1,43.1,59.2,43.4,59.4,43.6z"/>
			<path class="st37" d="M63.3,45.8c0.2,0.1,0.4,0,0.5-0.3c0-0.3-0.1-0.7-0.4-0.8c-0.2-0.1-0.4,0-0.5,0.3
				C62.9,45.3,63.1,45.7,63.3,45.8z"/>
			<path class="st37" d="M67.2,48.1c0.2,0.1,0.4,0,0.5-0.3c0-0.3-0.1-0.7-0.4-0.8c-0.2-0.1-0.4,0-0.5,0.3
				C66.8,47.6,66.9,47.9,67.2,48.1z"/>
			<path class="st37" d="M41.1,41.7L45,44c0,0.2,0.1,0.5,0.1,0.7l0.4,1.5l0.1,0c0,0-0.1,0.1-0.1,0.2l-0.1,1.2c0,0.1,0.1,0.3,0.2,0.4
				l2.8,1.6c0.1,0.1,0.2,0,0.2-0.1l0.1-1.2c0-0.1,0-0.2,0-0.2l0.2,0.1l0.7-0.9c0.1-0.1,0.2-0.3,0.3-0.5l3.8,2.2
				c0.6,0.3,1.2,0,1.3-0.8L57,31.5c0.1-0.8-0.3-1.7-0.9-2.1l-12.5-7.3c-0.6-0.4-1.2,0-1.3,0.8l-2.1,16.7
				C40.1,40.4,40.5,41.4,41.1,41.7z"/>
		</g>
	</g>
	<g>
		<g>
			<g>
				<path class="st20" d="M64.6,36.2l-1.9,14.5L75,57.9c0,0,0,0,0,0l1.9-14.5L64.6,36.2C64.6,36.2,64.6,36.2,64.6,36.2z"/>
			</g>
		</g>
		<g>
			<g>
				
					<linearGradient id="web2_SVGID_9_" gradientUnits="userSpaceOnUse" x1="67.9717" y1="157.5838" x2="73.0217" y2="157.5838" gradientTransform="matrix(1 0 0 -1 0 203.8878)">
					<stop  offset="8.000000e-08" style="stop-color:#5EACDF"/>
					<stop  offset="1" style="stop-color:#577EBF"/>
				</linearGradient>
				<polygon class="st38" points="68,49.8 73,48.5 68.8,42.8 				"/>
			</g>
		</g>
		<g>
			<g>
				<path class="st0" d="M61.3,51.7l-5.1-3c-0.4-0.2-0.7,0-0.8,0.5L55,53.6c0,0.3,0.1,0.6,0.4,0.8l5.1,3c0.4,0.2,0.7,0,0.8-0.5
					l0.5-4.3C61.7,52.2,61.6,51.9,61.3,51.7z"/>
			</g>
		</g>
		<g>
			<g>
				<g>
					<path class="st39" d="M65.1,61.4L45.7,50.1c-0.4-0.2-0.8,0-0.8,0.5l-2.1,16.3c-0.1,0.5,0.2,1.2,0.6,1.4l19.4,11.3
						c0.4,0.2,0.8,0,0.8-0.5l2.1-16.3C65.7,62.2,65.5,61.6,65.1,61.4z"/>
				</g>
			</g>
			<g>
				<g>
					<path class="st30" d="M64.8,61L46,50.1c-0.6-0.3-1.1,0-1.2,0.8l-0.2,1.7l20.8,12.1l0.2-1.7C65.7,62.2,65.3,61.3,64.8,61z"/>
				</g>
			</g>
			<g>
				<g>
					<path class="st0" d="M64.2,61.7c-0.2-0.1-0.4,0-0.4,0.3s0.1,0.6,0.3,0.7c0.2,0.1,0.4,0,0.4-0.3S64.4,61.8,64.2,61.7z"/>
				</g>
			</g>
			<g>
				<g>
					<path class="st0" d="M62.7,60.8c-0.2-0.1-0.4,0-0.4,0.3c0,0.3,0.1,0.6,0.3,0.7c0.2,0.1,0.4,0,0.4-0.3
						C63,61.2,62.8,60.9,62.7,60.8z"/>
				</g>
			</g>
			<g>
				<g>
					<path class="st0" d="M61.1,59.9c-0.2-0.1-0.4,0-0.4,0.3c0,0.3,0.1,0.6,0.3,0.7c0.2,0.1,0.4,0,0.4-0.3
						C61.4,60.3,61.3,60,61.1,59.9z"/>
				</g>
			</g>
		</g>
		<g>
			<g>
				
					<linearGradient id="web2_SVGID_10_" gradientUnits="userSpaceOnUse" x1="60.2649" y1="151.6538" x2="67.0081" y2="151.6538" gradientTransform="matrix(1 0 0 -1 0 203.8878)">
					<stop  offset="0" style="stop-color:#FFD55D"/>
					<stop  offset="1" style="stop-color:#F9A81F"/>
				</linearGradient>
				<path class="st40" d="M66.7,50.9l-5.1-3c-0.4-0.2-0.7,0-0.8,0.5l-0.5,4.3c0,0.3,0.1,0.6,0.4,0.8l5.1,3c0.4,0.2,0.7,0,0.8-0.5
					l0.5-4.3C67,51.4,66.9,51.1,66.7,50.9z"/>
			</g>
		</g>
		<g>
			<g>
				<path class="st0" d="M27.9,46.1l-1.2,9.4L39.5,63c0,0,0,0,0.1,0l1.2-9.4L27.9,46.1C28,46.1,27.9,46.1,27.9,46.1z"/>
			</g>
		</g>
		<g>
			<g>
				<g>
					<path class="st0" d="M52.6,32.2c-0.2-0.1-0.4,0-0.5,0.3c0,0.3,0.1,0.7,0.4,0.8c0.2,0.1,0.4,0,0.5-0.3
						C53,32.7,52.9,32.4,52.6,32.2z"/>
				</g>
			</g>
			<g>
				<g>
					<path class="st0" d="M56.5,34.5c-0.2-0.1-0.4,0-0.5,0.3c0,0.3,0.1,0.7,0.4,0.8c0.2,0.1,0.4,0,0.5-0.3
						C56.9,35,56.7,34.6,56.5,34.5z"/>
				</g>
			</g>
			<g>
				<g>
					<path class="st0" d="M60.4,36.7c-0.2-0.1-0.4,0-0.5,0.3c0,0.3,0.1,0.7,0.4,0.8c0.2,0.1,0.4,0,0.5-0.3
						C60.8,37.2,60.6,36.9,60.4,36.7z"/>
				</g>
			</g>
			<g>
				<g>
					<path class="st0" d="M52.1,36.6c-0.2-0.1-0.4,0-0.5,0.3c0,0.3,0.1,0.7,0.4,0.8c0.2,0.1,0.4,0,0.5-0.3
						C52.5,37.1,52.3,36.7,52.1,36.6z"/>
				</g>
			</g>
			<g>
				<g>
					<path class="st0" d="M56,38.8c-0.2-0.1-0.4,0-0.5,0.3c0,0.3,0.1,0.7,0.4,0.8c0.2,0.1,0.4,0,0.5-0.3C56.3,39.3,56.2,39,56,38.8z
						"/>
				</g>
			</g>
			<g>
				<g>
					<path class="st0" d="M59.8,41.1c-0.2-0.1-0.4,0-0.5,0.3c0,0.3,0.1,0.7,0.4,0.8c0.2,0.1,0.4,0,0.5-0.3
						C60.2,41.6,60.1,41.2,59.8,41.1z"/>
				</g>
			</g>
			<g>
				<g>
					<path class="st0" d="M51.5,40.9c-0.2-0.1-0.4,0-0.5,0.3c0,0.3,0.1,0.7,0.4,0.8c0.2,0.1,0.4,0,0.5-0.3
						C51.9,41.4,51.8,41,51.5,40.9z"/>
				</g>
			</g>
			<g>
				<g>
					<path class="st0" d="M55.4,43.2c-0.2-0.1-0.4,0-0.5,0.3c0,0.3,0.1,0.7,0.4,0.8c0.2,0.1,0.4,0,0.5-0.3
						C55.8,43.6,55.6,43.3,55.4,43.2z"/>
				</g>
			</g>
			<g>
				<g>
					<path class="st0" d="M59.3,45.4c-0.2-0.1-0.4,0-0.5,0.3c0,0.3,0.1,0.7,0.4,0.8c0.2,0.1,0.4,0,0.5-0.3
						C59.6,45.9,59.5,45.5,59.3,45.4z"/>
				</g>
			</g>
		</g>
		<g>
			<g>
				<g>
					<path class="st0" d="M43.7,63.7l-2.2-0.5c0,0-0.1,0,0,0.1l0.3,1c0,0,0,0.1,0,0.1l-0.9,0.4c0,0,0,0,0,0.1l0.1,0.4c0,0,0,0,0.1,0
						l0.9-0.4c0,0,0,0,0.1,0l0.3,1c0,0,0.1,0,0.1,0L43.7,63.7C43.7,63.7,43.7,63.7,43.7,63.7z"/>
				</g>
			</g>
		</g>
		<g>
			<g>
				<g>
					
						<linearGradient id="web2_SVGID_11_" gradientUnits="userSpaceOnUse" x1="83.6538" y1="153.621" x2="83.6538" y2="180.9378" gradientTransform="matrix(0.9914 -4.370000e-02 0.1311 -1.0145 -64.293 207.3846)">
						<stop  offset="0" style="stop-color:#FFD55D"/>
						<stop  offset="1" style="stop-color:#F9A81F"/>
					</linearGradient>
					<path class="st41" d="M48.1,27.9l-12.5-7.3c-0.6-0.4-1.2,0-1.3,0.8l-2.2,16.7c-0.1,0.8,0.3,1.7,0.9,2.1l12.5,7.3
						c0.6,0.3,1.2,0,1.3-0.8L49,29.9C49.1,29.2,48.7,28.2,48.1,27.9z"/>
				</g>
			</g>
			<g>
				<g>
					<polygon class="st0" points="37.6,32.3 43.6,35.8 43.6,35.7 37.6,32.2 					"/>
				</g>
			</g>
			<g>
				<g>
					<polygon class="st0" points="41,30 40,38 40.1,38 41.1,30 					"/>
				</g>
			</g>
			<g>
				<g>
					<path class="st0" d="M47.6,29l-11.9-6.9c-0.1-0.1-0.2-0.1-0.3,0c-0.1,0.1-0.2,0.2-0.2,0.3l-2.1,15.9c0,0.3,0.1,0.7,0.3,0.8
						l11.9,6.9c0.1,0.1,0.2,0.1,0.3,0c0.1-0.1,0.2-0.2,0.2-0.3L48,29.8C48,29.5,47.8,29.1,47.6,29z M45.8,45.6
						c0,0.1-0.1,0.2-0.1,0.3c-0.1,0-0.1,0-0.2,0l-11.9-6.9c-0.2-0.1-0.3-0.4-0.3-0.7l2.1-15.9c0-0.1,0.1-0.2,0.1-0.3
						c0.1,0,0.1,0,0.2,0l11.9,6.9c0.2,0.1,0.3,0.4,0.3,0.6L45.8,45.6z"/>
				</g>
			</g>
			<g>
				<g>
					<path class="st0" d="M41.7,32.9l-1.9-1.1c-0.1-0.1-0.3,0-0.3,0.2l-0.3,2.5c0,0.2,0.1,0.4,0.2,0.5l1.9,1.1
						c0.1,0.1,0.3,0,0.3-0.2l0.3-2.5C42,33.3,41.9,33,41.7,32.9z"/>
				</g>
			</g>
			<g>
				<g>
					<g>
						<path class="st42" d="M42.2,40.5l-1.6-6.9l-3,4.2c-0.9,1.3-1.1,3.3-0.6,5.3l0.4,1.5l1.6,0.9l0.2,0.1l1.6,0.9l0.7-0.9
							C42.3,44.5,42.7,42.5,42.2,40.5z M40.7,41.5c-0.1,0.8-0.6,1.1-1.2,0.8c-0.6-0.3-0.9-1.2-0.8-2c0.1-0.8,0.6-1.1,1.2-0.8
							C40.4,39.9,40.8,40.8,40.7,41.5z"/>
					</g>
				</g>
				<g>
					<g>
						<path class="st43" d="M40.4,46.3l-2.8-1.6c-0.1-0.1-0.2,0-0.2,0.1L37.3,46c0,0.1,0.1,0.3,0.2,0.4l2.8,1.6
							c0.1,0.1,0.2,0,0.2-0.1l0.1-1.2C40.6,46.5,40.5,46.3,40.4,46.3z"/>
					</g>
				</g>
			</g>
		</g>
		<g>
			<path class="st22" d="M51.2,68c-1.2-1.4-1.5-3.9-0.6-5.5c0.2-0.4,0.4-0.7,0.7-0.9c-0.6,0.2-1.1,0.6-1.5,1.3
				c-0.9,1.7-0.6,4.2,0.6,5.7c1.1,1.3,2.6,1.3,3.6,0C53.1,69.1,52,68.9,51.2,68z"/>
			
				<linearGradient id="web2_SVGID_12_" gradientUnits="userSpaceOnUse" x1="102.6337" y1="135.7718" x2="102.8754" y2="135.7718" gradientTransform="matrix(0.9914 -4.370000e-02 0.1311 -1.0145 -64.293 207.3846)">
				<stop  offset="0" style="stop-color:#D3D8EA"/>
				<stop  offset="1" style="stop-color:#808BC5"/>
			</linearGradient>
			<path class="st44" d="M55.3,64.6c0.1,0.3,0.1,0.7,0.1,1C55.4,65.3,55.4,65,55.3,64.6L55.3,64.6L55.3,64.6z"/>
			<polygon class="st45" points="54,69.6 54.1,70.1 55,69.6 54.9,69.1 			"/>
			
				<linearGradient id="web2_SVGID_13_" gradientUnits="userSpaceOnUse" x1="51.1142" y1="143.6388" x2="52.1442" y2="143.6388" gradientTransform="matrix(1 0 0 -1 0 203.8878)">
				<stop  offset="0" style="stop-color:#FFD55D"/>
				<stop  offset="1" style="stop-color:#F9A81F"/>
			</linearGradient>
			<polygon class="st46" points="51.1,60.3 51.3,60.7 52.1,60.2 52,59.8 			"/>
			<path class="st22" d="M55,68.2c-0.3,0.6-0.6,1.1-1,1.4l0.9-0.5c0.3-0.2,0.5-0.5,0.7-0.9l-0.3,0.2L55,68.2z"/>
			<path class="st22" d="M52.1,60.2l-0.9,0.5c0.5-0.1,0.9-0.1,1.4,0.1l0.1-0.4l0.3-0.2C52.8,60.1,52.5,60.1,52.1,60.2z"/>
			
				<linearGradient id="web2_SVGID_14_" gradientUnits="userSpaceOnUse" x1="103.0924" y1="133.487" x2="104.1432" y2="133.487" gradientTransform="matrix(0.9914 -4.370000e-02 0.1311 -1.0145 -64.293 207.3846)">
				<stop  offset="0" style="stop-color:#FFD55D"/>
				<stop  offset="1" style="stop-color:#F9A81F"/>
			</linearGradient>
			<polygon class="st47" points="55.3,68.4 55.6,68.3 56.2,67.9 56.6,66.4 55.7,66.9 			"/>
			<polygon class="st45" points="55.4,66.7 55.7,66.9 56.6,66.4 56.3,66.2 			"/>
			<polygon class="st45" points="53.8,61.5 54.7,61 54.8,60.6 53.9,61.1 			"/>
			<path class="st22" d="M55.6,64.5l-0.3,0.2l0,0c0.1,0.3,0.1,0.7,0.1,1c0,0.3,0,0.7-0.1,1l0.9-0.5c0.1-0.7,0.1-1.4-0.1-2.1
				L55.6,64.5z"/>
			<path class="st22" d="M54.7,61l-0.9,0.5c0.4,0.4,0.8,0.9,1.1,1.5l0.9-0.5C55.5,62,55.1,61.4,54.7,61z"/>
			
				<linearGradient id="web2_SVGID_15_" gradientUnits="userSpaceOnUse" x1="102.2251" y1="137.4616" x2="103.7593" y2="137.4616" gradientTransform="matrix(0.9914 -4.370000e-02 0.1311 -1.0145 -64.293 207.3846)">
				<stop  offset="0" style="stop-color:#FFD55D"/>
				<stop  offset="1" style="stop-color:#F9A81F"/>
			</linearGradient>
			<polygon class="st48" points="55.2,62.9 55.6,64.5 56.2,64.1 56.5,64 56,62.4 			"/>
			
				<linearGradient id="web2_SVGID_16_" gradientUnits="userSpaceOnUse" x1="48.4902" y1="138.4038" x2="55.6914" y2="138.4038" gradientTransform="matrix(1 0 0 -1 0 203.8878)">
				<stop  offset="0" style="stop-color:#FFD55D"/>
				<stop  offset="1" style="stop-color:#F9A81F"/>
			</linearGradient>
			<path class="st49" d="M55.4,64.6l0.3-0.1l-0.5-1.6L54.9,63c-0.2-0.5-0.5-0.9-0.8-1.3c-0.1-0.1-0.2-0.2-0.3-0.3l0.1-0.4l-1.1-0.7
				l-0.1,0.4c-0.5-0.2-1-0.2-1.5-0.1l-0.1-0.4l-1.1,0.6l0.1,0.4c-0.3,0.3-0.6,0.6-0.8,1.1c-0.1,0.1-0.1,0.2-0.2,0.4l-0.3-0.2
				L48.5,64l0.3,0.2c-0.1,0.7-0.1,1.4,0,2.1l-0.3,0.1l0.5,1.6l0.2-0.1c0.2,0.5,0.5,0.9,0.8,1.3c0.1,0.1,0.2,0.2,0.3,0.3l-0.1,0.4
				l1.1,0.7l0.1-0.4c0.5,0.2,1,0.2,1.5,0.1l0.1,0.4l1.1-0.6L54,69.7c0.3-0.3,0.6-0.6,0.8-1.1c0.1-0.1,0.1-0.2,0.2-0.4l0.3,0.2
				l0.4-1.5l-0.3-0.2C55.5,66,55.5,65.3,55.4,64.6z M54.3,68.1c-0.9,1.7-2.7,1.9-3.9,0.5c-1.2-1.4-1.5-4-0.6-5.7
				c0.9-1.7,2.7-1.9,3.9-0.5C55,63.8,55.3,66.4,54.3,68.1z"/>
			
				<linearGradient id="web2_SVGID_17_" gradientUnits="userSpaceOnUse" x1="99.5244" y1="140.4799" x2="101.5605" y2="140.4799" gradientTransform="matrix(0.9914 -4.370000e-02 0.1311 -1.0145 -64.293 207.3846)">
				<stop  offset="0" style="stop-color:#FFD55D"/>
				<stop  offset="1" style="stop-color:#F9A81F"/>
			</linearGradient>
			<polygon class="st50" points="53.1,60.2 52.8,60.4 53.9,61.1 54.8,60.6 53.7,59.9 			"/>
		</g>
	</g>
	<g>
		<g>
			<path class="st27" d="M55.4,74.7c-0.2,0.3-0.4,0.6-0.3,0.7c0.2,0.1,0.7-0.2,0.7-0.2c0.3,0.3-0.6,0.6-1,0.6
				c-0.5,0-1.6,3.2-1.6,3.2L52,78.5c0,0,1.6-2.5,1.7-3.2c0.1-0.3,0.2-0.7,0.7-0.9c0.1-0.1,0.7,0.3,0.8-0.2c0.1-0.4,0.3-0.7,0.4-0.7
				C55.7,73.5,55.6,74.3,55.4,74.7z"/>
			<path class="st0" d="M47.1,80c0,0.9,1,1,2.3,0.9c1.1-0.1,2.6-0.4,3.9-1.5c0.5-0.4-0.9-1.5-1.2-1.4c-0.4,0.1-1.2,0.4-2.6,0.6
				C47.9,78.8,47.1,79.2,47.1,80z"/>
		</g>
		<g>
			<g>
				<g>
					<path class="st51" d="M47.7,102.7c-0.2,0.2-0.4,1-0.2,1.2c0.1,0.1,0.2,0.2,0.3,0.2c1,0.4,2.5-0.9,2.7-1.1
						c0.2-0.2,0.5-0.6,0.3-0.9C50.8,101.9,48,102.5,47.7,102.7z"/>
					<path class="st52" d="M49.1,102c-0.4,0.1-1.3,0.7-1.5,0.8c-0.2,0.2-0.3,0.7-0.2,0.9c0.1,0.1,0.3,0.2,0.4,0.2
						c0.5,0.2,1.8-0.4,2.4-1c0.2-0.2,0.6-0.7,0.5-0.9C50.7,101.7,49.8,101.7,49.1,102z"/>
				</g>
				<path class="st51" d="M48.8,103.2c-0.1,0-0.1,0.1-0.1,0.2s0.1,0.2,0.1,0.2s0.1-0.1,0.1-0.2C49,103.2,48.9,103.2,48.8,103.2z"/>
				<path class="st51" d="M47.7,102.8c0,0-0.3,0.2-0.2,0.9c0,0,0.1,0.2,0.4,0.2c0,0,0-0.6,0.1-0.8l0.1-0.1l-0.3-0.4L47.7,102.8z"/>
			</g>
			<path class="st27" d="M47.8,102.4c0,0.2-0.1,0.3-0.1,0.5c0.1-0.1,0.2-0.1,0.3,0c0.1,0.1,0.1,0.2,0.1,0.3c0.2,0,0.5,0,0.7-0.1
				c0.6-0.3,0.7-0.6,0.6-0.7C49.3,101.8,48,102.4,47.8,102.4z"/>
		</g>
		<path class="st52" d="M47.3,94.8C47.2,95,47,96,47.1,97.2c0.1,1.2,0.4,5.1,0.4,5.1c1.2,0.5,1.8-0.1,1.8-0.1s0.4-5.4,0.5-7.1
			C49.8,93.4,47.5,94.2,47.3,94.8z"/>
		<path class="st52" d="M49.7,86.5c-0.9-0.8-1.8-0.6-2.1-0.4c-1.2,0.9-1.2,3-1.1,3.7c0.1,0.6,0.5,4.2,0.7,5.2
			c0.3,1.5,2.6,1.6,2.6,0.5C49.8,94.4,51.3,87.9,49.7,86.5z"/>
		<g>
			<g>
				<g>
					<path class="st51" d="M50.4,104c-0.2,0.2-0.4,1-0.2,1.2c0.1,0.1,0.2,0.2,0.3,0.2c1,0.4,2.5-0.9,2.7-1.1
						c0.2-0.2,0.5-0.6,0.3-0.9C53.4,103.1,50.6,103.8,50.4,104z"/>
					<path class="st52" d="M51.8,103.2c-0.4,0.1-1.3,0.7-1.5,0.8c-0.2,0.2-0.3,0.7-0.2,0.9c0.1,0.1,0.3,0.2,0.4,0.2
						c0.5,0.2,1.8-0.4,2.4-1c0.2-0.2,0.6-0.7,0.5-0.9C53.3,103,52.4,103,51.8,103.2z"/>
				</g>
				<path class="st51" d="M51.4,104.4c-0.1,0-0.1,0.1-0.1,0.2s0.1,0.2,0.1,0.2s0.1-0.1,0.1-0.2C51.6,104.5,51.5,104.4,51.4,104.4z"
					/>
				<path class="st51" d="M50.3,104.1c0,0-0.3,0.2-0.2,0.9c0,0,0.1,0.2,0.4,0.2c0,0,0-0.6,0.1-0.8l0.1-0.1l-0.3-0.4L50.3,104.1z"/>
			</g>
			<path class="st27" d="M50.4,103.6c0,0.2-0.1,0.3-0.1,0.5c0.1-0.1,0.2-0.1,0.3,0c0.1,0.1,0.1,0.2,0.1,0.3c0.2,0,0.5,0,0.7-0.1
				c0.6-0.3,0.7-0.6,0.6-0.7C51.9,103.1,50.6,103.7,50.4,103.6z"/>
		</g>
		<path class="st30" d="M49.7,96c-0.1,0.2-0.2,1.4-0.1,2.6s0.4,5.3,0.4,5.3c1.2,0.5,1.8-0.4,1.8-0.4s0.4-5.3,0.4-7
			C52.4,94.7,50,95.4,49.7,96z"/>
		<path class="st30" d="M52.1,87.5c-0.9-0.7-2-0.1-2.3,0.1c-1.2,0.9-1,2.1-0.9,2.8c0.1,0.6,0.7,5.1,0.9,6.1c0.3,1.5,2.6,1.6,2.6,0.5
			C52.3,95.8,53.3,88.5,52.1,87.5z"/>
		
			<linearGradient id="web2_SVGID_18_" gradientUnits="userSpaceOnUse" x1="-926.3059" y1="119.8147" x2="-919.9659" y2="119.8147" gradientTransform="matrix(-1 0 0 -1 -873.5342 203.8878)">
			<stop  offset="8.000000e-08" style="stop-color:#5EACDF"/>
			<stop  offset="1" style="stop-color:#577EBF"/>
		</linearGradient>
		<path class="st53" d="M52.6,81.4c0-2-3.1-2.7-4-2.7c-1.9,0-2,2.4-1.7,4.1c0.3,1.7-0.5,5.7-0.5,5.7c1.4,1.6,6.3,0.5,6.3,0.5
			C52.3,87,52.6,83.2,52.6,81.4z"/>
		<path class="st27" d="M51.7,75.9c0-0.2-0.3-0.1-0.5-0.2c-0.2-0.2-0.4-0.2-0.7-0.2c-0.2,0-0.4,0-0.6,0.1c-0.1,0.1-0.2,0.2-0.3,0.4
			c-0.5,1-0.3,1.8-0.4,2.8c0.3,0.2,1.2,0.5,1.5,0.5c0.1,0-0.4-0.5-0.3-1c0.4,0.1,0.7-0.4,1.1-1.1c0.1-0.2,0.1-0.5,0-0.7
			C51.5,76.2,51.7,76.2,51.7,75.9z"/>
		<path class="st31" d="M50.8,74.7c0-0.6-1.2-0.6-1.1,0.1c-0.6-0.1-1.4,0.4-1.1,1.2c-0.3,0.6,0.3,1.2,0.4,1.6c0,0.1,0.2,0.4,0.2,0.4
			s0.8,0.2,1.1,0c0.4-0.2,0.5-0.7,0.6-1.1c0.1-0.7,0.5-0.3,0.5-0.9c0.3-0.1,0.4,0.2,0.4,0.2C52.3,75.1,51.4,74.4,50.8,74.7z"/>
		<path class="st0" d="M50.6,78.7c-0.8-0.4-1.1-0.4-1.4-0.5c-0.1,0-0.2,0.1-0.3,0.1l-0.2,0.3l2.3,0.7C51.1,79.1,50.8,78.8,50.6,78.7
			z"/>
		<g>
			<path class="st27" d="M55.7,87.6c-0.3-0.2-0.5-0.2-0.4-0.3c0.1-0.2,0.5-0.4,0.5-0.5c0-0.2-0.4,0-0.7,0.2c-0.1,0.1-0.5,0.1-0.6,0
				c-0.8-0.3-2.9-2-2.9-2l-0.8,1.1c0,0,3,1.6,3.5,2.1c0.2,0.2,0.6,0.7,0.7,0.7c0.1-0.1,0.7-0.3,0.8-0.4s-0.2-0.8,0.1-0.3
				c0.3,0.4,0.7,0.6,0.6,0.4C56.3,88.4,56,87.8,55.7,87.6z"/>
			<path class="st0" d="M51.5,80c-0.9-0.2-1.3,0.7-1.5,2c-0.2,1.1-0.3,2.6,0.4,4.2c0.3,0.6,1.7-0.4,1.7-0.8c0-0.4-0.1-1.3,0.1-2.6
				C52.5,81.1,52.3,80.2,51.5,80z"/>
		</g>
	</g>
</g>
</svg>
