<?xml version="1.0" encoding="utf-8"?>
<!-- Generator: Adobe Illustrator 25.1.0, SVG Export Plug-In . SVG Version: 6.00 Build 0)  -->
<svg version="1.1" id="Layer_1" xmlns="http://www.w3.org/2000/svg" xmlns:xlink="http://www.w3.org/1999/xlink" x="0px" y="0px"
	 viewBox="0 0 21 22.2" style="enable-background:new 0 0 21 22.2;" xml:space="preserve">
<style type="text/css">
	.st0{fill:#FFFFFF;}
	.st1{fill:#F7F7FA;}
	.st2{fill:#F4F4F4;}
	.st3{fill:#F2F0F0;}
	.st4{fill:#ECECED;}
	.st5{fill:#E9E8E9;}
	.st6{fill:#E7E5E6;}
	.st7{fill:#E1E1E3;}
	.st8{fill:#DDDDDF;}
	.st9{fill:#DCDADC;}
	.st10{fill:#D6D7D9;}
	.st11{fill:#D4D4D6;}
	.st12{fill:#D1D2D3;}
	.st13{fill:#CACBD0;}
	.st14{fill:#C9C9CD;}
	.st15{fill:#C5C6CA;}
	.st16{fill:#C4C3C7;}
	.st17{fill:#C4C5D0;}
	.st18{fill:url(#SVGID_1_);}
	.st19{fill:url(#SVGID_2_);}
	.st20{fill:#F1EFF3;}
</style>
<g>
	<g>
		<path class="st0" d="M20,14.6L9.8,8.7C9.5,8.5,9.2,8.4,8.9,8.4S8.2,8.5,8,8.7l-7,4.1c-0.6,0.4-1,1-1,1.7s0.4,1.4,1,1.7L11.2,22
			c0.3,0.2,0.6,0.2,0.9,0.2s0.7-0.1,0.9-0.3l7-4.1c0.6-0.4,1-1,1-1.7C21,15.6,20.6,14.9,20,14.6z"/>
		<path class="st1" d="M8,8.8l-7,4.1c-0.2,0.1-0.4,0.3-0.6,0.5C0.1,13.7,0,14.2,0,14.6c0,0.7,0.5,1.4,1,1.7L11.1,22
			c0.2,0.1,0.4,0.2,0.6,0.2c0.1,0,0.2,0,0.3,0c0.3,0,0.7-0.1,0.9-0.3l6.9-4c0.2-0.1,0.4-0.3,0.5-0.4c0.3-0.4,0.5-0.8,0.4-1.3
			c0-0.7-0.4-1.4-1-1.7L9.6,8.7C9.3,8.6,9,8.4,8.7,8.4c-0.1,0-0.2,0-0.3,0C8.4,8.6,8.2,8.7,8,8.8z"/>
		<path class="st2" d="M8,8.9L1,13c-0.2,0.1-0.5,0.3-0.6,0.5c-0.3,0.3-0.4,0.8-0.3,1.2c0,0.6,0.5,1.3,1.1,1.6l10,5.7
			c0.2,0.1,0.4,0.2,0.6,0.2c0.1,0,0.2,0,0.3,0c0.3,0,0.7-0.1,0.9-0.3l6.9-4c0.2-0.1,0.4-0.3,0.5-0.4c0.3-0.3,0.5-0.8,0.4-1.3
			c0-0.6-0.5-1.3-1-1.6L9.9,8.9C9.6,8.8,9.3,8.6,9,8.6c-0.1,0-0.2,0-0.3,0C8.4,8.7,8.2,8.8,8,8.9z"/>
		<path class="st3" d="M8,9l-6.9,4.1c-0.2,0.1-0.5,0.3-0.6,0.5c-0.3,0.3-0.4,0.8-0.3,1.2c0,0.6,0.6,1.3,1.1,1.6l9.9,5.6
			c0.2,0.1,0.4,0.2,0.6,0.2c0.1,0,0.2,0,0.3,0c0.3,0,0.7-0.1,0.9-0.3l6.8-3.9c0.2-0.1,0.4-0.3,0.5-0.4c0.3-0.3,0.5-0.8,0.4-1.3
			c0-0.6-0.6-1.3-1.1-1.6L9.8,9.1C9.6,9,9.2,8.8,8.9,8.8c-0.1,0-0.2,0-0.3,0S8.3,8.8,8,9z"/>
		<path class="st4" d="M8.1,9l-6.9,4.1c-0.2,0.1-0.5,0.3-0.6,0.5c-0.3,0.3-0.4,0.8-0.3,1.1c0,0.5,0.7,1.3,1.1,1.5l9.8,5.6
			c0.2,0.1,0.4,0.2,0.6,0.2c0.1,0,0.2,0,0.3,0c0.2,0,0.7-0.2,0.9-0.3l6.7-3.9c0.1-0.1,0.4-0.3,0.5-0.4c0.3-0.3,0.4-0.8,0.4-1.2
			c0-0.5-0.6-1.2-1.1-1.5L9.8,9.2C9.6,9.1,9.2,8.9,8.9,8.9c-0.1,0-0.2,0-0.3,0C8.5,8.9,8.3,8.9,8.1,9z"/>
		<path class="st5" d="M8.1,9.1l-6.8,4c-0.2,0.1-0.5,0.3-0.6,0.5c-0.3,0.3-0.4,0.8-0.3,1.1c0,0.5,0.8,1.2,1.2,1.5l9.8,5.5
			c0.2,0.1,0.4,0.1,0.6,0.1c0.1,0,0.2,0,0.3,0c0.2,0,0.7-0.2,0.8-0.3l6.6-3.8c0.1-0.1,0.4-0.3,0.5-0.4c0.3-0.3,0.4-0.8,0.3-1.2
			c0-0.5-0.7-1.2-1.1-1.4L9.9,9.3C9.7,9.2,9.3,9,9.1,9C9,9,8.9,9,8.8,9C8.5,9,8.3,9,8.1,9.1z"/>
		<path class="st6" d="M8.2,9.2l-6.8,4c-0.2,0.1-0.5,0.3-0.6,0.5c-0.3,0.3-0.4,0.8-0.2,1.1c0,0.4,0.8,1.2,1.2,1.4l9.7,5.4
			c0.2,0.1,0.4,0.1,0.6,0.1c0.1,0,0.2,0,0.3,0c0.2,0,0.7-0.2,0.8-0.3l6.6-3.8c0.1-0.1,0.4-0.3,0.5-0.4c0.3-0.3,0.4-0.8,0.3-1.2
			c0-0.4-0.8-1.2-1.1-1.4l-9.4-5.4C9.9,9.1,9.5,8.9,9.3,8.9c-0.1,0-0.2,0-0.3,0C8.6,9,8.4,9.1,8.2,9.2z"/>
		<path class="st7" d="M8.2,9.3l-6.8,4c-0.1,0.1-0.5,0.3-0.6,0.5c-0.3,0.3-0.4,0.8-0.2,1.1c0,0.4,0.9,1.1,1.2,1.4l9.6,5.4
			c0.2,0.1,0.4,0.1,0.6,0.1c0.1,0,0.2,0,0.2,0c0.2,0,0.7-0.2,0.8-0.3l6.5-3.7c0.1-0.1,0.4-0.3,0.5-0.4c0.3-0.3,0.4-0.8,0.3-1.2
			c0-0.4-0.8-1.1-1.2-1.3L9.9,9.6C9.7,9.5,9.3,9.3,9.1,9.3c-0.1,0-0.2-0.1-0.3,0C8.6,9.1,8.4,9.2,8.2,9.3z"/>
		<path class="st8" d="M8.3,9.3l-6.7,4c-0.1,0.1-0.5,0.4-0.6,0.4c-0.3,0.3-0.4,0.8-0.2,1.1c0,0.4,1,1.1,1.3,1.3l9.5,5.3
			c0.2,0.1,0.4,0.1,0.6,0.1c0.1,0,0.2,0,0.2,0c0.2,0,0.7-0.2,0.8-0.3l6.4-3.7c0.1-0.1,0.4-0.3,0.5-0.3c0.3-0.3,0.4-0.8,0.2-1.1
			c0-0.4-0.9-1.1-1.2-1.3L10,9.6C9.9,9.5,9.4,9.3,9.2,9.3C9.1,9.3,9,9.2,8.9,9.2C8.7,9.2,8.4,9.2,8.3,9.3z"/>
		<path class="st9" d="M8.3,9.4l-6.7,3.9c-0.1,0.1-0.5,0.4-0.6,0.4c-0.3,0.3-0.4,0.8-0.2,1.1c0,0.3,1,1.1,1.3,1.2l9.4,5.3
			c0.2,0.1,0.4,0.1,0.6,0.1l0.2-0.1c0.1,0,0.7-0.3,0.8-0.3l6.3-3.6c0.1-0.1,0.4-0.3,0.5-0.3c0.3-0.3,0.4-0.8,0.2-1.1
			c0-0.3-0.9-1.1-1.2-1.2l-9-5.1C9.8,9.6,9.3,9.4,9.1,9.4L8.9,9.3C8.7,9.3,8.5,9.3,8.3,9.4z"/>
		<path class="st10" d="M8.4,9.5l-6.6,3.9c-0.1,0.1-0.6,0.4-0.6,0.4c-0.3,0.3-0.4,0.8-0.1,1.1c0,0.3,1.1,1.1,1.3,1.2l9.3,5.2
			c0.2,0.1,0.4,0.1,0.6,0.1l0.2-0.1c0.1,0,0.7-0.3,0.8-0.3l6.2-3.6c0.1,0,0.4-0.3,0.5-0.3c0.3-0.3,0.4-0.8,0.2-1.1
			c0-0.3-1-1-1.2-1.1l-8.8-5.1c-0.1-0.1-0.6-0.3-0.8-0.3L9.2,9.4C8.7,9.4,8.5,9.4,8.4,9.5z"/>
		<path class="st11" d="M8.4,9.6l-6.6,3.9c-0.1,0-0.6,0.4-0.6,0.4c-0.3,0.3-0.4,0.8-0.1,1c0,0.2,1.2,1,1.4,1.1l9.2,5.2
			c0.2,0.1,0.4,0.1,0.6,0.1l0.2-0.1c0.1,0,0.7-0.3,0.7-0.3l6.2-3.5c0.1,0,0.4-0.3,0.5-0.3c0.3-0.3,0.4-0.8,0.2-1.1
			c0-0.2-1.1-1-1.3-1.1l-8.7-5C10,9.8,9.5,9.6,9.4,9.6L9.2,9.5C8.8,9.5,8.6,9.5,8.4,9.6z"/>
		<path class="st12" d="M8.4,9.7l-6.6,3.9c-0.1,0-0.6,0.4-0.6,0.4c-0.3,0.2-0.4,0.8-0.1,1c0,0.2,1.3,1,1.4,1.1l9.1,5.1
			c0.2,0.1,0.4,0.1,0.5,0.1l0.2-0.1c0.1,0,0.7-0.3,0.7-0.3l6.1-3.5c0.1,0,0.4-0.3,0.5-0.3c0.3-0.3,0.4-0.8,0.1-1.1
			c0-0.2-1.1-0.9-1.3-1l-8.5-4.9c-0.1,0-0.6-0.3-0.7-0.3L9,9.7C8.8,9.5,8.6,9.6,8.4,9.7z"/>
		<path class="st13" d="M8.5,9.7L2,13.5l-0.6,0.4c-0.3,0.2-0.4,0.8-0.1,1c0,0.1,1.3,1,1.4,1l9,5.1c0.2,0.1,0.4,0.1,0.5,0l0.2-0.1
			c0.1,0,0.7-0.3,0.7-0.4l6-3.4c0,0,0.4-0.3,0.5-0.3c0.3-0.2,0.4-0.8,0.1-1c0-0.1-1.2-0.9-1.3-1L10,10c-0.1,0-0.6-0.4-0.7-0.4
			L9.1,9.5C8.9,9.6,8.7,9.6,8.5,9.7z"/>
		<path class="st14" d="M8.5,9.8L2,13.6L1.4,14c-0.3,0.2-0.4,0.8,0,1c0,0.1,1.4,0.9,1.5,1l8.9,5c0.2,0.1,0.4,0.1,0.5,0l0.2-0.1
			c0,0,0.7-0.3,0.7-0.4l5.9-3.4c0,0,0.4-0.3,0.5-0.3c0.4-0.2,0.4-0.8,0.1-1c0-0.1-1.3-0.9-1.3-0.9l-8.3-4.7c0,0-0.6-0.4-0.7-0.4
			L9.2,9.7C8.9,9.7,8.7,9.7,8.5,9.8z"/>
		<path class="st15" d="M8.6,9.9l-6.4,3.8l-0.6,0.4c-0.3,0.2-0.4,0.8,0,1L3.1,16l8.8,4.9c0.2,0.1,0.4,0.1,0.5,0l0.2-0.1l0.7-0.4
			l5.8-3.4c0,0,0.4-0.3,0.5-0.3c0.4-0.2,0.4-0.8,0-1c0,0-1.3-0.8-1.4-0.9l-8.1-4.6c0,0-0.6-0.4-0.7-0.4L9.2,9.7
			C8.9,9.8,8.7,9.8,8.6,9.9z"/>
		<path class="st16" d="M9.1,10c-0.2-0.1-0.4-0.1-0.5,0l-7,4.1c-0.4,0.2-0.4,0.8,0,1l10.2,5.8c0.2,0.1,0.3,0.1,0.5,0l7-4.1
			c0.4-0.2,0.4-0.8,0-1L9.1,10z"/>
	</g>
	<path class="st17" d="M19.4,6.9l-7,4.1c-0.2,0.1-0.3,0.1-0.5,0L1.7,5.2C1.4,5,1.4,4.7,1.5,4.4C1.4,4.5,1.3,4.6,1.3,4.8v9.6
		c0,0.3,0.2,0.6,0.4,0.7l10,5.7c0.2,0.1,0.5,0.1,0.7,0l7-4c0.2-0.1,0.4-0.4,0.4-0.7V6.6c0-0.2-0.1-0.4-0.2-0.6
		C19.8,6.3,19.7,6.8,19.4,6.9z"/>
	
		<linearGradient id="SVGID_1_" gradientUnits="userSpaceOnUse" x1="-3.929901e-02" y1="1305.0625" x2="21.0774" y2="1305.0625" gradientTransform="matrix(1 0 0 1 0 -1294)">
		<stop  offset="0" style="stop-color:#F47625"/>
		<stop  offset="1" style="stop-color:#F8A921"/>
	</linearGradient>
	<path class="st18" d="M12,13.4L1.2,7.3v1.4L12,14.8c0.2,0.1,0.4,0.1,0.6,0l7.1-4.1V9.3l-7.1,4.1C12.4,13.5,12.2,13.5,12,13.4z"/>
	
		<linearGradient id="SVGID_2_" gradientUnits="userSpaceOnUse" x1="-3.929901e-02" y1="1308.6625" x2="21.0774" y2="1308.6625" gradientTransform="matrix(1 0 0 1 0 -1294)">
		<stop  offset="0" style="stop-color:#F47625"/>
		<stop  offset="1" style="stop-color:#F8A921"/>
	</linearGradient>
	<path class="st19" d="M12,17L1.3,10.9v1.4l10.8,6.1c0.2,0.1,0.4,0.1,0.6,0l7.1-4.1v-1.4L12.7,17C12.4,17,12.2,17,12,17z"/>
	<path class="st20" d="M9.2,0.1C9,0,8.8,0,8.7,0.1l-7,4.1c-0.4,0.2-0.4,0.8,0,1L11.9,11c0.2,0.1,0.3,0.1,0.5,0l7-4.1
		c0.4-0.2,0.4-0.8,0-1L9.2,0.1z"/>
</g>
</svg>
