<?xml version="1.0" encoding="utf-8"?>
<!-- Generator: Adobe Illustrator 25.1.0, SVG Export Plug-In . SVG Version: 6.00 Build 0)  -->
<svg version="1.1" id="Layer_1" xmlns="http://www.w3.org/2000/svg" xmlns:xlink="http://www.w3.org/1999/xlink" x="0px" y="0px"
	 viewBox="0 0 21 22.4" style="enable-background:new 0 0 21 22.4;" xml:space="preserve">
<style type="text/css">
	.st0{fill:#FFFFFF;}
	.st1{fill:#F8F7F9;}
	.st2{fill:#F4F4F4;}
	.st3{fill:#F1F0F0;}
	.st4{fill:#ECECED;}
	.st5{fill:#E9E8E9;}
	.st6{fill:#E6E4E6;}
	.st7{fill:#E1E1E3;}
	.st8{fill:#DDDDDF;}
	.st9{fill:#DBDADC;}
	.st10{fill:#D6D7D9;}
	.st11{fill:#D4D3D6;}
	.st12{fill:#D0D1D3;}
	.st13{fill:#CBCCD0;}
	.st14{fill:#C9C9CD;}
	.st15{fill:#C5C6CA;}
	.st16{fill:#C3C3C7;}
	.st17{fill:#C4C5D0;}
	.st18{fill:url(#SVGID_1_);}
	.st19{fill:url(#SVGID_2_);}
	.st20{fill:#F1EFF3;}
	.st21{fill:#212121;}
	.st22{fill:#545454;}
</style>
<path class="st0" d="M8.9,22.4c0.3,0,0.6-0.1,0.9-0.2L20,16.4c0.6-0.3,1-1,1-1.7c0-0.8-0.4-1.5-1-1.8l-7-4.1
	c-0.3-0.2-0.6-0.3-0.9-0.3s-0.6,0.1-0.9,0.3L1,14.6c-0.6,0.4-1,1-1,1.7s0.4,1.4,1,1.7l7,4.1C8.3,22.3,8.6,22.4,8.9,22.4"/>
<path class="st1" d="M11.1,8.8L1,14.6c-0.6,0.3-1,1-1,1.7c0,0.4,0.1,0.8,0.4,1.2C0.6,17.7,0.8,17.9,1,18l7,4
	c0.2,0.1,0.4,0.2,0.6,0.2c0.1,0,0.2,0,0.3,0c0.3,0,0.6-0.1,0.9-0.3l10.1-5.7c0.6-0.3,1-1,1-1.7c0-0.5-0.1-0.9-0.4-1.3
	c-0.1-0.2-0.3-0.3-0.5-0.4l-7-4.1c-0.3-0.2-0.6-0.3-0.9-0.3c-0.1,0-0.2,0-0.3,0C11.5,8.6,11.3,8.7,11.1,8.8z"/>
<path class="st2" d="M11.2,8.9l-10,5.7c-0.5,0.3-1.1,1-1.1,1.6C0,16.6,0.2,17,0.4,17.4c0.1,0.2,0.4,0.4,0.6,0.5l6.9,4
	c0.2,0.1,0.4,0.2,0.6,0.2c0.1,0,0.2,0,0.3,0c0.3,0,0.6-0.1,0.9-0.3l9.9-5.6c0.5-0.3,1.1-1,1.1-1.6c0.1-0.5-0.1-0.9-0.4-1.3
	c-0.1-0.1-0.3-0.3-0.5-0.4l-6.9-4c-0.3-0.2-0.6-0.3-0.9-0.3c-0.1,0-0.2,0-0.3,0C11.6,8.7,11.4,8.8,11.2,8.9z"/>
<path class="st3" d="M11.2,8.9l-9.9,5.7c-0.5,0.3-1.1,1-1.1,1.6c-0.1,0.4,0,0.8,0.3,1.2c0.1,0.2,0.4,0.4,0.6,0.5l6.9,4
	c0.2,0.1,0.4,0.2,0.6,0.2c0.1,0,0.2,0,0.3,0c0.3,0,0.6-0.1,0.9-0.3l9.8-5.5c0.5-0.3,1.1-1,1.1-1.6c0.1-0.4-0.1-0.9-0.4-1.3
	c-0.1-0.1-0.3-0.3-0.5-0.4L13,9c-0.2-0.1-0.6-0.3-0.9-0.3c-0.1,0-0.2,0-0.3,0C11.6,8.8,11.4,8.9,11.2,8.9z"/>
<path class="st4" d="M11.2,9l-9.8,5.6c-0.5,0.3-1.1,1-1.1,1.5c-0.1,0.4,0,0.8,0.3,1.1c0.1,0.2,0.4,0.4,0.6,0.5l6.9,4
	c0.2,0.1,0.4,0.2,0.6,0.2c0.1,0,0.2,0,0.3,0c0.2,0,0.6-0.2,0.8-0.3l9.7-5.4c0.5-0.3,1.1-0.9,1.1-1.5c0.1-0.4,0-0.9-0.3-1.2
	c-0.1-0.1-0.3-0.3-0.5-0.4l-6.7-3.9c-0.2-0.1-0.6-0.3-0.9-0.3c-0.1,0-0.2,0-0.3,0C11.6,8.9,11.4,8.9,11.2,9z"/>
<path class="st5" d="M11.3,9.1l-9.8,5.6c-0.4,0.2-1.2,1-1.2,1.5c-0.1,0.4,0,0.8,0.3,1.1c0.1,0.2,0.4,0.4,0.6,0.5L8,21.7
	c0.2,0.1,0.4,0.2,0.6,0.2c0.1,0,0.2,0,0.3,0c0.2,0,0.6-0.2,0.8-0.3l9.5-5.4c0.4-0.2,1.1-0.9,1.1-1.4c0.1-0.4,0-0.9-0.3-1.2
	c-0.1-0.1-0.3-0.3-0.5-0.4l-6.6-3.9C12.7,9.2,12.3,9,12,9c-0.1,0-0.2,0-0.3,0C11.7,8.9,11.5,9,11.3,9.1z"/>
<path class="st6" d="M11.3,9.2l-9.7,5.5c-0.4,0.2-1.2,1-1.2,1.4c-0.1,0.3-0.1,0.8,0.2,1.1c0.1,0.1,0.5,0.4,0.6,0.5L8,21.6
	c0.2,0.1,0.4,0.2,0.6,0.1c0.1,0,0.2,0,0.2,0c0.2,0,0.6-0.2,0.8-0.3l9.4-5.3c0.4-0.2,1.2-0.9,1.2-1.4c0.1-0.4,0-0.9-0.3-1.2
	c-0.1-0.1-0.3-0.3-0.5-0.4l-6.5-3.8C12.7,9.2,12.3,9,12.1,9c-0.1,0-0.2,0-0.3,0S11.5,9.1,11.3,9.2z"/>
<path class="st7" d="M11.4,9.3l-9.6,5.4c-0.3,0.2-1.2,1-1.2,1.4c-0.2,0.3-0.1,0.8,0.2,1.1c0.1,0.1,0.5,0.4,0.6,0.5l6.8,3.9
	c0.2,0.1,0.4,0.2,0.6,0.1c0.1,0,0.2,0,0.2,0c0.2,0,0.6-0.2,0.8-0.3l9.3-5.2c0.3-0.2,1.2-0.9,1.2-1.3c0.2-0.4,0.1-0.9-0.3-1.2
	c-0.1-0.1-0.4-0.3-0.5-0.3L13,9.6c-0.2-0.1-0.6-0.3-0.8-0.3c-0.1,0-0.2,0-0.3,0C11.8,9.1,11.6,9.2,11.4,9.3z"/>
<path class="st8" d="M11.4,9.4l-9.5,5.4c-0.3,0.2-1.3,0.9-1.3,1.3c-0.2,0.3-0.1,0.8,0.2,1.1c0.1,0.1,0.5,0.4,0.6,0.4l6.7,3.9
	c0.2,0.1,0.4,0.1,0.6,0.1c0.1,0,0.2,0,0.2,0c0.2,0,0.6-0.2,0.8-0.3l9.1-5.1c0.3-0.2,1.2-0.9,1.2-1.3c0.2-0.3,0.1-0.8-0.2-1.1
	c-0.1-0.1-0.4-0.3-0.5-0.3l-6.4-3.8c-0.1-0.1-0.7-0.3-0.8-0.3s-0.2-0.1-0.3,0C11.8,9.2,11.6,9.2,11.4,9.4z"/>
<path class="st9" d="M11.5,9.4l-9.4,5.4c-0.3,0.1-1.3,0.9-1.3,1.2c-0.2,0.3-0.1,0.8,0.2,1.1c0.1,0.1,0.5,0.4,0.6,0.4l6.7,3.8
	c0.2,0.1,0.4,0.1,0.6,0.1h0.2c0.1,0,0.6-0.2,0.8-0.3l9-5.1c0.3-0.2,1.2-0.9,1.2-1.2c0.2-0.3,0.1-0.8-0.2-1.1
	c-0.1-0.1-0.4-0.3-0.5-0.3l-6.3-3.7c-0.1-0.1-0.7-0.3-0.8-0.3c0,0-0.2-0.1-0.3-0.1C11.8,9.3,11.6,9.3,11.5,9.4z"/>
<path class="st10" d="M11.5,9.5l-9.3,5.3C2,14.9,0.9,15.7,0.9,16c-0.2,0.3-0.2,0.8,0.1,1.1c0.1,0.1,0.5,0.4,0.6,0.4l6.6,3.8
	c0.2,0.1,0.4,0.1,0.6,0.1L9,21.3c0.1,0,0.6-0.3,0.7-0.3l8.8-5c0.2-0.1,1.3-0.9,1.3-1.2c0.2-0.3,0.2-0.8-0.2-1.1
	c-0.1-0.1-0.4-0.3-0.4-0.3L13,9.7c-0.1-0.1-0.7-0.3-0.8-0.3L12,9.3C11.9,9.4,11.7,9.4,11.5,9.5z"/>
<path class="st11" d="M11.6,9.6l-9.2,5.3C2.2,15,1,15.8,1,16c-0.3,0.3-0.2,0.8,0.1,1c0.1,0.1,0.6,0.4,0.6,0.4l6.6,3.8
	c0.2,0.1,0.4,0.1,0.6,0.1l0.2-0.1c0.1,0,0.6-0.3,0.7-0.3l8.7-4.9c0.2-0.1,1.3-0.9,1.3-1.1c0.3-0.3,0.2-0.8-0.1-1.1l-0.4-0.3
	l-6.1-3.6c-0.1,0-0.7-0.4-0.8-0.4l-0.2-0.1C11.9,9.5,11.7,9.5,11.6,9.6z"/>
<path class="st12" d="M11.6,9.7l-9.1,5.2C2.3,15,1.1,15.8,1.1,16c-0.3,0.3-0.2,0.8,0.1,1c0,0.1,0.6,0.4,0.6,0.4l6.6,3.8
	c0.2,0.1,0.4,0.1,0.5,0.1l0.2-0.1c0.1,0,0.6-0.3,0.7-0.3l8.6-4.8c0.2-0.1,1.3-0.8,1.3-1c0.3-0.3,0.2-0.8-0.1-1.1l-0.4-0.3l-6-3.6
	c-0.1,0-0.7-0.4-0.8-0.4l-0.2-0.1C12,9.5,11.8,9.6,11.6,9.7z"/>
<path class="st13" d="M11.6,9.7l-9,5.1c-0.1,0.1-1.4,0.9-1.4,1c-0.3,0.3-0.3,0.8,0.1,1l0.6,0.4L8.4,21c0.2,0.1,0.4,0.1,0.5,0
	l0.2-0.1c0.1,0,0.6-0.3,0.7-0.3l8.4-4.8c0.1-0.1,1.3-0.8,1.3-1c0.3-0.3,0.3-0.8-0.1-1L19,13.5L13,10c-0.1,0-0.7-0.4-0.7-0.4
	l-0.2-0.1C12,9.6,11.8,9.6,11.6,9.7z"/>
<path class="st14" d="M11.7,9.8l-8.9,5.1c-0.1,0-1.5,0.9-1.5,1c-0.3,0.2-0.3,0.8,0.1,1L2,17.3L8.5,21c0.2,0.1,0.4,0.1,0.5,0l0.2-0.1
	c0,0,0.6-0.3,0.7-0.3l8.3-4.7c0.1,0,1.4-0.8,1.4-0.9c0.3-0.2,0.3-0.8-0.1-1l-0.4-0.3l-5.9-3.5l-0.7-0.4l-0.2-0.1
	C12,9.7,11.8,9.7,11.7,9.8z"/>
<path class="st15" d="M11.7,9.9l-8.8,5l-1.5,0.9c-0.3,0.2-0.3,0.8,0,1L2,17.2l6.4,3.7c0.2,0.1,0.4,0.1,0.5,0l0.2-0.1l0.6-0.3
	l8.2-4.6c0,0,1.4-0.8,1.4-0.9c0.3-0.2,0.3-0.8,0-1l-0.4-0.3l-5.8-3.4l-0.7-0.4l-0.2-0.1C12.1,9.8,11.9,9.8,11.7,9.9z"/>
<path class="st16" d="M12.3,10c-0.2-0.1-0.4-0.1-0.5,0L1.6,15.8c-0.4,0.2-0.4,0.8,0,1l7,4.1c0.2,0.1,0.3,0.1,0.5,0l10.2-5.8
	c0.4-0.2,0.4-0.7,0-1L12.3,10z"/>
<path class="st17" d="M19.3,5.2L9.1,11c-0.2,0.1-0.3,0.1-0.5,0l-7-4C1.3,6.8,1.2,6.4,1.5,6.2C1.3,6.3,1.3,6.5,1.3,6.8v9.5
	c0,0.3,0.2,0.6,0.4,0.7l7,4c0.2,0.1,0.5,0.1,0.7,0l10-5.7c0.3-0.1,0.4-0.4,0.4-0.7V4.9c0-0.2-0.1-0.3-0.2-0.4
	C19.6,4.7,19.6,5.1,19.3,5.2z"/>
<linearGradient id="SVGID_1_" gradientUnits="userSpaceOnUse" x1="1.13" y1="1458.5172" x2="19.63" y2="1458.5172" gradientTransform="matrix(1 0 0 1 0 -1447.4297)">
	<stop  offset="0" style="stop-color:#212121"/>
	<stop  offset="1" style="stop-color:#545454"/>
</linearGradient>
<path class="st18" d="M8.3,13.4L1.2,9.3v1.4l7.1,4.1c0.2,0.1,0.4,0.1,0.6,0l10.8-6.1V7.3L8.8,13.4C8.7,13.5,8.5,13.5,8.3,13.4z"/>
<linearGradient id="SVGID_2_" gradientUnits="userSpaceOnUse" x1="1.13" y1="1462.1172" x2="19.63" y2="1462.1172" gradientTransform="matrix(1 0 0 1 0 -1447.4297)">
	<stop  offset="0" style="stop-color:#212121"/>
	<stop  offset="1" style="stop-color:#545454"/>
</linearGradient>
<path class="st19" d="M8.3,17l-7.1-4.1v1.4l7.1,4.1c0.2,0.1,0.4,0.1,0.6,0l10.8-6.1v-1.4L8.8,17C8.7,17.1,8.5,17.1,8.3,17z"/>
<path class="st20" d="M12.2,0.1C12,0,11.8,0,11.7,0.1L1.5,5.9c-0.4,0.2-0.4,0.8,0,1l7,4C8.7,11,8.8,11,9,10.9l10.2-5.8
	c0.4-0.2,0.4-0.7,0-1L12.2,0.1z"/>
<polygon class="st21" points="5.8,6.2 9.2,8.2 15,4.9 11.6,2.9 "/>
<polygon class="st22" points="11.6,2.9 11.6,6.9 15,4.9 "/>
</svg>
