<svg id="Layer_1" data-name="Layer 1" xmlns="http://www.w3.org/2000/svg" xmlns:xlink="http://www.w3.org/1999/xlink" viewBox="0 0 80.7 169.18"><defs><linearGradient id="linear-gradient" x1="-758.17" y1="1097.2" x2="-740.65" y2="1097.2" gradientTransform="matrix(-1, 0, 0, 1, -677.85, -1070.01)" gradientUnits="userSpaceOnUse"><stop offset="0" stop-color="#5faadd"/><stop offset="1" stop-color="#567fc0"/></linearGradient><linearGradient id="linear-gradient-2" x1="-758.17" y1="1100.6" x2="-740.65" y2="1100.6" xlink:href="#linear-gradient"/><linearGradient id="linear-gradient-3" x1="5.3" y1="1206.16" x2="44.26" y2="1206.16" gradientTransform="translate(0 -1070.01)" xlink:href="#linear-gradient"/><linearGradient id="linear-gradient-4" x1="22.62" y1="1202.26" x2="25.43" y2="1202.26" gradientTransform="translate(-0.9 -1086.83)" gradientUnits="userSpaceOnUse"><stop offset="0" stop-color="#ffd45d"/><stop offset="1" stop-color="#f8a81f"/></linearGradient><linearGradient id="linear-gradient-5" x1="20.69" y1="1206.16" x2="27.51" y2="1206.16" xlink:href="#linear-gradient-4"/><linearGradient id="linear-gradient-6" x1="13.92" y1="1208.61" x2="27.14" y2="1208.61" gradientTransform="translate(0 -1070.01)" gradientUnits="userSpaceOnUse"><stop offset="0" stop-color="#f15f60"/><stop offset="1" stop-color="#c6302f"/></linearGradient><linearGradient id="linear-gradient-7" x1="-2248.88" y1="1224.87" x2="-2242.88" y2="1224.87" gradientTransform="matrix(-1, 0, 0, 1, -2230.51, -1070.01)" xlink:href="#linear-gradient"/></defs><path d="M62.5,28.9,69.2,25A2.13,2.13,0,0,1,71,25l9.7,5.5a1.75,1.75,0,0,1,.9,1.7,2.23,2.23,0,0,1-.9,1.7L74,37.7a2.13,2.13,0,0,1-1.8,0l-9.7-5.4a1.75,1.75,0,0,1-.9-1.7A1.77,1.77,0,0,1,62.5,28.9Z" transform="translate(-0.9 -16.82)" fill="#fff"/><path d="M69.1,25a1.42,1.42,0,0,1,.6-.2H70a2.92,2.92,0,0,1,.9.2l9.6,5.5a1.7,1.7,0,0,1,.9,1.6,1.59,1.59,0,0,1-.4,1.2,2.18,2.18,0,0,1-.5.4l-6.6,3.8a2.39,2.39,0,0,1-.9.2h-.3a1.42,1.42,0,0,1-.6-.2l-9.6-5.4a1.7,1.7,0,0,1-.9-1.6,2,2,0,0,1,.3-1.1,1,1,0,0,1,.6-.5Z" transform="translate(-0.9 -16.82)" fill="#f9fbfc"/><path d="M69.2,25.1a1.42,1.42,0,0,1,.6-.2h.3a2.92,2.92,0,0,1,.9.2l9.5,5.4a1.89,1.89,0,0,1,.9,1.6,1.75,1.75,0,0,1-.4,1.2,2.18,2.18,0,0,1-.5.4L74,37.5a2.39,2.39,0,0,1-.9.2h-.3a1.42,1.42,0,0,1-.6-.2l-9.6-5.4a2,2,0,0,1-1-1.6,2,2,0,0,1,.3-1.1,1.47,1.47,0,0,1,.6-.5Z" transform="translate(-0.9 -16.82)" fill="#f6f6f6"/><path d="M69.2,25.1a1.42,1.42,0,0,1,.6-.2h.3a2.92,2.92,0,0,1,.9.2l9.4,5.4a2,2,0,0,1,1,1.5,1.75,1.75,0,0,1-.4,1.2,2.18,2.18,0,0,1-.5.4L74,37.3a2.39,2.39,0,0,1-.9.2h-.3a1.42,1.42,0,0,1-.6-.2L62.7,32a2,2,0,0,1-1-1.5,1.43,1.43,0,0,1,.3-1.1,1.47,1.47,0,0,1,.6-.5Z" transform="translate(-0.9 -16.82)" fill="#f3f2f3"/><path d="M69.2,25.2a1.42,1.42,0,0,1,.6-.2H70a3.71,3.71,0,0,1,.9.2l9.3,5.3a2,2,0,0,1,1,1.5,1.75,1.75,0,0,1-.4,1.2,2.18,2.18,0,0,1-.5.4l-6.4,3.7a2.39,2.39,0,0,1-.9.2h-.3a.73.73,0,0,1-.6-.2L62.7,32a2,2,0,0,1-1-1.5,1.43,1.43,0,0,1,.3-1.1,1.47,1.47,0,0,1,.6-.5Z" transform="translate(-0.9 -16.82)" fill="#f1f0f1"/><path d="M69.2,25.3a1.42,1.42,0,0,1,.6-.2H70a2.35,2.35,0,0,1,.8.2L80,30.6a1.82,1.82,0,0,1,1,1.5,1.15,1.15,0,0,1-.4,1.2,2.18,2.18,0,0,1-.5.4l-6.4,3.7a2.39,2.39,0,0,1-.9.3h-.2a1.27,1.27,0,0,1-.6-.1l-9.4-5.3a1.82,1.82,0,0,1-1-1.5,1.13,1.13,0,0,1,.3-1.1,3.17,3.17,0,0,1,.6-.5Z" transform="translate(-0.9 -16.82)" fill="#edeced"/><path d="M69.3,25.3c.2-.1.4-.1.6-.2h.2a1.33,1.33,0,0,1,.8.3L80,30.6A2.07,2.07,0,0,1,81,32a1.31,1.31,0,0,1-.3,1.2,2.18,2.18,0,0,1-.5.4l-6.3,3.6a2.61,2.61,0,0,1-.8.3h-.2a1.27,1.27,0,0,1-.6-.1L63,32.1c-.4-.2-1.1-.9-1.1-1.4a1.13,1.13,0,0,1,.3-1.1,3.17,3.17,0,0,1,.6-.5Z" transform="translate(-0.9 -16.82)" fill="#ebe9ea"/><path d="M69.3,25.4a1.27,1.27,0,0,1,.6-.1h.2a1.33,1.33,0,0,1,.8.3l9,5.2a2.07,2.07,0,0,1,1,1.4,1.07,1.07,0,0,1-.3,1.1.85.85,0,0,1-.5.3l-6.3,3.6a2.61,2.61,0,0,1-.8.3h-.2a1.27,1.27,0,0,1-.6-.1L63,32.2c-.4-.2-1.1-.9-1.1-1.4a1.16,1.16,0,0,1,.2-1,3.17,3.17,0,0,1,.6-.5Z" transform="translate(-0.9 -16.82)" fill="#e9e7e8"/><path d="M69.3,25.4a1.27,1.27,0,0,1,.6-.1h.2a2.61,2.61,0,0,1,.8.3l8.9,5.1c.4.2,1.1.9,1.1,1.3a1.07,1.07,0,0,1-.3,1.1.85.85,0,0,1-.5.3L73.9,37a2.61,2.61,0,0,1-.8.3h-.2a1.27,1.27,0,0,1-.6-.1L63.1,32c-.4-.2-1.1-.9-1.1-1.4a1.16,1.16,0,0,1,.2-1,3.17,3.17,0,0,1,.6-.5Z" transform="translate(-0.9 -16.82)" fill="#e8e5e5"/><path d="M69.4,25.5a1.27,1.27,0,0,1,.6-.1h.2a2.61,2.61,0,0,1,.8.3l8.9,5.1c.3.2,1.1.9,1.1,1.3a1.07,1.07,0,0,1-.3,1.1.85.85,0,0,1-.5.3L74,37a2.61,2.61,0,0,1-.8.3H73a.75.75,0,0,1-.5-.1L63.4,32c-.3-.2-1.1-.9-1.1-1.3a1.16,1.16,0,0,1,.2-1,3.17,3.17,0,0,1,.6-.5Z" transform="translate(-0.9 -16.82)" fill="#e5e3e4"/><path d="M69.4,25.5a1.27,1.27,0,0,1,.6-.1h.2a2.61,2.61,0,0,1,.8.3l8.8,5c.3.2,1.1.9,1.1,1.3a1.47,1.47,0,0,1-.2,1.1.85.85,0,0,1-.5.3l-6.1,3.5a1.91,1.91,0,0,1-.8.3h-.2a.75.75,0,0,1-.5-.1L63.5,32c-.3-.2-1.2-.9-1.2-1.3a.92.92,0,0,1,.2-1c.1-.1.4-.4.6-.4Z" transform="translate(-0.9 -16.82)" fill="#e1e0e2"/><path d="M69.4,25.6a1.27,1.27,0,0,1,.6-.1h.2a4.12,4.12,0,0,1,.8.3l8.7,5c.3.2,1.1.9,1.1,1.2a.94.94,0,0,1-.2,1.1c0,.1-.4.3-.5.3L74,36.9a1.91,1.91,0,0,1-.8.3H73a.75.75,0,0,1-.5-.1l-9-5.1c-.3-.2-1.2-.9-1.2-1.2a.78.78,0,0,1,.2-1,2.09,2.09,0,0,1,.6-.4Z" transform="translate(-0.9 -16.82)" fill="#e0dee0"/><path d="M69.5,25.6a1.27,1.27,0,0,1,.6-.1h.2a4.12,4.12,0,0,1,.8.3l8.6,4.9c.3.1,1.1.9,1.1,1.2a.94.94,0,0,1-.2,1.1c0,.1-.4.3-.5.3l-6,3.5a1.91,1.91,0,0,1-.8.3h-.2a.75.75,0,0,1-.5-.1l-8.9-5c-.3-.1-1.2-.9-1.2-1.2a.78.78,0,0,1,.2-1c0-.1.5-.4.6-.4Z" transform="translate(-0.9 -16.82)" fill="#dcdcdd"/><path d="M69.5,25.7a1.09,1.09,0,0,1,.5-.1h.2a2.12,2.12,0,0,1,.7.3l8.5,4.9c.2.1,1.2.9,1.2,1.1a.78.78,0,0,1-.2,1,2.19,2.19,0,0,1-.5.3l-6,3.4a6.89,6.89,0,0,1-.8.3h-.2a.75.75,0,0,1-.5-.1l-8.9-5c-.2-.1-1.2-.9-1.2-1.2a.9.9,0,0,1,.1-1c0-.1.5-.4.6-.4Z" transform="translate(-0.9 -16.82)" fill="#dbdadb"/><path d="M69.5,25.7a1.09,1.09,0,0,1,.5-.1h.2a2.12,2.12,0,0,1,.7.3l8.4,4.8c.2.1,1.2.9,1.2,1.1a.78.78,0,0,1-.2,1,2.19,2.19,0,0,1-.5.3l-5.9,3.4c-.1,0-.6.3-.7.3H73a.75.75,0,0,1-.5-.1l-8.8-5c-.2-.1-1.2-.9-1.2-1.1a.76.76,0,0,1,.1-1c0-.1.5-.4.6-.4Z" transform="translate(-0.9 -16.82)" fill="#d6d7d8"/><path d="M69.5,25.8a1.09,1.09,0,0,1,.5-.1h.2a2.12,2.12,0,0,1,.7.3l8.3,4.7c.2.1,1.2.9,1.2,1.1a.76.76,0,0,1-.1,1s-.4.2-.4.3l-5.8,3.4c-.1,0-.6.3-.7.3h-.7L64,31.9c-.2-.1-1.3-.9-1.3-1.1a.76.76,0,0,1,.1-1,3.11,3.11,0,0,1,.6-.4Z" transform="translate(-0.9 -16.82)" fill="#d4d5d7"/><path d="M69.6,25.8a.45.45,0,0,1,.5,0h.2c.1,0,.6.3.7.3l8.2,4.7c.2.1,1.2.8,1.2,1a.76.76,0,0,1-.1,1s-.4.2-.4.3l-5.8,3.3c-.1,0-.6.3-.7.3s-.2.1-.2,0h-.5L64,31.8c-.2-.1-1.3-.9-1.3-1.1a.77.77,0,0,1,.1-1,3.11,3.11,0,0,1,.6-.4Z" transform="translate(-0.9 -16.82)" fill="#d3d2d4"/><path d="M69.6,25.9a.45.45,0,0,1,.5,0h.2c.1,0,.6.3.7.3l8.1,4.6c.1.1,1.2.8,1.2,1a.76.76,0,0,1-.1,1s-.4.2-.4.3l-5.7,3.3a4.88,4.88,0,0,1-.7.3l-.2.1h-.5l-8.6-4.9a14.7,14.7,0,0,1-1.3-1,.64.64,0,0,1,.1-.9,3.11,3.11,0,0,1,.6-.4Z" transform="translate(-0.9 -16.82)" fill="#d1d1d3"/><path d="M69.6,25.9a.45.45,0,0,1,.5,0h.2a4.88,4.88,0,0,0,.7.3l8,4.6a5.38,5.38,0,0,1,1.2.9c.3.2.2.8-.1,1,0,0-.4.2-.4.3L74,36.3a4.88,4.88,0,0,1-.7.3l-.2.1h-.5l-8.5-4.8a6.42,6.42,0,0,1-1.3-1c-.3-.2-.2-.7,0-.9a3.11,3.11,0,0,1,.6-.4Z" transform="translate(-0.9 -16.82)" fill="#cecfd0"/><path d="M69.7,26a.45.45,0,0,1,.5,0l.2.1a4.88,4.88,0,0,0,.7.3l8,4.5a6,6,0,0,1,1.3.9.56.56,0,0,1-.1.9s-.4.2-.4.3l-5.6,3.2a4.88,4.88,0,0,1-.7.3l-.2.1h-.5l-8.5-4.8c-.1,0-1.4-.9-1.4-.9a.56.56,0,0,1,0-.9l.6-.4Z" transform="translate(-0.9 -16.82)" fill="#c9cbce"/><path d="M69.7,26a.45.45,0,0,1,.5,0l.2.1a4.88,4.88,0,0,0,.7.3L79,30.9a6,6,0,0,1,1.3.9.56.56,0,0,1,0,.9s-.4.2-.4.3l-5.6,3.2a4.88,4.88,0,0,1-.7.3l-.2.1h-.5l-8.4-4.7c-.1,0-1.4-.9-1.4-.9a.56.56,0,0,1,0-.9l.6-.4Z" transform="translate(-0.9 -16.82)" fill="#c8c7ca"/><path d="M69.7,26.1a.45.45,0,0,1,.5,0l.2.1.6.3,7.8,4.4a10.14,10.14,0,0,1,1.3.9.56.56,0,0,1,0,.9l-.4.2-5.5,3.2a4.35,4.35,0,0,1-.7.4l-.2.1c-.1.1-.3,0-.5,0l-8.3-4.7L63.1,31a.56.56,0,0,1,0-.9s.6-.3.6-.4Z" transform="translate(-0.9 -16.82)" fill="#c5c6ca"/><path d="M69.7,26.1a.45.45,0,0,1,.5,0l.2.1.6.3,7.7,4.4,1.3.8a.56.56,0,0,1,0,.9l-.4.2-5.4,3.1a4.35,4.35,0,0,1-.7.4l-.2.1a.45.45,0,0,1-.5,0l-8.3-4.7-1.4-.9a.56.56,0,0,1,0-.9s.6-.3.6-.4Z" transform="translate(-0.9 -16.82)" fill="#c4c4c8"/><path d="M69.8,26.2a.45.45,0,0,1,.5,0L80,31.7a.56.56,0,0,1,0,.9l-6.7,3.8a.45.45,0,0,1-.5,0L63.1,31a.56.56,0,0,1,0-.9Z" transform="translate(-0.9 -16.82)" fill="#c3c2c5"/><path d="M63.1,21.7l9.7,5.4a.45.45,0,0,0,.5,0L80,23.3a.53.53,0,0,0,.1-.8.76.76,0,0,1,.2.5v8.9a.75.75,0,0,1-.4.7l-6.6,3.8a.85.85,0,0,1-.7,0l-9.5-5.3a.84.84,0,0,1-.4-.7V21.3a.52.52,0,0,1,.2-.4A.78.78,0,0,0,63.1,21.7Z" transform="translate(-0.9 -16.82)" fill="#c2c3cf"/><path d="M73.5,29.4l6.8-3.9v1.3l-6.8,3.9a.64.64,0,0,1-.6,0L62.7,24.9V23.6l10.2,5.8Q73.35,29.55,73.5,29.4Z" transform="translate(-0.9 -16.82)" fill="url(#linear-gradient)"/><path d="M73.5,32.8l6.8-3.9v1.3l-6.8,3.9a.64.64,0,0,1-.6,0L62.7,28.3V27l10.2,5.8Q73.35,33,73.5,32.8Z" transform="translate(-0.9 -16.82)" fill="url(#linear-gradient-2)"/><path d="M69.8,16.9a.45.45,0,0,1,.5,0L80,22.4a.56.56,0,0,1,0,.9l-6.7,3.8a.45.45,0,0,1-.5,0l-9.7-5.4a.56.56,0,0,1,0-.9Z" transform="translate(-0.9 -16.82)" fill="#f0eef1"/><polygon points="75 5.78 71.8 7.67 66.3 4.58 69.5 2.67 75 5.78" fill="#ffd45d"/><polygon points="69.5 2.67 69.5 6.38 66.3 4.58 69.5 2.67" fill="#f8a81f"/><path d="M48.8,128.8,7.2,105.2a1.89,1.89,0,0,0-2.9,1.7l.8,36a1.39,1.39,0,0,0,.7,1.2l40.9,24.3a1.9,1.9,0,0,0,2.7-1.8V130.2A1.45,1.45,0,0,0,48.8,128.8Z" transform="translate(-0.9 -16.82)" fill="#c2c3cf"/><path d="M48,129.4,6.5,105.7a1.45,1.45,0,0,0-2.2,1.2v36.4a1.39,1.39,0,0,0,.7,1.2l41.5,23.7a1.45,1.45,0,0,0,2.2-1.2V130.6A1.39,1.39,0,0,0,48,129.4Z" transform="translate(-0.9 -16.82)" fill="#e5e4e7"/><path d="M44.3,128.9v36.2a.57.57,0,0,1-.8.5L5.6,143.9a.55.55,0,0,1-.3-.5V107.2a.57.57,0,0,1,.8-.5L44,128.4A.55.55,0,0,1,44.3,128.9Z" transform="translate(-0.9 -16.82)" fill="url(#linear-gradient-3)"/><path d="M6.1,106.8l34.6,19.7L5.6,143.9a.55.55,0,0,1-.3-.5V107.2A.57.57,0,0,1,6.1,106.8Z" transform="translate(-0.9 -16.82)" fill="#fff" opacity="0.25" style="isolation:isolate"/><polygon points="10.7 102.78 7.4 100.88 7.4 101.38 10.7 103.28 10.7 102.78" fill="#fff"/><polygon points="11.2 103.08 11.2 103.58 14 105.17 14 104.78 11.2 103.08" fill="#fff"/><polygon points="9.2 103.08 7.4 101.97 7.4 102.47 9.2 103.47 9.2 103.08" fill="#fff"/><polygon points="11.6 104.47 11.6 104.97 14 106.38 14 105.78 11.6 104.47" fill="#fff"/><polygon points="11.3 104.17 9.4 103.17 9.4 103.67 11.3 104.78 11.3 104.17" fill="#fff"/><polygon points="9.2 100.78 7.4 99.78 7.4 100.28 9.2 101.28 9.2 100.78" fill="#fff"/><polygon points="11.6 102.17 11.6 102.67 14 104.08 14 103.58 11.6 102.17" fill="#fff"/><polygon points="11.3 101.97 9.4 100.97 9.4 101.38 11.3 102.47 11.3 101.97" fill="#fff"/><polygon points="14 100.28 7.4 96.38 7.4 96.88 14 100.78 14 100.28" fill="#fff"/><polygon points="9.6 98.78 7.4 97.58 7.4 97.97 9.6 99.28 9.6 98.78" fill="#fff"/><polygon points="10.4 99.28 10.4 99.78 14 101.88 14 101.38 10.4 99.28" fill="#fff"/><polygon points="14 102.47 7.4 98.67 7.4 99.17 14 102.97 14 102.47" fill="#fff"/><path d="M15.5,134.7c.1,0,.3-.1.4-.1a2.5,2.5,0,0,1,1.8.4c.1,0,.2.1.3.2a2.82,2.82,0,0,1,1-2.1h-.3a1.08,1.08,0,0,0-.8.2Z" transform="translate(-0.9 -16.82)" fill="#f0eef1"/><path d="M31.3,141.9l-1.5.9c.1,0,.2.1.3.1a6.64,6.64,0,0,1,3,5.3,2,2,0,0,1-.9,2l1.6-.9h0a2.19,2.19,0,0,0,.9-1.9,7.08,7.08,0,0,0-3-5.3C31.5,141.9,31.4,141.9,31.3,141.9Z" transform="translate(-0.9 -16.82)" fill="#f0eef1"/><path d="M20.8,132.2l-1.5.8h0a2.15,2.15,0,0,1,1.6-.1,3.08,3.08,0,0,1,1.2.5,7.61,7.61,0,0,1,3.1,3.5l1.6-.9a8.91,8.91,0,0,0-3.1-3.5c-1.1-.7-1.1-1.3-1.8-.9h0Z" transform="translate(-0.9 -16.82)" fill="#f0eef1"/><path d="M25.3,136.8a2.8,2.8,0,0,1,1.7.3c.1,0,.2.1.4.2a6.19,6.19,0,0,1,2.4,4.6,1.48,1.48,0,0,1-.1.7l1.5-.9c0-.2.1-.5.1-.7a6.06,6.06,0,0,0-2.8-4.8,1.83,1.83,0,0,0-1.7-.3Z" transform="translate(-0.9 -16.82)" fill="#f0eef1"/><path d="M18.4,143.1c2.2,1.3,10.4,6,11.9,6.8a3.91,3.91,0,0,0,1.1.3c3.1-.1,1.6-6-1.5-7.5-.2-.1,0-.3,0-.6a6.28,6.28,0,0,0-.3-1.9c-.6-1.7-2.3-3.9-4.2-3.5a8.37,8.37,0,0,0-3.5-3.7c-1.7-.9-3.5-.3-3.7,2.1a3.36,3.36,0,0,0-2.2-.7C13,135.1,14.5,141.3,18.4,143.1Z" transform="translate(-0.9 -16.82)" fill="#c2c3cf"/><polygon points="24.5 112.88 24.5 119.58 21.7 117.97 21.7 111.28 24.5 112.88" fill="url(#linear-gradient-4)"/><polygon points="19.8 115.78 23.2 122.88 26.6 119.78 19.8 115.78" fill="url(#linear-gradient-5)"/><path d="M23.7,136.6c3.3,3.4,3.4,9.9,3.4,9.9l-9.8-5.9s-.1-6.5-3.4-9.9Z" transform="translate(-0.9 -16.82)" fill="url(#linear-gradient-6)"/><path d="M13.7,138a9.18,9.18,0,0,0,1.7,2.7,9.64,9.64,0,0,0,2.5,2.1s12.6,7.1,12.7,7.2.2.1.3.1a1.85,1.85,0,0,0,.7.2c.7.1.9-.4.6-1.3a6.89,6.89,0,0,1-.3-.8,8,8,0,0,0-.9-1.4.22.22,0,0,0-.2-.2,8,8,0,0,0-2.3-1.9c-.1,0-.1-.1-.2-.1l-.3-.1v-.2a1.09,1.09,0,0,0-.1-.5,6.75,6.75,0,0,0-1.4-2.2,7.41,7.41,0,0,0-1.3-1.2c-.1-.1-.3-.2-.4-.3s-.2-.1-.3-.2a6.89,6.89,0,0,0-1-.4H23l-.2-.2a10.8,10.8,0,0,0-3.5-3,3.55,3.55,0,0,0-.9-.4h-.2c-.2,0-.3-.1-.5-.1h-.6a.84.84,0,0,0-.4.7,2,2,0,0,0,.1.7l.1.6-.3-.2-.3-.2c-.1,0-.2-.1-.3-.2s-.2-.1-.3-.2a1.9,1.9,0,0,0-.9-.3h-.2C13.5,136.5,13.4,137,13.7,138Z" transform="translate(-0.9 -16.82)" fill="#f0eef1"/><path d="M2.1,174.5l12.8-7.3a2.61,2.61,0,0,1,1.1-.3,2.66,2.66,0,0,1,1.2.3l12.8,7a2.4,2.4,0,0,1,1.2,2.2,2.44,2.44,0,0,1-1.2,2.1l-12.8,7.2a2.28,2.28,0,0,1-1.1.3,2.66,2.66,0,0,1-1.2-.3L2.1,178.9a2.25,2.25,0,0,1-1.2-2.1A2.79,2.79,0,0,1,2.1,174.5Z" transform="translate(-0.9 -16.82)" fill="#fff"/><path d="M15,167.3a1.88,1.88,0,0,1,.8-.2h.4a2.38,2.38,0,0,1,1.2.3l12.7,6.9a3.74,3.74,0,0,1,.7.6,2.2,2.2,0,0,1,.5,1.6,2.33,2.33,0,0,1-1.3,2.1l-12.7,7.1a2.28,2.28,0,0,1-1.1.3h-.4a1.14,1.14,0,0,1-.8-.3L2.3,178.9a2.7,2.7,0,0,1-.8-.7,1.91,1.91,0,0,1-.4-1.5,2.33,2.33,0,0,1,1.3-2.1Z" transform="translate(-0.9 -16.82)" fill="#f9fbfc"/><path d="M15,167.3a1.88,1.88,0,0,1,.8-.2h.4a1.8,1.8,0,0,1,1.1.3l12.6,6.9a3.74,3.74,0,0,1,.7.6,2.2,2.2,0,0,1,.5,1.6,2.37,2.37,0,0,1-1.3,2l-12.5,7.1a2.28,2.28,0,0,1-1.1.3h-.3a1.88,1.88,0,0,1-.8-.2L2.5,178.9a1.78,1.78,0,0,1-.8-.7,1.79,1.79,0,0,1-.4-1.4,2.67,2.67,0,0,1,1.3-2.1Z" transform="translate(-0.9 -16.82)" fill="#f6f6f6"/><path d="M15,167.4a1.88,1.88,0,0,1,.8-.2h.4a1.8,1.8,0,0,1,1.1.3l12.5,6.8a3.74,3.74,0,0,1,.7.6,2.2,2.2,0,0,1,.5,1.6,2.77,2.77,0,0,1-1.3,2l-12.4,7a2.28,2.28,0,0,1-1.1.3h-.3a2.35,2.35,0,0,1-.8-.2L2.5,178.8a1.78,1.78,0,0,1-.8-.7,1.79,1.79,0,0,1-.4-1.4,2.59,2.59,0,0,1,1.3-2Z" transform="translate(-0.9 -16.82)" fill="#f3f2f3"/><path d="M15.1,167.5a1.85,1.85,0,0,1,.7-.2h.4a2.1,2.1,0,0,1,1.1.4l12.5,6.8c.2.1.5.4.7.5a1.67,1.67,0,0,1,.4,1.5,2.42,2.42,0,0,1-1.3,1.9l-12.3,6.9a4.51,4.51,0,0,1-1.1.3h-.3a2.35,2.35,0,0,1-.8-.2L2.5,178.7a2.51,2.51,0,0,1-.8-.7,1.79,1.79,0,0,1-.4-1.4,2.62,2.62,0,0,1,1.4-2Z" transform="translate(-0.9 -16.82)" fill="#f1f0f1"/><path d="M15.1,167.6a1.85,1.85,0,0,1,.7-.2h.4a2.1,2.1,0,0,1,1.1.4l12.4,6.7c.2.1.5.4.7.5a1.67,1.67,0,0,1,.4,1.5,2.71,2.71,0,0,1-1.4,1.9l-12.2,6.9a4.51,4.51,0,0,1-1.1.3h-.3a2.35,2.35,0,0,1-.8-.2L2.5,178.7a2.51,2.51,0,0,1-.8-.7,1.79,1.79,0,0,1-.4-1.4,2.71,2.71,0,0,1,1.4-1.9Z" transform="translate(-0.9 -16.82)" fill="#edeced"/><path d="M15.2,167.6a1.85,1.85,0,0,1,.7-.2h.4a2.1,2.1,0,0,1,1.1.4l12.3,6.7c.2.1.5.4.7.5a1.67,1.67,0,0,1,.4,1.5,2.54,2.54,0,0,1-1.4,1.8l-12.1,6.8a5.39,5.39,0,0,1-1,.3H16a2.35,2.35,0,0,1-.8-.2L2.7,178.5c-.2-.1-.7-.4-.8-.7a1.44,1.44,0,0,1-.3-1.4c0-.7.9-1.6,1.4-1.9Z" transform="translate(-0.9 -16.82)" fill="#ebe9ea"/><path d="M15.2,167.7a1.85,1.85,0,0,1,.7-.2h.4a2.1,2.1,0,0,1,1.1.4l12.2,6.6c.2.1.5.4.7.5a1.67,1.67,0,0,1,.4,1.5c0,.6-.9,1.5-1.4,1.8L17.2,185a3.81,3.81,0,0,1-1,.3h-.3a1.34,1.34,0,0,1-.8-.2L2.7,178.5a2.41,2.41,0,0,1-.8-.6,1.44,1.44,0,0,1-.3-1.4,2.69,2.69,0,0,1,1.5-1.8Z" transform="translate(-0.9 -16.82)" fill="#e9e7e8"/><path d="M15.2,167.8a1.85,1.85,0,0,1,.7-.2h.4a2.1,2.1,0,0,1,1.1.4l12.1,6.6a4.23,4.23,0,0,1,.7.5,1.4,1.4,0,0,1,.3,1.5c0,.6-.9,1.5-1.4,1.8L17.2,185a4.18,4.18,0,0,1-1,.4h-.3a1.34,1.34,0,0,1-.8-.2L2.7,178.4a2.41,2.41,0,0,1-.8-.6,1.44,1.44,0,0,1-.3-1.4c0-.6,1-1.5,1.5-1.8Z" transform="translate(-0.9 -16.82)" fill="#e8e5e5"/><path d="M15.2,167.8a1.85,1.85,0,0,1,.7-.2h.4a4.87,4.87,0,0,1,1.1.4l12,6.6c.1.1.6.4.7.5a1.27,1.27,0,0,1,.3,1.4c0,.6-1,1.4-1.5,1.7l-11.7,6.6a4.18,4.18,0,0,1-1,.4h-.3a1.34,1.34,0,0,1-.8-.2L2.7,178.4a2.41,2.41,0,0,1-.8-.6,1.24,1.24,0,0,1-.3-1.4c0-.6,1-1.5,1.5-1.8Z" transform="translate(-0.9 -16.82)" fill="#e5e3e4"/><path d="M15.3,167.9a.88.88,0,0,1,.7-.1h.4a4.87,4.87,0,0,1,1.1.4l11.9,6.5c.1.1.6.4.7.5a1.27,1.27,0,0,1,.3,1.4c0,.5-1,1.4-1.5,1.7l-11.5,6.5a4.18,4.18,0,0,1-1,.4h-.3a2.49,2.49,0,0,1-.8-.1L2.9,178.5a2.41,2.41,0,0,1-.8-.6,1.2,1.2,0,0,1-.3-1.4c0-.5,1.1-1.5,1.5-1.7Z" transform="translate(-0.9 -16.82)" fill="#e1e0e2"/><path d="M15.3,167.9a.88.88,0,0,1,.7-.1h.4a3,3,0,0,1,1,.4l11.8,6.5c.1.1.6.4.7.5a1.24,1.24,0,0,1,.3,1.4c0,.5-1.1,1.4-1.5,1.6l-11.5,6.4a4.18,4.18,0,0,1-1,.4h-.3a1.7,1.7,0,0,1-.7-.1L2.8,178.3c-.1-.1-.7-.4-.8-.6a1,1,0,0,1-.2-1.3c0-.5,1.2-1.4,1.6-1.7Z" transform="translate(-0.9 -16.82)" fill="#e0dee0"/><path d="M15.3,168a.88.88,0,0,1,.7-.1h.3a3,3,0,0,1,1,.4l11.8,6.4a3,3,0,0,1,.7.5,1.06,1.06,0,0,1,.2,1.4c0,.4-1.1,1.3-1.5,1.6l-11.3,6.4a3.55,3.55,0,0,1-.9.4H16a1.7,1.7,0,0,1-.7-.1L3,178.3c-.1-.1-.7-.4-.8-.6a1,1,0,0,1-.2-1.3c0-.4,1.2-1.4,1.6-1.6Z" transform="translate(-0.9 -16.82)" fill="#dcdcdd"/><path d="M15.4,168.1a1.7,1.7,0,0,1,.7-.1l.3.1a3,3,0,0,1,1,.4l11.7,6.4a3,3,0,0,1,.7.5,1.06,1.06,0,0,1,.2,1.4c0,.4-1.2,1.3-1.5,1.5l-11.2,6.3a3.55,3.55,0,0,1-.9.4s-.2.1-.3,0a1.7,1.7,0,0,1-.7-.1L3.1,178.3c-.1-.1-.8-.4-.8-.6a1,1,0,0,1-.2-1.3c0-.4,1.3-1.4,1.6-1.6Z" transform="translate(-0.9 -16.82)" fill="#dbdadb"/><path d="M15.4,168.1a1.7,1.7,0,0,1,.7-.1l.3.1a4.18,4.18,0,0,1,1,.4L29,174.8a3,3,0,0,1,.7.5,1.06,1.06,0,0,1,.2,1.4c0,.3-1.3,1.3-1.6,1.4l-11.1,6.2a3.55,3.55,0,0,1-.9.4,1,1,0,0,1-.3.1,1.7,1.7,0,0,1-.7-.1L3.1,178.1c-.1,0-.8-.4-.8-.6a1,1,0,0,1-.2-1.3c0-.3,1.4-1.3,1.7-1.5Z" transform="translate(-0.9 -16.82)" fill="#d6d7d8"/><path d="M15.5,168.2a1.7,1.7,0,0,1,.7-.1l.3.1c.1,0,.9.4,1,.4L29,175c.1,0,.6.4.7.4a1,1,0,0,1,.2,1.3c0,.3-1.3,1.2-1.6,1.4l-11,6.2c-.1,0-.8.4-.9.4a1,1,0,0,1-.3.1,1.7,1.7,0,0,1-.7-.1L3.2,178.2a4.05,4.05,0,0,1-.9-.5.85.85,0,0,1-.1-1.3c0-.3,1.4-1.3,1.7-1.5Z" transform="translate(-0.9 -16.82)" fill="#d4d5d7"/><path d="M15.5,168.3a1.7,1.7,0,0,1,.7-.1l.3.1c.1,0,.9.4,1,.4L29,174.9c.1,0,.6.4.7.4a.85.85,0,0,1,.1,1.3c0,.3-1.4,1.2-1.6,1.3L17.4,184c-.1,0-.8.4-.9.4a1,1,0,0,1-.3.1,1.7,1.7,0,0,1-.7-.1L3.4,177.9c-.1,0-.8-.5-.9-.5a.85.85,0,0,1-.1-1.3c0-.3,1.5-1.3,1.7-1.4Z" transform="translate(-0.9 -16.82)" fill="#d3d2d4"/><path d="M15.5,168.4a.85.85,0,0,1,.7,0l.3.1a4.67,4.67,0,0,1,1,.5l11.4,6.2a4.35,4.35,0,0,0,.7.4.85.85,0,0,1,.1,1.3c0,.2-1.4,1.2-1.6,1.3l-10.7,6.1c-.1,0-.8.4-.9.4a1,1,0,0,1-.3.1,1.7,1.7,0,0,1-.7-.1L3.4,178c-.1,0-.8-.5-.9-.5a.85.85,0,0,1-.1-1.3,8.62,8.62,0,0,1,1.8-1.4Z" transform="translate(-0.9 -16.82)" fill="#d1d1d3"/><path d="M15.6,168.4a.85.85,0,0,1,.7,0l.3.1a4.67,4.67,0,0,1,1,.5l11.3,6.2a4.35,4.35,0,0,0,.7.4.85.85,0,0,1,.1,1.3c0,.2-1.5,1.1-1.7,1.2l-10.6,6c-.1,0-.8.4-.9.4s-.2.1-.3.1-.5,0-.7,0L3.5,178a7.26,7.26,0,0,0-.9-.5.76.76,0,0,1-.1-1.2A8.32,8.32,0,0,1,4.3,175Z" transform="translate(-0.9 -16.82)" fill="#cecfd0"/><path d="M15.6,168.5a.85.85,0,0,1,.7,0l.3.1a2.62,2.62,0,0,1,.9.5l11.2,6.1a4.35,4.35,0,0,0,.7.4.85.85,0,0,1,.1,1.3,12.49,12.49,0,0,1-1.7,1.2L17.4,184a7.93,7.93,0,0,1-.9.4,1,1,0,0,1-.3.1c-.2.1-.5,0-.7,0L3.4,178a7.26,7.26,0,0,0-.9-.5.76.76,0,0,1-.1-1.2c0-.1,1.7-1.2,1.8-1.3Z" transform="translate(-0.9 -16.82)" fill="#c9cbce"/><path d="M15.7,168.6a.85.85,0,0,1,.7,0l.3.1.9.5,11.1,6.1.7.4a.7.7,0,0,1,0,1.2,9.91,9.91,0,0,1-1.7,1.1l-10.4,5.8a7.93,7.93,0,0,1-.9.4,1,1,0,0,1-.3.1.85.85,0,0,1-.7,0l-12-6.4a7.26,7.26,0,0,0-.9-.5.7.7,0,0,1,0-1.2A18.76,18.76,0,0,1,4.3,175Z" transform="translate(-0.9 -16.82)" fill="#c8c7ca"/><path d="M15.7,168.7a.85.85,0,0,1,.7,0l.3.1.9.5,11.1,6,.7.4a.7.7,0,0,1,0,1.2c0,.1-1.7,1-1.7,1.1l-10.2,5.8a7.93,7.93,0,0,1-.9.4l-.2.1a.85.85,0,0,1-.7,0l-12-6.4-.9-.5a.7.7,0,0,1,0-1.2c0-.1,1.8-1.1,1.8-1.2Z" transform="translate(-0.9 -16.82)" fill="#c5c6ca"/><path d="M15.7,168.7a.85.85,0,0,1,.7,0l.3.1.9.5,11,6,.7.4a.75.75,0,0,1,0,1.2s-1.7,1-1.8,1l-10.1,5.7-.8.4-.2.1a.85.85,0,0,1-.7,0L3.8,177.7l-.9-.5a.7.7,0,0,1,0-1.2s1.8-1.1,1.9-1.1Z" transform="translate(-0.9 -16.82)" fill="#c4c4c8"/><path d="M15.8,168.8a.85.85,0,0,1,.7,0l12.8,7a.75.75,0,0,1,0,1.2l-12.8,7.2a.64.64,0,0,1-.6,0L3,177.2A.67.67,0,0,1,3,176Z" transform="translate(-0.9 -16.82)" fill="#c3c2c5"/><path d="M29,175.5l-12.1-6.6a2.55,2.55,0,0,0-2.4,0L2.7,175.5a.94.94,0,0,0,0,1.6l11.8,6.6a2.55,2.55,0,0,0,2.4,0L29,177.1A.87.87,0,0,0,29,175.5Z" transform="translate(-0.9 -16.82)" fill="#c2c3cf"/><rect x="1.4" y="157.78" width="27.3" height="1.8" fill="#c2c3cf"/><path d="M29,173.7l-12.1-6.6a2.55,2.55,0,0,0-2.4,0L2.7,173.7a.94.94,0,0,0,0,1.6l11.8,6.6a2.55,2.55,0,0,0,2.4,0L29,175.3A.87.87,0,0,0,29,173.7Z" transform="translate(-0.9 -16.82)" fill="#fff"/><path d="M2.7,175.1l4.4,2.4,7.2,4,.2.1a2.55,2.55,0,0,0,2.4,0l7.8-4.3,3.4-1.8.9-.5a.87.87,0,0,0,0-1.6l-12.1-6.6a2.55,2.55,0,0,0-2.4,0l-3.1,1.8-4.5,2.6-4.1,2.3A.9.9,0,0,0,2.7,175.1Z" transform="translate(-0.9 -16.82)" fill="#f0eef1"/><path d="M20.8,146c-.1.3-.4.6-.2.7s.7-.2.7-.1c.2.2-.6.6-1,.6s-1.5,3-1.5,3l-1.1-.5a19.57,19.57,0,0,0,1.6-3,1.4,1.4,0,0,1,.6-.9c.1,0,.6.2.8-.2a2.49,2.49,0,0,1,.3-.7C21.2,144.8,21,145.7,20.8,146Z" transform="translate(-0.9 -16.82)" fill="#f7a8a9"/><path d="M13,151c0,.9.9,1,2.2.9a6.33,6.33,0,0,0,3.7-1.5c.5-.4-.8-1.4-1.2-1.3a18.22,18.22,0,0,1-2.5.6C13.8,149.9,13,150.2,13,151Z" transform="translate(-0.9 -16.82)" fill="#fff"/><path d="M13.6,172.6a2.15,2.15,0,0,0-.2,1.1c.1.1.2.1.3.2.9.3,2.3-.9,2.6-1.1a1,1,0,0,0,.3-.9A8.67,8.67,0,0,0,13.6,172.6Z" transform="translate(-0.9 -16.82)" fill="#5d8bc8"/><path d="M15,171.8a6.38,6.38,0,0,0-1.4.8c-.1.1-.3.7-.1.9a.76.76,0,0,0,.4.2,4.22,4.22,0,0,0,2.3-.9c.2-.2.6-.6.5-.9A1.94,1.94,0,0,0,15,171.8Z" transform="translate(-0.9 -16.82)" fill="#44445a"/><path d="M14.6,173c-.1,0-.1.1-.1.2s0,.2.1.2.1-.1.1-.2S14.7,173,14.6,173Z" transform="translate(-0.9 -16.82)" fill="#5d8bc8"/><path d="M13.6,172.7s-.2.2-.1.8a.43.43,0,0,0,.4.2,2.81,2.81,0,0,1,.1-.8v-.1l-.2-.3Z" transform="translate(-0.9 -16.82)" fill="#5d8bc8"/><path d="M13.7,172.2a1.09,1.09,0,0,1-.1.5h.2a.35.35,0,0,1,.1.2,1.7,1.7,0,0,0,.7-.1c.6-.2.7-.6.6-.7C15.1,171.7,13.9,172.3,13.7,172.2Z" transform="translate(-0.9 -16.82)" fill="#f7a8a9"/><path d="M13.2,165.1a6,6,0,0,0-.2,2.3c.1,1.1.4,4.8.4,4.8a1.75,1.75,0,0,0,1.7-.1s.4-5.2.4-6.7C15.6,163.7,13.4,164.5,13.2,165.1Z" transform="translate(-0.9 -16.82)" fill="#44445a"/><path d="M15.5,157.2c-.9-.7-1.7-.6-1.9-.4-1.1.9-1.1,2.9-1,3.6s.5,4,.6,4.9c.2,1.4,2.4,1.6,2.4.5S17,158.5,15.5,157.2Z" transform="translate(-0.9 -16.82)" fill="#44445a"/><path d="M16.1,173.8a2.15,2.15,0,0,0-.2,1.1c.1.1.2.1.3.2.9.3,2.3-.9,2.6-1.1a1,1,0,0,0,.3-.9A10.88,10.88,0,0,0,16.1,173.8Z" transform="translate(-0.9 -16.82)" fill="#5d8bc8"/><path d="M17.4,173.1a6.38,6.38,0,0,0-1.4.8c-.1.1-.3.7-.1.9a.76.76,0,0,0,.4.2,4.22,4.22,0,0,0,2.3-.9c.2-.2.6-.6.5-.9S18.1,172.8,17.4,173.1Z" transform="translate(-0.9 -16.82)" fill="#44445a"/><path d="M17.1,174.2c-.1,0-.1.1-.1.2s0,.2.1.2.1-.1.1-.2S17.2,174.2,17.1,174.2Z" transform="translate(-0.9 -16.82)" fill="#5d8bc8"/><path d="M16.1,173.9s-.2.2-.1.8a.43.43,0,0,0,.4.2,2.81,2.81,0,0,1,.1-.8V174l-.2-.3Z" transform="translate(-0.9 -16.82)" fill="#5d8bc8"/><path d="M16.2,173.4a1.09,1.09,0,0,1-.1.5h.2a.35.35,0,0,1,.1.2,1.7,1.7,0,0,0,.7-.1c.6-.2.7-.6.6-.7C17.5,173,16.3,173.4,16.2,173.4Z" transform="translate(-0.9 -16.82)" fill="#f7a8a9"/><path d="M15.4,166.2a9.7,9.7,0,0,0,0,2.5c.1,1.1.4,5,.4,5a1.47,1.47,0,0,0,1.7-.4s.4-5.1.4-6.6C18,165,15.7,165.6,15.4,166.2Z" transform="translate(-0.9 -16.82)" fill="#605f77"/><path d="M17.7,158.1a1.87,1.87,0,0,0-2.2.1,2.83,2.83,0,0,0-.9,2.7c0,.6.7,4.8.9,5.8.2,1.4,2.4,1.6,2.4.5S18.8,159,17.7,158.1Z" transform="translate(-0.9 -16.82)" fill="#605f77"/><path d="M18.2,152.4c0-1.8-2.9-2.6-3.7-2.6-1.8,0-1.8,2.3-1.6,3.9a27,27,0,0,1-.5,5.4c1.3,1.5,6,.5,6,.5C17.9,157.7,18.2,154.1,18.2,152.4Z" transform="translate(-0.9 -16.82)" fill="url(#linear-gradient-7)"/><path d="M17.3,147.2c0-.2-.3,0-.4-.2a1.42,1.42,0,0,0-.6-.2,1.27,1.27,0,0,0-.6.1l-.3.3a5.91,5.91,0,0,0-.4,2.6,6.61,6.61,0,0,0,1.5.5,1.44,1.44,0,0,1-.2-.9c.4.1.7-.4,1-1,.1-.2,0-.5,0-.6C17.1,147.5,17.3,147.4,17.3,147.2Z" transform="translate(-0.9 -16.82)" fill="#f7a8a9"/><path d="M16.5,146c0-.6-1.2-.6-1,0-.6-.1-1.3.4-1,1.1-.3.6.3,1.1.4,1.5a2.27,2.27,0,0,0,.1.4s.8.2,1,0a1.23,1.23,0,0,0,.5-1c.1-.6.5-.3.5-.9.2-.1.3.2.3.2C17.9,146.4,17,145.7,16.5,146Z" transform="translate(-0.9 -16.82)" fill="#323647"/><path d="M16.4,149.8a2.21,2.21,0,0,0-1.3-.4.37.37,0,0,0-.3.1l-.2.3,2.2.7A1.18,1.18,0,0,0,16.4,149.8Z" transform="translate(-0.9 -16.82)" fill="#fff"/><path d="M21.1,158.2c-.3-.2-.5-.2-.4-.3l.4-.4c0-.1-.4,0-.7.2-.1.1-.5,0-.6,0a16.34,16.34,0,0,1-2.7-1.9l-.7,1a29,29,0,0,1,3.3,2c.2.2.5.7.7.6s.6-.2.7-.3-.2-.8.1-.3c.2.3.7.6.6.4A2,2,0,0,0,21.1,158.2Z" transform="translate(-0.9 -16.82)" fill="#f7a8a9"/><path d="M17.2,151c-.9-.2-1.2.6-1.4,1.8a6.11,6.11,0,0,0,.4,3.9c.3.6,1.6-.4,1.6-.8s0-1.2.1-2.5S17.9,151.2,17.2,151Z" transform="translate(-0.9 -16.82)" fill="#fff"/></svg>