<?xml version="1.0" encoding="utf-8"?>
<!-- Generator: Adobe Illustrator 25.1.0, SVG Export Plug-In . SVG Version: 6.00 Build 0)  -->
<svg version="1.1" id="Layer_1" xmlns="http://www.w3.org/2000/svg" xmlns:xlink="http://www.w3.org/1999/xlink" x="0px" y="0px"
	 viewBox="0 0 299.5 322.74" style="enable-background:new 0 0 299.5 322.74;" xml:space="preserve">
<style type="text/css">
	.st0{opacity:0.3;}
	.st1{fill:#FBD1CD;}
	.st2{enable-background:new    ;}
	.st3{fill:#C2BFE0;}
	.st4{fill:#EAF0F4;}
	.st5{opacity:0;}
	.st6{fill:#FFFFFF;}
	.st7{opacity:0.1429;}
	.st8{fill:#FBFCFD;}
	.st9{opacity:0.2857;}
	.st10{fill:#F7FAFB;}
	.st11{opacity:0.4286;}
	.st12{fill:#F4F8F9;}
	.st13{opacity:0.5714;}
	.st14{fill:#F1F6F8;}
	.st15{opacity:0.7143;}
	.st16{fill:#EFF4F6;}
	.st17{opacity:0.8571;}
	.st18{fill:#ECF2F5;}
	.st19{fill:#C0D5DB;}
	.st20{fill:#E4E2F1;}
	.st21{fill:#36C2DA;}
	.st22{fill:url(#SVGID_1_);}
	.st23{clip-path:url(#SVGID_3_);enable-background:new    ;}
	.st24{fill:#B1C5CD;}
	.st25{fill:#ADC0C7;}
	.st26{fill:#A9BBC3;}
	.st27{fill:#A5B6BD;}
	.st28{fill:#A1B2B9;}
	.st29{fill:#9CADB4;}
	.st30{fill:#97A7AD;}
	.st31{fill:#94A3A9;}
	.st32{fill:#8E9EA3;}
	.st33{fill:#8B999E;}
	.st34{fill:#869499;}
	.st35{fill:#818F94;}
	.st36{fill:#7C8B90;}
	.st37{fill:#78868B;}
	.st38{fill:#748186;}
	.st39{clip-path:url(#SVGID_5_);enable-background:new    ;}
	.st40{fill:#33B5CA;}
	.st41{fill:#30B0C5;}
	.st42{fill:#2FACC0;}
	.st43{fill:#2FA7BB;}
	.st44{fill:#2EA4B6;}
	.st45{fill:#2B9FB1;}
	.st46{fill:#2C9BAD;}
	.st47{fill:#2996A8;}
	.st48{fill:#2A91A2;}
	.st49{fill:#278C9E;}
	.st50{clip-path:url(#SVGID_7_);enable-background:new    ;}
	.st51{clip-path:url(#SVGID_9_);enable-background:new    ;}
	.st52{fill:#247785;}
	.st53{fill:#227B8A;}
	.st54{fill:#25808E;}
	.st55{fill:#258494;}
	.st56{fill:#258899;}
	.st57{opacity:0.1;fill:#010101;}
	.st58{fill:#141C24;}
	.st59{fill:#EFB184;}
	.st60{fill:#E7A477;}
	.st61{fill:#60B9E7;}
	.st62{fill:#7FCFF4;}
	.st63{fill:#141416;}
	.st64{fill:#0C0C0C;}
	.st65{fill:#D156A0;}
	.st66{fill:#E16CA9;}
	.st67{fill:#DD956A;}
	.st68{fill:#331E10;}
	.st69{fill:#24170C;}
	.st70{opacity:0.5;}
	.st71{fill:url(#SVGID_10_);}
	.st72{fill:url(#SVGID_11_);}
	.st73{fill:url(#SVGID_12_);}
	.st74{fill:url(#SVGID_13_);}
	.st75{fill:url(#SVGID_14_);}
	.st76{fill:url(#SVGID_15_);}
	.st77{fill:url(#SVGID_16_);}
	.st78{fill:url(#SVGID_17_);}
	.st79{fill:url(#SVGID_18_);}
	.st80{fill:url(#SVGID_19_);}
	.st81{fill:url(#SVGID_20_);}
	.st82{fill:url(#SVGID_21_);}
	.st83{fill:url(#SVGID_22_);}
	.st84{fill:url(#SVGID_23_);}
	.st85{fill:url(#SVGID_24_);}
	.st86{fill:url(#SVGID_25_);}
	.st87{opacity:0.1;}
	.st88{fill:#010101;}
	.st89{fill:#32282E;}
	.st90{fill:#231D21;}
	.st91{fill:#1E2834;}
	.st92{fill:#DEEFF8;}
	.st93{fill:#F1B387;}
</style>
<g>
	<g class="st0">
		<g>
			<polygon class="st1" points="153.87,225.19 143.43,231.25 141.06,229.88 149.32,225.07 146.33,224.45 147.76,223.16 
				151.83,224.01 			"/>
		</g>
		<g>
			<path class="st1" d="M143.41,218.94c2.81,1.62,1.41,3.7-1.45,5.36c-3.23,1.88-6.75,2.42-9.44,0.86
				c-2.72-1.57-1.49-3.66,1.45-5.39C137,218.01,140.69,217.37,143.41,218.94z M134.44,224.13c0.95,0.55,2.66,0.16,5.04-1.23
				c2.31-1.34,3.03-2.34,2.04-2.91c-0.9-0.52-2.65-0.22-5.07,1.2C134.05,222.57,133.48,223.58,134.44,224.13L134.44,224.13z"/>
		</g>
		<g>
			<path class="st1" d="M134.43,213.76c2.81,1.63,1.42,3.71-1.43,5.37c-3.23,1.87-6.76,2.41-9.45,0.85
				c-2.72-1.57-1.49-3.66,1.45-5.38C128.03,212.84,131.72,212.19,134.43,213.76z M125.47,218.95c0.94,0.54,2.66,0.15,5.04-1.23
				c2.32-1.35,3.03-2.33,2.04-2.91c-0.9-0.52-2.65-0.22-5.08,1.2C125.07,217.4,124.5,218.4,125.47,218.95L125.47,218.95z"/>
		</g>
		<g>
			<polygon class="st1" points="180.81,240.74 170.37,246.8 167.99,245.43 176.26,240.63 173.27,240 174.7,238.7 178.77,239.56 			
				"/>
		</g>
		<g>
			<path class="st1" d="M188.3,244.86c2.81,1.62,1.41,3.7-1.44,5.36c-3.23,1.88-6.76,2.42-9.44,0.86c-2.72-1.57-1.49-3.67,1.44-5.39
				C181.89,243.93,185.59,243.29,188.3,244.86z M179.33,250.05c0.95,0.55,2.66,0.15,5.04-1.23c2.32-1.34,3.03-2.34,2.04-2.92
				c-0.9-0.51-2.65-0.21-5.07,1.21C178.94,248.5,178.38,249.5,179.33,250.05L179.33,250.05z"/>
		</g>
		<g class="st2">
			<g>
				<path class="st1" d="M161.37,229.31c2.81,1.63,1.41,3.7-1.45,5.36c-3.23,1.88-6.76,2.41-9.44,0.86
					c-2.72-1.57-1.48-3.66,1.44-5.39C154.95,228.38,158.65,227.74,161.37,229.31z M152.4,234.5c0.95,0.55,2.66,0.15,5.04-1.23
					c2.31-1.34,3.03-2.34,2.04-2.91c-0.9-0.52-2.65-0.22-5.08,1.2C152.01,232.95,151.44,233.95,152.4,234.5L152.4,234.5z"/>
			</g>
			<g>
				<path class="st1" d="M170.35,234.49c2.81,1.62,1.41,3.7-1.45,5.37c-3.23,1.87-6.75,2.42-9.44,0.86
					c-2.72-1.57-1.48-3.67,1.45-5.4C163.93,233.56,167.63,232.92,170.35,234.49z M161.38,239.69c0.94,0.55,2.66,0.15,5.04-1.22
					c2.31-1.34,3.03-2.34,2.04-2.91c-0.9-0.52-2.65-0.22-5.08,1.2C160.98,238.13,160.42,239.13,161.38,239.69L161.38,239.69z"/>
			</g>
		</g>
		<g>
			<path class="st1" d="M197.28,250.04c2.81,1.63,1.41,3.71-1.45,5.37c-3.23,1.87-6.76,2.41-9.44,0.86
				c-2.71-1.57-1.48-3.66,1.45-5.39C190.87,249.11,194.57,248.47,197.28,250.04z M188.31,255.24c0.95,0.55,2.66,0.15,5.04-1.23
				c2.31-1.34,3.03-2.34,2.04-2.92c-0.9-0.51-2.65-0.22-5.08,1.2C187.92,253.68,187.35,254.68,188.31,255.24L188.31,255.24z"/>
		</g>
		<g>
			<polygon class="st1" points="225.7,266.66 215.26,272.72 212.88,271.35 221.15,266.55 218.16,265.92 219.6,264.62 223.66,265.47 
							"/>
		</g>
		<g class="st2">
			<g>
				<path class="st1" d="M206.26,255.22c2.82,1.63,1.41,3.71-1.44,5.37c-3.23,1.88-6.76,2.41-9.44,0.86
					c-2.72-1.57-1.48-3.66,1.45-5.39C199.85,254.3,203.55,253.66,206.26,255.22z M197.29,260.42c0.94,0.55,2.66,0.15,5.03-1.23
					c2.31-1.34,3.03-2.34,2.04-2.92c-0.9-0.51-2.65-0.21-5.06,1.2C196.89,258.87,196.33,259.87,197.29,260.42L197.29,260.42z"/>
			</g>
			<g>
				<polygon class="st1" points="216.72,261.47 206.28,267.54 203.9,266.16 212.17,261.36 209.19,260.74 210.62,259.44 
					214.68,260.29 				"/>
			</g>
		</g>
		<g>
			<path class="st1" d="M233.19,270.77c2.82,1.63,1.41,3.7-1.44,5.37c-3.23,1.88-6.76,2.41-9.44,0.86c-2.72-1.57-1.49-3.67,1.44-5.4
				C226.78,269.85,230.47,269.21,233.19,270.77z M224.21,275.96c0.96,0.55,2.67,0.16,5.05-1.22c2.31-1.34,3.03-2.34,2.04-2.91
				c-0.9-0.51-2.65-0.22-5.07,1.2C223.83,274.42,223.27,275.42,224.21,275.96L224.21,275.96z"/>
		</g>
		<g>
			<polygon class="st1" points="134.59,236.39 124.15,242.46 121.77,241.09 130.04,236.28 127.05,235.65 128.48,234.36 
				132.55,235.22 			"/>
		</g>
		<g>
			<polygon class="st1" points="143.56,241.58 133.12,247.65 130.75,246.27 139.02,241.46 136.02,240.84 137.46,239.54 
				141.53,240.4 			"/>
		</g>
		<g>
			<polygon class="st1" points="152.54,246.76 142.1,252.83 139.73,251.45 148,246.65 145,246.03 146.43,244.73 150.5,245.59 			"/>
		</g>
		<g>
			<path class="st1" d="M160.04,250.88c2.81,1.63,1.41,3.71-1.45,5.37c-3.23,1.87-6.76,2.41-9.44,0.86
				c-2.72-1.57-1.48-3.67,1.45-5.4C153.63,249.96,157.32,249.31,160.04,250.88z M151.07,256.08c0.95,0.55,2.66,0.15,5.03-1.22
				c2.32-1.34,3.03-2.34,2.04-2.92c-0.9-0.51-2.65-0.22-5.08,1.2C150.67,254.52,150.11,255.52,151.07,256.08L151.07,256.08z"/>
		</g>
		<g>
			<path class="st1" d="M195.95,271.61c2.82,1.63,1.42,3.7-1.44,5.37c-3.24,1.88-6.76,2.41-9.44,0.86
				c-2.72-1.57-1.49-3.67,1.44-5.39C189.54,270.69,193.23,270.05,195.95,271.61z M186.99,276.81c0.95,0.55,2.66,0.15,5.03-1.23
				c2.31-1.34,3.04-2.34,2.04-2.92c-0.9-0.51-2.65-0.21-5.08,1.21C186.59,275.26,186.03,276.26,186.99,276.81L186.99,276.81z"/>
		</g>
		<g>
			<polygon class="st1" points="188.46,267.5 178.02,273.56 175.64,272.19 183.91,267.38 180.92,266.76 182.35,265.46 
				186.42,266.32 			"/>
		</g>
		<g>
			<path class="st1" d="M177.99,261.25c2.81,1.63,1.41,3.71-1.44,5.37c-3.23,1.88-6.76,2.41-9.44,0.87
				c-2.72-1.57-1.49-3.67,1.44-5.4C171.58,260.33,175.28,259.68,177.99,261.25z M169.03,266.44c0.95,0.55,2.66,0.16,5.04-1.22
				c2.31-1.34,3.03-2.34,2.04-2.92c-0.9-0.52-2.65-0.22-5.07,1.21C168.63,264.89,168.07,265.89,169.03,266.44L169.03,266.44z"/>
		</g>
		<g>
			<path class="st1" d="M169.02,256.06c2.82,1.63,1.41,3.71-1.44,5.37c-3.23,1.88-6.76,2.41-9.44,0.86
				c-2.72-1.57-1.48-3.67,1.45-5.4C162.6,255.14,166.3,254.5,169.02,256.06z M160.05,261.26c0.94,0.55,2.66,0.15,5.04-1.22
				c2.31-1.34,3.03-2.34,2.04-2.92c-0.9-0.51-2.65-0.22-5.07,1.21C159.65,259.71,159.09,260.71,160.05,261.26L160.05,261.26z"/>
		</g>
		<g>
			<path class="st1" d="M213.91,281.98c2.81,1.63,1.41,3.71-1.44,5.37c-3.23,1.87-6.76,2.41-9.44,0.86
				c-2.72-1.57-1.49-3.67,1.44-5.39C207.49,281.06,211.19,280.41,213.91,281.98z M204.93,287.17c0.96,0.55,2.68,0.16,5.05-1.22
				c2.32-1.34,3.04-2.34,2.03-2.91c-0.89-0.52-2.65-0.21-5.07,1.2C204.54,285.63,203.98,286.63,204.93,287.17L204.93,287.17z"/>
		</g>
		<g>
			<path class="st1" d="M204.93,276.8c2.82,1.63,1.41,3.71-1.44,5.37c-3.23,1.88-6.76,2.41-9.44,0.87c-2.72-1.57-1.49-3.67,1.44-5.4
				C198.52,275.88,202.21,275.23,204.93,276.8z M195.95,281.99c0.96,0.56,2.67,0.17,5.05-1.21c2.31-1.35,3.03-2.35,2.04-2.92
				c-0.9-0.52-2.65-0.22-5.07,1.2C195.57,280.44,195.01,281.44,195.95,281.99L195.95,281.99z"/>
		</g>
		<g>
			<path class="st1" d="M176.67,282.82c2.81,1.62,1.41,3.7-1.45,5.37c-3.23,1.88-6.76,2.41-9.44,0.86
				c-2.72-1.57-1.48-3.67,1.44-5.39C170.25,281.9,173.95,281.25,176.67,282.82z M167.7,288.02c0.95,0.54,2.66,0.15,5.04-1.23
				c2.31-1.35,3.03-2.34,2.04-2.92c-0.9-0.51-2.65-0.22-5.07,1.2C167.3,286.47,166.74,287.46,167.7,288.02L167.7,288.02z"/>
		</g>
		<g>
			<path class="st1" d="M194.62,293.19c2.81,1.63,1.41,3.71-1.44,5.37c-3.23,1.87-6.76,2.41-9.44,0.86
				c-2.72-1.57-1.48-3.66,1.44-5.39C188.21,292.27,191.9,291.62,194.62,293.19z M185.64,298.38c0.96,0.56,2.67,0.16,5.05-1.22
				c2.31-1.34,3.03-2.34,2.04-2.91c-0.9-0.51-2.65-0.22-5.08,1.2C185.26,296.83,184.7,297.83,185.64,298.38L185.64,298.38z"/>
		</g>
		<g>
			<path class="st1" d="M185.65,288.01c2.81,1.63,1.41,3.7-1.45,5.36c-3.22,1.88-6.76,2.42-9.44,0.86
				c-2.72-1.57-1.48-3.66,1.45-5.39C179.23,287.09,182.92,286.44,185.65,288.01z M176.66,293.19c0.96,0.56,2.68,0.16,5.05-1.22
				c2.31-1.35,3.03-2.34,2.04-2.92c-0.9-0.51-2.65-0.22-5.08,1.2C176.28,291.65,175.72,292.65,176.66,293.19L176.66,293.19z"/>
		</g>
		<g>
			<path class="st1" d="M167.69,277.64c2.81,1.63,1.41,3.71-1.44,5.37c-3.23,1.87-6.76,2.41-9.44,0.86
				c-2.72-1.57-1.49-3.67,1.44-5.39C161.27,276.72,164.97,276.07,167.69,277.64z M158.72,282.84c0.95,0.54,2.66,0.15,5.03-1.23
				c2.32-1.35,3.04-2.34,2.04-2.92c-0.9-0.52-2.65-0.22-5.07,1.21C158.32,281.28,157.76,282.28,158.72,282.84L158.72,282.84z"/>
		</g>
		<g>
			<polygon class="st1" points="160.19,273.52 149.75,279.58 147.37,278.21 155.64,273.41 152.66,272.78 154.09,271.49 
				158.15,272.34 			"/>
		</g>
		<g>
			<polygon class="st1" points="151.21,268.34 140.77,274.41 138.39,273.03 146.66,268.23 143.68,267.6 145.11,266.31 
				149.17,267.16 			"/>
		</g>
		<g>
			<polygon class="st1" points="142.23,263.15 131.79,269.22 129.42,267.84 137.69,263.04 134.69,262.42 136.13,261.12 
				140.2,261.98 			"/>
		</g>
		<g>
			<path class="st1" d="M112.49,268.11c2.81,1.62,1.41,3.7-1.45,5.37c-3.23,1.88-6.75,2.42-9.44,0.86
				c-2.72-1.57-1.48-3.67,1.44-5.39C106.07,267.19,109.77,266.55,112.49,268.11z M103.52,273.31c0.95,0.55,2.66,0.15,5.04-1.23
				c2.31-1.34,3.03-2.34,2.04-2.92c-0.9-0.51-2.65-0.22-5.07,1.21C103.12,271.75,102.56,272.76,103.52,273.31L103.52,273.31z"/>
		</g>
		<g>
			<path class="st1" d="M103.51,262.93c2.81,1.63,1.41,3.71-1.45,5.37c-3.23,1.87-6.76,2.41-9.44,0.86
				c-2.72-1.57-1.49-3.67,1.44-5.39C97.09,262.01,100.79,261.36,103.51,262.93z M94.54,268.13c0.94,0.55,2.66,0.15,5.04-1.23
				c2.32-1.34,3.03-2.34,2.04-2.91c-0.9-0.52-2.65-0.23-5.07,1.2C94.14,266.57,93.58,267.57,94.54,268.13L94.54,268.13z"/>
		</g>
		<g>
			<path class="st1" d="M94.53,257.74c2.81,1.63,1.41,3.71-1.44,5.37c-3.23,1.88-6.76,2.41-9.44,0.86c-2.72-1.57-1.49-3.67,1.45-5.4
				C88.11,256.82,91.81,256.18,94.53,257.74z M85.56,262.94c0.95,0.55,2.66,0.15,5.04-1.23c2.32-1.34,3.03-2.34,2.04-2.91
				c-0.9-0.52-2.65-0.22-5.07,1.2C85.17,261.39,84.6,262.39,85.56,262.94L85.56,262.94z"/>
		</g>
		<g>
			<polygon class="st1" points="87.04,253.63 76.59,259.69 74.22,258.32 82.49,253.51 79.49,252.89 80.93,251.59 85,252.45 			"/>
		</g>
		<g>
			<path class="st1" d="M130.44,278.48c2.81,1.63,1.41,3.71-1.45,5.37c-3.23,1.87-6.76,2.41-9.44,0.86
				c-2.72-1.57-1.49-3.67,1.44-5.39C124.03,277.56,127.73,276.91,130.44,278.48z M121.47,283.68c0.95,0.54,2.66,0.15,5.04-1.22
				c2.32-1.35,3.03-2.34,2.04-2.92c-0.9-0.52-2.65-0.22-5.07,1.2C121.08,282.12,120.52,283.13,121.47,283.68L121.47,283.68z"/>
		</g>
		<g>
			<polygon class="st1" points="122.95,274.36 112.51,280.43 110.13,279.05 118.4,274.25 115.41,273.62 116.84,272.33 
				120.91,273.19 			"/>
		</g>
		<g>
			<path class="st1" d="M139.42,283.66c2.81,1.63,1.41,3.7-1.45,5.37c-3.23,1.88-6.76,2.41-9.44,0.86c-2.72-1.57-1.48-3.67,1.45-5.4
				C133.01,282.73,136.71,282.1,139.42,283.66z M130.45,288.86c0.95,0.55,2.66,0.15,5.04-1.22c2.31-1.35,3.03-2.34,2.04-2.92
				c-0.9-0.51-2.65-0.21-5.07,1.2C130.06,287.31,129.49,288.31,130.45,288.86L130.45,288.86z"/>
		</g>
		<g>
			<path class="st1" d="M175.34,304.4c2.81,1.62,1.41,3.7-1.45,5.37c-3.23,1.88-6.76,2.41-9.44,0.87c-2.72-1.57-1.48-3.66,1.45-5.39
				C168.92,303.47,172.62,302.83,175.34,304.4z M166.36,309.59c0.96,0.56,2.67,0.16,5.05-1.22c2.32-1.34,3.03-2.34,2.04-2.91
				c-0.9-0.52-2.65-0.22-5.07,1.21C165.97,308.04,165.41,309.04,166.36,309.59L166.36,309.59z"/>
		</g>
		<g class="st2">
			<g>
				<path class="st1" d="M148.4,288.85c2.82,1.63,1.41,3.7-1.44,5.37c-3.23,1.88-6.76,2.41-9.44,0.86c-2.72-1.57-1.48-3.67,1.44-5.4
					C141.99,287.93,145.68,287.28,148.4,288.85z M139.43,294.05c0.95,0.54,2.66,0.15,5.04-1.23c2.32-1.35,3.04-2.34,2.05-2.92
					c-0.9-0.52-2.65-0.22-5.08,1.2C139.04,292.49,138.47,293.5,139.43,294.05L139.43,294.05z"/>
			</g>
			<g>
				<polygon class="st1" points="158.86,295.09 148.42,301.16 146.04,299.79 154.31,294.99 151.32,294.36 152.75,293.07 
					156.82,293.91 				"/>
			</g>
			<g>
				<path class="st1" d="M166.36,299.22c2.81,1.62,1.41,3.7-1.44,5.36c-3.23,1.88-6.76,2.41-9.44,0.87
					c-2.72-1.57-1.49-3.67,1.44-5.39C159.94,298.29,163.64,297.64,166.36,299.22z M157.38,304.41c0.96,0.55,2.67,0.16,5.05-1.22
					c2.31-1.35,3.03-2.34,2.04-2.92c-0.89-0.52-2.65-0.22-5.07,1.2C156.99,302.86,156.43,303.86,157.38,304.41L157.38,304.41z"/>
			</g>
		</g>
		<g>
			<path class="st1" d="M12.39,232.67c2.82,1.62,1.42,3.72-1.43,5.37c-3.23,1.88-6.76,2.41-9.45,0.85
				c-2.72-1.57-1.48-3.66,1.46-5.39C5.99,231.75,9.68,231.1,12.39,232.67z M3.43,237.87c0.94,0.54,2.66,0.15,5.03-1.23
				c2.32-1.34,3.04-2.34,2.04-2.91c-0.89-0.52-2.65-0.22-5.07,1.2C3.03,236.31,2.47,237.31,3.43,237.87L3.43,237.87z"/>
		</g>
		<g>
			<polygon class="st1" points="40.81,249.28 30.37,255.35 27.99,253.97 36.26,249.17 33.28,248.55 34.71,247.25 38.77,248.1 			"/>
		</g>
		<g>
			<path class="st1" d="M30.35,243.04c2.81,1.62,1.42,3.71-1.43,5.37c-3.23,1.88-6.76,2.41-9.46,0.85
				c-2.72-1.57-1.48-3.67,1.46-5.38C23.95,242.11,27.64,241.46,30.35,243.04z M21.38,248.23c0.95,0.55,2.66,0.16,5.04-1.23
				c2.31-1.34,3.03-2.34,2.04-2.92c-0.9-0.52-2.65-0.21-5.07,1.21C20.99,246.68,20.43,247.68,21.38,248.23L21.38,248.23z"/>
		</g>
		<g>
			<polygon class="st1" points="22.86,238.92 12.41,244.98 10.04,243.61 18.31,238.8 15.32,238.18 16.75,236.89 20.82,237.74 			"/>
		</g>
		<g>
			<polygon class="st1" points="49.79,254.47 39.35,260.53 36.97,259.16 45.24,254.35 42.25,253.74 43.69,252.44 47.75,253.29 			
				"/>
		</g>
		<g class="st2">
			<g>
				<path class="st1" d="M57.29,258.59c2.82,1.62,1.42,3.71-1.43,5.37c-3.23,1.88-6.76,2.41-9.45,0.86
					c-2.72-1.57-1.49-3.66,1.46-5.39C50.88,257.66,54.57,257.02,57.29,258.59z M48.32,263.79c0.95,0.55,2.66,0.15,5.04-1.23
					c2.32-1.35,3.03-2.34,2.04-2.92c-0.9-0.52-2.65-0.22-5.07,1.21C47.92,262.23,47.36,263.23,48.32,263.79L48.32,263.79z"/>
			</g>
			<g>
				<polygon class="st1" points="67.75,264.84 57.31,270.9 54.93,269.53 63.2,264.72 60.21,264.1 61.64,262.8 65.71,263.66 				"/>
			</g>
		</g>
		<g>
			<polygon class="st1" points="76.73,270.02 66.29,276.09 63.91,274.71 72.18,269.91 69.19,269.28 70.62,267.99 74.69,268.84 			
				"/>
		</g>
		<g>
			<path class="st1" d="M84.22,274.14c2.82,1.62,1.42,3.7-1.44,5.36c-3.23,1.88-6.76,2.41-9.44,0.86c-2.72-1.57-1.49-3.67,1.44-5.4
				C77.81,273.22,81.5,272.57,84.22,274.14z M75.25,279.34c0.95,0.55,2.66,0.15,5.04-1.22c2.32-1.34,3.04-2.35,2.04-2.91
				c-0.9-0.52-2.65-0.23-5.07,1.2C74.86,277.78,74.29,278.78,75.25,279.34L75.25,279.34z"/>
		</g>
		<g>
			<path class="st1" d="M111.16,289.69c2.81,1.63,1.41,3.7-1.44,5.37c-3.23,1.88-6.76,2.41-9.44,0.86
				c-2.72-1.57-1.48-3.66,1.44-5.39C104.75,288.77,108.44,288.12,111.16,289.69z M102.19,294.89c0.95,0.54,2.67,0.15,5.04-1.23
				c2.31-1.34,3.03-2.34,2.04-2.91c-0.9-0.51-2.65-0.22-5.07,1.2C101.8,293.33,101.23,294.33,102.19,294.89L102.19,294.89z"/>
		</g>
		<g>
			<polygon class="st1" points="103.66,285.57 93.22,291.64 90.84,290.26 99.11,285.46 96.12,284.83 97.55,283.54 101.62,284.4 			
				"/>
		</g>
		<g>
			<polygon class="st1" points="94.68,280.39 84.24,286.46 81.86,285.08 90.14,280.28 87.14,279.65 88.58,278.36 92.64,279.21 			
				"/>
		</g>
		<g>
			<polygon class="st1" points="121.62,295.94 111.18,302 108.8,300.63 117.07,295.83 114.08,295.2 115.51,293.91 119.58,294.76 			
				"/>
		</g>
		<g>
			<polygon class="st1" points="130.59,301.12 120.16,307.19 117.78,305.82 126.05,301.01 123.06,300.39 124.49,299.09 
				128.56,299.94 			"/>
		</g>
		<g>
			<path class="st1" d="M147.07,310.43c2.82,1.62,1.41,3.7-1.44,5.36c-3.23,1.88-6.76,2.42-9.44,0.86
				c-2.72-1.56-1.48-3.66,1.45-5.39C140.66,309.49,144.35,308.85,147.07,310.43z M138.09,315.62c0.96,0.55,2.68,0.16,5.05-1.22
				c2.31-1.34,3.04-2.33,2.04-2.91c-0.9-0.52-2.65-0.22-5.07,1.2C137.71,314.07,137.15,315.07,138.09,315.62L138.09,315.62z"/>
		</g>
		<g>
			<polygon class="st1" points="139.58,306.3 129.14,312.37 126.75,311 135.02,306.19 132.04,305.57 133.47,304.28 137.54,305.13 
							"/>
		</g>
		<g>
			<path class="st1" d="M156.05,315.61c2.81,1.62,1.41,3.7-1.44,5.36c-3.23,1.88-6.76,2.41-9.44,0.86
				c-2.72-1.57-1.49-3.67,1.44-5.39C149.63,314.68,153.33,314.04,156.05,315.61z M147.07,320.8c0.96,0.55,2.67,0.16,5.05-1.22
				c2.32-1.35,3.04-2.34,2.04-2.91c-0.9-0.52-2.65-0.22-5.07,1.21C146.68,319.24,146.12,320.25,147.07,320.8L147.07,320.8z"/>
		</g>
	</g>
	<path class="st3" d="M42.73,180.85c-0.01,4.36,2.39,8.65,7.47,12.6l6.08,3.4l123.95,69.32c0.94,0.6,1.89,1.18,2.87,1.75
		c0.92,0.53,1.86,1.04,2.83,1.54c0.49,0.25,1,0.48,1.49,0.74l0.95,0.46c1.71,0.81,3.46,1.55,5.23,2.23
		c0.32,0.12,0.64,0.23,0.95,0.34c1.4,0.52,2.82,1.01,4.25,1.45c0.4,0.12,0.79,0.25,1.19,0.37c0.92,0.28,1.86,0.51,2.8,0.75
		c1.15,0.3,2.3,0.6,3.46,0.85c1.02,0.23,2.04,0.41,3.06,0.59c0.89,0.16,1.77,0.33,2.66,0.47c1.13,0.17,2.27,0.3,3.41,0.43
		c0.76,0.09,1.53,0.19,2.3,0.26c1.22,0.11,2.45,0.16,3.68,0.23c0.71,0.03,1.42,0.09,2.13,0.11c1.12,0.03,2.24,0.01,3.36,0.01
		c0.87-0.01,1.74,0.01,2.61-0.01c0.7-0.02,1.4-0.08,2.1-0.12c1.42-0.08,2.84-0.15,4.26-0.29c1.69-0.16,3.38-0.35,5.05-0.59
		c0.33-0.05,0.65-0.1,0.97-0.16c1.26-0.2,2.51-0.43,3.75-0.66c1.29-0.25,2.58-0.53,3.86-0.83c0.81-0.19,1.62-0.37,2.43-0.58
		c1.35-0.35,2.69-0.75,4.02-1.15c0.72-0.22,1.45-0.42,2.17-0.65c0.69-0.23,1.37-0.49,2.06-0.73c1.09-0.38,2.17-0.77,3.23-1.19
		c0.73-0.28,1.44-0.6,2.16-0.9c1-0.42,2-0.85,2.97-1.3c0.73-0.34,1.45-0.69,2.17-1.05c0.93-0.47,1.85-0.93,2.77-1.43
		c0.72-0.39,1.42-0.79,2.13-1.2c1.26-0.73,2.51-1.45,3.71-2.23c1.25-0.82,2.41-1.65,3.53-2.5c0.13-0.1,0.28-0.21,0.42-0.31
		c1.04-0.81,2.01-1.63,2.93-2.47c0.17-0.16,0.36-0.32,0.53-0.49c0.72-0.67,1.41-1.36,2.05-2.04c0.06-0.07,0.11-0.13,0.17-0.19
		c0.59-0.64,1.14-1.29,1.66-1.94c0.18-0.22,0.35-0.44,0.52-0.67c0.32-0.42,0.62-0.84,0.92-1.26c0.15-0.23,0.31-0.45,0.46-0.67
		c0.34-0.51,0.65-1.02,0.95-1.53c0.08-0.14,0.17-0.28,0.25-0.41c0.35-0.62,0.67-1.24,0.96-1.87c0.08-0.16,0.14-0.33,0.21-0.5
		c0.21-0.46,0.41-0.93,0.59-1.39c0.1-0.26,0.19-0.52,0.28-0.79c0.13-0.37,0.25-0.73,0.37-1.1c0.08-0.27,0.14-0.53,0.22-0.8
		c0.1-0.37,0.19-0.75,0.27-1.12c0.06-0.26,0.1-0.52,0.15-0.77c0.07-0.39,0.13-0.77,0.18-1.16c0.03-0.26,0.07-0.53,0.09-0.79
		c0.04-0.39,0.06-0.78,0.08-1.16c0.02-0.37,0.04-0.74,0.04-1.11c-0.02,5.67-0.03,11.34-0.05,17.02c0,0.2,0,0.41-0.01,0.62
		c0,0.18-0.03,0.36-0.04,0.55c-0.02,0.36-0.04,0.71-0.08,1.07c-0.03,0.29-0.06,0.57-0.1,0.85c-0.05,0.36-0.11,0.73-0.17,1.09
		c-0.03,0.16-0.05,0.33-0.08,0.49c-0.02,0.12-0.06,0.23-0.09,0.35c-0.08,0.36-0.17,0.73-0.26,1.09c-0.07,0.26-0.14,0.53-0.22,0.8
		c-0.11,0.38-0.24,0.76-0.37,1.13c-0.07,0.19-0.12,0.39-0.19,0.59c-0.02,0.06-0.05,0.11-0.07,0.17c-0.18,0.47-0.39,0.94-0.59,1.41
		c-0.08,0.16-0.13,0.32-0.21,0.48c-0.3,0.63-0.62,1.25-0.97,1.88c-0.01,0.02-0.02,0.04-0.03,0.06c-0.06,0.1-0.13,0.2-0.19,0.3
		c-0.31,0.53-0.64,1.06-0.98,1.58c-0.14,0.22-0.3,0.44-0.45,0.66c-0.3,0.43-0.61,0.86-0.94,1.28c-0.09,0.12-0.17,0.24-0.26,0.36
		c-0.07,0.1-0.16,0.19-0.24,0.28c-0.54,0.66-1.1,1.33-1.7,1.98c-0.04,0.05-0.08,0.1-0.13,0.15c-0.65,0.69-1.34,1.38-2.07,2.06
		c-0.08,0.08-0.15,0.16-0.24,0.23c-0.09,0.08-0.19,0.16-0.28,0.24c-0.93,0.84-1.9,1.67-2.94,2.48c-0.13,0.1-0.27,0.2-0.41,0.3
		c-1.11,0.85-2.28,1.69-3.53,2.5c-0.77,0.5-1.56,0.99-2.36,1.47c-0.45,0.27-0.93,0.51-1.39,0.78c-0.69,0.4-1.38,0.79-2.08,1.17
		c-0.92,0.5-1.85,0.97-2.79,1.44c-0.72,0.36-1.44,0.71-2.17,1.05c-0.96,0.45-1.95,0.88-2.94,1.29c-0.73,0.31-1.45,0.63-2.2,0.92
		c-1.04,0.41-2.1,0.79-3.16,1.16c-0.71,0.26-1.42,0.52-2.14,0.76c-0.15,0.05-0.31,0.11-0.46,0.17c-0.54,0.16-1.1,0.3-1.64,0.46
		c-1.35,0.41-2.7,0.81-4.07,1.16c-0.81,0.21-1.63,0.4-2.45,0.59c-1.27,0.29-2.54,0.57-3.82,0.82c-0.4,0.07-0.78,0.18-1.18,0.25
		c-0.87,0.16-1.74,0.29-2.62,0.42c-0.31,0.05-0.62,0.11-0.94,0.16c-1.49,0.21-2.98,0.4-4.48,0.55c-0.19,0.02-0.38,0.02-0.56,0.03
		c-1.45,0.14-2.9,0.22-4.35,0.29c-0.58,0.03-1.15,0.1-1.72,0.12c-0.1,0-0.19-0.01-0.29,0c-0.91,0.03-1.81,0-2.72,0.01
		c-0.96,0.01-1.93,0.04-2.89,0.02c-0.12-0.01-0.25-0.02-0.37-0.02c-0.73-0.02-1.46-0.08-2.19-0.11c-1.01-0.05-2.02-0.07-3.03-0.16
		c-0.21-0.02-0.41-0.05-0.61-0.07c-0.78-0.07-1.54-0.17-2.32-0.27c-0.86-0.09-1.73-0.16-2.59-0.29c-0.27-0.04-0.54-0.1-0.8-0.14
		c-0.89-0.14-1.77-0.3-2.66-0.46c-0.74-0.14-1.49-0.23-2.22-0.39c-0.28-0.06-0.56-0.14-0.85-0.21c-1.16-0.25-2.3-0.55-3.45-0.85
		c-0.66-0.17-1.33-0.3-1.98-0.48c-0.28-0.08-0.56-0.18-0.84-0.26c-0.38-0.11-0.77-0.24-1.15-0.36c-1.47-0.46-2.92-0.95-4.36-1.49
		c-0.28-0.1-0.55-0.19-0.83-0.3c-0.15-0.06-0.31-0.11-0.46-0.17c-1.63-0.65-3.23-1.33-4.81-2.09l-0.95-0.45
		c-0.5-0.25-1-0.48-1.49-0.74c-0.97-0.51-1.92-1.02-2.83-1.55c-0.98-0.56-1.94-1.14-2.87-1.74L56.22,213.86l-6.07-3.4
		c-5.08-3.95-7.48-8.24-7.47-12.6C42.7,192.19,42.71,186.52,42.73,180.85z"/>
	<g>
		<path class="st4" d="M208.95,165.62c14.28,8.24,21.62,19.11,21.77,30.04c15.28,0.56,30.39,3.95,42.71,10.34
			c0.99,0.51,1.95,1.03,2.87,1.56c26.38,15.24,27.97,39.89,2.95,56.13c-25.17,16.34-62.1,20.58-90.89,6.97l-0.95-0.46
			c-0.5-0.25-1-0.48-1.49-0.74c-0.97-0.5-1.91-1.02-2.83-1.54c-0.98-0.57-1.94-1.15-2.87-1.75L56.27,196.85l-6.08-3.4
			c-12.13-9.43-8.99-20.8,5.8-30.41c15.53-10.09,37.37-8.97,55.5-1c27.56-12.41,67.4-12.04,94.46,1.95
			C206.99,164.52,207.98,165.07,208.95,165.62z"/>
	</g>
	<g class="st0">
		<g class="st5">
			<path class="st6" d="M210.3,31.14c14.28,8.24,21.63,19.11,21.78,30.04c15.28,0.56,30.39,3.95,42.71,10.34
				c0.99,0.51,1.95,1.03,2.87,1.57c26.38,15.23,27.97,39.88,2.95,56.12c-25.17,16.34-62.11,20.59-90.89,6.97l-0.94-0.45
				c-0.5-0.25-1-0.48-1.5-0.74c-0.97-0.5-1.91-1.02-2.83-1.55c-0.98-0.56-1.94-1.14-2.87-1.74L57.62,62.37l-6.08-3.4
				c-12.12-9.43-8.99-20.81,5.8-30.41c15.53-10.09,37.37-8.96,55.5-1c27.56-12.41,67.4-12.04,94.47,1.95
				C208.34,30.04,209.33,30.59,210.3,31.14z"/>
		</g>
		<g class="st7">
			<path class="st8" d="M210.3,48.09c14.28,8.24,21.63,19.11,21.78,30.04c15.28,0.56,30.39,3.95,42.71,10.33
				c0.99,0.51,1.95,1.03,2.87,1.57c26.38,15.23,27.97,39.88,2.95,56.12c-25.17,16.34-62.11,20.59-90.89,6.97l-0.94-0.45
				c-0.5-0.25-1-0.48-1.5-0.74c-0.97-0.5-1.91-1.02-2.83-1.55c-0.98-0.56-1.94-1.14-2.87-1.74L57.62,79.32l-6.08-3.4
				c-12.12-9.43-8.99-20.81,5.8-30.41c15.53-10.09,37.37-8.96,55.5-1c27.56-12.41,67.4-12.04,94.47,1.95
				C208.34,46.99,209.33,47.53,210.3,48.09z"/>
		</g>
		<g class="st9">
			<path class="st10" d="M210.3,65.04c14.28,8.24,21.63,19.11,21.78,30.04c15.28,0.56,30.39,3.95,42.71,10.33
				c0.99,0.51,1.95,1.03,2.87,1.57c26.38,15.23,27.97,39.88,2.95,56.12c-25.17,16.34-62.11,20.59-90.89,6.97l-0.94-0.45
				c-0.5-0.25-1-0.48-1.5-0.74c-0.97-0.5-1.91-1.02-2.83-1.55c-0.98-0.56-1.94-1.15-2.87-1.74L57.62,96.26l-6.08-3.4
				c-12.12-9.43-8.99-20.81,5.8-30.41c15.53-10.09,37.37-8.96,55.5-1c27.56-12.41,67.4-12.04,94.47,1.95
				C208.34,63.94,209.33,64.48,210.3,65.04z"/>
		</g>
		<g class="st11">
			<path class="st12" d="M210.3,81.99c14.28,8.24,21.63,19.11,21.78,30.04c15.28,0.56,30.39,3.95,42.71,10.33
				c0.99,0.51,1.95,1.03,2.87,1.57c26.38,15.23,27.97,39.88,2.95,56.12c-25.17,16.34-62.11,20.59-90.89,6.97l-0.94-0.45
				c-0.5-0.25-1-0.48-1.5-0.74c-0.97-0.5-1.91-1.02-2.83-1.55c-0.98-0.56-1.94-1.15-2.87-1.74L57.62,113.21l-6.08-3.4
				c-12.12-9.43-8.99-20.81,5.8-30.41c15.53-10.09,37.37-8.96,55.5-1c27.56-12.41,67.4-12.04,94.47,1.95
				C208.34,80.89,209.33,81.43,210.3,81.99z"/>
		</g>
		<g class="st13">
			<path class="st14" d="M210.3,98.93c14.28,8.24,21.63,19.11,21.78,30.05c15.28,0.56,30.39,3.95,42.71,10.33
				c0.99,0.51,1.95,1.03,2.87,1.57c26.38,15.23,27.97,39.88,2.95,56.12c-25.17,16.34-62.11,20.59-90.89,6.97l-0.94-0.45
				c-0.5-0.25-1-0.48-1.5-0.74c-0.97-0.5-1.91-1.02-2.83-1.55c-0.98-0.57-1.94-1.15-2.87-1.74L57.62,130.16l-6.08-3.4
				c-12.12-9.43-8.99-20.81,5.8-30.41c15.53-10.09,37.37-8.96,55.5-1c27.56-12.42,67.4-12.04,94.47,1.95
				C208.34,97.83,209.33,98.38,210.3,98.93z"/>
		</g>
		<g class="st15">
			<path class="st16" d="M210.3,115.88c14.28,8.24,21.63,19.11,21.78,30.05c15.28,0.56,30.39,3.95,42.71,10.33
				c0.99,0.51,1.95,1.03,2.87,1.57c26.38,15.23,27.97,39.88,2.95,56.13c-25.17,16.34-62.11,20.59-90.89,6.97l-0.94-0.45
				c-0.5-0.25-1-0.49-1.5-0.74c-0.97-0.5-1.91-1.02-2.83-1.55c-0.98-0.57-1.94-1.15-2.87-1.74L57.62,147.11l-6.08-3.4
				c-12.12-9.43-8.99-20.81,5.8-30.41c15.53-10.09,37.37-8.96,55.5-1c27.56-12.42,67.4-12.04,94.47,1.95
				C208.34,114.78,209.33,115.32,210.3,115.88z"/>
		</g>
		<g class="st17">
			<path class="st18" d="M210.3,132.83c14.28,8.24,21.63,19.11,21.78,30.05c15.28,0.56,30.39,3.95,42.71,10.33
				c0.99,0.51,1.95,1.03,2.87,1.57c26.41,15.17,27.97,39.89,2.95,56.13c-25.17,16.34-62.11,20.59-90.89,6.97l-0.94-0.45
				c-0.5-0.25-1-0.49-1.5-0.74c-0.97-0.5-1.91-1.02-2.83-1.55c-0.98-0.57-1.94-1.15-2.87-1.74L57.62,164.06l-6.08-3.4
				c-12.12-9.43-8.99-20.81,5.8-30.41c15.53-10.09,37.37-8.96,55.5-1c27.56-12.42,67.4-12.04,94.47,1.95
				C208.34,131.73,209.33,132.27,210.3,132.83z"/>
		</g>
		<path class="st4" d="M210.3,149.78c14.28,8.24,21.63,19.11,21.78,30.05c15.28,0.56,30.39,3.95,42.71,10.33
			c0.99,0.51,1.95,1.04,2.87,1.56c26.38,15.24,27.97,39.89,2.95,56.13c-25.17,16.34-62.11,20.59-90.89,6.97l-0.94-0.45
			c-0.5-0.25-1-0.49-1.5-0.74c-0.97-0.5-1.91-1.02-2.83-1.54c-0.98-0.57-1.94-1.15-2.87-1.74L57.62,181.01l-6.08-3.4
			c-12.12-9.42-8.99-20.81,5.8-30.41c15.53-10.09,37.37-8.96,55.5-1c27.56-12.42,67.4-12.04,94.47,1.95
			C208.34,148.68,209.33,149.22,210.3,149.78z"/>
	</g>
	<g>
		<g>
			<polygon class="st19" points="252.04,231.72 260.44,226.84 181.03,180.99 172.63,185.87 			"/>
		</g>
		<path class="st3" d="M252.01,241.72l0.02-10l8.4-4.88l-0.03,10c0,2.05-0.72,3.49-1.89,4.17c-2.8,1.63-5.6,3.25-8.4,4.88
			C251.28,245.22,252.01,243.77,252.01,241.72z"/>
		<g>
			<path class="st20" d="M252.01,241.72l0.02-10l-79.41-45.86l-0.02,10.01c-0.02,4.13,2.89,9.16,6.48,11.24l66.39,38.32
				C249.07,247.52,252,245.85,252.01,241.72z"/>
		</g>
		<g>
			<polygon class="st3" points="252.04,231.72 260.44,226.84 260.82,92.33 252.42,97.22 			"/>
		</g>
		<g>
			<polygon class="st21" points="252.42,97.22 260.82,92.33 181.41,46.49 173.01,51.37 			"/>
		</g>
		<g>
			
				<linearGradient id="SVGID_1_" gradientUnits="userSpaceOnUse" x1="772.6081" y1="41.6608" x2="772.6081" y2="200.6649" gradientTransform="matrix(-1 0 0 1 985.1315 0)">
				<stop  offset="0" style="stop-color:#FFF3CA"/>
				<stop  offset="1" style="stop-color:#F8B5BA"/>
			</linearGradient>
			<polygon class="st22" points="173.01,51.37 172.63,185.87 252.04,231.72 252.42,97.22 			"/>
		</g>
		<g class="st2">
			<defs>
				<path id="SVGID_2_" class="st2" d="M203.2,53.02c0.01-0.5,0.18-0.85,0.46-1.01l-8.39,4.88c-0.28,0.16-0.46,0.52-0.46,1.01l0,0
					l0,0c0.18-0.1,0.43-0.25,0.6-0.35c0.09-0.05,0.22-0.13,0.31-0.19c0.66-0.38,1.32-0.76,1.98-1.14c0.94-0.55,1.88-1.09,2.81-1.63
					C201.41,54.07,202.3,53.54,203.2,53.02c-2.8,1.63-5.6,3.25-8.39,4.88l0,0c-0.01,1.01,0.7,2.24,1.57,2.74l8.4-4.87
					C203.9,55.25,203.2,54.04,203.2,53.02z"/>
			</defs>
			<clipPath id="SVGID_3_">
				<use xlink:href="#SVGID_2_"  style="overflow:visible;"/>
			</clipPath>
			<g class="st23">
				<path class="st24" d="M196.38,60.64l8.4-4.87c-0.19-0.12-0.36-0.25-0.53-0.41l-8.39,4.88
					C196.02,60.39,196.19,60.54,196.38,60.64L196.38,60.64z"/>
				<path class="st25" d="M195.86,60.23l8.39-4.88c-0.06-0.06-0.12-0.12-0.17-0.19l-8.4,4.88
					C195.74,60.11,195.79,60.17,195.86,60.23L195.86,60.23z"/>
				<path class="st26" d="M195.68,60.05l8.4-4.88c-0.05-0.05-0.09-0.1-0.13-0.16l-8.39,4.89C195.59,59.95,195.63,60,195.68,60.05
					L195.68,60.05z"/>
				<path class="st27" d="M195.55,59.9l8.39-4.89c-0.04-0.04-0.07-0.09-0.1-0.14l-8.4,4.88C195.48,59.8,195.51,59.84,195.55,59.9
					L195.55,59.9z"/>
				<path class="st28" d="M195.45,59.75l8.4-4.88c-0.03-0.05-0.06-0.09-0.09-0.14l-8.4,4.88C195.38,59.66,195.42,59.71,195.45,59.75
					L195.45,59.75z"/>
				<path class="st29" d="M195.36,59.62l8.4-4.88c-0.03-0.04-0.06-0.08-0.09-0.13l-8.4,4.88C195.3,59.53,195.33,59.57,195.36,59.62
					L195.36,59.62z"/>
				<path class="st30" d="M195.27,59.48l8.4-4.88c-0.02-0.04-0.05-0.09-0.08-0.13l-8.39,4.88
					C195.23,59.39,195.25,59.44,195.27,59.48L195.27,59.48z"/>
				<path class="st31" d="M195.2,59.35l8.39-4.88c-0.02-0.04-0.04-0.09-0.06-0.14l-8.4,4.88C195.15,59.26,195.17,59.3,195.2,59.35
					L195.2,59.35z"/>
				<path class="st32" d="M195.13,59.21l8.4-4.88c-0.02-0.04-0.05-0.09-0.07-0.14l-8.4,4.88C195.09,59.12,195.11,59.17,195.13,59.21
					L195.13,59.21z"/>
				<path class="st33" d="M195.07,59.08l8.4-4.88c-0.02-0.05-0.04-0.09-0.06-0.14l-8.4,4.88C195.03,58.99,195.05,59.03,195.07,59.08
					L195.07,59.08z"/>
				<path class="st34" d="M195.01,58.93l8.4-4.88c-0.02-0.05-0.03-0.1-0.05-0.15l-8.4,4.88C194.97,58.83,194.99,58.89,195.01,58.93
					L195.01,58.93z"/>
				<path class="st35" d="M194.96,58.79l8.4-4.88c-0.02-0.05-0.03-0.11-0.05-0.16l-8.4,4.88C194.92,58.68,194.94,58.73,194.96,58.79
					L194.96,58.79z"/>
				<path class="st36" d="M194.9,58.62l8.4-4.88c-0.02-0.06-0.03-0.13-0.04-0.18l-8.4,4.87C194.88,58.5,194.89,58.56,194.9,58.62
					L194.9,58.62z"/>
				<path class="st37" d="M194.86,58.44l8.4-4.87c-0.02-0.08-0.03-0.15-0.04-0.23l-8.4,4.88C194.83,58.29,194.84,58.37,194.86,58.44
					L194.86,58.44z"/>
				<path class="st38" d="M194.82,58.22l8.4-4.88c-0.01-0.11-0.02-0.21-0.02-0.31c0.01-0.5,0.18-0.85,0.46-1.01l-8.39,4.88
					c-0.28,0.16-0.46,0.52-0.46,1.01C194.8,58,194.81,58.12,194.82,58.22L194.82,58.22z"/>
			</g>
		</g>
		<g class="st2">
			<defs>
				<path id="SVGID_4_" class="st2" d="M203.66,52.01c-0.13,0.07-0.29,0.16-0.42,0.24c-2.66,1.54-5.32,3.09-7.97,4.64
					c0.29-0.17,0.69-0.15,1.13,0.11l8.4-4.88C204.35,51.87,203.95,51.84,203.66,52.01z"/>
			</defs>
			<clipPath id="SVGID_5_">
				<use xlink:href="#SVGID_4_"  style="overflow:visible;"/>
			</clipPath>
			<g class="st39">
				<path class="st40" d="M196.39,57l8.4-4.88c-0.07-0.04-0.15-0.08-0.22-0.11l-8.4,4.88C196.24,56.91,196.31,56.95,196.39,57
					L196.39,57z"/>
				<path class="st41" d="M196.17,56.89l8.4-4.88c-0.07-0.03-0.13-0.05-0.19-0.07l-8.4,4.88C196.04,56.84,196.1,56.86,196.17,56.89
					L196.17,56.89z"/>
				<path class="st42" d="M195.98,56.82l8.4-4.88c-0.04-0.02-0.1-0.02-0.14-0.03l-8.4,4.88C195.89,56.8,195.93,56.81,195.98,56.82
					L195.98,56.82z"/>
				<path class="st43" d="M195.84,56.79l8.4-4.88c-0.04,0-0.08-0.01-0.12-0.01l-8.4,4.88C195.76,56.78,195.8,56.79,195.84,56.79
					L195.84,56.79z"/>
				<path class="st44" d="M195.72,56.78l8.4-4.88c-0.04,0-0.07,0-0.11,0l-8.39,4.88C195.65,56.78,195.69,56.78,195.72,56.78
					L195.72,56.78z"/>
				<path class="st45" d="M195.62,56.78l8.39-4.88c-0.03,0-0.06,0.01-0.09,0.01l-8.4,4.88C195.56,56.79,195.59,56.78,195.62,56.78
					L195.62,56.78z"/>
				<path class="st46" d="M195.52,56.79l8.4-4.88c-0.04,0.01-0.07,0.01-0.09,0.02l-8.4,4.88C195.47,56.8,195.49,56.8,195.52,56.79
					L195.52,56.79z"/>
				<path class="st47" d="M195.43,56.81l8.4-4.88c-0.03,0.01-0.06,0.01-0.09,0.03l-8.39,4.88
					C195.38,56.83,195.41,56.82,195.43,56.81L195.43,56.81z"/>
				<path class="st48" d="M195.35,56.84l8.39-4.88c-0.03,0.01-0.05,0.02-0.08,0.03l-8.4,4.88C195.3,56.87,195.33,56.85,195.35,56.84
					L195.35,56.84z"/>
				<path class="st49" d="M195.27,56.88l8.4-4.88c0,0-0.01,0-0.01,0.01L195.27,56.88L195.27,56.88L195.27,56.88z"/>
			</g>
		</g>
		<g>
			<polygon class="st19" points="230.61,80.4 239.01,75.53 204.78,55.77 196.38,60.64 			"/>
		</g>
		<g class="st2">
			<defs>
				<path id="SVGID_6_" class="st2" d="M240.14,75.64c-0.29,0.17-0.69,0.14-1.13-0.11l-8.4,4.88c0.45,0.26,0.84,0.28,1.14,0.12
					C234.26,79.05,237.62,77.11,240.14,75.64z"/>
			</defs>
			<clipPath id="SVGID_7_">
				<use xlink:href="#SVGID_6_"  style="overflow:visible;"/>
			</clipPath>
			<g class="st50">
				<path class="st33" d="M231.75,80.52l8.4-4.88c-0.01,0-0.01,0.01-0.01,0.01l-8.4,4.88C231.74,80.52,231.74,80.52,231.75,80.52
					L231.75,80.52z"/>
				<path class="st32" d="M231.74,80.52l8.4-4.88c-0.03,0.02-0.06,0.03-0.08,0.04l-8.4,4.88C231.68,80.55,231.71,80.54,231.74,80.52
					L231.74,80.52z"/>
				<path class="st31" d="M231.66,80.56l8.4-4.88c-0.03,0.01-0.06,0.03-0.08,0.03l-8.4,4.88C231.6,80.58,231.63,80.57,231.66,80.56
					L231.66,80.56z"/>
				<path class="st30" d="M231.57,80.59l8.4-4.88c-0.03,0.01-0.06,0.01-0.09,0.02l-8.4,4.88C231.51,80.6,231.55,80.6,231.57,80.59
					L231.57,80.59z"/>
				<path class="st29" d="M231.48,80.61l8.4-4.88c-0.03,0.01-0.06,0.01-0.1,0.01l-8.4,4.88C231.42,80.62,231.45,80.62,231.48,80.61
					L231.48,80.61z"/>
				<path class="st28" d="M231.39,80.62l8.4-4.88c-0.03,0-0.07,0-0.1,0l-8.39,4.88C231.32,80.63,231.36,80.63,231.39,80.62
					L231.39,80.62z"/>
				<path class="st27" d="M231.29,80.62l8.39-4.88c-0.04,0-0.08,0-0.11-0.01l-8.4,4.88C231.2,80.62,231.25,80.62,231.29,80.62
					L231.29,80.62z"/>
				<path class="st26" d="M231.17,80.61l8.4-4.88c-0.05-0.01-0.1-0.01-0.14-0.03l-8.4,4.88C231.07,80.59,231.12,80.6,231.17,80.61
					L231.17,80.61z"/>
				<path class="st25" d="M231.02,80.58l8.4-4.88c-0.07-0.02-0.13-0.04-0.19-0.07l-8.4,4.88C230.9,80.55,230.96,80.56,231.02,80.58
					L231.02,80.58z"/>
				<path class="st24" d="M230.84,80.51l8.4-4.88c-0.08-0.03-0.15-0.07-0.23-0.11l-8.4,4.88C230.69,80.45,230.76,80.49,230.84,80.51
					L230.84,80.51z"/>
			</g>
		</g>
		<g>
			<polygon class="st21" points="230.62,76.76 239.02,71.88 204.79,52.12 196.39,57 			"/>
		</g>
		<g class="st2">
			<defs>
				<path id="SVGID_8_" class="st2" d="M231.75,80.52c2.8-1.63,5.59-3.25,8.4-4.88c0.28-0.16,0.46-0.52,0.46-1.02
					c0-1-0.7-2.22-1.58-2.73l-8.4,4.88c0.88,0.51,1.59,1.73,1.58,2.74C232.2,80,232.03,80.36,231.75,80.52z"/>
			</defs>
			<clipPath id="SVGID_9_">
				<use xlink:href="#SVGID_8_"  style="overflow:visible;"/>
			</clipPath>
			<g class="st51">
				<path class="st52" d="M231.75,80.52l8.4-4.88c0.28-0.16,0.46-0.52,0.46-1.02c0-0.1,0-0.2-0.02-0.31l-8.4,4.88
					c0.01,0.1,0.02,0.21,0.02,0.32C232.2,80,232.03,80.36,231.75,80.52L231.75,80.52z"/>
				<path class="st53" d="M232.19,79.18l8.4-4.88c-0.01-0.07-0.02-0.15-0.04-0.22l-8.4,4.87C232.17,79.05,232.18,79.12,232.19,79.18
					L232.19,79.18z"/>
				<path class="st54" d="M232.15,78.96l8.4-4.87c-0.02-0.06-0.03-0.12-0.05-0.18l-8.39,4.88
					C232.12,78.85,232.13,78.91,232.15,78.96L232.15,78.96z"/>
				<path class="st55" d="M232.1,78.79l8.39-4.88c-0.02-0.05-0.03-0.11-0.05-0.16l-8.39,4.87C232.07,78.68,232.09,78.74,232.1,78.79
					L232.1,78.79z"/>
				<path class="st56" d="M232.06,78.62l8.39-4.87c-0.01-0.05-0.03-0.1-0.05-0.15l-8.4,4.88C232.02,78.52,232.04,78.58,232.06,78.62
					L232.06,78.62z"/>
				<path class="st49" d="M232,78.48l8.4-4.88c-0.02-0.05-0.03-0.09-0.06-0.14l-8.4,4.88C231.97,78.38,231.98,78.43,232,78.48
					L232,78.48z"/>
				<path class="st48" d="M231.94,78.33l8.4-4.88c-0.02-0.04-0.04-0.09-0.06-0.14l-8.4,4.88C231.9,78.24,231.93,78.29,231.94,78.33
					L231.94,78.33z"/>
				<path class="st47" d="M231.88,78.2l8.4-4.88c-0.02-0.04-0.05-0.09-0.07-0.14l-8.39,4.88C231.83,78.11,231.86,78.16,231.88,78.2
					L231.88,78.2z"/>
				<path class="st46" d="M231.81,78.06l8.39-4.88c-0.02-0.04-0.05-0.09-0.07-0.14l-8.4,4.89
					C231.76,77.98,231.79,78.02,231.81,78.06L231.81,78.06z"/>
				<path class="st45" d="M231.74,77.93l8.4-4.89c-0.03-0.04-0.06-0.09-0.08-0.13l-8.4,4.88C231.68,77.84,231.71,77.88,231.74,77.93
					L231.74,77.93z"/>
				<path class="st44" d="M231.66,77.8l8.4-4.88c-0.03-0.05-0.06-0.09-0.09-0.14l-8.39,4.87C231.6,77.7,231.63,77.75,231.66,77.8
					L231.66,77.8z"/>
				<path class="st43" d="M231.57,77.65l8.39-4.87c-0.03-0.05-0.07-0.1-0.1-0.14l-8.4,4.88C231.5,77.56,231.53,77.61,231.57,77.65
					L231.57,77.65z"/>
				<path class="st42" d="M231.46,77.52l8.4-4.87c-0.05-0.06-0.09-0.11-0.13-0.16l-8.4,4.88C231.37,77.41,231.42,77.46,231.46,77.52
					L231.46,77.52z"/>
				<path class="st41" d="M231.33,77.36l8.4-4.88c-0.06-0.07-0.11-0.13-0.17-0.19l-8.4,4.88C231.22,77.23,231.28,77.3,231.33,77.36
					L231.33,77.36z"/>
				<path class="st40" d="M231.16,77.18l8.4-4.88c-0.17-0.17-0.35-0.31-0.54-0.41l-8.4,4.88C230.81,76.87,230.99,77.01,231.16,77.18
					L231.16,77.18z"/>
			</g>
		</g>
		<g>
			<path class="st3" d="M196.39,57c-0.88-0.5-1.58-0.1-1.59,0.91c-0.01,1.01,0.7,2.24,1.57,2.74l34.23,19.76
				c0.89,0.51,1.59,0.11,1.59-0.91c0.01-1.01-0.7-2.23-1.58-2.74L196.39,57z"/>
		</g>
		<g>
			<path class="st20" d="M245.94,80.15c3.6,2.08,6.51,7.12,6.5,11.25l-0.02,5.81l-79.41-45.84l0.01-5.82
				c0.01-4.13,2.94-5.81,6.53-3.72L245.94,80.15z M196.38,60.64l34.23,19.76c0.89,0.51,1.59,0.11,1.59-0.91
				c0.01-1.01-0.7-2.23-1.58-2.74L196.39,57c-0.88-0.5-1.58-0.1-1.59,0.91C194.8,58.91,195.5,60.14,196.38,60.64L196.38,60.64z"/>
		</g>
		<path class="st3" d="M178.48,41.31c-0.15-0.06-0.31-0.11-0.46-0.16c-0.1-0.03-0.19-0.05-0.28-0.08c-0.09-0.02-0.18-0.04-0.27-0.06
			c-0.11-0.02-0.23-0.04-0.34-0.05c-0.07-0.01-0.13-0.02-0.19-0.02c-0.15-0.01-0.28-0.01-0.42-0.01c-0.03,0-0.06,0-0.09,0
			c-0.17,0.01-0.32,0.03-0.47,0.06c-0.04,0.01-0.08,0.02-0.12,0.03c-0.12,0.03-0.23,0.06-0.35,0.1c-0.03,0.01-0.07,0.03-0.11,0.04
			c-0.15,0.06-0.29,0.12-0.42,0.21c2.8-1.63,5.59-3.25,8.4-4.88c0.01-0.01,0.02-0.01,0.03-0.02c0.11-0.06,0.21-0.11,0.33-0.16
			c0.02-0.01,0.05-0.02,0.06-0.02c0.04-0.02,0.08-0.03,0.12-0.04c0.05-0.03,0.11-0.05,0.17-0.07c0.06-0.01,0.12-0.03,0.19-0.04
			c0.03-0.01,0.07-0.02,0.12-0.03c0.02,0,0.04-0.01,0.06-0.01c0.13-0.03,0.26-0.04,0.39-0.05c0.01,0,0.02,0,0.02,0
			c0.04,0,0.07,0,0.11,0c0.1-0.01,0.2-0.01,0.3,0c0.04,0,0.07,0.01,0.11,0.01c0.06,0,0.13,0.01,0.2,0.01
			c0.06,0.01,0.12,0.01,0.19,0.02c0.05,0.01,0.11,0.03,0.16,0.04c0.09,0.02,0.17,0.04,0.26,0.06c0.05,0.01,0.1,0.02,0.15,0.03
			c0.05,0.01,0.1,0.04,0.15,0.05c0.15,0.05,0.3,0.1,0.46,0.16c0.06,0.02,0.1,0.03,0.16,0.05c0.03,0.01,0.06,0.03,0.09,0.04
			c0.27,0.12,0.54,0.25,0.82,0.41l66.38,38.33c0.34,0.2,0.69,0.44,1.01,0.69c0.06,0.04,0.11,0.08,0.17,0.12
			c0.32,0.25,0.62,0.52,0.92,0.81c0.02,0.03,0.05,0.04,0.08,0.07c0.04,0.04,0.09,0.1,0.13,0.15c0.15,0.15,0.3,0.31,0.44,0.46
			c0.05,0.05,0.09,0.1,0.14,0.14c0.04,0.04,0.07,0.09,0.11,0.14c0.08,0.1,0.17,0.21,0.26,0.32c0.06,0.07,0.11,0.13,0.16,0.2
			c0.04,0.06,0.09,0.11,0.13,0.17c0.06,0.08,0.12,0.16,0.18,0.24c0.04,0.06,0.09,0.12,0.12,0.18c0.07,0.1,0.14,0.2,0.21,0.3
			c0.04,0.06,0.08,0.12,0.12,0.18c0.02,0.03,0.04,0.05,0.06,0.08c0.11,0.17,0.23,0.36,0.34,0.55c0.01,0.02,0.02,0.03,0.02,0.04
			c0.02,0.03,0.03,0.06,0.05,0.09c0.08,0.14,0.15,0.28,0.23,0.41c0.04,0.06,0.07,0.13,0.1,0.19c0.03,0.06,0.07,0.12,0.09,0.18
			c0.03,0.06,0.07,0.12,0.09,0.17c0.07,0.15,0.14,0.3,0.21,0.46c0.01,0.03,0.03,0.06,0.05,0.09c0,0.01,0,0.02,0.01,0.03
			c0.08,0.19,0.16,0.39,0.24,0.58c0.02,0.04,0.03,0.08,0.04,0.11c0.03,0.07,0.06,0.14,0.08,0.22c0.04,0.1,0.07,0.19,0.11,0.29
			c0.02,0.07,0.05,0.15,0.07,0.23c0.02,0.09,0.06,0.18,0.08,0.27c0.01,0.06,0.03,0.12,0.05,0.17c0.03,0.1,0.05,0.2,0.07,0.3
			c0.03,0.11,0.06,0.23,0.09,0.34c0.01,0.04,0.02,0.08,0.03,0.11c0.01,0.08,0.02,0.16,0.04,0.23c0.04,0.18,0.07,0.36,0.09,0.53
			c0.01,0.05,0.02,0.1,0.03,0.15c0,0.04,0,0.09,0.01,0.14c0.04,0.38,0.08,0.76,0.07,1.14l-0.01,5.81l-8.4,4.88l0.02-5.81
			c0-0.37-0.03-0.76-0.07-1.14c-0.01-0.09-0.03-0.18-0.04-0.27c-0.03-0.17-0.06-0.35-0.09-0.53c-0.02-0.12-0.05-0.23-0.07-0.35
			c-0.03-0.12-0.06-0.23-0.09-0.34c-0.04-0.15-0.08-0.3-0.12-0.45c-0.03-0.09-0.06-0.19-0.09-0.28c-0.05-0.18-0.11-0.34-0.17-0.51
			c-0.02-0.07-0.05-0.14-0.08-0.21c-0.09-0.24-0.19-0.48-0.29-0.72c-0.01-0.03-0.03-0.07-0.05-0.1c-0.09-0.21-0.19-0.4-0.28-0.6
			c-0.04-0.07-0.08-0.14-0.11-0.21c-0.1-0.19-0.2-0.37-0.3-0.56c-0.03-0.04-0.05-0.1-0.08-0.14c-0.13-0.23-0.27-0.45-0.41-0.66
			c-0.04-0.07-0.09-0.13-0.13-0.19c-0.1-0.16-0.21-0.31-0.32-0.46c-0.06-0.09-0.12-0.17-0.19-0.25c-0.1-0.13-0.2-0.25-0.29-0.38
			c-0.09-0.1-0.17-0.21-0.25-0.3c-0.08-0.1-0.16-0.19-0.25-0.28c-0.14-0.16-0.28-0.31-0.43-0.46c-0.08-0.08-0.15-0.15-0.22-0.22
			c-0.3-0.29-0.6-0.56-0.92-0.8c-0.06-0.04-0.12-0.09-0.18-0.13c-0.33-0.25-0.67-0.48-1.01-0.68l-66.38-38.32
			c-0.28-0.16-0.55-0.3-0.82-0.41C178.66,41.38,178.57,41.35,178.48,41.31z"/>
	</g>
	<g>
		<g>
			<path class="st57" d="M81.46,175.8c-12.59,7.27-12.65,19.06-0.14,26.33c12.5,7.27,32.85,7.27,45.44,0
				c12.59-7.27,12.65-19.06,0.14-26.31C114.39,168.54,94.05,168.54,81.46,175.8z"/>
		</g>
		<g>
			<path class="st58" d="M124.44,119.26c0,0,1.15-2.69,4.69-2.72C129.13,116.53,128.25,119.88,124.44,119.26z"/>
			<g>
				<path class="st59" d="M127.87,115.15c0,0,2.95,3.75,3.22,4.74c0.27,1,1.51,5.18-0.55,8.05c-1.12,1.55-1.75-0.6-2.06-3.42
					c-0.14-1.26,0.03-2.25-1.66-3.6c-1.22-0.98-2.59-2.97-3.11-4.01C123.18,115.87,127.87,115.15,127.87,115.15z"/>
				<path class="st60" d="M123.77,117.13c0.52,1.04,2.02,2.84,2.26,4.38c0.29,1.85,2.31,1.75,2.45,3.02
					c0.25,2.19,0.74,4.01,1.43,3.95c-0.31-1.65,1.61-2.92-0.49-6.74c-0.76-1.39-3.28-4.28-4.7-5.46
					C123.89,116.69,123.57,116.72,123.77,117.13z"/>
				<path class="st59" d="M124.93,116.26c0,0,0.64,5.35,1.07,6.93c0.43,1.6,1.39,2.52,1.58,2.17c0.2-0.35-0.81-5.13,0.92-5.02
					C129.42,120.4,125.19,117,124.93,116.26z"/>
			</g>
			<path class="st61" d="M111.98,73.16c0,0,5.36-1.24,7.59,9.4c2.23,10.66,2.23,14.82,3.8,18.48c1.57,3.65,5.76,15.49,5.76,15.49
				s-3.4,0.18-4.69,2.72c0,0-8.8-14.63-10.53-21.08C112.17,91.74,106.4,76.12,111.98,73.16z"/>
			<path class="st62" d="M123.37,101.04c-1.57-3.65-1.57-7.82-3.8-18.48c-1.21-5.78-3.35-8.06-5.05-8.93
				c-5.06,3.34,0.52,18.51,2.22,24.83c1.3,4.82,6.39,14.66,8.89,19.36c1.8-1.33,3.5-1.3,3.5-1.3S124.94,104.69,123.37,101.04z"/>
			<path class="st63" d="M106.62,176.25c0,0-1.43,3.33,0,4.18c1.43,0.86,1.62,1.81,3.9,1.63c2.29-0.2,1.96,0.57,2.74,1.42
				c0.78,0.85,8.86,4.37,10.38,2.66c1.52-1.72-2.75-3.71-4.27-4.71c-1.52-1-5.14-4.98-5.23-6.13
				C114.03,174.16,106.62,176.25,106.62,176.25z"/>
			<path class="st64" d="M106.62,180.43c1.43,0.86,1.62,1.81,3.9,1.63c2.29-0.2,1.96,0.57,2.74,1.42c0.78,0.85,8.86,4.37,10.38,2.66
				c0.52-0.59,0.36-1.2-0.13-1.8c-0.56,0.1-1.34,0.24-2.37,0.42c-2.37,0.41-5.44-2.33-6.62-3.35c-1.18-1.02-2.67-0.63-4.71-0.96
				c-2.04-0.35-1.76-3.47-1.76-3.47l-1.51-0.52C106.26,177.21,105.41,179.7,106.62,180.43z"/>
			<path class="st63" d="M92.21,187.05c0,0-0.6,3.93,0.91,6.06c1.51,2.14,4.83,5.81,6.27,5.64c1.44-0.16,1.66-0.81,1.66-0.81
				s0.6-3.2-0.45-6.39c-1.07-3.19-1.14-4.5-1.14-4.5H92.21z"/>
			<path class="st64" d="M93.12,193.11c1.33,1.87,4.06,4.94,5.67,5.55c-2.13-2.74,1.07-2.17-1.34-3.47c-3.29-1.8-1.18-3.29-2.66-3.7
				c-1.47-0.42-0.4-4.06-0.4-4.06l-0.8-0.36h-1.39C92.21,187.05,91.61,190.98,93.12,193.11z"/>
			<path class="st65" d="M109.69,123.08c0,0,6.79-0.73,9.05-5.75c0,0,0.62,11.09-0.75,23.94c-1.38,12.85-2.51,35.46-2.51,35.46
				s-4.39,4.14-8.92,0c0,0-1.27-14.93,0-23.2c0,0-0.85-14.48,0.56-21.73C108.54,124.56,109.69,123.08,109.69,123.08z"/>
			<path class="st66" d="M115.48,176.73c0,0,1.13-22.61,2.51-35.46c1.37-12.86,0.9-25.62,0.9-25.62c-1.66,3.69-5.9,6.74-7.96,7.21
				c0.16,4.91,0.62,19.37,0.54,24.18c-0.07,4.58-0.97,23.53-1.35,31.49C113.16,178.92,115.48,176.73,115.48,176.73z"/>
			<path class="st65" d="M93.74,122.32c0,0-0.65,7.51-0.79,19.2c-0.14,11.68-0.99,16.09-1.28,17.88
				c-0.28,1.79-1.28,21.34-0.71,27.05c0,0,3.69,5.69,9.51,0c0,0,0.99-20.05,1.98-24.61c0.99-4.56,6.55-26.72,8.79-34.68
				c0.99-3.5,1.22-4.84,1.22-4.84S102.68,129.35,93.74,122.32z"/>
			<path class="st66" d="M100.46,186.45c0,0,0.99-20.05,1.98-24.61c0.99-4.56,6.55-26.72,8.79-34.68c0.99-3.5,3.28-6.21,3.28-6.21
				s-6.43,4.5-11.99,4.49c-0.25,1.71-2.6,18.08-3.16,25.23c-0.54,7.09-5.4,32.04-4.09,38.3C96.71,189.02,98.46,188.41,100.46,186.45
				z"/>
			<path class="st62" d="M100.13,75.66c0,0-9.99,6.03-10.19,6.84c-0.21,0.82-2.76,2.93,1.73,11.76c0,0,5.85,9.53,3.96,19.6
				c-1.09,5.85-2.22,8.93-2.22,8.93s5.08,6.5,17.68,0.83c2.54-1.15,6.68-5.02,7.8-7.97c0,0-1.81-8.36-0.89-18.36
				c0.92-10,0.92-22.89-4.8-24.19C113.21,73.1,111.65,71.48,100.13,75.66z"/>
			<g>
				<path class="st59" d="M100.98,66.96c0,0,2.41,5.26-0.58,8.09c-1.66,1.59,0.94,6.36,6.59,6.88c0,0,2.59-0.23,2.48-1.17
					c-0.26-2.15,0.74-3.18,1.88-4.62C112.48,74.72,100.98,66.96,100.98,66.96z"/>
				<path class="st67" d="M100.39,75.05c-0.2,0.19-0.34,0.42-0.41,0.69c2.43-1.81,6.47-1.35,6.47-1.35l-4.4-6.69
					c-0.19-0.14-0.35-0.25-0.5-0.35l-0.24,0.5C101.85,69.48,102.62,72.94,100.39,75.05z"/>
				<g>
					<path class="st59" d="M100.23,64.11c0,0,0.39,6.53,4.29,10.06c3.45,3.14,7.68,5.5,9.22,1.03c1.22-3.55,4.45-12.58,1.51-14.94
						c-3.79-3.05-4.85-6.26-9.93-5.23C105.32,55.03,99.43,56.71,100.23,64.11z"/>
					<path class="st60" d="M100.23,64.11c0,0-0.34,5.5,4.26,10.14c0.98,0.99,2.31,1.87,3.34,2.5c-1.79-1.81-1.93-2.3-3.22-4.37
						c-1.28-2.07,2.51-0.76,0.57-5.85c-0.67-1.73,3.47,1.01,4.47,1.15c5.95,0.76,6.03-2.69,6.37-4.12c-0.02-0.65-0.1-1.26-0.22-1.83
						l-0.39-1.16c-0.05-0.11-0.11-0.22-0.16-0.31c-0.52-0.91-1.04-1.72-1.59-2.41c-2.55-0.34-9.78-1.3-9.93-1.28
						c-0.11,0-1.6,1.5-3.01,2.92C100.26,60.7,100.02,62.22,100.23,64.11z"/>
					<path class="st68" d="M101.89,70.62c0,0-4.12-5.15-1.47-11.21c0,0,1.68-4.95,7.42-4.74c2.75,0.09,7.42,1.25,8.63,7.01
						c0.38,1.8-0.14,5.26-6.55,2.5c-0.91-0.41-3.4-1.13-4.42-0.45c-1.03,0.67-1.36,2.17-1.12,3.53c0.2,1.19-0.82,1.15-0.92,0.9
						c-0.09-0.27-0.87-3.69-2.28-2.61C99.91,66.51,101.8,70.38,101.89,70.62z"/>
					<path class="st69" d="M101.89,70.62c-0.09-0.24-1.97-4.11-0.71-5.07c1.41-1.08,2.19,2.35,2.28,2.61c0.1,0.26,1.12,0.3,0.92-0.9
						c-0.23-1.36,0.1-2.86,1.12-3.53c0.93-0.61,3.1,0.11,4.42,0.45c-0.99-0.88-3.16-1.47-3.66-3.44c-0.67-2.63-1.97-4.01-3.3-4.66
						c-1.89,1.4-2.54,3.32-2.54,3.32C97.77,65.48,101.89,70.62,101.89,70.62z"/>
				</g>
				<path class="st68" d="M119.68,61c0,0-2.68,6.73-10.08,3.33c0,0-3.7-1.63-4.71-5.45c-0.22-0.82-0.92-2.23-2.21-2.57
					c0,0,2.52-2.6,7.79-1.4c2.48,0.57,4.7,3.41,5.28,3.9C116.33,59.3,117.63,61.18,119.68,61z"/>
			</g>
			<path class="st61" d="M89.94,82.51c-0.21,0.82-2.76,2.93,1.73,11.76c0,0,5.85,9.53,3.96,19.6c-1.09,5.85-2.22,8.93-2.22,8.93
				s2.53,3.21,8.42,3.14c1.44-8.65-0.26-23.92-1.08-34.46c-0.54-6.78-3.81-10.35-6.47-12.17C92.06,80.74,90.03,82.14,89.94,82.51z"
				/>
			<path class="st60" d="M111.43,84.32c0,0-0.25-4.19-1.01-4.96c-0.76-0.77,0.06-2.06,0.87-1.06c0.82,0.99,1.09,2.41,1.09,2.41
				s0.77-4.85-0.61-5.43c-1.38-0.58,3.86-0.11,4.61,2.18c0.76,2.28,2,4.65-2.12,9.12C114.26,86.58,112.29,86.21,111.43,84.32z"/>
			<path class="st61" d="M94.95,82.15c-2.77-1.59-8.17-0.33-5.35,6.59c2.83,6.92,15.05,22.82,18.84,22.44
				c3.79-0.36,2.41-7.94-0.6-12.35C104.84,94.43,97.54,83.64,94.95,82.15z"/>
			<path class="st61" d="M109.53,110.96c0,0,7.05-8.85,6.23-25.98c0,0-2.04,1.04-4.54-1C111.22,83.98,100.46,113.76,109.53,110.96z"
				/>
		</g>
	</g>
	<g class="st70">
		<linearGradient id="SVGID_10_" gradientUnits="userSpaceOnUse" x1="243.0235" y1="35.0365" x2="251.6216" y2="35.0365">
			<stop  offset="0" style="stop-color:#FFF3CA"/>
			<stop  offset="1" style="stop-color:#F8B5BA"/>
		</linearGradient>
		<path class="st71" d="M251.62,31.82v1.99l-2.02-1.17v-2.11c0-1.99-0.68-3.58-2.24-4.48c-1.53-0.88-2.24-0.09-2.24,1.89l0,11.66
			c0,1.98,0.71,3.59,2.24,4.47c1.56,0.9,2.24,0.1,2.24-1.89v-2.87l2.02,1.17v2.74c0,3.34-1.36,4.76-4.31,3.06
			c-2.92-1.69-4.29-4.68-4.29-8.02V26.85c0-3.34,1.37-4.76,4.29-3.07C250.26,25.48,251.62,28.47,251.62,31.82z"/>
		<linearGradient id="SVGID_11_" gradientUnits="userSpaceOnUse" x1="253.2631" y1="40.9579" x2="261.8629" y2="40.9579">
			<stop  offset="0" style="stop-color:#FFF3CA"/>
			<stop  offset="1" style="stop-color:#F8B5BA"/>
		</linearGradient>
		<path class="st72" d="M261.83,37.68v0.6l-2.02-1.17v-0.73c0-1.98-0.66-3.53-2.19-4.41c-1.53-0.88-2.18-0.09-2.18,1.86
			c0,4.95,6.41,9.12,6.41,15.33c0,3.34-1.39,4.71-4.31,3.03c-2.92-1.69-4.29-4.65-4.29-7.99v-1.26l1.99,1.15v1.39
			c0,1.99,0.71,3.56,2.24,4.44c1.53,0.88,2.24,0.13,2.24-1.86c0-4.92-6.39-9.08-6.39-15.29c0-3.4,1.37-4.73,4.23-3.07
			C260.47,31.38,261.83,34.34,261.83,37.68z"/>
		<linearGradient id="SVGID_12_" gradientUnits="userSpaceOnUse" x1="263.4233" y1="46.8238" x2="272.0232" y2="46.8238">
			<stop  offset="0" style="stop-color:#FFF3CA"/>
			<stop  offset="1" style="stop-color:#F8B5BA"/>
		</linearGradient>
		<path class="st73" d="M271.99,43.55v0.6l-2.02-1.16v-0.73c0-1.98-0.66-3.53-2.19-4.41c-1.53-0.88-2.18-0.09-2.18,1.86
			c0,4.95,6.41,9.12,6.41,15.33c0,3.34-1.39,4.71-4.31,3.03c-2.92-1.69-4.29-4.65-4.29-7.99v-1.26l1.99,1.15v1.39
			c0,1.98,0.71,3.56,2.24,4.44c1.53,0.89,2.24,0.13,2.24-1.86c0-4.92-6.39-9.08-6.39-15.29c0-3.4,1.37-4.73,4.23-3.07
			C270.63,37.24,271.99,40.2,271.99,43.55z"/>
	</g>
	<g class="st70">
		<linearGradient id="SVGID_13_" gradientUnits="userSpaceOnUse" x1="81.9256" y1="10.8121" x2="87.3295" y2="10.8121">
			<stop  offset="0" style="stop-color:#FFF3CA"/>
			<stop  offset="1" style="stop-color:#F8B5BA"/>
		</linearGradient>
		<path class="st74" d="M81.93,17.92c0.35,0.23,0.73,0.46,1.07,0.65c1.39,0.71,2.24,0.44,2.24-1.8V0l2.1,1.21v16.61
			c0,4.13-1.77,4.4-4.07,3.13c-0.49-0.28-0.87-0.47-1.34-0.8V17.92z"/>
		<linearGradient id="SVGID_14_" gradientUnits="userSpaceOnUse" x1="88.8887" y1="17.2021" x2="99.2883" y2="17.2021">
			<stop  offset="0" style="stop-color:#FFF3CA"/>
			<stop  offset="1" style="stop-color:#F8B5BA"/>
		</linearGradient>
		<path class="st75" d="M91.59,21.29l-0.74,4.02l-1.96-1.14l3.66-19.95l3.09,1.78l3.66,24.18l-2.13-1.23l-0.74-4.87L91.59,21.29z
			 M91.86,19.34l4.26,2.46L93.97,7.82L91.86,19.34z"/>
		<linearGradient id="SVGID_15_" gradientUnits="userSpaceOnUse" x1="99.7343" y1="21.3513" x2="110.0522" y2="21.3513">
			<stop  offset="0" style="stop-color:#FFF3CA"/>
			<stop  offset="1" style="stop-color:#F8B5BA"/>
		</linearGradient>
		<path class="st76" d="M101.89,9.62L105,30.61l3.08-17.42l1.97,1.13l-3.58,20l-3.14-1.81l-3.6-24.14L101.89,9.62z"/>
		<linearGradient id="SVGID_16_" gradientUnits="userSpaceOnUse" x1="110.4669" y1="29.6603" x2="120.8658" y2="29.6603">
			<stop  offset="0" style="stop-color:#FFF3CA"/>
			<stop  offset="1" style="stop-color:#F8B5BA"/>
		</linearGradient>
		<path class="st77" d="M113.17,33.75l-0.74,4.02l-1.96-1.13l3.66-19.95l3.08,1.78l3.66,24.18l-2.13-1.23L118,36.54L113.17,33.75z
			 M113.44,31.8l4.26,2.46l-2.16-13.98L113.44,31.8z"/>
	</g>
	<g class="st70">
		<linearGradient id="SVGID_17_" gradientUnits="userSpaceOnUse" x1="132.8412" y1="70.4485" x2="139.9725" y2="70.4485">
			<stop  offset="0" style="stop-color:#FFF3CA"/>
			<stop  offset="1" style="stop-color:#F8B5BA"/>
		</linearGradient>
		<path class="st78" d="M134.54,70.25v7.9l-1.69-0.98V59.6l1.69,0.98v7.91l3.74,2.16v-7.91l1.7,0.98l0,17.57l-1.69-0.98v-7.91
			L134.54,70.25z"/>
		<linearGradient id="SVGID_18_" gradientUnits="userSpaceOnUse" x1="141.1283" y1="74.4736" x2="148.4302" y2="74.4736">
			<stop  offset="0" style="stop-color:#FFF3CA"/>
			<stop  offset="1" style="stop-color:#F8B5BA"/>
		</linearGradient>
		<path class="st79" d="M143.93,83.58V67.79l-2.8-1.62v-1.78l7.3,4.22v1.78l-2.8-1.62v15.79L143.93,83.58z"/>
		<linearGradient id="SVGID_19_" gradientUnits="userSpaceOnUse" x1="149.5878" y1="80.8457" x2="159.2403" y2="80.8457">
			<stop  offset="0" style="stop-color:#FFF3CA"/>
			<stop  offset="1" style="stop-color:#F8B5BA"/>
		</linearGradient>
		<path class="st80" d="M155.22,90.07l-1.63-0.94l-2.52-15.44l0,14.01l-1.48-0.85l0-17.57l2.37,1.37l2.5,15.48l2.41-12.64l2.37,1.37
			v17.57l-1.61-0.93V77.36L155.22,90.07z"/>
		<linearGradient id="SVGID_20_" gradientUnits="userSpaceOnUse" x1="160.9844" y1="86.3838" x2="167.0269" y2="86.3838">
			<stop  offset="0" style="stop-color:#FFF3CA"/>
			<stop  offset="1" style="stop-color:#F8B5BA"/>
		</linearGradient>
		<path class="st81" d="M160.98,93.42V75.86l1.7,0.98v15.79l4.35,2.51v1.78L160.98,93.42z"/>
	</g>
	<g class="st70">
		<linearGradient id="SVGID_21_" gradientUnits="userSpaceOnUse" x1="57.2664" y1="119.1408" x2="65.7276" y2="119.1408">
			<stop  offset="0" style="stop-color:#FFF3CA"/>
			<stop  offset="1" style="stop-color:#F8B5BA"/>
		</linearGradient>
		<path class="st82" d="M65.73,124.47l-8.46-8.89v-1.76l8.46,0.88v1.8l-6.47-0.65l6.47,6.82V124.47z"/>
		<linearGradient id="SVGID_22_" gradientUnits="userSpaceOnUse" x1="67.2602" y1="123.1789" x2="76.6509" y2="123.1789">
			<stop  offset="0" style="stop-color:#FFF3CA"/>
			<stop  offset="1" style="stop-color:#F8B5BA"/>
		</linearGradient>
		<path class="st83" d="M76.65,114.86l-7.53,17.71l-1.86-1.07l7.54-17.71L76.65,114.86z"/>
		<linearGradient id="SVGID_23_" gradientUnits="userSpaceOnUse" x1="78.1858" y1="127.2167" x2="86.6464" y2="127.2167">
			<stop  offset="0" style="stop-color:#FFF3CA"/>
			<stop  offset="1" style="stop-color:#F8B5BA"/>
		</linearGradient>
		<path class="st84" d="M78.19,129.86l6.47,0.65l-6.47-6.82v-1.8l8.46,8.89v1.77l-8.46-0.89V129.86z"/>
	</g>
	<g class="st70">
		<linearGradient id="SVGID_24_" gradientUnits="userSpaceOnUse" x1="279.4294" y1="116.1345" x2="288.0275" y2="116.1345">
			<stop  offset="0" style="stop-color:#FFF3CA"/>
			<stop  offset="1" style="stop-color:#F8B5BA"/>
		</linearGradient>
		<path class="st85" d="M288.03,112.91v1.98l-2.02-1.17v-2.11c0-1.98-0.68-3.58-2.24-4.48c-1.53-0.88-2.24-0.09-2.24,1.89v11.66
			c0,1.99,0.71,3.6,2.24,4.48c1.56,0.9,2.24,0.09,2.24-1.89v-2.87l2.02,1.17v2.74c0,3.34-1.36,4.76-4.31,3.06
			c-2.92-1.69-4.29-4.68-4.29-8.02v-11.41c0-3.34,1.37-4.76,4.29-3.07C286.66,106.58,288.03,109.57,288.03,112.91z"/>
		<linearGradient id="SVGID_25_" gradientUnits="userSpaceOnUse" x1="289.5056" y1="122.333" x2="299.4969" y2="122.333">
			<stop  offset="0" style="stop-color:#FFF3CA"/>
			<stop  offset="1" style="stop-color:#F8B5BA"/>
		</linearGradient>
		<path class="st86" d="M297.8,120.42l-0.57,6.13l1.53,0.88l-0.16,1.67l-1.53-0.88l-0.6,6.3l-1.75-1.01l0.6-6.31l-2.48-1.43
			l-0.63,6.29l-1.75-1.01l0.63-6.29l-1.58-0.91l0.16-1.67l1.56,0.9l0.6-6.12l-1.61-0.93l0.16-1.67l1.58,0.91l0.49-5.14l1.75,1.01
			l-0.49,5.14l2.51,1.45l0.49-5.14l1.75,1.01l-0.49,5.14l1.53,0.88l-0.16,1.67L297.8,120.42z M296.06,119.41l-2.48-1.43l-0.6,6.12
			l2.51,1.45L296.06,119.41z"/>
	</g>
	<path class="st66" d="M245.58,178.68v-7.66l-8.97-5.18v-12.49l-13.53-7.81l-11.87-20.55v-7.63l11.93,6.89v-9.28l-11.93-6.89v-7.12
		l14.99,8.65c3.16,1.83,5.72,0.35,5.72-3.3c0-3.64-2.56-8.07-5.72-9.9l-31.12-17.97c-3.16-1.82-5.72-0.35-5.72,3.3
		c0,3.64,2.56,8.07,5.71,9.9l14.74,8.51v7.12l-11.69-6.75v9.28l11.69,6.75l0,7.92L198.51,131c-1.18-0.68-2.62-1.5-4.42-2.5
		c-3.33-1.85-6.65-3.64-8.08-4.4V98.97l8.01,4.62v1.6l3.61-0.32l-3.61-4.49v1.6l-9.39-5.42l0,28.42l0.72,0.38
		c4.39,2.34,9.1,4.92,12.56,6.9l11.92,20.65v9.96l-11.69-6.75v9.28l11.69,6.75v11.97l-12.32-7.11v10.07l26.27,15.17v-10.07
		l-12.56-7.25v-6.07l3.04,3.78v-1.6l12,6.93v3.03l19.33,11.16v-7.66l-8.97-5.18V173.5L245.58,178.68z M235.22,188.5l-8.97-5.18v3.03
		l-12-6.93v-1.6l-3.04,0.27v-5.13l11.93,6.89v-9.28l-11.93-6.89V154l11.87-6.85l12.14,7.01v10.88l-8.97-5.18v7.66l8.97,5.18V188.5z"
		/>
	<g>
		<g>
			<g>
				<path class="st59" d="M192.5,99.66c0,0,0.53-4.84,1.05-5.76c0.51-0.91,2.6-4.85,6.15-5.45c1.92-0.34,0.84,1.68-0.93,3.95
					c-0.81,1.03-1.63,1.62-1.37,3.81c0.19,1.59-0.23,4.03-0.6,5.15C196.42,102.48,192.5,99.66,192.5,99.66z"/>
				<path class="st60" d="M196.9,101.16c0.36-1.12,0.55-3.5,1.48-4.8c1.11-1.56-0.43-2.92,0.38-3.95c1.38-1.76,2.32-3.44,1.78-3.89
					c-0.95,1.42-3.25,0.97-4.46,5.24c-0.43,1.56-0.67,5.46-0.48,7.33C196.49,101.4,196.75,101.6,196.9,101.16z"/>
				<path class="st59" d="M195.42,100.96c0,0,3.36-4.34,4.18-5.8c0.82-1.46,0.79-2.83,0.39-2.71c-0.39,0.12-3.07,4.31-4.25,2.99
					C195.12,94.73,195.76,100.23,195.42,100.96z"/>
			</g>
			<path class="st61" d="M162.22,121.37c0,0,0.41,6.07,8.08,3.96c7.67-2.11,21.48-7.73,23.25-11.43c1.77-3.7,3.57-13.64,3.57-13.64
				s-3.74,1.24-5.13-1.8l-6.07,12.32C185.92,110.78,161.84,117.14,162.22,121.37z"/>
			<path class="st62" d="M162.22,121.37c-0.38-4.23,23.7-10.59,23.7-10.59l6.07-12.32c0.51,1.13,1.36,1.67,2.2,1.9
				c-0.64,3.15-1.89,8.8-3.13,11.39c-1.76,3.7-15.58,9.32-23.25,11.43c-2.23,0.61-3.83,0.52-5,0.11
				C162.28,122.29,162.22,121.37,162.22,121.37z"/>
		</g>
		<g class="st87">
			<path class="st88" d="M155.31,219.76c-11.98,6.91-12.04,18.13-0.13,25.04c11.89,6.91,31.24,6.91,43.22,0
				c11.97-6.91,12.03-18.13,0.14-25.04C186.64,212.85,167.29,212.85,155.31,219.76z"/>
		</g>
		<path class="st63" d="M174.71,220.32c0,0,2.88,0.44,2.18,2.09c-0.7,1.66-4.01,4.19-4.45,5.25c-0.44,1.05-3.14,4.8-4.02,4.45
			c-0.88-0.35-3.15,0.18-2.88-4.11C165.81,223.73,170.87,220.15,174.71,220.32z"/>
		<path class="st63" d="M180.21,236.03c0,0-1.4,4.1,2.09,5.07c3.49,0.96,2.45-1.22,10.04,0.69c7.6,1.92,8.47-2,8.29-2.88
			c-0.17-0.87-5.23-2.44-6.9-2.88c-1.65-0.43-4.8-1.22-4.8-1.22h-9L180.21,236.03z"/>
		<path class="st89" d="M165.87,164c0,0-0.05,24.78-0.05,27.57c0,2.79-3.12,24.78-1.24,34.39c0,0,5.4,5.42,10.19,0
			c0,0,1.52-27.53,2.91-33.74c1.38-6.21,0.92-25.22,0.92-25.22L165.87,164z"/>
		<path class="st89" d="M175.35,167.52c0,0,1.23,16,2.5,31.87c0,0,0.8,31.49,1.54,36.02c0,0,10.16,2.52,11.17-2.26
			c0,0-0.25-27.72,0-33.51c0.26-5.8,0.86-21.95-1.43-31.28C186.84,159.05,175.35,167.52,175.35,167.52z"/>
		<path class="st90" d="M179.39,235.42c-0.75-4.53-1.54-36.02-1.54-36.02c-0.86-10.69-1.69-21.42-2.15-27.3l6.27,1.54
			c0,0,4.52,11.87,3.83,29.68c-0.54,13.78-0.76,27.33-0.84,32.77C182.18,236.11,179.39,235.42,179.39,235.42z"/>
		<path class="st90" d="M164.58,225.96c-1.87-9.61,1.24-31.59,1.24-34.39c0-2.66,0.04-25.26,0.05-27.39l5.45,4.19
			c0,0,1.74,17.72,0,27.81c-1.58,9.18-0.56,27.06-1.33,32.18C166.97,228.36,164.58,225.96,164.58,225.96z"/>
		<path class="st62" d="M164.35,118.99c0,0-5.24,2.61-2.27,11.52c2.96,8.9,5.06,14.66,4.88,17.98c-0.18,3.31-1.39,14.49-2.1,16.76
			c0,0-0.87,7.33,15.88,11.7c0,0,13.79,1.39,11.53-7.68c-2.27-9.08-3.15-23.74-2.8-27.23c0.35-3.49,2.45-10.47-6.28-15.19
			C174.47,122.14,169.93,118.65,164.35,118.99z"/>
		<path class="st61" d="M189.49,142.03c-0.35,3.49,0.53,18.16,2.8,27.23c1.57,6.29-4.57,7.55-8.49,7.73
			c-1.26-4.05,0.86-11.28-2.04-20.12c-3.6-10.93-3.09-18.15-1.16-23.97c1.25-3.78,3.52-3.88,5.13-4.41
			C191.48,133.06,189.8,138.93,189.49,142.03z"/>
		<path class="st59" d="M170.55,114.6c0,0,0.56,4.65-1.04,7.56c-1.45,2.64,9.51,5.05,9.77,2.6c0.03-0.26-2.07-4.26,0.58-9.01
			C181.23,113.26,170.55,114.6,170.55,114.6z"/>
		<path class="st67" d="M169.56,122.32c1.19-2.16,1.19-5.29,1.1-6.75l8,3.97c0,0.01,0,0.01,0,0.02c-0.29,0.07-5.7,1.44-6.86,5.33
			C170.15,124.21,169.04,123.28,169.56,122.32z"/>
		<path class="st59" d="M182.09,102.24c0,0,1.7,4.23,1.36,7.86c-0.36,3.92,0.22,4.71-0.02,6.44c-0.1,0.74-0.16,1.87-0.89,2.57
			c-1.21,1.17-3.7,1.6-7.08,0.36c-4.08-1.5-8.38-7.11-6.64-12.15C170.58,102.28,175.95,98.13,182.09,102.24z"/>
		<path class="st60" d="M169.01,112.78c1.64-4.54,5.7-9.99,5.66-10.27c-0.02-0.18,1.32-1.02,2.85-1.93c1.44,0.09,2.97,0.6,4.56,1.65
			c0,0,0.45,1.13,0.84,2.73c-0.97,1.08-2.96,2.33-3.25,3.25c-0.7,2.17-0.3,5.47,0.34,6.92c0.65,1.46-1.97,3.59-1.42,4.88
			c0.03,0.06,0.03,0.12,0.02,0.17c-0.94-0.06-2-0.28-3.16-0.71C172.86,118.52,170.17,115.88,169.01,112.78z"/>
		<path class="st58" d="M182.68,100.96c1.33,0.76,1.21,3.17-2.36,4.91c-2.14,1.05-1.95,4.5-1.85,5.15c0.1,0.64,0.73,3.55,0.47,3.93
			c-0.5,0.72-2.18-1.53-2.98-1.37c-2.03,0.39-1.24,2.28,0.61,4.27c1.96,2.1-3.2,2.97-5.59,1.23c-1.26-0.92-1.73-1.47-3.4-4.79
			c-2.43-4.83-2.55-10.63,3.16-13.73C176.46,97.47,179.36,99.08,182.68,100.96z"/>
		<path class="st91" d="M170.98,119.08c-1.26-0.92-1.73-1.47-3.4-4.79c-2.43-4.83-3.26-10.61,2.45-13.71
			c5.7-3.09,8.04-2.29,11.35-0.41c0.32,0.18,2,0.95,1.88,1.79c-1.81,0.3-6.76,1.26-8.04,3.4c-1.57,2.62-3.32,1.77-3.18,5.03
			c0.12,3.14-0.69,7.25,4.59,9.02C174.68,120.82,171.91,119.75,170.98,119.08z"/>
		<path class="st92" d="M178.66,123.32l3.57,3.01c0,0-11.11,3.18-14.37-2.26c-0.46-0.77,0.1-3.36,2.04-3.84
			C169.9,120.22,170.27,124.65,178.66,123.32z"/>
		<path class="st93" d="M217.39,126.64c0,0,2.52-3.34,2.35-4.41c-0.18-1.07,1.25-1.64,1.34-0.36c0.08,1.29-0.52,2.61-0.52,2.61
			s2.23-3.35,2.67-4.79c0.77-2.55,3.22,2.16,2.5,4.47c-0.72,2.31-1.08,4.97-7.05,6.22C218.67,130.37,216.99,128.68,217.39,126.64z"
			/>
		<path class="st61" d="M180.45,130.4c0,0-2.74,5.43,4.93,7.53c7.67,2.1,22.42,4.31,25.83,2.04c3.41-2.28,10.03-9.91,10.03-9.91
			s-3.85-0.84-3.49-4.16l-11.51,7.49C206.24,133.38,182.28,126.56,180.45,130.4z"/>
		<path class="st62" d="M180.45,130.4c1.83-3.84,25.79,2.99,25.79,2.99l11.51-7.49c-0.13,1.23,0.32,2.12,0.93,2.76
			c-2.16,2.39-6.12,6.61-8.5,8.19c-3.41,2.28-18.16,0.07-25.83-2.03c-2.23-0.61-3.56-1.5-4.36-2.46
			C180.04,131.22,180.45,130.4,180.45,130.4z"/>
	</g>
</g>
</svg>
