<?xml version="1.0" encoding="utf-8"?>
<!-- Generator: Adobe Illustrator 25.1.0, SVG Export Plug-In . SVG Version: 6.00 Build 0)  -->
<svg version="1.1" id="Layer_1" xmlns="http://www.w3.org/2000/svg" xmlns:xlink="http://www.w3.org/1999/xlink" x="0px" y="0px"
	 viewBox="0 0 277.33 315.71" style="enable-background:new 0 0 277.33 315.71;" xml:space="preserve">
<style type="text/css">
	.st0{opacity:0.7;}
	.st1{opacity:0.5;}
	.st2{fill:#FFFFFF;}
	.st3{opacity:0.3;}
	.st4{fill:#FBD1CD;}
	.st5{enable-background:new    ;}
	.st6{opacity:0.1;}
	.st7{fill:#010101;}
	.st8{fill:#95C4DE;}
	.st9{fill:#AAD6EA;}
	.st10{fill:#E0F3FD;}
	.st11{opacity:0.5;fill:#E0F3FD;}
	.st12{fill:#C0C4D0;}
	.st13{fill:url(#SVGID_1_);}
	.st14{fill:url(#SVGID_2_);}
	.st15{fill:url(#SVGID_3_);}
	.st16{opacity:0.6;}
	.st17{fill:#E16CA9;}
	.st18{opacity:0.5;enable-background:new    ;}
	.st19{opacity:0;}
	.st20{fill:#FFDF76;}
	.st21{opacity:0.1429;}
	.st22{opacity:0.2857;}
	.st23{opacity:0.4286;}
	.st24{opacity:0.5714;}
	.st25{opacity:0.7143;}
	.st26{opacity:0.8571;}
	.st27{fill:#FACEE1;}
	.st28{fill:#ADDFE6;}
	.st29{opacity:0.6;fill:#FFEBC4;}
	.st30{opacity:0.6571;fill:#F9E9C7;}
	.st31{opacity:0.7143;fill:#F4E6CB;}
	.st32{opacity:0.7714;fill:#EFE4CE;}
	.st33{opacity:0.8286;fill:#EBE2D2;}
	.st34{opacity:0.8857;fill:#E6E0D5;}
	.st35{opacity:0.9429;fill:#E1DED9;}
	.st36{fill:#DCDCDC;}
	.st37{opacity:0.6;fill:url(#SVGID_4_);}
	.st38{fill:#141416;}
	.st39{fill:#EFB184;}
	.st40{fill:#E7A477;}
	.st41{fill:#93D9F8;}
	.st42{fill:#7FCFF4;}
	.st43{fill:#141C24;}
	.st44{fill:#5E53A3;}
	.st45{fill:#DC976A;}
</style>
<g>
	<g class="st0">
		<g class="st1">
			<path class="st2" d="M65.27,40.49c0.47,0.27,0.89,0.92,0.95,1.51l1.42,5.86c0.06,0.46,0.28,0.95,0.6,1.34
				c1.09,0.89,2.15,1.89,3.15,2.99c0.13-0.01,0.26-0.06,0.36-0.14l3.41-1.62c0.19-0.18,0.49-0.16,0.77,0.01
				c0.21,0.12,0.41,0.31,0.58,0.56l3.69,5.36c0.43,0.62,0.51,1.37,0.19,1.67l-2.09,3.53c-0.23,0.22-0.29,0.62-0.18,1.08
				c0.6,1.4,1.11,2.83,1.51,4.27c0.1,0.09,0.21,0.17,0.32,0.23c0.05,0.03,0.1,0.05,0.15,0.07l4.6,2.89
				c0.61,0.34,1.03,0.99,1.09,1.59l0.62,5.65c0.08,0.65-0.3,1-0.83,0.78l-4.39-0.88c-0.38-0.16-0.69-0.07-0.86,0.2
				c-0.23,1.12-0.57,2.15-1.02,3.04c0.07,0.2,0.17,0.4,0.3,0.59l3.11,5.7c0.42,0.62,0.51,1.36,0.18,1.67l-2.81,2.64
				c-0.2,0.18-0.49,0.17-0.78-0.01c-0.2-0.12-0.41-0.31-0.58-0.56l-4.1-4.76c-0.21-0.3-0.46-0.53-0.7-0.67
				c-0.11-0.07-0.23-0.11-0.34-0.14c-0.92,0.16-1.91,0.18-2.96,0.04c-0.04,0.15-0.06,0.32-0.03,0.51l-0.21,5.18
				c0.08,0.65-0.3,1-0.83,0.77l-4.6-1.93c-0.04-0.02-0.09-0.04-0.13-0.07c-0.47-0.27-0.89-0.92-0.95-1.52l-1.42-5.86
				c-0.05-0.47-0.28-0.95-0.6-1.34c-1.09-0.89-2.15-1.9-3.15-2.99c-0.14,0.01-0.26,0.05-0.36,0.14l-3.41,1.62
				c-0.19,0.18-0.48,0.16-0.77-0.01c-0.2-0.11-0.41-0.31-0.58-0.56l-3.69-5.36c-0.43-0.62-0.51-1.37-0.19-1.67l2.1-3.52
				c0.23-0.22,0.28-0.63,0.18-1.08c-0.6-1.4-1.1-2.83-1.5-4.27c-0.11-0.09-0.21-0.17-0.32-0.24c-0.05-0.03-0.1-0.05-0.14-0.07
				l-4.61-2.89c-0.05-0.02-0.09-0.04-0.14-0.07c-0.47-0.27-0.89-0.92-0.95-1.52l-0.62-5.66c-0.07-0.65,0.3-1,0.83-0.78l4.38,0.88
				c0.38,0.16,0.69,0.07,0.86-0.2c0.23-1.13,0.57-2.15,1.02-3.04c-0.08-0.2-0.17-0.4-0.31-0.58l-3.11-5.7
				c-0.42-0.62-0.51-1.37-0.18-1.67L50,38.86c0.19-0.18,0.48-0.16,0.78,0.01c0.2,0.12,0.41,0.31,0.58,0.56l4.11,4.77
				c0.21,0.3,0.45,0.53,0.69,0.67c0.12,0.06,0.23,0.11,0.34,0.14c0.92-0.17,1.91-0.18,2.96-0.05c0.04-0.14,0.06-0.32,0.04-0.51
				l0.21-5.18c-0.07-0.65,0.3-1,0.83-0.78l4.6,1.93C65.18,40.44,65.23,40.46,65.27,40.49z"/>
		</g>
		<g class="st1">
			<path class="st2" d="M68.14,27.49c0.05,0.46-0.21,0.71-0.58,0.55l-3.1-0.62c-0.27-0.11-0.49-0.05-0.61,0.14
				c-0.16,0.8-0.4,1.52-0.72,2.15c0.05,0.14,0.12,0.28,0.21,0.41l2.2,4.03c0.3,0.43,0.36,0.97,0.13,1.18l-1.99,1.86
				c-0.14,0.13-0.34,0.12-0.55-0.01c-0.15-0.08-0.29-0.22-0.42-0.4l-2.9-3.37c-0.14-0.21-0.32-0.37-0.49-0.47
				c-0.08-0.05-0.16-0.08-0.24-0.1c-0.65,0.12-1.35,0.13-2.09,0.03c-0.03,0.1-0.04,0.23-0.03,0.36l-0.15,3.66
				c0.05,0.46-0.21,0.71-0.58,0.55l-3.26-1.36c-0.03-0.02-0.06-0.03-0.1-0.05c-0.34-0.19-0.62-0.65-0.67-1.07l-1-4.14
				c-0.04-0.33-0.2-0.67-0.43-0.95c-0.77-0.63-1.52-1.34-2.23-2.11c-0.1,0.01-0.18,0.04-0.25,0.1l-2.41,1.15
				c-0.13,0.13-0.34,0.11-0.55-0.01c-0.14-0.08-0.29-0.22-0.41-0.39l-2.61-3.79c-0.3-0.44-0.36-0.97-0.13-1.18l1.49-2.49
				c0.16-0.15,0.2-0.44,0.13-0.77c-0.42-0.99-0.78-2-1.06-3.01c-0.08-0.07-0.14-0.12-0.23-0.17c-0.03-0.02-0.07-0.03-0.1-0.05
				l-3.26-2.04c-0.03-0.01-0.06-0.03-0.1-0.05c-0.34-0.2-0.62-0.65-0.67-1.07l-0.44-4c-0.05-0.46,0.21-0.71,0.59-0.55l3.1,0.62
				c0.27,0.11,0.49,0.05,0.61-0.14c0.16-0.8,0.41-1.52,0.72-2.15c-0.05-0.14-0.13-0.28-0.21-0.42l-2.2-4.03
				c-0.3-0.44-0.36-0.96-0.13-1.18l1.99-1.87c0.14-0.12,0.34-0.11,0.55,0.01c0.14,0.08,0.29,0.22,0.42,0.4l2.9,3.37
				c0.14,0.21,0.32,0.37,0.49,0.47c0.08,0.05,0.16,0.08,0.24,0.1c0.65-0.12,1.35-0.13,2.09-0.03c0.03-0.1,0.04-0.23,0.02-0.36
				l0.15-3.66c-0.05-0.46,0.21-0.71,0.59-0.55l3.26,1.36c0.43,0.24,0.72,0.69,0.77,1.12l1,4.15c0.04,0.32,0.2,0.67,0.42,0.94
				c0.78,0.63,1.52,1.34,2.23,2.11c0.09-0.01,0.18-0.04,0.25-0.1l2.41-1.15c0.13-0.12,0.34-0.11,0.54,0.01
				c0.14,0.08,0.29,0.22,0.42,0.4l2.61,3.79c0.3,0.44,0.36,0.97,0.13,1.18l-1.48,2.49c-0.17,0.15-0.21,0.44-0.13,0.76
				c0.42,0.99,0.78,2,1.06,3.01c0.08,0.06,0.15,0.12,0.23,0.17c0.03,0.02,0.07,0.04,0.1,0.05l3.25,2.04
				c0.03,0.01,0.06,0.03,0.1,0.05c0.34,0.2,0.63,0.65,0.68,1.08L68.14,27.49z M53.01,29.3c5.1,2.92,9.21,0.55,9.21-5.29
				c-0.01-5.82-4.1-12.89-9.15-15.81c-5.1-2.92-9.21-0.55-9.21,5.29C43.86,19.32,47.95,26.38,53.01,29.3L53.01,29.3z"/>
		</g>
		<g class="st1">
			<path class="st2" d="M89.68,44.55c0.03,0.31-0.14,0.47-0.39,0.36l-2.06-0.41c-0.18-0.07-0.32-0.03-0.41,0.09
				c-0.11,0.53-0.27,1.01-0.48,1.43c0.03,0.1,0.08,0.19,0.14,0.27l1.46,2.68c0.2,0.3,0.24,0.65,0.08,0.79l-1.89,1.38
				c-0.09,0.09-0.23,0.08-0.36,0c-0.1-0.06-0.2-0.15-0.28-0.27l-1.93-2.24c-0.13-0.19-0.09-0.38-0.2-0.45
				c-0.47,0.06-0.61,0.02-1.1-0.04c-0.02,0.07-0.03,0.15-0.02,0.24l-0.07,2.36c0.03,0.31-0.14,0.47-0.39,0.36l-2.16-0.91
				c-0.02-0.01-0.05-0.02-0.07-0.04c-0.23-0.13-0.42-0.4-0.45-0.68l-0.69-2.72c-0.02-0.22-0.13-0.45-0.28-0.62
				c-0.51-0.42-1.01-0.89-1.48-1.4c-0.06,0.01-0.12,0.03-0.17,0.07l-2.12,1.14c-0.09,0.08-0.23,0.08-0.36-0.01
				c-0.1-0.05-0.19-0.14-0.28-0.27l-1.74-2.52c-0.2-0.29-0.24-0.65-0.09-0.79l1.51-2.03c0.11-0.1,0.13-0.3,0.09-0.51
				c-0.28-0.66-0.52-1.33-0.71-2c-0.05-0.04-0.09-0.08-0.14-0.11c-0.02-0.01-0.05-0.03-0.07-0.04l-2.16-1.35
				c-0.29-0.16-0.49-0.46-0.52-0.75l-0.29-2.66c-0.03-0.31,0.14-0.47,0.39-0.37l2.06,0.41c0.18,0.07,0.32,0.03,0.41-0.09
				c0.1-0.53,0.27-1.01,0.48-1.43c-0.04-0.1-0.09-0.19-0.14-0.28l-2.31-3.56c-0.2-0.29-0.24-0.64-0.09-0.79l1.32-1.24
				c0.09-0.08,0.23-0.08,0.36,0c0.1,0.05,0.2,0.14,0.28,0.27l2.79,3.12c0.09,0.14,0.21,0.25,0.32,0.31
				c0.06,0.03,0.11,0.06,0.16,0.07c0.43-0.08,0.89-0.09,1.38-0.02c0.02-0.07,0.03-0.15,0.02-0.24l0.11-2.48
				c-0.03-0.3,0.21-0.48,0.46-0.38l2.08,0.87c0.29,0.16,0.48,0.47,0.51,0.74l0.67,2.85c0.03,0.22,0.13,0.45,0.28,0.63
				c0.51,0.42,0.42,0.38,0.9,0.89c0.06-0.01,1.48-1.04,1.54-1.09c0.09-0.08,0.23-0.08,0.36,0c0.1,0.06,0.19,0.14,0.28,0.27
				l2.55,3.29c0.2,0.29,0.24,0.64,0.08,0.78l-0.98,1.66c-0.1,0.1-0.13,0.29-0.09,0.51c0.28,0.66,0.52,1.33,0.71,2
				c0.05,0.05,0.1,0.08,0.15,0.12c0.02,0.01,0.05,0.02,0.07,0.03l2.16,1.36c0.28,0.16,0.48,0.46,0.51,0.74L89.68,44.55z
				 M79.62,45.75c3.4,1.94,6.13,0.36,6.13-3.52c0-3.87-2.73-8.57-6.08-10.51c-3.4-1.95-6.13-0.37-6.13,3.51
				C73.54,39.11,76.26,43.81,79.62,45.75L79.62,45.75z"/>
		</g>
	</g>
	<g>
		<g class="st3">
			<g>
				<polygon class="st4" points="178.76,242.94 170.97,247.47 169.2,246.44 175.37,242.86 173.14,242.39 174.21,241.43 
					177.24,242.06 				"/>
			</g>
			<g>
				<path class="st4" d="M170.96,238.28c2.1,1.21,1.05,2.77-1.08,4c-2.41,1.4-5.03,1.8-7.04,0.64c-2.03-1.17-1.11-2.73,1.08-4.02
					C166.17,237.59,168.93,237.11,170.96,238.28z M164.27,242.16c0.71,0.41,1.98,0.12,3.75-0.91c1.73-1,2.27-1.74,1.52-2.17
					c-0.67-0.39-1.97-0.16-3.78,0.9C163.97,241,163.55,241.74,164.27,242.16L164.27,242.16z"/>
			</g>
			<g>
				<path class="st4" d="M164.26,234.42c2.1,1.21,1.06,2.77-1.07,4.01c-2.41,1.4-5.04,1.8-7.05,0.64c-2.02-1.17-1.1-2.73,1.09-4.02
					C159.49,233.73,162.23,233.25,164.26,234.42z M157.58,238.29c0.7,0.41,1.98,0.12,3.75-0.91c1.72-1,2.26-1.75,1.52-2.18
					c-0.67-0.39-1.98-0.16-3.79,0.9C157.28,237.13,156.86,237.88,157.58,238.29L157.58,238.29z"/>
			</g>
			<g>
				<polygon class="st4" points="198.85,254.54 191.07,259.07 189.3,258.04 195.46,254.46 193.23,253.99 194.3,253.03 
					197.33,253.66 				"/>
			</g>
			<g>
				<path class="st4" d="M204.45,257.61c2.09,1.22,1.05,2.76-1.08,4c-2.41,1.4-5.04,1.8-7.04,0.64c-2.02-1.17-1.1-2.73,1.08-4.03
					C199.66,256.92,202.42,256.44,204.45,257.61z M197.75,261.49c0.71,0.41,1.98,0.11,3.75-0.92c1.73-1,2.26-1.74,1.52-2.18
					c-0.67-0.38-1.97-0.16-3.78,0.9C197.46,260.33,197.04,261.08,197.75,261.49L197.75,261.49z"/>
			</g>
			<g class="st5">
				<g>
					<path class="st4" d="M184.36,246.01c2.09,1.21,1.05,2.76-1.08,4c-2.41,1.4-5.04,1.8-7.04,0.65c-2.02-1.17-1.11-2.73,1.08-4.02
						C179.57,245.32,182.32,244.84,184.36,246.01z M177.66,249.89c0.71,0.41,1.98,0.12,3.75-0.91c1.73-1,2.27-1.74,1.52-2.18
						c-0.67-0.38-1.97-0.16-3.78,0.9C177.37,248.73,176.95,249.48,177.66,249.89L177.66,249.89z"/>
				</g>
				<g>
					<path class="st4" d="M191.05,249.88c2.1,1.21,1.06,2.76-1.08,4c-2.41,1.4-5.03,1.8-7.04,0.64c-2.02-1.17-1.11-2.73,1.08-4.02
						C186.26,249.19,189.02,248.71,191.05,249.88z M184.36,253.76c0.71,0.4,1.98,0.11,3.75-0.92c1.73-1,2.26-1.74,1.52-2.18
						c-0.67-0.38-1.97-0.16-3.78,0.9C184.07,252.6,183.65,253.34,184.36,253.76L184.36,253.76z"/>
				</g>
			</g>
			<g>
				<path class="st4" d="M211.14,261.48c2.1,1.21,1.05,2.76-1.08,4c-2.41,1.4-5.04,1.8-7.05,0.64c-2.02-1.17-1.1-2.73,1.08-4.02
					C206.36,260.79,209.12,260.31,211.14,261.48z M204.45,265.36c0.71,0.4,1.98,0.11,3.75-0.92c1.73-1,2.26-1.74,1.52-2.17
					c-0.67-0.39-1.98-0.16-3.78,0.9C204.15,264.2,203.74,264.95,204.45,265.36L204.45,265.36z"/>
			</g>
			<g>
				<polygon class="st4" points="232.34,273.88 224.55,278.4 222.78,277.38 228.95,273.79 226.71,273.33 227.78,272.36 230.82,273 
									"/>
			</g>
			<g class="st5">
				<g>
					<path class="st4" d="M217.84,265.35c2.1,1.21,1.05,2.77-1.08,4c-2.41,1.4-5.04,1.8-7.04,0.64c-2.03-1.17-1.11-2.74,1.08-4.03
						C213.06,264.66,215.82,264.18,217.84,265.35z M211.15,269.22c0.71,0.41,1.98,0.12,3.75-0.91c1.72-1.01,2.26-1.75,1.52-2.18
						c-0.67-0.38-1.97-0.16-3.78,0.9C210.85,268.06,210.43,268.81,211.15,269.22L211.15,269.22z"/>
				</g>
				<g>
					<polygon class="st4" points="225.64,270.01 217.85,274.53 216.08,273.51 222.25,269.92 220.02,269.46 221.09,268.5 
						224.12,269.13 					"/>
				</g>
			</g>
			<g>
				<path class="st4" d="M237.93,276.95c2.1,1.21,1.05,2.76-1.08,4c-2.41,1.4-5.04,1.8-7.04,0.64c-2.03-1.17-1.11-2.73,1.08-4.03
					C233.15,276.26,235.9,275.78,237.93,276.95z M231.23,280.82c0.71,0.41,1.99,0.12,3.77-0.91c1.72-1,2.26-1.74,1.52-2.18
					c-0.67-0.38-1.98-0.16-3.78,0.9C230.94,279.67,230.53,280.41,231.23,280.82L231.23,280.82z"/>
			</g>
			<g>
				<polygon class="st4" points="164.37,251.3 156.59,255.83 154.82,254.8 160.98,251.22 158.75,250.75 159.82,249.79 
					162.85,250.42 				"/>
			</g>
			<g>
				<polygon class="st4" points="171.07,255.17 163.29,259.69 161.52,258.67 167.68,255.09 165.45,254.62 166.52,253.65 
					169.55,254.29 				"/>
			</g>
			<g>
				<polygon class="st4" points="177.77,259.03 169.98,263.56 168.21,262.54 174.38,258.95 172.14,258.49 173.21,257.52 
					176.25,258.16 				"/>
			</g>
			<g>
				<path class="st4" d="M183.36,262.11c2.1,1.21,1.06,2.77-1.08,4c-2.41,1.4-5.04,1.8-7.04,0.64c-2.03-1.17-1.11-2.73,1.08-4.03
					C178.58,261.42,181.33,260.94,183.36,262.11z M176.67,265.98c0.71,0.41,1.98,0.12,3.75-0.91c1.73-1,2.26-1.75,1.52-2.17
					c-0.67-0.39-1.97-0.16-3.78,0.9C176.38,264.82,175.96,265.57,176.67,265.98L176.67,265.98z"/>
			</g>
			<g>
				<path class="st4" d="M210.15,277.57c2.1,1.21,1.05,2.77-1.08,4c-2.41,1.4-5.04,1.8-7.04,0.64c-2.03-1.17-1.11-2.73,1.07-4.02
					C205.37,276.88,208.12,276.4,210.15,277.57z M203.46,281.45c0.71,0.41,1.99,0.12,3.76-0.91c1.72-1,2.26-1.74,1.52-2.17
					c-0.67-0.39-1.98-0.17-3.78,0.9C203.17,280.29,202.75,281.04,203.46,281.45L203.46,281.45z"/>
			</g>
			<g>
				<polygon class="st4" points="204.56,274.5 196.77,279.02 195,278.01 201.17,274.42 198.93,273.95 200,272.98 203.04,273.62 				
					"/>
			</g>
			<g>
				<path class="st4" d="M196.75,269.84c2.11,1.21,1.06,2.77-1.08,4c-2.41,1.4-5.04,1.8-7.04,0.64c-2.02-1.17-1.11-2.73,1.08-4.02
					C191.97,269.15,194.73,268.67,196.75,269.84z M190.07,273.72c0.71,0.41,1.98,0.12,3.75-0.91c1.73-1,2.26-1.74,1.52-2.17
					c-0.67-0.39-1.97-0.16-3.78,0.9C189.77,272.56,189.35,273.31,190.07,273.72L190.07,273.72z"/>
			</g>
			<g>
				<path class="st4" d="M190.06,265.97c2.09,1.21,1.05,2.77-1.08,4c-2.41,1.4-5.04,1.8-7.04,0.64c-2.02-1.17-1.1-2.73,1.08-4.02
					C185.28,265.28,188.03,264.8,190.06,265.97z M183.37,269.85c0.71,0.41,1.98,0.11,3.76-0.92c1.72-1,2.26-1.75,1.52-2.17
					c-0.67-0.39-1.97-0.16-3.78,0.9C183.07,268.69,182.65,269.44,183.37,269.85L183.37,269.85z"/>
			</g>
			<g>
				<path class="st4" d="M223.54,285.31c2.1,1.22,1.06,2.77-1.08,4c-2.41,1.4-5.04,1.8-7.04,0.64c-2.03-1.17-1.11-2.73,1.08-4.02
					C218.76,284.62,221.52,284.14,223.54,285.31z M216.85,289.18c0.72,0.42,2,0.12,3.77-0.91c1.73-1,2.26-1.75,1.52-2.17
					c-0.67-0.39-1.98-0.16-3.78,0.9C216.56,288.02,216.14,288.77,216.85,289.18L216.85,289.18z"/>
			</g>
			<g>
				<path class="st4" d="M216.85,281.44c2.1,1.21,1.05,2.77-1.08,4.01c-2.41,1.4-5.04,1.79-7.04,0.64
					c-2.03-1.17-1.11-2.74,1.08-4.03C212.06,280.75,214.82,280.27,216.85,281.44z M210.15,285.31c0.72,0.42,1.99,0.12,3.76-0.91
					c1.73-1,2.26-1.75,1.52-2.18c-0.67-0.39-1.97-0.16-3.78,0.9C209.86,284.16,209.45,284.9,210.15,285.31L210.15,285.31z"/>
			</g>
			<g>
				<path class="st4" d="M195.76,285.93c2.1,1.21,1.05,2.76-1.08,4c-2.41,1.4-5.04,1.8-7.05,0.65c-2.02-1.17-1.1-2.73,1.08-4.02
					C190.98,285.25,193.74,284.76,195.76,285.93z M189.07,289.81c0.71,0.4,1.99,0.12,3.76-0.92c1.72-1,2.26-1.74,1.52-2.17
					c-0.67-0.39-1.98-0.16-3.78,0.9C188.78,288.65,188.36,289.4,189.07,289.81L189.07,289.81z"/>
			</g>
			<g>
				<path class="st4" d="M209.16,293.67c2.1,1.21,1.05,2.77-1.08,4c-2.41,1.4-5.04,1.8-7.04,0.64c-2.03-1.17-1.11-2.73,1.08-4.02
					C204.37,292.98,207.13,292.5,209.16,293.67z M202.46,297.54c0.71,0.41,1.99,0.12,3.76-0.91c1.73-1,2.26-1.74,1.52-2.18
					c-0.67-0.39-1.98-0.16-3.78,0.9C202.17,296.39,201.75,297.13,202.46,297.54L202.46,297.54z"/>
			</g>
			<g>
				<path class="st4" d="M202.46,289.8c2.09,1.21,1.05,2.76-1.08,4c-2.41,1.4-5.04,1.8-7.04,0.64c-2.02-1.17-1.11-2.73,1.08-4.03
					C197.68,289.11,200.43,288.63,202.46,289.8z M195.76,293.67c0.72,0.41,2,0.12,3.77-0.91c1.72-1.01,2.26-1.75,1.52-2.18
					c-0.67-0.38-1.98-0.16-3.79,0.9C195.47,292.52,195.06,293.27,195.76,293.67L195.76,293.67z"/>
			</g>
			<g>
				<path class="st4" d="M189.06,282.07c2.1,1.21,1.05,2.77-1.08,4c-2.41,1.4-5.04,1.8-7.04,0.64c-2.02-1.17-1.1-2.73,1.08-4.02
					C184.28,281.38,187.04,280.9,189.06,282.07z M182.38,285.94c0.71,0.41,1.98,0.12,3.75-0.91c1.73-1,2.27-1.75,1.52-2.18
					c-0.67-0.39-1.97-0.16-3.78,0.9C182.08,284.79,181.67,285.53,182.38,285.94L182.38,285.94z"/>
			</g>
			<g>
				<polygon class="st4" points="183.48,279 175.69,283.52 173.91,282.5 180.08,278.91 177.85,278.45 178.92,277.48 181.95,278.12 
									"/>
			</g>
			<g>
				<polygon class="st4" points="176.78,275.13 168.99,279.65 167.21,278.63 173.39,275.04 171.15,274.58 172.22,273.61 
					175.26,274.25 				"/>
			</g>
			<g>
				<polygon class="st4" points="170.08,271.26 162.29,275.79 160.52,274.76 166.69,271.18 164.45,270.71 165.52,269.75 
					168.56,270.38 				"/>
			</g>
			<g>
				<path class="st4" d="M147.89,274.96c2.1,1.21,1.05,2.76-1.08,4c-2.41,1.4-5.03,1.8-7.04,0.64c-2.02-1.17-1.1-2.73,1.08-4.03
					C143.11,274.27,145.86,273.79,147.89,274.96z M141.2,278.84c0.71,0.41,1.99,0.12,3.76-0.92c1.72-1,2.26-1.74,1.52-2.17
					c-0.67-0.39-1.98-0.16-3.78,0.9C140.9,277.68,140.49,278.43,141.2,278.84L141.2,278.84z"/>
			</g>
			<g>
				<path class="st4" d="M141.19,271.1c2.1,1.21,1.05,2.76-1.08,4c-2.41,1.4-5.04,1.8-7.04,0.64c-2.03-1.17-1.11-2.73,1.08-4.02
					C136.41,270.4,139.17,269.92,141.19,271.1z M134.51,274.97c0.71,0.4,1.98,0.11,3.75-0.92c1.73-1,2.27-1.75,1.52-2.17
					c-0.67-0.39-1.97-0.16-3.78,0.9C134.21,273.81,133.79,274.56,134.51,274.97L134.51,274.97z"/>
			</g>
			<g>
				<path class="st4" d="M134.49,267.23c2.11,1.22,1.05,2.77-1.08,4c-2.41,1.4-5.04,1.8-7.04,0.64c-2.03-1.17-1.1-2.73,1.08-4.02
					C129.71,266.54,132.47,266.06,134.49,267.23z M127.81,271.1c0.71,0.41,1.99,0.12,3.76-0.91c1.72-1,2.26-1.75,1.52-2.17
					c-0.67-0.39-1.98-0.16-3.78,0.9C127.51,269.95,127.09,270.69,127.81,271.1L127.81,271.1z"/>
			</g>
			<g>
				<polygon class="st4" points="128.91,264.16 121.12,268.68 119.34,267.66 125.51,264.07 123.28,263.61 124.35,262.64 
					127.38,263.28 				"/>
			</g>
			<g>
				<path class="st4" d="M161.28,282.7c2.1,1.21,1.05,2.76-1.08,4c-2.41,1.39-5.04,1.79-7.04,0.64c-2.03-1.17-1.11-2.73,1.08-4.02
					C156.5,282,159.26,281.52,161.28,282.7z M154.6,286.57c0.71,0.4,1.98,0.11,3.75-0.92c1.73-1,2.27-1.74,1.52-2.17
					c-0.67-0.39-1.97-0.16-3.78,0.9C154.3,285.41,153.88,286.16,154.6,286.57L154.6,286.57z"/>
			</g>
			<g>
				<polygon class="st4" points="155.7,279.62 147.9,284.15 146.13,283.12 152.3,279.54 150.07,279.07 151.14,278.11 154.17,278.75 
									"/>
			</g>
			<g>
				<path class="st4" d="M167.98,286.56c2.11,1.21,1.06,2.76-1.08,4c-2.41,1.4-5.04,1.8-7.03,0.64c-2.03-1.17-1.11-2.73,1.08-4.02
					C163.2,285.87,165.95,285.39,167.98,286.56z M161.3,290.44c0.7,0.41,1.98,0.12,3.75-0.91c1.72-1,2.26-1.75,1.52-2.18
					c-0.67-0.38-1.97-0.16-3.78,0.9C161,289.28,160.58,290.03,161.3,290.44L161.3,290.44z"/>
			</g>
			<g>
				<path class="st4" d="M194.77,302.03c2.11,1.21,1.06,2.76-1.08,4c-2.41,1.4-5.04,1.8-7.04,0.65c-2.02-1.17-1.1-2.74,1.08-4.03
					C189.99,301.34,192.74,300.86,194.77,302.03z M188.08,305.9c0.71,0.41,1.99,0.12,3.77-0.91c1.72-1,2.26-1.74,1.52-2.17
					c-0.67-0.39-1.97-0.16-3.78,0.9C187.79,304.74,187.37,305.49,188.08,305.9L188.08,305.9z"/>
			</g>
			<g class="st5">
				<g>
					<path class="st4" d="M174.68,290.43c2.1,1.21,1.06,2.76-1.08,4c-2.41,1.4-5.04,1.8-7.04,0.64c-2.02-1.17-1.1-2.73,1.08-4.02
						C169.9,289.74,172.65,289.26,174.68,290.43z M167.99,294.31c0.71,0.41,1.98,0.11,3.75-0.92c1.73-1,2.27-1.74,1.52-2.17
						c-0.67-0.39-1.97-0.16-3.78,0.9C167.69,293.15,167.28,293.89,167.99,294.31L167.99,294.31z"/>
				</g>
				<g>
					<polygon class="st4" points="182.48,295.09 174.69,299.61 172.92,298.59 179.09,295 176.86,294.54 177.93,293.57 
						180.97,294.21 					"/>
				</g>
				<g>
					<path class="st4" d="M188.08,298.16c2.09,1.21,1.05,2.76-1.08,4c-2.41,1.4-5.04,1.8-7.04,0.64c-2.02-1.17-1.1-2.73,1.08-4.02
						C183.29,297.47,186.04,296.99,188.08,298.16z M181.38,302.03c0.72,0.41,2,0.12,3.77-0.91c1.72-1,2.26-1.74,1.52-2.17
						c-0.67-0.39-1.97-0.16-3.78,0.9C181.09,300.88,180.67,301.63,181.38,302.03L181.38,302.03z"/>
				</g>
			</g>
			<g>
				<path class="st4" d="M73.23,248.52c2.1,1.21,1.06,2.77-1.07,4.01c-2.41,1.4-5.04,1.8-7.05,0.64c-2.03-1.17-1.11-2.73,1.09-4.02
					C68.46,247.84,71.2,247.35,73.23,248.52z M66.54,252.4c0.71,0.4,1.98,0.11,3.75-0.91c1.73-1.01,2.27-1.75,1.52-2.18
					c-0.67-0.39-1.97-0.16-3.78,0.9C66.25,251.24,65.82,251.99,66.54,252.4L66.54,252.4z"/>
			</g>
			<g>
				<polygon class="st4" points="94.43,260.92 86.64,265.44 84.86,264.42 91.04,260.83 88.8,260.37 89.87,259.4 92.9,260.04 				"/>
			</g>
			<g>
				<path class="st4" d="M86.63,256.25c2.1,1.21,1.06,2.77-1.07,4.01c-2.41,1.4-5.04,1.8-7.05,0.64c-2.02-1.17-1.1-2.73,1.09-4.02
					C81.85,255.57,84.6,255.09,86.63,256.25z M79.93,260.13c0.71,0.41,1.98,0.12,3.76-0.92c1.72-1,2.26-1.74,1.52-2.17
					c-0.67-0.39-1.98-0.16-3.78,0.9C79.64,258.97,79.22,259.72,79.93,260.13L79.93,260.13z"/>
			</g>
			<g>
				<polygon class="st4" points="81.03,253.18 73.25,257.71 71.47,256.68 77.64,253.1 75.41,252.63 76.48,251.67 79.51,252.31 				
					"/>
			</g>
			<g>
				<polygon class="st4" points="101.12,264.78 93.34,269.31 91.56,268.28 97.73,264.7 95.5,264.24 96.57,263.27 99.6,263.91 				
					"/>
			</g>
			<g class="st5">
				<g>
					<path class="st4" d="M106.71,267.86c2.11,1.21,1.06,2.77-1.06,4.01c-2.41,1.4-5.04,1.8-7.05,0.64
						c-2.03-1.17-1.1-2.73,1.09-4.02C101.94,267.17,104.69,266.68,106.71,267.86z M100.03,271.73c0.71,0.41,1.99,0.11,3.76-0.92
						c1.72-1,2.26-1.74,1.52-2.17c-0.67-0.39-1.97-0.17-3.78,0.9C99.73,270.57,99.31,271.32,100.03,271.73L100.03,271.73z"/>
				</g>
				<g>
					<polygon class="st4" points="114.52,272.52 106.73,277.04 104.96,276.02 111.13,272.43 108.9,271.97 109.96,271 113,271.64 
											"/>
				</g>
			</g>
			<g>
				<polygon class="st4" points="121.22,276.38 113.43,280.91 111.65,279.89 117.82,276.3 115.59,275.84 116.66,274.87 119.7,275.5 
									"/>
			</g>
			<g>
				<path class="st4" d="M126.81,279.46c2.09,1.21,1.05,2.77-1.08,4c-2.41,1.4-5.04,1.8-7.04,0.64c-2.02-1.17-1.1-2.73,1.08-4.02
					C122.03,278.77,124.78,278.28,126.81,279.46z M120.12,283.33c0.71,0.41,1.98,0.11,3.75-0.92c1.73-1,2.27-1.74,1.52-2.17
					c-0.67-0.39-1.97-0.16-3.78,0.9C119.82,282.17,119.41,282.92,120.12,283.33L120.12,283.33z"/>
			</g>
			<g>
				<path class="st4" d="M146.9,291.05c2.11,1.21,1.05,2.77-1.08,4.01c-2.41,1.4-5.04,1.79-7.04,0.64c-2.03-1.17-1.1-2.74,1.08-4.03
					C142.12,290.37,144.87,289.88,146.9,291.05z M140.21,294.93c0.71,0.41,1.99,0.12,3.76-0.91c1.72-1,2.26-1.75,1.52-2.17
					c-0.67-0.39-1.98-0.16-3.79,0.9C139.91,293.77,139.5,294.52,140.21,294.93L140.21,294.93z"/>
			</g>
			<g>
				<polygon class="st4" points="141.31,287.99 133.52,292.51 131.75,291.48 137.92,287.9 135.69,287.43 136.75,286.47 
					139.79,287.11 				"/>
			</g>
			<g>
				<polygon class="st4" points="134.61,284.12 126.82,288.64 125.05,287.61 131.22,284.03 128.99,283.57 130.06,282.6 
					133.09,283.24 				"/>
			</g>
			<g>
				<polygon class="st4" points="154.7,295.72 146.91,300.24 145.14,299.22 151.31,295.63 149.08,295.17 150.15,294.2 
					153.18,294.84 				"/>
			</g>
			<g>
				<polygon class="st4" points="161.4,299.58 153.61,304.11 151.84,303.08 158,299.5 155.78,299.03 156.85,298.07 159.88,298.71 
									"/>
			</g>
			<g>
				<path class="st4" d="M173.69,306.52c2.1,1.21,1.05,2.77-1.08,4c-2.41,1.4-5.04,1.8-7.04,0.64c-2.03-1.17-1.11-2.73,1.08-4.02
					C168.91,305.83,171.66,305.35,173.69,306.52z M166.99,310.39c0.72,0.41,2,0.12,3.77-0.91c1.73-1,2.26-1.75,1.52-2.18
					c-0.67-0.38-1.97-0.16-3.78,0.9C166.7,309.24,166.29,309.99,166.99,310.39L166.99,310.39z"/>
			</g>
			<g>
				<polygon class="st4" points="168.09,303.45 160.31,307.98 158.54,306.95 164.7,303.37 162.47,302.9 163.54,301.93 
					166.58,302.57 				"/>
			</g>
			<g>
				<path class="st4" d="M180.39,310.39c2.1,1.21,1.05,2.77-1.08,4c-2.41,1.4-5.04,1.8-7.04,0.64c-2.02-1.17-1.1-2.73,1.08-4.02
					C175.6,309.7,178.36,309.22,180.39,310.39z M173.69,314.26c0.71,0.41,1.99,0.12,3.77-0.91c1.72-1.01,2.26-1.75,1.52-2.18
					c-0.67-0.39-1.98-0.16-3.78,0.9C173.4,313.1,172.98,313.85,173.69,314.26L173.69,314.26z"/>
			</g>
		</g>
		<g>
			<g class="st6">
				<polygon class="st7" points="277.33,218.92 218.36,253.19 82.18,174.57 142.58,139.06 				"/>
			</g>
			<g class="st5">
				<g>
					<polygon class="st8" points="222.79,213.39 222.77,219.91 190.97,238.39 191.01,231.86 					"/>
				</g>
				<g>
					<polygon class="st9" points="191.01,231.86 190.97,238.39 115.65,194.91 115.67,188.37 					"/>
				</g>
				<g>
					<polygon class="st10" points="222.79,213.39 191.01,231.86 115.67,188.37 147.46,169.89 					"/>
				</g>
				<g>
					<polygon class="st11" points="222.79,213.39 115.67,188.37 115.67,188.37 147.46,169.89 					"/>
				</g>
			</g>
			<g class="st5">
				<g>
					<polygon class="st8" points="193.43,219.7 199.08,216.41 199.25,157.64 193.61,160.92 					"/>
				</g>
				<g>
					<polygon class="st12" points="193.61,160.92 199.25,157.64 148.08,128.09 142.43,131.38 					"/>
				</g>
				<g>
					<polygon class="st9" points="142.43,131.38 142.25,190.16 193.43,219.7 193.61,160.92 					"/>
				</g>
			</g>
			<polygon class="st9" points="268.34,111.13 273.79,109.61 121.76,21.84 116.32,23.35 			"/>
			<polygon class="st10" points="116.32,23.35 92.93,138.63 244.96,226.41 268.34,111.13 			"/>
			
				<linearGradient id="SVGID_1_" gradientUnits="userSpaceOnUse" x1="285.3304" y1="42.7946" x2="216.7559" y2="200.4267" gradientTransform="matrix(-1 0 0 1 430.5727 0)">
				<stop  offset="0" style="stop-color:#FFF3CA"/>
				<stop  offset="1" style="stop-color:#F8B5BA"/>
			</linearGradient>
			<polygon class="st13" points="120.39,32.54 99.61,136.37 240.4,217.82 261.96,112.64 			"/>
		</g>
		<g>
			<g class="st6">
				<path class="st7" d="M73.71,233.53c-20.96,12.1-21.06,31.73-0.24,43.82c20.83,12.1,54.7,12.11,75.66,0.01
					c20.96-12.1,21.08-31.73,0.25-43.83C128.57,221.43,94.69,221.43,73.71,233.53z"/>
			</g>
			<g class="st6">
				<path class="st7" d="M73.71,233.53c-20.96,12.1-21.06,31.73-0.24,43.82c20.83,12.1,54.7,12.11,75.66,0.01
					c20.96-12.1,21.08-31.73,0.25-43.83C128.57,221.43,94.69,221.43,73.71,233.53z"/>
			</g>
			<g>
				<linearGradient id="SVGID_2_" gradientUnits="userSpaceOnUse" x1="108.9763" y1="242.7888" x2="106.3403" y2="289.1833">
					<stop  offset="0" style="stop-color:#F9DD8D"/>
					<stop  offset="0.35" style="stop-color:#E3B09C"/>
					<stop  offset="1" style="stop-color:#C057A1"/>
				</linearGradient>
				<path class="st14" d="M73.81,227.35c-19.39,11.19-19.49,29.35-0.23,40.54c19.27,11.2,50.61,11.21,70.01,0.01
					c19.4-11.19,19.5-29.36,0.23-40.56C124.56,216.15,93.2,216.15,73.81,227.35z"/>
			</g>
			<g>
				
					<linearGradient id="SVGID_3_" gradientUnits="userSpaceOnUse" x1="512.3625" y1="238.7156" x2="611.3712" y2="238.7156" gradientTransform="matrix(-1 0 0 1 670.5688 0)">
					<stop  offset="0" style="stop-color:#FFF3CA"/>
					<stop  offset="1" style="stop-color:#F8B5BA"/>
				</linearGradient>
				<path class="st15" d="M73.81,218.44c-19.39,11.2-19.49,29.35-0.23,40.55c19.27,11.2,50.61,11.2,70.01,0.01
					c19.4-11.2,19.5-29.36,0.23-40.56C124.56,207.24,93.2,207.24,73.81,218.44z"/>
			</g>
		</g>
		<polygon class="st8" points="244.96,226.39 250.43,224.86 273.79,109.59 268.34,111.11 		"/>
		<g class="st16">
			<g class="st1">
				<polygon class="st17" points="147.83,117.2 147.81,121.65 137.55,115.73 137.57,111.27 				"/>
			</g>
			<g>
				<polygon class="st17" points="158.04,137.75 158.04,142.23 137.51,130.37 137.52,125.9 				"/>
			</g>
			<g>
				<polygon class="st17" points="165.24,149.25 165.22,153.71 137.49,137.69 137.5,133.23 				"/>
			</g>
			<g>
				<polygon class="st17" points="169.64,144.44 169.63,148.92 160.87,143.87 160.88,139.38 				"/>
			</g>
			<g>
				<polygon class="st17" points="158.11,115.78 158.1,120.26 137.57,108.41 137.58,103.93 				"/>
			</g>
			<g>
				<polygon class="st17" points="170.96,137.87 170.95,142.33 137.52,123.04 137.54,118.58 				"/>
			</g>
			<g>
				<polygon class="st17" points="169.7,122.47 169.68,126.95 160.93,121.9 160.94,117.42 				"/>
			</g>
			<g>
				<polygon class="st17" points="181.04,136.36 181.02,140.82 151.06,123.53 151.08,119.06 				"/>
			</g>
			<g>
				<polygon class="st17" points="169.72,115.16 169.71,119.61 137.59,101.07 137.61,96.62 				"/>
			</g>
			<g>
				<polygon class="st17" points="183.61,130.51 183.6,134.98 173.68,129.26 173.69,124.78 				"/>
			</g>
			<g>
				<polygon class="st17" points="177.66,112.41 177.64,116.87 147.88,99.68 147.89,95.22 				"/>
			</g>
			<g>
				<polygon class="st17" points="188.42,125.95 188.4,130.41 173.7,121.92 173.72,117.46 				"/>
			</g>
			<g>
				<polygon class="st17" points="193.58,114.26 193.57,118.73 173.75,107.29 173.76,102.81 				"/>
			</g>
			<g>
				<polygon class="st17" points="188.5,96.67 188.49,101.13 173.78,92.64 173.8,88.18 				"/>
			</g>
			<g>
				<polygon class="st17" points="195.38,107.97 195.36,112.45 173.77,99.98 173.77,95.5 				"/>
			</g>
			<g>
				<polygon class="st17" points="193.64,92.29 193.63,96.77 173.8,85.33 173.82,80.84 				"/>
			</g>
			<g class="st18">
				<g>
					<polygon class="st17" points="145.42,93.8 145.41,98.26 137.61,93.75 137.62,89.3 					"/>
				</g>
				<g>
					<polygon class="st17" points="158.17,93.82 158.17,98.3 137.63,86.45 137.64,81.96 					"/>
				</g>
				<g>
					<polygon class="st17" points="165.4,90.67 165.39,95.15 137.65,79.13 137.67,74.65 					"/>
				</g>
			</g>
			<g class="st1">
				<polygon class="st17" points="158.22,79.19 158.2,83.65 137.67,71.79 137.68,67.33 				"/>
			</g>
			<g class="st1">
				<polygon class="st17" points="169.8,85.87 169.79,90.34 161.04,85.28 161.05,80.82 				"/>
			</g>
			<g>
				<polygon class="st17" points="147.99,58.61 147.98,63.09 137.72,57.16 137.73,52.68 				"/>
			</g>
			<g>
				<polygon class="st17" points="158.28,57.22 158.26,61.68 137.73,49.82 137.75,45.36 				"/>
			</g>
			<g>
				<polygon class="st17" points="171.12,79.29 171.11,83.77 137.69,64.48 137.71,60 				"/>
			</g>
			<g>
				<polygon class="st17" points="145.59,35.22 145.58,39.7 137.78,35.2 137.79,30.71 				"/>
			</g>
			<g>
				<polygon class="st17" points="169.86,63.91 169.85,68.37 161.09,63.31 161.1,58.85 				"/>
			</g>
			<g>
				<polygon class="st17" points="181.2,77.78 181.18,82.26 151.23,64.96 151.24,60.48 				"/>
			</g>
			<g>
				<polygon class="st17" points="169.89,56.57 169.87,61.05 137.76,42.51 137.77,38.03 				"/>
			</g>
			<g>
				<polygon class="st17" points="158.35,35.25 158.33,39.71 137.8,27.86 137.81,23.4 				"/>
			</g>
			<g>
				<polygon class="st17" points="183.78,71.94 183.77,76.4 173.84,70.67 173.86,66.22 				"/>
			</g>
			<g>
				<polygon class="st17" points="177.82,53.83 177.81,58.31 148.04,41.12 148.05,36.64 				"/>
			</g>
			<g>
				<polygon class="st17" points="188.58,67.36 188.57,71.85 173.87,63.37 173.88,58.88 				"/>
			</g>
			<g>
				<polygon class="st17" points="193.75,55.69 193.73,60.15 173.91,48.71 173.93,44.25 				"/>
			</g>
			<g class="st1">
				<polygon class="st17" points="169.93,41.94 169.92,46.4 161.16,41.35 161.17,36.89 				"/>
			</g>
			<g class="st1">
				<polygon class="st17" points="223.6,87.58 223.59,92.06 207.49,82.77 207.51,78.29 				"/>
			</g>
			<g class="st1">
				<polygon class="st17" points="223.56,102.24 223.55,106.72 211.84,99.95 211.84,95.47 				"/>
			</g>
			<g class="st1">
				<polygon class="st17" points="223.58,94.92 223.57,99.38 193.67,82.12 193.69,77.66 				"/>
			</g>
			<g class="st1">
				<polygon class="st17" points="223.63,80.27 223.61,84.75 213.35,78.82 213.36,74.34 				"/>
			</g>
			<g class="st1">
				<polygon class="st17" points="223.64,72.96 223.63,77.41 203.1,65.56 203.11,61.1 				"/>
			</g>
			<g class="st18">
				<g>
					<polygon class="st17" points="188.33,155.23 188.32,159.71 173.62,151.22 173.63,146.74 					"/>
				</g>
				<g>
					<polygon class="st17" points="195.21,166.55 195.2,171.01 173.6,158.54 173.61,154.08 					"/>
				</g>
				<g>
					<polygon class="st17" points="193.47,150.87 193.46,155.33 173.64,143.89 173.65,139.43 					"/>
				</g>
			</g>
			<g class="st1">
				<polygon class="st17" points="223.42,153.49 223.4,157.96 193.51,140.71 193.52,136.22 				"/>
			</g>
			<g class="st1">
				<polygon class="st17" points="223.46,138.86 223.45,143.32 213.18,137.39 213.19,132.93 				"/>
			</g>
			<g class="st18">
				<g>
					<polygon class="st17" points="223.47,131.52 223.47,136 202.93,124.15 202.94,119.67 					"/>
				</g>
				<g>
					<polygon class="st17" points="223.5,124.2 223.49,128.69 202.96,116.83 202.97,112.35 					"/>
				</g>
				<g>
					<polygon class="st17" points="223.52,116.89 223.5,121.35 215.46,116.7 215.47,112.24 					"/>
				</g>
			</g>
			<g>
				<polygon class="st17" points="223.54,109.55 223.53,114.03 197.28,98.88 197.29,94.4 				"/>
			</g>
			<g class="st1">
				<polygon class="st17" points="169.76,100.51 169.75,104.98 160.99,99.93 161,95.45 				"/>
			</g>
			<g class="st1">
				<polygon class="st17" points="223.43,146.17 223.42,150.63 207.32,141.34 207.34,136.88 				"/>
			</g>
			<g>
				<polygon class="st17" points="223.4,160.82 223.38,165.28 211.67,158.51 211.68,154.06 				"/>
			</g>
			<g class="st18">
				<g>
					<polygon class="st17" points="223.34,182.79 223.32,187.25 202.79,175.39 202.8,170.93 					"/>
				</g>
				<g>
					<polygon class="st17" points="223.35,175.45 223.34,179.94 215.29,175.29 215.31,170.81 					"/>
				</g>
				<g>
					<polygon class="st17" points="223.38,168.14 223.36,172.6 197.11,157.44 197.12,152.98 					"/>
				</g>
			</g>
		</g>
	</g>
	<g>
		<g class="st6">
			<polygon class="st7" points="22.11,185.15 36.35,193.43 50.68,185.15 36.44,176.88 			"/>
		</g>
		<g>
			<g>
				<g class="st19">
					<polygon class="st20" points="22.11,184.61 36.35,192.88 50.68,184.61 36.44,176.34 					"/>
				</g>
				<g class="st21">
					<polygon class="st20" points="24.01,176.55 36.35,183.72 48.78,176.55 36.44,169.37 					"/>
				</g>
				<g class="st22">
					<polygon class="st20" points="25.9,168.49 36.36,174.56 46.89,168.49 36.43,162.41 					"/>
				</g>
				<g class="st23">
					<polygon class="st20" points="27.8,160.43 36.37,165.4 44.99,160.43 36.42,155.45 					"/>
				</g>
				<g class="st24">
					<polygon class="st20" points="29.7,152.36 36.37,156.24 43.09,152.36 36.42,148.49 					"/>
				</g>
				<g class="st25">
					<polygon class="st20" points="31.59,144.3 36.38,147.08 41.2,144.3 36.41,141.52 					"/>
				</g>
				<g class="st26">
					<polygon class="st20" points="33.49,136.24 36.39,137.93 39.3,136.24 36.41,134.56 					"/>
				</g>
				<polygon class="st20" points="35.39,128.18 36.39,128.77 37.41,128.18 36.4,127.6 				"/>
			</g>
		</g>
		<g class="st6">
			<polygon class="st7" points="51.11,166.36 67.48,175.88 83.97,166.36 67.59,156.85 			"/>
		</g>
		<g>
			<g>
				<g class="st19">
					<polygon class="st27" points="51.11,165.74 67.48,175.26 83.97,165.74 67.59,156.22 					"/>
				</g>
				<g class="st21">
					<polygon class="st27" points="53.29,156.46 67.49,164.72 81.78,156.46 67.58,148.21 					"/>
				</g>
				<g class="st22">
					<polygon class="st27" points="55.47,147.19 67.5,154.18 79.6,147.19 67.57,140.2 					"/>
				</g>
				<g class="st23">
					<polygon class="st27" points="57.65,137.92 67.5,143.65 77.42,137.92 67.57,132.19 					"/>
				</g>
				<g class="st24">
					<polygon class="st27" points="59.83,128.65 67.51,133.11 75.24,128.65 67.56,124.18 					"/>
				</g>
				<g class="st25">
					<polygon class="st27" points="62.01,119.37 67.51,122.57 73.06,119.37 67.55,116.17 					"/>
				</g>
				<g class="st26">
					<polygon class="st27" points="64.19,110.1 67.52,112.04 70.87,110.1 67.54,108.16 					"/>
				</g>
				<polygon class="st27" points="66.37,100.83 67.52,101.5 68.69,100.83 67.54,100.15 				"/>
			</g>
		</g>
		<g class="st6">
			<polygon class="st7" points="0,199.07 12.47,206.32 25.02,199.07 12.55,191.82 			"/>
		</g>
		<g>
			<g>
				<g class="st19">
					<polygon class="st28" points="1.21,199.77 12.47,206.32 23.81,199.77 12.55,193.22 					"/>
				</g>
				<g class="st21">
					<polygon class="st28" points="2.71,193.39 12.48,199.07 22.31,193.39 12.54,187.72 					"/>
				</g>
				<g class="st22">
					<polygon class="st28" points="4.21,187.02 12.48,191.82 20.81,187.02 12.54,182.21 					"/>
				</g>
				<g class="st23">
					<polygon class="st28" points="5.71,180.64 12.49,184.58 19.31,180.64 12.54,176.7 					"/>
				</g>
				<g class="st24">
					<polygon class="st28" points="7.21,174.26 12.49,177.33 17.81,174.26 12.53,171.19 					"/>
				</g>
				<g class="st25">
					<polygon class="st28" points="8.71,167.89 12.49,170.09 16.31,167.89 12.53,165.69 					"/>
				</g>
				<g class="st26">
					<polygon class="st28" points="10.21,161.51 12.5,162.84 14.81,161.51 12.52,160.18 					"/>
				</g>
				<polygon class="st28" points="11.71,155.14 12.5,155.6 13.31,155.14 12.52,154.67 				"/>
			</g>
		</g>
	</g>
	<g>
		<g>
			<g>
				<g>
					<path class="st29" d="M135.95,222.76c15.82,8.2,15.76,21.36,0.17,29.49c-15.6,8.13-40.91,8.2-56.73,0
						c-15.69-8.13-15.78-21.36-0.19-29.49C94.78,214.64,120.25,214.64,135.95,222.76z"/>
				</g>
				<g class="st26">
					<path class="st30" d="M138.98,200.51c17.7,9.18,17.63,23.9,0.19,32.99c-17.45,9.09-45.77,9.18-63.47,0
						c-17.56-9.09-17.66-23.9-0.21-32.99C92.93,191.42,121.42,191.42,138.98,200.51z"/>
				</g>
				<g class="st25">
					<path class="st31" d="M142.02,178.26c19.58,10.15,19.51,26.44,0.21,36.5c-19.3,10.06-50.64,10.15-70.22,0
						c-19.42-10.06-19.54-26.44-0.24-36.5C91.07,168.2,122.59,168.2,142.02,178.26z"/>
				</g>
				<g class="st24">
					<path class="st32" d="M145.05,156.01c21.46,11.13,21.38,28.98,0.23,40.01c-21.15,11.03-55.5,11.13-76.96,0
						c-21.29-11.03-21.41-28.98-0.26-40.01C89.21,144.99,123.76,144.99,145.05,156.01z"/>
				</g>
				<g class="st23">
					<path class="st33" d="M148.08,133.76c23.35,12.1,23.26,31.52,0.25,43.51c-23.01,11.99-60.36,12.1-83.71,0
						c-23.16-11.99-23.29-31.52-0.28-43.51C87.35,121.77,124.92,121.77,148.08,133.76z"/>
				</g>
				<g class="st22">
					<path class="st34" d="M151.12,111.52c25.23,13.08,25.13,34.06,0.28,47.02c-24.86,12.96-65.23,13.08-90.45,0
						c-25.02-12.96-25.17-34.06-0.31-47.02C85.49,98.56,126.09,98.56,151.12,111.52z"/>
				</g>
				<g class="st21">
					<path class="st35" d="M154.15,89.27c27.11,14.05,27.01,36.6,0.3,50.53c-26.71,13.92-70.09,14.05-97.2,0
						c-26.89-13.93-27.04-36.6-0.33-50.53C83.63,75.34,127.26,75.34,154.15,89.27z"/>
				</g>
				<g class="st19">
					<path class="st36" d="M157.18,67.02c29,15.03,28.88,39.14,0.32,54.03c-28.56,14.89-74.96,15.03-103.94,0
						c-28.76-14.89-28.92-39.14-0.35-54.03C81.77,52.12,128.43,52.12,157.18,67.02z"/>
				</g>
			</g>
		</g>
		<g>
			<linearGradient id="SVGID_4_" gradientUnits="userSpaceOnUse" x1="67.5638" y1="237.521" x2="147.8129" y2="237.521">
				<stop  offset="0" style="stop-color:#FFF3CA"/>
				<stop  offset="1" style="stop-color:#F8B5BA"/>
			</linearGradient>
			<path class="st37" d="M135.95,222.76c15.82,8.2,15.76,21.36,0.17,29.49c-15.6,8.13-40.91,8.2-56.73,0
				c-15.69-8.13-15.78-21.36-0.19-29.49C94.78,214.64,120.25,214.64,135.95,222.76z"/>
		</g>
	</g>
	<g>
		<path class="st38" d="M106.02,243.93c0,0-2.37,3.79,0.91,4.7c3.29,0.9,2.3-1.15,9.45,0.66c7.15,1.81,6.31-2.22,6.15-3.04
			c-0.17-0.82-3.27-1.97-4.84-2.38c-1.56-0.41-7.8-1.85-7.8-1.85l-3.81,0.71L106.02,243.93z"/>
		<path class="st38" d="M101.69,233.44c0,0,2.74,0.41,2.07,1.98c-0.65,1.58-3.81,3.97-4.22,4.98c-0.42,0.99-2.93,4.07-3.82,4.22
			c-1.48,0.26-2.99,0.17-2.74-3.9C93.23,236.67,98.04,233.26,101.69,233.44z"/>
		<path class="st39" d="M89.93,164.03c0,0-5.32,7.89-1.86,21.19c0,0,5.95,20.08,4.89,24.03c-1.06,3.94-4.69,13.43-2.3,21.55
			c0,0,2.35,7.49,2.4,9.58c0.06,3.33,3.34,4.04,3.92,1.66c1.17-4.85,0.6-14.37,1.37-18.13c2.52-12.31,3.82-18.73,3.03-27.1
			c-0.79-8.38,0.17-27.35,0.17-27.35S92.05,170.43,89.93,164.03z"/>
		<path class="st39" d="M95.87,168.81c0,0-4.56,8.35,0.12,21.27c0,0,7.8,19.45,7.1,23.47c-0.69,4.03-3.42,13.81-0.28,21.67
			c0,0,3.04,7.23,3.27,9.31c0.38,3.3,3.72,3.71,4.07,1.29c0.72-4.94-0.74-14.36-0.32-18.18c1.37-12.49,2.07-19,0.49-27.27
			c-1.57-8.27-2.37-27.25-2.37-27.25S98.58,175,95.87,168.81z"/>
		<g>
			<g>
				<path class="st39" d="M122.14,132.88c0,0,2.07-3.9,2.82-4.5c0.74-0.6,3.81-3.21,7.01-2.53c1.74,0.36,0.14,1.7-2.12,3.02
					c-1.02,0.59-1.91,0.81-2.44,2.74c-0.37,1.4-1.54,3.31-2.23,4.13C124.5,136.57,122.14,132.88,122.14,132.88z"/>
				<path class="st40" d="M125.34,135.61c0.69-0.82,1.64-2.77,2.87-3.54c1.46-0.94,0.61-2.6,1.64-3.2c1.75-1.02,3.11-2.12,2.81-2.68
					c-1.27,0.88-3.06-0.27-5.51,2.92c-0.9,1.16-2.41,4.37-2.88,6C124.92,135.68,125.07,135.93,125.34,135.61z"/>
				<path class="st39" d="M124.16,134.95c0,0,4.29-2.52,5.47-3.48c1.18-0.95,1.62-2.11,1.24-2.15c-0.37-0.03-4.03,2.6-4.58,1.08
					C126.01,129.6,124.7,134.45,124.16,134.95z"/>
			</g>
			<path class="st41" d="M89.35,140.99c0,0-1.69,5.25,5.48,6.05c7.17,0.8,20.69,0.69,23.41-1.82c2.73-2.52,7.58-10.29,7.58-10.29
				s-3.56-0.21-3.71-3.24l-9.26,8.34C112.86,140.03,90.45,137.29,89.35,140.99z"/>
			<path class="st42" d="M89.35,140.99c1.09-3.7,23.51-0.96,23.51-0.96l9.26-8.34c0.05,1.12,0.58,1.87,1.22,2.35
				c-1.6,2.44-4.55,6.77-6.46,8.54c-2.73,2.52-16.26,2.62-23.42,1.82c-2.09-0.23-3.4-0.85-4.25-1.59
				C89.09,141.79,89.35,140.99,89.35,140.99z"/>
		</g>
		<path class="st42" d="M109.05,141.33c0,0-14.89-14.63-19.95-10.38c0,0-4.52,3.46-2.66,15.43c1.87,11.97,4.79,14.1,1.87,21.28
			c0,0,5.85,11.71,20.74,6.39c0,0-0.26-10.9,2.13-13.83c2.39-2.93,6.12-9.58,2.93-13.3C110.92,143.2,109.05,141.33,109.05,141.33z"
			/>
		<path class="st39" d="M106.75,133.69v5.66c0,0-4.59,2.48-8.34-0.71v-5.67C98.41,132.96,102.85,134.42,106.75,133.69z"/>
		<path class="st39" d="M108.17,115.46c0,0,3.1,4.1,2.72,8.13c-0.39,4.35,0.25,5.23-0.02,7.15c-0.11,0.83-0.18,2.08-0.99,2.86
			c-1.35,1.3-4.11,1.76-7.86,0.4c-4.54-1.65-9.31-7.88-7.36-13.49C96.61,114.91,101.35,110.9,108.17,115.46z"/>
		<path class="st40" d="M94.87,126.57c1.81-5.04,6.32-11.09,6.28-11.41c-0.03-0.19,1.46-1.14,3.17-2.14c1.6,0.09,3.3,0.66,5.06,1.84
			c0,0,0.5,1.26,0.94,3.02c-1.09,1.21-3.29,2.59-3.62,3.61c-0.77,2.41-0.33,6.07,0.38,7.69c0.72,1.61-2.19,3.98-1.57,5.42
			c0.03,0.07,0.03,0.13,0.02,0.19c-1.04-0.08-2.22-0.32-3.51-0.79C99.13,132.94,96.14,130,94.87,126.57z"/>
		<path class="st43" d="M106.04,113.02c0,0,7.12,1.82,5.32,6.25c-1.8,4.43-7.8,3.57-7.27,6.41c0.53,2.84,3.39,7.71,1.43,8.91
			c-1.96,1.2-7.99,6.34-7.1,13.26c0.89,6.92,4.44,13.76,0,14.11c-4.43,0.36-9.57-0.1-12.24-4.71c-2.66-4.61-3.01-4.43-1.6-16.14
			c1.42-11.71,4.08-17.74,6.74-21.28C93.98,116.29,99.3,111.35,106.04,113.02z"/>
		<path class="st44" d="M88.31,167.67c0,0-5.64,5.23-3.37,23.81C87.01,208.58,86,210.7,86,210.7s13.84,7.63,26.61,1.77
			c0,0,1.42-3.9,0-19.33c-1.42-15.43-3.55-19.09-3.55-19.09S97.53,179.09,88.31,167.67z"/>
		<g>
			<g>
				<path class="st39" d="M135.3,160.62c0,0,3.55-0.52,4.61-2.18c1.08-1.67,2.58-3.45,2.82-4.91c0.23-1.45-0.11-1.92-1.2-1.5
					c-1.1,0.4-3.87,2.66-5.24,4.25c-1.36,1.58-1.7,1.42-2.24,1.69C133.54,158.24,133.35,160.09,135.3,160.62z"/>
			</g>
			<g>
				<path class="st45" d="M134.05,157.97c0.54-0.28,0.87-0.12,2.24-1.69c1.37-1.59,4.14-3.85,5.24-4.25c0.16-0.07,0.3-0.1,0.42-0.13
					c-0.79,1.04-2.12,2.8-3.32,4.31c-1.49,1.89-4.03,2.83-4.84,3.09C133.61,158.7,133.78,158.11,134.05,157.97z"/>
			</g>
		</g>
		<g>
			<g>
				<path class="st41" d="M105.74,145.15c1.3-1.14,4.12-1.92,6.66,1.89c2.53,3.81,9.48,14.52,9.48,14.52s11.7-3.88,13.12-4.12
					c0,0-1.58,1.87,0.34,3.56c0,0-10.84,8.43-14.73,7.15C116.72,166.86,100.42,149.83,105.74,145.15z"/>
			</g>
		</g>
	</g>
</g>
</svg>
