<?xml version="1.0" encoding="utf-8"?>
<!-- Generator: Adobe Illustrator 25.1.0, SVG Export Plug-In . SVG Version: 6.00 Build 0)  -->
<svg version="1.1" id="Layer_1" xmlns="http://www.w3.org/2000/svg" xmlns:xlink="http://www.w3.org/1999/xlink" x="0px" y="0px"
	 viewBox="0 0 304 263.04" style="enable-background:new 0 0 304 263.04;" xml:space="preserve">
<style type="text/css">
	.st0{opacity:0.5;}
	.st1{fill:#DCDCDC;}
	.st2{enable-background:new    ;}
	.st3{opacity:0.6;fill:#DCDCDC;}
	.st4{opacity:0.8571;}
	.st5{opacity:0.6571;fill:#DCDCDC;}
	.st6{opacity:0.7143;}
	.st7{opacity:0.7143;fill:#DCDCDC;}
	.st8{opacity:0.5714;}
	.st9{opacity:0.7714;fill:#DCDCDC;}
	.st10{opacity:0.4286;}
	.st11{opacity:0.8286;fill:#DCDCDC;}
	.st12{opacity:0.2857;}
	.st13{opacity:0.8857;fill:#DCDCDC;}
	.st14{opacity:0.1429;}
	.st15{opacity:0.9429;fill:#DCDCDC;}
	.st16{opacity:0;}
	.st17{opacity:0.6;}
	.st18{opacity:0.5143;}
	.st19{opacity:0.3429;}
	.st20{opacity:0.2571;}
	.st21{opacity:0.1714;}
	.st22{opacity:0.0857;}
	.st23{clip-path:url(#SVGID_2_);enable-background:new    ;}
	.st24{fill:#B1C5CD;}
	.st25{fill:#ADC0C7;}
	.st26{fill:#A9BBC3;}
	.st27{fill:#A5B6BD;}
	.st28{fill:#A1B2B9;}
	.st29{fill:#9CADB4;}
	.st30{fill:#97A7AD;}
	.st31{fill:#94A3A9;}
	.st32{fill:#8E9EA3;}
	.st33{fill:#8B999E;}
	.st34{fill:#869499;}
	.st35{fill:#818F94;}
	.st36{fill:#7C8B90;}
	.st37{fill:#78868B;}
	.st38{fill:#748186;}
	.st39{clip-path:url(#SVGID_4_);enable-background:new    ;}
	.st40{clip-path:url(#SVGID_6_);enable-background:new    ;}
	.st41{fill:#87ABBA;}
	.st42{fill:#84A7B7;}
	.st43{fill:#80A3B2;}
	.st44{fill:#7D9EAC;}
	.st45{fill:#7A9AA8;}
	.st46{fill:#7797A4;}
	.st47{fill:#74939F;}
	.st48{fill:#718D9A;}
	.st49{fill:#6C8997;}
	.st50{fill:#698692;}
	.st51{clip-path:url(#SVGID_8_);enable-background:new    ;}
	.st52{fill:#59707B;}
	.st53{fill:#5C757F;}
	.st54{fill:#607984;}
	.st55{fill:#637D89;}
	.st56{fill:#66818D;}
	.st57{fill:#C2BFE0;}
	.st58{fill:#C0D5DB;}
	.st59{fill:#788589;}
	.st60{fill:url(#SVGID_9_);}
	.st61{fill:#92B9CA;}
	.st62{fill:#5B737D;}
	.st63{fill:#E0F3FD;}
	.st64{fill:#FACEE1;}
	.st65{fill:#FFDF76;}
	.st66{fill:#F4E881;}
	.st67{fill:#E16CA9;}
	.st68{opacity:0.7;}
	.st69{fill:#B7E3EB;}
	.st70{fill:#B6E2EA;}
	.st71{fill:#B4E2EA;}
	.st72{fill:#B3E1E9;}
	.st73{fill:#B1E1E8;}
	.st74{fill:#B0E0E7;}
	.st75{fill:#AFDFE6;}
	.st76{fill:#ADDFE6;}
	.st77{opacity:0.8;}
	.st78{fill:#AEDFE6;}
	.st79{fill:url(#SVGID_10_);}
	.st80{fill:url(#SVGID_11_);}
	.st81{fill:url(#SVGID_12_);}
	.st82{fill:url(#SVGID_13_);}
	.st83{fill:url(#SVGID_14_);}
	.st84{fill:url(#SVGID_15_);}
	.st85{fill:url(#SVGID_16_);}
	.st86{fill:url(#SVGID_17_);}
	.st87{fill:url(#SVGID_18_);}
	.st88{fill:url(#SVGID_19_);}
	.st89{fill:#E8C5DE;}
	.st90{fill:#B63992;}
	.st91{fill:#EFB184;}
	.st92{fill:#E7A477;}
	.st93{fill:#D156A0;}
	.st94{opacity:0.1;}
	.st95{fill:#010101;}
	.st96{fill:#141416;}
	.st97{fill:#60B9E7;}
	.st98{fill:#7FCFF4;}
	.st99{fill:#DD956A;}
	.st100{fill:#141C24;}
	.st101{fill:#1E2834;}
	.st102{fill:#DEEFF8;}
	.st103{fill:#F1B387;}
</style>
<g>
	<g>
		<g class="st0">
			<g>
				<path class="st1" d="M0,248.14l1.07,1.47l20.58-5.09c-0.52-0.46-0.78-0.99-0.81-1.52L0,248.14z"/>
			</g>
			<g>
				<path class="st1" d="M14.27,219.33C14.65,219.46,13.93,219.14,14.27,219.33c0.34,0.2,1.4,1.3,1.62,1.54l22.11-8.85
					c3.46-1.2,1.37-0.94,0.68-1.74c-0.38-0.45,0.08-0.98-0.17-1.34L14.27,219.33z"/>
			</g>
			<g class="st2">
				<g>
					<path class="st1" d="M15.99,218.59c-0.82,0.27-0.32,0.13-2.41,0.91l10.67,20.65c0.9-0.18,1.89-0.21,2.82-0.08L15.99,218.59z"/>
				</g>
				<g>
					<path class="st1" d="M22.33,240.86c-1.03,0.59-1.52,1.37-1.49,2.14c0.03,0.53,0.29,1.06,0.81,1.52
						c0.19,0.17,0.41,0.32,0.66,0.47c1.98,1.15,5.15,1.15,7.14,0c1.97-1.14,2-2.98,0.02-4.13c-0.68-0.4-1.52-0.66-2.4-0.78
						c-0.93-0.13-1.91-0.1-2.82,0.08C23.56,240.3,22.89,240.53,22.33,240.86z"/>
				</g>
			</g>
			<g>
				<path class="st1" d="M96.48,184.31l-63.67,4.28c0.59,0.45,0.93,0.99,0.99,1.53l63.37-4.27
					C96.68,185.39,96.46,184.85,96.48,184.31z"/>
			</g>
			<g>
				<path class="st1" d="M31.78,192.71c-0.77,0.33-1.66,0.52-2.57,0.57l8.78,18.75c0.82-0.28,2.57-1.03,2.57-1.03L31.78,192.71z"/>
			</g>
			<g>
				<path class="st1" d="M106.29,169.3c0.45,0.49,0.65,1.03,0.6,1.56l48.02-1.59l-0.15-1.58L106.29,169.3z"/>
			</g>
			<g>
				<path class="st1" d="M98.29,168.62c-1.97,1.14-1.98,3-0.03,4.14c0.61,0.35,1.34,0.59,2.11,0.73c0.88,0.15,1.83,0.16,2.72,0.03
					c0.84-0.13,1.65-0.38,2.31-0.76c0.92-0.53,1.41-1.21,1.49-1.9c0.05-0.53-0.15-1.08-0.6-1.56c-0.23-0.24-0.51-0.47-0.86-0.67
					C103.47,167.49,100.28,167.48,98.29,168.62z"/>
			</g>
			<g>
				<path class="st1" d="M97.97,182.3c-0.96,0.56-1.46,1.28-1.49,2.01c-0.02,0.53,0.21,1.07,0.7,1.54c0.21,0.21,0.46,0.4,0.77,0.58
					c1.96,1.14,5.16,1.14,7.14,0c1.97-1.14,1.98-3,0.02-4.14c-0.61-0.35-1.34-0.6-2.1-0.73c-0.89-0.16-1.83-0.17-2.72-0.03
					C99.44,181.66,98.64,181.92,97.97,182.3z"/>
			</g>
			<g>
				<path class="st1" d="M103.09,173.52c-0.9,0.13-1.84,0.12-2.72-0.03l-0.08,8.05c0.89-0.14,1.83-0.13,2.72,0.03L103.09,173.52z"/>
			</g>
			<g>
				<path class="st1" d="M25.23,188.29c-1.99,1.15-1.99,3-0.03,4.14c1.1,0.64,2.58,0.92,4.01,0.85c0.91-0.05,1.81-0.24,2.57-0.57
					c0.19-0.08,0.38-0.18,0.56-0.28c1.08-0.63,1.58-1.47,1.47-2.3c-0.07-0.55-0.4-1.08-0.99-1.53c-0.13-0.11-0.29-0.21-0.45-0.31
					C30.4,187.15,27.19,187.15,25.23,188.29z"/>
			</g>
		</g>
		<g>
			<g>
				<path class="st3" d="M25.22,188.3c-1.99,1.15-1.98,3-0.02,4.13c1.96,1.14,5.15,1.15,7.14,0c1.97-1.14,1.98-2.99,0.02-4.13
					C30.4,187.15,27.19,187.15,25.22,188.3z"/>
			</g>
			<g class="st4">
				<path class="st5" d="M25.22,183.21c-1.99,1.15-1.98,2.99-0.02,4.13c1.96,1.14,5.15,1.15,7.14,0c1.97-1.14,1.98-2.99,0.02-4.13
					C30.4,182.07,27.19,182.07,25.22,183.21z"/>
			</g>
			<g class="st6">
				<path class="st7" d="M25.22,178.13c-1.99,1.15-1.98,2.99-0.02,4.13c1.96,1.14,5.15,1.15,7.14,0c1.97-1.14,1.98-2.99,0.02-4.13
					C30.4,176.99,27.19,176.99,25.22,178.13z"/>
			</g>
			<g class="st8">
				<path class="st9" d="M25.22,173.05c-1.99,1.15-1.98,2.99-0.02,4.13c1.96,1.14,5.15,1.15,7.14,0c1.97-1.14,1.98-2.99,0.02-4.13
					C30.4,171.91,27.19,171.91,25.22,173.05z"/>
			</g>
			<g class="st10">
				<path class="st11" d="M25.22,167.97c-1.99,1.15-1.98,2.99-0.02,4.13c1.96,1.14,5.15,1.15,7.14,0c1.97-1.14,1.98-2.99,0.02-4.13
					C30.4,166.83,27.19,166.83,25.22,167.97z"/>
			</g>
			<g class="st12">
				<path class="st13" d="M25.22,162.89c-1.99,1.15-1.98,2.99-0.02,4.13c1.96,1.14,5.15,1.15,7.14,0c1.97-1.14,1.98-2.99,0.02-4.13
					C30.4,161.75,27.19,161.75,25.22,162.89z"/>
			</g>
			<g class="st14">
				<path class="st15" d="M25.22,157.81c-1.99,1.15-1.98,2.99-0.02,4.13c1.96,1.14,5.15,1.15,7.14,0c1.97-1.14,1.98-2.99,0.02-4.13
					C30.4,156.67,27.19,156.67,25.22,157.81z"/>
			</g>
			<g class="st16">
				<path class="st1" d="M25.22,152.73c-1.99,1.15-1.98,2.99-0.02,4.13c1.96,1.14,5.15,1.15,7.14,0c1.97-1.14,1.98-2.99,0.02-4.13
					C30.4,151.58,27.19,151.58,25.22,152.73z"/>
			</g>
		</g>
		<g>
			<g class="st17">
				<path class="st1" d="M22.33,240.86c-1.99,1.15-1.98,3-0.02,4.13c1.97,1.14,5.15,1.15,7.14,0c1.97-1.14,1.98-2.99,0.02-4.13
					C27.51,239.72,24.31,239.72,22.33,240.86z"/>
			</g>
			<g class="st18">
				<path class="st1" d="M22.33,235.77c-1.99,1.15-1.98,2.99-0.02,4.13c1.97,1.14,5.15,1.15,7.14,0c1.97-1.14,1.98-2.99,0.02-4.13
					C27.51,234.64,24.31,234.64,22.33,235.77z"/>
			</g>
			<g class="st10">
				<path class="st1" d="M22.33,230.69c-1.99,1.15-1.98,2.99-0.02,4.13c1.97,1.14,5.15,1.15,7.14,0c1.97-1.14,1.98-2.99,0.02-4.13
					C27.51,229.55,24.31,229.55,22.33,230.69z"/>
			</g>
			<g class="st19">
				<path class="st1" d="M22.33,225.61c-1.99,1.15-1.98,2.99-0.02,4.13c1.97,1.14,5.15,1.15,7.14,0c1.97-1.14,1.98-2.99,0.02-4.13
					C27.51,224.47,24.31,224.47,22.33,225.61z"/>
			</g>
			<g class="st20">
				<path class="st1" d="M22.33,220.53c-1.99,1.15-1.98,2.99-0.02,4.13c1.97,1.14,5.15,1.15,7.14,0c1.97-1.14,1.98-2.99,0.02-4.13
					C27.51,219.39,24.31,219.39,22.33,220.53z"/>
			</g>
			<g class="st21">
				<path class="st1" d="M22.33,215.45c-1.99,1.15-1.98,2.99-0.02,4.13c1.97,1.14,5.15,1.15,7.14,0c1.97-1.14,1.98-2.99,0.02-4.13
					C27.51,214.31,24.31,214.31,22.33,215.45z"/>
			</g>
			<g class="st22">
				<path class="st1" d="M22.33,210.37c-1.99,1.15-1.98,2.99-0.02,4.13c1.97,1.14,5.15,1.15,7.14,0c1.97-1.14,1.98-3,0.02-4.13
					C27.51,209.23,24.31,209.23,22.33,210.37z"/>
			</g>
			<g class="st16">
				<path class="st1" d="M22.33,205.29c-1.99,1.15-1.98,2.99-0.02,4.13c1.97,1.14,5.15,1.15,7.14,0c1.97-1.14,1.98-3,0.02-4.13
					C27.51,204.15,24.31,204.15,22.33,205.29z"/>
			</g>
		</g>
	</g>
	<g>
		<g>
			<g class="st2">
				<defs>
					<path id="SVGID_1_" class="st2" d="M144.1,215.36c-0.01-1.69-0.6-2.88-1.57-3.44c1.91,1.11,3.82,2.21,5.73,3.32l0,0
						c0.96,0.56,1.56,1.74,1.56,3.44c0.01,3.39-2.37,7.53-5.32,9.24l-5.72-3.32C141.73,222.89,144.11,218.76,144.1,215.36z"/>
				</defs>
				<clipPath id="SVGID_2_">
					<use xlink:href="#SVGID_1_"  style="overflow:visible;"/>
				</clipPath>
				<g class="st23">
					<path class="st24" d="M144.5,227.92l-5.72-3.32c0.62-0.36,1.23-0.83,1.78-1.38l5.72,3.31
						C145.73,227.08,145.13,227.56,144.5,227.92L144.5,227.92z"/>
					<path class="st25" d="M146.29,226.53l-5.72-3.31c0.2-0.2,0.4-0.41,0.59-0.62l5.72,3.32
						C146.68,226.13,146.49,226.34,146.29,226.53L146.29,226.53z"/>
					<path class="st26" d="M146.87,225.92l-5.72-3.32c0.15-0.17,0.29-0.35,0.43-0.53l5.72,3.32
						C147.17,225.56,147.02,225.74,146.87,225.92L146.87,225.92z"/>
					<path class="st27" d="M147.3,225.38l-5.72-3.32c0.12-0.15,0.24-0.31,0.36-0.47l5.72,3.31
						C147.54,225.06,147.43,225.22,147.3,225.38L147.3,225.38z"/>
					<path class="st28" d="M147.66,224.9l-5.72-3.31c0.1-0.15,0.2-0.31,0.3-0.47l5.73,3.32C147.87,224.6,147.77,224.75,147.66,224.9
						L147.66,224.9z"/>
					<path class="st29" d="M147.97,224.44l-5.73-3.32c0.1-0.14,0.19-0.3,0.28-0.45l5.73,3.31
						C148.16,224.13,148.07,224.29,147.97,224.44L147.97,224.44z"/>
					<path class="st30" d="M148.25,223.98l-5.73-3.31c0.09-0.15,0.17-0.3,0.25-0.45l5.72,3.31
						C148.41,223.69,148.33,223.83,148.25,223.98L148.25,223.98z"/>
					<path class="st31" d="M148.49,223.53l-5.72-3.31c0.08-0.15,0.15-0.31,0.23-0.46l5.73,3.32
						C148.65,223.23,148.57,223.38,148.49,223.53L148.49,223.53z"/>
					<path class="st32" d="M148.73,223.08l-5.73-3.32c0.08-0.16,0.15-0.31,0.21-0.47l5.73,3.32
						C148.87,222.77,148.8,222.92,148.73,223.08L148.73,223.08z"/>
					<path class="st33" d="M148.94,222.61l-5.73-3.32c0.07-0.16,0.13-0.31,0.2-0.48l5.72,3.32
						C149.07,222.29,149.01,222.45,148.94,222.61L148.94,222.61z"/>
					<path class="st34" d="M149.13,222.14l-5.72-3.32c0.06-0.17,0.12-0.34,0.18-0.51l5.73,3.31
						C149.26,221.8,149.2,221.97,149.13,222.14L149.13,222.14z"/>
					<path class="st35" d="M149.32,221.62l-5.73-3.31c0.06-0.18,0.12-0.37,0.16-0.54l5.72,3.32
						C149.43,221.26,149.38,221.45,149.32,221.62L149.32,221.62z"/>
					<path class="st36" d="M149.48,221.09l-5.72-3.32c0.06-0.2,0.11-0.41,0.15-0.62l5.72,3.33
						C149.58,220.67,149.54,220.88,149.48,221.09L149.48,221.09z"/>
					<path class="st37" d="M149.63,220.48l-5.72-3.33c0.06-0.25,0.1-0.49,0.13-0.74l5.72,3.31
						C149.72,219.98,149.68,220.22,149.63,220.48L149.63,220.48z"/>
					<path class="st38" d="M149.75,219.72l-5.72-3.31c0.04-0.35,0.07-0.7,0.07-1.05c-0.01-1.69-0.6-2.88-1.57-3.44l5.73,3.32
						c0.96,0.56,1.56,1.74,1.56,3.44C149.82,219.02,149.8,219.37,149.75,219.72L149.75,219.72z"/>
				</g>
			</g>
			<g class="st2">
				<defs>
					<path id="SVGID_3_" class="st2" d="M134.96,224.99c0.98,0.57,2.33,0.48,3.82-0.38l5.72,3.32c-1.49,0.86-2.84,0.94-3.82,0.38
						C138.97,227.31,136.68,225.98,134.96,224.99z"/>
				</defs>
				<clipPath id="SVGID_4_">
					<use xlink:href="#SVGID_3_"  style="overflow:visible;"/>
				</clipPath>
				<g class="st39">
					<path class="st33" d="M140.69,228.3l-5.72-3.31c0.01,0,0.02,0.01,0.03,0.01l5.72,3.32C140.71,228.32,140.69,228.3,140.69,228.3
						L140.69,228.3z"/>
					<path class="st32" d="M140.72,228.32l-5.72-3.32c0.08,0.05,0.18,0.1,0.27,0.13l5.72,3.32
						C140.89,228.41,140.8,228.37,140.72,228.32L140.72,228.32z"/>
					<path class="st31" d="M140.98,228.45l-5.72-3.32c0.09,0.04,0.18,0.08,0.28,0.1l5.72,3.31
						C141.17,228.52,141.07,228.49,140.98,228.45L140.98,228.45z"/>
					<path class="st30" d="M141.27,228.55l-5.72-3.31c0.1,0.03,0.2,0.05,0.3,0.07l5.72,3.32
						C141.46,228.6,141.37,228.57,141.27,228.55L141.27,228.55z"/>
					<path class="st29" d="M141.57,228.62l-5.72-3.32c0.11,0.02,0.21,0.03,0.33,0.03l5.72,3.32
						C141.78,228.65,141.67,228.63,141.57,228.62L141.57,228.62z"/>
					<path class="st28" d="M141.89,228.66l-5.72-3.32c0.12,0.01,0.23,0.01,0.36,0.01l5.72,3.31
						C142.13,228.66,142.01,228.66,141.89,228.66L141.89,228.66z"/>
					<path class="st27" d="M142.25,228.66l-5.72-3.31c0.13-0.01,0.26-0.02,0.4-0.04l5.72,3.32
						C142.51,228.64,142.38,228.65,142.25,228.66L142.25,228.66z"/>
					<path class="st26" d="M142.64,228.62l-5.72-3.32c0.15-0.03,0.31-0.06,0.47-0.11l5.72,3.32
						C142.96,228.56,142.8,228.6,142.64,228.62L142.64,228.62z"/>
					<path class="st25" d="M143.12,228.52l-5.72-3.32c0.2-0.06,0.42-0.13,0.63-0.22l5.72,3.31
						C143.53,228.39,143.32,228.46,143.12,228.52L143.12,228.52z"/>
					<path class="st24" d="M143.75,228.3l-5.72-3.31c0.25-0.11,0.49-0.22,0.75-0.38l5.72,3.32
						C144.25,228.07,144,228.19,143.75,228.3L143.75,228.3z"/>
				</g>
			</g>
			<g class="st2">
				<defs>
					<path id="SVGID_5_" class="st2" d="M142.53,211.93l5.73,3.32c-0.98-0.57-2.32-0.48-3.8,0.37l-5.73-3.31
						C140.21,211.44,141.56,211.36,142.53,211.93z"/>
				</defs>
				<clipPath id="SVGID_6_">
					<use xlink:href="#SVGID_5_"  style="overflow:visible;"/>
				</clipPath>
				<g class="st40">
					<path class="st41" d="M144.46,215.62l-5.73-3.31c0.26-0.15,0.5-0.28,0.75-0.38l5.72,3.31
						C144.96,215.36,144.7,215.47,144.46,215.62L144.46,215.62z"/>
					<path class="st42" d="M145.2,215.24l-5.72-3.31c0.21-0.09,0.43-0.17,0.63-0.21l5.72,3.31
						C145.63,215.08,145.42,215.16,145.2,215.24L145.2,215.24z"/>
					<path class="st43" d="M145.83,215.03l-5.72-3.31c0.16-0.05,0.32-0.09,0.47-0.11l5.72,3.32
						C146.15,214.95,145.99,214.99,145.83,215.03L145.83,215.03z"/>
					<path class="st44" d="M146.3,214.93l-5.72-3.32c0.14-0.01,0.27-0.03,0.4-0.03l5.72,3.31
						C146.57,214.9,146.43,214.91,146.3,214.93L146.3,214.93z"/>
					<path class="st45" d="M146.7,214.88l-5.72-3.31c0.12-0.01,0.24-0.01,0.36,0l5.72,3.31
						C146.93,214.88,146.82,214.88,146.7,214.88L146.7,214.88z"/>
					<path class="st46" d="M147.05,214.89l-5.72-3.31c0.11,0,0.21,0.02,0.32,0.03l5.72,3.32
						C147.27,214.91,147.16,214.9,147.05,214.89L147.05,214.89z"/>
					<path class="st47" d="M147.37,214.93l-5.72-3.32c0.1,0.02,0.2,0.05,0.3,0.08l5.72,3.31
						C147.58,214.97,147.48,214.95,147.37,214.93L147.37,214.93z"/>
					<path class="st48" d="M147.67,215l-5.72-3.31c0.1,0.03,0.19,0.05,0.28,0.09l5.73,3.32C147.86,215.06,147.77,215.02,147.67,215
						L147.67,215z"/>
					<path class="st49" d="M147.96,215.1l-5.73-3.32c0.1,0.04,0.18,0.08,0.27,0.13l5.72,3.32
						C148.14,215.18,148.05,215.13,147.96,215.1L147.96,215.1z"/>
					<path class="st50" d="M148.22,215.23l-5.72-3.32c0.01,0,0.02,0.01,0.03,0.02l5.73,3.32
						C148.24,215.24,148.24,215.24,148.22,215.23L148.22,215.23z"/>
				</g>
			</g>
			<g class="st2">
				<defs>
					<path id="SVGID_7_" class="st2" d="M140.69,228.3c-1.52-0.89-3.05-1.77-4.58-2.65c-0.09-0.05-0.2-0.12-0.29-0.17
						c-0.28-0.16-0.57-0.33-0.86-0.49c-0.96-0.56-1.56-1.74-1.56-3.43c-0.01-3.4,2.37-7.54,5.33-9.25l5.73,3.31
						c-2.96,1.72-5.35,5.85-5.33,9.26C139.13,226.56,139.73,227.75,140.69,228.3z"/>
				</defs>
				<clipPath id="SVGID_8_">
					<use xlink:href="#SVGID_7_"  style="overflow:visible;"/>
				</clipPath>
				<g class="st51">
					<path class="st52" d="M140.69,228.3l-5.72-3.31c-0.96-0.56-1.56-1.74-1.56-3.43c0-0.35,0.02-0.7,0.07-1.05l5.73,3.32
						c-0.05,0.35-0.07,0.7-0.07,1.05C139.13,226.56,139.73,227.75,140.69,228.3L140.69,228.3z"/>
					<path class="st53" d="M139.19,223.83l-5.73-3.32c0.03-0.25,0.07-0.5,0.13-0.75l5.72,3.32
						C139.27,223.33,139.22,223.58,139.19,223.83L139.19,223.83z"/>
					<path class="st54" d="M139.32,223.08l-5.72-3.32c0.04-0.2,0.09-0.4,0.15-0.61l5.72,3.32
						C139.41,222.67,139.36,222.88,139.32,223.08L139.32,223.08z"/>
					<path class="st55" d="M139.47,222.46l-5.72-3.32c0.05-0.18,0.1-0.36,0.17-0.54l5.72,3.32
						C139.58,222.1,139.52,222.29,139.47,222.46L139.47,222.46z"/>
					<path class="st56" d="M139.63,221.92l-5.72-3.32c0.06-0.17,0.12-0.34,0.18-0.51l5.72,3.32
						C139.75,221.58,139.69,221.75,139.63,221.92L139.63,221.92z"/>
					<path class="st50" d="M139.81,221.41l-5.72-3.32c0.06-0.16,0.13-0.32,0.2-0.47l5.73,3.31
						C139.94,221.09,139.88,221.25,139.81,221.41L139.81,221.41z"/>
					<path class="st49" d="M140.01,220.93l-5.73-3.31c0.07-0.16,0.14-0.32,0.21-0.47l5.72,3.32
						C140.15,220.62,140.08,220.78,140.01,220.93L140.01,220.93z"/>
					<path class="st48" d="M140.22,220.47l-5.72-3.32c0.07-0.15,0.15-0.31,0.23-0.46l5.72,3.32
						C140.37,220.17,140.3,220.32,140.22,220.47L140.22,220.47z"/>
					<path class="st47" d="M140.45,220.01l-5.72-3.32c0.08-0.15,0.16-0.3,0.25-0.44l5.73,3.31
						C140.62,219.71,140.53,219.86,140.45,220.01L140.45,220.01z"/>
					<path class="st46" d="M140.7,219.56l-5.73-3.31c0.09-0.15,0.18-0.31,0.28-0.46l5.72,3.32
						C140.88,219.26,140.79,219.41,140.7,219.56L140.7,219.56z"/>
					<path class="st45" d="M140.98,219.11l-5.72-3.32c0.1-0.15,0.2-0.31,0.31-0.46l5.72,3.31
						C141.18,218.8,141.08,218.95,140.98,219.11L140.98,219.11z"/>
					<path class="st44" d="M141.29,218.65l-5.72-3.31c0.11-0.17,0.23-0.33,0.35-0.48l5.72,3.32
						C141.52,218.32,141.4,218.48,141.29,218.65L141.29,218.65z"/>
					<path class="st43" d="M141.64,218.17l-5.72-3.32c0.14-0.19,0.28-0.36,0.43-0.53l5.72,3.32
						C141.93,217.81,141.78,217.99,141.64,218.17L141.64,218.17z"/>
					<path class="st42" d="M142.07,217.64l-5.72-3.32c0.19-0.22,0.38-0.42,0.59-0.62l5.72,3.32
						C142.46,217.21,142.27,217.42,142.07,217.64L142.07,217.64z"/>
					<path class="st41" d="M142.66,217.01l-5.72-3.32c0.56-0.55,1.16-1.03,1.79-1.39l5.73,3.31
						C143.82,215.99,143.22,216.46,142.66,217.01L142.66,217.01z"/>
				</g>
			</g>
			<g>
				<path class="st57" d="M144.46,215.62c2.95-1.71,5.35-0.34,5.37,3.07c0.01,3.39-2.37,7.53-5.32,9.24
					c-2.96,1.71-5.37,0.35-5.38-3.04C139.11,221.47,141.49,217.33,144.46,215.62z"/>
			</g>
			<g>
				<polygon class="st58" points="100.53,234.04 94.81,230.72 182.82,179.75 188.54,183.07 				"/>
			</g>
			<g>
				<polygon class="st59" points="188.54,183.07 182.82,179.75 182.27,47.92 187.99,51.23 				"/>
			</g>
			<g>
				
					<linearGradient id="SVGID_9_" gradientUnits="userSpaceOnUse" x1="174.6133" y1="73.895" x2="106.4431" y2="230.5238" gradientTransform="matrix(1 -1.300000e-03 1.300000e-03 1 -0.6624 0.2865)">
					<stop  offset="0" style="stop-color:#FFF3CA"/>
					<stop  offset="1" style="stop-color:#F8B5BA"/>
				</linearGradient>
				<polygon class="st60" points="188,51.23 188.54,183.07 100.53,234.04 99.98,102.21 				"/>
			</g>
			<g>
				<polygon class="st61" points="99.98,102.21 94.26,98.9 182.27,47.92 188,51.23 				"/>
			</g>
			<g>
				<polygon class="st62" points="100.53,234.04 94.81,230.72 94.26,98.9 99.98,102.21 				"/>
			</g>
			<path class="st57" d="M93.71,259.77l-0.66-157.88l-5.72-3.32l0.65,157.89c0.01,1.45,0.52,2.47,1.35,2.95l5.72,3.32
				C94.23,262.25,93.72,261.22,93.71,259.77z"/>
			<g>
				<path class="st63" d="M190.83,39.95c2.54-1.47,4.61-0.3,4.62,2.63l0.66,157.88c0.01,2.93-2.04,6.49-4.58,7.96L98.34,262.4
					c-2.55,1.48-4.62,0.3-4.63-2.63l-0.66-157.88c-0.01-2.93,2.04-6.49,4.58-7.96L190.83,39.95z M188.54,183.07l-0.55-131.83
					l-88.02,50.97l0.55,131.83L188.54,183.07L188.54,183.07z M144.5,227.92c2.95-1.71,5.33-5.85,5.32-9.24
					c-0.01-3.41-2.42-4.78-5.37-3.07c-2.96,1.72-5.35,5.85-5.33,9.26C139.14,228.27,141.54,229.64,144.5,227.92L144.5,227.92z"/>
			</g>
			<path class="st57" d="M188.38,36.31c-0.01-0.01-0.02-0.01-0.03-0.02c-0.08-0.04-0.16-0.08-0.23-0.11
				c-0.08-0.04-0.16-0.07-0.24-0.09c-0.05-0.01-0.11-0.02-0.16-0.03c-0.01-0.01-0.03-0.01-0.04-0.01c-0.02,0-0.03-0.01-0.06-0.01
				c-0.09-0.02-0.18-0.03-0.28-0.03c-0.1-0.01-0.2-0.01-0.3-0.01c-0.03,0.01-0.07,0.01-0.1,0.01c-0.02,0.01-0.05,0.01-0.07,0.01
				c-0.06,0-0.11,0-0.18,0.01c-0.13,0.02-0.27,0.05-0.4,0.09c-0.06,0.02-0.12,0.04-0.18,0.07c-0.05,0.02-0.1,0.04-0.15,0.05
				c-0.07,0.03-0.14,0.04-0.21,0.08c-0.21,0.08-0.42,0.19-0.64,0.32L91.92,90.6c-0.3,0.18-0.58,0.38-0.87,0.6
				c-0.09,0.07-0.18,0.16-0.27,0.24c-0.14,0.11-0.27,0.22-0.4,0.36c-0.06,0.05-0.11,0.12-0.17,0.18c-0.06,0.06-0.11,0.11-0.16,0.17
				c-0.06,0.07-0.12,0.12-0.17,0.19c-0.13,0.15-0.26,0.3-0.38,0.45c-0.04,0.05-0.08,0.11-0.12,0.16c-0.03,0.03-0.05,0.07-0.08,0.1
				c-0.04,0.05-0.08,0.1-0.11,0.16c-0.09,0.13-0.18,0.26-0.27,0.4c-0.08,0.13-0.16,0.26-0.23,0.39c-0.01,0.01-0.01,0.02-0.03,0.03
				c0,0.01-0.01,0.02-0.01,0.02c-0.06,0.11-0.12,0.22-0.18,0.33c-0.06,0.13-0.13,0.26-0.2,0.39c-0.06,0.12-0.12,0.24-0.17,0.36
				c-0.01,0.01-0.01,0.01-0.01,0.02c0,0.01-0.01,0.01-0.01,0.02c-0.06,0.14-0.11,0.27-0.16,0.42c-0.06,0.13-0.11,0.28-0.16,0.43
				c-0.03,0.07-0.04,0.15-0.06,0.22c-0.01,0.04-0.02,0.07-0.03,0.1c-0.01,0.05-0.03,0.11-0.05,0.15c-0.05,0.18-0.09,0.36-0.13,0.53
				c-0.02,0.11-0.04,0.21-0.06,0.31c-0.01,0.06-0.02,0.13-0.03,0.18c0,0.05-0.02,0.1-0.02,0.15c-0.04,0.3-0.06,0.6-0.06,0.9
				l5.72,3.32c-0.01-0.34,0.03-0.7,0.08-1.06c0.01-0.06,0.02-0.11,0.03-0.17c0.06-0.34,0.13-0.68,0.23-1.02
				c0.01-0.02,0.02-0.05,0.03-0.08c0.11-0.37,0.24-0.74,0.4-1.1c0,0,0.01-0.01,0.01-0.01c0.16-0.37,0.34-0.73,0.54-1.08
				c0.01-0.01,0.01-0.02,0.02-0.03c0.2-0.34,0.41-0.67,0.64-0.99c0.02-0.02,0.04-0.04,0.06-0.07c0.21-0.29,0.45-0.56,0.68-0.83
				c0.05-0.05,0.1-0.1,0.14-0.15c0.19-0.2,0.4-0.39,0.6-0.56c0.08-0.08,0.16-0.16,0.25-0.22c0.28-0.23,0.57-0.44,0.87-0.6
				l93.19-53.97c0.29-0.17,0.57-0.3,0.85-0.4c0.05-0.02,0.1-0.04,0.15-0.05c0.26-0.08,0.51-0.14,0.76-0.16
				c0.02-0.01,0.04-0.01,0.07-0.01c0.26-0.02,0.5-0.01,0.74,0.04c0.01,0,0.03,0,0.04,0c0.24,0.05,0.46,0.14,0.67,0.25L188.38,36.31z
				"/>
		</g>
	</g>
	<g>
		<g class="st0">
			<g class="st16">
				<g>
					<path class="st64" d="M303.27,113.73l-7.15,4.16c-0.45,0.26-1.01,0.26-1.46,0l-7.21-4.16c-0.97-0.56-0.97-1.96,0-2.52
						l7.15-4.16c0.45-0.26,1.01-0.26,1.46,0l7.21,4.17C304.24,111.77,304.24,113.17,303.27,113.73z"/>
				</g>
			</g>
			<g class="st14">
				<g>
					<path class="st64" d="M303.27,105.32l-7.15,4.16c-0.45,0.26-1.01,0.26-1.46,0l-7.21-4.16c-0.97-0.56-0.97-1.96,0-2.52
						l7.15-4.16c0.45-0.26,1.01-0.26,1.46,0l7.21,4.17C304.24,103.36,304.24,104.76,303.27,105.32z"/>
				</g>
			</g>
			<g class="st12">
				<g>
					<path class="st64" d="M303.27,96.92l-7.15,4.16c-0.45,0.26-1.01,0.26-1.46,0l-7.21-4.16c-0.97-0.56-0.97-1.96,0-2.52l7.15-4.16
						c0.45-0.26,1.01-0.26,1.46,0l7.21,4.17C304.24,94.96,304.24,96.36,303.27,96.92z"/>
				</g>
			</g>
			<g class="st10">
				<g>
					<path class="st64" d="M303.27,88.51l-7.15,4.16c-0.45,0.26-1.01,0.26-1.46,0l-7.21-4.16c-0.97-0.56-0.97-1.96,0-2.52l7.15-4.16
						c0.45-0.26,1.01-0.26,1.46,0l7.21,4.17C304.24,86.55,304.24,87.95,303.27,88.51z"/>
				</g>
			</g>
			<g class="st8">
				<g>
					<path class="st64" d="M303.27,80.1l-7.15,4.16c-0.45,0.26-1.01,0.26-1.46,0l-7.21-4.16c-0.97-0.56-0.97-1.96,0-2.52l7.15-4.16
						c0.45-0.26,1.01-0.26,1.46,0l7.21,4.17C304.24,78.14,304.24,79.54,303.27,80.1z"/>
				</g>
			</g>
			<g class="st6">
				<g>
					<path class="st64" d="M303.27,71.7l-7.15,4.16c-0.45,0.26-1.01,0.26-1.46,0l-7.21-4.17c-0.97-0.56-0.97-1.96,0-2.52l7.15-4.16
						c0.45-0.26,1.01-0.26,1.46,0l7.21,4.17C304.24,69.74,304.24,71.13,303.27,71.7z"/>
				</g>
			</g>
			<g class="st4">
				<g>
					<path class="st64" d="M303.27,63.29l-7.15,4.16c-0.45,0.26-1.01,0.26-1.46,0l-7.21-4.17c-0.97-0.56-0.97-1.96,0-2.52l7.15-4.16
						c0.45-0.26,1.01-0.26,1.46,0l7.21,4.17C304.24,61.33,304.24,62.73,303.27,63.29z"/>
				</g>
			</g>
			<g>
				<g>
					<path class="st64" d="M303.27,54.88l-7.15,4.16c-0.45,0.26-1.01,0.26-1.46,0l-7.21-4.17c-0.97-0.56-0.97-1.96,0-2.52l7.15-4.16
						c0.45-0.26,1.01-0.26,1.46,0l7.21,4.17C304.24,52.92,304.24,54.32,303.27,54.88z"/>
				</g>
			</g>
		</g>
		<g>
			<g>
				<path class="st64" d="M303.27,54.88l-7.15,4.16c-0.45,0.26-1.01,0.26-1.46,0l-7.21-4.17c-0.97-0.56-0.97-1.96,0-2.52l7.15-4.16
					c0.45-0.26,1.01-0.26,1.46,0l7.21,4.17C304.24,52.92,304.24,54.32,303.27,54.88z"/>
			</g>
		</g>
	</g>
	<g>
		<g class="st0">
			<g class="st16">
				<g>
					<path class="st65" d="M72.36,89.03l-6.34,3.69c-0.4,0.23-0.89,0.23-1.3,0l-6.4-3.69c-0.86-0.5-0.86-1.74-0.01-2.24l6.34-3.69
						c0.4-0.23,0.89-0.23,1.3,0l6.4,3.69C73.22,87.29,73.22,88.53,72.36,89.03z"/>
				</g>
			</g>
			<g class="st14">
				<g>
					<path class="st65" d="M72.36,83.52l-6.34,3.69c-0.4,0.23-0.89,0.23-1.3,0l-6.4-3.69c-0.86-0.5-0.86-1.74-0.01-2.24l6.34-3.69
						c0.4-0.23,0.89-0.23,1.3,0l6.4,3.69C73.22,81.78,73.22,83.02,72.36,83.52z"/>
				</g>
			</g>
			<g class="st12">
				<g>
					<path class="st65" d="M72.36,78.01l-6.34,3.69c-0.4,0.23-0.89,0.23-1.3,0l-6.4-3.69c-0.86-0.5-0.86-1.74-0.01-2.24l6.34-3.69
						c0.4-0.23,0.89-0.23,1.3,0l6.4,3.69C73.22,76.27,73.22,77.51,72.36,78.01z"/>
				</g>
			</g>
			<g class="st10">
				<g>
					<path class="st65" d="M72.36,72.51l-6.34,3.69c-0.4,0.23-0.89,0.23-1.3,0l-6.4-3.69c-0.86-0.5-0.86-1.74,0-2.24l6.34-3.69
						c0.4-0.23,0.89-0.23,1.3,0l6.4,3.69C73.22,70.77,73.22,72.01,72.36,72.51z"/>
				</g>
			</g>
			<g class="st8">
				<g>
					<path class="st65" d="M72.36,67l-6.34,3.69c-0.4,0.23-0.89,0.23-1.3,0L58.33,67c-0.86-0.5-0.86-1.74,0-2.24l6.34-3.69
						c0.4-0.23,0.89-0.23,1.3,0l6.4,3.69C73.22,65.26,73.22,66.5,72.36,67z"/>
				</g>
			</g>
			<g class="st6">
				<g>
					<path class="st65" d="M72.36,61.5l-6.34,3.69c-0.4,0.23-0.89,0.23-1.3,0l-6.4-3.69c-0.86-0.5-0.86-1.74,0-2.24l6.34-3.69
						c0.4-0.23,0.89-0.23,1.3,0l6.4,3.69C73.22,59.76,73.22,61,72.36,61.5z"/>
				</g>
			</g>
			<g class="st4">
				<g>
					<path class="st65" d="M72.36,55.99l-6.34,3.69c-0.4,0.23-0.89,0.23-1.3,0l-6.4-3.69c-0.86-0.5-0.86-1.74,0-2.24l6.34-3.69
						c0.4-0.23,0.89-0.23,1.3,0l6.4,3.69C73.22,54.25,73.22,55.49,72.36,55.99z"/>
				</g>
			</g>
			<g>
				<g>
					<path class="st65" d="M72.36,50.49l-6.34,3.69c-0.4,0.23-0.89,0.23-1.3,0l-6.4-3.69c-0.86-0.5-0.86-1.74,0-2.24l6.34-3.69
						c0.4-0.23,0.89-0.23,1.3,0l6.4,3.69C73.22,48.75,73.22,49.99,72.36,50.49z"/>
				</g>
			</g>
		</g>
		<g>
			<g>
				<path class="st66" d="M72.36,50.49l-6.35,3.69c-0.4,0.23-0.89,0.23-1.29,0l-6.4-3.69c-0.86-0.5-0.86-1.74-0.01-2.24l6.35-3.69
					c0.4-0.23,0.89-0.23,1.29,0l6.4,3.69C73.22,48.75,73.22,49.99,72.36,50.49z"/>
			</g>
		</g>
	</g>
	<g class="st17">
		<g>
			<g class="st0">
				<polygon class="st67" points="188.28,98.74 188.29,101.78 155.39,120.76 155.39,117.73 				"/>
			</g>
			<g class="st17">
				<polygon class="st67" points="257.25,67.28 257.31,88.94 210.56,115.94 210.5,94.27 				"/>
			</g>
			<g class="st0">
				<path class="st67" d="M205.72,91.71l55.08-31.8l0.14,48.14l-55.09,31.8L205.72,91.71z M257.31,88.94l-0.06-21.67L210.5,94.27
					l0.06,21.67L257.31,88.94L257.31,88.94z"/>
			</g>
			<g class="st0">
				<polygon class="st67" points="260.78,51.26 260.79,54.9 205.71,86.7 205.7,83.06 				"/>
			</g>
			<g class="st0">
				<polygon class="st67" points="188.35,126.06 188.42,147.55 155.53,166.54 155.46,145.05 				"/>
			</g>
			<g class="st17">
				<path class="st67" d="M151.76,99.15l42.01-24.25l0.2,73.96l-42.01,24.25L151.76,99.15z M188.42,147.55l-0.06-21.49l-32.89,18.99
					l0.06,21.49L188.42,147.55L188.42,147.55z M188.24,86.75l-0.01-3.04l-32.89,18.99l0.01,3.04L188.24,86.75L188.24,86.75z
					 M188.29,101.78l-0.01-3.04l-32.89,18.99l0.01,3.04L188.29,101.78L188.29,101.78z M188.31,108.61l-0.01-3.03l-32.9,18.99
					l0.01,3.03L188.31,108.61L188.31,108.61z M188.27,93.58l-0.01-3.04l-32.89,18.99l0.01,3.03L188.27,93.58L188.27,93.58z"/>
			</g>
			<g class="st68">
				<g>
					<g>
						<g>
							<path class="st67" d="M147.36,86.61L265.85,18.2l0.26,92.96l-118.48,68.41L147.36,86.61z M193.98,148.86l-0.2-73.96
								l-42.01,24.25l0.21,73.96L193.98,148.86L193.98,148.86z M260.94,108.05l-0.14-48.14l-55.08,31.8l0.13,48.14L260.94,108.05
								L260.94,108.05z M260.73,32.13l-0.03-8.19L150.14,87.77l0.02,8.19L260.73,32.13L260.73,32.13z M260.75,39.87l-0.01-3.65
								l-55.08,31.8l0.01,3.64L260.75,39.87L260.75,39.87z M260.77,46.7l-0.01-3.65l-55.09,31.8l0.01,3.64L260.77,46.7L260.77,46.7z
								 M260.79,54.9l0-3.65l-55.09,31.8l0.01,3.65L260.79,54.9L260.79,54.9z"/>
						</g>
					</g>
				</g>
			</g>
			<g class="st0">
				<polygon class="st67" points="260.76,43.06 260.77,46.7 205.69,78.5 205.67,74.86 				"/>
			</g>
			<g class="st0">
				<polygon class="st67" points="151.75,92.77 211.78,58.11 211.77,54.24 151.73,88.9 				"/>
			</g>
			<g class="st0">
				<path class="st67" d="M260.73,32.13l-0.03-8.19L150.14,87.77l0.02,8.19L260.73,32.13z M258.52,27.25l0.01,3.87l-23.77,13.73
					l-0.02-3.87L258.52,27.25L258.52,27.25z M211.77,54.24l0.01,3.87l-60.04,34.67l-0.02-3.87L211.77,54.24L211.77,54.24z"/>
			</g>
			<g class="st0">
				<polygon class="st67" points="258.52,27.25 258.54,31.11 234.77,44.84 234.75,40.97 				"/>
			</g>
			<g class="st0">
				<polygon class="st67" points="260.74,36.23 260.75,39.87 205.67,71.67 205.66,68.03 				"/>
			</g>
			<g class="st0">
				<polygon class="st67" points="188.3,105.57 188.31,108.61 155.42,127.6 155.4,124.56 				"/>
			</g>
			<g class="st0">
				<polygon class="st67" points="188.25,90.54 188.27,93.58 155.37,112.57 155.37,109.53 				"/>
			</g>
			<g class="st0">
				<polygon class="st67" points="188.23,83.71 188.24,86.75 155.35,105.74 155.34,102.7 				"/>
			</g>
		</g>
	</g>
	<g class="st0">
		<g>
			<polygon class="st67" points="125.39,60.98 125.39,63.85 94.38,81.75 94.38,78.89 			"/>
		</g>
		<g>
			<polygon class="st67" points="125.46,86.75 125.51,107.01 94.5,124.91 94.45,104.65 			"/>
		</g>
		<g class="st17">
			<path class="st67" d="M90.95,61.37l39.61-22.87l0.2,69.74l-39.61,22.87L90.95,61.37z M125.51,107.01l-0.06-20.26l-31.01,17.91
				l0.05,20.26L125.51,107.01L125.51,107.01z M125.35,49.68l-0.01-2.87L94.32,64.72l0.01,2.87L125.35,49.68L125.35,49.68z
				 M125.39,63.85l0-2.86l-31.01,17.9l0.01,2.86L125.39,63.85L125.39,63.85z M125.41,70.29l-0.01-2.86L94.39,85.34l0.01,2.86
				L125.41,70.29L125.41,70.29z M125.37,56.12l-0.01-2.86L94.35,71.16l0.01,2.86L125.37,56.12L125.37,56.12z"/>
		</g>
		<path class="st67" d="M134.55,32.32L89.44,58.37l-0.02-7.73l45.13-26.06v-2.61L86.8,49.54l0.25,87.65l47.5-27.42V32.32z
			 M90.95,61.37l39.61-22.87l0.2,69.74l-39.61,22.87L90.95,61.37z"/>
		<polygon class="st67" points="134.55,26.52 90.93,51.71 90.93,55.36 134.55,30.17 		"/>
		<polygon class="st67" points="134.55,30.17 90.93,55.36 90.93,51.71 134.55,26.52 134.55,24.58 89.42,50.64 89.44,58.37 
			134.55,32.32 		"/>
		<g>
			<polygon class="st67" points="125.4,67.43 125.41,70.29 94.4,88.2 94.39,85.34 			"/>
		</g>
		<g>
			<polygon class="st67" points="125.36,53.25 125.37,56.12 94.36,74.02 94.35,71.16 			"/>
		</g>
		<g>
			<polygon class="st67" points="125.34,46.81 125.35,49.68 94.34,67.58 94.32,64.72 			"/>
		</g>
	</g>
	<g class="st0">
		<g>
			<g>
				<polygon class="st67" points="123.68,164.5 123.73,183.22 83.34,206.54 83.29,187.82 				"/>
			</g>
			<g class="st17">
				<path class="st67" d="M79.16,185.61l47.59-27.47l0.12,41.59L79.28,227.2L79.16,185.61z M123.73,183.22l-0.05-18.72l-40.39,23.32
					l0.05,18.72L123.73,183.22L123.73,183.22z"/>
			</g>
			<g>
				<polygon class="st67" points="126.73,150.66 126.74,153.81 79.15,181.29 79.14,178.13 				"/>
			</g>
			<g class="st68">
				<g>
					<path class="st67" d="M76.63,155.94l50.03-28.89l0.02,7.08l-50.05,28.9v70.96l54.7-31.58l-0.23-80.31l-54.48,31.46V155.94z
						 M126.87,199.73L79.28,227.2l-0.12-41.59l47.59-27.47L126.87,199.73z M126.74,153.81l-47.59,27.48l-0.01-3.15l47.59-27.47
						L126.74,153.81z M126.72,146.73L79.13,174.2l-0.01-3.15l47.59-27.47L126.72,146.73z M126.7,140.83L79.11,168.3l-0.01-3.15
						l47.59-27.47L126.7,140.83z"/>
				</g>
			</g>
			<g>
				<polygon class="st67" points="126.71,143.58 126.72,146.73 79.13,174.2 79.12,171.05 				"/>
			</g>
			<g>
				<path class="st67" d="M126.66,127.06l-50.03,28.89v1.77v3.35v1.97l50.05-28.9L126.66,127.06z M104.25,145.12l-0.01-3.34
					l20.53-11.86l0.01,3.34L104.25,145.12z"/>
			</g>
			<g>
				<polygon class="st67" points="124.78,129.92 124.79,133.26 104.25,145.12 104.25,141.77 				"/>
			</g>
			<g>
				<polygon class="st67" points="126.69,137.68 126.7,140.83 79.11,168.3 79.1,165.15 				"/>
			</g>
		</g>
	</g>
	<g>
		<g class="st68">
			<g>
				<g class="st16">
					<g>
						<path class="st69" d="M57.71,231.66l-4.83,2.9c-0.3,0.18-0.68,0.19-0.99,0.02l-4.95-2.76c-0.67-0.37-0.68-1.32-0.03-1.71
							l4.83-2.9c0.3-0.18,0.68-0.19,0.99-0.02l4.95,2.76C58.35,230.31,58.37,231.26,57.71,231.66z"/>
					</g>
				</g>
				<g class="st14">
					<g>
						<path class="st70" d="M57.62,223.61l-4.83,2.9c-0.3,0.18-0.68,0.19-0.99,0.02l-4.95-2.76c-0.67-0.37-0.68-1.32-0.03-1.72
							l4.83-2.9c0.3-0.18,0.68-0.19,0.99-0.02l4.95,2.76C58.25,222.26,58.27,223.22,57.62,223.61z"/>
					</g>
				</g>
				<g class="st12">
					<g>
						<path class="st71" d="M57.52,215.56l-4.83,2.9c-0.3,0.18-0.68,0.19-0.99,0.02l-4.95-2.76c-0.67-0.37-0.68-1.32-0.03-1.72
							l4.83-2.9c0.3-0.18,0.68-0.19,0.99-0.02l4.95,2.76C58.16,214.22,58.18,215.17,57.52,215.56z"/>
					</g>
				</g>
				<g class="st10">
					<g>
						<path class="st72" d="M57.43,207.51l-4.83,2.9c-0.3,0.18-0.68,0.19-0.99,0.02l-4.95-2.76c-0.67-0.37-0.68-1.32-0.03-1.72
							l4.83-2.9c0.3-0.18,0.68-0.19,0.99-0.02l4.95,2.76C58.06,206.17,58.08,207.12,57.43,207.51z"/>
					</g>
				</g>
				<g class="st8">
					<g>
						<path class="st73" d="M57.33,199.47l-4.83,2.9c-0.3,0.18-0.68,0.19-0.99,0.02l-4.95-2.76c-0.67-0.37-0.68-1.32-0.03-1.72
							l4.83-2.9c0.3-0.18,0.68-0.19,0.99-0.02l4.95,2.76C57.97,198.12,57.98,199.07,57.33,199.47z"/>
					</g>
				</g>
				<g class="st6">
					<g>
						<path class="st74" d="M57.24,191.42l-4.83,2.9c-0.3,0.18-0.68,0.19-0.99,0.02l-4.95-2.76c-0.67-0.37-0.68-1.32-0.03-1.72
							l4.83-2.9c0.3-0.18,0.68-0.19,0.99-0.02l4.95,2.76C57.87,190.07,57.89,191.02,57.24,191.42z"/>
					</g>
				</g>
				<g class="st4">
					<g>
						<path class="st75" d="M57.14,183.37l-4.83,2.9c-0.3,0.18-0.68,0.19-0.99,0.02l-4.95-2.76c-0.67-0.37-0.68-1.32-0.03-1.72
							l4.83-2.9c0.3-0.18,0.68-0.19,0.99-0.02l4.95,2.76C57.78,182.02,57.79,182.98,57.14,183.37z"/>
					</g>
				</g>
				<g>
					<g>
						<path class="st76" d="M57.04,175.32l-4.83,2.9c-0.3,0.18-0.68,0.19-0.99,0.02l-4.95-2.76c-0.67-0.37-0.68-1.32-0.03-1.72
							l4.83-2.9c0.3-0.18,0.68-0.19,0.99-0.02l4.95,2.76C57.68,173.98,57.7,174.93,57.04,175.32z"/>
					</g>
				</g>
			</g>
		</g>
		<g class="st77">
			<g>
				<path class="st78" d="M57.04,175.32l-4.82,2.9c-0.3,0.18-0.68,0.19-1,0.02l-4.95-2.76c-0.67-0.37-0.68-1.32-0.03-1.72l4.82-2.9
					c0.3-0.18,0.68-0.19,0.99-0.02l4.95,2.76C57.67,173.98,57.69,174.93,57.04,175.32z"/>
			</g>
		</g>
	</g>
	<g class="st17">
		<linearGradient id="SVGID_10_" gradientUnits="userSpaceOnUse" x1="364.674" y1="132.3984" x2="74.0382" y2="-73.2156">
			<stop  offset="0" style="stop-color:#FFF3CA"/>
			<stop  offset="1" style="stop-color:#F8B5BA"/>
		</linearGradient>
		<path class="st79" d="M215.03,15.41v1.97l-2,1.16v-2.09c0-1.97-0.68-2.76-2.22-1.87c-1.51,0.87-2.22,2.47-2.22,4.43v11.55
			c0,1.97,0.7,2.74,2.22,1.87c1.54-0.89,2.22-2.47,2.22-4.43v-2.84l2-1.15v2.71c0,3.31-1.35,6.27-4.27,7.96
			c-2.89,1.67-4.24,0.27-4.25-3.04v-11.3c0-3.31,1.35-6.27,4.25-7.94C213.68,10.7,215.03,12.1,215.03,15.41z"/>
		<linearGradient id="SVGID_11_" gradientUnits="userSpaceOnUse" x1="370.8036" y1="123.7196" x2="80.18" y2="-81.886">
			<stop  offset="0" style="stop-color:#FFF3CA"/>
			<stop  offset="1" style="stop-color:#F8B5BA"/>
		</linearGradient>
		<path class="st80" d="M225.14,9.54v0.59l-2,1.15v-0.72c0-1.97-0.65-2.75-2.16-1.87c-1.51,0.87-2.16,2.4-2.16,4.34
			c0,4.9,6.35,1.7,6.35,7.85c0,3.31-1.38,6.26-4.27,7.93c-2.89,1.67-4.24,0.3-4.24-3.01v-1.25l1.98-1.14v1.37
			c0,1.97,0.7,2.72,2.22,1.84c1.51-0.87,2.22-2.43,2.22-4.4c0-4.87-6.33-1.68-6.33-7.83c0-3.37,1.35-6.24,4.19-7.88
			C223.79,4.86,225.14,6.23,225.14,9.54z"/>
		<linearGradient id="SVGID_12_" gradientUnits="userSpaceOnUse" x1="376.91" y1="115.1118" x2="86.2655" y2="-90.5084">
			<stop  offset="0" style="stop-color:#FFF3CA"/>
			<stop  offset="1" style="stop-color:#F8B5BA"/>
		</linearGradient>
		<path class="st81" d="M235.21,3.73v0.59l-2,1.15V4.76c0-1.96-0.65-2.75-2.16-1.87c-1.52,0.87-2.16,2.4-2.16,4.34
			c0,4.9,6.36,1.7,6.36,7.85c0,3.31-1.38,6.26-4.27,7.93c-2.89,1.67-4.24,0.3-4.24-3.01v-1.25l1.97-1.14v1.37
			c0,1.97,0.7,2.72,2.22,1.84c1.52-0.87,2.22-2.44,2.22-4.4c0-4.87-6.33-1.68-6.33-7.83c0-3.37,1.35-6.24,4.19-7.88
			C233.85-0.95,235.21,0.42,235.21,3.73z"/>
	</g>
	<g class="st17">
		<linearGradient id="SVGID_13_" gradientUnits="userSpaceOnUse" x1="247.1264" y1="297.7812" x2="-43.4938" y2="92.1781">
			<stop  offset="0" style="stop-color:#FFF3CA"/>
			<stop  offset="1" style="stop-color:#F8B5BA"/>
		</linearGradient>
		<path class="st82" d="M32.28,149.87v9.83l-2.11,1.22v-21.85l2.11-1.22v9.83l4.65-2.69v-9.83l2.11-1.22v21.85l-2.11,1.22v-9.83
			L32.28,149.87z"/>
		<linearGradient id="SVGID_14_" gradientUnits="userSpaceOnUse" x1="254.4827" y1="287.368" x2="-36.1261" y2="81.7729">
			<stop  offset="0" style="stop-color:#FFF3CA"/>
			<stop  offset="1" style="stop-color:#F8B5BA"/>
		</linearGradient>
		<path class="st83" d="M43.96,152.95v-19.63l-3.49,2.01v-2.22l9.08-5.24v2.22l-3.49,2.01v19.63L43.96,152.95z"/>
		<linearGradient id="SVGID_15_" gradientUnits="userSpaceOnUse" x1="260.7056" y1="278.6167" x2="-29.9341" y2="72.9998">
			<stop  offset="0" style="stop-color:#FFF3CA"/>
			<stop  offset="1" style="stop-color:#F8B5BA"/>
		</linearGradient>
		<path class="st84" d="M58,144.82l-2.03,1.17l-3.14-15.57v17.42L51,148.89v-21.85l2.95-1.7L57.06,141l3-19.18l2.95-1.7v21.85
			l-2,1.16v-17.57L58,144.82z"/>
		<linearGradient id="SVGID_16_" gradientUnits="userSpaceOnUse" x1="266.2831" y1="270.7125" x2="-24.3416" y2="65.1062">
			<stop  offset="0" style="stop-color:#FFF3CA"/>
			<stop  offset="1" style="stop-color:#F8B5BA"/>
		</linearGradient>
		<path class="st85" d="M65.17,140.71v-21.85l2.11-1.22v19.63l5.41-3.12v2.22L65.17,140.71z"/>
	</g>
	<g class="st17">
		<linearGradient id="SVGID_17_" gradientUnits="userSpaceOnUse" x1="222.0192" y1="260.2834" x2="-68.6258" y2="54.6628">
			<stop  offset="0" style="stop-color:#FFF3CA"/>
			<stop  offset="1" style="stop-color:#F8B5BA"/>
		</linearGradient>
		<path class="st86" d="M189.23,238.52l-8.38,0.87v-1.75l8.38-8.8v1.78l-6.41,6.76l6.41-0.64V238.52z"/>
		<linearGradient id="SVGID_18_" gradientUnits="userSpaceOnUse" x1="227.3595" y1="252.7341" x2="-63.2912" y2="47.1095">
			<stop  offset="0" style="stop-color:#FFF3CA"/>
			<stop  offset="1" style="stop-color:#F8B5BA"/>
		</linearGradient>
		<path class="st87" d="M200.05,216.52l-7.46,26.16l-1.84,1.06l7.46-26.16L200.05,216.52z"/>
		<linearGradient id="SVGID_19_" gradientUnits="userSpaceOnUse" x1="232.6989" y1="245.1853" x2="-57.9388" y2="39.5698">
			<stop  offset="0" style="stop-color:#FFF3CA"/>
			<stop  offset="1" style="stop-color:#F8B5BA"/>
		</linearGradient>
		<path class="st88" d="M201.57,229.62l6.41-6.76l-6.41,0.64v-1.78l8.38-0.87v1.75l-8.38,8.8V229.62z"/>
	</g>
	<g>
		<g class="st0">
			<path class="st89" d="M236.55,79.47c4.22-2.44,7.63-0.49,7.64,4.36c0.01,4.85-3.38,10.72-7.6,13.16
				c-4.22,2.44-7.65,0.5-7.67-4.35C228.92,87.79,232.33,81.9,236.55,79.47z"/>
		</g>
		<g class="st0">
			<path class="st90" d="M236.55,82.84c2.74-1.58,4.95-0.32,4.95,2.82c0.01,3.14-2.19,6.94-4.92,8.52
				c-2.73,1.58-4.95,0.33-4.96-2.81C231.61,88.23,233.82,84.42,236.55,82.84z"/>
		</g>
		<g class="st0">
			<path class="st90" d="M236.55,86.12c1.29-0.74,2.33-0.15,2.33,1.33c0.01,1.48-1.03,3.27-2.31,4.01
				c-1.28,0.74-2.33,0.15-2.34-1.32C234.23,88.66,235.27,86.87,236.55,86.12z"/>
		</g>
	</g>
	<g>
		<g>
			<g>
				<path class="st91" d="M243.75,97.33c0,0-0.53-4.84-1.05-5.76c-0.51-0.91-2.6-4.84-6.15-5.45c-1.92-0.34-0.84,1.68,0.93,3.95
					c0.81,1.03,1.63,1.62,1.37,3.8c-0.19,1.59,0.23,4.03,0.6,5.15C239.83,100.16,243.75,97.33,243.75,97.33z"/>
				<path class="st92" d="M239.35,98.83c-0.36-1.13-0.55-3.5-1.48-4.8c-1.11-1.56,0.43-2.92-0.38-3.95
					c-1.38-1.76-2.32-3.44-1.78-3.89c0.95,1.42,3.25,0.97,4.46,5.24c0.43,1.56,0.67,5.46,0.48,7.33
					C239.75,99.07,239.5,99.27,239.35,98.83z"/>
				<path class="st91" d="M240.83,98.63c0,0-3.36-4.34-4.18-5.8c-0.82-1.46-0.79-2.83-0.39-2.71c0.39,0.12,3.07,4.31,4.25,2.99
					C241.13,92.4,240.49,97.9,240.83,98.63z"/>
			</g>
			<path class="st93" d="M274.03,119.04c0,0-0.41,6.07-8.08,3.96c-7.67-2.11-21.48-7.73-23.25-11.43
				c-1.77-3.7-3.57-13.64-3.57-13.64s3.74,1.24,5.13-1.8l6.07,12.32C250.33,108.45,274.41,114.81,274.03,119.04z"/>
			<path class="st67" d="M274.03,119.04c0.38-4.24-23.7-10.59-23.7-10.59l-6.07-12.32c-0.51,1.13-1.36,1.67-2.2,1.9
				c0.64,3.15,1.89,8.8,3.13,11.39c1.76,3.7,15.58,9.32,23.25,11.43c2.23,0.61,3.83,0.52,5,0.11
				C273.96,119.96,274.03,119.04,274.03,119.04z"/>
		</g>
		<g class="st94">
			<path class="st95" d="M280.93,217.43c11.98,6.92,12.04,18.13,0.13,25.05c-11.89,6.91-31.24,6.91-43.22,0
				c-11.97-6.91-12.03-18.13-0.14-25.04C249.6,210.52,268.96,210.52,280.93,217.43z"/>
		</g>
		<path class="st96" d="M261.53,217.99c0,0-2.88,0.44-2.18,2.09c0.7,1.66,4.01,4.19,4.45,5.24c0.44,1.05,3.14,4.8,4.01,4.45
			c0.88-0.35,3.15,0.17,2.88-4.1C270.44,221.4,265.37,217.82,261.53,217.99z"/>
		<path class="st96" d="M256.03,233.71c0,0,1.4,4.1-2.09,5.07c-3.49,0.96-2.45-1.22-10.04,0.69c-7.6,1.92-8.47-2-8.29-2.88
			c0.17-0.87,5.23-2.44,6.9-2.88c1.65-0.43,4.8-1.23,4.8-1.23h9L256.03,233.71z"/>
		<path class="st97" d="M270.38,161.67c0,0,0.05,24.78,0.05,27.57c0,2.79,3.12,24.78,1.24,34.38c0,0-5.4,5.42-10.19,0
			c0,0-1.52-27.53-2.91-33.74c-1.38-6.21-0.92-25.22-0.92-25.22L270.38,161.67z"/>
		<path class="st97" d="M260.9,165.19c0,0-1.23,16-2.51,31.87c0,0-0.79,31.49-1.54,36.03c0,0-10.16,2.52-11.17-2.26
			c0,0,0.25-27.72,0-33.51c-0.26-5.8-0.86-21.95,1.43-31.28C249.41,156.72,260.9,165.19,260.9,165.19z"/>
		<path class="st98" d="M256.86,233.09c0.75-4.53,1.54-36.03,1.54-36.03c0.86-10.68,1.69-21.42,2.15-27.3l-6.27,1.54
			c0,0-4.52,11.87-3.83,29.68c0.54,13.78,0.76,27.33,0.84,32.77C254.07,233.78,256.86,233.09,256.86,233.09z"/>
		<path class="st98" d="M271.67,223.63c1.87-9.61-1.24-31.59-1.24-34.38c0-2.66-0.04-25.26-0.05-27.39l-5.45,4.19
			c0,0-1.74,17.72,0,27.81c1.58,9.18,0.56,27.05,1.33,32.18C269.27,226.03,271.67,223.63,271.67,223.63z"/>
		<path class="st67" d="M271.9,116.66c0,0,5.24,2.61,2.27,11.52c-2.96,8.9-5.06,14.66-4.89,17.98c0.18,3.32,1.39,14.49,2.1,16.76
			c0,0,0.87,7.33-15.88,11.7c0,0-13.79,1.4-11.53-7.68c2.27-9.08,3.15-23.74,2.8-27.23c-0.35-3.49-2.45-10.47,6.28-15.19
			C261.78,119.8,266.31,116.32,271.9,116.66z"/>
		<path class="st93" d="M246.76,139.7c0.35,3.49-0.53,18.16-2.8,27.23c-1.57,6.3,4.57,7.55,8.49,7.73
			c1.26-4.05-0.86-11.28,2.05-20.12c3.6-10.93,3.09-18.15,1.16-23.97c-1.25-3.78-3.52-3.88-5.13-4.41
			C244.76,130.73,246.45,136.6,246.76,139.7z"/>
		<path class="st91" d="M265.7,112.27c0,0-0.56,4.65,1.04,7.56c1.45,2.64-9.51,5.05-9.77,2.6c-0.03-0.26,2.07-4.26-0.58-9.01
			C255.02,110.93,265.7,112.27,265.7,112.27z"/>
		<path class="st99" d="M266.68,119.99c-1.19-2.16-1.19-5.29-1.1-6.75l-8,3.97c0,0.01,0,0.01,0,0.02c0.29,0.07,5.7,1.44,6.86,5.33
			C266.09,121.88,267.21,120.95,266.68,119.99z"/>
		<path class="st91" d="M254.16,99.91c0,0-1.7,4.23-1.36,7.86c0.36,3.92-0.22,4.71,0.02,6.45c0.1,0.74,0.16,1.87,0.89,2.57
			c1.21,1.17,3.7,1.6,7.08,0.36c4.08-1.49,8.38-7.11,6.64-12.15C265.67,99.95,260.3,95.8,254.16,99.91z"/>
		<path class="st92" d="M267.23,110.45c-1.64-4.54-5.7-9.99-5.66-10.27c0.02-0.18-1.32-1.02-2.86-1.93
			c-1.44,0.09-2.97,0.6-4.56,1.66c0,0-0.45,1.13-0.84,2.72c0.97,1.08,2.96,2.33,3.25,3.25c0.7,2.17,0.3,5.47-0.34,6.92
			c-0.65,1.45,1.97,3.59,1.42,4.88c-0.03,0.06-0.03,0.12-0.02,0.17c0.94-0.06,2-0.28,3.16-0.71
			C263.39,116.19,266.08,113.54,267.23,110.45z"/>
		<path class="st100" d="M253.57,98.63c-1.33,0.76-1.21,3.16,2.36,4.91c2.14,1.05,1.95,4.51,1.85,5.15
			c-0.1,0.64-0.73,3.55-0.47,3.93c0.5,0.72,2.18-1.53,2.98-1.37c2.03,0.39,1.24,2.28-0.61,4.27c-1.96,2.1,3.2,2.97,5.59,1.23
			c1.26-0.92,1.73-1.47,3.4-4.79c2.43-4.83,2.55-10.63-3.16-13.72C259.79,95.14,256.89,96.75,253.57,98.63z"/>
		<path class="st101" d="M265.26,116.75c1.26-0.92,1.73-1.47,3.4-4.79c2.43-4.83,3.26-10.61-2.45-13.71
			c-5.7-3.09-8.04-2.29-11.35-0.4c-0.32,0.18-2,0.95-1.88,1.79c1.81,0.29,6.76,1.26,8.04,3.39c1.57,2.62,3.32,1.77,3.18,5.03
			c-0.12,3.14,0.69,7.25-4.59,9.02C261.57,118.49,264.34,117.42,265.26,116.75z"/>
		<path class="st102" d="M257.59,120.98l-3.57,3.01c0,0,11.11,3.18,14.37-2.27c0.46-0.77-0.1-3.35-2.04-3.84
			C266.35,117.89,265.97,122.32,257.59,120.98z"/>
		<g>
			<path class="st103" d="M222.63,147.57c0,0-4.18-0.32-4.86-1.16c-0.68-0.84-2.06-0.15-1.16,0.76c0.91,0.91,2.3,1.34,2.3,1.34
				s-4.92,0.27-5.35-1.17c-0.44-1.44-0.51,3.84,1.69,4.83c2.21,1,4.44,2.49,9.33-1.16C224.58,151,224.43,148.62,222.63,147.57z"/>
			<path class="st93" d="M252.37,126.07c0,0,5.44,2.19,1.22,8.61c-4.22,6.41-11.9,16.91-15.82,17.43
				c-3.91,0.52-14.91,0.66-14.91,0.66s1.84-3.37-0.54-5.55l13.9-3.12C236.22,144.1,248.59,124.46,252.37,126.07z"/>
			<path class="st67" d="M252.37,126.07c-3.77-1.61-16.15,18.03-16.15,18.03l-13.9,3.12c0.52,0.47,0.83,1.01,1.01,1.56
				c4.67-0.57,13.31-1.71,15.09-2.6c2.18-1.09,12.95-15.58,15.48-19.02C253.16,126.4,252.37,126.07,252.37,126.07z"/>
		</g>
	</g>
</g>
</svg>
