<?xml version="1.0" encoding="utf-8"?>
<!-- Generator: Adobe Illustrator 25.1.0, SVG Export Plug-In . SVG Version: 6.00 Build 0)  -->
<svg version="1.1" id="Layer_1" xmlns="http://www.w3.org/2000/svg" xmlns:xlink="http://www.w3.org/1999/xlink" x="0px" y="0px"
	 viewBox="0 0 287.75 282.45" style="enable-background:new 0 0 287.75 282.45;" xml:space="preserve">
<style type="text/css">
	.st0{opacity:0.3;}
	.st1{fill:#FBD1CD;}
	.st2{enable-background:new    ;}
	.st3{opacity:0.5;}
	.st4{fill:url(#SVGID_1_);}
	.st5{fill:url(#SVGID_2_);}
	.st6{fill:url(#SVGID_3_);}
	.st7{fill:url(#SVGID_4_);}
	.st8{fill:url(#SVGID_5_);}
	.st9{fill:url(#SVGID_6_);}
	.st10{fill:url(#SVGID_7_);}
	.st11{fill:url(#SVGID_8_);}
	.st12{fill:url(#SVGID_9_);}
	.st13{fill:url(#SVGID_10_);}
	.st14{fill:url(#SVGID_11_);}
	.st15{fill:url(#SVGID_12_);}
	.st16{fill:url(#SVGID_13_);}
	.st17{fill:url(#SVGID_14_);}
	.st18{fill:url(#SVGID_15_);}
	.st19{fill:url(#SVGID_16_);}
	.st20{opacity:0.5;enable-background:new    ;}
	.st21{fill:url(#SVGID_17_);}
	.st22{fill:url(#SVGID_18_);}
	.st23{fill:url(#SVGID_19_);}
	.st24{fill:url(#SVGID_20_);}
	.st25{fill:url(#SVGID_21_);}
	.st26{fill:url(#SVGID_22_);}
	.st27{fill:url(#SVGID_23_);}
	.st28{fill:url(#SVGID_24_);}
	.st29{fill:url(#SVGID_25_);}
	.st30{fill:url(#SVGID_26_);}
	.st31{fill:url(#SVGID_27_);}
	.st32{fill:url(#SVGID_28_);}
	.st33{fill:url(#SVGID_29_);}
	.st34{fill:url(#SVGID_30_);}
	.st35{fill:url(#SVGID_31_);}
	.st36{fill:url(#SVGID_32_);}
	.st37{fill:url(#SVGID_33_);}
	.st38{fill:url(#SVGID_34_);}
	.st39{fill:url(#SVGID_35_);}
	.st40{fill:url(#SVGID_36_);}
	.st41{fill:url(#SVGID_37_);}
	.st42{fill:url(#SVGID_38_);}
	.st43{fill:url(#SVGID_39_);}
	.st44{fill:url(#SVGID_40_);}
	.st45{fill:url(#SVGID_41_);}
	.st46{fill:url(#SVGID_42_);}
	.st47{fill:url(#SVGID_43_);}
	.st48{fill:url(#SVGID_44_);}
	.st49{fill:url(#SVGID_45_);}
	.st50{fill:url(#SVGID_46_);}
	.st51{fill:url(#SVGID_47_);}
	.st52{fill:url(#SVGID_48_);}
	.st53{fill:url(#SVGID_49_);}
	.st54{fill:url(#SVGID_50_);}
	.st55{fill:url(#SVGID_51_);}
	.st56{fill:url(#SVGID_52_);}
	.st57{fill:url(#SVGID_53_);}
	.st58{fill:url(#SVGID_54_);}
	.st59{opacity:0.1;}
	.st60{fill:#010101;}
	.st61{fill:#C2BFE0;}
	.st62{fill:#EAF0F4;}
	.st63{fill:url(#SVGID_55_);}
	.st64{fill:url(#SVGID_56_);}
	.st65{opacity:0;}
	.st66{fill:#FFDF76;}
	.st67{opacity:0.1429;}
	.st68{opacity:0.2857;}
	.st69{opacity:0.4286;}
	.st70{opacity:0.5714;}
	.st71{opacity:0.7143;}
	.st72{opacity:0.8571;}
	.st73{fill:#FACEE1;}
	.st74{fill:#ADDFE6;}
	.st75{clip-path:url(#SVGID_58_);enable-background:new    ;}
	.st76{fill:#B93A7C;}
	.st77{fill:#0E1316;}
	.st78{fill:#141416;}
	.st79{fill:#132A4F;}
	.st80{fill:#1D1E21;}
	.st81{fill:#18181A;}
	.st82{fill:#D156A0;}
	.st83{fill:#17375C;}
	.st84{fill:#E16CA9;}
	.st85{fill:#FFFFFF;}
	.st86{fill:#EFB184;}
	.st87{fill:#DD956A;}
	.st88{fill:#F2B890;}
	.st89{fill:#E7A477;}
	.st90{fill:#141C24;}
	.st91{fill:#B5B9BC;}
	.st92{fill:#7E8283;}
	.st93{fill:#E3E5E5;}
	.st94{fill:#BDBBBB;}
	.st95{fill:#D3D1D0;}
	.st96{fill:#D6DFE6;}
	.st97{opacity:0.6;}
	.st98{fill:url(#SVGID_59_);}
	.st99{fill:url(#SVGID_60_);}
	.st100{fill:url(#SVGID_61_);}
	.st101{fill:url(#SVGID_62_);}
	.st102{fill:url(#SVGID_63_);}
	.st103{fill:url(#SVGID_64_);}
	.st104{fill:url(#SVGID_65_);}
	.st105{fill:url(#SVGID_66_);}
	.st106{fill:url(#SVGID_67_);}
	.st107{fill:url(#SVGID_68_);}
</style>
<g>
	<g class="st0">
		<g>
			<polygon class="st1" points="158.69,185.55 148.32,191.57 145.96,190.21 154.17,185.43 151.2,184.82 152.62,183.53 
				156.66,184.38 			"/>
		</g>
		<g>
			<path class="st1" d="M148.3,179.34c2.79,1.61,1.4,3.68-1.43,5.33c-3.21,1.87-6.7,2.4-9.38,0.86c-2.7-1.56-1.48-3.64,1.43-5.36
				C141.93,178.42,145.6,177.78,148.3,179.34z M139.39,184.5c0.94,0.54,2.64,0.15,5-1.22c2.3-1.34,3.01-2.32,2.02-2.89
				c-0.89-0.51-2.63-0.22-5.04,1.19C139,182.95,138.44,183.95,139.39,184.5L139.39,184.5z"/>
		</g>
		<g>
			<path class="st1" d="M139.38,174.19c2.79,1.62,1.41,3.69-1.42,5.34c-3.21,1.86-6.71,2.39-9.39,0.85
				c-2.7-1.56-1.48-3.64,1.45-5.35C133.02,173.28,136.68,172.63,139.38,174.19z M130.47,179.35c0.94,0.54,2.64,0.15,5-1.22
				c2.3-1.34,3.01-2.33,2.02-2.9c-0.89-0.51-2.64-0.21-5.04,1.2C130.08,177.81,129.52,178.8,130.47,179.35L130.47,179.35z"/>
		</g>
		<g>
			<polygon class="st1" points="185.45,200.99 175.08,207.02 172.72,205.66 180.93,200.88 177.96,200.26 179.38,198.98 
				183.42,199.82 			"/>
		</g>
		<g>
			<path class="st1" d="M192.89,205.09c2.79,1.61,1.4,3.68-1.44,5.33c-3.21,1.86-6.71,2.4-9.37,0.85c-2.7-1.56-1.48-3.64,1.43-5.36
				C186.52,204.17,190.2,203.53,192.89,205.09z M183.99,210.25c0.94,0.54,2.64,0.15,5-1.22c2.3-1.34,3.01-2.33,2.02-2.9
				c-0.89-0.51-2.63-0.21-5.04,1.2C183.59,208.7,183.03,209.7,183.99,210.25L183.99,210.25z"/>
		</g>
		<g class="st2">
			<g>
				<path class="st1" d="M166.14,189.64c2.79,1.62,1.4,3.68-1.44,5.33c-3.21,1.87-6.71,2.39-9.37,0.86
					c-2.7-1.56-1.48-3.64,1.43-5.36C159.77,188.72,163.44,188.08,166.14,189.64z M157.23,194.8c0.94,0.54,2.65,0.15,5-1.22
					c2.3-1.34,3.01-2.32,2.03-2.89c-0.89-0.51-2.63-0.22-5.04,1.19C156.84,193.25,156.27,194.25,157.23,194.8L157.23,194.8z"/>
			</g>
			<g>
				<path class="st1" d="M175.06,194.79c2.8,1.61,1.4,3.68-1.43,5.33c-3.21,1.87-6.7,2.4-9.38,0.86c-2.7-1.56-1.47-3.64,1.44-5.36
					C168.68,193.87,172.35,193.23,175.06,194.79z M166.15,199.95c0.94,0.54,2.64,0.15,5-1.22c2.3-1.34,3.01-2.32,2.02-2.9
					c-0.89-0.52-2.63-0.22-5.04,1.2C165.75,198.4,165.2,199.4,166.15,199.95L166.15,199.95z"/>
			</g>
		</g>
		<g>
			<path class="st1" d="M201.81,210.23c2.8,1.61,1.4,3.68-1.43,5.33c-3.21,1.86-6.71,2.39-9.38,0.85c-2.7-1.56-1.48-3.64,1.44-5.36
				C195.44,209.32,199.11,208.68,201.81,210.23z M192.9,215.4c0.94,0.54,2.65,0.15,5-1.22c2.3-1.34,3.01-2.32,2.03-2.89
				c-0.89-0.51-2.63-0.22-5.04,1.2C192.51,213.85,191.95,214.85,192.9,215.4L192.9,215.4z"/>
		</g>
		<g>
			<polygon class="st1" points="230.04,226.74 219.67,232.77 217.31,231.4 225.52,226.63 222.55,226.01 223.98,224.72 
				228.01,225.57 			"/>
		</g>
		<g class="st2">
			<g>
				<path class="st1" d="M210.73,215.38c2.8,1.62,1.4,3.68-1.43,5.33c-3.21,1.86-6.71,2.39-9.38,0.85c-2.7-1.56-1.48-3.64,1.43-5.36
					C204.36,214.46,208.03,213.82,210.73,215.38z M201.82,220.55c0.94,0.54,2.64,0.15,5-1.22c2.3-1.34,3.01-2.32,2.02-2.89
					c-0.89-0.51-2.63-0.21-5.03,1.2C201.43,219,200.87,220,201.82,220.55L201.82,220.55z"/>
			</g>
			<g>
				<polygon class="st1" points="221.12,221.59 210.74,227.62 208.39,226.25 216.6,221.48 213.63,220.86 215.06,219.57 
					219.1,220.42 				"/>
			</g>
		</g>
		<g>
			<path class="st1" d="M237.48,230.83c2.8,1.62,1.41,3.68-1.43,5.33c-3.21,1.87-6.72,2.39-9.38,0.86c-2.7-1.56-1.48-3.64,1.43-5.36
				C231.11,229.91,234.78,229.27,237.48,230.83z M228.57,235.99c0.95,0.55,2.66,0.16,5.01-1.21c2.3-1.33,3.01-2.32,2.02-2.89
				c-0.89-0.51-2.63-0.22-5.03,1.2C228.18,234.45,227.63,235.45,228.57,235.99L228.57,235.99z"/>
		</g>
		<g>
			<polygon class="st1" points="139.53,196.68 129.16,202.7 126.8,201.34 135.01,196.57 132.04,195.95 133.47,194.66 137.51,195.51 
							"/>
		</g>
		<g>
			<polygon class="st1" points="148.45,201.83 138.08,207.85 135.72,206.49 143.93,201.72 140.96,201.1 142.38,199.81 
				146.43,200.66 			"/>
		</g>
		<g>
			<polygon class="st1" points="157.37,206.98 147,213 144.64,211.64 152.85,206.87 149.88,206.25 151.3,204.96 155.34,205.81 			
				"/>
		</g>
		<g>
			<path class="st1" d="M164.82,211.07c2.79,1.61,1.4,3.68-1.44,5.33c-3.2,1.87-6.71,2.4-9.38,0.86c-2.7-1.56-1.47-3.64,1.44-5.36
				C158.44,210.15,162.11,209.51,164.82,211.07z M155.91,216.23c0.94,0.54,2.64,0.15,5-1.22c2.3-1.34,3.02-2.33,2.03-2.9
				c-0.89-0.51-2.63-0.22-5.04,1.2C155.51,214.69,154.96,215.68,155.91,216.23L155.91,216.23z"/>
		</g>
		<g>
			<path class="st1" d="M200.49,231.66c2.8,1.62,1.41,3.68-1.43,5.33c-3.21,1.87-6.71,2.4-9.38,0.86c-2.7-1.56-1.48-3.64,1.43-5.36
				C194.12,230.75,197.79,230.11,200.49,231.66z M191.58,236.83c0.94,0.54,2.65,0.15,5-1.22c2.3-1.33,3.01-2.32,2.02-2.89
				c-0.89-0.51-2.63-0.22-5.04,1.2C191.19,235.28,190.63,236.28,191.58,236.83L191.58,236.83z"/>
		</g>
		<g>
			<polygon class="st1" points="193.04,227.58 182.68,233.6 180.31,232.24 188.53,227.46 185.56,226.84 186.98,225.56 
				191.02,226.41 			"/>
		</g>
		<g>
			<path class="st1" d="M182.65,221.37c2.8,1.61,1.4,3.68-1.43,5.33c-3.21,1.87-6.71,2.4-9.38,0.86c-2.7-1.56-1.47-3.64,1.44-5.36
				C176.28,220.45,179.96,219.81,182.65,221.37z M173.75,226.53c0.94,0.55,2.64,0.16,5-1.22c2.3-1.33,3.02-2.32,2.03-2.89
				c-0.89-0.51-2.63-0.22-5.04,1.2C173.35,224.98,172.79,225.98,173.75,226.53L173.75,226.53z"/>
		</g>
		<g>
			<path class="st1" d="M173.73,216.22c2.8,1.61,1.4,3.68-1.43,5.33c-3.21,1.86-6.71,2.39-9.38,0.85c-2.7-1.56-1.48-3.64,1.44-5.36
				C167.36,215.3,171.04,214.66,173.73,216.22z M164.83,221.38c0.94,0.54,2.64,0.15,5-1.22c2.3-1.34,3.01-2.33,2.02-2.9
				c-0.89-0.51-2.63-0.21-5.04,1.2C164.43,219.84,163.87,220.83,164.83,221.38L164.83,221.38z"/>
		</g>
		<g>
			<path class="st1" d="M218.33,241.96c2.79,1.61,1.4,3.68-1.43,5.33c-3.21,1.86-6.72,2.39-9.38,0.86c-2.7-1.56-1.48-3.64,1.43-5.36
				C211.96,241.05,215.63,240.41,218.33,241.96z M209.41,247.12c0.95,0.55,2.66,0.16,5.02-1.21c2.3-1.34,3.01-2.33,2.02-2.9
				c-0.89-0.51-2.63-0.21-5.04,1.2C209.03,245.58,208.47,246.58,209.41,247.12L209.41,247.12z"/>
		</g>
		<g>
			<path class="st1" d="M209.41,236.81c2.8,1.61,1.4,3.68-1.43,5.33c-3.21,1.86-6.71,2.39-9.38,0.85c-2.7-1.56-1.48-3.64,1.43-5.36
				C203.04,235.9,206.71,235.26,209.41,236.81z M200.49,241.97c0.95,0.55,2.66,0.16,5.02-1.21c2.29-1.34,3.01-2.33,2.03-2.9
				c-0.89-0.52-2.63-0.21-5.04,1.2C200.11,240.43,199.55,241.43,200.49,241.97L200.49,241.97z"/>
		</g>
		<g>
			<path class="st1" d="M181.33,242.8c2.79,1.61,1.4,3.68-1.43,5.33c-3.21,1.86-6.71,2.39-9.38,0.86c-2.7-1.56-1.47-3.64,1.44-5.36
				C174.96,241.88,178.63,241.24,181.33,242.8z M172.42,247.96c0.94,0.54,2.65,0.15,5-1.22c2.3-1.34,3.02-2.33,2.03-2.9
				c-0.89-0.52-2.63-0.22-5.04,1.2C172.03,246.42,171.47,247.41,172.42,247.96L172.42,247.96z"/>
		</g>
		<g>
			<path class="st1" d="M199.17,253.1c2.79,1.61,1.4,3.68-1.43,5.33c-3.21,1.86-6.72,2.39-9.38,0.86c-2.7-1.56-1.47-3.64,1.44-5.36
				C192.8,252.18,196.47,251.54,199.17,253.1z M190.25,258.25c0.95,0.55,2.65,0.16,5.02-1.21c2.29-1.34,3.01-2.32,2.02-2.9
				c-0.89-0.51-2.63-0.22-5.04,1.2C189.87,256.72,189.31,257.71,190.25,258.25L190.25,258.25z"/>
		</g>
		<g>
			<path class="st1" d="M190.25,247.95c2.79,1.61,1.4,3.68-1.43,5.33c-3.21,1.86-6.71,2.39-9.38,0.86c-2.7-1.56-1.48-3.64,1.44-5.36
				C183.88,247.03,187.55,246.39,190.25,247.95z M181.33,253.11c0.95,0.55,2.66,0.16,5.02-1.21c2.3-1.34,3.01-2.33,2.02-2.9
				c-0.89-0.51-2.63-0.21-5.04,1.2C180.95,251.57,180.39,252.56,181.33,253.11L181.33,253.11z"/>
		</g>
		<g>
			<path class="st1" d="M172.41,237.65c2.8,1.61,1.41,3.68-1.43,5.33c-3.21,1.87-6.72,2.4-9.38,0.86c-2.7-1.56-1.48-3.64,1.43-5.36
				C166.04,236.73,169.71,236.09,172.41,237.65z M163.51,242.81c0.94,0.54,2.64,0.15,5-1.22c2.3-1.34,3.02-2.33,2.02-2.9
				c-0.89-0.51-2.63-0.21-5.04,1.2C163.11,241.27,162.55,242.26,163.51,242.81L163.51,242.81z"/>
		</g>
		<g>
			<polygon class="st1" points="164.96,233.56 154.6,239.58 152.23,238.22 160.45,233.45 157.48,232.83 158.9,231.54 162.94,232.39 
							"/>
		</g>
		<g>
			<polygon class="st1" points="156.05,228.41 145.68,234.44 143.32,233.07 151.53,228.3 148.56,227.68 149.98,226.39 
				154.02,227.24 			"/>
		</g>
		<g>
			<polygon class="st1" points="147.13,223.26 136.76,229.28 134.4,227.92 142.61,223.15 139.64,222.53 141.06,221.24 
				145.11,222.09 			"/>
		</g>
		<g>
			<path class="st1" d="M117.58,228.19c2.79,1.62,1.4,3.68-1.44,5.33c-3.21,1.87-6.7,2.4-9.37,0.86c-2.7-1.56-1.48-3.64,1.43-5.36
				C111.21,227.27,114.88,226.63,117.58,228.19z M108.67,233.35c0.94,0.54,2.64,0.15,5-1.22c2.3-1.33,3.01-2.32,2.02-2.89
				c-0.89-0.51-2.63-0.22-5.04,1.2C108.28,231.81,107.72,232.8,108.67,233.35L108.67,233.35z"/>
		</g>
		<g>
			<path class="st1" d="M108.66,223.04c2.79,1.62,1.4,3.68-1.44,5.33c-3.21,1.86-6.71,2.39-9.37,0.86c-2.7-1.56-1.48-3.64,1.43-5.36
				C102.29,222.12,105.96,221.48,108.66,223.04z M99.75,228.2c0.94,0.54,2.64,0.15,5-1.22c2.3-1.34,3.02-2.32,2.03-2.89
				c-0.89-0.52-2.64-0.22-5.04,1.2C99.36,226.66,98.8,227.65,99.75,228.2L99.75,228.2z"/>
		</g>
		<g>
			<path class="st1" d="M99.74,217.89c2.8,1.62,1.4,3.68-1.43,5.33c-3.21,1.87-6.72,2.4-9.38,0.86c-2.7-1.56-1.47-3.64,1.44-5.36
				C93.37,216.97,97.04,216.33,99.74,217.89z M90.83,223.05c0.94,0.54,2.65,0.15,5-1.22c2.3-1.34,3.01-2.32,2.03-2.89
				c-0.89-0.51-2.63-0.22-5.04,1.2C90.44,221.51,89.88,222.5,90.83,223.05L90.83,223.05z"/>
		</g>
		<g>
			<polygon class="st1" points="92.3,213.8 81.93,219.82 79.56,218.46 87.78,213.69 84.81,213.07 86.23,211.78 90.27,212.63 			"/>
		</g>
		<g>
			<path class="st1" d="M135.42,238.49c2.8,1.61,1.4,3.68-1.43,5.33c-3.21,1.86-6.71,2.39-9.38,0.85c-2.7-1.56-1.47-3.64,1.44-5.36
				C129.05,237.57,132.72,236.93,135.42,238.49z M126.51,243.65c0.94,0.54,2.64,0.15,5-1.22c2.3-1.34,3.01-2.33,2.02-2.9
				c-0.89-0.52-2.63-0.22-5.04,1.2C126.12,242.1,125.56,243.1,126.51,243.65L126.51,243.65z"/>
		</g>
		<g>
			<polygon class="st1" points="127.97,234.39 117.6,240.42 115.24,239.05 123.45,234.28 120.48,233.66 121.9,232.38 125.95,233.22 
							"/>
		</g>
		<g>
			<path class="st1" d="M144.34,243.63c2.8,1.61,1.4,3.68-1.44,5.33c-3.2,1.86-6.71,2.39-9.38,0.85c-2.7-1.56-1.47-3.64,1.44-5.36
				C137.96,242.72,141.64,242.08,144.34,243.63z M135.43,248.8c0.94,0.54,2.64,0.15,5-1.22c2.3-1.34,3.01-2.33,2.02-2.89
				c-0.89-0.52-2.63-0.22-5.04,1.2C135.03,247.25,134.48,248.25,135.43,248.8L135.43,248.8z"/>
		</g>
		<g>
			<path class="st1" d="M180.01,264.23c2.8,1.61,1.4,3.68-1.43,5.33c-3.21,1.87-6.71,2.4-9.38,0.86c-2.7-1.56-1.48-3.64,1.43-5.36
				C173.64,263.31,177.32,262.67,180.01,264.23z M171.09,269.39c0.95,0.55,2.66,0.16,5.02-1.21c2.3-1.33,3.01-2.32,2.02-2.89
				c-0.89-0.51-2.63-0.22-5.04,1.2C170.71,267.85,170.15,268.85,171.09,269.39L171.09,269.39z"/>
		</g>
		<g class="st2">
			<g>
				<path class="st1" d="M153.25,248.79c2.8,1.61,1.4,3.68-1.43,5.33c-3.21,1.86-6.71,2.39-9.38,0.86c-2.7-1.56-1.47-3.64,1.43-5.36
					C146.88,247.86,150.56,247.22,153.25,248.79z M144.35,253.95c0.94,0.54,2.64,0.15,5-1.22c2.3-1.34,3.01-2.33,2.03-2.9
					c-0.89-0.51-2.63-0.21-5.04,1.2C143.95,252.4,143.39,253.4,144.35,253.95L144.35,253.95z"/>
			</g>
			<g>
				<polygon class="st1" points="163.64,254.99 153.28,261.02 150.91,259.65 159.13,254.88 156.16,254.26 157.58,252.97 
					161.62,253.82 				"/>
			</g>
			<g>
				<path class="st1" d="M171.09,259.08c2.79,1.62,1.4,3.68-1.44,5.33c-3.21,1.87-6.71,2.39-9.37,0.86
					c-2.7-1.56-1.48-3.64,1.43-5.36C164.72,258.16,168.39,257.52,171.09,259.08z M162.17,264.24c0.95,0.55,2.66,0.16,5.01-1.21
					c2.3-1.34,3.01-2.33,2.02-2.9c-0.89-0.52-2.63-0.22-5.04,1.2C161.79,262.7,161.23,263.7,162.17,264.24L162.17,264.24z"/>
			</g>
		</g>
		<g>
			<path class="st1" d="M18.15,192.98c2.79,1.61,1.41,3.69-1.42,5.34c-3.21,1.86-6.71,2.39-9.39,0.85c-2.7-1.56-1.48-3.64,1.45-5.35
				C11.79,192.07,15.46,191.42,18.15,192.98z M9.25,198.14c0.94,0.54,2.64,0.15,5-1.22c2.3-1.34,3.01-2.32,2.03-2.9
				c-0.89-0.51-2.63-0.21-5.04,1.2C8.85,196.6,8.29,197.59,9.25,198.14L9.25,198.14z"/>
		</g>
		<g>
			<polygon class="st1" points="46.38,209.48 36.01,215.51 33.65,214.14 41.86,209.37 38.89,208.75 40.31,207.46 44.35,208.32 			
				"/>
		</g>
		<g>
			<path class="st1" d="M35.99,203.28c2.8,1.61,1.42,3.69-1.42,5.34c-3.21,1.86-6.72,2.39-9.39,0.85c-2.7-1.56-1.47-3.64,1.45-5.35
				C29.63,202.36,33.29,201.72,35.99,203.28z M27.08,208.44c0.94,0.54,2.64,0.15,5-1.22c2.3-1.34,3.01-2.32,2.03-2.9
				c-0.89-0.51-2.63-0.21-5.04,1.2C26.69,206.89,26.13,207.89,27.08,208.44L27.08,208.44z"/>
		</g>
		<g>
			<polygon class="st1" points="28.54,199.19 18.17,205.21 15.81,203.85 24.03,199.07 21.06,198.45 22.48,197.17 26.52,198.02 			
				"/>
		</g>
		<g>
			<polygon class="st1" points="55.3,214.64 44.93,220.66 42.57,219.29 50.78,214.52 47.81,213.9 49.23,212.62 53.28,213.46 			"/>
		</g>
		<g class="st2">
			<g>
				<path class="st1" d="M62.75,218.72c2.79,1.62,1.41,3.69-1.43,5.34c-3.21,1.87-6.71,2.4-9.39,0.85c-2.7-1.56-1.47-3.64,1.45-5.35
					C56.39,217.81,60.05,217.16,62.75,218.72z M53.84,223.89c0.94,0.54,2.64,0.15,5-1.22c2.3-1.33,3.01-2.32,2.02-2.89
					c-0.89-0.51-2.63-0.22-5.04,1.2C53.44,222.34,52.89,223.34,53.84,223.89L53.84,223.89z"/>
			</g>
			<g>
				<polygon class="st1" points="73.14,224.93 62.77,230.96 60.41,229.59 68.62,224.82 65.65,224.2 67.07,222.91 71.11,223.76 				
					"/>
			</g>
		</g>
		<g>
			<polygon class="st1" points="82.06,230.08 71.69,236.11 69.33,234.74 77.54,229.97 74.57,229.35 75.99,228.06 80.03,228.91 			
				"/>
		</g>
		<g>
			<path class="st1" d="M89.5,234.17c2.8,1.61,1.4,3.68-1.43,5.33c-3.21,1.87-6.71,2.4-9.38,0.86c-2.7-1.56-1.47-3.64,1.44-5.36
				C83.13,233.25,86.8,232.61,89.5,234.17z M80.59,239.33c0.94,0.54,2.65,0.15,5-1.22c2.3-1.33,3.01-2.32,2.02-2.89
				c-0.89-0.52-2.63-0.22-5.04,1.2C80.2,237.79,79.64,238.79,80.59,239.33L80.59,239.33z"/>
		</g>
		<g>
			<path class="st1" d="M116.26,249.62c2.8,1.62,1.4,3.68-1.43,5.33c-3.21,1.87-6.72,2.39-9.38,0.85c-2.7-1.56-1.47-3.64,1.43-5.36
				C109.89,248.7,113.56,248.06,116.26,249.62z M107.35,254.78c0.94,0.54,2.65,0.15,5-1.22c2.3-1.33,3.01-2.32,2.02-2.89
				c-0.89-0.51-2.63-0.22-5.04,1.2C106.96,253.24,106.4,254.23,107.35,254.78L107.35,254.78z"/>
		</g>
		<g>
			<polygon class="st1" points="108.81,245.53 98.44,251.55 96.08,250.19 104.29,245.42 101.32,244.8 102.75,243.51 106.79,244.36 
							"/>
		</g>
		<g>
			<polygon class="st1" points="99.89,240.38 89.52,246.41 87.16,245.04 95.38,240.27 92.41,239.65 93.83,238.36 97.87,239.21 			
				"/>
		</g>
		<g>
			<polygon class="st1" points="126.65,255.83 116.28,261.85 113.92,260.49 122.13,255.72 119.16,255.1 120.58,253.81 
				124.62,254.66 			"/>
		</g>
		<g>
			<polygon class="st1" points="135.57,260.98 125.2,267 122.84,265.64 131.05,260.86 128.08,260.24 129.5,258.96 133.54,259.81 			
				"/>
		</g>
		<g>
			<path class="st1" d="M151.93,270.22c2.8,1.61,1.4,3.68-1.43,5.33c-3.21,1.87-6.72,2.39-9.38,0.86c-2.7-1.56-1.47-3.64,1.44-5.36
				C145.56,269.3,149.23,268.66,151.93,270.22z M143.01,275.37c0.95,0.55,2.66,0.16,5.01-1.21c2.3-1.34,3.01-2.33,2.03-2.89
				c-0.89-0.51-2.63-0.22-5.04,1.2C142.63,273.84,142.07,274.83,143.01,275.37L143.01,275.37z"/>
		</g>
		<g>
			<polygon class="st1" points="144.49,266.12 134.12,272.15 131.75,270.79 139.97,266.01 137,265.39 138.42,264.11 142.46,264.96 
							"/>
		</g>
		<g>
			<path class="st1" d="M160.85,275.37c2.8,1.61,1.4,3.68-1.43,5.33c-3.21,1.86-6.72,2.39-9.38,0.85c-2.7-1.56-1.48-3.64,1.43-5.36
				C154.48,274.45,158.15,273.81,160.85,275.37z M151.93,280.52c0.95,0.55,2.66,0.16,5.02-1.21c2.3-1.34,3.01-2.32,2.02-2.89
				c-0.89-0.52-2.64-0.22-5.04,1.2C151.55,278.98,150.99,279.98,151.93,280.52L151.93,280.52z"/>
		</g>
	</g>
	<g class="st3">
		<g class="st3">
			<linearGradient id="SVGID_1_" gradientUnits="userSpaceOnUse" x1="24.4216" y1="44.961" x2="134.8242" y2="143.4669">
				<stop  offset="0" style="stop-color:#FFF3CA"/>
				<stop  offset="1" style="stop-color:#F8B5BA"/>
			</linearGradient>
			<polygon class="st4" points="84.35,104.35 84.36,109.31 95.78,102.72 95.77,97.75 			"/>
		</g>
		<g>
			<linearGradient id="SVGID_2_" gradientUnits="userSpaceOnUse" x1="12.1897" y1="58.6882" x2="122.5792" y2="157.1824">
				<stop  offset="0" style="stop-color:#FFF3CA"/>
				<stop  offset="1" style="stop-color:#F8B5BA"/>
			</linearGradient>
			<polygon class="st5" points="72.97,127.22 72.99,132.2 95.83,119.01 95.81,114.03 			"/>
		</g>
		<g>
			<linearGradient id="SVGID_3_" gradientUnits="userSpaceOnUse" x1="5.2199" y1="66.4866" x2="115.6186" y2="164.9891">
				<stop  offset="0" style="stop-color:#FFF3CA"/>
				<stop  offset="1" style="stop-color:#F8B5BA"/>
			</linearGradient>
			<polygon class="st6" points="64.98,140.01 64.99,144.97 95.85,127.15 95.83,122.19 			"/>
		</g>
		<g>
			<linearGradient id="SVGID_4_" gradientUnits="userSpaceOnUse" x1="-2.0033" y1="74.5918" x2="108.3886" y2="173.0882">
				<stop  offset="0" style="stop-color:#FFF3CA"/>
				<stop  offset="1" style="stop-color:#F8B5BA"/>
			</linearGradient>
			<polygon class="st7" points="60.08,134.66 60.09,139.64 69.84,134.02 69.82,129.04 			"/>
		</g>
		<g>
			<linearGradient id="SVGID_5_" gradientUnits="userSpaceOnUse" x1="24.2837" y1="45.1012" x2="134.7" y2="143.6193">
				<stop  offset="0" style="stop-color:#FFF3CA"/>
				<stop  offset="1" style="stop-color:#F8B5BA"/>
			</linearGradient>
			<polygon class="st8" points="72.9,102.77 72.92,107.76 95.76,94.58 95.74,89.59 			"/>
		</g>
		<g>
			<linearGradient id="SVGID_6_" gradientUnits="userSpaceOnUse" x1="10.9862" y1="60.013" x2="121.394" y2="158.5235">
				<stop  offset="0" style="stop-color:#FFF3CA"/>
				<stop  offset="1" style="stop-color:#F8B5BA"/>
			</linearGradient>
			<polygon class="st9" points="58.61,127.35 58.63,132.31 95.81,110.85 95.79,105.89 			"/>
		</g>
		<g>
			<linearGradient id="SVGID_7_" gradientUnits="userSpaceOnUse" x1="10.1057" y1="61.0158" x2="120.4991" y2="159.5134">
				<stop  offset="0" style="stop-color:#FFF3CA"/>
				<stop  offset="1" style="stop-color:#F8B5BA"/>
			</linearGradient>
			<polygon class="st10" points="60.01,110.22 60.03,115.2 69.77,109.58 69.75,104.59 			"/>
		</g>
		<g>
			<linearGradient id="SVGID_8_" gradientUnits="userSpaceOnUse" x1="5.4596" y1="66.2331" x2="115.845" y2="164.7237">
				<stop  offset="0" style="stop-color:#FFF3CA"/>
				<stop  offset="1" style="stop-color:#F8B5BA"/>
			</linearGradient>
			<polygon class="st11" points="47.41,125.67 47.42,130.63 80.75,111.39 80.73,106.43 			"/>
		</g>
		<g>
			<linearGradient id="SVGID_9_" gradientUnits="userSpaceOnUse" x1="23.6321" y1="45.8629" x2="134.0198" y2="144.3555">
				<stop  offset="0" style="stop-color:#FFF3CA"/>
				<stop  offset="1" style="stop-color:#F8B5BA"/>
			</linearGradient>
			<polygon class="st12" points="59.99,102.08 60,107.04 95.73,86.41 95.72,81.46 			"/>
		</g>
		<g>
			<linearGradient id="SVGID_10_" gradientUnits="userSpaceOnUse" x1="-0.7328" y1="73.1451" x2="109.6807" y2="171.6608">
				<stop  offset="0" style="stop-color:#FFF3CA"/>
				<stop  offset="1" style="stop-color:#F8B5BA"/>
			</linearGradient>
			<polygon class="st13" points="44.53,119.16 44.55,124.14 55.58,117.77 55.57,112.79 			"/>
		</g>
		<g>
			<linearGradient id="SVGID_11_" gradientUnits="userSpaceOnUse" x1="20.2843" y1="49.6169" x2="130.6678" y2="148.1057">
				<stop  offset="0" style="stop-color:#FFF3CA"/>
				<stop  offset="1" style="stop-color:#F8B5BA"/>
			</linearGradient>
			<polygon class="st14" points="51.16,99.03 51.18,103.99 84.29,84.87 84.28,79.91 			"/>
		</g>
		<g>
			<linearGradient id="SVGID_12_" gradientUnits="userSpaceOnUse" x1="1.3727" y1="70.8026" x2="111.7678" y2="169.3018">
				<stop  offset="0" style="stop-color:#FFF3CA"/>
				<stop  offset="1" style="stop-color:#F8B5BA"/>
			</linearGradient>
			<polygon class="st15" points="39.19,114.09 39.21,119.05 55.56,109.61 55.55,104.65 			"/>
		</g>
		<g>
			<linearGradient id="SVGID_13_" gradientUnits="userSpaceOnUse" x1="7.3609" y1="64.0868" x2="117.7619" y2="162.5913">
				<stop  offset="0" style="stop-color:#FFF3CA"/>
				<stop  offset="1" style="stop-color:#F8B5BA"/>
			</linearGradient>
			<polygon class="st16" points="33.45,101.08 33.46,106.06 55.51,93.33 55.5,88.35 			"/>
		</g>
		<g>
			<linearGradient id="SVGID_14_" gradientUnits="userSpaceOnUse" x1="17.5182" y1="52.7126" x2="127.9009" y2="151.2008">
				<stop  offset="0" style="stop-color:#FFF3CA"/>
				<stop  offset="1" style="stop-color:#F8B5BA"/>
			</linearGradient>
			<polygon class="st17" points="39.1,81.52 39.12,86.47 55.47,77.03 55.46,72.07 			"/>
		</g>
		<g>
			<linearGradient id="SVGID_15_" gradientUnits="userSpaceOnUse" x1="10.6763" y1="60.38" x2="121.0627" y2="158.8714">
				<stop  offset="0" style="stop-color:#FFF3CA"/>
				<stop  offset="1" style="stop-color:#F8B5BA"/>
			</linearGradient>
			<polygon class="st18" points="31.45,94.08 31.46,99.07 55.49,85.2 55.48,80.21 			"/>
		</g>
		<g>
			<linearGradient id="SVGID_16_" gradientUnits="userSpaceOnUse" x1="19.4701" y1="50.5159" x2="129.8728" y2="149.0219">
				<stop  offset="0" style="stop-color:#FFF3CA"/>
				<stop  offset="1" style="stop-color:#F8B5BA"/>
			</linearGradient>
			<polygon class="st19" points="33.38,76.64 33.39,81.63 55.45,68.89 55.43,63.91 			"/>
		</g>
		<g class="st20">
			<g>
				<linearGradient id="SVGID_17_" gradientUnits="userSpaceOnUse" x1="37.532" y1="30.2681" x2="147.9344" y2="128.7738">
					<stop  offset="0" style="stop-color:#FFF3CA"/>
					<stop  offset="1" style="stop-color:#F8B5BA"/>
				</linearGradient>
				<polygon class="st21" points="87.02,78.32 87.03,83.28 95.71,78.27 95.7,73.32 				"/>
			</g>
			<g>
				<linearGradient id="SVGID_18_" gradientUnits="userSpaceOnUse" x1="36.3993" y1="31.5379" x2="146.8042" y2="130.0459">
					<stop  offset="0" style="stop-color:#FFF3CA"/>
					<stop  offset="1" style="stop-color:#F8B5BA"/>
				</linearGradient>
				<polygon class="st22" points="72.83,78.34 72.84,83.33 95.69,70.14 95.67,65.15 				"/>
			</g>
			<g>
				<linearGradient id="SVGID_19_" gradientUnits="userSpaceOnUse" x1="37.51" y1="30.302" x2="147.9045" y2="128.8007">
					<stop  offset="0" style="stop-color:#FFF3CA"/>
					<stop  offset="1" style="stop-color:#F8B5BA"/>
				</linearGradient>
				<polygon class="st23" points="64.79,74.83 64.81,79.82 95.67,62 95.65,57.02 				"/>
			</g>
		</g>
		<g class="st3">
			<linearGradient id="SVGID_20_" gradientUnits="userSpaceOnUse" x1="44.4696" y1="22.4872" x2="154.882" y2="121.0018">
				<stop  offset="0" style="stop-color:#FFF3CA"/>
				<stop  offset="1" style="stop-color:#F8B5BA"/>
			</linearGradient>
			<polygon class="st24" points="72.79,62.06 72.8,67.03 95.64,53.84 95.63,48.88 			"/>
		</g>
		<g class="st3">
			<linearGradient id="SVGID_21_" gradientUnits="userSpaceOnUse" x1="30.2831" y1="38.3996" x2="140.681" y2="136.9014">
				<stop  offset="0" style="stop-color:#FFF3CA"/>
				<stop  offset="1" style="stop-color:#F8B5BA"/>
			</linearGradient>
			<polygon class="st25" points="59.9,69.51 59.91,74.47 69.65,68.84 69.64,63.88 			"/>
		</g>
		<g>
			<linearGradient id="SVGID_22_" gradientUnits="userSpaceOnUse" x1="56.7136" y1="8.7736" x2="167.1158" y2="107.2792">
				<stop  offset="0" style="stop-color:#FFF3CA"/>
				<stop  offset="1" style="stop-color:#F8B5BA"/>
			</linearGradient>
			<polygon class="st26" points="84.16,39.17 84.18,44.15 95.6,37.56 95.58,32.58 			"/>
		</g>
		<g>
			<linearGradient id="SVGID_23_" gradientUnits="userSpaceOnUse" x1="56.5813" y1="8.921" x2="166.9867" y2="107.4294">
				<stop  offset="0" style="stop-color:#FFF3CA"/>
				<stop  offset="1" style="stop-color:#F8B5BA"/>
			</linearGradient>
			<polygon class="st27" points="72.72,37.63 72.73,42.59 95.57,29.4 95.56,24.44 			"/>
		</g>
		<g>
			<linearGradient id="SVGID_24_" gradientUnits="userSpaceOnUse" x1="43.2845" y1="23.835" x2="153.669" y2="122.3248">
				<stop  offset="0" style="stop-color:#FFF3CA"/>
				<stop  offset="1" style="stop-color:#F8B5BA"/>
			</linearGradient>
			<polygon class="st28" points="58.43,62.18 58.44,67.16 95.62,45.7 95.61,40.72 			"/>
		</g>
		<g>
			<linearGradient id="SVGID_25_" gradientUnits="userSpaceOnUse" x1="69.8213" y1="-5.9209" x2="180.2371" y2="92.5968">
				<stop  offset="0" style="stop-color:#FFF3CA"/>
				<stop  offset="1" style="stop-color:#F8B5BA"/>
			</linearGradient>
			<polygon class="st29" points="86.84,13.15 86.85,18.13 95.52,13.13 95.51,8.14 			"/>
		</g>
		<g>
			<linearGradient id="SVGID_26_" gradientUnits="userSpaceOnUse" x1="42.3863" y1="24.8239" x2="152.8107" y2="123.3493">
				<stop  offset="0" style="stop-color:#FFF3CA"/>
				<stop  offset="1" style="stop-color:#F8B5BA"/>
			</linearGradient>
			<polygon class="st30" points="59.83,45.07 59.84,50.03 69.59,44.41 69.57,39.44 			"/>
		</g>
		<g>
			<linearGradient id="SVGID_27_" gradientUnits="userSpaceOnUse" x1="37.7379" y1="30.037" x2="148.1505" y2="128.5519">
				<stop  offset="0" style="stop-color:#FFF3CA"/>
				<stop  offset="1" style="stop-color:#F8B5BA"/>
			</linearGradient>
			<polygon class="st31" points="47.22,60.5 47.23,65.49 80.56,46.24 80.55,41.26 			"/>
		</g>
		<g>
			<linearGradient id="SVGID_28_" gradientUnits="userSpaceOnUse" x1="55.9163" y1="9.6683" x2="166.3157" y2="108.1714">
				<stop  offset="0" style="stop-color:#FFF3CA"/>
				<stop  offset="1" style="stop-color:#F8B5BA"/>
			</linearGradient>
			<polygon class="st32" points="59.8,36.91 59.82,41.89 95.55,21.26 95.54,16.28 			"/>
		</g>
		<g>
			<linearGradient id="SVGID_29_" gradientUnits="userSpaceOnUse" x1="68.6924" y1="-4.6501" x2="179.0943" y2="93.8551">
				<stop  offset="0" style="stop-color:#FFF3CA"/>
				<stop  offset="1" style="stop-color:#F8B5BA"/>
			</linearGradient>
			<polygon class="st33" points="72.65,13.19 72.66,18.15 95.5,4.96 95.49,0 			"/>
		</g>
		<g>
			<linearGradient id="SVGID_30_" gradientUnits="userSpaceOnUse" x1="31.5649" y1="36.9649" x2="141.9568" y2="135.4612">
				<stop  offset="0" style="stop-color:#FFF3CA"/>
				<stop  offset="1" style="stop-color:#F8B5BA"/>
			</linearGradient>
			<polygon class="st34" points="44.35,54.01 44.36,58.97 55.4,52.59 55.39,47.63 			"/>
		</g>
		<g>
			<linearGradient id="SVGID_31_" gradientUnits="userSpaceOnUse" x1="52.5659" y1="13.4234" x2="162.9711" y2="111.9316">
				<stop  offset="0" style="stop-color:#FFF3CA"/>
				<stop  offset="1" style="stop-color:#F8B5BA"/>
			</linearGradient>
			<polygon class="st35" points="50.98,33.85 50.99,38.84 84.11,19.72 84.09,14.73 			"/>
		</g>
		<g>
			<linearGradient id="SVGID_32_" gradientUnits="userSpaceOnUse" x1="33.6606" y1="34.6128" x2="144.0607" y2="133.1165">
				<stop  offset="0" style="stop-color:#FFF3CA"/>
				<stop  offset="1" style="stop-color:#F8B5BA"/>
			</linearGradient>
			<polygon class="st36" points="39.01,48.91 39.02,53.9 55.38,44.46 55.36,39.47 			"/>
		</g>
		<g>
			<linearGradient id="SVGID_33_" gradientUnits="userSpaceOnUse" x1="39.6522" y1="27.8997" x2="150.0511" y2="126.4023">
				<stop  offset="0" style="stop-color:#FFF3CA"/>
				<stop  offset="1" style="stop-color:#F8B5BA"/>
			</linearGradient>
			<polygon class="st37" points="33.26,35.93 33.28,40.89 55.33,28.16 55.31,23.2 			"/>
		</g>
		<g class="st3">
			<linearGradient id="SVGID_34_" gradientUnits="userSpaceOnUse" x1="54.5039" y1="11.2567" x2="164.8899" y2="109.7478">
				<stop  offset="0" style="stop-color:#FFF3CA"/>
				<stop  offset="1" style="stop-color:#F8B5BA"/>
			</linearGradient>
			<polygon class="st38" points="59.76,20.63 59.78,25.59 69.51,19.97 69.5,15.01 			"/>
		</g>
		<g class="st3">
			<linearGradient id="SVGID_35_" gradientUnits="userSpaceOnUse" x1="5.7846" y1="65.8562" x2="116.1812" y2="164.3567">
				<stop  offset="0" style="stop-color:#FFF3CA"/>
				<stop  offset="1" style="stop-color:#F8B5BA"/>
			</linearGradient>
			<polygon class="st39" points="0.05,71.41 0.06,76.39 17.97,66.05 17.95,61.07 			"/>
		</g>
		<g class="st3">
			<linearGradient id="SVGID_36_" gradientUnits="userSpaceOnUse" x1="-4.0711" y1="76.9043" x2="106.3167" y2="175.3969">
				<stop  offset="0" style="stop-color:#FFF3CA"/>
				<stop  offset="1" style="stop-color:#F8B5BA"/>
			</linearGradient>
			<polygon class="st40" points="0.09,87.71 0.1,92.7 13.14,85.16 13.13,80.18 			"/>
		</g>
		<g class="st3">
			<linearGradient id="SVGID_37_" gradientUnits="userSpaceOnUse" x1="7.3505" y1="64.1032" x2="117.7445" y2="162.6015">
				<stop  offset="0" style="stop-color:#FFF3CA"/>
				<stop  offset="1" style="stop-color:#F8B5BA"/>
			</linearGradient>
			<polygon class="st41" points="0.07,79.57 0.08,84.53 33.35,65.33 33.33,60.37 			"/>
		</g>
		<g class="st3">
			<linearGradient id="SVGID_38_" gradientUnits="userSpaceOnUse" x1="7.4484" y1="63.9933" x2="117.8716" y2="162.5176">
				<stop  offset="0" style="stop-color:#FFF3CA"/>
				<stop  offset="1" style="stop-color:#F8B5BA"/>
			</linearGradient>
			<polygon class="st42" points="0.02,63.27 0.03,68.26 11.46,61.66 11.44,56.68 			"/>
		</g>
		<g class="st3">
			<linearGradient id="SVGID_39_" gradientUnits="userSpaceOnUse" x1="15.6557" y1="54.7937" x2="126.0391" y2="153.2825">
				<stop  offset="0" style="stop-color:#FFF3CA"/>
				<stop  offset="1" style="stop-color:#F8B5BA"/>
			</linearGradient>
			<polygon class="st43" points="0,55.13 0.01,60.09 22.85,46.91 22.84,41.95 			"/>
		</g>
		<g class="st20">
			<g>
				<linearGradient id="SVGID_40_" gradientUnits="userSpaceOnUse" x1="-14.7688" y1="88.9037" x2="95.6176" y2="187.3951">
					<stop  offset="0" style="stop-color:#FFF3CA"/>
					<stop  offset="1" style="stop-color:#F8B5BA"/>
				</linearGradient>
				<polygon class="st44" points="39.28,146.67 39.3,151.65 55.65,142.21 55.64,137.22 				"/>
			</g>
			<g>
				<linearGradient id="SVGID_41_" gradientUnits="userSpaceOnUse" x1="-21.624" y1="96.5605" x2="88.7858" y2="195.0728">
					<stop  offset="0" style="stop-color:#FFF3CA"/>
					<stop  offset="1" style="stop-color:#F8B5BA"/>
				</linearGradient>
				<polygon class="st45" points="31.63,159.26 31.64,164.22 55.68,150.35 55.66,145.38 				"/>
			</g>
			<g>
				<linearGradient id="SVGID_42_" gradientUnits="userSpaceOnUse" x1="-12.8247" y1="86.6999" x2="97.585" y2="185.2121">
					<stop  offset="0" style="stop-color:#FFF3CA"/>
					<stop  offset="1" style="stop-color:#F8B5BA"/>
				</linearGradient>
				<polygon class="st46" points="33.56,141.82 33.58,146.78 55.63,134.05 55.62,129.09 				"/>
			</g>
		</g>
		<g class="st3">
			<linearGradient id="SVGID_43_" gradientUnits="userSpaceOnUse" x1="-24.9423" y1="100.2871" x2="85.4652" y2="198.7973">
				<stop  offset="0" style="stop-color:#FFF3CA"/>
				<stop  offset="1" style="stop-color:#F8B5BA"/>
			</linearGradient>
			<polygon class="st47" points="0.25,144.72 0.27,149.71 33.53,130.51 33.51,125.52 			"/>
		</g>
		<g class="st3">
			<linearGradient id="SVGID_44_" gradientUnits="userSpaceOnUse" x1="-24.8336" y1="100.1827" x2="85.5462" y2="198.6682">
				<stop  offset="0" style="stop-color:#FFF3CA"/>
				<stop  offset="1" style="stop-color:#F8B5BA"/>
			</linearGradient>
			<polygon class="st48" points="0.21,128.44 0.22,133.41 11.64,126.82 11.63,121.85 			"/>
		</g>
		<g class="st20">
			<g>
				<linearGradient id="SVGID_45_" gradientUnits="userSpaceOnUse" x1="-16.6304" y1="90.9854" x2="93.7527" y2="189.474">
					<stop  offset="0" style="stop-color:#FFF3CA"/>
					<stop  offset="1" style="stop-color:#F8B5BA"/>
				</linearGradient>
				<polygon class="st49" points="0.19,120.28 0.2,125.27 23.04,112.08 23.03,107.1 				"/>
			</g>
			<g>
				<linearGradient id="SVGID_46_" gradientUnits="userSpaceOnUse" x1="-12.5975" y1="86.4648" x2="97.7868" y2="184.9544">
					<stop  offset="0" style="stop-color:#FFF3CA"/>
					<stop  offset="1" style="stop-color:#F8B5BA"/>
				</linearGradient>
				<polygon class="st50" points="0.16,112.15 0.18,117.13 23.02,103.94 23,98.96 				"/>
			</g>
			<g>
				<linearGradient id="SVGID_47_" gradientUnits="userSpaceOnUse" x1="-13.6313" y1="87.6175" x2="96.7644" y2="186.1172">
					<stop  offset="0" style="stop-color:#FFF3CA"/>
					<stop  offset="1" style="stop-color:#F8B5BA"/>
				</linearGradient>
				<polygon class="st51" points="0.14,104.01 0.15,108.97 9.11,103.81 9.09,98.84 				"/>
			</g>
		</g>
		<g>
			<linearGradient id="SVGID_48_" gradientUnits="userSpaceOnUse" x1="-2.2009" y1="74.8068" x2="108.1944" y2="173.3062">
				<stop  offset="0" style="stop-color:#FFF3CA"/>
				<stop  offset="1" style="stop-color:#F8B5BA"/>
			</linearGradient>
			<polygon class="st52" points="0.11,95.85 0.13,100.83 29.33,83.97 29.32,78.99 			"/>
		</g>
		<g class="st3">
			<linearGradient id="SVGID_49_" gradientUnits="userSpaceOnUse" x1="22.2225" y1="47.4516" x2="132.5954" y2="145.931">
				<stop  offset="0" style="stop-color:#FFF3CA"/>
				<stop  offset="1" style="stop-color:#F8B5BA"/>
			</linearGradient>
			<polygon class="st53" points="59.95,85.78 59.96,90.77 69.7,85.14 69.69,80.16 			"/>
		</g>
		<g class="st3">
			<linearGradient id="SVGID_50_" gradientUnits="userSpaceOnUse" x1="-26.5037" y1="102.0479" x2="83.8871" y2="200.5433">
				<stop  offset="0" style="stop-color:#FFF3CA"/>
				<stop  offset="1" style="stop-color:#F8B5BA"/>
			</linearGradient>
			<polygon class="st54" points="0.23,136.58 0.25,141.55 18.15,131.21 18.14,126.25 			"/>
		</g>
		<g>
			<linearGradient id="SVGID_51_" gradientUnits="userSpaceOnUse" x1="-36.351" y1="113.0983" x2="74.0225" y2="211.5783">
				<stop  offset="0" style="stop-color:#FFF3CA"/>
				<stop  offset="1" style="stop-color:#F8B5BA"/>
			</linearGradient>
			<polygon class="st55" points="0.27,152.88 0.29,157.84 13.33,150.32 13.31,145.36 			"/>
		</g>
		<g class="st20">
			<g>
				<linearGradient id="SVGID_52_" gradientUnits="userSpaceOnUse" x1="-44.896" y1="122.646" x2="65.5113" y2="221.1561">
					<stop  offset="0" style="stop-color:#FFF3CA"/>
					<stop  offset="1" style="stop-color:#F8B5BA"/>
				</linearGradient>
				<polygon class="st56" points="0.34,177.32 0.36,182.29 23.2,169.1 23.19,164.13 				"/>
			</g>
			<g>
				<linearGradient id="SVGID_53_" gradientUnits="userSpaceOnUse" x1="-45.9441" y1="123.7876" x2="64.5012" y2="222.3316">
					<stop  offset="0" style="stop-color:#FFF3CA"/>
					<stop  offset="1" style="stop-color:#F8B5BA"/>
				</linearGradient>
				<polygon class="st57" points="0.32,169.16 0.34,174.15 9.29,168.98 9.28,163.99 				"/>
			</g>
			<g>
				<linearGradient id="SVGID_54_" gradientUnits="userSpaceOnUse" x1="-34.4903" y1="110.9987" x2="75.9034" y2="209.4967">
					<stop  offset="0" style="stop-color:#FFF3CA"/>
					<stop  offset="1" style="stop-color:#F8B5BA"/>
				</linearGradient>
				<polygon class="st58" points="0.3,161.02 0.32,165.99 29.52,149.12 29.5,144.16 				"/>
			</g>
		</g>
	</g>
	<g class="st59">
		<path class="st60" d="M149.95,161.29c22.11,12.77,22.21,33.47,0.24,46.24c-21.97,12.77-57.7,12.77-79.82,0
			c-22.12-12.77-22.25-33.47-0.28-46.24C92.06,148.52,127.83,148.52,149.95,161.29z"/>
	</g>
	<g>
		<path class="st61" d="M159.38,163.3c-0.02,0.13-0.04,0.27-0.06,0.41c-0.09,0.52-0.26,1.05-0.4,1.57c-0.14,0.57-0.29,1.14-0.49,1.7
			c-0.29,0.83-0.64,1.66-1.05,2.48c-0.07,0.14-0.14,0.28-0.21,0.42c-0.46,0.89-0.98,1.76-1.58,2.63c-0.08,0.12-0.18,0.24-0.26,0.36
			c-0.57,0.79-1.19,1.56-1.87,2.33c-0.12,0.14-0.24,0.29-0.38,0.44c-0.72,0.79-1.52,1.57-2.37,2.33c-0.55,0.49-1.15,0.97-1.76,1.45
			c-0.51,0.41-1,0.83-1.55,1.23c-0.65,0.47-1.36,0.92-2.07,1.38c-0.7,0.46-1.36,0.92-2.11,1.36c-1.22,0.71-2.5,1.37-3.8,2
			c-0.35,0.17-0.7,0.33-1.05,0.5c-1.17,0.54-2.37,1.05-3.58,1.53c-0.17,0.07-0.34,0.14-0.51,0.21c-1.32,0.5-2.66,0.95-4.03,1.38
			c-0.97,0.3-1.95,0.57-2.94,0.84c-0.72,0.2-1.44,0.41-2.18,0.59c-1.07,0.26-2.16,0.48-3.25,0.7c-0.71,0.14-1.41,0.3-2.12,0.43
			c-0.35,0.06-0.71,0.11-1.06,0.17c-1.26,0.21-2.53,0.39-3.82,0.54c-0.4,0.05-0.8,0.1-1.2,0.14c-0.73,0.08-1.47,0.13-2.2,0.19
			c-1.28,0.11-2.57,0.2-3.86,0.26c-0.82,0.03-1.65,0.05-2.47,0.07c-1.02,0.02-2.04,0.03-3.06,0.01c-0.88-0.01-1.75-0.04-2.62-0.07
			c-0.94-0.04-1.88-0.08-2.82-0.15c-0.89-0.06-1.77-0.14-2.65-0.22c-0.93-0.09-1.87-0.19-2.79-0.31c-0.86-0.11-1.7-0.23-2.55-0.36
			c-0.98-0.15-1.96-0.33-2.93-0.51c-0.81-0.15-1.62-0.31-2.42-0.49c-1.17-0.25-2.31-0.55-3.45-0.85c-0.76-0.2-1.52-0.39-2.27-0.61
			c-0.4-0.12-0.79-0.24-1.18-0.37c-1.16-0.36-2.3-0.76-3.42-1.17c-0.34-0.12-0.68-0.24-1.01-0.37c-1.01-0.39-1.98-0.82-2.95-1.25
			c-0.5-0.22-1.01-0.42-1.5-0.65c-1.42-0.67-2.81-1.39-4.14-2.16c-11.12-6.42-16.68-14.85-16.66-23.27l-0.04,14.24
			c-0.02,8.42,5.53,16.85,16.66,23.27c1.33,0.77,2.71,1.48,4.13,2.16c0.5,0.23,1.02,0.44,1.52,0.66c0.82,0.36,1.63,0.74,2.48,1.08
			c0.15,0.06,0.3,0.1,0.45,0.16c0.33,0.13,0.67,0.24,1,0.37c1.12,0.42,2.26,0.8,3.42,1.17c0.4,0.13,0.79,0.25,1.18,0.37
			c0.27,0.08,0.53,0.17,0.8,0.25c0.47,0.13,0.97,0.23,1.44,0.35c1.16,0.31,2.33,0.6,3.52,0.86c0.31,0.07,0.61,0.16,0.93,0.23
			c0.46,0.1,0.93,0.16,1.4,0.24c0.99,0.19,1.99,0.36,3,0.52c0.41,0.07,0.8,0.15,1.2,0.21c0.44,0.07,0.9,0.09,1.34,0.15
			c0.93,0.12,1.85,0.22,2.79,0.31c0.45,0.04,0.9,0.12,1.36,0.15c0.43,0.03,0.86,0.04,1.28,0.07c0.94,0.07,1.89,0.12,2.83,0.15
			c0.48,0.02,0.97,0.07,1.45,0.08c0.39,0.01,0.78-0.01,1.16-0.01c1.02,0.01,2.04,0,3.07-0.01c0.52-0.01,1.04,0.01,1.56-0.01
			c0.31-0.01,0.62-0.05,0.92-0.06c1.25-0.05,2.49-0.14,3.74-0.25c0.53-0.05,1.07-0.06,1.61-0.11c0.16-0.02,0.33-0.05,0.49-0.07
			c2.15-0.23,4.28-0.52,6.38-0.89c0.11-0.02,0.22-0.02,0.33-0.05c0.63-0.11,1.23-0.27,1.85-0.4c1.04-0.21,2.07-0.41,3.09-0.66
			c0.73-0.18,1.45-0.39,2.18-0.59c0.99-0.27,1.98-0.54,2.95-0.85c0.2-0.06,0.41-0.11,0.62-0.17c1.16-0.38,2.29-0.78,3.41-1.2
			c0.18-0.07,0.34-0.14,0.51-0.21c1.23-0.48,2.42-0.99,3.59-1.53c0.34-0.16,0.7-0.33,1.04-0.49c1.3-0.63,2.58-1.29,3.81-2
			c0.23-0.13,0.46-0.27,0.69-0.41c0.51-0.31,0.95-0.64,1.44-0.96c0.69-0.45,1.4-0.9,2.05-1.37c0.55-0.4,1.04-0.82,1.56-1.23
			c0.6-0.48,1.21-0.95,1.76-1.45c0.1-0.09,0.23-0.18,0.34-0.28c0.73-0.66,1.39-1.35,2.03-2.04c0.13-0.15,0.25-0.29,0.38-0.44
			c0.38-0.42,0.75-0.85,1.1-1.28c0.27-0.35,0.51-0.69,0.76-1.04c0.09-0.13,0.19-0.25,0.28-0.38c0.45-0.65,0.87-1.3,1.24-1.96
			c0.13-0.22,0.23-0.44,0.34-0.66c0.07-0.14,0.15-0.27,0.21-0.41c0.36-0.7,0.68-1.41,0.95-2.13c0.04-0.12,0.06-0.24,0.1-0.36
			c0.19-0.55,0.32-1.1,0.47-1.65c0.1-0.39,0.26-0.77,0.34-1.16c0.02-0.1,0.01-0.21,0.03-0.31c0.1-0.59,0.14-1.17,0.2-1.76
			c0.04-0.39,0.12-0.78,0.14-1.18c0.01-0.16,0.01-0.33,0.01-0.49l0.04-14.24C159.62,161.38,159.53,162.34,159.38,163.3z"/>
		<g>
			<path class="st62" d="M142.95,137.13c22.12,12.77,22.25,33.47,0.28,46.24c-21.97,12.77-57.74,12.77-79.85,0
				c-22.11-12.77-22.22-33.47-0.25-46.24C85.1,124.36,120.84,124.36,142.95,137.13z"/>
		</g>
		<linearGradient id="SVGID_55_" gradientUnits="userSpaceOnUse" x1="103.792" y1="149.7912" x2="109.2678" y2="197.0825">
			<stop  offset="0" style="stop-color:#F9DD8D"/>
			<stop  offset="0.35" style="stop-color:#E3B09C"/>
			<stop  offset="1" style="stop-color:#C057A1"/>
		</linearGradient>
		<path class="st63" d="M137.9,113.65c-19.3-11.14-50.5-11.15-69.68,0c-9.56,5.55-14.32,12.83-14.31,20.12
			c0-0.03-0.01-0.05-0.01-0.08l-0.05,20.34c-0.03,7.35,4.82,14.72,14.53,20.32c1.16,0.67,2.36,1.29,3.6,1.88
			c0.44,0.21,0.89,0.38,1.34,0.58c0.72,0.32,1.43,0.65,2.17,0.95c0.09,0.04,0.19,0.06,0.28,0.1c1.72,0.66,3.49,1.26,5.3,1.78
			c0.14,0.04,0.26,0.1,0.41,0.14c0.4,0.11,0.81,0.19,1.21,0.3c1.04,0.27,2.07,0.54,3.14,0.77c0.27,0.06,0.52,0.14,0.79,0.2
			c0.4,0.08,0.81,0.13,1.21,0.21c0.87,0.16,1.74,0.32,2.62,0.46c0.35,0.05,0.69,0.13,1.05,0.18c0.39,0.06,0.79,0.08,1.19,0.13
			c0.8,0.1,1.6,0.19,2.4,0.27c0.4,0.04,0.8,0.1,1.21,0.13c0.38,0.03,0.76,0.04,1.14,0.06c0.82,0.06,1.63,0.1,2.46,0.13
			c0.42,0.01,0.84,0.06,1.26,0.07c0.33,0.01,0.67-0.01,1,0c0.92,0.01,1.83,0,2.74-0.01c0.43-0.01,0.87,0.01,1.31-0.01
			c0.26-0.01,0.51-0.04,0.78-0.05c1.12-0.05,2.23-0.13,3.35-0.22c0.45-0.03,0.9-0.04,1.35-0.09c0.14-0.01,0.27-0.04,0.42-0.06
			c1.88-0.2,3.74-0.45,5.58-0.78c0.1-0.02,0.2-0.02,0.29-0.04c0.56-0.1,1.11-0.24,1.67-0.36c0.89-0.18,1.77-0.35,2.64-0.56
			c0.67-0.16,1.32-0.35,1.98-0.54c0.83-0.23,1.66-0.45,2.48-0.7c0.18-0.06,0.38-0.1,0.57-0.16c0.31-0.1,0.59-0.24,0.91-0.34
			c1.3-0.44,2.57-0.92,3.82-1.44c0.48-0.2,0.97-0.4,1.43-0.61c1.6-0.73,3.17-1.49,4.63-2.34c0.2-0.12,0.4-0.24,0.61-0.36
			c0.47-0.29,0.87-0.59,1.32-0.89c0.58-0.38,1.17-0.75,1.71-1.14c0.5-0.36,0.94-0.74,1.41-1.11c0.51-0.41,1.03-0.81,1.5-1.24
			c0.09-0.08,0.21-0.17,0.31-0.25c0.63-0.59,1.22-1.18,1.77-1.79c0.11-0.12,0.2-0.24,0.31-0.36c0.33-0.38,0.67-0.75,0.98-1.14
			c0.24-0.3,0.45-0.61,0.66-0.91c0.08-0.1,0.16-0.2,0.23-0.31c0.4-0.57,0.77-1.14,1.09-1.72c0.07-0.13,0.11-0.25,0.18-0.38
			c0.27-0.51,0.49-1.02,0.71-1.53c0.13-0.3,0.31-0.59,0.42-0.89c0.03-0.1,0.05-0.2,0.08-0.3c0.18-0.49,0.3-0.99,0.43-1.48
			c0.08-0.33,0.22-0.66,0.28-0.99c0.02-0.09,0.01-0.18,0.03-0.27c0.09-0.5,0.12-0.99,0.17-1.5c0.03-0.35,0.11-0.71,0.12-1.06
			c0-0.14,0-0.29,0-0.43l0.06-20.34c-0.01,0.46-0.08,0.92-0.12,1.37C153,127.55,148.22,119.61,137.9,113.65z M147.64,146.15
			c0.38-0.46,0.77-0.92,1.11-1.39c-0.03,0.03-0.05,0.06-0.07,0.09C148.37,145.29,148,145.71,147.64,146.15z M149.51,143.55
			c0.24-0.39,0.49-0.78,0.7-1.17c-0.01,0.02-0.01,0.04-0.02,0.05C149.98,142.81,149.74,143.18,149.51,143.55z M150.91,140.88
			c0.18-0.41,0.37-0.82,0.51-1.23c-0.01,0.02-0.01,0.04-0.02,0.05C151.27,140.1,151.08,140.48,150.91,140.88z M151.86,138.12
			c0.1-0.41,0.22-0.81,0.3-1.22c0,0.02,0,0.04-0.01,0.06C152.08,137.35,151.96,137.74,151.86,138.12z M146.77,147.22
			c-0.01,0.01-0.02,0.02-0.03,0.03c-0.45,0.48-0.96,0.95-1.45,1.43C145.8,148.19,146.32,147.71,146.77,147.22z M142.37,151.15
			c0.28-0.22,0.55-0.43,0.82-0.65c-0.01,0.01-0.02,0.02-0.04,0.03C142.89,150.74,142.64,150.95,142.37,151.15z M140.04,152.79
			c-0.01,0.01-0.03,0.01-0.04,0.02c-0.62,0.4-1.2,0.82-1.87,1.2C138.8,153.62,139.4,153.2,140.04,152.79z M58.77,146.07
			c0.28,0.34,0.52,0.68,0.81,1.01C59.29,146.75,59.05,146.41,58.77,146.07z M54.02,135.13c0.04,0.46,0.04,0.92,0.12,1.37
			C54.06,136.05,54.06,135.59,54.02,135.13z M54.5,137.94c0.11,0.43,0.18,0.86,0.33,1.29C54.68,138.8,54.6,138.37,54.5,137.94z
			 M55.45,140.72c0.17,0.4,0.31,0.8,0.51,1.19C55.76,141.52,55.62,141.12,55.45,140.72z M56.87,143.43
			c0.23,0.37,0.42,0.74,0.67,1.11C57.29,144.17,57.1,143.8,56.87,143.43z M65.04,151.84c-0.31-0.22-0.56-0.45-0.86-0.67
			C64.47,151.38,64.73,151.62,65.04,151.84z M62.09,149.52c-0.34-0.29-0.61-0.6-0.92-0.9C61.48,148.92,61.75,149.23,62.09,149.52z"
			/>
		<path class="st61" d="M159.38,123.37c-0.02,0.13-0.04,0.26-0.06,0.4c-0.09,0.53-0.26,1.06-0.4,1.59c-0.14,0.57-0.28,1.13-0.48,1.7
			c-0.3,0.83-0.64,1.65-1.04,2.47c-0.07,0.14-0.15,0.29-0.22,0.43c-0.46,0.88-0.98,1.75-1.58,2.61c-0.09,0.13-0.19,0.26-0.29,0.39
			c-0.56,0.78-1.18,1.55-1.85,2.31c-0.13,0.14-0.24,0.29-0.37,0.43c-0.73,0.79-1.53,1.57-2.37,2.33c-0.55,0.49-1.16,0.97-1.75,1.44
			c-0.51,0.42-1.01,0.84-1.57,1.24c-0.63,0.46-1.32,0.9-2.01,1.34c-0.72,0.47-1.39,0.95-2.17,1.39c-1.23,0.71-2.51,1.37-3.82,2
			c-0.33,0.16-0.67,0.32-1.01,0.48c-1.19,0.55-2.4,1.07-3.64,1.55c-0.16,0.06-0.31,0.13-0.47,0.2c-1.32,0.5-2.68,0.95-4.05,1.38
			c-0.96,0.3-1.95,0.57-2.93,0.84c-0.73,0.2-1.45,0.41-2.19,0.59c-1.04,0.25-2.1,0.46-3.16,0.67c-0.7,0.14-1.39,0.3-2.09,0.42
			c-2.11,0.37-4.25,0.67-6.41,0.9c-0.69,0.07-1.38,0.11-2.08,0.17c-1.24,0.1-2.49,0.2-3.74,0.25c-0.83,0.03-1.66,0.05-2.5,0.07
			c-1.01,0.02-2.03,0.02-3.04,0.01c-0.88-0.01-1.76-0.04-2.65-0.08c-0.93-0.04-1.86-0.08-2.79-0.15c-0.9-0.06-1.8-0.14-2.69-0.22
			c-0.92-0.09-1.84-0.19-2.74-0.31c-0.86-0.11-1.72-0.23-2.58-0.36c-1-0.16-1.99-0.33-2.97-0.52c-0.79-0.15-1.57-0.31-2.34-0.47
			c-1.17-0.26-2.32-0.55-3.47-0.85c-0.77-0.2-1.56-0.39-2.32-0.62c-0.39-0.12-0.77-0.24-1.15-0.36c-1.16-0.36-2.3-0.76-3.43-1.17
			c-0.34-0.12-0.68-0.24-1-0.37c-1-0.38-1.95-0.81-2.91-1.24c-0.52-0.23-1.05-0.44-1.56-0.68c-1.42-0.67-2.8-1.39-4.13-2.15
			c-11.13-6.43-16.68-14.86-16.66-23.28l-0.04,14.24c-0.02,8.42,5.54,16.85,16.66,23.28c1.33,0.77,2.72,1.49,4.15,2.17
			c0.47,0.22,0.96,0.41,1.43,0.62c0.85,0.37,1.69,0.77,2.57,1.11c0.15,0.06,0.3,0.11,0.44,0.16c0.33,0.13,0.68,0.25,1.02,0.37
			c1.11,0.41,2.24,0.79,3.38,1.16c0.41,0.13,0.82,0.26,1.24,0.38c0.26,0.08,0.51,0.17,0.77,0.24c0.46,0.13,0.94,0.22,1.4,0.34
			c1.17,0.31,2.35,0.61,3.56,0.87c0.32,0.07,0.62,0.16,0.93,0.23c0.46,0.1,0.94,0.16,1.41,0.24c0.99,0.19,1.98,0.36,2.98,0.52
			c0.41,0.06,0.81,0.15,1.22,0.21c0.43,0.06,0.88,0.09,1.32,0.15c0.95,0.12,1.9,0.23,2.86,0.32c0.44,0.04,0.87,0.11,1.31,0.15
			c0.41,0.03,0.81,0.03,1.22,0.06c0.97,0.07,1.93,0.12,2.9,0.16c0.48,0.02,0.96,0.07,1.44,0.08c0.39,0.01,0.77-0.01,1.16,0
			c1.02,0.01,2.04,0,3.07-0.02c0.52-0.01,1.04,0.01,1.56-0.01c0.3-0.01,0.6-0.05,0.9-0.06c1.31-0.06,2.6-0.15,3.9-0.26
			c0.49-0.04,0.98-0.05,1.47-0.1c0.23-0.02,0.46-0.05,0.69-0.08c0.4-0.04,0.8-0.1,1.21-0.15c1.31-0.15,2.62-0.34,3.92-0.55
			c0.3-0.05,0.6-0.09,0.9-0.14c0.16-0.03,0.33-0.05,0.49-0.08c0.63-0.11,1.25-0.27,1.87-0.4c1.03-0.21,2.05-0.41,3.06-0.65
			c0.74-0.18,1.46-0.39,2.19-0.59c0.99-0.27,1.98-0.54,2.94-0.84c0.2-0.06,0.42-0.11,0.61-0.18c1.16-0.37,2.29-0.77,3.41-1.2
			c0.18-0.07,0.36-0.15,0.55-0.22c1.21-0.47,2.39-0.98,3.55-1.52c0.36-0.16,0.71-0.33,1.06-0.5c1.3-0.63,2.58-1.28,3.79-1.99
			c0.23-0.14,0.47-0.27,0.69-0.41c0.5-0.3,0.93-0.63,1.41-0.94c0.71-0.46,1.43-0.91,2.08-1.39c0.56-0.4,1.06-0.82,1.57-1.24
			c0.59-0.48,1.19-0.95,1.74-1.43c0.11-0.1,0.24-0.19,0.35-0.29c0.73-0.67,1.4-1.35,2.03-2.05c0.13-0.14,0.23-0.28,0.36-0.42
			c0.38-0.43,0.77-0.86,1.12-1.3c0.27-0.35,0.51-0.7,0.77-1.05c0.08-0.12,0.17-0.23,0.25-0.34c0.45-0.65,0.88-1.31,1.25-1.97
			c0.13-0.22,0.23-0.45,0.35-0.67c0.07-0.13,0.14-0.26,0.2-0.39c0.36-0.71,0.69-1.42,0.95-2.14c0.05-0.12,0.06-0.24,0.11-0.37
			c0.19-0.55,0.32-1.09,0.47-1.64c0.11-0.39,0.26-0.78,0.34-1.17c0.02-0.1,0.02-0.2,0.03-0.31c0.11-0.58,0.15-1.17,0.2-1.75
			c0.04-0.39,0.12-0.79,0.13-1.18c0.01-0.17,0.01-0.33,0.01-0.5l0.04-14.24C159.62,121.45,159.53,122.41,159.38,123.37z"/>
		<g>
			<path class="st62" d="M142.95,97.2c22.12,12.77,22.25,33.47,0.26,46.25c-21.97,12.77-57.72,12.76-79.83-0.01
				c-22.11-12.77-22.23-33.46-0.26-46.23C85.1,84.43,120.84,84.43,142.95,97.2z"/>
		</g>
		<linearGradient id="SVGID_56_" gradientUnits="userSpaceOnUse" x1="102.8388" y1="102.6512" x2="114.5372" y2="161.3922">
			<stop  offset="0" style="stop-color:#F9DD8D"/>
			<stop  offset="0.35" style="stop-color:#E3B09C"/>
			<stop  offset="1" style="stop-color:#C057A1"/>
		</linearGradient>
		<path class="st64" d="M137.9,73.72c-19.3-11.14-50.5-11.15-69.68,0c-9.56,5.55-14.32,12.83-14.31,20.12
			c0-0.03-0.01-0.05-0.01-0.08l-0.05,20.34c-0.03,7.35,4.82,14.72,14.53,20.32c1.16,0.67,2.37,1.3,3.61,1.89
			c0.42,0.2,0.88,0.38,1.32,0.57c0.72,0.32,1.43,0.66,2.18,0.95c0.09,0.03,0.19,0.06,0.27,0.09c1.72,0.67,3.48,1.26,5.29,1.79
			c0.15,0.04,0.28,0.1,0.43,0.14c0.41,0.12,0.84,0.2,1.25,0.31c1.02,0.27,2.04,0.53,3.09,0.76c0.27,0.06,0.52,0.14,0.79,0.19
			c0.4,0.08,0.8,0.13,1.2,0.21c0.88,0.17,1.76,0.32,2.65,0.46c0.35,0.05,0.69,0.13,1.03,0.18c0.38,0.05,0.77,0.08,1.16,0.13
			c0.82,0.1,1.65,0.2,2.48,0.28c0.39,0.04,0.77,0.1,1.16,0.13c0.36,0.03,0.72,0.03,1.08,0.06c0.85,0.06,1.7,0.1,2.55,0.14
			c0.41,0.02,0.81,0.05,1.22,0.06c0.33,0.01,0.65-0.01,0.98-0.01c0.92,0.01,1.83,0.01,2.75-0.01c0.44-0.01,0.88,0.01,1.31-0.01
			c0.26-0.01,0.52-0.04,0.78-0.05c1.13-0.05,2.25-0.13,3.38-0.22c0.44-0.04,0.88-0.04,1.32-0.09c0.14-0.01,0.27-0.04,0.4-0.06
			c1.88-0.2,3.76-0.46,5.6-0.78c0.1-0.02,0.19-0.02,0.28-0.04c0.55-0.1,1.07-0.23,1.61-0.35c0.91-0.18,1.81-0.36,2.7-0.58
			c0.67-0.16,1.3-0.35,1.96-0.53c0.84-0.23,1.69-0.46,2.51-0.72c0.18-0.06,0.38-0.1,0.56-0.16c0.31-0.1,0.58-0.23,0.89-0.34
			c1.31-0.45,2.59-0.93,3.84-1.45c0.48-0.2,0.96-0.4,1.43-0.61c1.6-0.72,3.16-1.49,4.63-2.34c0.2-0.12,0.4-0.24,0.61-0.35
			c0.47-0.28,0.87-0.59,1.32-0.88c0.58-0.38,1.17-0.75,1.71-1.14c0.49-0.36,0.94-0.73,1.39-1.1c0.51-0.41,1.04-0.82,1.51-1.24
			c0.1-0.09,0.21-0.17,0.31-0.25c0.63-0.58,1.22-1.18,1.77-1.78c0.11-0.12,0.22-0.25,0.32-0.38c0.33-0.37,0.67-0.74,0.97-1.12
			c0.23-0.3,0.44-0.6,0.66-0.9c0.08-0.11,0.16-0.21,0.23-0.32c0.4-0.57,0.77-1.14,1.09-1.72c0.07-0.12,0.11-0.25,0.18-0.37
			c0.27-0.51,0.49-1.03,0.71-1.54c0.13-0.3,0.31-0.59,0.42-0.89c0.04-0.1,0.05-0.2,0.09-0.31c0.17-0.49,0.3-0.98,0.42-1.47
			c0.09-0.33,0.22-0.66,0.29-1c0.02-0.09,0.01-0.18,0.03-0.27c0.09-0.5,0.12-1,0.17-1.49c0.03-0.36,0.11-0.71,0.12-1.06
			c0-0.14,0-0.29,0-0.43l0.06-20.34c-0.01,0.46-0.08,0.92-0.12,1.38C153,87.62,148.22,79.69,137.9,73.72z M147.64,106.22
			c0.38-0.46,0.77-0.92,1.11-1.39c-0.03,0.03-0.05,0.06-0.07,0.09C148.37,105.36,148,105.79,147.64,106.22z M149.51,103.63
			c0.24-0.39,0.49-0.78,0.7-1.17c-0.01,0.02-0.01,0.03-0.02,0.05C149.98,102.88,149.74,103.25,149.51,103.63z M150.91,100.96
			c0.18-0.41,0.37-0.82,0.51-1.24c-0.01,0.02-0.01,0.04-0.02,0.05C151.27,100.17,151.08,100.56,150.91,100.96z M151.86,98.2
			c0.1-0.41,0.22-0.81,0.3-1.22c0,0.02,0,0.04-0.01,0.06C152.08,97.43,151.96,97.81,151.86,98.2z M146.77,107.29
			c-0.01,0.01-0.02,0.02-0.03,0.03c-0.45,0.48-0.96,0.95-1.45,1.42C145.8,108.26,146.32,107.78,146.77,107.29z M142.37,111.23
			c0.28-0.22,0.56-0.43,0.83-0.66c-0.01,0.01-0.03,0.02-0.04,0.03C142.9,110.81,142.64,111.02,142.37,111.23z M140.04,112.86
			c-0.01,0.01-0.03,0.01-0.04,0.02c-0.62,0.4-1.21,0.82-1.88,1.21C138.81,113.69,139.41,113.27,140.04,112.86z M58.77,106.14
			c0.28,0.34,0.52,0.68,0.81,1.01C59.29,106.82,59.05,106.48,58.77,106.14z M54.02,95.21c0.04,0.46,0.04,0.92,0.12,1.37
			C54.06,96.13,54.06,95.66,54.02,95.21z M54.5,98.01c0.11,0.43,0.18,0.86,0.33,1.29C54.68,98.88,54.6,98.45,54.5,98.01z
			 M55.45,100.79c0.17,0.4,0.31,0.8,0.51,1.19C55.76,101.59,55.62,101.19,55.45,100.79z M56.87,103.5c0.23,0.37,0.42,0.74,0.67,1.11
			C57.29,104.24,57.1,103.87,56.87,103.5z M65.04,111.91c-0.31-0.22-0.56-0.45-0.86-0.67C64.47,111.46,64.73,111.69,65.04,111.91z
			 M62.09,109.6c-0.34-0.29-0.61-0.6-0.92-0.9C61.48,109,61.75,109.3,62.09,109.6z"/>
		<path class="st61" d="M159.37,80.94c-0.03,0.13-0.05,0.27-0.07,0.4c-0.1,0.53-0.26,1.06-0.4,1.59c-0.14,0.56-0.28,1.12-0.48,1.68
			c-0.3,0.83-0.64,1.67-1.05,2.49c-0.07,0.14-0.15,0.28-0.22,0.42c-0.46,0.88-0.99,1.76-1.58,2.62c-0.08,0.12-0.18,0.25-0.27,0.37
			c-0.56,0.78-1.18,1.55-1.85,2.31c-0.13,0.15-0.25,0.3-0.38,0.45c-0.73,0.79-1.53,1.56-2.37,2.32c-0.55,0.5-1.16,0.97-1.76,1.45
			c-0.52,0.41-1.01,0.83-1.56,1.23c-0.65,0.47-1.36,0.92-2.06,1.38c-0.7,0.46-1.36,0.93-2.12,1.36c-1.22,0.71-2.5,1.37-3.8,2
			c-0.35,0.17-0.69,0.33-1.04,0.49c-1.19,0.55-2.4,1.07-3.64,1.56c-0.15,0.06-0.29,0.12-0.44,0.18c-1.33,0.51-2.7,0.97-4.08,1.4
			c-0.94,0.3-1.9,0.55-2.87,0.82c-0.74,0.2-1.49,0.42-2.24,0.61c-1.04,0.25-2.1,0.46-3.16,0.67c-0.7,0.14-1.38,0.3-2.09,0.42
			c-2.12,0.37-4.28,0.67-6.45,0.9c-0.64,0.07-1.28,0.11-1.93,0.16c-1.28,0.11-2.56,0.2-3.86,0.26c-0.83,0.04-1.65,0.05-2.49,0.07
			c-1.01,0.02-2.03,0.03-3.04,0.01c-0.87-0.01-1.74-0.03-2.61-0.07c-0.96-0.04-1.93-0.09-2.89-0.15c-0.84-0.06-1.69-0.13-2.53-0.21
			c-0.96-0.09-1.92-0.2-2.87-0.32c-0.84-0.11-1.67-0.22-2.5-0.35c-1.02-0.16-2.04-0.34-3.05-0.53c-0.75-0.14-1.51-0.29-2.26-0.46
			c-1.22-0.27-2.42-0.57-3.62-0.89c-0.71-0.19-1.43-0.37-2.13-0.58c-0.43-0.12-0.85-0.26-1.27-0.39c-1.14-0.36-2.26-0.74-3.37-1.15
			c-0.33-0.12-0.67-0.24-1-0.37c-1.02-0.39-2-0.83-2.98-1.26c-0.49-0.22-1-0.42-1.48-0.65c-1.42-0.68-2.81-1.39-4.14-2.16
			c-11.13-6.43-16.69-14.86-16.67-23.29l-0.04,14.24c-0.02,8.42,5.54,16.86,16.67,23.29c1.32,0.77,2.71,1.48,4.13,2.16
			c0.48,0.23,0.99,0.43,1.49,0.65c0.84,0.37,1.66,0.76,2.52,1.1c0.15,0.06,0.31,0.11,0.46,0.17c0.32,0.12,0.66,0.24,0.98,0.36
			c1.11,0.41,2.24,0.8,3.39,1.16c0.42,0.13,0.84,0.27,1.26,0.39c0.25,0.08,0.51,0.17,0.77,0.24c0.45,0.13,0.93,0.22,1.38,0.34
			c1.19,0.31,2.38,0.61,3.6,0.88c0.31,0.06,0.6,0.15,0.9,0.22c0.45,0.09,0.92,0.15,1.37,0.24c1.01,0.19,2.02,0.37,3.04,0.53
			c0.4,0.06,0.79,0.15,1.19,0.21c0.44,0.06,0.89,0.09,1.34,0.15c0.93,0.12,1.85,0.22,2.79,0.31c0.46,0.05,0.91,0.12,1.37,0.15
			c0.43,0.04,0.86,0.04,1.29,0.07c0.93,0.07,1.87,0.11,2.81,0.15c0.49,0.02,0.97,0.07,1.46,0.08c0.39,0.01,0.79-0.01,1.18-0.01
			c1.01,0.01,2.02,0.01,3.03-0.01c0.52-0.01,1.05,0.01,1.57-0.01c0.31-0.01,0.62-0.05,0.93-0.06c1.25-0.06,2.49-0.15,3.73-0.25
			c0.53-0.04,1.07-0.05,1.6-0.11c0.16-0.02,0.33-0.05,0.49-0.07c2.16-0.23,4.29-0.52,6.4-0.89c0.1-0.02,0.2-0.02,0.31-0.04
			c0.61-0.11,1.21-0.26,1.81-0.39c1.05-0.21,2.09-0.42,3.12-0.67c0.76-0.18,1.5-0.4,2.24-0.6c0.96-0.26,1.92-0.52,2.87-0.82
			c0.21-0.07,0.43-0.12,0.64-0.18c1.17-0.38,2.32-0.79,3.45-1.22c0.14-0.05,0.27-0.11,0.41-0.17c1.26-0.49,2.48-1.02,3.69-1.57
			c0.34-0.16,0.68-0.32,1.01-0.48c1.31-0.63,2.59-1.29,3.82-2c0.23-0.13,0.46-0.27,0.69-0.4c0.56-0.33,1.03-0.69,1.55-1.03
			c0.65-0.43,1.32-0.84,1.92-1.29c0.58-0.42,1.09-0.85,1.63-1.28c0.58-0.47,1.17-0.93,1.7-1.41c0.11-0.1,0.25-0.19,0.35-0.29
			c0.73-0.67,1.39-1.35,2.03-2.04c0.14-0.15,0.25-0.3,0.38-0.45c0.38-0.42,0.75-0.84,1.09-1.27c0.27-0.34,0.5-0.68,0.75-1.03
			c0.09-0.13,0.19-0.25,0.28-0.38c0.44-0.65,0.86-1.3,1.24-1.96c0.13-0.22,0.23-0.44,0.35-0.67c0.07-0.13,0.14-0.27,0.21-0.4
			c0.35-0.71,0.68-1.42,0.95-2.14c0.04-0.11,0.05-0.23,0.1-0.35c0.2-0.56,0.34-1.12,0.49-1.69c0.1-0.38,0.25-0.76,0.33-1.14
			c0.02-0.1,0.02-0.21,0.03-0.31c0.11-0.58,0.15-1.16,0.21-1.75c0.03-0.4,0.12-0.79,0.13-1.18c0-0.17,0.01-0.33,0.01-0.5l0.04-14.24
			C159.61,79.02,159.51,79.98,159.37,80.94z"/>
		<g>
			<path class="st62" d="M142.96,54.78c22.11,12.77,22.21,33.47,0.24,46.24c-21.97,12.77-57.7,12.77-79.82,0
				c-22.11-12.77-22.24-33.47-0.28-46.24C85.08,42.01,120.84,42.01,142.96,54.78z"/>
		</g>
	</g>
	<g>
		<g class="st59">
			<path class="st60" d="M246.14,180.88l-13.81,8.02c-0.55,0.32-1.24,0.32-1.79,0l-13.91-8.03c-1.19-0.69-1.19-2.4-0.01-3.08
				l13.81-8.02c0.55-0.32,1.23-0.32,1.78,0l13.92,8.03C247.32,178.49,247.32,180.2,246.14,180.88z"/>
		</g>
		<g>
			<g>
				<g class="st65">
					<path class="st66" d="M246.14,180.22l-13.81,8.03c-0.55,0.32-1.24,0.32-1.79,0l-13.91-8.03c-1.19-0.69-1.19-2.4-0.01-3.08
						l13.81-8.03c0.55-0.32,1.23-0.32,1.78,0l13.92,8.04C247.32,177.82,247.32,179.53,246.14,180.22z"/>
				</g>
				<g class="st67">
					<path class="st66" d="M230.57,160.54c0.47-0.28,1.07-0.27,1.54,0.01l12.09,6.98c1.02,0.59,0.99,2.07-0.03,2.66l-11.97,6.96
						c-0.47,0.27-1.07,0.28-1.54,0.01l-12.1-6.99c-1.02-0.59-0.99-2.07,0.03-2.66L230.57,160.54z"/>
				</g>
				<g class="st68">
					<path class="st66" d="M230.7,151.98c0.39-0.23,0.91-0.21,1.3,0.01l10.26,5.93c0.85,0.49,0.79,1.74-0.06,2.24l-10.13,5.89
						c-0.39,0.23-0.91,0.24-1.3,0.01l-10.29-5.94c-0.85-0.49-0.78-1.75,0.06-2.24L230.7,151.98z"/>
				</g>
				<g class="st69">
					<path class="st66" d="M230.84,143.41c0.32-0.18,0.75-0.16,1.06,0.02l8.44,4.87c0.68,0.39,0.59,1.42-0.08,1.81l-8.29,4.82
						c-0.32,0.18-0.74,0.2-1.06,0.02l-8.48-4.9c-0.68-0.39-0.58-1.43,0.09-1.82L230.84,143.41z"/>
				</g>
				<g class="st70">
					<path class="st66" d="M230.98,134.85c0.24-0.14,0.58-0.11,0.82,0.03l6.61,3.82c0.51,0.29,0.39,1.09-0.11,1.39l-6.45,3.75
						c-0.24,0.14-0.58,0.16-0.81,0.03l-6.67-3.85c-0.51-0.29-0.38-1.1,0.13-1.4L230.98,134.85z"/>
				</g>
				<g class="st71">
					<path class="st66" d="M231.11,126.28c0.16-0.09,0.42-0.05,0.58,0.04l4.79,2.77c0.34,0.2,0.2,0.77-0.14,0.96l-4.62,2.68
						c-0.16,0.09-0.41,0.13-0.57,0.03l-4.86-2.8c-0.34-0.2-0.18-0.78,0.16-0.98L231.11,126.28z"/>
				</g>
				<g class="st72">
					<path class="st66" d="M231.25,117.72c0.08-0.05,0.26,0,0.34,0.05l2.96,1.71c0.17,0.1,0,0.44-0.17,0.54l-2.78,1.62
						c-0.08,0.05-0.25,0.09-0.33,0.04l-3.05-1.76c-0.17-0.1,0.02-0.46,0.19-0.55L231.25,117.72z"/>
				</g>
				<polygon class="st66" points="232.61,109.87 231.39,110.58 230.15,109.87 231.38,109.15 				"/>
			</g>
		</g>
		<g class="st59">
			<path class="st60" d="M210.79,157.97l-16.42,9.54c-0.55,0.32-1.24,0.32-1.79,0l-16.54-9.55c-1.19-0.68-1.19-2.4,0-3.08
				l16.42-9.54c0.55-0.32,1.24-0.32,1.79,0l16.55,9.55C211.97,155.57,211.97,157.29,210.79,157.97z"/>
		</g>
		<g>
			<g>
				<g class="st65">
					<path class="st73" d="M210.79,157.21l-16.42,9.54c-0.55,0.32-1.24,0.32-1.79,0l-16.54-9.56c-1.19-0.68-1.19-2.4,0-3.08
						l16.42-9.54c0.55-0.32,1.23-0.32,1.79,0l16.55,9.55C211.97,154.81,211.97,156.52,210.79,157.21z"/>
				</g>
				<g class="st67">
					<path class="st73" d="M192.59,134.74c0.47-0.28,1.07-0.27,1.54,0l14.37,8.29c1.02,0.59,0.99,2.07-0.02,2.66l-14.24,8.28
						c-0.47,0.27-1.07,0.28-1.54,0.01l-14.38-8.31c-1.02-0.59-0.99-2.07,0.03-2.66L192.59,134.74z"/>
				</g>
				<g class="st68">
					<path class="st73" d="M192.73,124.9c0.39-0.23,0.91-0.22,1.3,0.01l12.2,7.04c0.85,0.49,0.79,1.74-0.05,2.24l-12.05,7.01
						c-0.39,0.23-0.9,0.24-1.3,0.01l-12.22-7.06c-0.85-0.49-0.79-1.75,0.06-2.24L192.73,124.9z"/>
				</g>
				<g class="st69">
					<path class="st73" d="M192.86,115.06c0.32-0.18,0.74-0.16,1.06,0.02l10.02,5.78c0.68,0.39,0.6,1.42-0.08,1.81l-9.87,5.74
						c-0.32,0.18-0.74,0.2-1.05,0.02l-10.06-5.81c-0.68-0.39-0.59-1.42,0.09-1.82L192.86,115.06z"/>
				</g>
				<g class="st70">
					<path class="st73" d="M193,105.21c0.24-0.14,0.58-0.11,0.82,0.03l7.85,4.53c0.51,0.29,0.4,1.09-0.11,1.39l-7.69,4.47
						c-0.24,0.14-0.57,0.16-0.81,0.03l-7.9-4.56c-0.51-0.29-0.39-1.1,0.12-1.39L193,105.21z"/>
				</g>
				<g class="st71">
					<path class="st73" d="M193.14,95.37c0.16-0.09,0.41-0.06,0.57,0.04l5.68,3.28c0.34,0.2,0.2,0.77-0.14,0.96l-5.51,3.2
						c-0.16,0.09-0.41,0.12-0.56,0.03l-5.74-3.32c-0.34-0.2-0.19-0.77,0.15-0.97L193.14,95.37z"/>
				</g>
				<g class="st72">
					<path class="st73" d="M193.27,85.53c0.08-0.05,0.25,0,0.33,0.04l3.5,2.02c0.17,0.1,0,0.44-0.17,0.54l-3.32,1.93
						c-0.08,0.05-0.24,0.08-0.32,0.04l-3.58-2.07c-0.17-0.1,0.02-0.45,0.18-0.55L193.27,85.53z"/>
				</g>
				<polygon class="st73" points="194.83,76.51 193.42,77.33 192,76.51 193.41,75.69 				"/>
			</g>
		</g>
		<g class="st59">
			<path class="st60" d="M273.11,197.86l-11.65,6.77c-0.55,0.32-1.24,0.32-1.79,0l-11.75-6.78c-1.19-0.69-1.19-2.4,0-3.08
				l11.65-6.77c0.55-0.32,1.24-0.32,1.79,0l11.75,6.78C274.29,195.46,274.29,197.17,273.11,197.86z"/>
		</g>
		<g>
			<g>
				<g class="st65">
					<path class="st74" d="M271.63,198.71l-10.18,5.92c-0.55,0.32-1.24,0.32-1.79,0l-10.27-5.93c-1.19-0.69-1.19-2.4-0.01-3.09
						l10.18-5.92c0.55-0.32,1.24-0.32,1.79,0l10.27,5.93C272.82,196.31,272.82,198.03,271.63,198.71z"/>
				</g>
				<g class="st67">
					<path class="st74" d="M259.71,182.91c0.47-0.28,1.08-0.27,1.55,0.01l8.93,5.15c1.02,0.59,0.99,2.07-0.03,2.66l-8.82,5.13
						c-0.47,0.27-1.07,0.28-1.55,0.01l-8.94-5.16c-1.02-0.59-0.98-2.07,0.03-2.66L259.71,182.91z"/>
				</g>
				<g class="st68">
					<path class="st74" d="M259.84,176.12c0.39-0.23,0.92-0.21,1.31,0.02l7.58,4.37c0.85,0.49,0.79,1.75-0.06,2.24l-7.46,4.34
						c-0.39,0.23-0.91,0.24-1.3,0.02l-7.62-4.4c-0.85-0.49-0.78-1.75,0.06-2.24L259.84,176.12z"/>
				</g>
				<g class="st69">
					<path class="st74" d="M259.97,169.33c0.32-0.18,0.76-0.16,1.07,0.03l6.24,3.6c0.68,0.39,0.59,1.42-0.09,1.81l-6.1,3.55
						c-0.32,0.18-0.74,0.21-1.06,0.02l-6.29-3.63c-0.68-0.39-0.58-1.43,0.1-1.82L259.97,169.33z"/>
				</g>
				<g class="st70">
					<path class="st74" d="M260.11,162.54c0.24-0.14,0.6-0.1,0.83,0.04l4.89,2.82c0.51,0.29,0.39,1.1-0.12,1.39l-4.74,2.76
						c-0.24,0.14-0.58,0.17-0.82,0.03l-4.96-2.86c-0.51-0.29-0.37-1.11,0.14-1.4L260.11,162.54z"/>
				</g>
				<g class="st71">
					<path class="st74" d="M260.24,155.75c0.16-0.09,0.44-0.04,0.59,0.05l3.55,2.05c0.34,0.2,0.19,0.77-0.15,0.97l-3.38,1.97
						c-0.16,0.09-0.42,0.13-0.58,0.04l-3.63-2.1c-0.34-0.2-0.17-0.78,0.17-0.98L260.24,155.75z"/>
				</g>
				<g class="st72">
					<path class="st74" d="M260.37,148.96c0.08-0.05,0.28,0.01,0.35,0.06l2.21,1.27c0.17,0.1-0.01,0.45-0.18,0.55l-2.03,1.18
						c-0.08,0.05-0.25,0.09-0.33,0.05l-2.31-1.33c-0.17-0.1,0.04-0.46,0.21-0.56L260.37,148.96z"/>
				</g>
				<polygon class="st74" points="261.49,142.73 260.52,143.3 259.54,142.73 260.51,142.17 				"/>
			</g>
		</g>
	</g>
	<g>
		<g class="st2">
			<defs>
				<path id="SVGID_57_" class="st2" d="M151.73,207.68c0-0.8-0.01-1.61-0.01-2.42l0,0l0,0l0,0
					C151.73,206.07,151.73,206.87,151.73,207.68z"/>
			</defs>
			<clipPath id="SVGID_58_">
				<use xlink:href="#SVGID_57_"  style="overflow:visible;"/>
			</clipPath>
			<g class="st75">
				<path class="st76" d="M150.98,204.93l0.01,2.74c0.26,0.09,0.52,0.2,0.75,0.33c0.01,0.01,0.03,0.02,0.05,0.03l-0.01-2.74
					c-0.01-0.01-0.03-0.02-0.05-0.03C151.5,205.13,151.24,205.02,150.98,204.93L150.98,204.93z"/>
			</g>
		</g>
		<path class="st77" d="M239.56,216.5c0,0-4.53,3.8-3.58,7.78c0,0,1.52,1.61,2.94-1.23C240.34,220.2,241.84,216.41,239.56,216.5z"/>
		<path class="st78" d="M235.99,224.67c0,0,6.85,2.36,8,0.12c1.16-2.23,2.42-4.02,3.25-4.82c0.85-0.81,6.5-10.31,4.64-11.83
			c-1.87-1.51-4.57,1.18-5.38,1.84c-0.81,0.67-9.42,7.34-9.42,7.34L235.99,224.67z"/>
		<path class="st79" d="M179.26,182.48c0,0,23.99,13.75,29.42,18.43c4.51,3.87,29.46,15.81,29.46,15.81s-1.18,2.36-2.02,7.72
			c0,0-22.8-0.33-37.15-13.5c0,0-48.14-10.03-44.03-34.87C154.94,176.07,170.81,178.94,179.26,182.48z"/>
		<path class="st80" d="M247.23,219.97c0.75-0.72,5.3-8.33,4.95-11.05c-0.81-0.12-2.1,0.03-2.84,1.8c-1.13,2.74-4.59,9.01-5.22,9.81
			c-0.54,0.68-3.64,3.68-3.14,5.2c1.36,0.09,2.58-0.11,3.01-0.94C245.14,222.56,246.41,220.77,247.23,219.97z"/>
		<path class="st81" d="M225.61,236.61c0,0,7.76,1.22,8.57-0.81c0.82-2.03,1.78-3.68,2.43-4.45c0.67-0.76,4.79-9.44,3.05-10.6
			c-1.73-1.17-3.85,1.39-4.5,2.03c-0.65,0.64-7.73,7.03-7.73,7.03L225.61,236.61z"/>
		<path class="st80" d="M236.62,231.35c0.59-0.68,3.91-7.63,3.39-9.95c-0.71-0.03-1.82,0.2-2.31,1.79
			c-0.76,2.46-3.25,8.17-3.75,8.92c-0.41,0.63-2.85,3.48-2.29,4.76c1.18-0.04,2.22-0.31,2.53-1.06
			C235.01,233.77,235.96,232.12,236.62,231.35z"/>
		<path class="st82" d="M168.9,137.92c0,0-4.55,0.56-4.36,5.73c0.18,5.17,4.95,27.48,10.44,31.91c5.48,4.43,5.36-6.12,5.36-6.12
			S176.97,136.78,168.9,137.92z"/>
		<path class="st83" d="M175.24,180.3c0,0-3.99,11.82-6.05,14.4c0,0,23.98,13.75,29.42,18.43c4.5,3.87,30,15.59,30,15.59
			s-1.71,2.58-2.57,7.94c0,0-22.8-0.33-37.15-13.5c0,0-48.13-10.03-44.03-34.87C144.86,188.28,160.8,194.62,175.24,180.3z"/>
		<path class="st84" d="M155.9,139.69c0,0-13.02,7.31-13.31,8.2c-0.28,0.89-1.79,1.59,2.49,11.72c0,0,4.03,8.95,1.16,19.94
			c-1.66,6.37-1.4,8.52-1.4,8.52s5.06,10.84,19.44,5.55c2.9-1.07,11.01-8.81,12.49-11.99c0,0-4.57-5.62-2.78-16.61
			c1.8-10.99,2.81-25.25-3.42-27.15C170.56,137.87,168.98,135.96,155.9,139.69z"/>
		<path class="st85" d="M159.95,136.16c0,0,8.38,4.41,4.64,10.73l3.95,2.17C168.54,149.07,172.4,138,159.95,136.16z"/>
		<path class="st86" d="M154.56,131.71c0,0,3.53,5.36,0.74,8.97c-1.56,2.03,2.11,6.81,8.39,6.43c0,0,2.81-0.69,2.52-1.7
			c-0.65-2.31,0.27-3.62,1.28-5.38C168.48,138.26,154.56,131.71,154.56,131.71z"/>
		<path class="st87" d="M155.3,140.68c-0.19,0.24-0.3,0.53-0.34,0.83c2.35-2.39,6.88-2.58,6.88-2.58l-5.97-6.6
			c-0.23-0.11-0.42-0.21-0.6-0.3l-0.19,0.59C155.95,134.32,157.38,137.99,155.3,140.68z"/>
		<path class="st88" d="M166.21,145.41c-0.59-3.67,0.27-3.62,1.28-5.38c0.27-0.49-0.59-1.33-1.96-2.31
			c-0.34,0.25-0.69,0.63-1.02,1.15c-2.43,3.75-2.42,6.68-2.13,8.24c0.43,0.03,0.87,0.07,1.31,0
			C164.44,147,166.39,146.54,166.21,145.41z"/>
		<g>
			<path class="st86" d="M153.27,128.71c0,0,1.53,7.08,6.4,10.3c4.32,2.85,9.35,4.72,10.27-0.44c0.74-4.1,2.75-14.53-0.87-16.64
				c-4.67-2.7-6.38-6.03-11.77-4.04C157.3,117.9,151.13,120.73,153.27,128.71z"/>
			<path class="st89" d="M153.27,128.71c0,0,0.56,6.08,6.38,10.4c1.25,0.92,2.85,1.66,4.09,2.17c-2.27-1.67-2.5-2.19-4.26-4.24
				c-1.76-2.05,2.62-1.26-0.38-6.5c-1.01-1.79,3.98,0.52,5.1,0.48c6.65-0.16,6.15-3.97,6.28-5.58c-0.14-0.71-0.32-1.37-0.54-1.97
				l-0.63-1.21c-0.07-0.12-0.15-0.22-0.22-0.33c-0.73-0.91-1.44-1.7-2.16-2.37c-2.85,0.06-10.94,0.24-11.1,0.28
				c-0.11,0.03-1.5,1.91-2.79,3.71C152.72,124.97,152.72,126.67,153.27,128.71z"/>
			<path class="st90" d="M156.18,135.58c0,0-5.38-4.95-3.51-12.04c0,0,1-5.7,7.34-6.46c3.02-0.36,8.84-0.18,11.15,5.93
				c0.72,1.91,0.23,6.09-7.25,4.14c-1.07-0.28-3.92-0.66-4.92,0.26c-1.01,0.92-1.12,2.61-0.63,4.06c0.43,1.27-0.69,1.41-0.85,1.14
				c-0.16-0.27-1.6-3.89-2.95-2.48C153.33,131.41,156.05,135.33,156.18,135.58z"/>
			<path class="st90" d="M156.18,135.58c-0.13-0.25-2.85-4.17-1.63-5.45c1.35-1.42,2.79,2.21,2.95,2.48
				c0.16,0.27,1.27,0.13,0.85-1.14c-0.48-1.45-0.38-3.15,0.63-4.06c0.91-0.83,3.4-0.41,4.92-0.26c-1.24-0.8-3.72-1.07-4.6-3.14
				c-1.18-2.77-2.85-4.06-4.41-4.55c-1.83,1.86-2.23,4.08-2.23,4.08C150.8,130.63,156.18,135.58,156.18,135.58z"/>
		</g>
		<path class="st85" d="M156.17,138.95c0,0,1.26,6.32,8.42,7.94l-2.04,5C162.54,151.89,149.71,145.46,156.17,138.95z"/>
		<path class="st90" d="M171.15,123.01c0,0,1.11,6.83-7.58,4.35c0,0-4.34-1.16-6.09-5.18c-0.37-0.86-1.38-2.28-2.85-2.44
			c0,0,2.31-3.28,8.29-2.86c2.82,0.2,5.74,2.94,6.46,3.38C170.1,120.71,168.94,123.56,171.15,123.01z"/>
		<path class="st86" d="M199.85,173.53c0,0,6.26,1.17,10.53-0.61c4.28-1.77,3.24-1.92,2.91-2.57c-0.71-1.41-6.35-1.02-7.4-1.3
			c-1.04-0.27,0.87-1.1,1.3-1.82c0.42-0.72,1.41-1.56,1.07-1.79c-0.33-0.23-1.2-0.47-2.79,0.79c-1.59,1.27-5.59,2.98-5.59,2.98
			L199.85,173.53z"/>
		<path class="st82" d="M200.75,168.62c0,0-0.35,1.19-0.34,2.78c0.02,1.92,0.9,3.21,0.9,3.21s-20.42,4.1-25.61,1.47
			c0,0-5.02-7.74,2.65-9.79L200.75,168.62z"/>
		<path class="st82" d="M149.61,176.95l21.98,9.19c0,0-0.73,0.95-1.15,2.4c-5-1.59-23.44-4.33-23.01-8.3
			c2.21-20.47,2.42-31.18,2.42-31.18l0.82,2.44C152.71,160.16,149.61,176.95,149.61,176.95z"/>
		<g>
			<g>
				<g class="st2">
					<g>
						<polygon class="st91" points="162.75,190.34 162.66,191.4 178.03,202.35 178.12,201.29 						"/>
					</g>
					<g>
						<polygon class="st92" points="178.12,201.29 178.03,202.35 206.74,189.16 206.83,188.1 						"/>
					</g>
					<g>
						<polygon class="st93" points="162.75,190.34 178.12,201.29 206.83,188.1 191.46,177.14 						"/>
					</g>
				</g>
			</g>
			<g>
				<g class="st2">
					<g>
						<polygon class="st94" points="182.73,183.09 181.59,182.03 176.8,201.24 177.94,202.3 						"/>
					</g>
					<g>
						<polygon class="st95" points="212.74,169.31 211.6,168.24 181.59,182.03 182.73,183.09 						"/>
					</g>
					<g>
						<polygon class="st96" points="182.73,183.09 177.94,202.3 207.95,188.5 212.74,169.31 						"/>
					</g>
					<g>
						<polygon class="st62" points="182.73,183.09 182.73,183.09 207.95,188.5 212.74,169.31 						"/>
					</g>
				</g>
			</g>
		</g>
		<path class="st86" d="M170.39,191.77c0,0,6.91,5.7,13.67,4.37c0,0-0.01-1.76-3.02-2.41c-3.01-0.66-4.15-2.96-4.12-3.31
			c0.02-0.36,2.37-0.55,3.43-0.6c1.06-0.05,2.32-1.49-0.25-1.66c-2.56-0.16-6.95-1.14-9.44-0.59
			C170.65,187.57,168.16,190.22,170.39,191.77z"/>
		<path class="st82" d="M146.95,146.52c0,0-4.51-0.83-5.89,4.15c-1.37,4.99-3.5,27.71,0.41,33.58c3.9,5.87,29.35,8.95,29.35,8.95
			c-1.83-3.87,0.77-7.06,0.77-7.06l-21.98-9.19C149.61,176.95,154.98,147.86,146.95,146.52z"/>
	</g>
	<g class="st97">
		<linearGradient id="SVGID_59_" gradientUnits="userSpaceOnUse" x1="398.9362" y1="204.3617" x2="90.964" y2="-13.5173">
			<stop  offset="0" style="stop-color:#FFF3CA"/>
			<stop  offset="1" style="stop-color:#F8B5BA"/>
		</linearGradient>
		<path class="st98" d="M240.37,80.4v2.08l-2.12,1.23v-2.22c0-2.08-0.72-2.93-2.35-1.99c-1.6,0.93-2.35,2.61-2.35,4.7v12.24
			c0,2.08,0.75,2.91,2.35,1.98c1.63-0.94,2.35-2.61,2.35-4.7v-3.01l2.12-1.23v2.88c0,3.51-1.43,6.65-4.53,8.43
			c-3.06,1.77-4.5,0.28-4.5-3.23V85.6c0-3.5,1.43-6.65,4.5-8.42C238.94,75.4,240.37,76.89,240.37,80.4z"/>
		<linearGradient id="SVGID_60_" gradientUnits="userSpaceOnUse" x1="405.4323" y1="195.1644" x2="97.4736" y2="-22.705">
			<stop  offset="0" style="stop-color:#FFF3CA"/>
			<stop  offset="1" style="stop-color:#F8B5BA"/>
		</linearGradient>
		<path class="st99" d="M251.08,74.17v0.63l-2.12,1.22v-0.76c0-2.08-0.69-2.91-2.29-1.98c-1.61,0.93-2.29,2.55-2.29,4.6
			c0,5.19,6.73,1.8,6.73,8.32c0,3.51-1.46,6.63-4.52,8.4c-3.07,1.77-4.5,0.31-4.5-3.19v-1.32l2.09-1.21v1.46
			c0,2.08,0.75,2.88,2.35,1.95c1.6-0.92,2.35-2.58,2.35-4.66c0-5.16-6.7-1.78-6.7-8.3c0-3.57,1.43-6.62,4.44-8.35
			C249.65,69.21,251.08,70.67,251.08,74.17z"/>
		<linearGradient id="SVGID_61_" gradientUnits="userSpaceOnUse" x1="411.8954" y1="186.0388" x2="103.9281" y2="-31.8368">
			<stop  offset="0" style="stop-color:#FFF3CA"/>
			<stop  offset="1" style="stop-color:#F8B5BA"/>
		</linearGradient>
		<path class="st100" d="M261.75,68.02v0.63l-2.12,1.22v-0.76c0-2.08-0.69-2.91-2.29-1.98c-1.61,0.93-2.29,2.55-2.29,4.6
			c0,5.19,6.73,1.8,6.73,8.32c0,3.51-1.46,6.63-4.52,8.4c-3.07,1.77-4.5,0.31-4.5-3.19v-1.32l2.09-1.21v1.46
			c0,2.08,0.74,2.88,2.35,1.95c1.6-0.93,2.35-2.58,2.35-4.66c0-5.16-6.7-1.78-6.7-8.3c0-3.57,1.43-6.62,4.44-8.35
			C260.31,63.06,261.75,64.51,261.75,68.02z"/>
	</g>
	<g class="st97">
		<linearGradient id="SVGID_62_" gradientUnits="userSpaceOnUse" x1="422.2139" y1="211.1088" x2="114.2384" y2="-6.7724">
			<stop  offset="0" style="stop-color:#FFF3CA"/>
			<stop  offset="1" style="stop-color:#F8B5BA"/>
		</linearGradient>
		<path class="st101" d="M194.54,54.36v10.42l-2.24,1.29V42.92l2.24-1.29v10.42l4.93-2.84V38.78l2.24-1.29v23.15l-2.23,1.29l0-10.42
			L194.54,54.36z"/>
		<linearGradient id="SVGID_63_" gradientUnits="userSpaceOnUse" x1="430.0286" y1="200.0888" x2="122.0368" y2="-17.804">
			<stop  offset="0" style="stop-color:#FFF3CA"/>
			<stop  offset="1" style="stop-color:#F8B5BA"/>
		</linearGradient>
		<path class="st102" d="M206.92,57.63V36.83l-3.7,2.13v-2.35l9.62-5.56v2.35l-3.69,2.13v20.8L206.92,57.63z"/>
		<linearGradient id="SVGID_64_" gradientUnits="userSpaceOnUse" x1="436.6128" y1="190.8082" x2="128.6016" y2="-27.0984">
			<stop  offset="0" style="stop-color:#FFF3CA"/>
			<stop  offset="1" style="stop-color:#F8B5BA"/>
		</linearGradient>
		<path class="st103" d="M221.79,49.01l-2.15,1.24l-3.32-16.5V52.2l-1.95,1.12V30.18l3.12-1.8l3.29,16.59l3.18-20.33l3.12-1.8v23.15
			l-2.12,1.22V28.59L221.79,49.01z"/>
		<linearGradient id="SVGID_65_" gradientUnits="userSpaceOnUse" x1="442.474" y1="182.3977" x2="134.5493" y2="-35.4477">
			<stop  offset="0" style="stop-color:#FFF3CA"/>
			<stop  offset="1" style="stop-color:#F8B5BA"/>
		</linearGradient>
		<path class="st104" d="M229.39,44.66V21.51l2.23-1.29v20.8l5.73-3.31v2.35L229.39,44.66z"/>
	</g>
	<g class="st3">
		<linearGradient id="SVGID_66_" gradientUnits="userSpaceOnUse" x1="284.3517" y1="87.8408" x2="224.1841" y2="174.8686">
			<stop  offset="0" style="stop-color:#FFF3CA"/>
			<stop  offset="1" style="stop-color:#F8B5BA"/>
		</linearGradient>
		<path class="st105" d="M266.28,111.83v0.63l-2.12,1.22v-0.76c0-2.08-0.69-2.91-2.29-1.98c-1.61,0.93-2.29,2.55-2.29,4.6
			c0,5.19,6.73,1.8,6.73,8.32c0,3.5-1.46,6.63-4.53,8.4c-3.07,1.77-4.49,0.31-4.49-3.19v-1.32l2.09-1.21v1.45
			c0,2.08,0.75,2.88,2.35,1.95c1.61-0.93,2.35-2.58,2.35-4.66c0-5.16-6.7-1.78-6.7-8.3c0-3.57,1.43-6.62,4.44-8.35
			C264.85,106.87,266.28,108.33,266.28,111.83z"/>
		<linearGradient id="SVGID_67_" gradientUnits="userSpaceOnUse" x1="289.6828" y1="91.528" x2="229.5191" y2="178.5503">
			<stop  offset="0" style="stop-color:#FFF3CA"/>
			<stop  offset="1" style="stop-color:#F8B5BA"/>
		</linearGradient>
		<path class="st106" d="M277.29,105.51v11.97c0,1.42-0.26,2.83-0.77,4.05c0.23,0.43,0.6,0.38,1.23,0.02l0.28-0.17v2.28l-0.37,0.21
			c-1.26,0.73-2.09,0.68-2.55-0.02c-0.63,0.79-1.46,1.54-2.43,2.1c-3.07,1.77-4.58,0.33-4.58-3.18l-0.01-11.98
			c0-3.54,1.52-6.69,4.59-8.47C275.77,100.57,277.29,101.97,277.29,105.51z M270.3,109.42v12.24c0,2.12,0.77,2.89,2.38,1.97
			c1.63-0.94,2.38-2.6,2.38-4.71v-12.24c0-2.08-0.75-2.91-2.38-1.97C271.07,105.63,270.3,107.33,270.3,109.42z"/>
		<linearGradient id="SVGID_68_" gradientUnits="userSpaceOnUse" x1="293.2765" y1="94.0095" x2="233.1115" y2="181.0337">
			<stop  offset="0" style="stop-color:#FFF3CA"/>
			<stop  offset="1" style="stop-color:#F8B5BA"/>
		</linearGradient>
		<path class="st107" d="M279.79,121.63V98.48l2.23-1.29V118l5.73-3.31v2.35L279.79,121.63z"/>
	</g>
</g>
</svg>
