<?xml version="1.0" encoding="utf-8"?>
<!-- Generator: Adobe Illustrator 25.1.0, SVG Export Plug-In . SVG Version: 6.00 Build 0)  -->
<svg version="1.1" id="Layer_1" xmlns="http://www.w3.org/2000/svg" xmlns:xlink="http://www.w3.org/1999/xlink" x="0px" y="0px"
	 viewBox="0 0 376.7 273.5" style="enable-background:new 0 0 376.7 273.5;" xml:space="preserve">
<style type="text/css">
	.st0{opacity:0.1;}
	.st1{fill:#010101;}
	.st2{fill:#7379BA;}
	.st3{fill:#626AB1;}
	.st4{fill:#C2BFE0;}
	.st5{fill:url(#SVGID_1_);}
	.st6{fill:#FAFAFD;}
	.st7{fill:#E1DFF0;}
	.st8{fill:url(#SVGID_2_);}
	.st9{enable-background:new    ;}
	.st10{clip-path:url(#SVGID_4_);enable-background:new    ;}
	.st11{fill:#B93A7C;}
	.st12{fill:url(#SVGID_5_);}
	.st13{fill:url(#SVGID_6_);}
	.st14{opacity:0.7;}
	.st15{fill:url(#SVGID_7_);}
	.st16{fill:url(#SVGID_8_);}
	.st17{fill:url(#SVGID_9_);}
	.st18{fill:url(#SVGID_10_);}
	.st19{fill:#EAF0F4;}
	.st20{opacity:0.5;fill:url(#SVGID_11_);enable-background:new    ;}
	.st21{opacity:0.5;fill:url(#SVGID_12_);enable-background:new    ;}
	.st22{opacity:0.5;fill:url(#SVGID_13_);enable-background:new    ;}
	.st23{opacity:0.5;}
	.st24{fill:#DCDCDC;}
	.st25{opacity:0.6;fill:#DCDCDC;enable-background:new    ;}
	.st26{opacity:0.8571;}
	.st27{opacity:0.6571;fill:#DCDCDC;enable-background:new    ;}
	.st28{opacity:0.7143;}
	.st29{opacity:0.7143;fill:#DCDCDC;enable-background:new    ;}
	.st30{opacity:0.5714;}
	.st31{opacity:0.7714;fill:#DCDCDC;enable-background:new    ;}
	.st32{opacity:0.4286;}
	.st33{opacity:0.8286;fill:#DCDCDC;enable-background:new    ;}
	.st34{opacity:0.2857;}
	.st35{opacity:0.8857;fill:#DCDCDC;enable-background:new    ;}
	.st36{opacity:0.1429;}
	.st37{opacity:0.9429;fill:#DCDCDC;enable-background:new    ;}
	.st38{opacity:0;}
	.st39{opacity:0.6;}
	.st40{opacity:0.5143;}
	.st41{opacity:0.3429;}
	.st42{opacity:0.2571;}
	.st43{opacity:0.1714;}
	.st44{opacity:8.570000e-02;}
	.st45{fill:#231D21;}
	.st46{fill:#32282E;}
	.st47{fill:#EFB184;}
	.st48{fill:#D156A0;}
	.st49{fill:#E16CA9;}
	.st50{fill:#CB963C;}
	.st51{fill:#E8A477;}
	.st52{fill:#DC976A;}
	.st53{fill:#F1B387;}
	.st54{fill:#F6C57A;}
	.st55{fill:#B5B9BC;}
	.st56{fill:#7E8283;}
	.st57{fill:#E3E5E5;}
	.st58{fill:#BDBBBB;}
	.st59{fill:#D3D1D0;}
	.st60{fill:#D6DFE6;}
	.st61{fill:#FFDF76;}
	.st62{fill:#F4E881;}
	.st63{fill:#B7E3EB;}
	.st64{fill:#B6E2EA;}
	.st65{fill:#B4E2EA;}
	.st66{fill:#B3E1E9;}
	.st67{fill:#B1E1E8;}
	.st68{fill:#B0E0E7;}
	.st69{fill:#AFDFE6;}
	.st70{fill:#ADDFE6;}
	.st71{opacity:0.8;}
	.st72{fill:#AEDFE6;}
	.st73{fill:#FACEE1;}
</style>
<g>
	<g>
		<g class="st0">
			<path class="st1" d="M271.7,155.1c3.9,2.2,3.9,5.9,0.1,8.2l-7.7,4.5l-143.1,83.8l-11.9,7c-3.9,2.3-10.2,2.3-14.1,0l-83.6-47.9
				c-3.9-2.3-3.9-5.9-0.1-8.2L174,107.2c3.9-2.3,10.2-2.3,14.1-0.1L271.7,155.1z"/>
		</g>
		<g>
			<path class="st2" d="M274.7,128.7c0,0.4-0.1,0.7-0.2,1c0,0,0,0.1,0,0.1c-0.1,0.3-0.3,0.6-0.5,0.9c0,0.1-0.1,0.1-0.1,0.2
				c-0.2,0.3-0.5,0.6-0.8,0.9c-0.2,0.2-0.5,0.3-0.7,0.5c-0.2,0.1-0.4,0.3-0.6,0.4l-7.7,4.5l0,13l7.7-4.5c0,0,0.1-0.1,0.1-0.1
				c0.2-0.1,0.3-0.2,0.5-0.4c0.3-0.2,0.5-0.4,0.7-0.5c0,0,0,0,0.1-0.1c0.2-0.2,0.4-0.4,0.6-0.7c0-0.1,0.1-0.1,0.1-0.1
				c0-0.1,0.1-0.1,0.1-0.2c0.1-0.1,0.1-0.2,0.2-0.3c0.1-0.2,0.2-0.4,0.3-0.6c0,0,0-0.1,0-0.1c0,0,0-0.1,0-0.1c0-0.1,0.1-0.2,0.1-0.4
				c0-0.2,0-0.4,0.1-0.6v-0.1c0,0,0,0,0,0c0-3.8,0-7.6,0-11.3l0-1.6C274.7,128.8,274.7,128.7,274.7,128.7z"/>
			<path class="st3" d="M11.2,179.3c-2-1.1-2.9-2.6-2.9-4.1l0,13c0,1.5,1,3,2.9,4.1l83.5,48.2l0-13L11.2,179.3z"/>
			<path class="st2" d="M108.8,227.5c-0.6,0.4-1.3,0.6-2,0.9c-0.3,0.1-0.5,0.2-0.8,0.2c-0.3,0.1-0.7,0.2-1,0.2
				c-0.4,0.1-0.8,0.2-1.2,0.2c-0.1,0-0.2,0-0.3,0c-0.6,0.1-1.1,0.1-1.7,0.1c-0.1,0-0.2,0-0.2,0c-0.6,0-1.1,0-1.7-0.1
				c-0.1,0-0.2,0-0.2,0c-0.6-0.1-1.1-0.1-1.6-0.3c-0.1,0-0.2-0.1-0.3-0.1c-0.5-0.1-1-0.3-1.4-0.4c-0.1,0-0.2-0.1-0.2-0.1
				c-0.5-0.2-1.1-0.4-1.5-0.7l0,13c0.4,0.3,0.9,0.5,1.4,0.7c0,0,0.1,0,0.1,0c0.1,0,0.2,0.1,0.2,0.1c0.3,0.1,0.6,0.2,0.9,0.3
				c0.2,0.1,0.3,0.1,0.5,0.1c0.1,0,0.2,0,0.3,0.1c0.1,0,0.2,0.1,0.3,0.1c0.3,0.1,0.7,0.1,1,0.2c0.1,0,0.2,0,0.3,0c0.1,0,0.2,0,0.3,0
				c0.1,0,0.2,0,0.4,0c0.3,0,0.7,0,1,0.1c0.1,0,0.2,0,0.3,0c0.1,0,0.2,0,0.3,0c0.2,0,0.3,0,0.4,0c0.4,0,0.7,0,1.1-0.1
				c0,0,0.1,0,0.1,0c0.1,0,0.2,0,0.3,0c0.3,0,0.6-0.1,0.8-0.1c0.1,0,0.2-0.1,0.4-0.1c0.3-0.1,0.7-0.2,1-0.3c0.2-0.1,0.4-0.1,0.5-0.1
				c0.1,0,0.2-0.1,0.2-0.1c0.7-0.2,1.4-0.5,2-0.9l12-6.9l0-13L108.8,227.5z"/>
			<g>
				<g>
					<path class="st4" d="M271.8,124.6c3.9,2.3,3.9,5.9,0,8.2l-7.7,4.5l-143.4,83.3l-12,6.9c-3.9,2.3-10.2,2.3-14.1,0l-83.5-48.2
						c-3.9-2.3-3.9-5.9,0-8.2l163.1-94.8c3.9-2.3,10.2-2.3,14.1,0L271.8,124.6z"/>
				</g>
			</g>
			<g>
				
					<linearGradient id="SVGID_1_" gradientUnits="userSpaceOnUse" x1="23.12" y1="123.1698" x2="264.1" y2="123.1698" gradientTransform="matrix(1 0 0 -1 0 273.8898)">
					<stop  offset="0" style="stop-color:#FFF3CA"/>
					<stop  offset="1" style="stop-color:#F8B5BA"/>
				</linearGradient>
				<polygon class="st5" points="264.1,137.2 120.7,220.6 23.1,164.2 166.5,80.9 				"/>
			</g>
			<g>
				<path class="st6" d="M239.4,112.9c1.1,0.6,1.1,1.8-0.5,2.6c-1.1,0.6-2.4,1-3.4,0.4l-30.4-17.2c-1-0.6,0.3-2,1.4-2.6
					c1-0.6,2.7-0.6,3.8,0L239.4,112.9z"/>
			</g>
			<g>
				<g>
					<g>
						<path class="st7" d="M238.4,113.7c1,0.6,1.1,1.6,0,2.2c-1,0.6-2.7,0.6-3.8,0l-29.2-16.8c-1-0.6-1-1.6,0-2.2
							c1-0.6,2.7-0.6,3.8,0L238.4,113.7z"/>
					</g>
				</g>
			</g>
			<g>
				
					<linearGradient id="SVGID_2_" gradientUnits="userSpaceOnUse" x1="120.69" y1="88.4848" x2="264.1" y2="88.4848" gradientTransform="matrix(1 0 0 -1 0 273.8898)">
					<stop  offset="0" style="stop-color:#FCF8C5"/>
					<stop  offset="1" style="stop-color:#F8B5BA"/>
				</linearGradient>
				<polygon class="st8" points="264.1,137.2 264.1,150.3 120.7,233.6 120.7,220.6 				"/>
			</g>
			<g class="st9">
				<g>
					<defs>
						<path id="SVGID_3_" d="M201.2,146.2c0-1.1,0-2.1,0-3.2l0,0l0,0l0,0C201.2,144.1,201.2,145.2,201.2,146.2z"/>
					</defs>
					<clipPath id="SVGID_4_">
						<use xlink:href="#SVGID_3_"  style="overflow:visible;"/>
					</clipPath>
					<g class="st10">
						<path class="st11" d="M202.2,142.6l0,3.6c-0.4,0.1-0.7,0.3-1,0.4c0,0-0.1,0-0.1,0l0-3.6c0,0,0,0,0.1,0
							C201.5,142.9,201.9,142.7,202.2,142.6L202.2,142.6z"/>
					</g>
				</g>
			</g>
		</g>
	</g>
	<g>
		<g>
			
				<linearGradient id="SVGID_5_" gradientUnits="userSpaceOnUse" x1="77.8494" y1="177.1814" x2="77.238" y2="66.3838" gradientTransform="matrix(1 0 0 -1 0 273.8898)">
				<stop  offset="0" style="stop-color:#F9DD8D"/>
				<stop  offset="0.35" style="stop-color:#E3B09C"/>
				<stop  offset="1" style="stop-color:#C057A1"/>
			</linearGradient>
			<polygon class="st12" points="78.9,191.9 76.3,190.4 76.1,126.4 78.7,127.9 			"/>
		</g>
		
			<linearGradient id="SVGID_6_" gradientUnits="userSpaceOnUse" x1="76.12" y1="154.5101" x2="207.26" y2="154.5101" gradientTransform="matrix(1 0 0 -1 0 273.8898)">
			<stop  offset="0" style="stop-color:#F9DD8D"/>
			<stop  offset="0.35" style="stop-color:#E3B09C"/>
			<stop  offset="1" style="stop-color:#C057A1"/>
		</linearGradient>
		<path class="st13" d="M204.6,110.9C204.6,110.9,204.6,110.8,204.6,110.9c-0.3-0.2-0.5-0.3-0.8-0.4c-0.1,0-0.1-0.1-0.2-0.1
			c-0.1,0-0.2-0.1-0.3-0.1c-0.1,0-0.2-0.1-0.4-0.1c-0.2-0.1-0.4-0.1-0.6-0.1c-0.1,0-0.2-0.1-0.3-0.1c-0.1,0-0.1,0-0.1,0
			c-0.4-0.1-0.9-0.1-1.3-0.2c0,0-0.1,0-0.1,0c-0.2,0-0.4,0-0.6,0c-0.4,0-0.7,0-1.1,0c-0.1,0-0.1,0-0.2,0c-0.4,0-0.9,0.1-1.4,0.1
			c-0.3,0-0.6,0-0.9,0.1c-0.1,0-0.1,0-0.2,0c-0.2,0-0.4,0.1-0.5,0.1c-0.6,0.1-1.3,0.3-2,0.4c-0.2,0.1-0.4,0.1-0.6,0.2
			c-0.2,0-0.3,0.1-0.5,0.1c-0.5,0.1-1.1,0.3-1.6,0.5c-0.4,0.1-0.7,0.2-1,0.3c-1.1,0.4-2.3,0.8-3.5,1.3c-1.3,0.5-2.5,1-3.6,1.4
			c-2.3,0.9-4.5,1.8-6.4,2.6c-0.1,0.1-0.3,0.1-0.4,0.2c-0.8,0.3-1.6,0.6-2.4,0.9c-0.3,0.1-0.7,0.3-1,0.4c-0.5,0.2-1,0.4-1.5,0.6
			c-0.4,0.1-0.7,0.3-1.1,0.4c-0.4,0.2-0.9,0.3-1.3,0.4c-0.4,0.1-0.7,0.2-1.1,0.4c-0.4,0.1-0.8,0.3-1.1,0.4c-0.4,0.1-0.7,0.2-1,0.3
			c-0.4,0.1-0.7,0.2-1.1,0.3c-0.1,0-0.2,0.1-0.3,0.1c-1.3,0.3-2.5,0.6-3.7,0.8c-0.1,0-0.3,0-0.4,0.1c-0.9,0.1-1.7,0.2-2.6,0.3
			c-0.1,0-0.2,0-0.3,0c-0.9,0-1.8,0-2.8,0c-0.2,0-0.3,0-0.5,0c-1.2-0.1-2.4-0.2-3.8-0.5c-0.3-0.1-0.6-0.1-1-0.2
			c-0.9-0.2-1.8-0.4-2.6-0.6c-0.2-0.1-0.4-0.1-0.6-0.2c-0.8-0.2-1.5-0.5-2.2-0.7c-0.1,0-0.1,0-0.2-0.1c-0.8-0.3-1.6-0.6-2.4-0.9
			c-0.7-0.3-1.4-0.5-2.1-0.8c-0.1-0.1-0.3-0.1-0.4-0.2c-0.7-0.3-1.4-0.5-2.1-0.7c-0.1,0-0.2-0.1-0.3-0.1s-0.2,0-0.3-0.1
			c-0.6-0.2-1.2-0.3-1.8-0.4c-0.1,0-0.2-0.1-0.4-0.1c-0.1,0-0.1,0-0.1,0c-0.4-0.1-0.9-0.1-1.3-0.2c-0.2,0-0.3-0.1-0.5-0.1
			c0,0,0,0-0.1,0c-0.3,0-0.6,0-1,0c-0.3,0-0.6,0-0.8,0c0,0-0.1,0-0.1,0c-0.3,0-0.6,0.1-0.9,0.1c-0.3,0-0.7,0.1-1,0.1
			c0,0-0.1,0-0.1,0c-0.6,0.1-1.2,0.2-1.7,0.4c-0.2,0-0.3,0.1-0.4,0.1c0,0,0,0,0,0c-0.9,0.2-1.8,0.6-2.8,1c-0.1,0-0.2,0.1-0.3,0.1
			c-0.4,0.2-0.8,0.3-1.1,0.5c-0.3,0.1-0.5,0.2-0.8,0.3c-0.8,0.4-1.6,0.8-2.5,1.3c-1.3,0.8-2.8,1.7-4.3,2.8c-0.9,0.6-1.7,1.2-2.5,1.6
			c-1,0.6-1.9,1-2.8,1.4c-0.8,0.3-1.6,0.6-2.3,0.8c-0.2,0-0.3,0.1-0.4,0.1c-0.6,0.1-1.2,0.2-1.7,0.3c-0.1,0-0.3,0-0.4,0
			c-0.6,0-1.2,0-1.8,0c-0.2,0-0.3,0-0.4-0.1c-0.4-0.1-0.8-0.1-1.3-0.2c-0.2-0.1-0.4-0.1-0.6-0.2c-0.3-0.1-0.5-0.2-0.8-0.3
			c-0.5-0.2-0.9-0.3-1.4-0.5c-0.2-0.1-0.4-0.2-0.7-0.3c-0.7-0.3-1.4-0.6-2.1-0.9c-0.7-0.3-1.3-0.6-2-0.9c-0.1-0.1-0.2-0.1-0.3-0.2
			s-0.2-0.1-0.3-0.1c-0.4-0.2-0.9-0.3-1.4-0.5c-0.2-0.1-0.3-0.1-0.5-0.2c-0.1,0-0.3-0.1-0.4-0.1c-0.2-0.1-0.4-0.1-0.7-0.2
			c-0.2,0-0.3-0.1-0.5-0.1c-0.3,0-0.6-0.1-0.8-0.1c-0.1,0-0.3,0-0.4-0.1c-0.1,0-0.1,0-0.2,0c-0.4,0-0.9,0-1.3,0c-0.1,0-0.2,0-0.3,0
			c-0.1,0-0.3,0-0.4,0c-0.2,0-0.4,0-0.7,0.1c-0.3,0.1-0.7,0.2-1.1,0.2c-0.1,0-0.3,0.1-0.4,0.1c-0.1,0-0.1,0-0.1,0
			c-0.7,0.2-1.4,0.4-2.2,0.8c0,0,0,0,0,0c-0.9,0.4-1.8,0.8-2.9,1.4c-0.5,0.3-1.1,0.7-1.7,1l2.6,1.5c0.6-0.4,1.1-0.7,1.7-1
			c1-0.6,2-1.1,2.9-1.4c0.8-0.3,1.6-0.6,2.4-0.8c0.1,0,0.3-0.1,0.4-0.1c0.6-0.1,1.2-0.2,1.8-0.3c0.1,0,0.3,0,0.4-0.1
			c0.6,0,1.3,0,1.8,0c0.1,0,0.3,0,0.4,0c0.5,0.1,0.9,0.1,1.3,0.2c0.2,0.1,0.4,0.1,0.7,0.2c0.3,0.1,0.6,0.2,0.9,0.3
			c0.5,0.2,0.9,0.3,1.4,0.5c0.2,0.1,0.4,0.2,0.6,0.3c0.7,0.3,1.4,0.6,2,0.9c0.7,0.3,1.4,0.7,2.1,0.9c0.1,0.1,0.3,0.1,0.4,0.2
			c0.1,0,0.2,0.1,0.3,0.1c0.4,0.2,0.9,0.3,1.3,0.5c0.2,0.1,0.3,0.1,0.5,0.2c0.1,0,0.2,0,0.3,0.1c0.2,0.1,0.4,0.1,0.6,0.1
			c0.2,0,0.4,0.1,0.6,0.1s0.4,0.1,0.7,0.1c0.2,0,0.3,0,0.4,0.1c0.1,0,0.2,0,0.3,0c0.4,0,0.9,0,1.3,0c0.1,0,0.1,0,0.2,0
			c0.1,0,0.3,0,0.4,0c0.3,0,0.5,0,0.8-0.1c0.3-0.1,0.6-0.1,0.9-0.2c0.2,0,0.3-0.1,0.4-0.1c0.1,0,0.1,0,0.2-0.1
			c0.7-0.2,1.4-0.4,2.1-0.7l0,0c0.9-0.4,1.8-0.8,2.8-1.4c0.8-0.5,1.7-1,2.5-1.6c1.5-1.1,3-2,4.3-2.8c0.9-0.5,1.7-0.9,2.5-1.3
			c0.2-0.1,0.4-0.2,0.7-0.3c0.5-0.2,1-0.5,1.5-0.7c1-0.4,1.9-0.7,2.8-0.9c0.2-0.1,0.3-0.1,0.5-0.1c0.6-0.1,1.1-0.3,1.7-0.4
			c0.4-0.1,0.7-0.1,1.1-0.1c0.3,0,0.6-0.1,0.9-0.1c0.3,0,0.6,0,0.9,0c0.3,0,0.7,0,1,0c0.2,0,0.4,0.1,0.6,0.1c0.4,0,0.9,0.1,1.3,0.2
			c0.2,0,0.3,0.1,0.5,0.1c0.6,0.1,1.2,0.3,1.8,0.4c0.2,0.1,0.4,0.1,0.6,0.2c0.7,0.2,1.4,0.4,2.1,0.7c0.2,0.1,0.4,0.1,0.5,0.2
			c0.6,0.2,1.3,0.5,1.9,0.7c0.8,0.3,1.7,0.7,2.6,1c0,0,0.1,0,0.1,0c0.7,0.3,1.5,0.5,2.2,0.7c0.1,0,0.2,0.1,0.3,0.1
			c0.1,0,0.2,0,0.3,0.1c0.8,0.2,1.7,0.4,2.6,0.6c0.3,0.1,0.5,0.1,0.8,0.1c0.1,0,0.1,0,0.2,0c1.3,0.2,2.6,0.4,3.8,0.5
			c0.1,0,0.1,0,0.2,0c0.1,0,0.2,0,0.3,0c0.9,0.1,1.9,0.1,2.8,0c0,0,0,0,0.1,0c0,0,0.1,0,0.1,0c0.9-0.1,1.8-0.1,2.7-0.3
			c0.1,0,0.2,0,0.3,0c0,0,0.1,0,0.1,0c1.2-0.2,2.4-0.5,3.7-0.8c0.1,0,0.1,0,0.2,0c0.1,0,0.1,0,0.1,0c0.3-0.1,0.6-0.2,0.9-0.3
			c0.4-0.1,0.7-0.2,1.1-0.3c0.3-0.1,0.6-0.2,0.9-0.3c0.4-0.1,0.8-0.3,1.3-0.4c0.3-0.1,0.6-0.2,0.9-0.3c0.5-0.2,0.9-0.3,1.4-0.5
			c0.3-0.1,0.6-0.2,0.9-0.3c0.6-0.2,1.1-0.4,1.7-0.6c0.3-0.1,0.6-0.2,0.9-0.3c0.6-0.3,1.3-0.5,1.9-0.8c0.1,0,0.2-0.1,0.3-0.1
			c2.8-1.1,6-2.4,9.6-3.8c1.2-0.5,2.4-0.9,3.5-1.3c0.4-0.1,0.7-0.2,1-0.3c0.7-0.2,1.5-0.4,2.1-0.6c0.2-0.1,0.4-0.1,0.7-0.2
			c0.7-0.2,1.4-0.3,2.1-0.4c0.1,0,0.3-0.1,0.4-0.1c0.4-0.1,0.8-0.1,1.2-0.1c0.4-0.1,0.9-0.1,1.3-0.1c0.5,0,0.9,0,1.4,0
			c0.1,0,0.3,0,0.5,0c0.6,0,1.1,0.1,1.6,0.2c0.1,0,0.2,0.1,0.3,0.1c0.4,0.1,0.7,0.2,1,0.3c0.1,0,0.2,0.1,0.3,0.1
			c0.4,0.1,0.7,0.3,1,0.5L204.6,110.9z"/>
		<g class="st14">
			<g>
				
					<linearGradient id="SVGID_7_" gradientUnits="userSpaceOnUse" x1="78.71" y1="122.324" x2="209.82" y2="122.324" gradientTransform="matrix(1 0 0 -1 0 273.8898)">
					<stop  offset="0" style="stop-color:#F9DD8D"/>
					<stop  offset="0.35" style="stop-color:#E3B09C"/>
					<stop  offset="1" style="stop-color:#C057A1"/>
				</linearGradient>
				<path class="st15" d="M80.4,126.8c7.9-4.6,12.5-2.4,17-0.3c4.5,2.1,9,4.3,16.6-0.1c0.8-0.5,1.7-1,2.5-1.6c1.5-1.1,3-2,4.3-2.8
					c14.8-8.6,20.1-0.9,30.9,1.2c11.8,2.2,17-0.8,37.2-8.7c20.2-7.9,20.9,1.3,20.9,1.8L78.9,191.9l-0.2-64
					C79.3,127.5,79.8,127.2,80.4,126.8z"/>
			</g>
		</g>
	</g>
	<g>
		
			<linearGradient id="SVGID_8_" gradientUnits="userSpaceOnUse" x1="-165.7332" y1="155.3956" x2="-125.9332" y2="155.3956" gradientTransform="matrix(1 0 0 -1 351.0732 273.8898)">
			<stop  offset="0" style="stop-color:#72CAC4"/>
			<stop  offset="1" style="stop-color:#3EBDE2"/>
		</linearGradient>
		<path class="st16" d="M215.1,116c0.5-0.2,1-0.5,1.4-0.6c0.8-0.3,1.6-0.6,2.3-0.8c0.4-0.1,0.7-0.2,1-0.2c0.2-0.1,0.4-0.1,0.7-0.1
			c0.5-0.1,0.9-0.1,1.3-0.1c0.1,0,0.1,0,0.2,0c0.4,0,0.7,0,1,0.1c0.1,0,0.1,0,0.2,0c0.3,0.1,0.6,0.1,0.9,0.2c0.1,0,0.1,0,0.2,0.1
			c0.3,0.1,0.6,0.2,0.8,0.4l-2.2-1.3c0,0,0,0-0.1,0c-0.2-0.1-0.3-0.2-0.5-0.3c-0.1,0-0.2-0.1-0.3-0.1c-0.1,0-0.1,0-0.2-0.1
			c-0.1,0-0.1,0-0.2-0.1c-0.2-0.1-0.4-0.1-0.6-0.2c0,0-0.1,0-0.1,0c-0.1,0-0.1,0-0.2,0c-0.1,0-0.3,0-0.4-0.1c-0.2,0-0.4,0-0.6,0
			c-0.1,0-0.1,0-0.2,0c0,0-0.1,0-0.1,0c-0.4,0-0.7,0.1-1.1,0.1c0,0-0.1,0-0.1,0c-0.2,0-0.4,0.1-0.6,0.1c-0.3,0.1-0.6,0.1-0.9,0.2
			c0,0-0.1,0-0.1,0.1c-0.7,0.2-1.5,0.5-2.3,0.8c-0.1,0-0.1,0-0.1,0c-0.4,0.2-0.9,0.4-1.3,0.6c-0.2,0.1-0.4,0.2-0.7,0.3
			c-0.8,0.4-1.6,0.8-2.4,1.3c-0.5,0.3-1.1,0.6-1.6,1c-0.6,0.4-1.2,0.7-1.8,1.1c-1.1,0.6-2.1,1.2-3.1,1.7c-0.3,0.2-0.6,0.3-0.9,0.4
			c-0.6,0.3-1.2,0.5-1.8,0.8c-0.8,0.3-1.5,0.6-2.2,0.8c-0.4,0.1-0.8,0.3-1.2,0.4c-0.4,0.1-0.7,0.2-1.1,0.2c-0.5,0.1-1.1,0.2-1.6,0.3
			c-0.3,0-0.5,0.1-0.8,0.1c-0.6,0-1.2,0.1-1.7,0.1c-0.2,0-0.3,0-0.5,0c-0.7,0-1.4-0.1-2-0.2c-0.1,0-0.3-0.1-0.4-0.1
			c-0.5-0.1-1-0.3-1.5-0.4c-0.1-0.1-0.3-0.1-0.4-0.2c-0.6-0.2-1.2-0.5-1.7-0.8l2.2,1.3c0.1,0,0.1,0.1,0.1,0.1
			c0.4,0.2,0.9,0.4,1.3,0.6c0.1,0,0.2,0.1,0.3,0.1c0.1,0.1,0.3,0.1,0.4,0.1c0.2,0.1,0.4,0.2,0.7,0.2c0.3,0.1,0.6,0.1,0.9,0.2
			c0.1,0,0.2,0.1,0.4,0.1c0.1,0,0.1,0,0.2,0.1c0.5,0.1,1,0.1,1.6,0.2c0.1,0,0.2,0,0.3,0c0.2,0,0.3,0,0.5,0c0.3,0,0.6,0,1,0
			c0.2,0,0.5-0.1,0.7-0.1c0.3,0,0.5-0.1,0.8-0.1c0.2,0,0.3,0,0.5-0.1c0.3-0.1,0.7-0.2,1-0.2c0.4-0.1,0.8-0.2,1.1-0.3
			c0.1,0,0.2,0,0.4-0.1c0.3-0.1,0.5-0.2,0.8-0.3c0.7-0.2,1.5-0.5,2.2-0.8c0.2-0.1,0.4-0.1,0.6-0.2c0.4-0.2,0.8-0.4,1.2-0.6
			c0.3-0.1,0.6-0.3,0.9-0.4c1-0.5,2.1-1,3.1-1.7c0.6-0.3,1.2-0.7,1.8-1.1c0.6-0.4,1.1-0.7,1.6-1c0.9-0.5,1.7-0.9,2.4-1.3
			C214.6,116.2,214.8,116.1,215.1,116z"/>
		
			<linearGradient id="SVGID_9_" gradientUnits="userSpaceOnUse" x1="-235.5132" y1="139.0636" x2="-180.9832" y2="139.0636" gradientTransform="matrix(1 0 0 -1 351.0732 273.8898)">
			<stop  offset="0" style="stop-color:#72CAC4"/>
			<stop  offset="1" style="stop-color:#3EBDE2"/>
		</linearGradient>
		<path class="st17" d="M167.9,86.8C167.9,86.8,167.9,86.8,167.9,86.8c-0.3-0.2-0.5-0.3-0.7-0.3c-0.2-0.1-0.4-0.1-0.6-0.2
			c-0.1,0-0.1,0-0.2-0.1c0,0-0.1,0-0.1,0c-0.1,0-0.2-0.1-0.2-0.1c-0.2,0-0.4-0.1-0.6-0.1c-0.2,0-0.4,0-0.6,0c0,0-0.1,0-0.1,0
			c0,0-0.1,0-0.1,0c-0.1,0-0.3,0-0.4,0.1c-0.3,0-0.5,0.1-0.8,0.2c-0.1,0-0.2,0.1-0.3,0.1s-0.2,0.1-0.3,0.1c-0.1,0.1-0.3,0.1-0.4,0.1
			c-0.4,0.2-0.8,0.4-1.2,0.6c-0.6,0.3-1.2,0.8-1.9,1.3c-0.1,0.1-0.2,0.1-0.3,0.2c-0.6,0.5-1.2,1.1-1.9,1.7c-0.1,0.1-0.1,0.1-0.2,0.2
			c-0.1,0.1-0.1,0.2-0.2,0.2c-0.6,0.6-1.3,1.3-2,2.1c0,0-0.1,0.1-0.1,0.1c-0.1,0.1-0.1,0.1-0.2,0.2c-0.7,0.9-1.5,1.8-2.3,2.8l0,0
			c-0.5,0.6-0.9,1.2-1.4,1.9c-1.1,1.5-2.2,3-3.2,4.4c-0.1,0.2-0.2,0.3-0.3,0.5c-0.2,0.2-0.3,0.4-0.5,0.7c-0.4,0.6-0.8,1.1-1.1,1.7
			c-0.3,0.5-0.6,0.9-0.9,1.3c-0.3,0.5-0.7,1-1,1.5c-0.3,0.4-0.6,0.9-0.9,1.3c-0.3,0.5-0.6,0.9-0.9,1.4c-0.3,0.4-0.6,0.8-0.8,1.3
			c-0.3,0.5-0.6,0.9-0.9,1.4c-0.2,0.4-0.5,0.8-0.7,1.1c-0.5,0.7-0.9,1.4-1.3,2.1c-0.2,0.3-0.3,0.5-0.4,0.7c-0.3,0.5-0.6,1-0.9,1.4
			c-0.2,0.2-0.3,0.5-0.5,0.7c-0.3,0.4-0.5,0.8-0.8,1.2c-0.1,0.2-0.3,0.4-0.4,0.6c-0.3,0.4-0.6,0.8-0.8,1.2c-0.4,0.6-0.9,1.2-1.3,1.8
			c-0.1,0.2-0.3,0.4-0.4,0.6c-0.2,0.3-0.4,0.5-0.6,0.8c-0.1,0.2-0.3,0.4-0.5,0.5c-0.2,0.2-0.4,0.5-0.6,0.7c-0.1,0.2-0.3,0.3-0.4,0.4
			c-0.3,0.3-0.6,0.5-0.8,0.7c-0.1,0.1-0.3,0.2-0.4,0.3c-0.4,0.3-0.8,0.6-1.2,0.8c-0.4,0.2-0.8,0.4-1.2,0.6c-0.1,0-0.2,0.1-0.3,0.1
			c-0.3,0.1-0.6,0.2-0.9,0.3c-0.1,0-0.2,0-0.4,0.1c-0.3,0.1-0.6,0.1-0.9,0.1c-0.2,0-0.3,0-0.5,0.1c-0.3,0-0.6,0-0.8,0
			c-0.2,0-0.4,0-0.7,0s-0.5,0-0.7-0.1c-0.4,0-0.8-0.1-1.2-0.1c-0.2,0-0.4-0.1-0.6-0.1c-0.9-0.2-1.8-0.4-2.8-0.6
			c-0.6-0.2-1.2-0.4-1.8-0.6l0.2,53.7l2.2,1.3l-0.2-53.7c0.6,0.2,1.2,0.4,1.7,0.5c0,0,0.1,0,0.1,0c1,0.3,1.9,0.5,2.8,0.7
			c0.1,0,0.2,0.1,0.3,0.1c0.1,0,0.2,0,0.4,0.1c0.4,0.1,0.8,0.1,1.2,0.1c0.1,0,0.3,0,0.4,0.1c0.1,0,0.2,0,0.3,0c0.2,0,0.4,0,0.7,0
			c0.2,0,0.3,0,0.5,0c0.1,0,0.2,0,0.4,0c0.2,0,0.3,0,0.5-0.1c0.1,0,0.2,0,0.3,0c0.2,0,0.4-0.1,0.6-0.1c0.1,0,0.2-0.1,0.4-0.1
			c0.1,0,0.1,0,0.1,0c0.3-0.1,0.5-0.2,0.8-0.3c0.1,0,0.2-0.1,0.3-0.1c0,0,0,0,0.1,0c0.4-0.2,0.8-0.3,1.1-0.6
			c0.4-0.3,0.8-0.5,1.2-0.8c0.1-0.1,0.3-0.2,0.4-0.3c0.3-0.2,0.5-0.4,0.8-0.7c0.1-0.1,0.1-0.1,0.2-0.2c0.1-0.1,0.2-0.2,0.3-0.3
			c0.2-0.2,0.4-0.4,0.6-0.6c0.1-0.1,0.2-0.2,0.3-0.3c0.1-0.1,0.2-0.2,0.2-0.3c0.2-0.2,0.4-0.5,0.6-0.7c0.1-0.1,0.2-0.2,0.3-0.4
			c0.1-0.1,0.1-0.2,0.2-0.3c0.4-0.5,0.8-1.1,1.3-1.7c0,0,0,0,0.1-0.1c0.2-0.3,0.4-0.6,0.7-1c0.2-0.2,0.3-0.5,0.5-0.7
			c0.3-0.4,0.5-0.8,0.8-1.2c0.1-0.2,0.3-0.4,0.4-0.7c0.3-0.5,0.7-1.1,1-1.6c0.1-0.2,0.2-0.3,0.3-0.5c0.5-0.8,1-1.6,1.5-2.4
			c0.1-0.2,0.2-0.3,0.3-0.5c0.4-0.6,0.8-1.3,1.2-1.9c0.2-0.3,0.4-0.6,0.6-0.8c0.4-0.6,0.8-1.2,1.2-1.8c0.2-0.3,0.4-0.7,0.7-1
			c0.4-0.6,0.8-1.2,1.2-1.8c0.3-0.4,0.5-0.7,0.8-1.1c0.4-0.6,0.9-1.3,1.3-1.9c0.2-0.3,0.4-0.6,0.7-0.9c1-1.4,2.1-2.9,3.2-4.5
			c0.5-0.7,0.9-1.3,1.4-1.9c0.8-1,1.5-1.9,2.2-2.8c0.1-0.1,0.2-0.2,0.3-0.3c0.7-0.8,1.3-1.5,2-2.1c0.1-0.1,0.2-0.2,0.4-0.3
			c0.6-0.6,1.3-1.2,1.9-1.7c0.1-0.1,0.2-0.2,0.3-0.2c0.6-0.5,1.3-0.9,1.9-1.3c0.6-0.3,1.1-0.6,1.6-0.8c0.1,0,0.2-0.1,0.3-0.1
			c0.5-0.2,1-0.3,1.5-0.3c0,0,0.1,0,0.1,0c0.5,0,1,0,1.5,0.1c0,0,0.1,0,0.1,0c0.5,0.1,1,0.3,1.5,0.6L167.9,86.8z"/>
		<g class="st14">
			<g>
				
					<linearGradient id="SVGID_10_" gradientUnits="userSpaceOnUse" x1="-233.3232" y1="138.4671" x2="-123.2632" y2="138.4671" gradientTransform="matrix(1 0 0 -1 351.0732 273.8898)">
					<stop  offset="0" style="stop-color:#72CAC4"/>
					<stop  offset="1" style="stop-color:#3EBDE2"/>
				</linearGradient>
				<path class="st18" d="M163.5,88.5c6.8-3.9,11.8,1.6,15.7,20.3c2.4,11.6,10.5,21.7,29.3,10.8c0.6-0.3,1.2-0.7,1.8-1.1
					c0.6-0.4,1.1-0.7,1.6-1c15.9-9.2,15.9,1.9,15.9,2.5l-109.9,63.5l-0.2-53.7c5.9,2,9.6,2.1,12.7,0.3c5.8-3.4,9.8-13.5,22.8-31
					C157,93.9,160.4,90.2,163.5,88.5z"/>
			</g>
		</g>
	</g>
	<g>
		<g>
			<g>
				<path class="st19" d="M53,111.6c0.2-0.1,0.4-0.2,0.5-0.3c0.7-0.4,1.1-1.1,1.1-2.2v-8.3l1-0.6v8.2c0,2.1-0.9,3.2-2,3.9
					c-0.2,0.1-0.4,0.3-0.7,0.4V111.6z"/>
				<path class="st19" d="M57.8,107.7l-0.4,2.4l-1,0.6l1.8-12l1.5-0.9l1.8,9.9l-1.1,0.6l-0.4-2L57.8,107.7z M58,106.6l2.1-1.2
					L59,99.7L58,106.6z"/>
				<path class="st19" d="M62.9,96l1.5,8.6L66,94.2l1-0.6l-1.8,12l-1.6,0.9l-1.8-9.9L62.9,96z"/>
				<path class="st19" d="M68.5,101.5l-0.4,2.4l-1,0.6l1.8-12l1.5-0.9l1.8,9.9l-1.1,0.6l-0.4-2L68.5,101.5z M68.7,100.4l2.1-1.2
					l-1.1-5.7L68.7,100.4z"/>
				<path class="st19" d="M77.3,90.4v0.3l-1,0.6v-0.4c0-1-0.3-1.4-1.1-0.9c-0.8,0.4-1.1,1.2-1.1,2.2c0,2.5,3.2,0.8,3.2,3.9
					c0,1.7-0.7,3.1-2.1,4s-2.1,0.1-2.1-1.5v-0.6l1-0.6V98c0,1,0.3,1.4,1.1,0.9s1.1-1.2,1.1-2.2c0-2.4-3.2-0.8-3.2-3.9
					c0-1.7,0.7-3.1,2.1-3.9C76.6,88,77.3,88.7,77.3,90.4z"/>
				<path class="st19" d="M82.4,87.4v1l-1,0.6v-1.1c0-1-0.3-1.4-1.1-0.9c-0.8,0.4-1.1,1.2-1.1,2.2V95c0,1,0.3,1.4,1.1,0.9
					c0.8-0.4,1.1-1.2,1.1-2.2v-1.4l1-0.6v1.4c0,1.7-0.7,3.1-2.1,4c-1.4,0.8-2.1,0.1-2.1-1.5v-5.7c0-1.7,0.7-3.2,2.1-4
					C81.7,85.1,82.4,85.8,82.4,87.4z"/>
				<path class="st19" d="M85.5,83c1.5-0.9,2.1-0.3,2.1,1.3v0.9c0,1.2-0.4,2.2-1.2,2.9c0.9-0.2,1.2,0.4,1.2,1.6v1.7
					c0,0.5,0,0.9,0.2,1.2l-1.1,0.6c-0.1-0.2-0.2-0.5-0.2-1.2v-1.7c0-1.2-0.5-1.3-1.4-0.8l-0.8,0.4v4.7l-1.1,0.6V84.2L85.5,83z
					 M85.2,88.3c0.8-0.5,1.3-1.1,1.3-2.3V85c0-1-0.3-1.3-1.1-0.9l-1,0.6v4.1L85.2,88.3z"/>
				<path class="st19" d="M89.8,80.5v10.9l-1.1,0.6V81.1L89.8,80.5z"/>
				<path class="st19" d="M92.9,78.7c1.5-0.9,2.1-0.2,2.1,1.4v1.3c0,1.7-0.7,3.1-2.2,3.9l-0.9,0.5v4.3l-1.1,0.6v-11L92.9,78.7z
					 M92.8,84.3c0.8-0.4,1.2-1.1,1.2-2.1v-1.5c0-1-0.3-1.3-1.1-0.9l-1,0.6v4.4L92.8,84.3z"/>
				<path class="st19" d="M97.3,87.2v-9.8l-1.8,1v-1.1l4.5-2.6v1.1l-1.8,1v9.8L97.3,87.2z"/>
			</g>
		</g>
		
			<linearGradient id="SVGID_11_" gradientUnits="userSpaceOnUse" x1="-25.4162" y1="188.8643" x2="-21.6053" y2="100.1242" gradientTransform="matrix(0.9659 -0.2588 -0.2588 -0.9659 132.2242 217.4246)">
			<stop  offset="0" style="stop-color:#FFF3CA"/>
			<stop  offset="1" style="stop-color:#F8B5BA"/>
		</linearGradient>
		<polygon class="st20" points="105.6,85.7 44.8,120.8 44.8,101.6 105.6,66.5 		"/>
	</g>
	<g>
		<g>
			<g>
				<path class="st19" d="M109.4,42.7c0.2-0.1,0.4-0.2,0.5-0.3c0.7-0.4,1.1-1.1,1.1-2.2v-8.3l1-0.6v8.2c0,2-0.9,3.2-2,3.9
					c-0.2,0.1-0.4,0.3-0.7,0.4V42.7z"/>
				<path class="st19" d="M114.2,38.8l-0.4,2.4l-1,0.6l1.8-12l1.5-0.9l1.8,9.9l-1.1,0.6l-0.4-2L114.2,38.8z M114.3,37.7l2.1-1.2
					l-1.1-5.7L114.3,37.7z"/>
				<path class="st19" d="M119.3,27.1l1.5,8.6l1.5-10.4l1-0.6l-1.8,12l-1.6,0.9l-1.8-9.9L119.3,27.1z"/>
				<path class="st19" d="M124.9,32.6l-0.4,2.4l-1,0.6l1.8-12l1.5-0.9l1.8,9.9l-1.1,0.6l-0.4-2L124.9,32.6z M125,31.5l2.1-1.2
					l-1.1-5.7L125,31.5z"/>
			</g>
		</g>
		
			<linearGradient id="SVGID_12_" gradientUnits="userSpaceOnUse" x1="32.8761" y1="240.0435" x2="36.6871" y2="151.2997" gradientTransform="matrix(0.9659 -0.2588 -0.2588 -0.9659 132.2242 217.4246)">
			<stop  offset="0" style="stop-color:#FFF3CA"/>
			<stop  offset="1" style="stop-color:#F8B5BA"/>
		</linearGradient>
		<polygon class="st21" points="135.8,13.3 102.8,32.3 102.8,51.6 135.8,32.5 		"/>
	</g>
	<g>
		<g>
			<g>
				<path class="st19" d="M64.9,62.6v1l-1,0.6v-1c0-1-0.3-1.4-1.1-0.9c-0.8,0.4-1.1,1.2-1.1,2.2v5.8c0,1,0.3,1.4,1.1,0.9
					c0.8-0.4,1.1-1.2,1.1-2.2v-1.4l1-0.6v1.4c0,1.7-0.7,3.2-2.1,4c-1.5,0.8-2.1,0.1-2.1-1.5v-5.7c0-1.7,0.7-3.1,2.1-4
					C64.2,60.3,64.9,61,64.9,62.6z"/>
				<path class="st19" d="M68.3,63.9v2.2l-0.8,0.4v-2.2l-1.9,1.1v-0.9l1.9-1.1v-2.2l0.8-0.4V63l1.9-1.1v0.9L68.3,63.9z"/>
				<path class="st19" d="M73.6,60.8V63l-0.8,0.4v-2.2L71,62.4v-0.9l1.9-1.1v-2.2l0.8-0.4V60l1.9-1.1v0.9L73.6,60.8z"/>
			</g>
		</g>
		
			<linearGradient id="SVGID_13_" gradientUnits="userSpaceOnUse" x1="-24.3908" y1="223.066" x2="-20.5799" y2="134.3252" gradientTransform="matrix(0.9659 -0.2588 -0.2588 -0.9659 132.2242 217.4246)">
			<stop  offset="0" style="stop-color:#FFF3CA"/>
			<stop  offset="1" style="stop-color:#F8B5BA"/>
		</linearGradient>
		<polygon class="st22" points="84.8,44.5 51.9,63.6 51.9,82.8 84.8,63.8 		"/>
	</g>
	<g>
		<g class="st23">
			<g class="st9">
				<g>
					<path class="st24" d="M354.4,157.4c1,0.6,1.5,1.4,1.5,2.1c0,0.5-0.3,1.1-0.8,1.5c-0.2,0.2-0.4,0.3-0.7,0.5
						c-2,1.1-5.1,1.1-7.1,0c-2-1.1-2-3,0-4.1c0.7-0.4,1.5-0.7,2.4-0.8c0.9-0.1,1.9-0.1,2.8,0.1C353.1,156.9,353.8,157.1,354.4,157.4
						z"/>
				</g>
			</g>
			<g>
				<path class="st24" d="M278.4,85.2c2,1.1,2,3,0,4.1c-0.6,0.3-1.3,0.6-2.1,0.7c-0.9,0.2-1.8,0.2-2.7,0c-0.8-0.1-1.6-0.4-2.3-0.8
					c-0.9-0.5-1.4-1.2-1.5-1.9c0-0.5,0.1-1.1,0.6-1.6c0.2-0.2,0.5-0.5,0.9-0.7C273.2,84.1,276.4,84,278.4,85.2z"/>
			</g>
			<g>
				<path class="st24" d="M278.7,98.9c1,0.6,1.5,1.3,1.5,2c0,0.5-0.2,1.1-0.7,1.5c-0.2,0.2-0.5,0.4-0.8,0.6c-2,1.1-5.2,1.1-7.1,0
					c-2-1.1-2-3,0-4.1c0.6-0.3,1.3-0.6,2.1-0.7c0.9-0.2,1.8-0.2,2.7,0C277.2,98.2,278,98.5,278.7,98.9z"/>
			</g>
			<g>
				<path class="st24" d="M273.6,90.1c0.9,0.1,1.8,0.1,2.7,0l0.1,8.1c-0.9-0.1-1.8-0.1-2.7,0L273.6,90.1z"/>
			</g>
			<g>
				<path class="st24" d="M351.5,104.8c2,1.2,2,3,0,4.1c-1.1,0.6-2.6,0.9-4,0.8c-0.9-0.1-1.8-0.2-2.6-0.6c-0.2-0.1-0.4-0.2-0.6-0.3
					c-1.1-0.6-1.6-1.5-1.5-2.3c0.1-0.5,0.4-1.1,1-1.5c0.1-0.1,0.3-0.2,0.5-0.3C346.3,103.7,349.5,103.7,351.5,104.8z"/>
			</g>
		</g>
		<g>
			<g>
				<path class="st25" d="M351.5,104.9c2,1.2,2,3,0,4.1c-2,1.1-5.1,1.2-7.1,0c-2-1.1-2-3,0-4.1C346.3,103.7,349.5,103.7,351.5,104.9
					z"/>
			</g>
			<g class="st26">
				<path class="st27" d="M351.5,99.8c2,1.2,2,3,0,4.1c-2,1.1-5.1,1.2-7.1,0c-2-1.1-2-3,0-4.1C346.3,98.6,349.5,98.6,351.5,99.8z"/>
			</g>
			<g class="st28">
				<path class="st29" d="M351.5,94.7c2,1.2,2,3,0,4.1c-2,1.1-5.1,1.2-7.1,0c-2-1.1-2-3,0-4.1C346.3,93.6,349.5,93.6,351.5,94.7z"/>
			</g>
			<g class="st30">
				<path class="st31" d="M351.5,89.6c2,1.2,2,3,0,4.1c-2,1.1-5.1,1.2-7.1,0c-2-1.1-2-3,0-4.1C346.3,88.5,349.5,88.5,351.5,89.6z"/>
			</g>
			<g class="st32">
				<path class="st33" d="M351.5,84.5c2,1.2,2,3,0,4.1c-2,1.1-5.1,1.2-7.1,0c-2-1.1-2-3,0-4.1C346.3,83.4,349.5,83.4,351.5,84.5z"/>
			</g>
			<g class="st34">
				<path class="st35" d="M351.5,79.4c2,1.2,2,3,0,4.1c-2,1.1-5.1,1.2-7.1,0c-2-1.1-2-3,0-4.1C346.3,78.3,349.5,78.3,351.5,79.4z"/>
			</g>
			<g class="st36">
				<path class="st37" d="M351.5,74.4c2,1.2,2,3,0,4.1c-2,1.1-5.1,1.2-7.1,0c-2-1.1-2-3,0-4.1C346.3,73.2,349.5,73.2,351.5,74.4z"/>
			</g>
			<g class="st38">
				<path class="st24" d="M351.5,69.3c2,1.2,2,3,0,4.1c-2,1.1-5.1,1.2-7.1,0c-2-1.1-2-3,0-4.1C346.3,68.2,349.5,68.2,351.5,69.3z"/>
			</g>
		</g>
		<g>
			<g class="st39">
				<path class="st24" d="M354.4,157.4c2,1.1,2,3,0,4.1c-2,1.1-5.1,1.1-7.1,0c-2-1.1-2-3,0-4.1S352.4,156.3,354.4,157.4z"/>
			</g>
			<g class="st40">
				<path class="st24" d="M354.4,152.3c2,1.1,2,3,0,4.1c-2,1.1-5.1,1.1-7.1,0c-2-1.1-2-3,0-4.1S352.4,151.2,354.4,152.3z"/>
			</g>
			<g class="st32">
				<path class="st24" d="M354.4,147.3c2,1.1,2,3,0,4.1c-2,1.1-5.1,1.1-7.1,0c-2-1.1-2-3,0-4.1S352.4,146.1,354.4,147.3z"/>
			</g>
			<g class="st41">
				<path class="st24" d="M354.4,142.2c2,1.1,2,3,0,4.1c-2,1.1-5.1,1.1-7.1,0c-2-1.1-2-3,0-4.1C349.2,141,352.4,141,354.4,142.2z"/>
			</g>
			<g class="st42">
				<path class="st24" d="M354.4,137.1c2,1.1,2,3,0,4.1c-2,1.1-5.1,1.1-7.1,0c-2-1.1-2-3,0-4.1C349.2,136,352.4,136,354.4,137.1z"/>
			</g>
			<g class="st43">
				<path class="st24" d="M354.4,132c2,1.1,2,3,0,4.1c-2,1.1-5.1,1.1-7.1,0c-2-1.1-2-3,0-4.1S352.4,130.9,354.4,132z"/>
			</g>
			<g class="st44">
				<path class="st24" d="M354.4,126.9c2,1.2,2,3,0,4.1c-2,1.1-5.1,1.1-7.1,0c-2-1.1-2-3,0-4.1C349.2,125.8,352.4,125.8,354.4,126.9
					z"/>
			</g>
			<g class="st38">
				<path class="st24" d="M354.4,121.8c2,1.2,2,3,0,4.1c-2,1.1-5.1,1.2-7.1,0c-2-1.1-2-3,0-4.1S352.4,120.7,354.4,121.8z"/>
			</g>
		</g>
		<g>
			<g class="st39">
				<path class="st24" d="M278.7,98.8c2,1.2,2,3,0,4.1c-2,1.1-5.1,1.2-7.1,0c-2-1.1-2-3,0-4.1C273.5,97.7,276.7,97.7,278.7,98.8z"/>
			</g>
			<g class="st40">
				<path class="st24" d="M278.7,93.7c2,1.2,2,3,0,4.1c-2,1.1-5.1,1.2-7.1,0c-2-1.1-2-3,0-4.1C273.5,92.6,276.7,92.6,278.7,93.7z"/>
			</g>
			<g class="st32">
				<path class="st24" d="M278.7,88.6c2,1.2,2,3,0,4.1c-2,1.1-5.1,1.2-7.1,0c-2-1.1-2-3,0-4.1C273.5,87.5,276.7,87.5,278.7,88.6z"/>
			</g>
			<g class="st41">
				<path class="st24" d="M278.7,83.6c2,1.2,2,3,0,4.1c-2,1.1-5.1,1.2-7.1,0c-2-1.1-2-3,0-4.1C273.5,82.4,276.7,82.4,278.7,83.6z"/>
			</g>
			<g class="st42">
				<path class="st24" d="M278.7,78.5c2,1.2,2,3,0,4.1c-2,1.1-5.1,1.2-7.1,0c-2-1.1-2-3,0-4.1C273.5,77.3,276.7,77.3,278.7,78.5z"/>
			</g>
			<g class="st43">
				<path class="st24" d="M278.7,73.4c2,1.2,2,3,0,4.1c-2,1.1-5.1,1.2-7.1,0c-2-1.1-2-3,0-4.1C273.5,72.2,276.7,72.2,278.7,73.4z"/>
			</g>
			<g class="st44">
				<path class="st24" d="M278.7,68.3c2,1.2,2,3,0,4.1c-2,1.1-5.1,1.2-7.1,0c-2-1.1-2-3,0-4.1C273.5,67.2,276.7,67.2,278.7,68.3z"/>
			</g>
			<g class="st38">
				<path class="st24" d="M278.7,63.2c2,1.2,2,3,0,4.1c-2,1.1-5.1,1.2-7.1,0c-2-1.1-2-3,0-4.1C273.5,62.1,276.7,62.1,278.7,63.2z"/>
			</g>
		</g>
	</g>
	<g>
		<path class="st1" d="M136,245.8c0,0,0.4,4.5,2.3,6.9c1.9,2.4,10.8,8.1,10.2,10.5c-0.7,2.4-7.1,2.6-11.1-1.6
			c-4-4.1-5.1-4.8-6.8-5.2c-1.7-0.4-4.1-2.6-2.3-6.3C128.3,250.1,133.8,248.6,136,245.8z"/>
		<path class="st1" d="M124.6,254c0,0,0.7,4.7,2.8,7.1c2.2,2.4,11.9,7.7,11.4,10.3c-0.6,2.6-7.3,3.2-11.8-0.9
			c-4.5-4.1-5.6-4.7-7.4-5s-4.5-2.5-2.8-6.5C116.7,259.1,122.4,257.2,124.6,254z"/>
		<path class="st45" d="M101,187c0,0,32.2,18.1,34.2,23.8c2.8,8.2,2.3,13.7,0.9,34l0.1,4.8c0,0-4.1,3.4-8.7,1.1
			c-1.4-0.7,0-14.1-2.2-21.5c0,0-0.7-8.8,0-11.1c0,0-26-9-32.1-14.6C87.2,197.8,101,187,101,187z"/>
		<path class="st46" d="M73.6,192.7c0,0-5.1,11.6,8.5,18.6c14.5,7.5,29.8,16.5,29.8,16.5s-0.4,9.1,0.7,14.7
			c1.5,7.5,3.8,17.2,3.8,17.2s6.2,2.5,9.7-0.9c0,0,0.3-35.9-3.9-40c-4.2-4.1-25.3-20.1-25.3-20.1L101,187L73.6,192.7z"/>
		<path class="st45" d="M82.1,211.4c14.5,7.5,29.8,16.5,29.8,16.5s-0.4,9.1,0.7,14.7c1.5,7.5,2.6,16.9,2.6,16.9s2.3,0.7,3.8,0.8
			c-2.2-9.6-3.1-31.1-4.1-35.1c-1.2-4.9-16.5-10.1-27.4-15.9c-10.8-5.7-11.3-17.1-11.3-17.2l-2.7,0.6
			C73.6,192.7,68.5,204.3,82.1,211.4z"/>
		<path class="st46" d="M137.3,244.1c1.4-20.3,0.8-25.1-2-33.3C133.3,205.1,101,187,101,187s-1.8,1.4-3.8,3.4
			c8.7,4.3,29.5,15.1,33.4,22.4c4.5,8.4,1.1,31.7,1.6,38.4c2-0.2,4.7-1.2,4.7-1.2L137.3,244.1z"/>
		<path class="st47" d="M115.5,180c0,0,4.5-0.8,6.5,0.9c1.9,1.6,3.5,2.1,4.3,3.9c0.8,1.7-0.2,2.6-1.7,2.5c-1.5-0.1-4-0.9-6.3-2.3
			c-2.3-1.4-2.6-1.1-3.4-1.2C114.2,183.6,113.3,181.4,115.5,180z"/>
		<path class="st48" d="M95.7,145c2.2-0.3,5.8,1,5.6,6.9c-0.1,5.9-0.7,22.3-0.7,22.3s15.2,4.5,16.8,5.3c0,0-3.1,1.4-2.3,4.6
			c0,0-17.5,0.4-20.7-3.9C91.3,175.9,86.7,146,95.7,145z"/>
		<path class="st49" d="M70,156.7c0,0,5.3-9.1,26.2-12.1c0,0,3.3-1.4,3,9.4c-0.1,1.6,1.6,4.2,2.7,5.6c1.1,1.4,4,6.8-2.4,13.3
			c0,0-2.5,9.6,0.5,15.9c2.6,5.6-11.1,11-22.8,9.9c-1.4-0.1-4.6-1.1-3.4-6.1c1.3-5,4.2-13.8,1.9-23.1
			C73.3,160.3,68.4,161.4,70,156.7z"/>
		<path class="st48" d="M70,156.7c-1.6,4.7,3.3,3.6,5.7,12.9c2.3,9.3-0.6,18-1.9,23.1c-1.3,5,1.9,6,3.4,6.1c1.9,0.2,3.9,0.2,5.9,0.1
			c-4.1-9,1.2-25.3,1.4-34.3c0.3-9.5-8.4-13.3-8.4-13.3C71.5,154.1,70,156.7,70,156.7z"/>
		<g>
			<path class="st50" d="M92.4,127.8c0,0-1.4,10.8-2,21.1c-0.1,1.5,1.5,4.1,4.2,3.4c0,0,7.8-12.2,1.6-24.3c-2-3.8-9.1-9.2-17.3-3.6
				L92.4,127.8z"/>
			<g>
				<path class="st51" d="M94.6,142c0,0-3.8,4.4-2,9.1c0.5,1.3,1.6,6.6-6.4,4.4c0,0-8.3-4.3-5.8-6.8c1.7-1.7,3.3-4.1,0.9-12.7
					L94.6,142z"/>
				<path class="st52" d="M80.4,148.7c-0.3,0.3-0.4,0.6-0.4,0.8c7.7,1.6,13-3.8,13-3.8l-9.9-8.9l0,0c0,0-0.5,0.4-1.3,0.9
					C83.5,144.9,82,147.1,80.4,148.7z"/>
			</g>
			<path class="st53" d="M93.4,126.7c0,0,2.2,0.8,2.2,7.2c0,0.7,1.1,1.6,1.4,3.4c0.3,1.8,0.7,8.9-3.5,9.7c-3,0.5-10.4-1.4-12.9-8.6
				C78.2,131.1,84.4,121.9,93.4,126.7z"/>
			<path class="st54" d="M92.9,129.2c0,0-18.4,6.7-4.6,30.4c0,0-9.6,0.9-13.9-7.3c-2.1-4-1.2-12-0.6-19.6c0,0,2.1-11.8,12-10
				C85.8,122.7,92.3,125.2,92.9,129.2z"/>
			<path class="st50" d="M92.9,129.2c0,0,3.2-0.6,4.8,5.3c0,0-0.5-16.7-16.3-11.7C81.4,122.9,90.8,123.3,92.9,129.2z"/>
			<path class="st53" d="M84.3,139.6c0,0-1.1-3.6-3.2-2.5c-0.7,0.3-1.3,1.1-0.4,2.9c1,1.9,3,3.5,4.6,3.3L84.3,139.6z"/>
		</g>
		<g>
			<g>
				<g class="st9">
					<g>
						<polygon class="st55" points="91.7,198.9 91.6,199.8 105.6,209.9 105.7,208.9 						"/>
					</g>
					<g>
						<polygon class="st56" points="105.7,208.9 105.6,209.9 131.9,197.8 132,196.8 						"/>
					</g>
					<g>
						<polygon class="st57" points="91.7,198.9 105.7,208.9 132,196.8 117.9,186.8 						"/>
					</g>
				</g>
			</g>
			<g>
				<g class="st9">
					<g>
						<polygon class="st58" points="109.9,192.2 108.9,191.2 104.5,208.8 105.6,209.8 						"/>
					</g>
					<g>
						<polygon class="st59" points="137.4,179.6 136.4,178.6 108.9,191.2 109.9,192.2 						"/>
					</g>
					<g>
						<polygon class="st60" points="109.9,192.2 105.6,209.8 133,197.2 137.4,179.6 						"/>
					</g>
					<g>
						<polygon class="st19" points="109.9,192.2 109.9,192.2 133,197.2 137.4,179.6 						"/>
					</g>
				</g>
			</g>
		</g>
		<g>
			<path class="st47" d="M93.9,188.6c0,0,4.6,0.6,5.9,2.7c1.4,2.1,3.3,4.4,3.7,6.3c0.3,1.9-0.1,2.5-1.5,2c-1.4-0.5-5-3.4-6.8-5.4
				c-1.8-2-2.2-1.8-2.9-2.1C91.7,191.7,91.4,189.3,93.9,188.6z"/>
			<path class="st52" d="M92.3,192c0.7,0.3,1.1,0.1,2.9,2.1c1.8,2,5.4,4.9,6.8,5.4c0.2,0.1,0.4,0.1,0.5,0.1c-1-1.3-2.7-3.6-4.3-5.5
				c-2-2.4-5.2-3.6-6.3-3.9C91.8,191.1,92,191.9,92.3,192z"/>
			<path class="st48" d="M72.2,154.3c2.2-0.3,5.8,0.9,5.8,6.8s-0.3,22.3-0.3,22.3s15.3,4.2,17,5c0,0-3,0.9-2.2,4
				c0,0-17.6,1.2-20.8-2.9C68.3,185.3,63.2,155.5,72.2,154.3z"/>
			<path class="st49" d="M94.6,188.3c-1.7-0.8-17-5-17-5s0.3-16.4,0.3-22.3c0-5.9-3.6-7.1-5.8-6.8c-0.6,0.1-1.1,0.3-1.6,0.6
				l-0.2,0.2c0,0,5,2.8,4.7,13.5c-0.4,10.7-5,16.6,3.8,18.4c5.2,1.1,10.4,2.2,13.8,2.9C93.3,188.7,94.6,188.3,94.6,188.3z"/>
		</g>
	</g>
	<g>
		<g class="st23">
			<g class="st38">
				<g>
					<path class="st61" d="M14.7,150.9l-6.3,3.7c-0.4,0.2-0.9,0.2-1.3,0l-6.4-3.7c-0.9-0.5-0.9-1.7,0-2.2l6.3-3.7
						c0.4-0.2,0.9-0.2,1.3,0l6.4,3.7C15.5,149.1,15.5,150.4,14.7,150.9z"/>
				</g>
			</g>
			<g class="st36">
				<g>
					<path class="st61" d="M14.7,145.4l-6.3,3.7c-0.4,0.2-0.9,0.2-1.3,0l-6.4-3.7c-0.9-0.5-0.9-1.7,0-2.2l6.3-3.7
						c0.4-0.2,0.9-0.2,1.3,0l6.4,3.7C15.5,143.6,15.5,144.9,14.7,145.4z"/>
				</g>
			</g>
			<g class="st34">
				<g>
					<path class="st61" d="M14.7,139.9l-6.3,3.7c-0.4,0.2-0.9,0.2-1.3,0l-6.4-3.7c-0.9-0.5-0.9-1.7,0-2.2l6.3-3.7
						c0.4-0.2,0.9-0.2,1.3,0l6.4,3.7C15.5,138.1,15.5,139.4,14.7,139.9z"/>
				</g>
			</g>
			<g class="st32">
				<g>
					<path class="st61" d="M14.7,134.4l-6.3,3.7c-0.4,0.2-0.9,0.2-1.3,0l-6.4-3.7c-0.9-0.5-0.9-1.7,0-2.2l6.3-3.7
						c0.4-0.2,0.9-0.2,1.3,0l6.4,3.7C15.5,132.6,15.5,133.9,14.7,134.4z"/>
				</g>
			</g>
			<g class="st30">
				<g>
					<path class="st61" d="M14.7,128.9l-6.3,3.7c-0.4,0.2-0.9,0.2-1.3,0l-6.4-3.7c-0.9-0.5-0.9-1.7,0-2.2l6.3-3.7
						c0.4-0.2,0.9-0.2,1.3,0l6.4,3.7C15.5,127.1,15.5,128.4,14.7,128.9z"/>
				</g>
			</g>
			<g class="st28">
				<g>
					<path class="st61" d="M14.7,123.4l-6.3,3.7c-0.4,0.2-0.9,0.2-1.3,0l-6.4-3.7c-0.9-0.5-0.9-1.7,0-2.2l6.3-3.7
						c0.4-0.2,0.9-0.2,1.3,0l6.4,3.7C15.5,121.6,15.5,122.9,14.7,123.4z"/>
				</g>
			</g>
			<g class="st26">
				<g>
					<path class="st61" d="M14.7,117.9l-6.3,3.7c-0.4,0.2-0.9,0.2-1.3,0l-6.4-3.7c-0.9-0.5-0.9-1.7,0-2.2l6.3-3.7
						c0.4-0.2,0.9-0.2,1.3,0l6.4,3.7C15.5,116.1,15.5,117.4,14.7,117.9z"/>
				</g>
			</g>
			<g>
				<g>
					<path class="st61" d="M14.7,112.3L8.3,116c-0.4,0.2-0.9,0.2-1.3,0l-6.4-3.7c-0.9-0.5-0.9-1.7,0-2.2l6.3-3.7
						c0.4-0.2,0.9-0.2,1.3,0l6.4,3.7C15.5,110.6,15.5,111.8,14.7,112.3z"/>
				</g>
			</g>
		</g>
		<g>
			<g>
				<path class="st62" d="M14.7,112.3L8.3,116c-0.4,0.2-0.9,0.2-1.3,0l-6.4-3.7c-0.9-0.5-0.9-1.7,0-2.2l6.3-3.7
					c0.4-0.2,0.9-0.2,1.3,0l6.4,3.7C15.5,110.6,15.5,111.9,14.7,112.3z"/>
			</g>
		</g>
	</g>
	<g>
		<g class="st14">
			<g>
				<g class="st38">
					<g>
						<path class="st63" d="M171.1,60.9l-4.8,2.9c-0.3,0.2-0.7,0.2-1,0l-4.9-2.8c-0.7-0.4-0.7-1.3,0-1.7l4.8-2.9
							c0.3-0.2,0.7-0.2,1,0l4.9,2.8C171.8,59.6,171.8,60.5,171.1,60.9z"/>
					</g>
				</g>
				<g class="st36">
					<g>
						<path class="st64" d="M171,52.9l-4.8,2.9c-0.3,0.2-0.7,0.2-1,0l-4.9-2.8c-0.7-0.4-0.7-1.3,0-1.7l4.8-2.9c0.3-0.2,0.7-0.2,1,0
							l4.9,2.8C171.6,51.5,171.7,52.5,171,52.9z"/>
					</g>
				</g>
				<g class="st34">
					<g>
						<path class="st65" d="M170.9,44.8l-4.8,2.9c-0.3,0.2-0.7,0.2-1,0l-4.9-2.8c-0.7-0.4-0.7-1.3,0-1.7l4.8-2.9
							c0.3-0.2,0.7-0.2,1,0l4.9,2.8C171.6,43.5,171.6,44.5,170.9,44.8z"/>
					</g>
				</g>
				<g class="st32">
					<g>
						<path class="st66" d="M170.8,36.8l-4.8,2.9c-0.3,0.2-0.7,0.2-1,0l-4.9-2.8c-0.7-0.4-0.7-1.3,0-1.7l4.8-2.9
							c0.3-0.2,0.7-0.2,1,0l4.9,2.8C171.5,35.5,171.5,36.4,170.8,36.8z"/>
					</g>
				</g>
				<g class="st30">
					<g>
						<path class="st67" d="M170.7,28.7l-4.8,2.9c-0.3,0.2-0.7,0.2-1,0l-4.9-2.8c-0.7-0.4-0.7-1.3,0-1.7l4.8-2.9
							c0.3-0.2,0.7-0.2,1,0l4.9,2.8C171.4,27.4,171.4,28.4,170.7,28.7z"/>
					</g>
				</g>
				<g class="st28">
					<g>
						<path class="st68" d="M170.6,20.7l-4.8,2.9c-0.3,0.2-0.7,0.2-1,0l-4.9-2.8c-0.7-0.4-0.7-1.3,0-1.7l4.8-2.9
							c0.3-0.2,0.7-0.2,1,0l4.9,2.8C171.3,19.4,171.3,20.3,170.6,20.7z"/>
					</g>
				</g>
				<g class="st26">
					<g>
						<path class="st69" d="M170.5,12.6l-4.8,2.9c-0.3,0.2-0.7,0.2-1,0l-4.9-2.8c-0.7-0.4-0.7-1.3,0-1.7l4.8-2.9
							c0.3-0.2,0.7-0.2,1,0l4.9,2.8C171.2,11.3,171.2,12.3,170.5,12.6z"/>
					</g>
				</g>
				<g>
					<g>
						<path class="st70" d="M170.4,4.6l-4.8,2.9c-0.3,0.2-0.7,0.2-1,0l-4.9-2.8c-0.7-0.4-0.7-1.3,0-1.7l4.8-2.9c0.3-0.2,0.7-0.2,1,0
							l4.9,2.8C171.1,3.3,171.1,4.2,170.4,4.6z"/>
					</g>
				</g>
			</g>
		</g>
		<g class="st71">
			<g>
				<path class="st72" d="M170.4,4.6l-4.8,2.9c-0.3,0.2-0.7,0.2-1,0l-4.9-2.8c-0.7-0.4-0.7-1.3,0-1.7l4.8-2.9c0.3-0.2,0.7-0.2,1,0
					l4.9,2.8C171.1,3.3,171.1,4.2,170.4,4.6z"/>
			</g>
		</g>
	</g>
	<g>
		<g class="st23">
			<g class="st38">
				<g>
					<path class="st73" d="M311.7,77.4l-7.1,4.2c-0.5,0.3-1,0.3-1.5,0l-7.2-4.2c-1-0.6-1-2,0-2.5l7.1-4.2c0.5-0.3,1-0.3,1.5,0
						l7.2,4.2C312.6,75.4,312.6,76.8,311.7,77.4z"/>
				</g>
			</g>
			<g class="st36">
				<g>
					<path class="st73" d="M311.7,69l-7.1,4.2c-0.5,0.3-1,0.3-1.5,0l-7.2-4.2c-1-0.6-1-2,0-2.5l7.1-4.2c0.5-0.3,1-0.3,1.5,0l7.2,4.2
						C312.6,67,312.6,68.4,311.7,69z"/>
				</g>
			</g>
			<g class="st34">
				<g>
					<path class="st73" d="M311.7,60.6l-7.1,4.2c-0.5,0.3-1,0.3-1.5,0l-7.2-4.2c-1-0.6-1-2,0-2.5l7.1-4.2c0.5-0.3,1-0.3,1.5,0
						l7.2,4.2C312.6,58.6,312.6,60,311.7,60.6z"/>
				</g>
			</g>
			<g class="st32">
				<g>
					<path class="st73" d="M311.7,52.2l-7.1,4.2c-0.5,0.3-1,0.3-1.5,0l-7.2-4.2c-1-0.6-1-2,0-2.5l7.1-4.2c0.5-0.3,1-0.3,1.5,0
						l7.2,4.2C312.6,50.2,312.6,51.6,311.7,52.2z"/>
				</g>
			</g>
			<g class="st30">
				<g>
					<path class="st73" d="M311.7,43.8l-7.1,4.2c-0.5,0.3-1,0.3-1.5,0l-7.2-4.2c-1-0.6-1-2,0-2.5l7.1-4.2c0.5-0.3,1-0.3,1.5,0
						l7.2,4.2C312.6,41.8,312.6,43.2,311.7,43.8z"/>
				</g>
			</g>
			<g class="st28">
				<g>
					<path class="st73" d="M311.7,35.3l-7.1,4.2c-0.5,0.3-1,0.3-1.5,0l-7.2-4.2c-1-0.6-1-2,0-2.5l7.1-4.2c0.5-0.3,1-0.3,1.5,0
						l7.2,4.2C312.6,33.4,312.6,34.8,311.7,35.3z"/>
				</g>
			</g>
			<g class="st26">
				<g>
					<path class="st73" d="M311.7,26.9l-7.1,4.1c-0.5,0.3-1,0.3-1.5,0l-7.2-4.2c-1-0.6-1-2,0-2.5l7.1-4.2c0.5-0.3,1-0.3,1.5,0
						l7.2,4.2C312.6,25,312.6,26.4,311.7,26.9z"/>
				</g>
			</g>
			<g>
				<g>
					<path class="st73" d="M311.7,18.5l-7.1,4.1c-0.5,0.3-1,0.3-1.5,0l-7.2-4.2c-1-0.6-1-2,0-2.5l7.1-4.2c0.5-0.3,1-0.3,1.5,0
						l7.2,4.2C312.6,16.6,312.6,18,311.7,18.5z"/>
				</g>
			</g>
		</g>
		<g>
			<g>
				<path class="st73" d="M311.7,18.5l-7.1,4.1c-0.5,0.3-1,0.3-1.5,0l-7.2-4.2c-1-0.6-1-2,0-2.5l7.1-4.2c0.5-0.3,1-0.3,1.5,0
					l7.2,4.2C312.6,16.6,312.6,18,311.7,18.5z"/>
			</g>
		</g>
	</g>
</g>
</svg>
