<svg id="Layer_1" data-name="Layer 1" xmlns="http://www.w3.org/2000/svg" xmlns:xlink="http://www.w3.org/1999/xlink" viewBox="0 0 79.31 148.58"><defs><linearGradient id="linear-gradient" x1="-575.12" y1="-558.91" x2="-555.69" y2="-558.91" gradientTransform="translate(-537.59 -452.11) rotate(180)" gradientUnits="userSpaceOnUse"><stop offset="0" stop-color="#5facdf"/><stop offset="1" stop-color="#577ec0"/></linearGradient><linearGradient id="linear-gradient-2" x1="-1683.1" y1="-469.9" x2="-1661.98" y2="-469.9" gradientTransform="translate(-1603.47 -452.11) rotate(180)" gradientUnits="userSpaceOnUse"><stop offset="0" stop-color="#ffd55d"/><stop offset="1" stop-color="#f9a920"/></linearGradient><linearGradient id="linear-gradient-3" x1="-1683.1" y1="-473.45" x2="-1661.98" y2="-473.45" xlink:href="#linear-gradient-2"/><linearGradient id="linear-gradient-4" x1="-1414.52" y1="-583.53" x2="-1406.57" y2="-583.53" gradientTransform="translate(-1393.39 -452.11) rotate(180)" gradientUnits="userSpaceOnUse"><stop offset="0" stop-color="#f15f60"/><stop offset="1" stop-color="#c7302f"/></linearGradient></defs><path d="M.3,145.5a2.65,2.65,0,0,0,1.3,2.3L15.1,155a2.38,2.38,0,0,0,1.2.3,2.66,2.66,0,0,0,1.2-.3L31,147.4a2.68,2.68,0,0,0,0-4.6l-13.5-7.4a3.08,3.08,0,0,0-1.3-.3,2.66,2.66,0,0,0-1.2.3L1.5,143.1A2.35,2.35,0,0,0,.3,145.5Z" transform="translate(-0.29 -6.73)" fill="#fff"/><path d="M16.6,135.2h-.4a2.66,2.66,0,0,0-1.2.3L1.7,143.1a2.7,2.7,0,0,0-1.3,2.2,1.94,1.94,0,0,0,.5,1.6c.2.2.4.5.7.6L15,154.7a2.38,2.38,0,0,0,1.2.3h.4a6.89,6.89,0,0,0,.8-.3l13.4-7.5a2.58,2.58,0,0,0,1.4-2.2,2.77,2.77,0,0,0-.5-1.6,2.7,2.7,0,0,0-.8-.7l-13.4-7.3A2.92,2.92,0,0,0,16.6,135.2Z" transform="translate(-0.29 -6.73)" fill="#f8f7f9"/><path d="M16.6,135.2h-.4a2.45,2.45,0,0,0-1.2.4L1.9,143.1a2.79,2.79,0,0,0-1.4,2.1,1.84,1.84,0,0,0,.5,1.6,2,2,0,0,0,.7.6l13.2,7.1a2.45,2.45,0,0,0,1.2.4h.4a6.89,6.89,0,0,0,.8-.3l13.3-7.5A2.79,2.79,0,0,0,32,145a2,2,0,0,0-.4-1.5,2.7,2.7,0,0,0-.8-.7l-13.4-7.3A6.89,6.89,0,0,0,16.6,135.2Z" transform="translate(-0.29 -6.73)" fill="#f4f4f4"/><path d="M16.6,135.3h-.4a2.45,2.45,0,0,0-1.2.4L2.1,143.1a3.08,3.08,0,0,0-1.4,2.1,1.84,1.84,0,0,0,.5,1.6,2,2,0,0,0,.7.6l13.1,7a2.45,2.45,0,0,0,1.2.4h.4a1.88,1.88,0,0,0,.8-.2l13.1-7.4a3.08,3.08,0,0,0,1.4-2.1,1.67,1.67,0,0,0-.4-1.5,1.78,1.78,0,0,0-.8-.7l-13.3-7.3A6.89,6.89,0,0,1,16.6,135.3Z" transform="translate(-0.29 -6.73)" fill="#f1f0f0"/><path d="M16.5,135.4h-.4a2.46,2.46,0,0,0-1.1.4L2.2,143.1a3.12,3.12,0,0,0-1.4,2,1.56,1.56,0,0,0,.4,1.6,2,2,0,0,0,.7.6l13,7a2.84,2.84,0,0,0,1.2.4h.4a1.88,1.88,0,0,0,.8-.2l13-7.3c.6-.4,1.5-1.3,1.5-2a1.67,1.67,0,0,0-.4-1.5,2.51,2.51,0,0,0-.8-.7l-13.3-7.2A3,3,0,0,0,16.5,135.4Z" transform="translate(-0.29 -6.73)" fill="#ececed"/><path d="M16.5,135.7h-.4a4.87,4.87,0,0,0-1.1.4L2.4,143.3a3.09,3.09,0,0,0-1.5,1.9,1.44,1.44,0,0,0,.4,1.5,2,2,0,0,0,.7.6l12.9,6.9a2.1,2.1,0,0,0,1.1.4h.4a1.85,1.85,0,0,0,.7-.2L30,147.1c.5-.3,1.5-1.3,1.5-1.9a1.4,1.4,0,0,0-.3-1.5,2.41,2.41,0,0,0-.8-.6l-13.2-7.2A.66.66,0,0,0,16.5,135.7Z" transform="translate(-0.29 -6.73)" fill="#e9e8e9"/><path d="M16.3,136.1c0-.1-.2,0-.3,0a3.58,3.58,0,0,0-1.1.4L2.5,143.6c-.5.3-1.5,1.2-1.5,1.8a1.67,1.67,0,0,0,.4,1.5,4.23,4.23,0,0,0,.7.5l12.7,6.8a3.58,3.58,0,0,0,1.1.4h.4a1.85,1.85,0,0,0,.7-.2l12.8-7.2c.5-.3,1.6-1.3,1.6-1.9a1.4,1.4,0,0,0-.3-1.5,2.41,2.41,0,0,0-.8-.6L17.2,136C16.9,135.8,16.7,135.7,16.3,136.1Z" transform="translate(-0.29 -6.73)" fill="#e6e4e6"/><path d="M16.4,135.7a1,1,0,0,1-.3.1,3.58,3.58,0,0,0-1.1.4l-12.2,7c-.4.3-1.5,1.3-1.5,1.8a1.4,1.4,0,0,0,.3,1.5,4.23,4.23,0,0,0,.7.5l12.6,6.8a4.87,4.87,0,0,0,1.1.4c.1,0,.3.1.4.1a1.85,1.85,0,0,0,.7-.2L29.7,147c.4-.3,1.6-1.3,1.6-1.8a1.27,1.27,0,0,0-.3-1.4,2.41,2.41,0,0,0-.8-.6l-13.1-7.1C16.9,135.9,16.6,135.9,16.4,135.7Z" transform="translate(-0.29 -6.73)" fill="#e1e1e3"/><path d="M16.1,135.8a1,1,0,0,1-.3.1,4.18,4.18,0,0,0-1,.4l-12,6.9c-.4.3-1.6,1.2-1.6,1.7a1.4,1.4,0,0,0,.3,1.5c.1.1.6.4.7.5l12.5,6.7a4.87,4.87,0,0,0,1.1.4c.1,0,.3.1.4.1a.88.88,0,0,0,.7-.1l12.5-7c.4-.2,1.7-1.2,1.7-1.7a1.09,1.09,0,0,0-.2-1.4,2.41,2.41,0,0,0-.8-.6l-13-7.1A5.13,5.13,0,0,0,16.1,135.8Z" transform="translate(-0.29 -6.73)" fill="#dddddf"/><path d="M16,136.2a1,1,0,0,1-.3.1,4.18,4.18,0,0,0-1,.4L2.9,143.5c-.3.2-1.6,1.2-1.6,1.6a1.27,1.27,0,0,0,.3,1.4c.1.1.6.4.7.5l12.4,6.6a4.87,4.87,0,0,0,1.1.4c.1,0,.3.1.4.1a.88.88,0,0,0,.7-.1l12.4-7c.3-.2,1.7-1.2,1.7-1.6a1.09,1.09,0,0,0-.2-1.4c-.1-.1-.7-.5-.8-.6l-13-7.1C16.8,136.1,16.5,136.1,16,136.2Z" transform="translate(-0.29 -6.73)" fill="#dbdadc"/><path d="M16.2,136.4a1,1,0,0,1-.3.1,3,3,0,0,0-1,.4L3.3,143.6c-.3.2-1.6,1.1-1.6,1.5a1.09,1.09,0,0,0,.2,1.4c.1.1.6.4.7.5l12.3,6.6a10.37,10.37,0,0,0,1,.4,1,1,0,0,0,.3.1.88.88,0,0,0,.7-.1l12.2-6.9c.3-.2,1.8-1.2,1.8-1.6a1.08,1.08,0,0,0-.2-1.4c0-.1-.7-.5-.8-.6L17,136.4A.61.61,0,0,0,16.2,136.4Z" transform="translate(-0.29 -6.73)" fill="#d6d7d9"/><path d="M16.4,136.5l-.3.1a3,3,0,0,0-1,.4L3.6,143.6c-.3.1-1.7,1.1-1.7,1.4a1.08,1.08,0,0,0,.2,1.4c0,.1.6.4.7.5l12.1,6.5c.1,0,.9.4,1,.4l.3.1a1.7,1.7,0,0,0,.7-.1L29,147c.2-.1,1.8-1.2,1.8-1.5a1,1,0,0,0-.1-1.4c-.1-.1-.8-.5-.9-.6l-12.9-7C16.7,136.3,16.4,136.3,16.4,136.5Z" transform="translate(-0.29 -6.73)" fill="#d4d3d6"/><path d="M16.1,136.5l-.3.1a3.55,3.55,0,0,0-.9.4L3.6,143.5a7.94,7.94,0,0,0-1.7,1.4,1,1,0,0,0,.1,1.4,4.35,4.35,0,0,0,.7.4l12,6.4a4.67,4.67,0,0,0,1,.5l.3.1a1.7,1.7,0,0,0,.7-.1l12-6.8a7.21,7.21,0,0,0,1.9-1.4.86.86,0,0,0-.1-1.3,4.05,4.05,0,0,1-.9-.5l-12.8-7A.59.59,0,0,0,16.1,136.5Z" transform="translate(-0.29 -6.73)" fill="#d0d1d3"/><path d="M16.1,136.7l-.3.1c-.1,0-.8.5-.9.5L3.8,143.7c-.1.1-1.7,1.1-1.7,1.3a.8.8,0,0,0,.1,1.3,4.35,4.35,0,0,0,.7.4l11.9,6.4a4.67,4.67,0,0,0,1,.5l.3.1a1.7,1.7,0,0,0,.7-.1l11.9-6.7a13.3,13.3,0,0,0,1.9-1.4.86.86,0,0,0-.1-1.3c-.1,0-.8-.5-.9-.5l-12.8-7A.48.48,0,0,0,16.1,136.7Z" transform="translate(-0.29 -6.73)" fill="#cbccd0"/><path d="M16.1,136.7l-.3.1a7.26,7.26,0,0,1-.9.5L4,143.6c-.1.1-1.8,1.1-1.8,1.2a.8.8,0,0,0,.1,1.3l.7.4,11.8,6.3a4.67,4.67,0,0,0,1,.5l.3.1a.85.85,0,0,0,.7,0l11.7-6.6c.1-.1,1.9-1.2,1.9-1.3a.8.8,0,0,0-.1-1.3,7.26,7.26,0,0,1-.9-.5l-12.7-6.9A.66.66,0,0,0,16.1,136.7Z" transform="translate(-0.29 -6.73)" fill="#c9c9cd"/><path d="M16.2,136.9l-.3.1-.9.5L4.3,143.6a17.39,17.39,0,0,0-1.8,1.1.75.75,0,0,0,0,1.3l.7.4,11.6,6.3.9.5.3.1a.85.85,0,0,0,.7,0l11.6-6.5a13.24,13.24,0,0,0,2-1.2.75.75,0,0,0,0-1.3l-.9-.5-12.7-6.9C16.5,136.8,16.2,136.7,16.2,136.9Z" transform="translate(-0.29 -6.73)" fill="#c5c6ca"/><path d="M2.4,144.8a.75.75,0,0,0,0,1.3l13.5,7.2a.85.85,0,0,0,.7,0l13.5-7.6a.75.75,0,0,0,0-1.3L16.6,137a.85.85,0,0,0-.7,0Z" transform="translate(-0.29 -6.73)" fill="#c3c3c7"/><path d="M29.9,146l-12.8,7a2.75,2.75,0,0,1-2.5,0L2.1,146a1,1,0,0,1,0-1.7l12.5-7a2.75,2.75,0,0,1,2.5,0l12.8,7A1,1,0,0,1,29.9,146Z" transform="translate(-0.29 -6.73)" fill="#c4c5d0"/><rect x="1.31" y="136.58" width="28.8" height="1.9" fill="#c4c5d0"/><path d="M29.9,144l-12.8,7a2.75,2.75,0,0,1-2.5,0L2.1,144a1,1,0,0,1,0-1.7l12.5-6.9a2.75,2.75,0,0,1,2.5,0l12.8,7A.87.87,0,0,1,29.9,144Z" transform="translate(-0.29 -6.73)" fill="#fff"/><path d="M2.3,142l4.4-2.4,8.1-4.5a2.75,2.75,0,0,1,2.5,0l12.8,7a1,1,0,0,1,0,1.7l-1,.5-3.6,2-8.3,4.5a2.75,2.75,0,0,1-2.5,0l-7.9-4.4-4.6-2.6C1.5,143.5,1.5,142.5,2.3,142Z" transform="translate(-0.29 -6.73)" fill="#f1eff3"/><path d="M37.9,103.9v15.5a.91.91,0,0,1-1.2.9L18.9,109.7a.55.55,0,0,1-.3-.5L18.1,94a.93.93,0,0,1,1.3-.8l18.2,10.1A.6.6,0,0,1,37.9,103.9Z" transform="translate(-0.29 -6.73)" fill="#c4c5d0"/><path d="M37.5,104v15.7a.55.55,0,0,1-.8.5L18.4,110.1a.55.55,0,0,1-.3-.5V93.9a.55.55,0,0,1,.8-.5l18.3,10.2A.54.54,0,0,1,37.5,104Z" transform="translate(-0.29 -6.73)" fill="url(#linear-gradient)"/><polygon points="26.21 104.47 28.21 105.67 28.21 105.97 26.21 104.78 26.21 104.47" fill="#fff"/><polygon points="28.51 105.88 30.21 106.88 30.21 107.17 28.51 106.17 28.51 105.88" fill="#fff"/><polygon points="26.21 105.17 27.31 105.78 27.31 106.08 26.21 105.47 26.21 105.17" fill="#fff"/><polygon points="28.81 106.67 30.21 107.58 30.21 107.88 28.81 106.97 28.81 106.67" fill="#fff"/><polygon points="27.41 105.88 28.51 106.58 28.51 106.88 27.41 106.17 27.41 105.88" fill="#fff"/><polygon points="26.21 103.88 27.31 104.47 27.31 104.78 26.21 104.17 26.21 103.88" fill="#fff"/><polygon points="28.81 105.38 30.21 106.17 30.21 106.47 28.81 105.67 28.81 105.38" fill="#fff"/><polygon points="27.41 104.58 28.51 105.17 28.51 105.47 27.41 104.88 27.41 104.58" fill="#fff"/><polygon points="20.91 100.88 24.61 103.08 24.61 103.28 20.91 101.17 20.91 100.88" fill="#fff"/><polygon points="20.91 101.58 22.11 102.28 22.11 102.47 20.91 101.78 20.91 101.58" fill="#fff"/><polygon points="22.61 102.47 24.61 103.67 24.61 103.97 22.61 102.78 22.61 102.47" fill="#fff"/><polygon points="20.91 102.17 24.61 104.28 24.61 104.58 20.91 102.47 20.91 102.17" fill="#fff"/><path d="M23.5,105.2c.1,0,.1.1.1.2s0,.1-.1.2-.1.1-.2.1-.1,0-.2-.1l-3.6-4.8v-.3a.22.22,0,0,1,.2-.2l3.6-.7h0a.32.32,0,0,1,.3.3.31.31,0,0,1-.1.2c-.1,0-.1.1-.2.1l-3.1.6Z" transform="translate(-0.29 -6.73)" fill="#fff"/><path d="M34.4,108.9v.3a.22.22,0,0,1-.2.2l-3.6.7h0a.32.32,0,0,1-.3-.3c0-.1,0-.1.1-.2s.1-.1.2-.1l3.1-.6-3.3-4.4c-.1,0-.1-.1-.1-.2s0-.1.1-.2.1-.1.2-.1.1,0,.2.1Z" transform="translate(-0.29 -6.73)" fill="#fff"/><path d="M29.9,103a.38.38,0,0,1-.1.6l-5.1,2.9c-.1.1-.1.1-.2.1a.52.52,0,0,1-.4-.2.38.38,0,0,1,.1-.6l5.1-2.9c.1-.1.1-.1.2-.1S29.8,102.8,29.9,103Z" transform="translate(-0.29 -6.73)" fill="#fff"/><path d="M59.6,21.3l10.2-5.9a1.61,1.61,0,0,1,.9-.3,1.4,1.4,0,0,1,.9.3l7,4.1a2.06,2.06,0,0,1,1,1.7,1.94,1.94,0,0,1-1,1.7L68.4,28.7a1.49,1.49,0,0,1-.9.2,1.61,1.61,0,0,1-.9-.3l-7-4.1a2.06,2.06,0,0,1-1-1.7A1.88,1.88,0,0,1,59.6,21.3Z" transform="translate(-0.29 -6.73)" fill="#fff"/><path d="M69.8,15.5a1.42,1.42,0,0,1,.6-.2h.3a1.4,1.4,0,0,1,.9.3l7,4.1a2.18,2.18,0,0,1,.5.4,1.57,1.57,0,0,1,.4,1.3,2.06,2.06,0,0,1-1,1.7L68.4,28.8a3.18,3.18,0,0,1-.9.3h-.3a1.42,1.42,0,0,1-.6-.2l-7-4a2.65,2.65,0,0,1-.6-.5,1.75,1.75,0,0,1-.4-1.2,1.94,1.94,0,0,1,1-1.7Z" transform="translate(-0.29 -6.73)" fill="#f8f7f9"/><path d="M69.9,15.6a1.42,1.42,0,0,1,.6-.2h.3a1.4,1.4,0,0,1,.9.3l6.9,4.1a2.18,2.18,0,0,1,.5.4,1.48,1.48,0,0,1,.4,1.3,2,2,0,0,1-1.1,1.6l-9.9,5.6a2.39,2.39,0,0,1-.9.3h-.3a1.42,1.42,0,0,1-.6-.2l-6.9-4a1.47,1.47,0,0,1-.6-.5,1.31,1.31,0,0,1-.3-1.2A2,2,0,0,1,60,21.5Z" transform="translate(-0.29 -6.73)" fill="#f4f4f4"/><path d="M69.9,15.7a1.42,1.42,0,0,1,.6-.2h.3a1.4,1.4,0,0,1,.9.3l6.8,4c.1.1.4.3.5.4a1.84,1.84,0,0,1,.4,1.3,2.27,2.27,0,0,1-1.1,1.6l-9.8,5.5a2.39,2.39,0,0,1-.9.3h-.3a1.42,1.42,0,0,1-.6-.2l-6.9-4a1.47,1.47,0,0,1-.6-.5,1.19,1.19,0,0,1-.3-1.1A2.27,2.27,0,0,1,60,21.5Z" transform="translate(-0.29 -6.73)" fill="#f1f0f0"/><path d="M70,15.7a1.42,1.42,0,0,1,.6-.2h.3a2.39,2.39,0,0,1,.9.3l6.7,3.9c.1.1.4.3.5.4a1.75,1.75,0,0,1,.4,1.2,2.3,2.3,0,0,1-1.1,1.5l-9.7,5.4a2.39,2.39,0,0,1-.9.3h-.3a1.42,1.42,0,0,1-.6-.2l-6.9-4a1.47,1.47,0,0,1-.6-.5,1.19,1.19,0,0,1-.3-1.1,2.4,2.4,0,0,1,1.1-1.5Z" transform="translate(-0.29 -6.73)" fill="#ececed"/><path d="M70,15.8a.66.66,0,0,1,.6-.1h.3a3.18,3.18,0,0,1,.9.3l6.6,3.9c.1.1.4.3.5.4a1.31,1.31,0,0,1,.3,1.2c0,.5-.7,1.2-1.1,1.4l-9.5,5.4a2.61,2.61,0,0,1-.8.3h-.3a1.42,1.42,0,0,1-.6-.2l-6.8-3.9a1.47,1.47,0,0,1-.6-.5,1.19,1.19,0,0,1-.3-1.1c0-.5.7-1.2,1.2-1.5Z" transform="translate(-0.29 -6.73)" fill="#e9e8e9"/><path d="M70,15.9a1.27,1.27,0,0,1,.6-.1h.3a1.91,1.91,0,0,1,.8.3L78.3,20c.1.1.4.3.5.4a1.31,1.31,0,0,1,.3,1.2c0,.4-.8,1.2-1.1,1.4l-9.4,5.3a2.61,2.61,0,0,1-.8.3h-.3a1.27,1.27,0,0,1-.6-.1l-6.8-3.9a1.47,1.47,0,0,1-.6-.5.94.94,0,0,1-.2-1.1c0-.4.8-1.2,1.2-1.4Z" transform="translate(-0.29 -6.73)" fill="#e6e4e6"/><path d="M70.1,16a1.27,1.27,0,0,1,.6-.1h.2a1.91,1.91,0,0,1,.8.3L78.2,20c.1.1.4.3.5.4a1.31,1.31,0,0,1,.3,1.2c0,.4-.8,1.1-1.2,1.3l-9.3,5.2a2.61,2.61,0,0,1-.8.3h-.3a1.27,1.27,0,0,1-.6-.1L60,24.4c-.1-.1-.5-.3-.6-.5a.94.94,0,0,1-.2-1.1c0-.4.9-1.2,1.2-1.4Z" transform="translate(-0.29 -6.73)" fill="#e1e1e3"/><path d="M70.1,16.1a1.27,1.27,0,0,1,.6-.1h.2a1.91,1.91,0,0,1,.8.3l6.4,3.8a1.33,1.33,0,0,0,.5.3.94.94,0,0,1,.2,1.1c0,.4-.9,1.1-1.2,1.3l-9.1,5.1a1.91,1.91,0,0,1-.8.3c-.1,0-.2.1-.2,0a1.27,1.27,0,0,1-.6-.1l-6.7-3.9c-.1-.1-.5-.3-.6-.4a.94.94,0,0,1-.2-1.1c0-.4,1-1.1,1.3-1.3Z" transform="translate(-0.29 -6.73)" fill="#dddddf"/><path d="M70.2,16.1a1.27,1.27,0,0,1,.6-.1l.2.1c.1,0,.7.3.8.3l6.3,3.7a1.33,1.33,0,0,0,.5.3.94.94,0,0,1,.2,1.1c0,.3-1,1.1-1.2,1.2l-9,5.1a1.91,1.91,0,0,1-.8.3l-.2.1a1.27,1.27,0,0,1-.6-.1l-6.7-3.9a6.13,6.13,0,0,0-.6-.4.94.94,0,0,1-.2-1.1c0-.3,1-1.1,1.3-1.3Z" transform="translate(-0.29 -6.73)" fill="#dbdadc"/><path d="M70.2,16.2a1.27,1.27,0,0,1,.6-.1l.2.1c.1,0,.7.3.8.3L78,20.2c.1,0,.4.3.5.3a.94.94,0,0,1,.2,1.1c0,.3-1,1-1.3,1.1l-8.8,5a2.12,2.12,0,0,1-.7.3l-.2.1a1.27,1.27,0,0,1-.6-.1l-6.6-3.8a6.13,6.13,0,0,0-.6-.4c-.3-.3-.4-.8-.1-1,0-.3,1.1-1.1,1.3-1.2Z" transform="translate(-0.29 -6.73)" fill="#d6d7d9"/><path d="M70.3,16.3a1.27,1.27,0,0,1,.6-.1l.2.1a3,3,0,0,1,.8.4L78,20.3c.1,0,.4.3.5.3a.79.79,0,0,1,.1,1.1c0,.2-1.1,1-1.3,1.1l-8.7,4.9a2.12,2.12,0,0,1-.7.3l-.2.1a.66.66,0,0,1-.6-.1l-6.6-3.8a3.11,3.11,0,0,1-.6-.4.68.68,0,0,1-.1-1c0-.2,1.2-1,1.4-1.1Z" transform="translate(-0.29 -6.73)" fill="#d4d3d6"/><path d="M70.3,16.4a1.27,1.27,0,0,1,.6-.1l.2.1c.1,0,.7.3.7.4l6.1,3.6c.1,0,.4.3.5.3a.71.71,0,0,1,.1,1.1c0,.2-1.1.9-1.3,1l-8.6,4.8c-.1,0-.6.3-.7.3l-.2.1a.44.44,0,0,1-.5-.1l-6.6-3.8a3.11,3.11,0,0,1-.6-.4.67.67,0,0,1-.1-1c0-.2,1.2-1,1.4-1.1Z" transform="translate(-0.29 -6.73)" fill="#d0d1d3"/><path d="M70.3,16.5a.45.45,0,0,1,.5,0l.2.1c.1,0,.7.3.7.4l6,3.5a2.19,2.19,0,0,0,.5.3.61.61,0,0,1,.1,1,14.7,14.7,0,0,1-1.3,1l-8.4,4.7c-.1,0-.6.3-.7.3l-.2.1a.45.45,0,0,1-.5,0L60.6,24l-.6-.4a.67.67,0,0,1-.1-1,7.1,7.1,0,0,1,1.4-1Z" transform="translate(-0.29 -6.73)" fill="#cbccd0"/><path d="M70.4,16.5a.45.45,0,0,1,.5,0l.2.1.7.4,5.9,3.5a2.19,2.19,0,0,0,.5.3.61.61,0,0,1,.1,1,6.71,6.71,0,0,1-1.4.9l-8.3,4.7a4.35,4.35,0,0,1-.7.4l-.2.1a.45.45,0,0,1-.5,0l-6.5-3.7-.6-.4a.61.61,0,0,1-.1-1c0-.1,1.4-.9,1.5-1Z" transform="translate(-0.29 -6.73)" fill="#c9c9cd"/><path d="M70.4,16.6a.45.45,0,0,1,.5,0l.2.1.7.4,5.8,3.4a2.19,2.19,0,0,0,.5.3.57.57,0,0,1,0,1s-1.3.8-1.4.9l-8.1,4.6a4.35,4.35,0,0,1-.7.4l-.2.1a.45.45,0,0,1-.5,0l-6.4-3.7-.6-.4a.57.57,0,0,1,0-1l1.5-.9Z" transform="translate(-0.29 -6.73)" fill="#c5c6ca"/><path d="M70.5,16.7a.45.45,0,0,1,.5,0l7,4.1a.57.57,0,0,1,0,1L67.8,27.6a.45.45,0,0,1-.5,0l-7-4.1a.57.57,0,0,1,0-1Z" transform="translate(-0.29 -6.73)" fill="#c3c3c7"/><path d="M60.2,13.7l7,4.1a.45.45,0,0,0,.5,0L77.9,12a.54.54,0,0,0,.2-.8.52.52,0,0,1,.2.4v9.6a.67.67,0,0,1-.4.7l-10,5.7a.85.85,0,0,1-.7,0l-7-4a.84.84,0,0,1-.4-.7V13.4a1.42,1.42,0,0,1,.2-.6A.65.65,0,0,0,60.2,13.7Z" transform="translate(-0.29 -6.73)" fill="#c4c5d0"/><path d="M67.6,20.1,78.4,14v1.4L67.6,21.5a.64.64,0,0,1-.6,0l-7.1-4.1V16L67,20.1A.64.64,0,0,0,67.6,20.1Z" transform="translate(-0.29 -6.73)" fill="url(#linear-gradient-2)"/><path d="M67.6,23.7l10.8-6.1V19L67.6,25a.64.64,0,0,1-.6,0l-7.1-4.1V19.5L67,23.6A.47.47,0,0,0,67.6,23.7Z" transform="translate(-0.29 -6.73)" fill="url(#linear-gradient-3)"/><path d="M70.4,6.8a.45.45,0,0,1,.5,0l7,4.1a.57.57,0,0,1,0,1L67.7,17.7a.45.45,0,0,1-.5,0l-7-4.1a.57.57,0,0,1,0-1Z" transform="translate(-0.29 -6.73)" fill="#f1eff3"/><path d="M20.1,119.5c.4,0,1.4.7.9,1a8,8,0,0,1-3.9.8c-1.1,0-1.8-.6-1.7-1.4.1-.4.6-.7,2-.6A15.92,15.92,0,0,0,20.1,119.5Z" transform="translate(-0.29 -6.73)" fill="#f7a8aa"/><path d="M17.3,117.7l.5.8s-.4.1-.1,1l-1.1-.2Z" transform="translate(-0.29 -6.73)" fill="#f7a8aa"/><path d="M22.3,116.5s-.4,3.3-1,3.8a.7.7,0,0,1-1.1-.8,16.68,16.68,0,0,0,1.2-3.1A.61.61,0,0,1,22.3,116.5Z" transform="translate(-0.29 -6.73)" fill="#f7a8aa"/><path d="M22.3,113.6c.1,0-.3.7-.3,1.1s.1.6.2.5.4-.4.5-.4-.1.2-.1.5a6.81,6.81,0,0,1-.3,1.2s-.8,0-.8-.1c0-.6-.5-1.1-.5-1.2a2.51,2.51,0,0,1,.4-.7c.1-.1.2.2.4-.2S22.1,113.6,22.3,113.6Z" transform="translate(-0.29 -6.73)" fill="#f7a8aa"/><path d="M17.6,130.4a8.66,8.66,0,0,1-.3,3.3,59.08,59.08,0,0,0-1.9,6.9c-.2,1.1-1.2.5-1.1,0s-.2-5.1.7-7.2a4.66,4.66,0,0,0-.1-3.1Z" transform="translate(-0.29 -6.73)" fill="#f7a8aa"/><path d="M19.6,131.2a22.3,22.3,0,0,1,.2,4.9,53.68,53.68,0,0,0-.9,6.7c0,1.1-1,.6-1,.1a41.36,41.36,0,0,1-.3-5.7,12.44,12.44,0,0,0-.7-5.4C16.4,130.8,19.6,131.2,19.6,131.2Z" transform="translate(-0.29 -6.73)" fill="#f7a8aa"/><path d="M21,144.8c-.1.3-.3.5-1,.5s-1.4-1-2-1l.2,1h-.4c0-.4-.4-.7-.4-1.2s.4-1.1.4-1.5a5.5,5.5,0,0,0,1.2.1s0,1.2.6,1.6S20.9,144.6,21,144.8Z" transform="translate(-0.29 -6.73)" fill="#5f5786"/><path d="M17.4,142.9c-.1.3-.3.5-1,.5s-1.4-1-2-1l.2,1h-.3c0-.4-.4-.7-.4-1.2s.4-1.1.4-1.5a5.5,5.5,0,0,0,1.2.1s0,1.2.6,1.6S17.4,142.7,17.4,142.9Z" transform="translate(-0.29 -6.73)" fill="#5f5786"/><path d="M18.7,124.6c.4,2.6,2.3,8.6,2.3,13.2,0,0-2.8,1.7-5.3-.1a9.89,9.89,0,0,0-2.6-.9,35.23,35.23,0,0,0,.6-7.4,5.31,5.31,0,0,1,.9-3.4,6.07,6.07,0,0,0,.8-1.7Z" transform="translate(-0.29 -6.73)" fill="url(#linear-gradient-4)"/><path d="M18.8,123.2c-.3.8.3,2.5.4,3.6a4.26,4.26,0,0,1-4.5-.9,8.36,8.36,0,0,0,.5-3.6c0-1.1.3-2.7,1.4-2.9s2.2.2,2.4.9a5.41,5.41,0,0,0,.4,1.5C19.7,122.6,18.9,123,18.8,123.2Z" transform="translate(-0.29 -6.73)" fill="#605e77"/><path d="M18.7,116.7c.1.1.3.7-.2,1.6s-2.5-.7-2-1.6,2-1.8,2.1-.8v.5C18.5,116.6,18.6,116.6,18.7,116.7Z" transform="translate(-0.29 -6.73)" fill="#f7a8aa"/><path d="M18.7,115.6c.1.6-1.5,1-1.1,1.6.7,1-.3,1.2-.3,1.8s-1.1.2-1,1.1c.1,1.1-1.4.3-1.2,1.9s-2.2,1.6-2.2,1.6c.5-.9.1-1.2-.2-1.9s-.9-1.6-.3-2.6c.8-1.2.2-.8.7-2.1s1.4-.2,1.9-1.3c.6-1.3,1-.6,2.1-.9A1.22,1.22,0,0,1,18.7,115.6Z" transform="translate(-0.29 -6.73)" fill="#323647"/><path d="M17.7,116.8a1.15,1.15,0,0,1,0,.6c0,.1-.1.1-.2,0a.61.61,0,0,1-.1-.6C17.5,116.6,17.7,116.8,17.7,116.8Z" transform="translate(-0.29 -6.73)" fill="#f7a8aa"/><path d="M19.6,124.6c.1.3-.7,1.4-1,.9a8.87,8.87,0,0,1-1.4-3.8c-.2-1.2.3-1.9,1.1-1.9.3,0,.7.5.8,1.9A11.88,11.88,0,0,0,19.6,124.6Z" transform="translate(-0.29 -6.73)" fill="#f7a8aa"/><path d="M22.9,129.3c0,.2-.2-.1-.3-.5s-.1.2-.2.3a2.2,2.2,0,0,1-.8.1c-.1.1-.2-.6-.4-.8a3.11,3.11,0,0,0-.4-.6c-.1-.1.4-.6.4-.6a9.25,9.25,0,0,1,1,.3c.2.1.5,0,.4.1a.75.75,0,0,1-.5.1c-.2,0,.3.3.5.6S22.8,129.2,22.9,129.3Z" transform="translate(-0.29 -6.73)" fill="#f7a8aa"/><path d="M20.8,128s-2.5-2.2-2.6-3,1.2-.7,1.4-.4a17.77,17.77,0,0,0,1.7,2.7A.63.63,0,0,1,20.8,128Z" transform="translate(-0.29 -6.73)" fill="#f7a8aa"/></svg>