<svg id="Layer_1" data-name="Layer 1" xmlns="http://www.w3.org/2000/svg" xmlns:xlink="http://www.w3.org/1999/xlink" viewBox="0 0 120.7 158.67"><defs><linearGradient id="linear-gradient" x1="-373.9" y1="1467.39" x2="-355.4" y2="1467.39" gradientTransform="translate(474.8 -1294)" gradientUnits="userSpaceOnUse"><stop offset="0" stop-color="#5eacdf"/><stop offset="1" stop-color="#577ebf"/></linearGradient><linearGradient id="linear-gradient-2" x1="-373.9" y1="1470.99" x2="-355.4" y2="1470.99" xlink:href="#linear-gradient"/><linearGradient id="linear-gradient-3" x1="-2199.41" y1="1368.55" x2="-2126.16" y2="1368.55" gradientTransform="matrix(-1, 0, 0, 1, -2112.3, -1294)" xlink:href="#linear-gradient"/><linearGradient id="linear-gradient-4" x1="-896.12" y1="1366.85" x2="-822.96" y2="1366.85" gradientTransform="matrix(-1, 0, 0, 1, -780.3, -1294)" xlink:href="#linear-gradient"/><linearGradient id="linear-gradient-5" x1="-848.03" y1="1366.3" x2="-842.98" y2="1366.3" gradientTransform="matrix(-1, 0, 0, 1, -780.3, -1320.04)" xlink:href="#linear-gradient"/><linearGradient id="linear-gradient-6" x1="-855.74" y1="1372.2" x2="-848.99" y2="1372.2" gradientTransform="matrix(-1, 0, 0, 1, -780.3, -1294)" gradientUnits="userSpaceOnUse"><stop offset="0" stop-color="#ffd55d"/><stop offset="1" stop-color="#f9a81f"/></linearGradient><linearGradient id="linear-gradient-7" x1="-703.47" y1="1350.48" x2="-703.47" y2="1323.16" gradientTransform="matrix(-0.99, -0.04, 0.13, 1.01, -777.53, -1326.96)" xlink:href="#linear-gradient-6"/><linearGradient id="linear-gradient-8" x1="-684.47" y1="1368.31" x2="-684.23" y2="1368.31" gradientTransform="matrix(-0.99, -0.04, 0.13, 1.01, -777.53, -1326.96)" gradientUnits="userSpaceOnUse"><stop offset="0" stop-color="#d3d8ea"/><stop offset="1" stop-color="#808bc5"/></linearGradient><linearGradient id="linear-gradient-9" x1="-864.89" y1="1380.25" x2="-863.86" y2="1380.25" gradientTransform="matrix(-1, 0, 0, 1, -780.3, -1320.04)" xlink:href="#linear-gradient-6"/><linearGradient id="linear-gradient-10" x1="-684.01" y1="1370.62" x2="-682.96" y2="1370.62" gradientTransform="matrix(-0.99, -0.04, 0.13, 1.01, -777.53, -1352.99)" xlink:href="#linear-gradient-6"/><linearGradient id="linear-gradient-11" x1="-684.88" y1="1366.69" x2="-683.35" y2="1366.69" gradientTransform="matrix(-0.99, -0.04, 0.13, 1.01, -777.53, -1352.99)" xlink:href="#linear-gradient-6"/><linearGradient id="linear-gradient-12" x1="-867.51" y1="1385.45" x2="-860.31" y2="1385.45" xlink:href="#linear-gradient-6"/><linearGradient id="linear-gradient-13" x1="-687.58" y1="1363.68" x2="-685.55" y2="1363.68" gradientTransform="matrix(-0.99, -0.04, 0.13, 1.01, -777.53, -1352.99)" xlink:href="#linear-gradient-6"/><linearGradient id="linear-gradient-14" x1="-1338.31" y1="1404.04" x2="-1331.97" y2="1404.04" gradientTransform="translate(1421.23 -1294)" xlink:href="#linear-gradient"/></defs><path d="M120.7,177a1.94,1.94,0,0,1-1,1.7l-10.1,5.8a2.92,2.92,0,0,1-.9.2,1.61,1.61,0,0,1-.9-.3l-7-4.1a1.94,1.94,0,0,1,0-3.4l10.2-5.8a1.5,1.5,0,0,1,1.8,0l7,4.1A1.91,1.91,0,0,1,120.7,177Z" transform="translate(0 -26.03)" fill="#fff"/><path d="M119.5,175.4a1.47,1.47,0,0,1,.6.5,2,2,0,0,1-.6,2.9l-10.1,5.7a1.42,1.42,0,0,1-.6.2h-.3a3.18,3.18,0,0,1-.9-.3l-6.9-4a1,1,0,0,1-.5-.4,2,2,0,0,1-.4-1.3,1.94,1.94,0,0,1,1-1.7l10.1-5.8a1.61,1.61,0,0,1,.9-.3h.3a1.42,1.42,0,0,1,.6.2Z" transform="translate(0 -26.03)" fill="#f9f8f9"/><path d="M119.7,175.4a1.47,1.47,0,0,1,.6.5,1.8,1.8,0,0,1,.3,1.2,2.27,2.27,0,0,1-1.1,1.6l-10,5.7a1.42,1.42,0,0,1-.6.2h-.3a3.18,3.18,0,0,1-.9-.3l-6.9-4a2.18,2.18,0,0,1-.5-.4,1.57,1.57,0,0,1-.4-1.3,2.14,2.14,0,0,1,1-1.6l9.9-5.7a1.61,1.61,0,0,1,.9-.3h.3a1.42,1.42,0,0,1,.6.2Z" transform="translate(0 -26.03)" fill="#f4f4f4"/><path d="M119.5,175.4a1.47,1.47,0,0,1,.6.5,1.38,1.38,0,0,1,.3,1.2,2.27,2.27,0,0,1-1.1,1.6l-9.9,5.6a1.42,1.42,0,0,1-.6.2h-.3a2.39,2.39,0,0,1-.9-.3l-6.8-3.9a2.18,2.18,0,0,1-.5-.4,1.68,1.68,0,0,1-.4-1.3A2.27,2.27,0,0,1,101,177l9.8-5.6a1.61,1.61,0,0,1,.9-.3h.3a1.42,1.42,0,0,1,.6.2Z" transform="translate(0 -26.03)" fill="#f0f0f0"/><path d="M119.3,175.4a1.47,1.47,0,0,1,.6.5,1.13,1.13,0,0,1,.3,1.1,2.3,2.3,0,0,1-1.1,1.5l-9.8,5.6a1.42,1.42,0,0,1-.6.2h-.3a2.39,2.39,0,0,1-.9-.3l-6.7-3.9a2.18,2.18,0,0,1-.5-.4,1.15,1.15,0,0,1-.4-1.2A2.3,2.3,0,0,1,101,177l9.7-5.5a4.71,4.71,0,0,1,.9-.3h.3a1.42,1.42,0,0,1,.6.2Z" transform="translate(0 -26.03)" fill="#ececed"/><path d="M119.5,175.4a1.47,1.47,0,0,1,.6.5,1.13,1.13,0,0,1,.3,1.1c0,.5-.8,1.3-1.2,1.5l-9.8,5.5c-.2,0-.4.1-.6.1h-.3a2.39,2.39,0,0,1-.9-.3L101,180c-.1-.1-.4-.3-.5-.4a1.31,1.31,0,0,1-.3-1.2c0-.5.7-1.2,1.1-1.4l9.5-5.5a2.61,2.61,0,0,1,.8-.3h.3a1.42,1.42,0,0,1,.6.2Z" transform="translate(0 -26.03)" fill="#e9e8e9"/><path d="M119.3,175.6c.1.1.5.4.6.5a1.13,1.13,0,0,1,.2,1.1c0,.5-.8,1.2-1.2,1.4l-9.6,5.4a1.27,1.27,0,0,1-.6.1h-.3a2.61,2.61,0,0,1-.8-.3l-6.5-3.8c-.1-.1-.4-.3-.5-.4a1.31,1.31,0,0,1-.3-1.2c0-.5.7-1.2,1.1-1.4l9.4-5.4a2.61,2.61,0,0,1,.8-.3h.3a1.42,1.42,0,0,1,.6.2Z" transform="translate(0 -26.03)" fill="#e5e4e6"/><path d="M119.3,175.5c.1.1.5.4.6.5a.94.94,0,0,1,.2,1.1c0,.4-.9,1.1-1.2,1.3l-9.6,5.4a1.27,1.27,0,0,1-.6.1c-.1.1-.2,0-.3,0a2.61,2.61,0,0,1-.8-.3l-6.5-3.7a1.33,1.33,0,0,1-.5-.3,1,1,0,0,1-.3-1.2c0-.4.9-1.1,1.2-1.3l9.3-5.3a2.61,2.61,0,0,1,.8-.3h.2a.66.66,0,0,1,.6.1Z" transform="translate(0 -26.03)" fill="#e1e1e3"/><path d="M119.3,175.6c.1.1.5.4.6.5a.94.94,0,0,1,.2,1.1c0,.4-1,1.1-1.3,1.3l-9.5,5.3a1.27,1.27,0,0,1-.6.1c-.1,0-.2-.1-.3-.1a1.91,1.91,0,0,1-.8-.3l-6.4-3.7a1.33,1.33,0,0,1-.5-.3.94.94,0,0,1-.2-1.1c0-.4.9-1.1,1.2-1.3l9.1-5.2a2.61,2.61,0,0,1,.8-.3h.2a.66.66,0,0,1,.6.1Z" transform="translate(0 -26.03)" fill="#dddddf"/><path d="M119.1,175.6a2.09,2.09,0,0,1,.6.4.94.94,0,0,1,.2,1.1c0,.3-1,1-1.3,1.2l-9.4,5.3a1.27,1.27,0,0,1-.6.1,1,1,0,0,1-.3-.1,1.91,1.91,0,0,1-.8-.3l-6.3-3.6a1.33,1.33,0,0,1-.5-.3.94.94,0,0,1-.2-1.1c0-.3.9-1,1.2-1.2l9-5.1a4.12,4.12,0,0,1,.8-.3h.2a1.27,1.27,0,0,1,.6.1Z" transform="translate(0 -26.03)" fill="#dadadc"/><path d="M119,175.8a2.09,2.09,0,0,1,.6.4.91.91,0,0,1,.1,1.1c0,.3-1.1,1.1-1.3,1.2l-9.3,5.2a1.27,1.27,0,0,1-.6.1l-.2-.1a1.91,1.91,0,0,1-.8-.3l-6.2-3.6a1.33,1.33,0,0,1-.5-.3.81.81,0,0,1-.2-1.1c0-.3,1.1-1.1,1.3-1.2l8.9-5.1c.1,0,.6-.3.7-.3l.2-.1a1.27,1.27,0,0,1,.6.1Z" transform="translate(0 -26.03)" fill="#d6d6d9"/><path d="M118.8,175.9a2.09,2.09,0,0,1,.6.4.76.76,0,0,1,.1,1c0,.2-1.2,1-1.4,1.1l-9.2,5.2a.44.44,0,0,1-.5.1l-.2-.1a2,2,0,0,1-.8-.4l-6.1-3.5c-.1,0-.5-.2-.5-.3a.79.79,0,0,1-.1-1.1c0-.2,1.1-1,1.3-1.1l8.7-5c.1,0,.6-.3.7-.3l.2-.1a1.27,1.27,0,0,1,.6.1Z" transform="translate(0 -26.03)" fill="#d3d3d6"/><path d="M118.5,175.8s.6.3.6.4a.67.67,0,0,1,.1,1c0,.2-1.3,1-1.4,1.1l-9.1,5.1a.44.44,0,0,1-.5.1l-.2-.1a4.88,4.88,0,0,0-.7-.3l-6-3.5-.4-.3a.79.79,0,0,1-.1-1.1,14.7,14.7,0,0,1,1.3-1l8.6-4.9c.1,0,.6-.3.7-.3l.2-.1a1.27,1.27,0,0,1,.6.1Z" transform="translate(0 -26.03)" fill="#cfd0d3"/><path d="M118.7,175.9l.6.4a.61.61,0,0,1,.1,1,17,17,0,0,1-1.4,1l-9,5.1a.45.45,0,0,1-.5,0l-.2-.1a4.35,4.35,0,0,0-.7-.4l-6-3.4-.4-.3a.61.61,0,0,1-.1-1c0-.2,1.2-.9,1.3-1l8.4-4.8c.1,0,.6-.3.7-.3l.2-.1a1.09,1.09,0,0,1,.5.1Z" transform="translate(0 -26.03)" fill="#ccccd0"/><path d="M118.6,176l.6.4a.67.67,0,0,1,0,1,7.84,7.84,0,0,1-1.5,1l-8.9,5a.45.45,0,0,1-.5,0l-.2-.1-.7-.4-5.9-3.4-.4-.3a.61.61,0,0,1-.1-1,6.71,6.71,0,0,1,1.4-.9l8.3-4.8a4.88,4.88,0,0,0,.7-.3l.2-.1a.45.45,0,0,1,.5,0Z" transform="translate(0 -26.03)" fill="#c9c9cd"/><path d="M118.6,176l.6.4a.67.67,0,0,1,0,1l-1.5.9-8.9,5a.45.45,0,0,1-.5,0l-.2-.1-.7-.4-5.8-3.3-.4-.3a.67.67,0,0,1,0-1,11,11,0,0,1,1.4-.9l8.2-4.7.6-.3.2-.1a.45.45,0,0,1,.5,0Z" transform="translate(0 -26.03)" fill="#c5c6ca"/><path d="M119,176.4a.57.57,0,0,1,0,1l-10.2,5.8a.45.45,0,0,1-.5,0l-7-4.1a.57.57,0,0,1,0-1l10.2-5.8a.45.45,0,0,1,.5,0Z" transform="translate(0 -26.03)" fill="#c2c3c7"/><path d="M119.3,167a.52.52,0,0,1,.2.4V177a.84.84,0,0,1-.4.7l-10,5.7a.85.85,0,0,1-.7,0l-7-4a.67.67,0,0,1-.4-.7v-9.5a.85.85,0,0,1,.2-.6c-.3.2-.2.6.1.8l7,4a.45.45,0,0,0,.5,0l10.2-5.8C119.3,167.4,119.4,167,119.3,167Z" transform="translate(0 -26.03)" fill="#c4c5d0"/><path d="M108.6,175.7l10.8-6.1V171l-10.8,6.1a.64.64,0,0,1-.6,0l-7.1-4.1v-1.4l7.1,4.1A.64.64,0,0,0,108.6,175.7Z" transform="translate(0 -26.03)" fill="url(#linear-gradient)"/><path d="M108.6,179.3l10.8-6.1v1.4l-10.8,6.1a.64.64,0,0,1-.6,0l-7.1-4.1v-1.4l7.1,4.1A.64.64,0,0,0,108.6,179.3Z" transform="translate(0 -26.03)" fill="url(#linear-gradient-2)"/><path d="M119,166.6a.57.57,0,0,1,0,1l-10.2,5.8a.45.45,0,0,1-.5,0l-7-4.1a.57.57,0,0,1,0-1l10.2-5.8a.45.45,0,0,1,.5,0Z" transform="translate(0 -26.03)" fill="#f0eff3"/><polygon points="111.3 139.26 114.7 141.26 108.9 144.47 105.5 142.56 111.3 139.26" fill="#ffd55d"/><polygon points="114.7 141.26 111.3 143.16 111.3 139.26 114.7 141.26" fill="#f9a81f"/><path d="M116.5,123a2.65,2.65,0,0,1-1.3,2.3L48.1,159.2a2.38,2.38,0,0,1-1.2.3,2.66,2.66,0,0,1-1.2-.3L1.3,134.3A2.77,2.77,0,0,1,0,132a2.65,2.65,0,0,1,1.3-2.3l66.9-34a3.08,3.08,0,0,1,1.3-.3,2.66,2.66,0,0,1,1.2.3l44.4,25A3,3,0,0,1,116.5,123Z" transform="translate(0 -26.03)" fill="#fff"/><path d="M114.9,120.7a2.58,2.58,0,0,1,1.4,2.2,3.59,3.59,0,0,1-.2,1.1,2.34,2.34,0,0,1-1,1.2L48.2,159a.91.91,0,0,1-.7.3H47a2.66,2.66,0,0,1-1.2-.3L1.7,134.4a2.58,2.58,0,0,1-1.4-2.2,3.4,3.4,0,0,1,.1-1,2.56,2.56,0,0,1,1-1.3l66.8-34a2.45,2.45,0,0,1,1.2-.4,2.66,2.66,0,0,1,1.2.3Z" transform="translate(0 -26.03)" fill="#f9f8f9"/><path d="M114.6,120.7a3,3,0,0,1,1.4,2.2,3.4,3.4,0,0,1-.1,1,1.78,1.78,0,0,1-.9,1.2l-66.9,34a1.45,1.45,0,0,1-.7.2h-.5a2.45,2.45,0,0,1-1.2-.4L1.8,134.3a2.79,2.79,0,0,1-1.4-2.1,3.4,3.4,0,0,1,.1-1,2,2,0,0,1,.9-1.3L68.2,96a2.45,2.45,0,0,1,1.2-.4,2.66,2.66,0,0,1,1.2.3Z" transform="translate(0 -26.03)" fill="#f4f4f4"/><path d="M114.4,120.7a2.92,2.92,0,0,1,1.5,2.1,3.35,3.35,0,0,1,0,1,2,2,0,0,1-.9,1.2L48.1,158.9a1.45,1.45,0,0,1-.7.2h-.5a2.45,2.45,0,0,1-1.2-.4L2.1,134.3a2.92,2.92,0,0,1-1.5-2.1,2.72,2.72,0,0,1,0-.9,2,2,0,0,1,.9-1.3L68.2,96.1a2.45,2.45,0,0,1,1.2-.4,2,2,0,0,1,1.1.3Z" transform="translate(0 -26.03)" fill="#f0f0f0"/><path d="M114.2,120.7a3,3,0,0,1,1.5,2,3.35,3.35,0,0,1,0,1,1.55,1.55,0,0,1-.8,1.2L48,158.8a1.85,1.85,0,0,1-.7.2h-.5a2.46,2.46,0,0,1-1.1-.4L2.4,134.4a3,3,0,0,1-1.5-2c0-.3-.2-.7-.1-.9a1.56,1.56,0,0,1,.8-1.3L68.2,96.3a2.84,2.84,0,0,1,1.2-.4,1.39,1.39,0,0,1,1.1.2Z" transform="translate(0 -26.03)" fill="#ececed"/><path d="M113.9,120.7c.6.4,1.6,1.3,1.6,2,0,.2.2.7.1.9a1.42,1.42,0,0,1-.7,1.2l-67,33.9a1.85,1.85,0,0,1-.7.2c-.1.1-.4,0-.5,0a4.87,4.87,0,0,1-1.1-.4L2.5,134.3c-.6-.3-1.6-1.2-1.6-1.9,0-.3-.2-.7-.1-.9a1.46,1.46,0,0,1,.7-1.3L68.1,96.4a5.64,5.64,0,0,1,1.2-.4,1.39,1.39,0,0,1,1.1.2Z" transform="translate(0 -26.03)" fill="#e9e8e9"/><path d="M113.7,120.7c.5.3,1.6,1.3,1.6,1.9,0,.3.3.7.2.9a1.42,1.42,0,0,1-.7,1.2L47.9,158.6a1.85,1.85,0,0,1-.7.2c-.1,0-.4-.1-.5-.1a4.87,4.87,0,0,1-1.1-.4l-42.8-24c-.5-.3-1.6-1.3-1.6-1.9,0-.2-.3-.6-.2-.8a1.46,1.46,0,0,1,.7-1.3L68.2,96.5a4.23,4.23,0,0,1,1.2-.4,1.23,1.23,0,0,1,1,.2Z" transform="translate(0 -26.03)" fill="#e5e4e6"/><path d="M113.3,120.8c.4.2,1.7,1.3,1.7,1.8,0,.2.4.6.3.8a1.13,1.13,0,0,1-.6,1.2L47.9,158.5a1,1,0,0,1-.7.2c-.1,0-.4-.1-.5-.1a4.87,4.87,0,0,1-1.1-.4L3,134.3c-.5-.2-1.7-1.3-1.7-1.8,0-.2-.3-.6-.2-.8a1.2,1.2,0,0,1,.6-1.3L68.1,96.6a4.23,4.23,0,0,1,1.2-.4,1.8,1.8,0,0,1,1,.2Z" transform="translate(0 -26.03)" fill="#e1e1e3"/><path d="M113.1,120.7c.5.3,1.8,1.3,1.8,1.8,0,.2.4.6.3.8a.94.94,0,0,1-.5,1.2L47.8,158.4a1.7,1.7,0,0,1-.7.1,2.27,2.27,0,0,0-.4-.1,4.87,4.87,0,0,1-1.1-.4L3.4,134.2c-.4-.2-1.7-1.2-1.7-1.7,0-.2-.4-.6-.3-.8a1.06,1.06,0,0,1,.5-1.3L68.2,96.7a5.64,5.64,0,0,1,1.2-.4,1.49,1.49,0,0,1,.9.2Z" transform="translate(0 -26.03)" fill="#dddddf"/><path d="M112.9,120.7c.3.2,1.8,1.3,1.8,1.7,0,.1.5.6.5.8a1.11,1.11,0,0,1-.5,1.2l-67,34a1.7,1.7,0,0,1-.7.1,2.27,2.27,0,0,0-.4-.1,4.87,4.87,0,0,1-1.1-.4l-42-23.6c-.4-.2-1.8-1.3-1.8-1.7,0-.1-.5-.6-.4-.7a1.19,1.19,0,0,1,.5-1.3L68.1,97a6.12,6.12,0,0,1,1.2-.5,1,1,0,0,1,.9.1Z" transform="translate(0 -26.03)" fill="#dadadc"/><path d="M112.6,120.7c.3.1,1.9,1.2,1.9,1.6,0,.1.6.6.5.7a.92.92,0,0,1-.4,1.2l-67,34a.88.88,0,0,1-.7.1,2.27,2.27,0,0,0-.4-.1,3.7,3.7,0,0,1-1.1-.5L3.6,134.3c-.3-.2-1.8-1.2-1.8-1.6,0-.2-.5-.6-.4-.7a1,1,0,0,1,.4-1.3L68,97.1a6.12,6.12,0,0,1,1.2-.5,1,1,0,0,1,.9.1Z" transform="translate(0 -26.03)" fill="#d6d6d9"/><path d="M112.4,120.6c.2.2,1.9,1.3,1.9,1.6,0,.1.6.6.5.7a.8.8,0,0,1-.3,1.2L47.6,158a.88.88,0,0,1-.7.1,2.27,2.27,0,0,0-.4-.1,4.67,4.67,0,0,1-1-.5L4,134.2c-.3-.1-1.9-1.2-1.9-1.5,0-.1-.5-.5-.5-.6a.89.89,0,0,1,.3-1.3L68,97.2a10.41,10.41,0,0,1,1.2-.5,1,1,0,0,1,.9.1Z" transform="translate(0 -26.03)" fill="#d3d3d6"/><path d="M112.2,120.5a10.44,10.44,0,0,1,2,1.5c0,.1.6.6.6.7a.89.89,0,0,1-.3,1.3l-67,34a.62.62,0,0,1-.7.1l-.4-.2a4.67,4.67,0,0,1-1-.5L4.2,134.3c-.2-.2-1.9-1.3-1.9-1.5s-.6-.5-.6-.6a.89.89,0,0,1,.3-1.3L68.1,97.3a3.7,3.7,0,0,1,1.1-.5,1.18,1.18,0,0,1,.8.1Z" transform="translate(0 -26.03)" fill="#cfd0d3"/><path d="M111.9,120.6a14.29,14.29,0,0,1,2,1.4c0,.1.7.5.7.6a.81.81,0,0,1-.2,1.3L47.5,157.8a.62.62,0,0,1-.7.1l-.4-.2c-.1,0-.9-.5-1-.5l-40.9-23a10.13,10.13,0,0,1-2-1.4c0-.1-.6-.5-.6-.6a.87.87,0,0,1,.2-1.3l66-33.5a11.73,11.73,0,0,1,1.1-.5,1.06,1.06,0,0,1,.8.1Z" transform="translate(0 -26.03)" fill="#ccccd0"/><path d="M111.6,120.5c.1.1,2.1,1.3,2.1,1.4s.8.6.8.6a.8.8,0,0,1-.1,1.3L47.5,157.7a.85.85,0,0,1-.7,0l-.4-.2c-.1,0-.9-.5-1-.5L4.7,134.2a13.73,13.73,0,0,1-2-1.3l-.7-.5a.8.8,0,0,1,.1-1.3L68,97.6a11.73,11.73,0,0,1,1.1-.5.76.76,0,0,1,.8,0Z" transform="translate(0 -26.03)" fill="#c9c9cd"/><path d="M111.4,120.6a15.92,15.92,0,0,1,2.2,1.3l.8.5a.8.8,0,0,1-.1,1.3L47.5,157.8a.85.85,0,0,1-.7,0l-.4-.2a9.29,9.29,0,0,1-1-.5L5,134.4c-.1-.1-2.1-1.2-2.1-1.3l-.8-.5a.8.8,0,0,1,.1-1.3L68.1,97.8a6,6,0,0,1,1.1-.6.85.85,0,0,1,.7,0Z" transform="translate(0 -26.03)" fill="#c5c6ca"/><path d="M114.3,122.3a.75.75,0,0,1,0,1.3L47.4,157.5a.85.85,0,0,1-.7,0L2.2,132.6a.75.75,0,0,1,0-1.3l66.9-34a.85.85,0,0,1,.7,0Z" transform="translate(0 -26.03)" fill="#c2c3c7"/><path d="M2.4,132.9l43.7,24.3a2.75,2.75,0,0,0,2.5,0l65.9-33.6a1,1,0,0,0,0-1.7L71.1,97.6a2.75,2.75,0,0,0-2.5,0L2.3,131.2A1,1,0,0,0,2.4,132.9Z" transform="translate(0 -26.03)" fill="#c4c5d0"/><polygon points="115 96.77 1.8 106.06 1.8 104.27 115 94.86 115 96.77" fill="#c4c5d0"/><path d="M2.4,131l43.7,24.3a2.75,2.75,0,0,0,2.5,0l65.9-33.6a1,1,0,0,0,0-1.7L71.1,95.7a2.75,2.75,0,0,0-2.5,0L2.3,129.3A1,1,0,0,0,2.4,131Z" transform="translate(0 -26.03)" fill="#fff"/><path d="M114.5,119.7l-4.4-2.4-39-21.8a2.75,2.75,0,0,0-2.5,0L2.3,129.1a1,1,0,0,0,0,1.7l1,.5,3.6,2,39.2,21.8a2.75,2.75,0,0,0,2.5,0l61.3-31,4.6-2.6A1.13,1.13,0,0,0,114.5,119.7Z" transform="translate(0 -26.03)" fill="#f0eff3"/><path d="M46.7,128l26.6-15.2a1.6,1.6,0,0,0,.8-1.4,1.51,1.51,0,0,0-.9-1.4l-12.9-7.1a2.66,2.66,0,0,0-1.2-.3,2.38,2.38,0,0,0-1.2.3L31.4,118.1a1.6,1.6,0,0,0-.8,1.4,1.51,1.51,0,0,0,.9,1.4L44.4,128a2.66,2.66,0,0,0,1.2.3A2,2,0,0,0,46.7,128Z" transform="translate(0 -26.03)" fill="#fff"/><path d="M60.3,103a2.66,2.66,0,0,0-1.2-.3,2.38,2.38,0,0,0-1.2.3L31.4,118.2a1.46,1.46,0,0,0,0,2.6l12.9,7.1a2.66,2.66,0,0,0,1.2.3,2.38,2.38,0,0,0,1.2-.3l26.5-15.3a1.46,1.46,0,0,0,0-2.6Z" transform="translate(0 -26.03)" fill="#f9f8f9"/><path d="M60.3,103.1a2.66,2.66,0,0,0-1.2-.3,2.38,2.38,0,0,0-1.2.3L31.5,118.4a1.46,1.46,0,0,0,0,2.6l12.8,7a2.9,2.9,0,0,0,1.1.3,2.38,2.38,0,0,0,1.2-.3l26.6-15.3a1.46,1.46,0,0,0,0-2.6Z" transform="translate(0 -26.03)" fill="#f4f4f4"/><path d="M60.2,103.1a5,5,0,0,0-1.2-.2,2.28,2.28,0,0,0-1.1.3L31.4,118.3a1.52,1.52,0,0,0-.7,1.2,1.41,1.41,0,0,0,.8,1.2l12.8,7a2.9,2.9,0,0,0,1.1.3,1.64,1.64,0,0,0,1.2-.2l26.6-15.3a1.52,1.52,0,0,0,.7-1.2,1.41,1.41,0,0,0-.8-1.2Z" transform="translate(0 -26.03)" fill="#f0f0f0"/><path d="M60.1,103.1a2.54,2.54,0,0,0-1.2-.2,2.46,2.46,0,0,0-1.1.4L31.5,118.4a1.36,1.36,0,0,0-.7,1.1,1.51,1.51,0,0,0,.7,1.1l12.7,7a3.54,3.54,0,0,0,1.1.3,1.64,1.64,0,0,0,1.2-.2l26.6-15.3a1.36,1.36,0,0,0,.7-1.1,1.51,1.51,0,0,0-.7-1.1Z" transform="translate(0 -26.03)" fill="#ececed"/><path d="M60.1,103.2a1.72,1.72,0,0,0-1.2-.2,3.58,3.58,0,0,0-1.1.4L31.5,118.5a1.38,1.38,0,0,0-.6,1.1,1.23,1.23,0,0,0,.7,1.1l12.6,6.9a2.1,2.1,0,0,0,1.1.4,1.64,1.64,0,0,0,1.2-.2l26.6-15.3a1.38,1.38,0,0,0,.6-1.1,1.23,1.23,0,0,0-.7-1.1Z" transform="translate(0 -26.03)" fill="#e9e8e9"/><path d="M60.1,103.3a1.72,1.72,0,0,0-1.2-.2,3.58,3.58,0,0,0-1.1.4L31.5,118.6a1.13,1.13,0,0,0,0,2l12.6,6.9a3.58,3.58,0,0,0,1.1.4,1.64,1.64,0,0,0,1.2-.2L73,112.4a1.13,1.13,0,0,0,0-2Z" transform="translate(0 -26.03)" fill="#e5e4e6"/><path d="M60,103.4a1.72,1.72,0,0,0-1.2-.2,4.87,4.87,0,0,0-1.1.4l-26.1,15a1,1,0,0,0-.6.9,1.07,1.07,0,0,0,.6.9l12.5,6.9a4.87,4.87,0,0,0,1.1.4,1.64,1.64,0,0,0,1.2-.2L73,112.2a1,1,0,0,0,.6-.9,1.07,1.07,0,0,0-.6-.9Z" transform="translate(0 -26.03)" fill="#e1e1e3"/><path d="M59.9,103.5a1.72,1.72,0,0,0-1.2-.2,4.87,4.87,0,0,0-1.1.4l-26.1,15a1.19,1.19,0,0,0-.5.9,1,1,0,0,0,.6.9l12.5,6.8a4.87,4.87,0,0,0,1.1.4,2.34,2.34,0,0,0,1.2-.2L73,112.2a.89.89,0,0,0,.5-.8,1,1,0,0,0-.6-.9Z" transform="translate(0 -26.03)" fill="#dddddf"/><path d="M60,103.5a1.67,1.67,0,0,0-1.2-.1,3.58,3.58,0,0,0-1.1.4l-26.1,15a.89.89,0,0,0,0,1.6L44,127.2a4.87,4.87,0,0,0,1.1.4,1.63,1.63,0,0,0,1.2-.1l26.6-15.3a.89.89,0,0,0,0-1.6Z" transform="translate(0 -26.03)" fill="#dadadc"/><path d="M60,103.5a1.67,1.67,0,0,0-1.2-.1,3.7,3.7,0,0,0-1.1.5L31.8,118.8a.84.84,0,0,0-.4.7c0,.3.2.5.5.7L44.2,127a10.37,10.37,0,0,0,1,.4,1.63,1.63,0,0,0,1.2-.1L73,112a.84.84,0,0,0,.4-.7c0-.3-.2-.5-.5-.7Z" transform="translate(0 -26.03)" fill="#d6d6d9"/><path d="M59.9,103.6a1.38,1.38,0,0,0-1.1-.1,3.7,3.7,0,0,0-1.1.5L31.8,119a.81.81,0,0,0,0,1.4l12.3,6.7c.1,0,.9.4,1,.4a1.42,1.42,0,0,0,1.1-.1l26.6-15.3a.81.81,0,0,0,0-1.4Z" transform="translate(0 -26.03)" fill="#d3d3d6"/><path d="M59.8,103.7a1.42,1.42,0,0,0-1.1-.1,4.67,4.67,0,0,0-1,.5L31.9,119a.72.72,0,0,0-.4.6.62.62,0,0,0,.4.6l12.2,6.7a4.67,4.67,0,0,0,1,.5,1.42,1.42,0,0,0,1.1-.1L72.8,112a.72.72,0,0,0,.4-.6.62.62,0,0,0-.4-.6Z" transform="translate(0 -26.03)" fill="#cfd0d3"/><path d="M59.7,103.8a1.1,1.1,0,0,0-1.1-.1c-.1,0-.9.5-1,.5L31.8,119a.55.55,0,0,0-.3.5.66.66,0,0,0,.4.5l12.2,6.7a4.67,4.67,0,0,0,1,.5,1.42,1.42,0,0,0,1.1-.1l26.6-15.3a.55.55,0,0,0,.3-.5.66.66,0,0,0-.4-.5Z" transform="translate(0 -26.03)" fill="#ccccd0"/><path d="M59.7,103.8a1.4,1.4,0,0,0-1.1,0l-1,.5L31.9,119.1c-.2.1-.3.2-.3.4a.55.55,0,0,0,.3.5L44,126.6c.1,0,.9.5,1,.5a1.08,1.08,0,0,0,1.1,0l26.6-15.3c.2-.1.3-.2.3-.4a.55.55,0,0,0-.3-.5Z" transform="translate(0 -26.03)" fill="#c9c9cd"/><path d="M59.7,103.8a1.08,1.08,0,0,0-1.1,0l-1,.6L32,119.1a.42.42,0,0,0,0,.8l12,6.6a9.29,9.29,0,0,1,1,.5,1.08,1.08,0,0,0,1.1,0l26.6-15.2a.42.42,0,0,0,0-.8Z" transform="translate(0 -26.03)" fill="#c5c6ca"/><path d="M32,119.9,44.9,127a1.08,1.08,0,0,0,1.1,0l26.6-15.3a.38.38,0,0,0,0-.7l-13-7.1a1.08,1.08,0,0,0-1.1,0L32,119.2A.38.38,0,0,0,32,119.9Z" transform="translate(0 -26.03)" fill="#c2c3c7"/><path d="M72.2,110.9v1.3h0c0,.1,0,.2-.1.2L47.3,126.6a3.52,3.52,0,0,1-3,.1l-12.5-6.9c-.1-.1-.1-.1-.1-.2h0v-1.4h1.8v.3l23.2-12.9a3.62,3.62,0,0,1,3.2-.1l10.5,5.7v-.3Z" transform="translate(0 -26.03)" fill="#c4c5d0"/><path d="M72.1,110.7l-12.2-6.6a3.61,3.61,0,0,0-3.2.1L31.9,118.1h0a.19.19,0,0,0,0,.3l12.5,6.9a3.2,3.2,0,0,0,3-.1L72.1,111c.1,0,.1-.2,0-.3Z" transform="translate(0 -26.03)" fill="#f0eff3"/><path d="M41.7,89.4l-.3,28.1,1.1.6,16-31.5c.1-6-5.9-9.1-11.5-5.9h0C43.8,82.6,41.6,86,41.7,89.4Z" transform="translate(0 -26.03)" fill="#c4c5d0"/><path d="M42.7,90.1l-.2,28.1,16.9-9.6.2-21.3c.1-6-5.9-9.1-11.5-5.9h0A10.56,10.56,0,0,0,42.7,90.1Z" transform="translate(0 -26.03)" fill="#e6e6eb"/><path d="M9.7,66.5,16.1,119c.2,1.6,1.1,4.1,4.8,3.4L87.6,82.3a2,2,0,0,0,1-1.9l-5.4-52c-.2-2.1-3.4-2.9-5-2L10.7,64.6A1.63,1.63,0,0,0,9.7,66.5Z" transform="translate(0 -26.03)" fill="#c4c5d0"/><path d="M11,67.5l6.5,53.1c.1,1.6,2.3,2.5,3.9,1.6L88.8,83.5a1.89,1.89,0,0,0,1-1.9L83.3,28.4c-.1-1.6-2.3-2.5-3.9-1.6L12,65.5A1.7,1.7,0,0,0,11,67.5Z" transform="translate(0 -26.03)" fill="#f0eff3"/><path d="M15.4,66.4,38.9,53.1,46.2,49l5.3-3,14.7-8.3,12.7-7.2a1.47,1.47,0,0,1,2.2.9l6,48.6a2.78,2.78,0,0,1-1.5,2.7L53.1,101l-14.5,8.3-5.3,3h0l-7.8,4.4h0l-3.4,1.9a1.47,1.47,0,0,1-2.2-.9l-6-48.6A2.56,2.56,0,0,1,15.4,66.4Z" transform="translate(0 -26.03)" fill="url(#linear-gradient-3)"/><path d="M15.4,66.4,38.8,53.1,46.2,49l5.3-3,14.7-8.3,12.7-7.2a1.47,1.47,0,0,1,2.2.9l.6,4.4L14.5,73.9l-.6-4.8A2.62,2.62,0,0,1,15.4,66.4Z" transform="translate(0 -26.03)" fill="#5e5e77"/><path d="M26.3,65.6c0-.1.1-.2.2-.3l4.1-2.4c.1-.1.2,0,.2.1s-.1.2-.2.3l-4.1,2.4C26.4,65.7,26.3,65.7,26.3,65.6Z" transform="translate(0 -26.03)" fill="#fff"/><path d="M16.8,71.3a.19.19,0,0,1-.1-.3l2.2-4.5c.1-.1.2-.2.3-.2a.19.19,0,0,1,.1.3l-2.2,4.5c-.1.1-.1.2-.3.2Z" transform="translate(0 -26.03)" fill="#fff"/><path d="M19.3,69.8l-3-1.4c-.1,0-.1-.2,0-.3s.2-.2.3-.2l3,1.4c.1,0,.1.2,0,.3a.1.1,0,0,1-.1.1C19.5,69.8,19.4,69.8,19.3,69.8Z" transform="translate(0 -26.03)" fill="#fff"/><path d="M21.1,67.1a3.18,3.18,0,0,1,1.6-2.7c1-.6,1.9-.3,2,.6a3.18,3.18,0,0,1-1.6,2.7C22.1,68.2,21.2,68,21.1,67.1Zm.5-.3c.1.7.7.9,1.5.5a2.37,2.37,0,0,0,1.2-2.1c-.1-.7-.7-.9-1.5-.5A2.26,2.26,0,0,0,21.6,66.8Z" transform="translate(0 -26.03)" fill="#fff"/><polygon points="31.9 61.06 28.8 62.87 28.8 63.37 31.9 61.56 31.9 61.06" fill="#fff"/><polygon points="28.2 63.16 25.6 64.77 25.6 65.27 28.2 63.66 28.2 63.16" fill="#fff"/><polygon points="31.9 62.16 30.2 63.16 30.2 63.66 31.9 62.66 31.9 62.16" fill="#fff"/><polygon points="27.8 64.56 25.6 65.86 25.6 66.36 27.8 64.97 27.8 64.56" fill="#fff"/><polygon points="30 63.27 28.2 64.27 28.2 64.77 30 63.77 30 63.27" fill="#fff"/><polygon points="31.9 60.06 30.2 60.97 30.2 61.47 31.9 60.47 31.9 60.06" fill="#fff"/><polygon points="27.8 62.37 25.6 63.66 25.6 64.17 27.8 62.87 27.8 62.37" fill="#fff"/><polygon points="30 61.16 28.2 62.16 28.2 62.66 30 61.56 30 61.16" fill="#fff"/><polygon points="40.3 55.37 34.5 58.77 34.5 59.16 40.3 55.87 40.3 55.37" fill="#fff"/><polygon points="40.3 56.37 38.4 57.47 38.4 57.87 40.3 56.77 40.3 56.37" fill="#fff"/><polygon points="37.7 57.87 34.5 59.77 34.5 60.16 37.7 58.37 37.7 57.87" fill="#fff"/><polygon points="40.3 57.37 34.5 60.77 34.5 61.16 40.3 57.77 40.3 57.37" fill="#fff"/><polygon points="62 30.36 58.9 32.16 58.9 32.66 62 30.86 62 30.36" fill="#fff"/><polygon points="58.3 32.56 55.6 34.06 55.6 34.56 58.3 32.97 58.3 32.56" fill="#fff"/><polygon points="62 31.46 60.3 32.47 60.3 32.97 62 31.96 62 31.46" fill="#fff"/><polygon points="57.9 33.87 55.6 35.16 55.6 35.66 57.9 34.27 57.9 33.87" fill="#fff"/><polygon points="60.1 32.56 58.3 33.56 58.3 34.06 60.1 33.06 60.1 32.56" fill="#fff"/><polygon points="62 29.36 60.3 30.27 60.3 30.77 62 29.77 62 29.36" fill="#fff"/><polygon points="57.9 31.66 55.6 32.97 55.6 33.47 57.9 32.16 57.9 31.66" fill="#fff"/><polygon points="60.1 30.46 58.3 31.46 58.3 31.96 60.1 30.96 60.1 30.46" fill="#fff"/><polygon points="70.4 24.66 64.6 28.07 64.6 28.46 70.4 25.16 70.4 24.66" fill="#fff"/><polygon points="70.4 25.66 68.5 26.77 68.5 27.27 70.4 26.16 70.4 25.66" fill="#fff"/><polygon points="67.8 27.16 64.6 29.07 64.6 29.46 67.8 27.66 67.8 27.16" fill="#fff"/><polygon points="70.4 26.66 64.6 30.07 64.6 30.46 70.4 27.07 70.4 26.66" fill="#fff"/><polygon points="66.1 59.27 63.1 61.06 63.1 61.56 66.1 59.77 66.1 59.27" fill="#fff"/><polygon points="62.5 61.37 59.8 62.97 59.8 63.47 62.5 61.87 62.5 61.37" fill="#fff"/><polygon points="66.1 60.37 64.5 61.37 64.5 61.77 66.1 60.87 66.1 60.37" fill="#fff"/><polygon points="62.1 62.66 59.8 64.06 59.8 64.47 62.1 63.16 62.1 62.66" fill="#fff"/><polygon points="64.2 61.47 62.5 62.47 62.5 62.97 64.2 61.97 64.2 61.47" fill="#fff"/><polygon points="66.1 58.16 64.5 59.16 64.5 59.66 66.1 58.66 66.1 58.16" fill="#fff"/><polygon points="62.1 60.56 59.8 61.87 59.8 62.37 62.1 61.06 62.1 60.56" fill="#fff"/><polygon points="64.2 59.27 62.5 60.37 62.5 60.77 64.2 59.77 64.2 59.27" fill="#fff"/><polygon points="74.5 53.56 68.7 56.97 68.7 57.37 74.5 53.97 74.5 53.56" fill="#fff"/><polygon points="74.5 54.56 72.6 55.66 72.6 56.06 74.5 54.97 74.5 54.56" fill="#fff"/><polygon points="71.9 56.06 68.7 57.87 68.7 58.37 71.9 56.47 71.9 56.06" fill="#fff"/><polygon points="74.5 55.56 68.7 58.87 68.7 59.37 74.5 55.97 74.5 55.56" fill="#fff"/><path d="M36.7,77.6a.6.6,0,0,0-.1.4c0,.1.1.2.2.3a.37.37,0,0,0,.3.1.52.52,0,0,0,.4-.2l5.6-7.6c.1-.2.2-.3.1-.5s-.2-.3-.4-.3l-5.6-1.1h-.1a.46.46,0,0,0-.5.4c0,.2,0,.3.1.4s.2.2.3.2l4.9.9Z" transform="translate(0 -26.03)" fill="#fff"/><path d="M19.5,83.4c-.1.2-.2.3-.1.5s.2.3.4.3l5.6,1.1h.1a.46.46,0,0,0,.5-.4c0-.2,0-.3-.1-.4s-.2-.2-.3-.2l-4.9-.9,5.2-6.9a.6.6,0,0,0,.1-.4c0-.1-.1-.2-.2-.3a.37.37,0,0,0-.3-.1.52.52,0,0,0-.4.2Z" transform="translate(0 -26.03)" fill="#fff"/><path d="M26.6,74a.65.65,0,0,0,.2.9l8,4.6a.37.37,0,0,0,.3.1.6.6,0,0,0,.6-.3.65.65,0,0,0-.2-.9l-8-4.6a.37.37,0,0,0-.3-.1A.6.6,0,0,0,26.6,74Z" transform="translate(0 -26.03)" fill="#fff"/><path d="M68.1,72.9a.6.6,0,0,0-.1.4c0,.1.1.2.2.3a.37.37,0,0,0,.3.1.52.52,0,0,0,.4-.2l5.6-7.6c.1-.2.2-.3.1-.5s-.2-.3-.4-.3L68.6,64h-.1a.46.46,0,0,0-.5.4c0,.2,0,.3.1.4s.2.2.3.2l4.9.9Z" transform="translate(0 -26.03)" fill="#fff"/><path d="M50.8,78.7c-.1.2-.2.3-.1.5s.2.3.4.3l5.6,1.1h.1a.46.46,0,0,0,.5-.4c0-.2,0-.3-.1-.4s-.2-.2-.3-.2L52,78.7l5.2-6.9a.6.6,0,0,0,.1-.4c0-.1-.1-.2-.2-.3a.37.37,0,0,0-.3-.1.76.76,0,0,0-.4.2Z" transform="translate(0 -26.03)" fill="#fff"/><path d="M57.9,69.3a.65.65,0,0,0,.2.9l8,4.6a.37.37,0,0,0,.3.1.6.6,0,0,0,.6-.3.65.65,0,0,0-.2-.9l-8-4.6a.37.37,0,0,0-.3-.1C58.3,69,58.1,69.2,57.9,69.3Z" transform="translate(0 -26.03)" fill="#fff"/><path d="M48.7,97.3a.6.6,0,0,0-.1.4c0,.1.1.2.2.3a.37.37,0,0,0,.3.1.52.52,0,0,0,.4-.2l5.6-7.6c.1-.2.2-.3.1-.5s-.2-.3-.4-.3l-5.6-1.1h-.1a.46.46,0,0,0-.5.4c0,.2,0,.3.1.4s.2.2.3.2l4.9.9Z" transform="translate(0 -26.03)" fill="#fff"/><path d="M31.4,103.1c-.1.2-.2.3-.1.5s.2.3.4.3l5.6,1.1h.1a.46.46,0,0,0,.5-.4c0-.2,0-.3-.1-.4s-.2-.2-.3-.2l-4.9-.9,5.2-6.9a.6.6,0,0,0,.1-.4c0-.1-.1-.2-.2-.3a.37.37,0,0,0-.3-.1.52.52,0,0,0-.4.2Z" transform="translate(0 -26.03)" fill="#fff"/><path d="M38.5,93.7a.65.65,0,0,0,.2.9l8,4.6a.37.37,0,0,0,.3.1.6.6,0,0,0,.6-.3.65.65,0,0,0-.2-.9l-8-4.6a.37.37,0,0,0-.3-.1A.86.86,0,0,0,38.5,93.7Z" transform="translate(0 -26.03)" fill="#fff"/><path d="M38.8,53.1,46.2,49l5.3-3,14.7-8.3,12.7-7.2a1.47,1.47,0,0,1,2.2.9l.6,4.4L87.1,80a2.81,2.81,0,0,1-.9,2.3L23,62Z" transform="translate(0 -26.03)" fill="#fff" opacity="0.25" style="isolation:isolate"/><path d="M42.9,64.1,66.4,50.8l7.3-4.1,5.3-3,14.7-8.3,12.7-7.2a1.47,1.47,0,0,1,2.2.9l6,48.6a2.78,2.78,0,0,1-1.5,2.7L80.7,98.7,66,107l-5.3,3h0L53,114.4h0l-3.4,1.9a1.47,1.47,0,0,1-2.2-.9l-6-48.6A2.86,2.86,0,0,1,42.9,64.1Z" transform="translate(0 -26.03)" fill="#c4c5d0"/><path d="M44.1,64.6l7.7-4.3,15.8-8.9L75,47.3l5.3-3L95,36l12.6-7.2a1.47,1.47,0,0,1,2.2.9l.6,4.4,5.4,44.2a2.54,2.54,0,0,1-.9,2.3,2.65,2.65,0,0,1-.6.5L82,99.3l-14.7,8.3-5.3,3h0L54.3,115h0l-3.4,1.9a1.47,1.47,0,0,1-2.2-.9L43.3,72.2l-.6-4.8A2.84,2.84,0,0,1,44.1,64.6Z" transform="translate(0 -26.03)" fill="url(#linear-gradient-4)"/><path d="M44.1,64.7,67.6,51.4,75,47.3l5.3-3L95,36l12.6-7.1a1.47,1.47,0,0,1,2.2.9l.6,4.4-67.1,38-.6-4.8A2.62,2.62,0,0,1,44.1,64.7Z" transform="translate(0 -26.03)" fill="#5e5e77"/><path d="M67.6,51.4,75,47.3l5.3-3L95,36l12.7-7.2a1.47,1.47,0,0,1,2.2.9l.6,4.4,5.4,44.2a2.54,2.54,0,0,1-.9,2.3L51.8,60.4Z" transform="translate(0 -26.03)" fill="#fff" opacity="0.25" style="isolation:isolate"/><path d="M55.1,63.9c0-.1.1-.2.2-.3l4.1-2.4c.1-.1.2,0,.2.1s-.1.2-.2.3L55.3,64C55.2,64.1,55.1,64,55.1,63.9Z" transform="translate(0 -26.03)" fill="#fff"/><path d="M45.6,69.7a.19.19,0,0,1-.1-.3l2.2-4.5c.1-.1.2-.2.3-.2a.19.19,0,0,1,.1.3l-2.2,4.4c-.1.1-.1.2-.2.2Z" transform="translate(0 -26.03)" fill="#fff"/><path d="M48.1,68.2l-3-1.4c-.1,0-.1-.2,0-.3s.2-.2.3-.2l3,1.4c.1,0,.1.2,0,.3a.1.1,0,0,1-.1.1C48.2,68.1,48.2,68.2,48.1,68.2Z" transform="translate(0 -26.03)" fill="#fff"/><path d="M49.9,65.4a3.18,3.18,0,0,1,1.6-2.7c1-.6,1.9-.3,2,.6A3.18,3.18,0,0,1,51.9,66C50.9,66.6,50,66.3,49.9,65.4Zm.4-.3c.1.7.7.9,1.5.5A2.37,2.37,0,0,0,53,63.5c-.1-.7-.7-.9-1.5-.5A2.88,2.88,0,0,0,50.3,65.1Z" transform="translate(0 -26.03)" fill="#fff"/><g opacity="0.17"><path d="M50.7,71l1.8,14.5h0l8.2-4.8.4,2.8c.1.5.4.7.8.5l4.2-2.4.3,2.8c.1.5.4.7.8.5l5.1-3a.91.91,0,0,0,.4-.8L72.2,77c-.1-.5-.4-.7-.8-.5l-4.2,2.4-.3-2.8c-.1-.5-.4-.7-.8-.5l-1.4.8L63,63.8h0Z" transform="translate(0 -26.03)" fill="#474748"/><path d="M62.1,89.3a1.43,1.43,0,0,0-.3,1.1l2.1,16.3a.52.52,0,0,0,.8.5L84.1,95.9a1.45,1.45,0,0,0,.6-1.4l-.3-2.1.7,1h.1l.3-1h.1l.9.4h.1l.1-.4v-.1l-.9-.4v-.1l.3-1c.1-.1,0-.1,0-.1l-1.7.4L83,80.1h0l-.2-1.7h0v-.2c-.1-.3-.2-.6-.5-.6a.63.63,0,0,0-.7.1L62.9,88.5A3,3,0,0,0,62.1,89.3Z" transform="translate(0 -26.03)" fill="#474748"/><path d="M99.7,73.6,86.8,81.1,88,90.5h.1L100.9,83l-1.2-9.4Z" transform="translate(0 -26.03)" fill="#474748"/><path d="M75.5,60.1c-.1-.3-.3-.4-.5-.3s-.4.5-.4.8.3.4.5.3S75.5,60.4,75.5,60.1Z" transform="translate(0 -26.03)" fill="#474748"/><path d="M71.7,62.4c-.1-.3-.3-.4-.5-.3s-.4.5-.4.8.3.4.5.3A1.23,1.23,0,0,0,71.7,62.4Z" transform="translate(0 -26.03)" fill="#474748"/><path d="M67.8,64.6c-.1-.3-.3-.4-.5-.3s-.4.5-.4.8.3.4.5.3A1,1,0,0,0,67.8,64.6Z" transform="translate(0 -26.03)" fill="#474748"/><path d="M76.1,64.5c-.1-.3-.3-.4-.5-.3s-.4.5-.4.8.3.4.5.3A1.23,1.23,0,0,0,76.1,64.5Z" transform="translate(0 -26.03)" fill="#474748"/><path d="M72.2,66.7a.34.34,0,0,0-.5-.3c-.3.1-.4.5-.4.8a.34.34,0,0,0,.5.3C72.1,67.4,72.2,67,72.2,66.7Z" transform="translate(0 -26.03)" fill="#474748"/><path d="M68.4,68.9c-.1-.3-.3-.4-.5-.3s-.4.5-.4.8.3.4.5.3S68.3,69.3,68.4,68.9Z" transform="translate(0 -26.03)" fill="#474748"/><path d="M76.7,68.8c-.1-.3-.3-.4-.5-.3s-.4.5-.4.8.3.4.5.3A2,2,0,0,0,76.7,68.8Z" transform="translate(0 -26.03)" fill="#474748"/><path d="M72.8,71c-.1-.3-.3-.4-.5-.3s-.4.5-.4.8.3.4.5.3A1,1,0,0,0,72.8,71Z" transform="translate(0 -26.03)" fill="#474748"/><path d="M68.9,73.3c-.1-.3-.3-.4-.5-.3s-.4.5-.4.8.3.4.5.3A.91.91,0,0,0,68.9,73.3Z" transform="translate(0 -26.03)" fill="#474748"/><path d="M95.5,65.6,93.4,48.9c-.1-.8-.7-1.2-1.3-.8L79.6,55.4a2.32,2.32,0,0,0-.9,2.1l2,16.7c.1.8.7,1.1,1.3.8l3.8-2.2a2.19,2.19,0,0,0,.3.5l.7.9.2-.1v.2l.1,1.2c0,.1.1.2.2.1L90.1,74a.76.76,0,0,0,.2-.4l-.1-1.2a.35.35,0,0,0-.1-.2h.1l.4-1.5c0-.2.1-.5.1-.7l3.9-2.3A2.22,2.22,0,0,0,95.5,65.6Z" transform="translate(0 -26.03)" fill="#474748"/></g><path d="M71.1,62.2,58.8,69.4l1.9,14.5h0L73,76.7,71.1,62.2Z" transform="translate(0 -26.03)" fill="#f0eff3"/><polygon points="66.9 42.77 62.7 48.47 67.7 49.77 66.9 42.77" fill="url(#linear-gradient-5)"/><path d="M73.9,78.6l.5,4.3c.1.5.4.7.8.5l5.1-3a.91.91,0,0,0,.4-.8l-.4-4.4c-.1-.5-.4-.7-.8-.5l-5.1,3A1.35,1.35,0,0,0,73.9,78.6Z" transform="translate(0 -26.03)" fill="#fff"/><path d="M70,88.8l2.1,16.3a.52.52,0,0,0,.8.5L92.3,94.3a1.45,1.45,0,0,0,.6-1.4L90.8,76.6a.52.52,0,0,0-.8-.5L70.6,87.4A1.56,1.56,0,0,0,70,88.8Z" transform="translate(0 -26.03)" fill="#4359a8"/><path d="M70.1,89l.2,1.7L91.1,78.6l-.2-1.7c-.1-.8-.6-1.1-1.2-.8L70.9,87A2.21,2.21,0,0,0,70.1,89Z" transform="translate(0 -26.03)" fill="#5e5e77"/><path d="M71.2,88.4c0,.3.2.4.4.3a.78.78,0,0,0,.3-.7c0-.3-.2-.4-.4-.3A.78.78,0,0,0,71.2,88.4Z" transform="translate(0 -26.03)" fill="#fff"/><path d="M72.7,87.5c0,.3.2.4.4.3a.78.78,0,0,0,.3-.7c0-.3-.2-.4-.4-.3A1.14,1.14,0,0,0,72.7,87.5Z" transform="translate(0 -26.03)" fill="#fff"/><path d="M74.3,86.6c0,.3.2.4.4.3a.78.78,0,0,0,.3-.7c0-.3-.2-.4-.4-.3A.78.78,0,0,0,74.3,86.6Z" transform="translate(0 -26.03)" fill="#fff"/><path d="M68.6,77.7l.5,4.3c.1.5.4.7.8.5l5.1-3a.91.91,0,0,0,.4-.8l-.5-4.3c-.1-.5-.4-.7-.8-.5l-5.1,3A2,2,0,0,0,68.6,77.7Z" transform="translate(0 -26.03)" fill="url(#linear-gradient-6)"/><path d="M107.8,72.1,94.9,79.6,96.1,89h.1L109,81.5l-1.2-9.4Z" transform="translate(0 -26.03)" fill="#fff"/><path d="M82.7,59c.1.3.3.4.5.3s.4-.5.4-.8-.3-.4-.5-.3A.91.91,0,0,0,82.7,59Z" transform="translate(0 -26.03)" fill="#fff"/><path d="M78.8,61.3c.1.3.3.4.5.3s.4-.5.4-.8-.3-.4-.5-.3A1,1,0,0,0,78.8,61.3Z" transform="translate(0 -26.03)" fill="#fff"/><path d="M74.9,63.5c.1.3.3.4.5.3s.4-.5.4-.8-.3-.4-.5-.3A1.23,1.23,0,0,0,74.9,63.5Z" transform="translate(0 -26.03)" fill="#fff"/><path d="M83.2,63.4c.1.3.3.4.5.3s.4-.5.4-.8-.3-.4-.5-.3A1,1,0,0,0,83.2,63.4Z" transform="translate(0 -26.03)" fill="#fff"/><path d="M79.3,65.6c.1.3.3.4.5.3s.4-.5.4-.8-.3-.4-.5-.3A2,2,0,0,0,79.3,65.6Z" transform="translate(0 -26.03)" fill="#fff"/><path d="M75.5,67.9c.1.3.3.4.5.3s.4-.5.4-.8-.3-.4-.5-.3S75.5,67.6,75.5,67.9Z" transform="translate(0 -26.03)" fill="#fff"/><path d="M83.8,67.7c.1.3.3.4.5.3s.4-.5.4-.8-.3-.4-.5-.3S83.8,67.4,83.8,67.7Z" transform="translate(0 -26.03)" fill="#fff"/><path d="M79.9,70c.1.3.3.4.5.3s.4-.5.4-.8-.3-.4-.5-.3A.89.89,0,0,0,79.9,70Z" transform="translate(0 -26.03)" fill="#fff"/><path d="M76,72.2c.1.3.3.4.5.3s.4-.5.4-.8-.3-.4-.5-.3S76.1,71.9,76,72.2Z" transform="translate(0 -26.03)" fill="#fff"/><path d="M92,89.7l1.2,2.2h.1l.3-1h.1l.9.4h.1l.1-.4v-.1l-.9-.4v-.1l.3-1c.1-.1,0-.1,0-.1l-2.2.5Z" transform="translate(0 -26.03)" fill="#fff"/><path d="M86.7,55.9l2.2,16.8c.1.8.7,1.1,1.3.8l12.5-7.3a2.32,2.32,0,0,0,.9-2.1l-2.2-16.7c-.1-.8-.7-1.2-1.3-.8L87.6,53.9A2.15,2.15,0,0,0,86.7,55.9Z" transform="translate(0 -26.03)" fill="url(#linear-gradient-7)"/><polygon points="98.1 32.16 92.1 35.66 92.1 35.77 98.1 32.27 98.1 32.16" fill="#fff"/><polygon points="94.6 29.96 95.6 37.97 95.7 37.97 94.7 29.96 94.6 29.96" fill="#fff"/><path d="M87.7,55.8l2.2,15.9c0,.1.1.2.2.3a.19.19,0,0,0,.3,0l11.9-6.9c.2-.1.3-.5.3-.8l-2.1-15.9c0-.1-.1-.2-.2-.3a.19.19,0,0,0-.3,0L88.1,55A1,1,0,0,0,87.7,55.8Zm.1-.2a.71.71,0,0,1,.3-.6L100,48.1h.2c0,.1.1.2.1.3l2.1,15.9a.78.78,0,0,1-.3.7L90.2,71.9H90c0-.1-.1-.2-.1-.3Z" transform="translate(0 -26.03)" fill="#fff"/><path d="M93.8,59.4l.3,2.5c0,.2.2.3.3.2L96.3,61a.76.76,0,0,0,.2-.5L96.2,58c0-.2-.2-.3-.3-.2L94,58.9C93.8,59,93.7,59.3,93.8,59.4Z" transform="translate(0 -26.03)" fill="#fff"/><path d="M94.2,71.6l.7.9,1.6-.9.2-.1,1.6-.9.4-1.5a6.69,6.69,0,0,0-.6-5.3l-3-4.2-1.6,6.9A6.47,6.47,0,0,0,94.2,71.6Zm1.6-6.1c.6-.3,1.1,0,1.2.8a2,2,0,0,1-.8,2c-.6.3-1.1,0-1.2-.8A2.44,2.44,0,0,1,95.8,65.5Z" transform="translate(0 -26.03)" fill="#f04e4e"/><path d="M95.1,72.7l.1,1.2c0,.1.1.2.2.1l2.8-1.6a.76.76,0,0,0,.2-.4l-.1-1.2c0-.1-.1-.2-.2-.1l-2.8,1.6C95.2,72.3,95.1,72.5,95.1,72.7Z" transform="translate(0 -26.03)" fill="#c72f2e"/><path d="M81.7,94.6a2.15,2.15,0,0,0,3.6,0,5.59,5.59,0,0,0,.6-5.7,2.67,2.67,0,0,0-1.5-1.3,2.18,2.18,0,0,1,.7.9,5.23,5.23,0,0,1-.6,5.5A2.22,2.22,0,0,1,81.7,94.6Z" transform="translate(0 -26.03)" fill="#f9a81f"/><path d="M80.4,90.6h0a3.75,3.75,0,0,0-.1,1,3.4,3.4,0,0,1,.1-1Z" transform="translate(0 -26.03)" fill="url(#linear-gradient-8)"/><polygon points="80.8 69.06 80.7 69.56 81.6 70.06 81.7 69.56 80.8 69.06" fill="#b0afd8"/><polygon points="83.7 59.77 83.6 60.16 84.4 60.66 84.6 60.27 83.7 59.77" fill="url(#linear-gradient-9)"/><path d="M80.4,94.4l-.3-.2a2.18,2.18,0,0,0,.7.9l.9.5a3.88,3.88,0,0,1-1-1.4Z" transform="translate(0 -26.03)" fill="#f9a81f"/><path d="M82.7,86.2l.3.2.1.4a2.25,2.25,0,0,1,1.4-.1l-.9-.5A1.35,1.35,0,0,0,82.7,86.2Z" transform="translate(0 -26.03)" fill="#f9a81f"/><polygon points="80 66.86 79.1 66.36 79.5 67.86 80.1 68.27 80.4 68.36 80 66.86" fill="url(#linear-gradient-10)"/><polygon points="79.4 66.17 79.1 66.36 80 66.86 80.3 66.67 79.4 66.17" fill="#b0afd8"/><polygon points="81.8 61.06 80.9 60.56 81 60.97 81.9 61.47 81.8 61.06" fill="#b0afd8"/><path d="M79.6,90.1a5,5,0,0,0-.1,2.1l.9.5a5,5,0,0,1,0-2h0l-.3-.2Z" transform="translate(0 -26.03)" fill="#f9a81f"/><path d="M79.9,88.5l.9.5a5.83,5.83,0,0,1,1.1-1.5L81,87A8.28,8.28,0,0,0,79.9,88.5Z" transform="translate(0 -26.03)" fill="#f9a81f"/><polygon points="79.7 62.37 79.2 63.97 79.5 64.06 80.1 64.47 80.5 62.87 79.7 62.37" fill="url(#linear-gradient-11)"/><path d="M80.3,92.7l-.3.2.4,1.5.3-.2c.1.2.1.3.2.4a3.13,3.13,0,0,0,.8,1.1l-.1.4,1.1.6.1-.4a2.57,2.57,0,0,0,1.5-.1l.1.4,1.1-.7-.1-.4.3-.3a5.67,5.67,0,0,0,.8-1.3l.2.1.5-1.6-.3-.1a7.39,7.39,0,0,0,0-2.1l.3-.2-.3-1.5-.3.2c-.1-.2-.1-.3-.2-.4a3.13,3.13,0,0,0-.8-1.1l.1-.4-1.1-.6-.1.4a2.57,2.57,0,0,0-1.5.1l-.1-.4-1.1.7.1.4-.3.3a5.67,5.67,0,0,0-.8,1.3l-.3-.1L80,90.5l.3.1A7.39,7.39,0,0,0,80.3,92.7ZM82,88.4a2.24,2.24,0,0,1,3.9.5,5.56,5.56,0,0,1-.6,5.7,2.24,2.24,0,0,1-3.9-.5A5.16,5.16,0,0,1,82,88.4Z" transform="translate(0 -26.03)" fill="url(#linear-gradient-12)"/><polygon points="82 59.87 80.9 60.56 81.8 61.06 82.9 60.37 82.6 60.16 82 59.87" fill="url(#linear-gradient-13)"/><path d="M80.1,99.5c.1,0,.3.3.4.7s.7.1.8.2a1.21,1.21,0,0,1,.7.9,17.93,17.93,0,0,0,1.7,3.2l-1.2.5s-1.1-3.2-1.6-3.2-1.3-.3-1-.6c0,0,.5.3.7.2s-.1-.4-.3-.7S80,99.5,80.1,99.5Z" transform="translate(0 -26.03)" fill="#f7a8a9"/><path d="M86.2,104.6a17.19,17.19,0,0,1-2.6-.6c-.3-.1-1.7,1-1.2,1.4a6.86,6.86,0,0,0,3.9,1.5c1.3.1,2.3,0,2.3-.9S87.8,104.8,86.2,104.6Z" transform="translate(0 -26.03)" fill="#fff"/><path d="M84.9,128.1c-.2.3.1.7.3.9s1.7,1.5,2.7,1.1c.1,0,.2-.1.3-.2s0-1-.2-1.2A9.89,9.89,0,0,0,84.9,128.1Z" transform="translate(0 -26.03)" fill="#5d8cc9"/><path d="M85,128c-.1.2.3.7.5.9.6.6,1.9,1.2,2.4,1a.76.76,0,0,0,.4-.2,1,1,0,0,0-.2-.9,10.19,10.19,0,0,0-1.5-.8C85.9,127.7,85,127.7,85,128Z" transform="translate(0 -26.03)" fill="#434359"/><path d="M86.8,129.4a.13.13,0,1,0,.2,0c0-.1,0-.2-.1-.2S86.7,129.2,86.8,129.4Z" transform="translate(0 -26.03)" fill="#5d8cc9"/><path d="M87.9,128.6l-.3.4.1.1a2.81,2.81,0,0,1,.1.8.43.43,0,0,0,.4-.2c.1-.7-.2-.9-.2-.9Z" transform="translate(0 -26.03)" fill="#5d8cc9"/><path d="M86.3,128.4c-.1.1,0,.4.6.7a1.7,1.7,0,0,0,.7.1.37.37,0,0,1,.1-.3.19.19,0,0,1,.3,0c0-.2-.1-.3-.1-.5C87.7,128.4,86.4,127.8,86.3,128.4Z" transform="translate(0 -26.03)" fill="#f7a8a9"/><path d="M85.9,121.1c.1,1.7.5,7.1.5,7.1a1.63,1.63,0,0,0,1.8.1s.3-3.9.4-5.1a6.27,6.27,0,0,0-.2-2.4C88.2,120.2,85.9,119.4,85.9,121.1Z" transform="translate(0 -26.03)" fill="#434359"/><path d="M85.9,121.5c0,1.1,2.3,1,2.6-.5.2-1,.6-4.6.7-5.2s.1-2.8-1.1-3.7a1.81,1.81,0,0,0-2.1.4C84.4,113.9,85.9,120.4,85.9,121.5Z" transform="translate(0 -26.03)" fill="#434359"/><path d="M82.2,129.4c-.2.3.1.7.3.9s1.7,1.5,2.7,1.1c.1,0,.2-.1.3-.2s0-1-.2-1.2S82.3,129.1,82.2,129.4Z" transform="translate(0 -26.03)" fill="#5d8cc9"/><path d="M82.3,129.2c-.1.2.3.7.5.9.6.6,1.9,1.2,2.4,1a.76.76,0,0,0,.4-.2,1,1,0,0,0-.2-.9,10.19,10.19,0,0,0-1.5-.8C83.3,129,82.4,129,82.3,129.2Z" transform="translate(0 -26.03)" fill="#434359"/><path d="M84.2,130.6a.12.12,0,1,0,.2,0c0-.1,0-.2-.1-.2S84.1,130.5,84.2,130.6Z" transform="translate(0 -26.03)" fill="#5d8cc9"/><path d="M85.3,129.9l-.3.4.1.1a2.81,2.81,0,0,1,.1.8.43.43,0,0,0,.4-.2c.1-.7-.2-.9-.2-.9Z" transform="translate(0 -26.03)" fill="#5d8cc9"/><path d="M83.7,129.6c-.1.1,0,.4.6.7a1.7,1.7,0,0,0,.7.1.37.37,0,0,1,.1-.3.19.19,0,0,1,.3,0c0-.2-.1-.3-.1-.5C85.1,129.7,83.8,129.1,83.7,129.6Z" transform="translate(0 -26.03)" fill="#f7a8a9"/><path d="M83.5,122.5c0,1.7.4,7,.4,7a1.43,1.43,0,0,0,1.8.4s.3-4.1.4-5.3A8.75,8.75,0,0,0,86,122C85.7,121.4,83.3,120.7,83.5,122.5Z" transform="translate(0 -26.03)" fill="#5e5e77"/><path d="M83.3,123c0,1.1,2.3,1,2.6-.5.2-1,.8-5.5.9-6.1a2.63,2.63,0,0,0-.9-2.8,2,2,0,0,0-2.3-.1C82.4,114.5,83.4,121.8,83.3,123Z" transform="translate(0 -26.03)" fill="#5e5e77"/><path d="M83,115s4.9,1.1,6.3-.5c0,0-.8-4-.5-5.7s.2-4.1-1.7-4.1c-.9,0-4,.7-4,2.7C83.1,109.2,83.4,113,83,115Z" transform="translate(0 -26.03)" fill="url(#linear-gradient-14)"/><path d="M84.2,102.5a.85.85,0,0,0,0,.7c.4.7.7,1.2,1.1,1.1.1.5-.4,1-.3,1a4.42,4.42,0,0,0,1.5-.5,6.81,6.81,0,0,0-.4-2.8,1.38,1.38,0,0,0-.3-.4,1.27,1.27,0,0,0-.6-.1.84.84,0,0,0-.7.2c-.2.1-.5,0-.5.2S84.2,102.2,84.2,102.5Z" transform="translate(0 -26.03)" fill="#f7a8a9"/><path d="M83.9,102.2a.31.31,0,0,1,.4-.2c0,.6.4.2.5.9.1.4.2.9.6,1.1s1.1,0,1.1,0a1.47,1.47,0,0,0,.2-.4c.1-.4.7-1,.4-1.6a.93.93,0,0,0-1.1-1.2c.1-.7-1.1-.7-1.1-.1C84.3,100.4,83.4,101.1,83.9,102.2Z" transform="translate(0 -26.03)" fill="#313546"/><path d="M84.7,105.3l2.3-.7-.2-.3c-.1,0-.2-.1-.3-.1a5.93,5.93,0,0,0-1.4.5C84.9,104.8,84.6,105.1,84.7,105.3Z" transform="translate(0 -26.03)" fill="#fff"/><path d="M79.2,114.6c-.1.2.3,0,.6-.4s0,.2.1.3.7.3.8.4.5-.5.7-.7a31.9,31.9,0,0,1,3.5-2.1l-.8-1.1a19.38,19.38,0,0,1-2.9,2,.64.64,0,0,1-.6,0c-.3-.2-.7-.4-.7-.2s.4.3.5.5-.1.1-.4.3S79.4,114.4,79.2,114.6Z" transform="translate(0 -26.03)" fill="#f7a8a9"/><path d="M83.5,108.8a12.76,12.76,0,0,1,.1,2.6c0,.4,1.4,1.4,1.7.8a7.08,7.08,0,0,0,.4-4.2c-.2-1.3-.6-2.2-1.5-2S83.2,107.1,83.5,108.8Z" transform="translate(0 -26.03)" fill="#fff"/></svg>