<?xml version="1.0" encoding="utf-8"?>
<!-- Generator: Adobe Illustrator 25.1.0, SVG Export Plug-In . SVG Version: 6.00 Build 0)  -->
<svg version="1.1" id="Layer_1" xmlns="http://www.w3.org/2000/svg" xmlns:xlink="http://www.w3.org/1999/xlink" x="0px" y="0px"
	 viewBox="0 0 800 756.9" style="enable-background:new 0 0 800 756.9;" xml:space="preserve">
<style type="text/css">
	.st0{fill:#FFFFFF;}
</style>
<g>
	<path class="st0" d="M0,0v419.3c0,0,5-2.8,14-6.4c2.7-1.1,5.8-2.2,9.2-3.4c9.9-3.5,22.7-7.1,37.8-9.6c3.6-0.6,7.4-1.2,11.2-1.6
		c8.9-1.1,18.5-1.7,28.6-1.7c2,0,4.1,0,6.1,0.1c10.5,0.3,21.5,1.3,33,3.3c4.8,0.8,9.8,1.8,14.8,3c2.6,0.6,5.2,1.3,7.8,2
		c6.3,1.7,12.8,3.8,19.3,6.2c1.6,0.6,3.3,1.2,4.9,1.9c6.6,2.6,13.3,5.5,20.1,8.9c0.3,0.1,0.5,0.3,0.8,0.4c0.8,0.4,1.6,0.8,2.4,1.2
		c0.2,0.1,0.3,0.2,0.5,0.3c0.2,0.1,0.4,0.2,0.7,0.3c1.1,0.6,2.2,1.1,3.3,1.7c11.8,6.3,23.8,13.9,35.9,22.8
		c5.8,4.3,11.5,8.9,17.3,13.8c20.4,17.4,41.6,31.4,63,42c4.9,2.5,9.9,4.7,14.9,6.8c4.2,1.8,8.5,3.4,12.7,5c0.8,0.3,1.6,0.6,2.5,0.9
		c7.7,2.7,15.3,4.9,23,6.8c6.4,1.5,12.8,2.8,19.2,3.8c1.5,0.2,2.9,0.4,4.4,0.6c1.6,0.2,3.1,0.4,4.7,0.6c12.4,1.4,24.7,1.7,36.8,0.9
		c17.8-1.1,35.2-4.5,52.1-10c7.8-2.6,15.5-5.6,23-9.1c9.5-4.5,18.8-9.6,27.8-15.6c4.2-2.7,8.2-5.6,12.3-8.7c2.4-1.8,4.8-3.7,7.2-5.6
		c1.8-1.5,3.7-3.1,5.5-4.6c4.1-3.5,8-7.2,11.9-11.1c1.7-1.7,3.4-3.5,5.1-5.2c1.5-1.6,3-3.1,4.5-4.6c9.9-10.1,20.1-19.2,30.3-27.3
		c0.2-0.1,0.3-0.3,0.5-0.4c4.6-3.6,9.2-7.1,13.8-10.4c8.7-6.2,17.5-11.8,26-16.8c2.1-1.2,4.1-2.3,6.1-3.5
		c17.2-9.5,33.8-16.6,49-22.1c2.9-1,5.7-2,8.4-2.9c7.3-2.4,14.2-4.4,20.7-6c23.5-6,40.8-7.5,47.2-7.9V0H0z"/>
</g>
<g id="Layer_2_1_">
</g>
</svg>
